<?xml version="1.0" encoding="utf-8" standalone="no"?>
<!DOCTYPE svg PUBLIC "-//W3C//DTD SVG 1.1//EN"
  "http://www.w3.org/Graphics/SVG/1.1/DTD/svg11.dtd">
<svg xmlns:xlink="http://www.w3.org/1999/xlink" width="460.8pt" height="345.6pt" viewBox="0 0 460.8 345.6" xmlns="http://www.w3.org/2000/svg" version="1.1">
 <metadata>
  <rdf:RDF xmlns:dc="http://purl.org/dc/elements/1.1/" xmlns:cc="http://creativecommons.org/ns#" xmlns:rdf="http://www.w3.org/1999/02/22-rdf-syntax-ns#">
   <cc:Work>
    <dc:type rdf:resource="http://purl.org/dc/dcmitype/StillImage"/>
    <dc:date>2023-08-08T15:54:29.098834</dc:date>
    <dc:format>image/svg+xml</dc:format>
    <dc:creator>
     <cc:Agent>
      <dc:title>Matplotlib v3.7.1, https://matplotlib.org/</dc:title>
     </cc:Agent>
    </dc:creator>
   </cc:Work>
  </rdf:RDF>
 </metadata>
 <defs>
  <style type="text/css">*{stroke-linejoin: round; stroke-linecap: butt}</style>
 </defs>
 <g id="figure_1">
  <g id="patch_1">
   <path d="M 0 345.6 
L 460.8 345.6 
L 460.8 0 
L 0 0 
z
" style="fill: #ffffff"/>
  </g>
  <g id="axes_1">
   <g id="patch_2">
    <path d="M 92.16 276.48 
L 368.64 276.48 
L 368.64 69.12 
L 92.16 69.12 
z
" style="fill: #ffffff"/>
   </g>
   <g id="matplotlib.axis_1">
    <g id="xtick_1">
     <g id="line2d_1">
      <defs>
       <path id="ma6a9b2d84e" d="M 0 0 
L 0 3.5 
" style="stroke: #000000; stroke-width: 0.8"/>
      </defs>
      <g>
       <use xlink:href="#ma6a9b2d84e" x="104.727273" y="276.48" style="stroke: #000000; stroke-width: 0.8"/>
      </g>
     </g>
     <g id="text_1">
      <!-- 0 -->
      <g transform="translate(101.546023 291.078437) scale(0.1 -0.1)">
       <defs>
        <path id="DejaVuSans-30" d="M 2034 4250 
Q 1547 4250 1301 3770 
Q 1056 3291 1056 2328 
Q 1056 1369 1301 889 
Q 1547 409 2034 409 
Q 2525 409 2770 889 
Q 3016 1369 3016 2328 
Q 3016 3291 2770 3770 
Q 2525 4250 2034 4250 
z
M 2034 4750 
Q 2819 4750 3233 4129 
Q 3647 3509 3647 2328 
Q 3647 1150 3233 529 
Q 2819 -91 2034 -91 
Q 1250 -91 836 529 
Q 422 1150 422 2328 
Q 422 3509 836 4129 
Q 1250 4750 2034 4750 
z
" transform="scale(0.015625)"/>
       </defs>
       <use xlink:href="#DejaVuSans-30"/>
      </g>
     </g>
    </g>
    <g id="xtick_2">
     <g id="line2d_2">
      <g>
       <use xlink:href="#ma6a9b2d84e" x="136.664433" y="276.48" style="stroke: #000000; stroke-width: 0.8"/>
      </g>
     </g>
     <g id="text_2">
      <!-- 200 -->
      <g transform="translate(127.120683 291.078437) scale(0.1 -0.1)">
       <defs>
        <path id="DejaVuSans-32" d="M 1228 531 
L 3431 531 
L 3431 0 
L 469 0 
L 469 531 
Q 828 903 1448 1529 
Q 2069 2156 2228 2338 
Q 2531 2678 2651 2914 
Q 2772 3150 2772 3378 
Q 2772 3750 2511 3984 
Q 2250 4219 1831 4219 
Q 1534 4219 1204 4116 
Q 875 4013 500 3803 
L 500 4441 
Q 881 4594 1212 4672 
Q 1544 4750 1819 4750 
Q 2544 4750 2975 4387 
Q 3406 4025 3406 3419 
Q 3406 3131 3298 2873 
Q 3191 2616 2906 2266 
Q 2828 2175 2409 1742 
Q 1991 1309 1228 531 
z
" transform="scale(0.015625)"/>
       </defs>
       <use xlink:href="#DejaVuSans-32"/>
       <use xlink:href="#DejaVuSans-30" x="63.623047"/>
       <use xlink:href="#DejaVuSans-30" x="127.246094"/>
      </g>
     </g>
    </g>
    <g id="xtick_3">
     <g id="line2d_3">
      <g>
       <use xlink:href="#ma6a9b2d84e" x="168.601594" y="276.48" style="stroke: #000000; stroke-width: 0.8"/>
      </g>
     </g>
     <g id="text_3">
      <!-- 400 -->
      <g transform="translate(159.057844 291.078437) scale(0.1 -0.1)">
       <defs>
        <path id="DejaVuSans-34" d="M 2419 4116 
L 825 1625 
L 2419 1625 
L 2419 4116 
z
M 2253 4666 
L 3047 4666 
L 3047 1625 
L 3713 1625 
L 3713 1100 
L 3047 1100 
L 3047 0 
L 2419 0 
L 2419 1100 
L 313 1100 
L 313 1709 
L 2253 4666 
z
" transform="scale(0.015625)"/>
       </defs>
       <use xlink:href="#DejaVuSans-34"/>
       <use xlink:href="#DejaVuSans-30" x="63.623047"/>
       <use xlink:href="#DejaVuSans-30" x="127.246094"/>
      </g>
     </g>
    </g>
    <g id="xtick_4">
     <g id="line2d_4">
      <g>
       <use xlink:href="#ma6a9b2d84e" x="200.538755" y="276.48" style="stroke: #000000; stroke-width: 0.8"/>
      </g>
     </g>
     <g id="text_4">
      <!-- 600 -->
      <g transform="translate(190.995005 291.078437) scale(0.1 -0.1)">
       <defs>
        <path id="DejaVuSans-36" d="M 2113 2584 
Q 1688 2584 1439 2293 
Q 1191 2003 1191 1497 
Q 1191 994 1439 701 
Q 1688 409 2113 409 
Q 2538 409 2786 701 
Q 3034 994 3034 1497 
Q 3034 2003 2786 2293 
Q 2538 2584 2113 2584 
z
M 3366 4563 
L 3366 3988 
Q 3128 4100 2886 4159 
Q 2644 4219 2406 4219 
Q 1781 4219 1451 3797 
Q 1122 3375 1075 2522 
Q 1259 2794 1537 2939 
Q 1816 3084 2150 3084 
Q 2853 3084 3261 2657 
Q 3669 2231 3669 1497 
Q 3669 778 3244 343 
Q 2819 -91 2113 -91 
Q 1303 -91 875 529 
Q 447 1150 447 2328 
Q 447 3434 972 4092 
Q 1497 4750 2381 4750 
Q 2619 4750 2861 4703 
Q 3103 4656 3366 4563 
z
" transform="scale(0.015625)"/>
       </defs>
       <use xlink:href="#DejaVuSans-36"/>
       <use xlink:href="#DejaVuSans-30" x="63.623047"/>
       <use xlink:href="#DejaVuSans-30" x="127.246094"/>
      </g>
     </g>
    </g>
    <g id="xtick_5">
     <g id="line2d_5">
      <g>
       <use xlink:href="#ma6a9b2d84e" x="232.475915" y="276.48" style="stroke: #000000; stroke-width: 0.8"/>
      </g>
     </g>
     <g id="text_5">
      <!-- 800 -->
      <g transform="translate(222.932165 291.078437) scale(0.1 -0.1)">
       <defs>
        <path id="DejaVuSans-38" d="M 2034 2216 
Q 1584 2216 1326 1975 
Q 1069 1734 1069 1313 
Q 1069 891 1326 650 
Q 1584 409 2034 409 
Q 2484 409 2743 651 
Q 3003 894 3003 1313 
Q 3003 1734 2745 1975 
Q 2488 2216 2034 2216 
z
M 1403 2484 
Q 997 2584 770 2862 
Q 544 3141 544 3541 
Q 544 4100 942 4425 
Q 1341 4750 2034 4750 
Q 2731 4750 3128 4425 
Q 3525 4100 3525 3541 
Q 3525 3141 3298 2862 
Q 3072 2584 2669 2484 
Q 3125 2378 3379 2068 
Q 3634 1759 3634 1313 
Q 3634 634 3220 271 
Q 2806 -91 2034 -91 
Q 1263 -91 848 271 
Q 434 634 434 1313 
Q 434 1759 690 2068 
Q 947 2378 1403 2484 
z
M 1172 3481 
Q 1172 3119 1398 2916 
Q 1625 2713 2034 2713 
Q 2441 2713 2670 2916 
Q 2900 3119 2900 3481 
Q 2900 3844 2670 4047 
Q 2441 4250 2034 4250 
Q 1625 4250 1398 4047 
Q 1172 3844 1172 3481 
z
" transform="scale(0.015625)"/>
       </defs>
       <use xlink:href="#DejaVuSans-38"/>
       <use xlink:href="#DejaVuSans-30" x="63.623047"/>
       <use xlink:href="#DejaVuSans-30" x="127.246094"/>
      </g>
     </g>
    </g>
    <g id="xtick_6">
     <g id="line2d_6">
      <g>
       <use xlink:href="#ma6a9b2d84e" x="264.413076" y="276.48" style="stroke: #000000; stroke-width: 0.8"/>
      </g>
     </g>
     <g id="text_6">
      <!-- 1000 -->
      <g transform="translate(251.688076 291.078437) scale(0.1 -0.1)">
       <defs>
        <path id="DejaVuSans-31" d="M 794 531 
L 1825 531 
L 1825 4091 
L 703 3866 
L 703 4441 
L 1819 4666 
L 2450 4666 
L 2450 531 
L 3481 531 
L 3481 0 
L 794 0 
L 794 531 
z
" transform="scale(0.015625)"/>
       </defs>
       <use xlink:href="#DejaVuSans-31"/>
       <use xlink:href="#DejaVuSans-30" x="63.623047"/>
       <use xlink:href="#DejaVuSans-30" x="127.246094"/>
       <use xlink:href="#DejaVuSans-30" x="190.869141"/>
      </g>
     </g>
    </g>
    <g id="xtick_7">
     <g id="line2d_7">
      <g>
       <use xlink:href="#ma6a9b2d84e" x="296.350237" y="276.48" style="stroke: #000000; stroke-width: 0.8"/>
      </g>
     </g>
     <g id="text_7">
      <!-- 1200 -->
      <g transform="translate(283.625237 291.078437) scale(0.1 -0.1)">
       <use xlink:href="#DejaVuSans-31"/>
       <use xlink:href="#DejaVuSans-32" x="63.623047"/>
       <use xlink:href="#DejaVuSans-30" x="127.246094"/>
       <use xlink:href="#DejaVuSans-30" x="190.869141"/>
      </g>
     </g>
    </g>
    <g id="xtick_8">
     <g id="line2d_8">
      <g>
       <use xlink:href="#ma6a9b2d84e" x="328.287397" y="276.48" style="stroke: #000000; stroke-width: 0.8"/>
      </g>
     </g>
     <g id="text_8">
      <!-- 1400 -->
      <g transform="translate(315.562397 291.078437) scale(0.1 -0.1)">
       <use xlink:href="#DejaVuSans-31"/>
       <use xlink:href="#DejaVuSans-34" x="63.623047"/>
       <use xlink:href="#DejaVuSans-30" x="127.246094"/>
       <use xlink:href="#DejaVuSans-30" x="190.869141"/>
      </g>
     </g>
    </g>
    <g id="xtick_9">
     <g id="line2d_9">
      <g>
       <use xlink:href="#ma6a9b2d84e" x="360.224558" y="276.48" style="stroke: #000000; stroke-width: 0.8"/>
      </g>
     </g>
     <g id="text_9">
      <!-- 1600 -->
      <g transform="translate(347.499558 291.078437) scale(0.1 -0.1)">
       <use xlink:href="#DejaVuSans-31"/>
       <use xlink:href="#DejaVuSans-36" x="63.623047"/>
       <use xlink:href="#DejaVuSans-30" x="127.246094"/>
       <use xlink:href="#DejaVuSans-30" x="190.869141"/>
      </g>
     </g>
    </g>
   </g>
   <g id="matplotlib.axis_2">
    <g id="ytick_1">
     <g id="line2d_10">
      <defs>
       <path id="mb9d695d930" d="M 0 0 
L -3.5 0 
" style="stroke: #000000; stroke-width: 0.8"/>
      </defs>
      <g>
       <use xlink:href="#mb9d695d930" x="92.16" y="249.917355" style="stroke: #000000; stroke-width: 0.8"/>
      </g>
     </g>
     <g id="text_10">
      <!-- 0.5 -->
      <g transform="translate(69.256875 253.716574) scale(0.1 -0.1)">
       <defs>
        <path id="DejaVuSans-2e" d="M 684 794 
L 1344 794 
L 1344 0 
L 684 0 
L 684 794 
z
" transform="scale(0.015625)"/>
        <path id="DejaVuSans-35" d="M 691 4666 
L 3169 4666 
L 3169 4134 
L 1269 4134 
L 1269 2991 
Q 1406 3038 1543 3061 
Q 1681 3084 1819 3084 
Q 2600 3084 3056 2656 
Q 3513 2228 3513 1497 
Q 3513 744 3044 326 
Q 2575 -91 1722 -91 
Q 1428 -91 1123 -41 
Q 819 9 494 109 
L 494 744 
Q 775 591 1075 516 
Q 1375 441 1709 441 
Q 2250 441 2565 725 
Q 2881 1009 2881 1497 
Q 2881 1984 2565 2268 
Q 2250 2553 1709 2553 
Q 1456 2553 1204 2497 
Q 953 2441 691 2322 
L 691 4666 
z
" transform="scale(0.015625)"/>
       </defs>
       <use xlink:href="#DejaVuSans-30"/>
       <use xlink:href="#DejaVuSans-2e" x="63.623047"/>
       <use xlink:href="#DejaVuSans-35" x="95.410156"/>
      </g>
     </g>
    </g>
    <g id="ytick_2">
     <g id="line2d_11">
      <g>
       <use xlink:href="#mb9d695d930" x="92.16" y="215.642975" style="stroke: #000000; stroke-width: 0.8"/>
      </g>
     </g>
     <g id="text_11">
      <!-- 0.6 -->
      <g transform="translate(69.256875 219.442194) scale(0.1 -0.1)">
       <use xlink:href="#DejaVuSans-30"/>
       <use xlink:href="#DejaVuSans-2e" x="63.623047"/>
       <use xlink:href="#DejaVuSans-36" x="95.410156"/>
      </g>
     </g>
    </g>
    <g id="ytick_3">
     <g id="line2d_12">
      <g>
       <use xlink:href="#mb9d695d930" x="92.16" y="181.368595" style="stroke: #000000; stroke-width: 0.8"/>
      </g>
     </g>
     <g id="text_12">
      <!-- 0.7 -->
      <g transform="translate(69.256875 185.167814) scale(0.1 -0.1)">
       <defs>
        <path id="DejaVuSans-37" d="M 525 4666 
L 3525 4666 
L 3525 4397 
L 1831 0 
L 1172 0 
L 2766 4134 
L 525 4134 
L 525 4666 
z
" transform="scale(0.015625)"/>
       </defs>
       <use xlink:href="#DejaVuSans-30"/>
       <use xlink:href="#DejaVuSans-2e" x="63.623047"/>
       <use xlink:href="#DejaVuSans-37" x="95.410156"/>
      </g>
     </g>
    </g>
    <g id="ytick_4">
     <g id="line2d_13">
      <g>
       <use xlink:href="#mb9d695d930" x="92.16" y="147.094215" style="stroke: #000000; stroke-width: 0.8"/>
      </g>
     </g>
     <g id="text_13">
      <!-- 0.8 -->
      <g transform="translate(69.256875 150.893434) scale(0.1 -0.1)">
       <use xlink:href="#DejaVuSans-30"/>
       <use xlink:href="#DejaVuSans-2e" x="63.623047"/>
       <use xlink:href="#DejaVuSans-38" x="95.410156"/>
      </g>
     </g>
    </g>
    <g id="ytick_5">
     <g id="line2d_14">
      <g>
       <use xlink:href="#mb9d695d930" x="92.16" y="112.819835" style="stroke: #000000; stroke-width: 0.8"/>
      </g>
     </g>
     <g id="text_14">
      <!-- 0.9 -->
      <g transform="translate(69.256875 116.619053) scale(0.1 -0.1)">
       <defs>
        <path id="DejaVuSans-39" d="M 703 97 
L 703 672 
Q 941 559 1184 500 
Q 1428 441 1663 441 
Q 2288 441 2617 861 
Q 2947 1281 2994 2138 
Q 2813 1869 2534 1725 
Q 2256 1581 1919 1581 
Q 1219 1581 811 2004 
Q 403 2428 403 3163 
Q 403 3881 828 4315 
Q 1253 4750 1959 4750 
Q 2769 4750 3195 4129 
Q 3622 3509 3622 2328 
Q 3622 1225 3098 567 
Q 2575 -91 1691 -91 
Q 1453 -91 1209 -44 
Q 966 3 703 97 
z
M 1959 2075 
Q 2384 2075 2632 2365 
Q 2881 2656 2881 3163 
Q 2881 3666 2632 3958 
Q 2384 4250 1959 4250 
Q 1534 4250 1286 3958 
Q 1038 3666 1038 3163 
Q 1038 2656 1286 2365 
Q 1534 2075 1959 2075 
z
" transform="scale(0.015625)"/>
       </defs>
       <use xlink:href="#DejaVuSans-30"/>
       <use xlink:href="#DejaVuSans-2e" x="63.623047"/>
       <use xlink:href="#DejaVuSans-39" x="95.410156"/>
      </g>
     </g>
    </g>
    <g id="ytick_6">
     <g id="line2d_15">
      <g>
       <use xlink:href="#mb9d695d930" x="92.16" y="78.545455" style="stroke: #000000; stroke-width: 0.8"/>
      </g>
     </g>
     <g id="text_15">
      <!-- 1.0 -->
      <g transform="translate(69.256875 82.344673) scale(0.1 -0.1)">
       <use xlink:href="#DejaVuSans-31"/>
       <use xlink:href="#DejaVuSans-2e" x="63.623047"/>
       <use xlink:href="#DejaVuSans-30" x="95.410156"/>
      </g>
     </g>
    </g>
   </g>
   <g id="line2d_16">
    <path d="M 104.727273 136.811901 
L 104.886959 138.52562 
L 105.845073 138.52562 
L 106.004759 136.811901 
L 107.761303 136.811901 
L 107.920989 135.098182 
L 109.358161 135.098182 
L 109.677533 138.52562 
L 109.996904 135.098182 
L 112.392191 135.098182 
L 112.551877 136.811901 
L 113.350306 136.811901 
L 113.509992 138.52562 
L 113.989049 138.52562 
L 114.468107 133.384463 
L 115.10685 133.384463 
L 115.266536 131.670744 
L 115.905279 131.670744 
L 116.064965 129.957025 
L 116.544022 129.957025 
L 116.703708 128.243306 
L 116.863394 128.243306 
L 117.02308 126.529587 
L 117.182765 126.529587 
L 117.342451 124.815868 
L 117.661823 124.815868 
L 117.821509 126.529587 
L 118.460252 126.529587 
L 118.779623 123.102149 
L 119.098995 123.102149 
L 119.258681 124.815868 
L 119.897424 124.815868 
L 120.216796 121.38843 
L 121.17491 121.38843 
L 121.494282 117.960992 
L 121.973339 117.960992 
L 122.133025 119.674711 
L 122.612083 119.674711 
L 122.931454 116.247273 
L 124.049255 116.247273 
L 124.208941 114.533554 
L 124.368627 114.533554 
L 124.528312 112.819835 
L 124.687998 112.819835 
L 124.847684 111.106116 
L 125.326741 111.106116 
L 125.486427 109.392397 
L 126.12517 109.392397 
L 126.284856 107.678678 
L 126.923599 107.678678 
L 127.402657 102.537521 
L 128.201086 102.537521 
L 128.360772 104.25124 
L 130.436687 104.25124 
L 130.596373 102.537521 
L 130.756059 104.25124 
L 131.394802 104.25124 
L 131.714174 100.823802 
L 132.033545 100.823802 
L 132.193231 102.537521 
L 133.470717 102.537521 
L 133.630403 100.823802 
L 133.790089 100.823802 
L 134.109461 104.25124 
L 135.386947 104.25124 
L 135.546633 102.537521 
L 136.664433 102.537521 
L 136.824119 100.823802 
L 136.983805 102.537521 
L 140.177521 102.537521 
L 140.337207 104.25124 
L 141.135636 104.25124 
L 141.295322 105.964959 
L 141.614693 102.537521 
L 142.732494 102.537521 
L 142.89218 100.823802 
L 144.329352 100.823802 
L 144.489038 99.110083 
L 145.287467 99.110083 
L 145.447153 97.396364 
L 145.606838 99.110083 
L 149.598983 99.110083 
L 149.758669 97.396364 
L 150.716784 97.396364 
L 150.87647 99.110083 
L 151.036156 99.110083 
L 151.195842 97.396364 
L 151.355527 99.110083 
L 151.834585 99.110083 
L 151.994271 100.823802 
L 153.9105 100.823802 
L 154.070186 99.110083 
L 156.465473 99.110083 
L 156.625159 100.823802 
L 160.138247 100.823802 
L 160.297932 99.110083 
L 162.054476 99.110083 
L 162.214162 100.823802 
L 162.533534 100.823802 
L 162.693219 99.110083 
L 163.970706 99.110083 
L 164.130392 97.396364 
L 165.72725 97.396364 
L 166.046621 93.968926 
L 166.206307 93.968926 
L 166.365993 95.682645 
L 168.76128 95.682645 
L 168.920966 93.968926 
L 169.400023 93.968926 
L 169.559709 95.682645 
L 170.517824 95.682645 
L 170.67751 97.396364 
L 172.114682 97.396364 
L 172.274368 95.682645 
L 175.148712 95.682645 
L 175.308398 97.396364 
L 175.947141 97.396364 
L 176.106827 99.110083 
L 177.384313 99.110083 
L 177.543999 97.396364 
L 182.653945 97.396364 
L 182.813631 95.682645 
L 183.133002 95.682645 
L 183.292688 93.968926 
L 183.771745 93.968926 
L 183.931431 92.255207 
L 184.570174 92.255207 
L 184.72986 93.968926 
L 186.965461 93.968926 
L 187.125147 95.682645 
L 187.444519 95.682645 
L 187.604205 97.396364 
L 188.402634 97.396364 
L 188.56232 95.682645 
L 189.041377 95.682645 
L 189.201063 97.396364 
L 193.033522 97.396364 
L 193.193208 99.110083 
L 193.991637 99.110083 
L 194.151323 97.396364 
L 198.143468 97.396364 
L 198.303154 95.682645 
L 201.017812 95.682645 
L 201.177498 97.396364 
L 201.337184 97.396364 
L 201.49687 95.682645 
L 202.454984 95.682645 
L 202.61467 93.968926 
L 205.009957 93.968926 
L 205.169643 92.255207 
L 205.329329 92.255207 
L 205.489015 93.968926 
L 207.085873 93.968926 
L 207.245559 92.255207 
L 207.884302 92.255207 
L 208.043988 90.541488 
L 208.842417 90.541488 
L 209.002102 92.255207 
L 211.716761 92.255207 
L 211.876447 93.968926 
L 214.750791 93.968926 
L 214.910477 95.682645 
L 216.507335 95.682645 
L 216.667021 93.968926 
L 218.902622 93.968926 
L 219.062308 92.255207 
L 219.221994 93.968926 
L 219.38168 93.968926 
L 219.541365 92.255207 
L 220.978538 92.255207 
L 221.138223 90.541488 
L 222.41571 90.541488 
L 222.575396 92.255207 
L 223.214139 92.255207 
L 223.373825 93.968926 
L 223.693196 93.968926 
L 223.852882 95.682645 
L 224.970683 95.682645 
L 225.130368 93.968926 
L 226.567541 93.968926 
L 226.727227 95.682645 
L 227.685341 95.682645 
L 227.845027 97.396364 
L 232.954973 97.396364 
L 233.114659 95.682645 
L 234.551831 95.682645 
L 234.711517 97.396364 
L 236.627746 97.396364 
L 236.787432 99.110083 
L 237.26649 99.110083 
L 237.426175 97.396364 
L 240.779577 97.396364 
L 240.939263 95.682645 
L 243.653922 95.682645 
L 243.813607 93.968926 
L 245.091094 93.968926 
L 245.25078 95.682645 
L 246.687952 95.682645 
L 246.847638 93.968926 
L 250.520411 93.968926 
L 250.680097 95.682645 
L 250.999469 95.682645 
L 251.159154 93.968926 
L 254.352871 93.968926 
L 254.512556 92.255207 
L 254.672242 93.968926 
L 255.1513 93.968926 
L 255.310985 92.255207 
L 255.630357 92.255207 
L 255.790043 90.541488 
L 255.949729 92.255207 
L 256.907843 92.255207 
L 257.067529 93.968926 
L 258.504701 93.968926 
L 258.664387 92.255207 
L 259.622502 92.255207 
L 259.782188 90.541488 
L 261.21936 90.541488 
L 261.379046 92.255207 
L 263.454961 92.255207 
L 263.614647 93.968926 
L 266.488992 93.968926 
L 266.648677 92.255207 
L 268.564907 92.255207 
L 268.724593 90.541488 
L 269.20365 90.541488 
L 269.363336 92.255207 
L 276.549197 92.255207 
L 276.708883 93.968926 
L 277.028255 93.968926 
L 277.18794 92.255207 
L 277.347626 93.968926 
L 282.457572 93.968926 
L 282.617258 92.255207 
L 286.449717 92.255207 
L 286.609403 90.541488 
L 287.248146 90.541488 
L 287.407832 92.255207 
L 287.727203 92.255207 
L 287.886889 90.541488 
L 288.046575 92.255207 
L 288.845004 92.255207 
L 289.00469 90.541488 
L 293.156521 90.541488 
L 293.316207 88.827769 
L 295.232436 88.827769 
L 295.392122 90.541488 
L 295.551808 88.827769 
L 298.106781 88.827769 
L 298.106781 88.827769 
" clip-path="url(#p631ad564fe)" style="fill: none; stroke: #1f77b4; stroke-width: 1.5; stroke-linecap: square"/>
   </g>
   <g id="line2d_17">
    <path d="M 104.727273 78.545455 
L 302.418297 78.545455 
L 302.418297 78.545455 
" clip-path="url(#p631ad564fe)" style="fill: none; stroke: #ff7f0e; stroke-width: 1.5; stroke-linecap: square"/>
   </g>
   <g id="line2d_18">
    <path d="M 104.727273 136.811901 
L 105.845073 136.811901 
L 106.004759 138.52562 
L 106.324131 135.098182 
L 107.12256 135.098182 
L 107.441931 138.52562 
L 107.761303 135.098182 
L 107.920989 136.811901 
L 108.080675 136.811901 
L 108.24036 138.52562 
L 108.400046 136.811901 
L 109.517847 136.811901 
L 109.677533 135.098182 
L 110.15659 135.098182 
L 110.316276 133.384463 
L 111.434076 133.384463 
L 111.593762 131.670744 
L 112.232505 131.670744 
L 112.392191 133.384463 
L 112.711563 133.384463 
L 112.871249 135.098182 
L 113.19062 131.670744 
L 113.350306 131.670744 
L 113.509992 129.957025 
L 114.468107 129.957025 
L 114.627793 128.243306 
L 115.10685 128.243306 
L 115.266536 126.529587 
L 115.426222 126.529587 
L 115.585907 124.815868 
L 115.745593 124.815868 
L 115.905279 123.102149 
L 116.064965 124.815868 
L 116.224651 124.815868 
L 116.384336 126.529587 
L 116.703708 126.529587 
L 116.863394 128.243306 
L 118.619938 128.243306 
L 118.779623 126.529587 
L 118.939309 126.529587 
L 119.098995 128.243306 
L 119.897424 128.243306 
L 120.05711 129.957025 
L 120.376481 129.957025 
L 120.536167 131.670744 
L 120.855539 131.670744 
L 121.015225 133.384463 
L 122.931454 133.384463 
L 123.09114 135.098182 
L 123.889569 135.098182 
L 124.049255 133.384463 
L 125.486427 133.384463 
L 125.646113 131.670744 
L 125.805799 131.670744 
L 125.965485 129.957025 
L 126.12517 129.957025 
L 126.284856 128.243306 
L 126.444542 129.957025 
L 126.763914 129.957025 
L 126.923599 128.243306 
L 127.083285 128.243306 
L 127.402657 131.670744 
L 127.562343 131.670744 
L 127.722028 133.384463 
L 127.881714 133.384463 
L 128.0414 131.670744 
L 128.201086 131.670744 
L 128.520457 128.243306 
L 129.797944 128.243306 
L 129.95763 126.529587 
L 130.117315 126.529587 
L 130.277001 128.243306 
L 131.07543 128.243306 
L 131.235116 126.529587 
L 131.714174 126.529587 
L 131.873859 124.815868 
L 132.672288 124.815868 
L 132.831974 126.529587 
L 132.99166 126.529587 
L 133.151346 124.815868 
L 133.630403 124.815868 
L 133.949775 121.38843 
L 134.90789 121.38843 
L 135.067575 123.102149 
L 135.386947 119.674711 
L 137.782234 119.674711 
L 137.94192 117.960992 
L 139.05972 117.960992 
L 139.379092 114.533554 
L 139.698464 114.533554 
L 139.858149 112.819835 
L 140.017835 112.819835 
L 140.177521 111.106116 
L 144.169666 111.106116 
L 144.329352 109.392397 
L 147.84244 109.392397 
L 148.002125 107.678678 
L 148.640869 107.678678 
L 148.800554 105.964959 
L 149.279612 105.964959 
L 149.439298 104.25124 
L 150.87647 104.25124 
L 151.036156 102.537521 
L 151.834585 102.537521 
L 151.994271 100.823802 
L 152.313642 100.823802 
L 152.473328 99.110083 
L 152.633014 99.110083 
L 152.7927 100.823802 
L 152.952385 99.110083 
L 154.549243 99.110083 
L 154.708929 97.396364 
L 157.742959 97.396364 
L 158.062331 100.823802 
L 158.222017 100.823802 
L 158.381703 99.110083 
L 159.020446 99.110083 
L 159.339817 95.682645 
L 159.499503 95.682645 
L 159.659189 93.968926 
L 160.457618 93.968926 
L 160.617304 95.682645 
L 160.936676 95.682645 
L 161.096361 97.396364 
L 162.054476 97.396364 
L 162.214162 95.682645 
L 164.130392 95.682645 
L 164.290077 97.396364 
L 164.609449 97.396364 
L 164.769135 95.682645 
L 166.84505 95.682645 
L 167.004736 93.968926 
L 167.164422 93.968926 
L 167.324108 95.682645 
L 169.719395 95.682645 
L 169.879081 97.396364 
L 173.392168 97.396364 
L 173.551854 99.110083 
L 179.7796 99.110083 
L 179.939286 100.823802 
L 180.098972 100.823802 
L 180.258658 99.110083 
L 181.69583 99.110083 
L 181.855516 100.823802 
L 182.174887 100.823802 
L 182.334573 102.537521 
L 184.570174 102.537521 
L 184.72986 100.823802 
L 185.208918 100.823802 
L 185.368603 102.537521 
L 186.326718 102.537521 
L 186.486404 104.25124 
L 186.805776 104.25124 
L 186.965461 102.537521 
L 187.125147 104.25124 
L 187.444519 104.25124 
L 187.604205 105.964959 
L 192.394779 105.964959 
L 192.554465 104.25124 
L 192.873836 104.25124 
L 193.033522 102.537521 
L 193.352894 102.537521 
L 193.512579 104.25124 
L 193.672265 104.25124 
L 193.831951 105.964959 
L 194.311008 105.964959 
L 194.470694 107.678678 
L 196.067552 107.678678 
L 196.227238 105.964959 
L 196.706295 105.964959 
L 196.865981 107.678678 
L 199.101583 107.678678 
L 199.261268 105.964959 
L 200.698441 105.964959 
L 200.858126 107.678678 
L 201.656555 107.678678 
L 201.816241 105.964959 
L 204.5309 105.964959 
L 204.690586 107.678678 
L 205.169643 107.678678 
L 205.329329 109.392397 
L 205.489015 107.678678 
L 206.447129 107.678678 
L 206.606815 109.392397 
L 206.766501 109.392397 
L 206.926187 111.106116 
L 208.523045 111.106116 
L 208.682731 109.392397 
L 211.716761 109.392397 
L 211.876447 107.678678 
L 212.036133 109.392397 
L 213.153933 109.392397 
L 213.313619 111.106116 
L 213.632991 111.106116 
L 213.792676 109.392397 
L 214.112048 109.392397 
L 214.271734 107.678678 
L 214.591105 111.106116 
L 217.146078 111.106116 
L 217.305764 109.392397 
L 218.263879 109.392397 
L 218.423565 107.678678 
L 218.902622 107.678678 
L 219.062308 105.964959 
L 219.38168 105.964959 
L 219.541365 104.25124 
L 221.617281 104.25124 
L 221.936652 100.823802 
L 224.172254 100.823802 
L 224.331939 102.537521 
L 225.290054 102.537521 
L 225.44974 100.823802 
L 225.928798 100.823802 
L 226.088483 102.537521 
L 226.248169 102.537521 
L 226.407855 100.823802 
L 228.643456 100.823802 
L 228.803142 99.110083 
L 231.198429 99.110083 
L 231.358115 100.823802 
L 232.635601 100.823802 
L 232.795287 99.110083 
L 236.308375 99.110083 
L 236.468061 100.823802 
L 236.627746 99.110083 
L 237.106804 99.110083 
L 237.26649 97.396364 
L 238.38429 97.396364 
L 238.543976 95.682645 
L 238.703662 95.682645 
L 238.863348 93.968926 
L 242.536121 93.968926 
L 242.855493 97.396364 
L 243.813607 97.396364 
L 243.973293 95.682645 
L 244.612037 95.682645 
L 244.771722 97.396364 
L 245.091094 97.396364 
L 245.25078 95.682645 
L 246.208895 95.682645 
L 246.528266 92.255207 
L 251.31884 92.255207 
L 251.478526 93.968926 
L 253.554441 93.968926 
L 253.714127 95.682645 
L 253.873813 95.682645 
L 254.033499 97.396364 
L 255.470671 97.396364 
L 255.630357 99.110083 
L 256.109414 99.110083 
L 256.2691 97.396364 
L 257.227215 97.396364 
L 257.386901 99.110083 
L 257.546587 99.110083 
L 257.706272 97.396364 
L 257.865958 97.396364 
L 258.025644 95.682645 
L 260.740303 95.682645 
L 260.899988 97.396364 
L 263.13559 97.396364 
L 263.295275 95.682645 
L 264.572762 95.682645 
L 264.732448 97.396364 
L 268.245535 97.396364 
L 268.405221 95.682645 
L 269.20365 95.682645 
L 269.363336 97.396364 
L 270.002079 97.396364 
L 270.161765 99.110083 
L 274.473282 99.110083 
L 274.792653 95.682645 
L 274.952339 97.396364 
L 276.549197 97.396364 
L 276.708883 95.682645 
L 277.986369 95.682645 
L 278.146055 97.396364 
L 283.256001 97.396364 
L 283.415687 95.682645 
L 283.575373 95.682645 
L 283.735058 97.396364 
L 285.491602 97.396364 
L 285.651288 95.682645 
L 285.810974 95.682645 
L 285.97066 93.968926 
L 286.769089 93.968926 
L 286.928774 95.682645 
L 287.407832 95.682645 
L 287.567518 93.968926 
L 289.164376 93.968926 
L 289.324061 92.255207 
L 291.559663 92.255207 
L 291.719349 93.968926 
L 292.358092 93.968926 
L 292.517778 95.682645 
L 292.677463 95.682645 
L 292.837149 93.968926 
L 296.509923 93.968926 
L 296.669608 92.255207 
L 296.669608 92.255207 
" clip-path="url(#p631ad564fe)" style="fill: none; stroke: #2ca02c; stroke-width: 1.5; stroke-linecap: square"/>
   </g>
   <g id="line2d_19">
    <path d="M 104.727273 78.545455 
L 292.517778 78.545455 
L 292.517778 78.545455 
" clip-path="url(#p631ad564fe)" style="fill: none; stroke: #d62728; stroke-width: 1.5; stroke-linecap: square"/>
   </g>
   <g id="line2d_20">
    <path d="M 104.727273 123.102149 
L 104.886959 121.38843 
L 106.483817 121.38843 
L 106.643502 123.102149 
L 109.996904 123.102149 
L 110.475962 117.960992 
L 110.635647 117.960992 
L 110.795333 119.674711 
L 111.753448 119.674711 
L 111.913134 117.960992 
L 112.232505 117.960992 
L 112.551877 121.38843 
L 113.19062 121.38843 
L 113.509992 124.815868 
L 114.627793 124.815868 
L 114.787478 123.102149 
L 115.266536 123.102149 
L 115.426222 124.815868 
L 115.585907 124.815868 
L 115.745593 126.529587 
L 117.02308 126.529587 
L 117.342451 123.102149 
L 117.661823 123.102149 
L 117.821509 121.38843 
L 119.897424 121.38843 
L 120.05711 119.674711 
L 120.376481 119.674711 
L 120.855539 114.533554 
L 121.334596 114.533554 
L 121.494282 112.819835 
L 123.410512 112.819835 
L 123.570198 114.533554 
L 123.729883 112.819835 
L 124.049255 112.819835 
L 124.368627 109.392397 
L 125.00737 109.392397 
L 125.167056 111.106116 
L 126.604228 111.106116 
L 126.763914 109.392397 
L 128.360772 109.392397 
L 128.520457 111.106116 
L 129.318886 111.106116 
L 129.478572 112.819835 
L 129.638258 111.106116 
L 130.915744 111.106116 
L 131.07543 109.392397 
L 131.235116 109.392397 
L 131.394802 107.678678 
L 132.352917 107.678678 
L 132.512603 109.392397 
L 133.949775 109.392397 
L 134.109461 107.678678 
L 136.504748 107.678678 
L 136.664433 105.964959 
L 137.303177 105.964959 
L 137.462862 107.678678 
L 138.420977 107.678678 
L 138.580663 105.964959 
L 139.219406 105.964959 
L 139.379092 104.25124 
L 142.572808 104.25124 
L 142.732494 102.537521 
L 144.169666 102.537521 
L 144.489038 99.110083 
L 144.648724 99.110083 
L 144.968095 102.537521 
L 145.127781 102.537521 
L 145.447153 99.110083 
L 147.203696 99.110083 
L 147.363382 97.396364 
L 147.523068 97.396364 
L 147.682754 95.682645 
L 148.800554 95.682645 
L 148.96024 97.396364 
L 151.355527 97.396364 
L 151.515213 99.110083 
L 152.473328 99.110083 
L 152.633014 100.823802 
L 152.7927 100.823802 
L 152.952385 99.110083 
L 153.112071 100.823802 
L 155.028301 100.823802 
L 155.347672 104.25124 
L 155.507358 102.537521 
L 157.263902 102.537521 
L 157.423588 104.25124 
L 158.381703 104.25124 
L 158.541388 105.964959 
L 160.297932 105.964959 
L 160.457618 104.25124 
L 161.256047 104.25124 
L 161.415733 102.537521 
L 161.575419 104.25124 
L 161.89479 104.25124 
L 162.054476 105.964959 
L 162.693219 105.964959 
L 162.852905 107.678678 
L 163.012591 107.678678 
L 163.172277 105.964959 
L 163.331963 107.678678 
L 164.290077 107.678678 
L 164.449763 105.964959 
L 166.365993 105.964959 
L 166.525679 107.678678 
L 167.004736 107.678678 
L 167.164422 109.392397 
L 168.76128 109.392397 
L 168.920966 111.106116 
L 169.240337 111.106116 
L 169.400023 109.392397 
L 171.635624 109.392397 
L 171.79531 111.106116 
L 172.114682 111.106116 
L 172.274368 112.819835 
L 174.350283 112.819835 
L 174.509969 114.533554 
L 175.627769 114.533554 
L 175.787455 116.247273 
L 176.585884 116.247273 
L 176.905256 112.819835 
L 180.737715 112.819835 
L 180.897401 111.106116 
L 182.653945 111.106116 
L 182.813631 112.819835 
L 182.973316 112.819835 
L 183.133002 114.533554 
L 183.292688 114.533554 
L 183.452374 112.819835 
L 183.61206 114.533554 
L 184.410489 114.533554 
L 184.570174 112.819835 
L 184.889546 112.819835 
L 185.049232 111.106116 
L 186.64609 111.106116 
L 186.805776 112.819835 
L 186.965461 112.819835 
L 187.284833 109.392397 
L 188.881691 109.392397 
L 189.041377 107.678678 
L 189.201063 107.678678 
L 189.360749 105.964959 
L 190.318863 105.964959 
L 190.478549 104.25124 
L 190.797921 104.25124 
L 190.957607 105.964959 
L 193.352894 105.964959 
L 193.512579 104.25124 
L 193.831951 104.25124 
L 193.991637 102.537521 
L 194.63038 102.537521 
L 194.790066 100.823802 
L 195.109437 100.823802 
L 195.269123 99.110083 
L 198.303154 99.110083 
L 198.462839 97.396364 
L 198.622525 99.110083 
L 198.941897 99.110083 
L 199.101583 97.396364 
L 199.58064 97.396364 
L 199.740326 99.110083 
L 200.698441 99.110083 
L 200.858126 97.396364 
L 201.177498 97.396364 
L 201.337184 99.110083 
L 203.572785 99.110083 
L 203.732471 97.396364 
L 203.892157 99.110083 
L 204.051842 99.110083 
L 204.211528 97.396364 
L 204.371214 99.110083 
L 206.127758 99.110083 
L 206.287444 100.823802 
L 206.447129 99.110083 
L 207.085873 99.110083 
L 207.245559 100.823802 
L 207.56493 100.823802 
L 207.724616 99.110083 
L 208.203673 99.110083 
L 208.363359 100.823802 
L 209.321474 100.823802 
L 209.48116 102.537521 
L 209.960217 102.537521 
L 210.119903 104.25124 
L 210.279589 104.25124 
L 210.439275 105.964959 
L 211.078018 105.964959 
L 211.237704 107.678678 
L 212.834562 107.678678 
L 213.153933 111.106116 
L 213.632991 111.106116 
L 213.952362 114.533554 
L 214.591105 114.533554 
L 214.750791 112.819835 
L 214.910477 112.819835 
L 215.070163 111.106116 
L 215.389534 111.106116 
L 215.54922 109.392397 
L 218.104193 109.392397 
L 218.263879 111.106116 
L 218.583251 111.106116 
L 218.742936 109.392397 
L 222.735081 109.392397 
L 222.894767 107.678678 
L 223.054453 107.678678 
L 223.214139 109.392397 
L 223.373825 109.392397 
L 223.53351 111.106116 
L 223.852882 111.106116 
L 224.012568 112.819835 
L 228.643456 112.819835 
L 228.803142 114.533554 
L 230.4 114.533554 
L 230.559686 112.819835 
L 230.879057 112.819835 
L 231.038743 114.533554 
L 231.517801 114.533554 
L 231.677486 112.819835 
L 233.114659 112.819835 
L 233.274344 111.106116 
L 235.35026 111.106116 
L 235.509946 112.819835 
L 236.308375 112.819835 
L 236.468061 114.533554 
L 238.064919 114.533554 
L 238.224604 112.819835 
L 239.023033 112.819835 
L 239.182719 111.106116 
L 240.140834 111.106116 
L 240.30052 109.392397 
L 241.098949 109.392397 
L 241.258635 111.106116 
L 241.41832 109.392397 
L 241.897378 109.392397 
L 242.057064 107.678678 
L 242.216749 109.392397 
L 242.376435 107.678678 
L 243.015178 107.678678 
L 243.174864 105.964959 
L 244.771722 105.964959 
L 244.931408 104.25124 
L 245.570151 104.25124 
L 245.889523 100.823802 
L 250.041354 100.823802 
L 250.20104 99.110083 
L 251.797898 99.110083 
L 251.957583 100.823802 
L 254.672242 100.823802 
L 254.831928 102.537521 
L 254.991614 102.537521 
L 255.1513 100.823802 
L 255.310985 100.823802 
L 255.470671 99.110083 
L 255.630357 100.823802 
L 255.790043 100.823802 
L 255.949729 99.110083 
L 258.664387 99.110083 
L 258.824073 100.823802 
L 259.143445 100.823802 
L 259.30313 102.537521 
L 260.261245 102.537521 
L 260.420931 104.25124 
L 260.580617 104.25124 
L 260.740303 102.537521 
L 262.816218 102.537521 
L 262.975904 100.823802 
L 263.13559 100.823802 
L 263.295275 102.537521 
L 266.968049 102.537521 
L 267.127735 104.25124 
L 267.287421 104.25124 
L 267.447106 102.537521 
L 267.606792 104.25124 
L 267.766478 102.537521 
L 268.08585 102.537521 
L 268.405221 99.110083 
L 270.800508 99.110083 
L 270.960194 100.823802 
L 271.918309 100.823802 
L 272.077995 102.537521 
L 273.03611 102.537521 
L 273.195795 100.823802 
L 273.994224 100.823802 
L 274.15391 99.110083 
L 275.750768 99.110083 
L 275.910454 100.823802 
L 276.868569 100.823802 
L 277.028255 99.110083 
L 278.146055 99.110083 
L 278.305741 100.823802 
L 278.944484 100.823802 
L 279.10417 102.537521 
L 280.062285 102.537521 
L 280.221971 104.25124 
L 280.541342 104.25124 
L 280.701028 105.964959 
L 283.415687 105.964959 
L 283.575373 107.678678 
L 283.735058 107.678678 
L 283.894744 105.964959 
L 284.852859 105.964959 
L 285.012545 107.678678 
L 285.331916 107.678678 
L 285.491602 109.392397 
L 286.609403 109.392397 
L 286.769089 107.678678 
L 286.928774 109.392397 
L 287.407832 109.392397 
L 287.567518 107.678678 
L 289.643433 107.678678 
L 289.803119 109.392397 
L 290.12249 109.392397 
L 290.282176 111.106116 
L 290.601548 111.106116 
L 290.761234 109.392397 
L 291.080605 109.392397 
L 291.240291 107.678678 
L 291.399977 109.392397 
L 292.03872 109.392397 
L 292.198406 111.106116 
L 292.358092 109.392397 
L 294.434007 109.392397 
L 294.593693 111.106116 
L 295.07275 111.106116 
L 295.232436 109.392397 
L 298.266466 109.392397 
L 298.426152 111.106116 
L 298.90521 111.106116 
L 299.064895 109.392397 
L 300.981125 109.392397 
L 300.981125 109.392397 
" clip-path="url(#p631ad564fe)" style="fill: none; stroke: #9467bd; stroke-width: 1.5; stroke-linecap: square"/>
   </g>
   <g id="line2d_21">
    <path d="M 104.727273 78.545455 
L 292.837149 78.545455 
L 292.837149 78.545455 
" clip-path="url(#p631ad564fe)" style="fill: none; stroke: #8c564b; stroke-width: 1.5; stroke-linecap: square"/>
   </g>
   <g id="line2d_22">
    <path d="M 104.727273 123.102149 
L 104.886959 124.815868 
L 105.046644 124.815868 
L 105.366016 128.243306 
L 106.004759 128.243306 
L 106.324131 131.670744 
L 106.483817 131.670744 
L 106.643502 129.957025 
L 107.601617 129.957025 
L 107.761303 131.670744 
L 107.920989 131.670744 
L 108.080675 133.384463 
L 108.400046 133.384463 
L 108.559732 135.098182 
L 109.517847 135.098182 
L 109.677533 133.384463 
L 110.316276 133.384463 
L 110.475962 131.670744 
L 110.635647 131.670744 
L 110.795333 129.957025 
L 111.114705 133.384463 
L 111.274391 133.384463 
L 111.434076 131.670744 
L 111.913134 131.670744 
L 112.07282 129.957025 
L 112.871249 129.957025 
L 113.030935 128.243306 
L 114.787478 128.243306 
L 114.947164 129.957025 
L 115.10685 129.957025 
L 115.426222 126.529587 
L 115.585907 128.243306 
L 115.745593 126.529587 
L 116.544022 126.529587 
L 116.703708 128.243306 
L 118.300566 128.243306 
L 118.460252 129.957025 
L 118.619938 129.957025 
L 118.779623 131.670744 
L 118.939309 129.957025 
L 120.536167 129.957025 
L 120.855539 126.529587 
L 121.17491 126.529587 
L 121.334596 128.243306 
L 121.494282 128.243306 
L 121.653968 129.957025 
L 122.452397 129.957025 
L 122.612083 128.243306 
L 123.250826 128.243306 
L 123.410512 129.957025 
L 124.847684 129.957025 
L 125.00737 131.670744 
L 125.646113 131.670744 
L 125.805799 129.957025 
L 125.965485 129.957025 
L 126.284856 126.529587 
L 126.763914 126.529587 
L 127.242971 131.670744 
L 127.562343 131.670744 
L 127.722028 129.957025 
L 128.360772 129.957025 
L 128.520457 128.243306 
L 128.999515 128.243306 
L 129.159201 129.957025 
L 129.318886 129.957025 
L 129.478572 128.243306 
L 129.638258 129.957025 
L 129.95763 129.957025 
L 130.117315 128.243306 
L 130.596373 128.243306 
L 130.756059 126.529587 
L 130.915744 126.529587 
L 131.07543 124.815868 
L 131.394802 124.815868 
L 131.714174 128.243306 
L 131.873859 126.529587 
L 132.99166 126.529587 
L 133.151346 128.243306 
L 134.109461 128.243306 
L 134.269146 129.957025 
L 134.748204 129.957025 
L 134.90789 128.243306 
L 136.504748 128.243306 
L 136.664433 129.957025 
L 136.824119 128.243306 
L 136.983805 129.957025 
L 137.303177 126.529587 
L 137.462862 128.243306 
L 137.622548 128.243306 
L 137.782234 129.957025 
L 137.94192 129.957025 
L 138.261291 126.529587 
L 138.420977 128.243306 
L 139.05972 128.243306 
L 139.219406 129.957025 
L 139.538778 129.957025 
L 139.698464 128.243306 
L 139.858149 128.243306 
L 140.017835 126.529587 
L 140.177521 128.243306 
L 140.337207 128.243306 
L 140.496893 126.529587 
L 141.135636 126.529587 
L 141.295322 128.243306 
L 141.455008 128.243306 
L 141.614693 129.957025 
L 142.093751 129.957025 
L 142.253437 131.670744 
L 142.572808 131.670744 
L 142.732494 133.384463 
L 142.89218 131.670744 
L 143.850295 131.670744 
L 144.00998 133.384463 
L 144.648724 133.384463 
L 144.808409 135.098182 
L 145.447153 135.098182 
L 145.606838 136.811901 
L 145.766524 135.098182 
L 146.564953 135.098182 
L 146.724639 136.811901 
L 146.884325 135.098182 
L 147.363382 135.098182 
L 147.523068 133.384463 
L 148.481183 133.384463 
L 148.640869 131.670744 
L 149.918355 131.670744 
L 150.078041 133.384463 
L 150.237727 133.384463 
L 150.397412 131.670744 
L 150.557098 131.670744 
L 150.716784 129.957025 
L 150.87647 131.670744 
L 152.153956 131.670744 
L 152.7927 138.52562 
L 153.112071 138.52562 
L 153.271757 136.811901 
L 153.431443 138.52562 
L 153.591129 136.811901 
L 154.070186 136.811901 
L 154.229872 138.52562 
L 155.187987 138.52562 
L 155.347672 136.811901 
L 155.667044 136.811901 
L 155.82673 138.52562 
L 156.465473 138.52562 
L 156.625159 140.239339 
L 156.784845 140.239339 
L 156.94453 138.52562 
L 158.701074 138.52562 
L 159.180132 133.384463 
L 160.936676 133.384463 
L 161.096361 131.670744 
L 161.415733 131.670744 
L 161.575419 129.957025 
L 162.852905 129.957025 
L 163.012591 131.670744 
L 163.331963 131.670744 
L 163.651334 128.243306 
L 163.81102 128.243306 
L 163.970706 129.957025 
L 164.290077 129.957025 
L 164.449763 131.670744 
L 164.769135 131.670744 
L 164.928821 133.384463 
L 165.088506 131.670744 
L 165.248192 133.384463 
L 166.525679 133.384463 
L 166.685364 135.098182 
L 166.84505 135.098182 
L 167.004736 136.811901 
L 168.441908 136.811901 
L 168.601594 135.098182 
L 168.76128 135.098182 
L 168.920966 133.384463 
L 169.080651 133.384463 
L 169.240337 135.098182 
L 169.400023 133.384463 
L 169.559709 133.384463 
L 169.719395 131.670744 
L 170.198452 131.670744 
L 170.358138 129.957025 
L 170.837195 129.957025 
L 170.996881 131.670744 
L 171.156567 129.957025 
L 171.79531 129.957025 
L 171.954996 131.670744 
L 172.274368 131.670744 
L 172.434053 133.384463 
L 172.753425 133.384463 
L 173.072797 136.811901 
L 173.232482 135.098182 
L 173.392168 136.811901 
L 173.551854 135.098182 
L 174.030911 135.098182 
L 174.190597 133.384463 
L 174.509969 133.384463 
L 174.669655 131.670744 
L 174.82934 131.670744 
L 174.989026 129.957025 
L 175.787455 129.957025 
L 175.947141 128.243306 
L 176.106827 129.957025 
L 177.384313 129.957025 
L 177.543999 128.243306 
L 178.342428 128.243306 
L 178.502114 129.957025 
L 178.6618 128.243306 
L 181.855516 128.243306 
L 182.015202 126.529587 
L 182.653945 126.529587 
L 182.813631 124.815868 
L 183.931431 124.815868 
L 184.091117 126.529587 
L 184.72986 119.674711 
L 184.889546 121.38843 
L 185.208918 121.38843 
L 185.368603 119.674711 
L 186.007347 119.674711 
L 186.167032 117.960992 
L 186.486404 117.960992 
L 186.64609 119.674711 
L 187.604205 119.674711 
L 187.76389 117.960992 
L 188.402634 117.960992 
L 188.56232 116.247273 
L 189.360749 116.247273 
L 189.520434 117.960992 
L 191.436664 117.960992 
L 191.59635 119.674711 
L 194.470694 119.674711 
L 194.63038 121.38843 
L 194.790066 121.38843 
L 194.949752 119.674711 
L 195.109437 121.38843 
L 195.748181 121.38843 
L 195.907866 119.674711 
L 196.227238 119.674711 
L 196.386924 117.960992 
L 196.706295 117.960992 
L 196.865981 116.247273 
L 197.025667 116.247273 
L 197.185353 114.533554 
L 197.983782 114.533554 
L 198.143468 112.819835 
L 198.462839 112.819835 
L 198.622525 111.106116 
L 202.295299 111.106116 
L 202.454984 112.819835 
L 202.61467 112.819835 
L 202.774356 114.533554 
L 202.934042 112.819835 
L 203.732471 112.819835 
L 203.892157 111.106116 
L 204.211528 111.106116 
L 204.371214 109.392397 
L 204.690586 109.392397 
L 205.009957 105.964959 
L 205.169643 105.964959 
L 205.329329 104.25124 
L 205.489015 104.25124 
L 205.6487 105.964959 
L 207.884302 105.964959 
L 208.043988 104.25124 
L 208.523045 104.25124 
L 208.682731 102.537521 
L 209.002102 102.537521 
L 209.161788 104.25124 
L 209.640846 104.25124 
L 209.960217 107.678678 
L 210.279589 107.678678 
L 210.439275 105.964959 
L 210.918332 105.964959 
L 211.078018 107.678678 
L 212.195818 107.678678 
L 212.355504 109.392397 
L 212.834562 109.392397 
L 212.994247 111.106116 
L 215.868592 111.106116 
L 216.028278 109.392397 
L 216.507335 109.392397 
L 216.667021 111.106116 
L 216.826707 109.392397 
L 217.625136 109.392397 
L 217.784822 111.106116 
L 218.423565 111.106116 
L 218.583251 109.392397 
L 219.062308 109.392397 
L 219.221994 111.106116 
L 220.818852 111.106116 
L 220.978538 112.819835 
L 221.297909 112.819835 
L 221.457595 111.106116 
L 222.735081 111.106116 
L 222.894767 112.819835 
L 223.373825 112.819835 
L 223.53351 111.106116 
L 224.012568 111.106116 
L 224.172254 112.819835 
L 225.44974 112.819835 
L 225.769112 116.247273 
L 226.407855 116.247273 
L 226.567541 114.533554 
L 226.886912 114.533554 
L 227.046598 112.819835 
L 227.206284 114.533554 
L 227.685341 114.533554 
L 227.845027 116.247273 
L 228.962828 116.247273 
L 229.122514 117.960992 
L 231.198429 117.960992 
L 231.358115 119.674711 
L 231.677486 119.674711 
L 231.837172 121.38843 
L 231.996858 121.38843 
L 232.156544 123.102149 
L 232.954973 123.102149 
L 233.114659 121.38843 
L 234.232459 121.38843 
L 234.392145 119.674711 
L 234.551831 119.674711 
L 234.711517 117.960992 
L 235.829317 117.960992 
L 235.989003 116.247273 
L 236.468061 116.247273 
L 236.627746 117.960992 
L 237.426175 117.960992 
L 237.585861 116.247273 
L 238.064919 116.247273 
L 238.224604 117.960992 
L 238.543976 117.960992 
L 238.703662 119.674711 
L 240.779577 119.674711 
L 240.939263 121.38843 
L 241.098949 119.674711 
L 241.578006 119.674711 
L 241.897378 116.247273 
L 242.057064 116.247273 
L 242.376435 119.674711 
L 242.536121 119.674711 
L 242.695807 121.38843 
L 242.855493 121.38843 
L 243.015178 119.674711 
L 244.132979 119.674711 
L 244.292665 117.960992 
L 244.452351 119.674711 
L 244.771722 119.674711 
L 244.931408 117.960992 
L 247.965438 117.960992 
L 248.125124 119.674711 
L 248.444496 119.674711 
L 248.604182 117.960992 
L 248.763867 117.960992 
L 248.923553 119.674711 
L 249.562296 119.674711 
L 249.721982 117.960992 
L 250.520411 117.960992 
L 250.680097 119.674711 
L 250.999469 119.674711 
L 251.159154 117.960992 
L 252.756012 117.960992 
L 252.915698 116.247273 
L 253.554441 116.247273 
L 253.714127 117.960992 
L 254.672242 117.960992 
L 254.831928 116.247273 
L 255.949729 116.247273 
L 256.109414 114.533554 
L 256.588472 114.533554 
L 256.748158 116.247273 
L 257.386901 116.247273 
L 257.706272 112.819835 
L 258.983759 112.819835 
L 259.143445 111.106116 
L 259.30313 111.106116 
L 259.462816 112.819835 
L 259.622502 112.819835 
L 259.782188 111.106116 
L 259.941874 112.819835 
L 260.899988 112.819835 
L 261.059674 111.106116 
L 262.656532 111.106116 
L 262.816218 109.392397 
L 263.13559 109.392397 
L 263.295275 107.678678 
L 263.614647 107.678678 
L 263.774333 105.964959 
L 263.934019 107.678678 
L 264.093705 105.964959 
L 264.413076 105.964959 
L 264.572762 107.678678 
L 266.968049 107.678678 
L 267.127735 109.392397 
L 267.606792 109.392397 
L 267.766478 111.106116 
L 268.405221 111.106116 
L 268.564907 109.392397 
L 268.724593 111.106116 
L 269.523022 111.106116 
L 269.842393 114.533554 
L 270.002079 114.533554 
L 270.161765 112.819835 
L 270.481137 112.819835 
L 270.640822 111.106116 
L 273.994224 111.106116 
L 274.313596 107.678678 
L 274.473282 107.678678 
L 274.632968 105.964959 
L 274.792653 105.964959 
L 274.952339 107.678678 
L 275.112025 107.678678 
L 275.271711 109.392397 
L 276.229826 109.392397 
L 276.389511 107.678678 
L 277.826684 107.678678 
L 278.146055 111.106116 
L 279.423542 111.106116 
L 279.742913 114.533554 
L 279.902599 114.533554 
L 280.062285 112.819835 
L 280.701028 112.819835 
L 280.860714 111.106116 
L 282.297886 111.106116 
L 282.457572 112.819835 
L 282.617258 111.106116 
L 282.776944 112.819835 
L 284.693173 112.819835 
L 284.852859 114.533554 
L 285.491602 114.533554 
L 285.651288 112.819835 
L 287.727203 112.819835 
L 288.046575 116.247273 
L 288.525632 116.247273 
L 288.685318 114.533554 
L 288.845004 114.533554 
L 289.00469 116.247273 
L 289.803119 116.247273 
L 289.962805 117.960992 
L 290.441862 117.960992 
L 290.601548 119.674711 
L 291.240291 119.674711 
L 291.399977 117.960992 
L 291.719349 117.960992 
L 291.879034 116.247273 
L 292.996835 116.247273 
L 293.156521 117.960992 
L 293.635578 117.960992 
L 293.795264 119.674711 
L 294.593693 119.674711 
L 294.593693 119.674711 
" clip-path="url(#p631ad564fe)" style="fill: none; stroke: #e377c2; stroke-width: 1.5; stroke-linecap: square"/>
   </g>
   <g id="line2d_23">
    <path d="M 104.727273 78.545455 
L 302.258612 78.545455 
L 302.258612 78.545455 
" clip-path="url(#p631ad564fe)" style="fill: none; stroke: #7f7f7f; stroke-width: 1.5; stroke-linecap: square"/>
   </g>
   <g id="line2d_24">
    <path d="M 104.727273 263.627107 
L 105.046644 267.054545 
L 105.20633 265.340826 
L 105.366016 265.340826 
L 105.525702 263.627107 
L 106.004759 263.627107 
L 106.324131 260.199669 
L 106.483817 261.913388 
L 106.643502 260.199669 
L 106.962874 260.199669 
L 107.12256 261.913388 
L 107.282246 260.199669 
L 107.601617 260.199669 
L 107.761303 258.48595 
L 107.920989 258.48595 
L 108.080675 256.772231 
L 108.24036 258.48595 
L 108.400046 258.48595 
L 108.559732 256.772231 
L 108.719418 256.772231 
L 108.879104 255.058512 
L 109.198475 255.058512 
L 109.358161 256.772231 
L 109.677533 253.344793 
L 109.837218 253.344793 
L 109.996904 251.631074 
L 110.15659 253.344793 
L 110.475962 253.344793 
L 110.795333 249.917355 
L 110.955019 251.631074 
L 111.114705 251.631074 
L 111.434076 248.203636 
L 111.753448 248.203636 
L 111.913134 249.917355 
L 112.551877 249.917355 
L 112.711563 248.203636 
L 112.871249 248.203636 
L 113.030935 246.489917 
L 113.669678 246.489917 
L 113.829364 244.776198 
L 113.989049 244.776198 
L 114.148735 246.489917 
L 114.308421 246.489917 
L 114.627793 243.062479 
L 114.787478 243.062479 
L 115.10685 239.635041 
L 116.064965 239.635041 
L 116.544022 234.493884 
L 117.02308 234.493884 
L 117.182765 232.780165 
L 117.342451 232.780165 
L 117.661823 229.352727 
L 117.821509 229.352727 
L 118.939309 217.356694 
L 119.098995 217.356694 
L 119.258681 215.642975 
L 119.578052 215.642975 
L 119.897424 212.215537 
L 120.216796 212.215537 
L 120.536167 208.788099 
L 120.695853 208.788099 
L 120.855539 210.501818 
L 121.334596 205.360661 
L 121.494282 205.360661 
L 121.973339 200.219504 
L 122.133025 200.219504 
L 122.292711 198.505785 
L 122.452397 198.505785 
L 122.931454 193.364628 
L 123.09114 193.364628 
L 123.570198 188.223471 
L 123.729883 189.93719 
L 123.889569 188.223471 
L 124.049255 188.223471 
L 124.208941 186.509752 
L 124.368627 186.509752 
L 124.528312 184.796033 
L 125.00737 184.796033 
L 125.326741 181.368595 
L 125.965485 181.368595 
L 126.604228 174.513719 
L 126.763914 174.513719 
L 127.083285 171.086281 
L 127.562343 171.086281 
L 127.722028 169.372562 
L 127.881714 171.086281 
L 128.360772 171.086281 
L 128.839829 165.945124 
L 129.478572 165.945124 
L 129.638258 167.658843 
L 129.95763 167.658843 
L 130.117315 165.945124 
L 130.596373 165.945124 
L 130.915744 162.517686 
L 131.07543 162.517686 
L 131.235116 164.231405 
L 131.394802 164.231405 
L 131.554488 162.517686 
L 131.714174 162.517686 
L 132.033545 159.090248 
L 132.512603 159.090248 
L 132.99166 153.949091 
L 133.630403 153.949091 
L 133.790089 152.235372 
L 134.109461 152.235372 
L 134.269146 150.521653 
L 134.748204 150.521653 
L 134.90789 148.807934 
L 135.067575 148.807934 
L 135.386947 145.380496 
L 135.866004 145.380496 
L 136.02569 143.666777 
L 136.185376 143.666777 
L 136.345062 141.953058 
L 136.664433 141.953058 
L 136.983805 138.52562 
L 138.261291 138.52562 
L 138.420977 136.811901 
L 138.900035 136.811901 
L 139.05972 135.098182 
L 139.219406 136.811901 
L 140.017835 136.811901 
L 140.177521 135.098182 
L 140.496893 135.098182 
L 140.656578 133.384463 
L 141.135636 133.384463 
L 141.295322 131.670744 
L 141.455008 133.384463 
L 141.934065 133.384463 
L 142.093751 131.670744 
L 142.572808 131.670744 
L 142.732494 133.384463 
L 142.89218 131.670744 
L 143.211551 131.670744 
L 143.371237 133.384463 
L 143.690609 133.384463 
L 143.850295 131.670744 
L 144.00998 131.670744 
L 144.169666 133.384463 
L 144.329352 133.384463 
L 144.648724 136.811901 
L 145.127781 136.811901 
L 145.287467 138.52562 
L 145.766524 138.52562 
L 146.245582 133.384463 
L 146.724639 133.384463 
L 146.884325 135.098182 
L 147.044011 135.098182 
L 147.363382 131.670744 
L 148.800554 131.670744 
L 148.96024 129.957025 
L 149.119926 129.957025 
L 149.279612 128.243306 
L 150.716784 128.243306 
L 150.87647 129.957025 
L 151.036156 128.243306 
L 151.355527 128.243306 
L 151.515213 126.529587 
L 151.834585 126.529587 
L 152.153956 123.102149 
L 152.633014 123.102149 
L 152.7927 121.38843 
L 154.229872 121.38843 
L 154.389558 119.674711 
L 154.549243 119.674711 
L 154.708929 121.38843 
L 154.868615 121.38843 
L 155.028301 119.674711 
L 155.187987 121.38843 
L 155.347672 121.38843 
L 155.507358 123.102149 
L 155.667044 121.38843 
L 155.82673 123.102149 
L 155.986416 121.38843 
L 156.146101 121.38843 
L 156.305787 119.674711 
L 156.784845 119.674711 
L 156.94453 117.960992 
L 158.541388 117.960992 
L 158.701074 119.674711 
L 159.020446 119.674711 
L 159.180132 117.960992 
L 159.339817 117.960992 
L 159.499503 116.247273 
L 159.659189 116.247273 
L 159.818875 114.533554 
L 160.617304 114.533554 
L 160.77699 116.247273 
L 161.415733 116.247273 
L 161.575419 114.533554 
L 162.054476 114.533554 
L 162.214162 112.819835 
L 163.012591 112.819835 
L 163.172277 111.106116 
L 163.970706 111.106116 
L 164.130392 112.819835 
L 165.248192 112.819835 
L 165.407878 111.106116 
L 167.643479 111.106116 
L 167.803165 112.819835 
L 170.996881 112.819835 
L 171.156567 111.106116 
L 173.232482 111.106116 
L 173.392168 109.392397 
L 174.509969 109.392397 
L 174.669655 107.678678 
L 175.148712 107.678678 
L 175.308398 105.964959 
L 175.947141 105.964959 
L 176.106827 104.25124 
L 176.266513 104.25124 
L 176.74557 99.110083 
L 178.182742 99.110083 
L 178.342428 100.823802 
L 178.6618 100.823802 
L 178.821486 99.110083 
L 180.418344 99.110083 
L 180.578029 100.823802 
L 182.334573 100.823802 
L 182.494259 102.537521 
L 182.653945 102.537521 
L 182.813631 100.823802 
L 185.208918 100.823802 
L 185.368603 99.110083 
L 185.528289 100.823802 
L 186.486404 100.823802 
L 186.64609 99.110083 
L 186.965461 99.110083 
L 187.125147 97.396364 
L 187.284833 99.110083 
L 187.444519 97.396364 
L 187.604205 97.396364 
L 187.76389 95.682645 
L 188.402634 95.682645 
L 188.56232 97.396364 
L 190.478549 97.396364 
L 190.638235 95.682645 
L 191.436664 95.682645 
L 191.59635 97.396364 
L 192.554465 97.396364 
L 192.71415 95.682645 
L 193.033522 95.682645 
L 193.193208 97.396364 
L 195.269123 97.396364 
L 195.588495 100.823802 
L 195.907866 100.823802 
L 196.067552 99.110083 
L 197.025667 99.110083 
L 197.185353 100.823802 
L 199.58064 100.823802 
L 199.740326 99.110083 
L 208.523045 99.110083 
L 208.682731 100.823802 
L 209.002102 100.823802 
L 209.161788 99.110083 
L 209.960217 99.110083 
L 210.119903 100.823802 
L 210.279589 99.110083 
L 210.918332 99.110083 
L 211.078018 100.823802 
L 212.355504 100.823802 
L 212.51519 99.110083 
L 212.834562 99.110083 
L 212.994247 100.823802 
L 214.271734 100.823802 
L 214.43142 99.110083 
L 216.347649 99.110083 
L 216.507335 100.823802 
L 217.305764 100.823802 
L 217.46545 99.110083 
L 217.625136 100.823802 
L 219.062308 100.823802 
L 219.221994 99.110083 
L 220.020423 99.110083 
L 220.180109 100.823802 
L 220.339794 100.823802 
L 220.49948 99.110083 
L 223.214139 99.110083 
L 223.373825 100.823802 
L 223.53351 99.110083 
L 224.970683 99.110083 
L 225.130368 97.396364 
L 227.206284 97.396364 
L 227.525656 93.968926 
L 227.685341 93.968926 
L 227.845027 95.682645 
L 228.48377 95.682645 
L 228.643456 97.396364 
L 228.962828 97.396364 
L 229.122514 95.682645 
L 230.080628 95.682645 
L 230.240314 97.396364 
L 236.627746 97.396364 
L 236.947118 100.823802 
L 237.426175 100.823802 
L 237.585861 102.537521 
L 238.38429 102.537521 
L 238.543976 104.25124 
L 240.460206 104.25124 
L 240.619891 102.537521 
L 241.897378 102.537521 
L 242.057064 100.823802 
L 242.855493 100.823802 
L 243.015178 99.110083 
L 243.33455 99.110083 
L 243.494236 100.823802 
L 243.813607 100.823802 
L 243.973293 102.537521 
L 244.771722 102.537521 
L 244.931408 100.823802 
L 245.889523 100.823802 
L 246.049209 102.537521 
L 248.28481 102.537521 
L 248.444496 100.823802 
L 249.402611 100.823802 
L 249.562296 99.110083 
L 249.721982 100.823802 
L 251.957583 100.823802 
L 252.117269 99.110083 
L 254.991614 99.110083 
L 255.1513 100.823802 
L 255.310985 99.110083 
L 257.865958 99.110083 
L 258.025644 100.823802 
L 259.143445 100.823802 
L 259.30313 102.537521 
L 259.622502 102.537521 
L 259.782188 100.823802 
L 260.420931 100.823802 
L 260.580617 99.110083 
L 261.538732 99.110083 
L 261.698417 100.823802 
L 262.017789 100.823802 
L 262.177475 99.110083 
L 262.496846 99.110083 
L 262.656532 100.823802 
L 264.572762 100.823802 
L 264.732448 102.537521 
L 268.405221 102.537521 
L 268.564907 104.25124 
L 268.724593 104.25124 
L 268.884279 102.537521 
L 269.363336 102.537521 
L 269.523022 100.823802 
L 270.321451 100.823802 
L 270.481137 99.110083 
L 271.279566 99.110083 
L 271.439251 100.823802 
L 271.918309 100.823802 
L 272.077995 102.537521 
L 275.271711 102.537521 
L 275.431397 100.823802 
L 275.750768 100.823802 
L 275.910454 99.110083 
L 277.826684 99.110083 
L 277.986369 97.396364 
L 278.465427 97.396364 
L 278.625113 99.110083 
L 280.381656 99.110083 
L 280.541342 100.823802 
L 281.499457 100.823802 
L 281.659143 99.110083 
L 285.331916 99.110083 
L 285.491602 100.823802 
L 286.928774 100.823802 
L 287.08846 99.110083 
L 287.886889 99.110083 
L 288.046575 100.823802 
L 289.00469 100.823802 
L 289.164376 102.537521 
L 289.803119 102.537521 
L 289.962805 100.823802 
L 290.601548 100.823802 
L 290.761234 102.537521 
L 291.080605 102.537521 
L 291.240291 100.823802 
L 293.475892 100.823802 
L 293.635578 99.110083 
L 294.434007 99.110083 
L 294.593693 97.396364 
L 296.509923 97.396364 
L 296.669608 95.682645 
L 297.627723 95.682645 
L 297.787409 97.396364 
L 299.384267 97.396364 
L 299.543953 99.110083 
L 300.342382 99.110083 
L 300.661753 95.682645 
L 300.821439 95.682645 
L 300.981125 97.396364 
L 301.140811 97.396364 
L 301.300497 99.110083 
L 302.737669 99.110083 
L 302.897355 100.823802 
L 303.216726 100.823802 
L 303.376412 99.110083 
L 303.85547 99.110083 
L 304.015155 97.396364 
L 308.486358 97.396364 
L 308.646044 99.110083 
L 310.402588 99.110083 
L 310.562273 97.396364 
L 312.318817 97.396364 
L 312.478503 95.682645 
L 314.554418 95.682645 
L 314.714104 97.396364 
L 317.269077 97.396364 
L 317.428763 95.682645 
L 319.82405 95.682645 
L 319.983736 93.968926 
L 320.941851 93.968926 
L 321.101536 92.255207 
L 322.538709 92.255207 
L 322.698394 90.541488 
L 322.85808 92.255207 
L 325.253367 92.255207 
L 325.413053 93.968926 
L 327.329283 93.968926 
L 327.488968 95.682645 
L 329.564884 95.682645 
L 329.72457 93.968926 
L 330.043941 93.968926 
L 330.203627 95.682645 
L 330.84237 95.682645 
L 331.002056 97.396364 
L 331.321428 97.396364 
L 331.481114 95.682645 
L 332.598914 95.682645 
L 332.7586 97.396364 
L 332.918286 95.682645 
L 333.077972 95.682645 
L 333.237657 93.968926 
L 334.67483 93.968926 
L 334.834515 92.255207 
L 336.271688 92.255207 
L 336.431373 93.968926 
L 337.070117 93.968926 
L 337.229802 95.682645 
L 339.62509 95.682645 
L 339.784775 97.396364 
L 340.423519 97.396364 
L 340.583204 95.682645 
L 340.74289 95.682645 
L 340.902576 97.396364 
L 343.297863 97.396364 
L 343.457549 99.110083 
L 344.096292 99.110083 
L 344.255978 100.823802 
L 346.491579 100.823802 
L 346.651265 99.110083 
L 347.769065 99.110083 
L 347.928751 100.823802 
L 349.525609 100.823802 
L 349.685295 102.537521 
L 350.324038 102.537521 
L 350.483724 104.25124 
L 353.038697 104.25124 
L 353.198383 105.964959 
L 354.635555 105.964959 
L 354.795241 104.25124 
L 355.114612 104.25124 
L 355.274298 105.964959 
L 356.072727 105.964959 
L 356.072727 105.964959 
" clip-path="url(#p631ad564fe)" style="fill: none; stroke: #bcbd22; stroke-width: 1.5; stroke-linecap: square"/>
   </g>
   <g id="patch_3">
    <path d="M 92.16 276.48 
L 92.16 69.12 
" style="fill: none; stroke: #000000; stroke-width: 0.8; stroke-linejoin: miter; stroke-linecap: square"/>
   </g>
   <g id="patch_4">
    <path d="M 368.64 276.48 
L 368.64 69.12 
" style="fill: none; stroke: #000000; stroke-width: 0.8; stroke-linejoin: miter; stroke-linecap: square"/>
   </g>
   <g id="patch_5">
    <path d="M 92.16 276.48 
L 368.64 276.48 
" style="fill: none; stroke: #000000; stroke-width: 0.8; stroke-linejoin: miter; stroke-linecap: square"/>
   </g>
   <g id="patch_6">
    <path d="M 92.16 69.12 
L 368.64 69.12 
" style="fill: none; stroke: #000000; stroke-width: 0.8; stroke-linejoin: miter; stroke-linecap: square"/>
   </g>
   <g id="text_16">
    <!-- fixed_woosterprobe_2afc_og -->
    <g transform="translate(145.171875 63.12) scale(0.12 -0.12)">
     <defs>
      <path id="DejaVuSans-66" d="M 2375 4863 
L 2375 4384 
L 1825 4384 
Q 1516 4384 1395 4259 
Q 1275 4134 1275 3809 
L 1275 3500 
L 2222 3500 
L 2222 3053 
L 1275 3053 
L 1275 0 
L 697 0 
L 697 3053 
L 147 3053 
L 147 3500 
L 697 3500 
L 697 3744 
Q 697 4328 969 4595 
Q 1241 4863 1831 4863 
L 2375 4863 
z
" transform="scale(0.015625)"/>
      <path id="DejaVuSans-69" d="M 603 3500 
L 1178 3500 
L 1178 0 
L 603 0 
L 603 3500 
z
M 603 4863 
L 1178 4863 
L 1178 4134 
L 603 4134 
L 603 4863 
z
" transform="scale(0.015625)"/>
      <path id="DejaVuSans-78" d="M 3513 3500 
L 2247 1797 
L 3578 0 
L 2900 0 
L 1881 1375 
L 863 0 
L 184 0 
L 1544 1831 
L 300 3500 
L 978 3500 
L 1906 2253 
L 2834 3500 
L 3513 3500 
z
" transform="scale(0.015625)"/>
      <path id="DejaVuSans-65" d="M 3597 1894 
L 3597 1613 
L 953 1613 
Q 991 1019 1311 708 
Q 1631 397 2203 397 
Q 2534 397 2845 478 
Q 3156 559 3463 722 
L 3463 178 
Q 3153 47 2828 -22 
Q 2503 -91 2169 -91 
Q 1331 -91 842 396 
Q 353 884 353 1716 
Q 353 2575 817 3079 
Q 1281 3584 2069 3584 
Q 2775 3584 3186 3129 
Q 3597 2675 3597 1894 
z
M 3022 2063 
Q 3016 2534 2758 2815 
Q 2500 3097 2075 3097 
Q 1594 3097 1305 2825 
Q 1016 2553 972 2059 
L 3022 2063 
z
" transform="scale(0.015625)"/>
      <path id="DejaVuSans-64" d="M 2906 2969 
L 2906 4863 
L 3481 4863 
L 3481 0 
L 2906 0 
L 2906 525 
Q 2725 213 2448 61 
Q 2172 -91 1784 -91 
Q 1150 -91 751 415 
Q 353 922 353 1747 
Q 353 2572 751 3078 
Q 1150 3584 1784 3584 
Q 2172 3584 2448 3432 
Q 2725 3281 2906 2969 
z
M 947 1747 
Q 947 1113 1208 752 
Q 1469 391 1925 391 
Q 2381 391 2643 752 
Q 2906 1113 2906 1747 
Q 2906 2381 2643 2742 
Q 2381 3103 1925 3103 
Q 1469 3103 1208 2742 
Q 947 2381 947 1747 
z
" transform="scale(0.015625)"/>
      <path id="DejaVuSans-5f" d="M 3263 -1063 
L 3263 -1509 
L -63 -1509 
L -63 -1063 
L 3263 -1063 
z
" transform="scale(0.015625)"/>
      <path id="DejaVuSans-77" d="M 269 3500 
L 844 3500 
L 1563 769 
L 2278 3500 
L 2956 3500 
L 3675 769 
L 4391 3500 
L 4966 3500 
L 4050 0 
L 3372 0 
L 2619 2869 
L 1863 0 
L 1184 0 
L 269 3500 
z
" transform="scale(0.015625)"/>
      <path id="DejaVuSans-6f" d="M 1959 3097 
Q 1497 3097 1228 2736 
Q 959 2375 959 1747 
Q 959 1119 1226 758 
Q 1494 397 1959 397 
Q 2419 397 2687 759 
Q 2956 1122 2956 1747 
Q 2956 2369 2687 2733 
Q 2419 3097 1959 3097 
z
M 1959 3584 
Q 2709 3584 3137 3096 
Q 3566 2609 3566 1747 
Q 3566 888 3137 398 
Q 2709 -91 1959 -91 
Q 1206 -91 779 398 
Q 353 888 353 1747 
Q 353 2609 779 3096 
Q 1206 3584 1959 3584 
z
" transform="scale(0.015625)"/>
      <path id="DejaVuSans-73" d="M 2834 3397 
L 2834 2853 
Q 2591 2978 2328 3040 
Q 2066 3103 1784 3103 
Q 1356 3103 1142 2972 
Q 928 2841 928 2578 
Q 928 2378 1081 2264 
Q 1234 2150 1697 2047 
L 1894 2003 
Q 2506 1872 2764 1633 
Q 3022 1394 3022 966 
Q 3022 478 2636 193 
Q 2250 -91 1575 -91 
Q 1294 -91 989 -36 
Q 684 19 347 128 
L 347 722 
Q 666 556 975 473 
Q 1284 391 1588 391 
Q 1994 391 2212 530 
Q 2431 669 2431 922 
Q 2431 1156 2273 1281 
Q 2116 1406 1581 1522 
L 1381 1569 
Q 847 1681 609 1914 
Q 372 2147 372 2553 
Q 372 3047 722 3315 
Q 1072 3584 1716 3584 
Q 2034 3584 2315 3537 
Q 2597 3491 2834 3397 
z
" transform="scale(0.015625)"/>
      <path id="DejaVuSans-74" d="M 1172 4494 
L 1172 3500 
L 2356 3500 
L 2356 3053 
L 1172 3053 
L 1172 1153 
Q 1172 725 1289 603 
Q 1406 481 1766 481 
L 2356 481 
L 2356 0 
L 1766 0 
Q 1100 0 847 248 
Q 594 497 594 1153 
L 594 3053 
L 172 3053 
L 172 3500 
L 594 3500 
L 594 4494 
L 1172 4494 
z
" transform="scale(0.015625)"/>
      <path id="DejaVuSans-72" d="M 2631 2963 
Q 2534 3019 2420 3045 
Q 2306 3072 2169 3072 
Q 1681 3072 1420 2755 
Q 1159 2438 1159 1844 
L 1159 0 
L 581 0 
L 581 3500 
L 1159 3500 
L 1159 2956 
Q 1341 3275 1631 3429 
Q 1922 3584 2338 3584 
Q 2397 3584 2469 3576 
Q 2541 3569 2628 3553 
L 2631 2963 
z
" transform="scale(0.015625)"/>
      <path id="DejaVuSans-70" d="M 1159 525 
L 1159 -1331 
L 581 -1331 
L 581 3500 
L 1159 3500 
L 1159 2969 
Q 1341 3281 1617 3432 
Q 1894 3584 2278 3584 
Q 2916 3584 3314 3078 
Q 3713 2572 3713 1747 
Q 3713 922 3314 415 
Q 2916 -91 2278 -91 
Q 1894 -91 1617 61 
Q 1341 213 1159 525 
z
M 3116 1747 
Q 3116 2381 2855 2742 
Q 2594 3103 2138 3103 
Q 1681 3103 1420 2742 
Q 1159 2381 1159 1747 
Q 1159 1113 1420 752 
Q 1681 391 2138 391 
Q 2594 391 2855 752 
Q 3116 1113 3116 1747 
z
" transform="scale(0.015625)"/>
      <path id="DejaVuSans-62" d="M 3116 1747 
Q 3116 2381 2855 2742 
Q 2594 3103 2138 3103 
Q 1681 3103 1420 2742 
Q 1159 2381 1159 1747 
Q 1159 1113 1420 752 
Q 1681 391 2138 391 
Q 2594 391 2855 752 
Q 3116 1113 3116 1747 
z
M 1159 2969 
Q 1341 3281 1617 3432 
Q 1894 3584 2278 3584 
Q 2916 3584 3314 3078 
Q 3713 2572 3713 1747 
Q 3713 922 3314 415 
Q 2916 -91 2278 -91 
Q 1894 -91 1617 61 
Q 1341 213 1159 525 
L 1159 0 
L 581 0 
L 581 4863 
L 1159 4863 
L 1159 2969 
z
" transform="scale(0.015625)"/>
      <path id="DejaVuSans-61" d="M 2194 1759 
Q 1497 1759 1228 1600 
Q 959 1441 959 1056 
Q 959 750 1161 570 
Q 1363 391 1709 391 
Q 2188 391 2477 730 
Q 2766 1069 2766 1631 
L 2766 1759 
L 2194 1759 
z
M 3341 1997 
L 3341 0 
L 2766 0 
L 2766 531 
Q 2569 213 2275 61 
Q 1981 -91 1556 -91 
Q 1019 -91 701 211 
Q 384 513 384 1019 
Q 384 1609 779 1909 
Q 1175 2209 1959 2209 
L 2766 2209 
L 2766 2266 
Q 2766 2663 2505 2880 
Q 2244 3097 1772 3097 
Q 1472 3097 1187 3025 
Q 903 2953 641 2809 
L 641 3341 
Q 956 3463 1253 3523 
Q 1550 3584 1831 3584 
Q 2591 3584 2966 3190 
Q 3341 2797 3341 1997 
z
" transform="scale(0.015625)"/>
      <path id="DejaVuSans-63" d="M 3122 3366 
L 3122 2828 
Q 2878 2963 2633 3030 
Q 2388 3097 2138 3097 
Q 1578 3097 1268 2742 
Q 959 2388 959 1747 
Q 959 1106 1268 751 
Q 1578 397 2138 397 
Q 2388 397 2633 464 
Q 2878 531 3122 666 
L 3122 134 
Q 2881 22 2623 -34 
Q 2366 -91 2075 -91 
Q 1284 -91 818 406 
Q 353 903 353 1747 
Q 353 2603 823 3093 
Q 1294 3584 2113 3584 
Q 2378 3584 2631 3529 
Q 2884 3475 3122 3366 
z
" transform="scale(0.015625)"/>
      <path id="DejaVuSans-67" d="M 2906 1791 
Q 2906 2416 2648 2759 
Q 2391 3103 1925 3103 
Q 1463 3103 1205 2759 
Q 947 2416 947 1791 
Q 947 1169 1205 825 
Q 1463 481 1925 481 
Q 2391 481 2648 825 
Q 2906 1169 2906 1791 
z
M 3481 434 
Q 3481 -459 3084 -895 
Q 2688 -1331 1869 -1331 
Q 1566 -1331 1297 -1286 
Q 1028 -1241 775 -1147 
L 775 -588 
Q 1028 -725 1275 -790 
Q 1522 -856 1778 -856 
Q 2344 -856 2625 -561 
Q 2906 -266 2906 331 
L 2906 616 
Q 2728 306 2450 153 
Q 2172 0 1784 0 
Q 1141 0 747 490 
Q 353 981 353 1791 
Q 353 2603 747 3093 
Q 1141 3584 1784 3584 
Q 2172 3584 2450 3431 
Q 2728 3278 2906 2969 
L 2906 3500 
L 3481 3500 
L 3481 434 
z
" transform="scale(0.015625)"/>
     </defs>
     <use xlink:href="#DejaVuSans-66"/>
     <use xlink:href="#DejaVuSans-69" x="35.205078"/>
     <use xlink:href="#DejaVuSans-78" x="62.988281"/>
     <use xlink:href="#DejaVuSans-65" x="119.042969"/>
     <use xlink:href="#DejaVuSans-64" x="180.566406"/>
     <use xlink:href="#DejaVuSans-5f" x="244.042969"/>
     <use xlink:href="#DejaVuSans-77" x="294.042969"/>
     <use xlink:href="#DejaVuSans-6f" x="375.830078"/>
     <use xlink:href="#DejaVuSans-6f" x="437.011719"/>
     <use xlink:href="#DejaVuSans-73" x="498.193359"/>
     <use xlink:href="#DejaVuSans-74" x="550.292969"/>
     <use xlink:href="#DejaVuSans-65" x="589.501953"/>
     <use xlink:href="#DejaVuSans-72" x="651.025391"/>
     <use xlink:href="#DejaVuSans-70" x="692.138672"/>
     <use xlink:href="#DejaVuSans-72" x="755.615234"/>
     <use xlink:href="#DejaVuSans-6f" x="794.478516"/>
     <use xlink:href="#DejaVuSans-62" x="855.660156"/>
     <use xlink:href="#DejaVuSans-65" x="919.136719"/>
     <use xlink:href="#DejaVuSans-5f" x="980.660156"/>
     <use xlink:href="#DejaVuSans-32" x="1030.660156"/>
     <use xlink:href="#DejaVuSans-61" x="1094.283203"/>
     <use xlink:href="#DejaVuSans-66" x="1155.5625"/>
     <use xlink:href="#DejaVuSans-63" x="1190.767578"/>
     <use xlink:href="#DejaVuSans-5f" x="1245.748047"/>
     <use xlink:href="#DejaVuSans-6f" x="1295.748047"/>
     <use xlink:href="#DejaVuSans-67" x="1356.929688"/>
    </g>
   </g>
   <g id="legend_1">
    <g id="patch_7">
     <path d="M 146.311875 271.48 
L 361.64 271.48 
Q 363.64 271.48 363.64 269.48 
L 363.64 165.78625 
Q 363.64 163.78625 361.64 163.78625 
L 146.311875 163.78625 
Q 144.311875 163.78625 144.311875 165.78625 
L 144.311875 269.48 
Q 144.311875 271.48 146.311875 271.48 
z
" style="fill: #ffffff; opacity: 0.8; stroke: #cccccc; stroke-linejoin: miter"/>
    </g>
    <g id="line2d_25">
     <path d="M 148.311875 171.884687 
L 158.311875 171.884687 
L 168.311875 171.884687 
" style="fill: none; stroke: #1f77b4; stroke-width: 1.5; stroke-linecap: square"/>
    </g>
    <g id="text_17">
     <!-- low_guass_colored_shape_to_color -->
     <g transform="translate(176.311875 175.384687) scale(0.1 -0.1)">
      <defs>
       <path id="DejaVuSans-6c" d="M 603 4863 
L 1178 4863 
L 1178 0 
L 603 0 
L 603 4863 
z
" transform="scale(0.015625)"/>
       <path id="DejaVuSans-75" d="M 544 1381 
L 544 3500 
L 1119 3500 
L 1119 1403 
Q 1119 906 1312 657 
Q 1506 409 1894 409 
Q 2359 409 2629 706 
Q 2900 1003 2900 1516 
L 2900 3500 
L 3475 3500 
L 3475 0 
L 2900 0 
L 2900 538 
Q 2691 219 2414 64 
Q 2138 -91 1772 -91 
Q 1169 -91 856 284 
Q 544 659 544 1381 
z
M 1991 3584 
L 1991 3584 
z
" transform="scale(0.015625)"/>
       <path id="DejaVuSans-68" d="M 3513 2113 
L 3513 0 
L 2938 0 
L 2938 2094 
Q 2938 2591 2744 2837 
Q 2550 3084 2163 3084 
Q 1697 3084 1428 2787 
Q 1159 2491 1159 1978 
L 1159 0 
L 581 0 
L 581 4863 
L 1159 4863 
L 1159 2956 
Q 1366 3272 1645 3428 
Q 1925 3584 2291 3584 
Q 2894 3584 3203 3211 
Q 3513 2838 3513 2113 
z
" transform="scale(0.015625)"/>
      </defs>
      <use xlink:href="#DejaVuSans-6c"/>
      <use xlink:href="#DejaVuSans-6f" x="27.783203"/>
      <use xlink:href="#DejaVuSans-77" x="88.964844"/>
      <use xlink:href="#DejaVuSans-5f" x="170.751953"/>
      <use xlink:href="#DejaVuSans-67" x="220.751953"/>
      <use xlink:href="#DejaVuSans-75" x="284.228516"/>
      <use xlink:href="#DejaVuSans-61" x="347.607422"/>
      <use xlink:href="#DejaVuSans-73" x="408.886719"/>
      <use xlink:href="#DejaVuSans-73" x="460.986328"/>
      <use xlink:href="#DejaVuSans-5f" x="513.085938"/>
      <use xlink:href="#DejaVuSans-63" x="563.085938"/>
      <use xlink:href="#DejaVuSans-6f" x="618.066406"/>
      <use xlink:href="#DejaVuSans-6c" x="679.248047"/>
      <use xlink:href="#DejaVuSans-6f" x="707.03125"/>
      <use xlink:href="#DejaVuSans-72" x="768.212891"/>
      <use xlink:href="#DejaVuSans-65" x="807.076172"/>
      <use xlink:href="#DejaVuSans-64" x="868.599609"/>
      <use xlink:href="#DejaVuSans-5f" x="932.076172"/>
      <use xlink:href="#DejaVuSans-73" x="982.076172"/>
      <use xlink:href="#DejaVuSans-68" x="1034.175781"/>
      <use xlink:href="#DejaVuSans-61" x="1097.554688"/>
      <use xlink:href="#DejaVuSans-70" x="1158.833984"/>
      <use xlink:href="#DejaVuSans-65" x="1222.310547"/>
      <use xlink:href="#DejaVuSans-5f" x="1283.833984"/>
      <use xlink:href="#DejaVuSans-74" x="1333.833984"/>
      <use xlink:href="#DejaVuSans-6f" x="1373.042969"/>
      <use xlink:href="#DejaVuSans-5f" x="1434.224609"/>
      <use xlink:href="#DejaVuSans-63" x="1484.224609"/>
      <use xlink:href="#DejaVuSans-6f" x="1539.205078"/>
      <use xlink:href="#DejaVuSans-6c" x="1600.386719"/>
      <use xlink:href="#DejaVuSans-6f" x="1628.169922"/>
      <use xlink:href="#DejaVuSans-72" x="1689.351562"/>
     </g>
    </g>
    <g id="line2d_26">
     <path d="M 148.311875 186.840937 
L 158.311875 186.840937 
L 168.311875 186.840937 
" style="fill: none; stroke: #ff7f0e; stroke-width: 1.5; stroke-linecap: square"/>
    </g>
    <g id="text_18">
     <!-- high_guass_colored_shape_to_color -->
     <g transform="translate(176.311875 190.340937) scale(0.1 -0.1)">
      <use xlink:href="#DejaVuSans-68"/>
      <use xlink:href="#DejaVuSans-69" x="63.378906"/>
      <use xlink:href="#DejaVuSans-67" x="91.162109"/>
      <use xlink:href="#DejaVuSans-68" x="154.638672"/>
      <use xlink:href="#DejaVuSans-5f" x="218.017578"/>
      <use xlink:href="#DejaVuSans-67" x="268.017578"/>
      <use xlink:href="#DejaVuSans-75" x="331.494141"/>
      <use xlink:href="#DejaVuSans-61" x="394.873047"/>
      <use xlink:href="#DejaVuSans-73" x="456.152344"/>
      <use xlink:href="#DejaVuSans-73" x="508.251953"/>
      <use xlink:href="#DejaVuSans-5f" x="560.351562"/>
      <use xlink:href="#DejaVuSans-63" x="610.351562"/>
      <use xlink:href="#DejaVuSans-6f" x="665.332031"/>
      <use xlink:href="#DejaVuSans-6c" x="726.513672"/>
      <use xlink:href="#DejaVuSans-6f" x="754.296875"/>
      <use xlink:href="#DejaVuSans-72" x="815.478516"/>
      <use xlink:href="#DejaVuSans-65" x="854.341797"/>
      <use xlink:href="#DejaVuSans-64" x="915.865234"/>
      <use xlink:href="#DejaVuSans-5f" x="979.341797"/>
      <use xlink:href="#DejaVuSans-73" x="1029.341797"/>
      <use xlink:href="#DejaVuSans-68" x="1081.441406"/>
      <use xlink:href="#DejaVuSans-61" x="1144.820312"/>
      <use xlink:href="#DejaVuSans-70" x="1206.099609"/>
      <use xlink:href="#DejaVuSans-65" x="1269.576172"/>
      <use xlink:href="#DejaVuSans-5f" x="1331.099609"/>
      <use xlink:href="#DejaVuSans-74" x="1381.099609"/>
      <use xlink:href="#DejaVuSans-6f" x="1420.308594"/>
      <use xlink:href="#DejaVuSans-5f" x="1481.490234"/>
      <use xlink:href="#DejaVuSans-63" x="1531.490234"/>
      <use xlink:href="#DejaVuSans-6f" x="1586.470703"/>
      <use xlink:href="#DejaVuSans-6c" x="1647.652344"/>
      <use xlink:href="#DejaVuSans-6f" x="1675.435547"/>
      <use xlink:href="#DejaVuSans-72" x="1736.617188"/>
     </g>
    </g>
    <g id="line2d_27">
     <path d="M 148.311875 201.797187 
L 158.311875 201.797187 
L 168.311875 201.797187 
" style="fill: none; stroke: #2ca02c; stroke-width: 1.5; stroke-linecap: square"/>
    </g>
    <g id="text_19">
     <!-- low_guass_colored_shape_to_shape -->
     <g transform="translate(176.311875 205.297187) scale(0.1 -0.1)">
      <use xlink:href="#DejaVuSans-6c"/>
      <use xlink:href="#DejaVuSans-6f" x="27.783203"/>
      <use xlink:href="#DejaVuSans-77" x="88.964844"/>
      <use xlink:href="#DejaVuSans-5f" x="170.751953"/>
      <use xlink:href="#DejaVuSans-67" x="220.751953"/>
      <use xlink:href="#DejaVuSans-75" x="284.228516"/>
      <use xlink:href="#DejaVuSans-61" x="347.607422"/>
      <use xlink:href="#DejaVuSans-73" x="408.886719"/>
      <use xlink:href="#DejaVuSans-73" x="460.986328"/>
      <use xlink:href="#DejaVuSans-5f" x="513.085938"/>
      <use xlink:href="#DejaVuSans-63" x="563.085938"/>
      <use xlink:href="#DejaVuSans-6f" x="618.066406"/>
      <use xlink:href="#DejaVuSans-6c" x="679.248047"/>
      <use xlink:href="#DejaVuSans-6f" x="707.03125"/>
      <use xlink:href="#DejaVuSans-72" x="768.212891"/>
      <use xlink:href="#DejaVuSans-65" x="807.076172"/>
      <use xlink:href="#DejaVuSans-64" x="868.599609"/>
      <use xlink:href="#DejaVuSans-5f" x="932.076172"/>
      <use xlink:href="#DejaVuSans-73" x="982.076172"/>
      <use xlink:href="#DejaVuSans-68" x="1034.175781"/>
      <use xlink:href="#DejaVuSans-61" x="1097.554688"/>
      <use xlink:href="#DejaVuSans-70" x="1158.833984"/>
      <use xlink:href="#DejaVuSans-65" x="1222.310547"/>
      <use xlink:href="#DejaVuSans-5f" x="1283.833984"/>
      <use xlink:href="#DejaVuSans-74" x="1333.833984"/>
      <use xlink:href="#DejaVuSans-6f" x="1373.042969"/>
      <use xlink:href="#DejaVuSans-5f" x="1434.224609"/>
      <use xlink:href="#DejaVuSans-73" x="1484.224609"/>
      <use xlink:href="#DejaVuSans-68" x="1536.324219"/>
      <use xlink:href="#DejaVuSans-61" x="1599.703125"/>
      <use xlink:href="#DejaVuSans-70" x="1660.982422"/>
      <use xlink:href="#DejaVuSans-65" x="1724.458984"/>
     </g>
    </g>
    <g id="line2d_28">
     <path d="M 148.311875 216.753437 
L 158.311875 216.753437 
L 168.311875 216.753437 
" style="fill: none; stroke: #d62728; stroke-width: 1.5; stroke-linecap: square"/>
    </g>
    <g id="text_20">
     <!-- high_guass_colored_shape_to_shape -->
     <g transform="translate(176.311875 220.253437) scale(0.1 -0.1)">
      <use xlink:href="#DejaVuSans-68"/>
      <use xlink:href="#DejaVuSans-69" x="63.378906"/>
      <use xlink:href="#DejaVuSans-67" x="91.162109"/>
      <use xlink:href="#DejaVuSans-68" x="154.638672"/>
      <use xlink:href="#DejaVuSans-5f" x="218.017578"/>
      <use xlink:href="#DejaVuSans-67" x="268.017578"/>
      <use xlink:href="#DejaVuSans-75" x="331.494141"/>
      <use xlink:href="#DejaVuSans-61" x="394.873047"/>
      <use xlink:href="#DejaVuSans-73" x="456.152344"/>
      <use xlink:href="#DejaVuSans-73" x="508.251953"/>
      <use xlink:href="#DejaVuSans-5f" x="560.351562"/>
      <use xlink:href="#DejaVuSans-63" x="610.351562"/>
      <use xlink:href="#DejaVuSans-6f" x="665.332031"/>
      <use xlink:href="#DejaVuSans-6c" x="726.513672"/>
      <use xlink:href="#DejaVuSans-6f" x="754.296875"/>
      <use xlink:href="#DejaVuSans-72" x="815.478516"/>
      <use xlink:href="#DejaVuSans-65" x="854.341797"/>
      <use xlink:href="#DejaVuSans-64" x="915.865234"/>
      <use xlink:href="#DejaVuSans-5f" x="979.341797"/>
      <use xlink:href="#DejaVuSans-73" x="1029.341797"/>
      <use xlink:href="#DejaVuSans-68" x="1081.441406"/>
      <use xlink:href="#DejaVuSans-61" x="1144.820312"/>
      <use xlink:href="#DejaVuSans-70" x="1206.099609"/>
      <use xlink:href="#DejaVuSans-65" x="1269.576172"/>
      <use xlink:href="#DejaVuSans-5f" x="1331.099609"/>
      <use xlink:href="#DejaVuSans-74" x="1381.099609"/>
      <use xlink:href="#DejaVuSans-6f" x="1420.308594"/>
      <use xlink:href="#DejaVuSans-5f" x="1481.490234"/>
      <use xlink:href="#DejaVuSans-73" x="1531.490234"/>
      <use xlink:href="#DejaVuSans-68" x="1583.589844"/>
      <use xlink:href="#DejaVuSans-61" x="1646.96875"/>
      <use xlink:href="#DejaVuSans-70" x="1708.248047"/>
      <use xlink:href="#DejaVuSans-65" x="1771.724609"/>
     </g>
    </g>
    <g id="line2d_29">
     <path d="M 148.311875 231.709687 
L 158.311875 231.709687 
L 168.311875 231.709687 
" style="fill: none; stroke: #9467bd; stroke-width: 1.5; stroke-linecap: square"/>
    </g>
    <g id="text_21">
     <!-- achromatic_shape_to_shape -->
     <g transform="translate(176.311875 235.209687) scale(0.1 -0.1)">
      <defs>
       <path id="DejaVuSans-6d" d="M 3328 2828 
Q 3544 3216 3844 3400 
Q 4144 3584 4550 3584 
Q 5097 3584 5394 3201 
Q 5691 2819 5691 2113 
L 5691 0 
L 5113 0 
L 5113 2094 
Q 5113 2597 4934 2840 
Q 4756 3084 4391 3084 
Q 3944 3084 3684 2787 
Q 3425 2491 3425 1978 
L 3425 0 
L 2847 0 
L 2847 2094 
Q 2847 2600 2669 2842 
Q 2491 3084 2119 3084 
Q 1678 3084 1418 2786 
Q 1159 2488 1159 1978 
L 1159 0 
L 581 0 
L 581 3500 
L 1159 3500 
L 1159 2956 
Q 1356 3278 1631 3431 
Q 1906 3584 2284 3584 
Q 2666 3584 2933 3390 
Q 3200 3197 3328 2828 
z
" transform="scale(0.015625)"/>
      </defs>
      <use xlink:href="#DejaVuSans-61"/>
      <use xlink:href="#DejaVuSans-63" x="61.279297"/>
      <use xlink:href="#DejaVuSans-68" x="116.259766"/>
      <use xlink:href="#DejaVuSans-72" x="179.638672"/>
      <use xlink:href="#DejaVuSans-6f" x="218.501953"/>
      <use xlink:href="#DejaVuSans-6d" x="279.683594"/>
      <use xlink:href="#DejaVuSans-61" x="377.095703"/>
      <use xlink:href="#DejaVuSans-74" x="438.375"/>
      <use xlink:href="#DejaVuSans-69" x="477.583984"/>
      <use xlink:href="#DejaVuSans-63" x="505.367188"/>
      <use xlink:href="#DejaVuSans-5f" x="560.347656"/>
      <use xlink:href="#DejaVuSans-73" x="610.347656"/>
      <use xlink:href="#DejaVuSans-68" x="662.447266"/>
      <use xlink:href="#DejaVuSans-61" x="725.826172"/>
      <use xlink:href="#DejaVuSans-70" x="787.105469"/>
      <use xlink:href="#DejaVuSans-65" x="850.582031"/>
      <use xlink:href="#DejaVuSans-5f" x="912.105469"/>
      <use xlink:href="#DejaVuSans-74" x="962.105469"/>
      <use xlink:href="#DejaVuSans-6f" x="1001.314453"/>
      <use xlink:href="#DejaVuSans-5f" x="1062.496094"/>
      <use xlink:href="#DejaVuSans-73" x="1112.496094"/>
      <use xlink:href="#DejaVuSans-68" x="1164.595703"/>
      <use xlink:href="#DejaVuSans-61" x="1227.974609"/>
      <use xlink:href="#DejaVuSans-70" x="1289.253906"/>
      <use xlink:href="#DejaVuSans-65" x="1352.730469"/>
     </g>
    </g>
    <g id="line2d_30">
     <path d="M 148.311875 246.665937 
L 158.311875 246.665937 
L 168.311875 246.665937 
" style="fill: none; stroke: #8c564b; stroke-width: 1.5; stroke-linecap: square"/>
    </g>
    <g id="text_22">
     <!-- color_to_color_low -->
     <g transform="translate(176.311875 250.165937) scale(0.1 -0.1)">
      <use xlink:href="#DejaVuSans-63"/>
      <use xlink:href="#DejaVuSans-6f" x="54.980469"/>
      <use xlink:href="#DejaVuSans-6c" x="116.162109"/>
      <use xlink:href="#DejaVuSans-6f" x="143.945312"/>
      <use xlink:href="#DejaVuSans-72" x="205.126953"/>
      <use xlink:href="#DejaVuSans-5f" x="246.240234"/>
      <use xlink:href="#DejaVuSans-74" x="296.240234"/>
      <use xlink:href="#DejaVuSans-6f" x="335.449219"/>
      <use xlink:href="#DejaVuSans-5f" x="396.630859"/>
      <use xlink:href="#DejaVuSans-63" x="446.630859"/>
      <use xlink:href="#DejaVuSans-6f" x="501.611328"/>
      <use xlink:href="#DejaVuSans-6c" x="562.792969"/>
      <use xlink:href="#DejaVuSans-6f" x="590.576172"/>
      <use xlink:href="#DejaVuSans-72" x="651.757812"/>
      <use xlink:href="#DejaVuSans-5f" x="692.871094"/>
      <use xlink:href="#DejaVuSans-6c" x="742.871094"/>
      <use xlink:href="#DejaVuSans-6f" x="770.654297"/>
      <use xlink:href="#DejaVuSans-77" x="831.835938"/>
     </g>
    </g>
    <g id="line2d_31">
     <path d="M 148.311875 261.622187 
L 158.311875 261.622187 
L 168.311875 261.622187 
" style="fill: none; stroke: #e377c2; stroke-width: 1.5; stroke-linecap: square"/>
    </g>
    <g id="text_23">
     <!-- color_to_color_high -->
     <g transform="translate(176.311875 265.122187) scale(0.1 -0.1)">
      <use xlink:href="#DejaVuSans-63"/>
      <use xlink:href="#DejaVuSans-6f" x="54.980469"/>
      <use xlink:href="#DejaVuSans-6c" x="116.162109"/>
      <use xlink:href="#DejaVuSans-6f" x="143.945312"/>
      <use xlink:href="#DejaVuSans-72" x="205.126953"/>
      <use xlink:href="#DejaVuSans-5f" x="246.240234"/>
      <use xlink:href="#DejaVuSans-74" x="296.240234"/>
      <use xlink:href="#DejaVuSans-6f" x="335.449219"/>
      <use xlink:href="#DejaVuSans-5f" x="396.630859"/>
      <use xlink:href="#DejaVuSans-63" x="446.630859"/>
      <use xlink:href="#DejaVuSans-6f" x="501.611328"/>
      <use xlink:href="#DejaVuSans-6c" x="562.792969"/>
      <use xlink:href="#DejaVuSans-6f" x="590.576172"/>
      <use xlink:href="#DejaVuSans-72" x="651.757812"/>
      <use xlink:href="#DejaVuSans-5f" x="692.871094"/>
      <use xlink:href="#DejaVuSans-68" x="742.871094"/>
      <use xlink:href="#DejaVuSans-69" x="806.25"/>
      <use xlink:href="#DejaVuSans-67" x="834.033203"/>
      <use xlink:href="#DejaVuSans-68" x="897.509766"/>
     </g>
    </g>
   </g>
  </g>
 </g>
 <defs>
  <clipPath id="p631ad564fe">
   <rect x="92.16" y="69.12" width="276.48" height="207.36"/>
  </clipPath>
 </defs>
</svg>
