<?xml version="1.0" encoding="utf-8" standalone="no"?>
<!DOCTYPE svg PUBLIC "-//W3C//DTD SVG 1.1//EN"
  "http://www.w3.org/Graphics/SVG/1.1/DTD/svg11.dtd">
<svg xmlns:xlink="http://www.w3.org/1999/xlink" width="460.8pt" height="345.6pt" viewBox="0 0 460.8 345.6" xmlns="http://www.w3.org/2000/svg" version="1.1">
 <metadata>
  <rdf:RDF xmlns:dc="http://purl.org/dc/elements/1.1/" xmlns:cc="http://creativecommons.org/ns#" xmlns:rdf="http://www.w3.org/1999/02/22-rdf-syntax-ns#">
   <cc:Work>
    <dc:type rdf:resource="http://purl.org/dc/dcmitype/StillImage"/>
    <dc:date>2023-08-08T15:55:13.016827</dc:date>
    <dc:format>image/svg+xml</dc:format>
    <dc:creator>
     <cc:Agent>
      <dc:title>Matplotlib v3.7.1, https://matplotlib.org/</dc:title>
     </cc:Agent>
    </dc:creator>
   </cc:Work>
  </rdf:RDF>
 </metadata>
 <defs>
  <style type="text/css">*{stroke-linejoin: round; stroke-linecap: butt}</style>
 </defs>
 <g id="figure_1">
  <g id="patch_1">
   <path d="M 0 345.6 
L 460.8 345.6 
L 460.8 0 
L 0 0 
z
" style="fill: #ffffff"/>
  </g>
  <g id="axes_1">
   <g id="patch_2">
    <path d="M 92.16 276.48 
L 368.64 276.48 
L 368.64 69.12 
L 92.16 69.12 
z
" style="fill: #ffffff"/>
   </g>
   <g id="matplotlib.axis_1">
    <g id="xtick_1">
     <g id="line2d_1">
      <defs>
       <path id="m6e5828df6d" d="M 0 0 
L 0 3.5 
" style="stroke: #000000; stroke-width: 0.8"/>
      </defs>
      <g>
       <use xlink:href="#m6e5828df6d" x="104.727273" y="276.48" style="stroke: #000000; stroke-width: 0.8"/>
      </g>
     </g>
     <g id="text_1">
      <!-- 0 -->
      <g transform="translate(101.546023 291.078437) scale(0.1 -0.1)">
       <defs>
        <path id="DejaVuSans-30" d="M 2034 4250 
Q 1547 4250 1301 3770 
Q 1056 3291 1056 2328 
Q 1056 1369 1301 889 
Q 1547 409 2034 409 
Q 2525 409 2770 889 
Q 3016 1369 3016 2328 
Q 3016 3291 2770 3770 
Q 2525 4250 2034 4250 
z
M 2034 4750 
Q 2819 4750 3233 4129 
Q 3647 3509 3647 2328 
Q 3647 1150 3233 529 
Q 2819 -91 2034 -91 
Q 1250 -91 836 529 
Q 422 1150 422 2328 
Q 422 3509 836 4129 
Q 1250 4750 2034 4750 
z
" transform="scale(0.015625)"/>
       </defs>
       <use xlink:href="#DejaVuSans-30"/>
      </g>
     </g>
    </g>
    <g id="xtick_2">
     <g id="line2d_2">
      <g>
       <use xlink:href="#m6e5828df6d" x="136.664433" y="276.48" style="stroke: #000000; stroke-width: 0.8"/>
      </g>
     </g>
     <g id="text_2">
      <!-- 200 -->
      <g transform="translate(127.120683 291.078437) scale(0.1 -0.1)">
       <defs>
        <path id="DejaVuSans-32" d="M 1228 531 
L 3431 531 
L 3431 0 
L 469 0 
L 469 531 
Q 828 903 1448 1529 
Q 2069 2156 2228 2338 
Q 2531 2678 2651 2914 
Q 2772 3150 2772 3378 
Q 2772 3750 2511 3984 
Q 2250 4219 1831 4219 
Q 1534 4219 1204 4116 
Q 875 4013 500 3803 
L 500 4441 
Q 881 4594 1212 4672 
Q 1544 4750 1819 4750 
Q 2544 4750 2975 4387 
Q 3406 4025 3406 3419 
Q 3406 3131 3298 2873 
Q 3191 2616 2906 2266 
Q 2828 2175 2409 1742 
Q 1991 1309 1228 531 
z
" transform="scale(0.015625)"/>
       </defs>
       <use xlink:href="#DejaVuSans-32"/>
       <use xlink:href="#DejaVuSans-30" x="63.623047"/>
       <use xlink:href="#DejaVuSans-30" x="127.246094"/>
      </g>
     </g>
    </g>
    <g id="xtick_3">
     <g id="line2d_3">
      <g>
       <use xlink:href="#m6e5828df6d" x="168.601594" y="276.48" style="stroke: #000000; stroke-width: 0.8"/>
      </g>
     </g>
     <g id="text_3">
      <!-- 400 -->
      <g transform="translate(159.057844 291.078437) scale(0.1 -0.1)">
       <defs>
        <path id="DejaVuSans-34" d="M 2419 4116 
L 825 1625 
L 2419 1625 
L 2419 4116 
z
M 2253 4666 
L 3047 4666 
L 3047 1625 
L 3713 1625 
L 3713 1100 
L 3047 1100 
L 3047 0 
L 2419 0 
L 2419 1100 
L 313 1100 
L 313 1709 
L 2253 4666 
z
" transform="scale(0.015625)"/>
       </defs>
       <use xlink:href="#DejaVuSans-34"/>
       <use xlink:href="#DejaVuSans-30" x="63.623047"/>
       <use xlink:href="#DejaVuSans-30" x="127.246094"/>
      </g>
     </g>
    </g>
    <g id="xtick_4">
     <g id="line2d_4">
      <g>
       <use xlink:href="#m6e5828df6d" x="200.538755" y="276.48" style="stroke: #000000; stroke-width: 0.8"/>
      </g>
     </g>
     <g id="text_4">
      <!-- 600 -->
      <g transform="translate(190.995005 291.078437) scale(0.1 -0.1)">
       <defs>
        <path id="DejaVuSans-36" d="M 2113 2584 
Q 1688 2584 1439 2293 
Q 1191 2003 1191 1497 
Q 1191 994 1439 701 
Q 1688 409 2113 409 
Q 2538 409 2786 701 
Q 3034 994 3034 1497 
Q 3034 2003 2786 2293 
Q 2538 2584 2113 2584 
z
M 3366 4563 
L 3366 3988 
Q 3128 4100 2886 4159 
Q 2644 4219 2406 4219 
Q 1781 4219 1451 3797 
Q 1122 3375 1075 2522 
Q 1259 2794 1537 2939 
Q 1816 3084 2150 3084 
Q 2853 3084 3261 2657 
Q 3669 2231 3669 1497 
Q 3669 778 3244 343 
Q 2819 -91 2113 -91 
Q 1303 -91 875 529 
Q 447 1150 447 2328 
Q 447 3434 972 4092 
Q 1497 4750 2381 4750 
Q 2619 4750 2861 4703 
Q 3103 4656 3366 4563 
z
" transform="scale(0.015625)"/>
       </defs>
       <use xlink:href="#DejaVuSans-36"/>
       <use xlink:href="#DejaVuSans-30" x="63.623047"/>
       <use xlink:href="#DejaVuSans-30" x="127.246094"/>
      </g>
     </g>
    </g>
    <g id="xtick_5">
     <g id="line2d_5">
      <g>
       <use xlink:href="#m6e5828df6d" x="232.475915" y="276.48" style="stroke: #000000; stroke-width: 0.8"/>
      </g>
     </g>
     <g id="text_5">
      <!-- 800 -->
      <g transform="translate(222.932165 291.078437) scale(0.1 -0.1)">
       <defs>
        <path id="DejaVuSans-38" d="M 2034 2216 
Q 1584 2216 1326 1975 
Q 1069 1734 1069 1313 
Q 1069 891 1326 650 
Q 1584 409 2034 409 
Q 2484 409 2743 651 
Q 3003 894 3003 1313 
Q 3003 1734 2745 1975 
Q 2488 2216 2034 2216 
z
M 1403 2484 
Q 997 2584 770 2862 
Q 544 3141 544 3541 
Q 544 4100 942 4425 
Q 1341 4750 2034 4750 
Q 2731 4750 3128 4425 
Q 3525 4100 3525 3541 
Q 3525 3141 3298 2862 
Q 3072 2584 2669 2484 
Q 3125 2378 3379 2068 
Q 3634 1759 3634 1313 
Q 3634 634 3220 271 
Q 2806 -91 2034 -91 
Q 1263 -91 848 271 
Q 434 634 434 1313 
Q 434 1759 690 2068 
Q 947 2378 1403 2484 
z
M 1172 3481 
Q 1172 3119 1398 2916 
Q 1625 2713 2034 2713 
Q 2441 2713 2670 2916 
Q 2900 3119 2900 3481 
Q 2900 3844 2670 4047 
Q 2441 4250 2034 4250 
Q 1625 4250 1398 4047 
Q 1172 3844 1172 3481 
z
" transform="scale(0.015625)"/>
       </defs>
       <use xlink:href="#DejaVuSans-38"/>
       <use xlink:href="#DejaVuSans-30" x="63.623047"/>
       <use xlink:href="#DejaVuSans-30" x="127.246094"/>
      </g>
     </g>
    </g>
    <g id="xtick_6">
     <g id="line2d_6">
      <g>
       <use xlink:href="#m6e5828df6d" x="264.413076" y="276.48" style="stroke: #000000; stroke-width: 0.8"/>
      </g>
     </g>
     <g id="text_6">
      <!-- 1000 -->
      <g transform="translate(251.688076 291.078437) scale(0.1 -0.1)">
       <defs>
        <path id="DejaVuSans-31" d="M 794 531 
L 1825 531 
L 1825 4091 
L 703 3866 
L 703 4441 
L 1819 4666 
L 2450 4666 
L 2450 531 
L 3481 531 
L 3481 0 
L 794 0 
L 794 531 
z
" transform="scale(0.015625)"/>
       </defs>
       <use xlink:href="#DejaVuSans-31"/>
       <use xlink:href="#DejaVuSans-30" x="63.623047"/>
       <use xlink:href="#DejaVuSans-30" x="127.246094"/>
       <use xlink:href="#DejaVuSans-30" x="190.869141"/>
      </g>
     </g>
    </g>
    <g id="xtick_7">
     <g id="line2d_7">
      <g>
       <use xlink:href="#m6e5828df6d" x="296.350237" y="276.48" style="stroke: #000000; stroke-width: 0.8"/>
      </g>
     </g>
     <g id="text_7">
      <!-- 1200 -->
      <g transform="translate(283.625237 291.078437) scale(0.1 -0.1)">
       <use xlink:href="#DejaVuSans-31"/>
       <use xlink:href="#DejaVuSans-32" x="63.623047"/>
       <use xlink:href="#DejaVuSans-30" x="127.246094"/>
       <use xlink:href="#DejaVuSans-30" x="190.869141"/>
      </g>
     </g>
    </g>
    <g id="xtick_8">
     <g id="line2d_8">
      <g>
       <use xlink:href="#m6e5828df6d" x="328.287397" y="276.48" style="stroke: #000000; stroke-width: 0.8"/>
      </g>
     </g>
     <g id="text_8">
      <!-- 1400 -->
      <g transform="translate(315.562397 291.078437) scale(0.1 -0.1)">
       <use xlink:href="#DejaVuSans-31"/>
       <use xlink:href="#DejaVuSans-34" x="63.623047"/>
       <use xlink:href="#DejaVuSans-30" x="127.246094"/>
       <use xlink:href="#DejaVuSans-30" x="190.869141"/>
      </g>
     </g>
    </g>
    <g id="xtick_9">
     <g id="line2d_9">
      <g>
       <use xlink:href="#m6e5828df6d" x="360.224558" y="276.48" style="stroke: #000000; stroke-width: 0.8"/>
      </g>
     </g>
     <g id="text_9">
      <!-- 1600 -->
      <g transform="translate(347.499558 291.078437) scale(0.1 -0.1)">
       <use xlink:href="#DejaVuSans-31"/>
       <use xlink:href="#DejaVuSans-36" x="63.623047"/>
       <use xlink:href="#DejaVuSans-30" x="127.246094"/>
       <use xlink:href="#DejaVuSans-30" x="190.869141"/>
      </g>
     </g>
    </g>
   </g>
   <g id="matplotlib.axis_2">
    <g id="ytick_1">
     <g id="line2d_10">
      <defs>
       <path id="ma0780af66c" d="M 0 0 
L -3.5 0 
" style="stroke: #000000; stroke-width: 0.8"/>
      </defs>
      <g>
       <use xlink:href="#ma0780af66c" x="92.16" y="274.909091" style="stroke: #000000; stroke-width: 0.8"/>
      </g>
     </g>
     <g id="text_10">
      <!-- 0.5 -->
      <g transform="translate(69.256875 278.70831) scale(0.1 -0.1)">
       <defs>
        <path id="DejaVuSans-2e" d="M 684 794 
L 1344 794 
L 1344 0 
L 684 0 
L 684 794 
z
" transform="scale(0.015625)"/>
        <path id="DejaVuSans-35" d="M 691 4666 
L 3169 4666 
L 3169 4134 
L 1269 4134 
L 1269 2991 
Q 1406 3038 1543 3061 
Q 1681 3084 1819 3084 
Q 2600 3084 3056 2656 
Q 3513 2228 3513 1497 
Q 3513 744 3044 326 
Q 2575 -91 1722 -91 
Q 1428 -91 1123 -41 
Q 819 9 494 109 
L 494 744 
Q 775 591 1075 516 
Q 1375 441 1709 441 
Q 2250 441 2565 725 
Q 2881 1009 2881 1497 
Q 2881 1984 2565 2268 
Q 2250 2553 1709 2553 
Q 1456 2553 1204 2497 
Q 953 2441 691 2322 
L 691 4666 
z
" transform="scale(0.015625)"/>
       </defs>
       <use xlink:href="#DejaVuSans-30"/>
       <use xlink:href="#DejaVuSans-2e" x="63.623047"/>
       <use xlink:href="#DejaVuSans-35" x="95.410156"/>
      </g>
     </g>
    </g>
    <g id="ytick_2">
     <g id="line2d_11">
      <g>
       <use xlink:href="#ma0780af66c" x="92.16" y="235.636364" style="stroke: #000000; stroke-width: 0.8"/>
      </g>
     </g>
     <g id="text_11">
      <!-- 0.6 -->
      <g transform="translate(69.256875 239.435582) scale(0.1 -0.1)">
       <use xlink:href="#DejaVuSans-30"/>
       <use xlink:href="#DejaVuSans-2e" x="63.623047"/>
       <use xlink:href="#DejaVuSans-36" x="95.410156"/>
      </g>
     </g>
    </g>
    <g id="ytick_3">
     <g id="line2d_12">
      <g>
       <use xlink:href="#ma0780af66c" x="92.16" y="196.363636" style="stroke: #000000; stroke-width: 0.8"/>
      </g>
     </g>
     <g id="text_12">
      <!-- 0.7 -->
      <g transform="translate(69.256875 200.162855) scale(0.1 -0.1)">
       <defs>
        <path id="DejaVuSans-37" d="M 525 4666 
L 3525 4666 
L 3525 4397 
L 1831 0 
L 1172 0 
L 2766 4134 
L 525 4134 
L 525 4666 
z
" transform="scale(0.015625)"/>
       </defs>
       <use xlink:href="#DejaVuSans-30"/>
       <use xlink:href="#DejaVuSans-2e" x="63.623047"/>
       <use xlink:href="#DejaVuSans-37" x="95.410156"/>
      </g>
     </g>
    </g>
    <g id="ytick_4">
     <g id="line2d_13">
      <g>
       <use xlink:href="#ma0780af66c" x="92.16" y="157.090909" style="stroke: #000000; stroke-width: 0.8"/>
      </g>
     </g>
     <g id="text_13">
      <!-- 0.8 -->
      <g transform="translate(69.256875 160.890128) scale(0.1 -0.1)">
       <use xlink:href="#DejaVuSans-30"/>
       <use xlink:href="#DejaVuSans-2e" x="63.623047"/>
       <use xlink:href="#DejaVuSans-38" x="95.410156"/>
      </g>
     </g>
    </g>
    <g id="ytick_5">
     <g id="line2d_14">
      <g>
       <use xlink:href="#ma0780af66c" x="92.16" y="117.818182" style="stroke: #000000; stroke-width: 0.8"/>
      </g>
     </g>
     <g id="text_14">
      <!-- 0.9 -->
      <g transform="translate(69.256875 121.617401) scale(0.1 -0.1)">
       <defs>
        <path id="DejaVuSans-39" d="M 703 97 
L 703 672 
Q 941 559 1184 500 
Q 1428 441 1663 441 
Q 2288 441 2617 861 
Q 2947 1281 2994 2138 
Q 2813 1869 2534 1725 
Q 2256 1581 1919 1581 
Q 1219 1581 811 2004 
Q 403 2428 403 3163 
Q 403 3881 828 4315 
Q 1253 4750 1959 4750 
Q 2769 4750 3195 4129 
Q 3622 3509 3622 2328 
Q 3622 1225 3098 567 
Q 2575 -91 1691 -91 
Q 1453 -91 1209 -44 
Q 966 3 703 97 
z
M 1959 2075 
Q 2384 2075 2632 2365 
Q 2881 2656 2881 3163 
Q 2881 3666 2632 3958 
Q 2384 4250 1959 4250 
Q 1534 4250 1286 3958 
Q 1038 3666 1038 3163 
Q 1038 2656 1286 2365 
Q 1534 2075 1959 2075 
z
" transform="scale(0.015625)"/>
       </defs>
       <use xlink:href="#DejaVuSans-30"/>
       <use xlink:href="#DejaVuSans-2e" x="63.623047"/>
       <use xlink:href="#DejaVuSans-39" x="95.410156"/>
      </g>
     </g>
    </g>
    <g id="ytick_6">
     <g id="line2d_15">
      <g>
       <use xlink:href="#ma0780af66c" x="92.16" y="78.545455" style="stroke: #000000; stroke-width: 0.8"/>
      </g>
     </g>
     <g id="text_15">
      <!-- 1.0 -->
      <g transform="translate(69.256875 82.344673) scale(0.1 -0.1)">
       <use xlink:href="#DejaVuSans-31"/>
       <use xlink:href="#DejaVuSans-2e" x="63.623047"/>
       <use xlink:href="#DejaVuSans-30" x="95.410156"/>
      </g>
     </g>
    </g>
   </g>
   <g id="line2d_16">
    <path d="M 104.727273 117.818182 
L 106.164445 117.818182 
L 106.324131 119.781818 
L 106.483817 117.818182 
L 106.643502 119.781818 
L 108.080675 119.781818 
L 108.24036 117.818182 
L 108.559732 117.818182 
L 108.719418 119.781818 
L 109.038789 119.781818 
L 109.198475 117.818182 
L 109.358161 119.781818 
L 111.913134 119.781818 
L 112.232505 115.854545 
L 112.392191 117.818182 
L 113.669678 117.818182 
L 113.829364 115.854545 
L 114.148735 115.854545 
L 114.308421 113.890909 
L 114.627793 113.890909 
L 114.787478 111.927273 
L 116.384336 111.927273 
L 116.544022 113.890909 
L 118.619938 113.890909 
L 118.779623 111.927273 
L 119.098995 111.927273 
L 119.258681 109.963636 
L 120.695853 109.963636 
L 120.855539 111.927273 
L 122.133025 111.927273 
L 122.292711 109.963636 
L 122.452397 109.963636 
L 122.612083 111.927273 
L 122.771769 109.963636 
L 122.931454 109.963636 
L 123.09114 111.927273 
L 124.208941 111.927273 
L 124.368627 113.890909 
L 126.444542 113.890909 
L 126.604228 115.854545 
L 126.763914 113.890909 
L 127.083285 113.890909 
L 127.242971 111.927273 
L 127.562343 111.927273 
L 127.722028 109.963636 
L 128.839829 109.963636 
L 128.999515 111.927273 
L 129.159201 111.927273 
L 129.478572 108 
L 132.193231 108 
L 132.352917 106.036364 
L 133.151346 106.036364 
L 133.311032 104.072727 
L 134.90789 104.072727 
L 135.067575 102.109091 
L 136.02569 102.109091 
L 136.185376 104.072727 
L 136.504748 104.072727 
L 136.664433 106.036364 
L 138.101606 106.036364 
L 138.261291 104.072727 
L 138.420977 104.072727 
L 138.580663 102.109091 
L 138.740349 102.109091 
L 138.900035 104.072727 
L 139.219406 104.072727 
L 139.379092 106.036364 
L 140.496893 106.036364 
L 140.656578 104.072727 
L 140.97595 104.072727 
L 141.135636 106.036364 
L 141.295322 104.072727 
L 141.455008 106.036364 
L 142.732494 106.036364 
L 142.89218 108 
L 144.169666 108 
L 144.329352 106.036364 
L 144.489038 108 
L 146.245582 108 
L 146.405267 109.963636 
L 148.321497 109.963636 
L 148.481183 108 
L 152.633014 108 
L 152.7927 106.036364 
L 154.389558 106.036364 
L 154.549243 104.072727 
L 154.868615 104.072727 
L 155.028301 102.109091 
L 155.82673 102.109091 
L 155.986416 104.072727 
L 156.146101 104.072727 
L 156.305787 102.109091 
L 157.583274 102.109091 
L 157.742959 104.072727 
L 158.381703 104.072727 
L 158.541388 102.109091 
L 160.77699 102.109091 
L 160.936676 100.145455 
L 162.852905 100.145455 
L 163.012591 102.109091 
L 165.088506 102.109091 
L 165.248192 104.072727 
L 165.567564 104.072727 
L 165.72725 106.036364 
L 167.164422 106.036364 
L 167.483793 109.963636 
L 167.962851 109.963636 
L 168.122537 108 
L 168.441908 108 
L 168.601594 106.036364 
L 170.67751 106.036364 
L 170.837195 104.072727 
L 171.156567 104.072727 
L 171.316253 102.109091 
L 171.475939 102.109091 
L 171.635624 104.072727 
L 172.913111 104.072727 
L 173.072797 102.109091 
L 173.232482 102.109091 
L 173.392168 100.145455 
L 173.871226 100.145455 
L 174.030911 102.109091 
L 174.669655 102.109091 
L 174.82934 100.145455 
L 176.266513 100.145455 
L 176.426198 98.181818 
L 177.224627 98.181818 
L 177.384313 100.145455 
L 178.182742 100.145455 
L 178.342428 98.181818 
L 179.300543 98.181818 
L 179.460229 100.145455 
L 183.61206 100.145455 
L 183.771745 102.109091 
L 184.570174 102.109091 
L 184.72986 104.072727 
L 185.368603 104.072727 
L 185.528289 106.036364 
L 186.326718 106.036364 
L 186.486404 108 
L 187.76389 108 
L 187.923576 106.036364 
L 189.201063 106.036364 
L 189.360749 108 
L 189.520434 108 
L 189.68012 106.036364 
L 192.235093 106.036364 
L 192.394779 108 
L 193.033522 108 
L 193.193208 109.963636 
L 194.790066 109.963636 
L 194.949752 108 
L 196.54661 108 
L 196.706295 109.963636 
L 197.025667 109.963636 
L 197.185353 108 
L 197.504725 108 
L 197.66441 106.036364 
L 199.101583 106.036364 
L 199.420954 102.109091 
L 200.059697 102.109091 
L 200.219383 104.072727 
L 200.698441 104.072727 
L 200.858126 106.036364 
L 201.656555 106.036364 
L 201.816241 108 
L 203.413099 108 
L 203.572785 106.036364 
L 205.489015 106.036364 
L 205.6487 108 
L 205.808386 108 
L 205.968072 106.036364 
L 206.766501 106.036364 
L 206.926187 108 
L 209.161788 108 
L 209.321474 106.036364 
L 211.237704 106.036364 
L 211.397389 104.072727 
L 214.750791 104.072727 
L 215.070163 108 
L 215.54922 108 
L 215.708906 106.036364 
L 215.868592 108 
L 216.507335 108 
L 216.667021 106.036364 
L 217.305764 106.036364 
L 217.46545 104.072727 
L 218.263879 104.072727 
L 218.423565 102.109091 
L 220.339794 102.109091 
L 220.49948 104.072727 
L 221.138223 104.072727 
L 221.297909 102.109091 
L 224.970683 102.109091 
L 225.130368 100.145455 
L 228.48377 100.145455 
L 228.643456 98.181818 
L 230.4 98.181818 
L 230.559686 100.145455 
L 231.517801 100.145455 
L 231.677486 102.109091 
L 231.996858 102.109091 
L 232.156544 100.145455 
L 232.635601 100.145455 
L 232.795287 98.181818 
L 233.593716 98.181818 
L 233.753402 96.218182 
L 237.426175 96.218182 
L 237.585861 94.254545 
L 238.703662 94.254545 
L 238.863348 92.290909 
L 239.182719 92.290909 
L 239.342405 94.254545 
L 241.41832 94.254545 
L 241.578006 96.218182 
L 243.973293 96.218182 
L 244.132979 98.181818 
L 244.612037 98.181818 
L 244.771722 100.145455 
L 246.687952 100.145455 
L 247.007324 96.218182 
L 247.646067 96.218182 
L 247.805753 94.254545 
L 247.965438 96.218182 
L 252.276955 96.218182 
L 252.436641 94.254545 
L 256.109414 94.254545 
L 256.2691 92.290909 
L 258.504701 92.290909 
L 258.664387 94.254545 
L 262.017789 94.254545 
L 262.337161 98.181818 
L 262.496846 96.218182 
L 263.454961 96.218182 
L 263.614647 94.254545 
L 270.161765 94.254545 
L 270.481137 98.181818 
L 271.11988 98.181818 
L 271.279566 96.218182 
L 273.355481 96.218182 
L 273.515167 94.254545 
L 274.632968 94.254545 
L 274.792653 96.218182 
L 275.910454 96.218182 
L 276.07014 94.254545 
L 276.549197 94.254545 
L 276.708883 92.290909 
L 279.742913 92.290909 
L 279.902599 90.327273 
L 289.803119 90.327273 
L 289.962805 92.290909 
L 290.441862 92.290909 
L 290.601548 90.327273 
L 293.95495 90.327273 
L 294.114636 88.363636 
L 294.274321 88.363636 
L 294.434007 90.327273 
L 298.106781 90.327273 
L 298.106781 90.327273 
" clip-path="url(#p4e424bd916)" style="fill: none; stroke: #1f77b4; stroke-width: 1.5; stroke-linecap: square"/>
   </g>
   <g id="line2d_17">
    <path d="M 104.727273 78.545455 
L 302.418297 78.545455 
L 302.418297 78.545455 
" clip-path="url(#p4e424bd916)" style="fill: none; stroke: #ff7f0e; stroke-width: 1.5; stroke-linecap: square"/>
   </g>
   <g id="line2d_18">
    <path d="M 104.727273 145.309091 
L 104.886959 143.345455 
L 105.525702 143.345455 
L 105.685388 145.309091 
L 106.004759 145.309091 
L 106.164445 143.345455 
L 106.803188 143.345455 
L 106.962874 141.381818 
L 108.559732 141.381818 
L 108.719418 139.418182 
L 109.198475 139.418182 
L 109.517847 135.490909 
L 110.316276 135.490909 
L 110.475962 133.527273 
L 110.955019 133.527273 
L 111.114705 131.563636 
L 112.392191 131.563636 
L 112.551877 129.6 
L 113.030935 129.6 
L 113.19062 127.636364 
L 113.350306 127.636364 
L 113.509992 129.6 
L 113.829364 129.6 
L 113.989049 131.563636 
L 114.947164 131.563636 
L 115.266536 127.636364 
L 115.585907 127.636364 
L 115.745593 125.672727 
L 117.502137 125.672727 
L 117.821509 121.745455 
L 119.737738 121.745455 
L 119.897424 123.709091 
L 120.536167 123.709091 
L 120.855539 119.781818 
L 123.570198 119.781818 
L 123.889569 115.854545 
L 125.00737 115.854545 
L 125.167056 117.818182 
L 125.646113 117.818182 
L 125.805799 115.854545 
L 126.12517 115.854545 
L 126.444542 111.927273 
L 128.360772 111.927273 
L 128.520457 109.963636 
L 128.839829 109.963636 
L 128.999515 108 
L 130.277001 108 
L 130.436687 106.036364 
L 130.756059 106.036364 
L 130.915744 108 
L 131.07543 106.036364 
L 131.873859 106.036364 
L 132.193231 102.109091 
L 133.949775 102.109091 
L 134.109461 104.072727 
L 134.428832 104.072727 
L 134.588518 102.109091 
L 134.748204 102.109091 
L 134.90789 104.072727 
L 135.227261 104.072727 
L 135.386947 102.109091 
L 136.504748 102.109091 
L 136.664433 100.145455 
L 137.462862 100.145455 
L 137.622548 98.181818 
L 137.94192 98.181818 
L 138.101606 100.145455 
L 141.135636 100.145455 
L 141.295322 102.109091 
L 143.850295 102.109091 
L 144.00998 104.072727 
L 144.808409 104.072727 
L 144.968095 102.109091 
L 145.287467 102.109091 
L 145.447153 100.145455 
L 145.766524 100.145455 
L 145.92621 98.181818 
L 146.245582 98.181818 
L 146.405267 100.145455 
L 148.96024 100.145455 
L 149.119926 102.109091 
L 149.439298 102.109091 
L 149.598983 104.072727 
L 150.237727 104.072727 
L 150.397412 106.036364 
L 151.674899 106.036364 
L 151.834585 104.072727 
L 153.431443 104.072727 
L 153.591129 106.036364 
L 154.229872 106.036364 
L 154.389558 108 
L 156.784845 108 
L 156.94453 109.963636 
L 157.104216 108 
L 157.902645 108 
L 158.062331 109.963636 
L 158.541388 109.963636 
L 158.86076 113.890909 
L 160.138247 113.890909 
L 160.297932 111.927273 
L 160.457618 113.890909 
L 162.693219 113.890909 
L 162.852905 111.927273 
L 164.449763 111.927273 
L 164.609449 113.890909 
L 164.769135 111.927273 
L 165.886935 111.927273 
L 166.046621 109.963636 
L 166.685364 109.963636 
L 166.84505 108 
L 168.601594 108 
L 168.76128 109.963636 
L 169.400023 109.963636 
L 169.719395 113.890909 
L 169.879081 113.890909 
L 170.038766 111.927273 
L 170.837195 111.927273 
L 170.996881 113.890909 
L 173.072797 113.890909 
L 173.232482 111.927273 
L 176.106827 111.927273 
L 176.266513 113.890909 
L 178.182742 113.890909 
L 178.342428 111.927273 
L 180.418344 111.927273 
L 180.578029 113.890909 
L 180.897401 113.890909 
L 181.057087 111.927273 
L 181.376458 111.927273 
L 181.536144 109.963636 
L 182.174887 109.963636 
L 182.334573 108 
L 185.368603 108 
L 185.528289 106.036364 
L 186.167032 106.036364 
L 186.326718 104.072727 
L 188.722005 104.072727 
L 188.881691 102.109091 
L 189.839806 102.109091 
L 189.999492 100.145455 
L 190.478549 100.145455 
L 190.797921 96.218182 
L 192.235093 96.218182 
L 192.394779 94.254545 
L 196.386924 94.254545 
L 196.54661 92.290909 
L 199.900012 92.290909 
L 200.059697 94.254545 
L 200.538755 94.254545 
L 200.698441 92.290909 
L 201.177498 92.290909 
L 201.337184 94.254545 
L 201.656555 90.327273 
L 202.774356 90.327273 
L 202.934042 88.363636 
L 203.413099 88.363636 
L 203.732471 92.290909 
L 207.724616 92.290909 
L 207.884302 90.327273 
L 208.043988 90.327273 
L 208.203673 88.363636 
L 212.355504 88.363636 
L 212.51519 86.4 
L 226.248169 86.4 
L 226.407855 88.363636 
L 229.122514 88.363636 
L 229.282199 90.327273 
L 229.920943 90.327273 
L 230.080628 92.290909 
L 231.837172 92.290909 
L 231.996858 90.327273 
L 232.156544 92.290909 
L 233.114659 92.290909 
L 233.274344 90.327273 
L 234.392145 90.327273 
L 234.551831 92.290909 
L 235.35026 92.290909 
L 235.669632 88.363636 
L 237.106804 88.363636 
L 237.26649 90.327273 
L 240.619891 90.327273 
L 240.779577 92.290909 
L 242.376435 92.290909 
L 242.536121 94.254545 
L 245.570151 94.254545 
L 245.729837 96.218182 
L 247.965438 96.218182 
L 248.125124 98.181818 
L 249.083239 98.181818 
L 249.242925 100.145455 
L 250.20104 100.145455 
L 250.360725 102.109091 
L 257.546587 102.109091 
L 257.706272 104.072727 
L 261.059674 104.072727 
L 261.21936 102.109091 
L 261.379046 102.109091 
L 261.538732 104.072727 
L 261.858103 104.072727 
L 262.017789 102.109091 
L 262.975904 102.109091 
L 263.13559 104.072727 
L 263.934019 104.072727 
L 264.093705 102.109091 
L 265.371191 102.109091 
L 265.690563 106.036364 
L 266.329306 106.036364 
L 266.488992 104.072727 
L 269.043964 104.072727 
L 269.20365 102.109091 
L 272.557052 102.109091 
L 272.716738 100.145455 
L 274.313596 100.145455 
L 274.473282 98.181818 
L 275.112025 98.181818 
L 275.271711 100.145455 
L 276.07014 100.145455 
L 276.229826 102.109091 
L 277.507312 102.109091 
L 277.666998 100.145455 
L 279.902599 100.145455 
L 280.062285 98.181818 
L 280.221971 100.145455 
L 281.0204 100.145455 
L 281.180085 98.181818 
L 281.499457 98.181818 
L 281.659143 100.145455 
L 282.1382 100.145455 
L 282.297886 98.181818 
L 285.491602 98.181818 
L 285.651288 100.145455 
L 286.449717 100.145455 
L 286.609403 102.109091 
L 289.483747 102.109091 
L 289.643433 100.145455 
L 290.12249 100.145455 
L 290.282176 98.181818 
L 293.316207 98.181818 
L 293.475892 96.218182 
L 294.913065 96.218182 
L 295.07275 94.254545 
L 296.030865 94.254545 
L 296.350237 98.181818 
L 296.669608 98.181818 
L 296.669608 98.181818 
" clip-path="url(#p4e424bd916)" style="fill: none; stroke: #2ca02c; stroke-width: 1.5; stroke-linecap: square"/>
   </g>
   <g id="line2d_19">
    <path d="M 104.727273 78.545455 
L 292.517778 78.545455 
L 292.517778 78.545455 
" clip-path="url(#p4e424bd916)" style="fill: none; stroke: #d62728; stroke-width: 1.5; stroke-linecap: square"/>
   </g>
   <g id="line2d_20">
    <path d="M 104.727273 117.818182 
L 105.046644 117.818182 
L 105.20633 119.781818 
L 105.525702 119.781818 
L 105.685388 117.818182 
L 106.004759 117.818182 
L 106.164445 119.781818 
L 107.601617 119.781818 
L 107.761303 117.818182 
L 109.358161 117.818182 
L 109.517847 115.854545 
L 112.711563 115.854545 
L 112.871249 113.890909 
L 113.350306 113.890909 
L 113.509992 115.854545 
L 115.10685 115.854545 
L 115.266536 113.890909 
L 115.426222 115.854545 
L 115.745593 115.854545 
L 115.905279 113.890909 
L 117.981194 113.890909 
L 118.14088 115.854545 
L 118.619938 115.854545 
L 118.779623 117.818182 
L 119.737738 117.818182 
L 119.897424 115.854545 
L 120.536167 115.854545 
L 120.855539 111.927273 
L 121.494282 111.927273 
L 121.653968 109.963636 
L 122.292711 109.963636 
L 122.452397 111.927273 
L 123.09114 111.927273 
L 123.250826 113.890909 
L 124.528312 113.890909 
L 124.687998 115.854545 
L 125.486427 115.854545 
L 125.646113 113.890909 
L 126.12517 113.890909 
L 126.284856 111.927273 
L 127.242971 111.927273 
L 127.402657 113.890909 
L 128.520457 113.890909 
L 128.680143 111.927273 
L 130.915744 111.927273 
L 131.235116 115.854545 
L 131.873859 115.854545 
L 132.033545 113.890909 
L 133.151346 113.890909 
L 133.311032 115.854545 
L 133.630403 115.854545 
L 133.790089 113.890909 
L 134.428832 113.890909 
L 134.588518 111.927273 
L 135.866004 111.927273 
L 136.02569 113.890909 
L 136.345062 113.890909 
L 136.504748 115.854545 
L 136.983805 115.854545 
L 137.143491 113.890909 
L 137.622548 113.890909 
L 137.782234 115.854545 
L 137.94192 115.854545 
L 138.101606 113.890909 
L 138.740349 113.890909 
L 138.900035 111.927273 
L 142.253437 111.927273 
L 142.413122 113.890909 
L 143.211551 113.890909 
L 143.371237 115.854545 
L 146.724639 115.854545 
L 146.884325 117.818182 
L 147.203696 117.818182 
L 147.363382 115.854545 
L 147.84244 115.854545 
L 148.002125 117.818182 
L 149.918355 117.818182 
L 150.078041 115.854545 
L 150.557098 115.854545 
L 150.716784 113.890909 
L 151.195842 113.890909 
L 151.355527 111.927273 
L 153.750814 111.927273 
L 153.9105 113.890909 
L 154.070186 111.927273 
L 154.229872 111.927273 
L 154.389558 109.963636 
L 155.028301 109.963636 
L 155.187987 108 
L 156.465473 108 
L 156.625159 106.036364 
L 156.784845 108 
L 159.180132 108 
L 159.339817 106.036364 
L 159.499503 108 
L 161.415733 108 
L 161.575419 109.963636 
L 162.852905 109.963636 
L 163.172277 106.036364 
L 165.088506 106.036364 
L 165.248192 104.072727 
L 165.567564 104.072727 
L 165.72725 106.036364 
L 167.483793 106.036364 
L 167.643479 108 
L 167.962851 104.072727 
L 168.282222 104.072727 
L 168.441908 102.109091 
L 168.76128 102.109091 
L 168.920966 104.072727 
L 169.400023 104.072727 
L 169.559709 106.036364 
L 169.719395 104.072727 
L 170.038766 104.072727 
L 170.198452 106.036364 
L 171.79531 106.036364 
L 171.954996 108 
L 173.392168 108 
L 173.551854 109.963636 
L 173.71154 109.963636 
L 173.871226 111.927273 
L 174.190597 111.927273 
L 174.350283 109.963636 
L 175.148712 109.963636 
L 175.308398 108 
L 176.74557 108 
L 176.905256 109.963636 
L 177.224627 109.963636 
L 177.384313 108 
L 178.023056 108 
L 178.182742 109.963636 
L 178.6618 109.963636 
L 178.821486 108 
L 178.981171 108 
L 179.140857 109.963636 
L 179.7796 109.963636 
L 179.939286 108 
L 182.494259 108 
L 182.653945 109.963636 
L 183.61206 109.963636 
L 183.771745 111.927273 
L 183.931431 111.927273 
L 184.091117 113.890909 
L 185.687975 113.890909 
L 185.847661 111.927273 
L 187.284833 111.927273 
L 187.604205 115.854545 
L 188.56232 115.854545 
L 188.722005 113.890909 
L 190.478549 113.890909 
L 190.638235 115.854545 
L 191.276978 115.854545 
L 191.436664 113.890909 
L 192.71415 113.890909 
L 192.873836 115.854545 
L 193.033522 115.854545 
L 193.193208 117.818182 
L 193.352894 117.818182 
L 193.512579 115.854545 
L 197.185353 115.854545 
L 197.345039 117.818182 
L 197.504725 117.818182 
L 197.66441 115.854545 
L 199.420954 115.854545 
L 199.58064 113.890909 
L 200.698441 113.890909 
L 200.858126 111.927273 
L 201.337184 111.927273 
L 201.49687 109.963636 
L 201.975927 109.963636 
L 202.135613 108 
L 202.774356 108 
L 202.934042 109.963636 
L 203.732471 109.963636 
L 203.892157 108 
L 205.329329 108 
L 205.489015 106.036364 
L 205.6487 106.036364 
L 205.808386 104.072727 
L 208.682731 104.072727 
L 208.842417 102.109091 
L 209.161788 102.109091 
L 209.321474 104.072727 
L 209.960217 104.072727 
L 210.119903 102.109091 
L 210.918332 102.109091 
L 211.078018 100.145455 
L 214.43142 100.145455 
L 214.591105 98.181818 
L 214.750791 98.181818 
L 214.910477 100.145455 
L 215.54922 100.145455 
L 215.708906 98.181818 
L 215.868592 98.181818 
L 216.028278 96.218182 
L 219.221994 96.218182 
L 219.541365 92.290909 
L 221.617281 92.290909 
L 221.776967 94.254545 
L 222.41571 94.254545 
L 222.575396 92.290909 
L 224.651311 92.290909 
L 224.810997 90.327273 
L 224.970683 90.327273 
L 225.130368 88.363636 
L 226.727227 88.363636 
L 226.886912 90.327273 
L 228.643456 90.327273 
L 228.803142 92.290909 
L 234.711517 92.290909 
L 234.871202 90.327273 
L 235.509946 90.327273 
L 235.669632 92.290909 
L 237.585861 92.290909 
L 237.745547 94.254545 
L 241.098949 94.254545 
L 241.258635 92.290909 
L 242.536121 92.290909 
L 242.695807 94.254545 
L 245.729837 94.254545 
L 245.889523 96.218182 
L 247.167009 96.218182 
L 247.326695 98.181818 
L 248.125124 98.181818 
L 248.28481 100.145455 
L 248.763867 100.145455 
L 248.923553 102.109091 
L 253.554441 102.109091 
L 253.714127 100.145455 
L 254.193185 100.145455 
L 254.352871 102.109091 
L 256.2691 102.109091 
L 256.428786 104.072727 
L 256.588472 104.072727 
L 256.907843 108 
L 260.580617 108 
L 260.740303 106.036364 
L 261.059674 106.036364 
L 261.21936 104.072727 
L 261.858103 104.072727 
L 262.017789 106.036364 
L 264.892134 106.036364 
L 265.211505 109.963636 
L 266.488992 109.963636 
L 266.648677 111.927273 
L 267.447106 111.927273 
L 267.606792 109.963636 
L 272.23768 109.963636 
L 272.397366 111.927273 
L 273.03611 111.927273 
L 273.195795 113.890909 
L 274.473282 113.890909 
L 274.632968 111.927273 
L 275.271711 111.927273 
L 275.431397 113.890909 
L 276.07014 113.890909 
L 276.229826 115.854545 
L 278.625113 115.854545 
L 278.784798 113.890909 
L 279.10417 113.890909 
L 279.263856 111.927273 
L 279.583227 111.927273 
L 279.742913 113.890909 
L 279.902599 113.890909 
L 280.062285 115.854545 
L 280.221971 113.890909 
L 280.701028 113.890909 
L 280.860714 111.927273 
L 286.130345 111.927273 
L 286.290031 109.963636 
L 288.206261 109.963636 
L 288.365947 108 
L 288.525632 108 
L 288.845004 104.072727 
L 290.282176 104.072727 
L 290.441862 106.036364 
L 292.517778 106.036364 
L 292.677463 108 
L 293.795264 108 
L 293.95495 106.036364 
L 294.114636 106.036364 
L 294.274321 108 
L 294.913065 108 
L 295.07275 109.963636 
L 296.829294 109.963636 
L 297.148666 106.036364 
L 297.308352 108 
L 297.947095 108 
L 298.106781 109.963636 
L 298.426152 109.963636 
L 298.585838 108 
L 300.661753 108 
L 300.821439 109.963636 
L 300.981125 109.963636 
L 300.981125 109.963636 
" clip-path="url(#p4e424bd916)" style="fill: none; stroke: #9467bd; stroke-width: 1.5; stroke-linecap: square"/>
   </g>
   <g id="line2d_21">
    <path d="M 104.727273 78.545455 
L 292.837149 78.545455 
L 292.837149 78.545455 
" clip-path="url(#p4e424bd916)" style="fill: none; stroke: #8c564b; stroke-width: 1.5; stroke-linecap: square"/>
   </g>
   <g id="line2d_22">
    <path d="M 104.727273 129.6 
L 104.886959 131.563636 
L 105.366016 131.563636 
L 105.525702 133.527273 
L 105.685388 133.527273 
L 105.845073 135.490909 
L 106.004759 133.527273 
L 106.164445 133.527273 
L 106.324131 135.490909 
L 107.601617 135.490909 
L 107.761303 133.527273 
L 109.358161 133.527273 
L 109.517847 131.563636 
L 109.837218 131.563636 
L 109.996904 133.527273 
L 110.316276 133.527273 
L 110.475962 131.563636 
L 111.593762 131.563636 
L 111.753448 133.527273 
L 111.913134 133.527273 
L 112.07282 131.563636 
L 113.19062 131.563636 
L 113.669678 125.672727 
L 114.308421 125.672727 
L 114.468107 123.709091 
L 114.947164 123.709091 
L 115.10685 121.745455 
L 115.426222 121.745455 
L 115.585907 123.709091 
L 116.863394 123.709091 
L 117.02308 125.672727 
L 117.342451 125.672727 
L 117.502137 127.636364 
L 117.661823 127.636364 
L 117.821509 129.6 
L 117.981194 129.6 
L 118.14088 131.563636 
L 119.897424 131.563636 
L 120.05711 129.6 
L 120.216796 129.6 
L 120.376481 131.563636 
L 120.536167 131.563636 
L 120.695853 133.527273 
L 121.334596 133.527273 
L 121.494282 131.563636 
L 121.973339 131.563636 
L 122.133025 133.527273 
L 125.486427 133.527273 
L 125.646113 135.490909 
L 126.284856 135.490909 
L 126.444542 133.527273 
L 126.923599 133.527273 
L 127.083285 131.563636 
L 127.722028 131.563636 
L 128.201086 125.672727 
L 130.915744 125.672727 
L 131.07543 123.709091 
L 131.873859 123.709091 
L 132.033545 121.745455 
L 132.193231 123.709091 
L 133.630403 123.709091 
L 133.790089 121.745455 
L 134.269146 121.745455 
L 134.428832 119.781818 
L 134.748204 119.781818 
L 134.90789 117.818182 
L 135.067575 117.818182 
L 135.227261 119.781818 
L 135.386947 119.781818 
L 135.546633 117.818182 
L 136.664433 117.818182 
L 136.824119 115.854545 
L 137.303177 115.854545 
L 137.462862 113.890909 
L 137.622548 113.890909 
L 137.782234 111.927273 
L 137.94192 111.927273 
L 138.101606 113.890909 
L 138.261291 111.927273 
L 138.420977 111.927273 
L 138.580663 109.963636 
L 138.900035 109.963636 
L 139.05972 108 
L 139.698464 115.854545 
L 140.816264 115.854545 
L 140.97595 117.818182 
L 141.774379 117.818182 
L 141.934065 115.854545 
L 142.89218 115.854545 
L 143.051866 117.818182 
L 143.211551 117.818182 
L 143.530923 121.745455 
L 143.690609 119.781818 
L 145.287467 119.781818 
L 145.447153 121.745455 
L 146.245582 121.745455 
L 146.405267 123.709091 
L 147.363382 123.709091 
L 147.523068 121.745455 
L 148.800554 121.745455 
L 148.96024 119.781818 
L 149.279612 119.781818 
L 149.439298 117.818182 
L 149.598983 117.818182 
L 149.758669 115.854545 
L 149.918355 115.854545 
L 150.078041 113.890909 
L 150.557098 113.890909 
L 150.716784 115.854545 
L 150.87647 115.854545 
L 151.036156 117.818182 
L 151.674899 117.818182 
L 151.834585 119.781818 
L 152.153956 119.781818 
L 152.313642 117.818182 
L 152.473328 117.818182 
L 152.633014 115.854545 
L 153.9105 115.854545 
L 154.070186 113.890909 
L 156.625159 113.890909 
L 156.784845 115.854545 
L 157.423588 115.854545 
L 157.583274 113.890909 
L 158.86076 113.890909 
L 159.020446 115.854545 
L 161.256047 115.854545 
L 161.415733 113.890909 
L 161.735105 113.890909 
L 161.89479 115.854545 
L 162.373848 115.854545 
L 162.533534 117.818182 
L 162.852905 117.818182 
L 163.012591 119.781818 
L 163.81102 119.781818 
L 163.970706 121.745455 
L 164.130392 119.781818 
L 164.769135 119.781818 
L 164.928821 121.745455 
L 165.407878 121.745455 
L 165.567564 123.709091 
L 165.886935 123.709091 
L 166.046621 125.672727 
L 167.004736 125.672727 
L 167.164422 123.709091 
L 167.324108 123.709091 
L 167.643479 127.636364 
L 167.803165 127.636364 
L 168.122537 131.563636 
L 170.198452 131.563636 
L 170.358138 133.527273 
L 170.996881 133.527273 
L 171.635624 125.672727 
L 171.79531 125.672727 
L 171.954996 127.636364 
L 172.274368 127.636364 
L 172.434053 129.6 
L 172.753425 129.6 
L 172.913111 127.636364 
L 173.71154 127.636364 
L 173.871226 129.6 
L 174.030911 129.6 
L 174.190597 131.563636 
L 174.82934 131.563636 
L 174.989026 129.6 
L 175.148712 131.563636 
L 175.468084 127.636364 
L 175.627769 127.636364 
L 175.787455 129.6 
L 176.74557 129.6 
L 176.905256 131.563636 
L 177.064942 131.563636 
L 177.224627 133.527273 
L 177.384313 131.563636 
L 177.863371 131.563636 
L 178.023056 133.527273 
L 178.182742 133.527273 
L 178.342428 131.563636 
L 178.502114 131.563636 
L 178.6618 133.527273 
L 179.939286 133.527273 
L 180.098972 135.490909 
L 182.494259 135.490909 
L 182.653945 133.527273 
L 182.813631 133.527273 
L 182.973316 131.563636 
L 183.61206 131.563636 
L 183.771745 129.6 
L 185.847661 129.6 
L 186.007347 131.563636 
L 186.486404 131.563636 
L 186.64609 133.527273 
L 187.444519 133.527273 
L 187.604205 135.490909 
L 188.56232 135.490909 
L 188.722005 133.527273 
L 188.881691 133.527273 
L 189.201063 137.454545 
L 190.797921 137.454545 
L 190.957607 135.490909 
L 194.311008 135.490909 
L 194.470694 133.527273 
L 194.63038 133.527273 
L 194.790066 135.490909 
L 194.949752 133.527273 
L 195.748181 133.527273 
L 195.907866 131.563636 
L 196.706295 131.563636 
L 196.865981 129.6 
L 197.345039 129.6 
L 197.504725 127.636364 
L 197.824096 127.636364 
L 197.983782 125.672727 
L 199.261268 125.672727 
L 199.58064 121.745455 
L 199.740326 121.745455 
L 200.059697 117.818182 
L 201.017812 117.818182 
L 201.177498 119.781818 
L 201.816241 119.781818 
L 201.975927 117.818182 
L 202.135613 117.818182 
L 202.295299 115.854545 
L 203.093728 115.854545 
L 203.253413 117.818182 
L 203.732471 117.818182 
L 203.892157 115.854545 
L 204.051842 115.854545 
L 204.211528 117.818182 
L 204.371214 115.854545 
L 205.489015 115.854545 
L 205.6487 117.818182 
L 205.808386 115.854545 
L 205.968072 117.818182 
L 206.127758 115.854545 
L 206.926187 115.854545 
L 207.085873 113.890909 
L 207.56493 113.890909 
L 207.724616 111.927273 
L 208.523045 111.927273 
L 208.682731 113.890909 
L 208.842417 111.927273 
L 209.002102 111.927273 
L 209.161788 109.963636 
L 209.800531 109.963636 
L 209.960217 108 
L 210.439275 108 
L 210.59896 106.036364 
L 211.876447 106.036364 
L 212.036133 104.072727 
L 213.792676 104.072727 
L 213.952362 106.036364 
L 214.910477 106.036364 
L 215.070163 108 
L 216.507335 108 
L 216.667021 109.963636 
L 217.784822 109.963636 
L 217.944507 108 
L 218.423565 108 
L 218.583251 106.036364 
L 219.38168 106.036364 
L 219.541365 104.072727 
L 220.49948 104.072727 
L 220.659166 106.036364 
L 220.818852 106.036364 
L 221.138223 102.109091 
L 222.41571 102.109091 
L 222.575396 104.072727 
L 224.331939 104.072727 
L 224.491625 106.036364 
L 225.290054 106.036364 
L 225.44974 108 
L 225.609426 108 
L 225.769112 106.036364 
L 228.643456 106.036364 
L 228.803142 108 
L 229.761257 108 
L 229.920943 109.963636 
L 230.240314 109.963636 
L 230.4 111.927273 
L 230.719372 111.927273 
L 230.879057 113.890909 
L 231.517801 113.890909 
L 231.677486 115.854545 
L 232.156544 115.854545 
L 232.31623 117.818182 
L 232.795287 117.818182 
L 232.954973 119.781818 
L 233.114659 117.818182 
L 234.711517 117.818182 
L 234.871202 119.781818 
L 235.030888 119.781818 
L 235.190574 117.818182 
L 235.35026 119.781818 
L 235.829317 119.781818 
L 235.989003 121.745455 
L 236.148689 119.781818 
L 237.745547 119.781818 
L 237.905233 117.818182 
L 238.064919 119.781818 
L 239.661777 119.781818 
L 239.821462 121.745455 
L 240.460206 121.745455 
L 240.619891 119.781818 
L 241.258635 119.781818 
L 241.41832 121.745455 
L 244.931408 121.745455 
L 245.091094 123.709091 
L 245.729837 123.709091 
L 245.889523 121.745455 
L 246.208895 125.672727 
L 246.36858 125.672727 
L 246.528266 127.636364 
L 246.687952 127.636364 
L 246.847638 129.6 
L 247.007324 127.636364 
L 248.125124 127.636364 
L 248.28481 129.6 
L 249.562296 129.6 
L 249.721982 131.563636 
L 250.041354 131.563636 
L 250.360725 135.490909 
L 250.999469 135.490909 
L 251.159154 137.454545 
L 252.596327 137.454545 
L 252.756012 139.418182 
L 252.915698 139.418182 
L 253.075384 141.381818 
L 253.23507 141.381818 
L 253.394756 143.345455 
L 254.193185 143.345455 
L 254.352871 145.309091 
L 254.512556 143.345455 
L 254.672242 145.309091 
L 256.109414 145.309091 
L 256.2691 147.272727 
L 256.428786 145.309091 
L 257.227215 145.309091 
L 257.386901 143.345455 
L 257.865958 143.345455 
L 258.025644 145.309091 
L 258.983759 145.309091 
L 259.143445 147.272727 
L 259.462816 147.272727 
L 259.622502 149.236364 
L 260.580617 149.236364 
L 260.740303 147.272727 
L 260.899988 147.272727 
L 261.059674 149.236364 
L 261.698417 149.236364 
L 261.858103 147.272727 
L 262.177475 147.272727 
L 262.337161 145.309091 
L 262.656532 145.309091 
L 262.816218 143.345455 
L 263.454961 143.345455 
L 263.614647 141.381818 
L 264.093705 141.381818 
L 264.25339 139.418182 
L 264.732448 139.418182 
L 264.892134 137.454545 
L 265.371191 137.454545 
L 265.690563 141.381818 
L 266.009934 141.381818 
L 266.329306 145.309091 
L 266.488992 145.309091 
L 266.648677 147.272727 
L 266.808363 145.309091 
L 267.127735 145.309091 
L 267.287421 143.345455 
L 267.766478 143.345455 
L 267.926164 141.381818 
L 269.363336 141.381818 
L 269.523022 139.418182 
L 269.842393 139.418182 
L 270.002079 137.454545 
L 270.161765 137.454545 
L 270.321451 139.418182 
L 272.077995 139.418182 
L 272.23768 141.381818 
L 273.195795 141.381818 
L 273.355481 139.418182 
L 276.868569 139.418182 
L 277.028255 137.454545 
L 277.826684 137.454545 
L 278.146055 133.527273 
L 278.305741 133.527273 
L 278.465427 131.563636 
L 278.625113 131.563636 
L 278.784798 129.6 
L 280.062285 129.6 
L 280.221971 127.636364 
L 280.381656 127.636364 
L 280.541342 125.672727 
L 281.499457 125.672727 
L 281.659143 123.709091 
L 281.978514 123.709091 
L 282.297886 119.781818 
L 282.936629 119.781818 
L 283.096315 117.818182 
L 284.373802 117.818182 
L 284.693173 113.890909 
L 284.852859 113.890909 
L 285.012545 111.927273 
L 285.172231 111.927273 
L 285.331916 109.963636 
L 285.491602 111.927273 
L 285.810974 111.927273 
L 285.97066 113.890909 
L 286.130345 113.890909 
L 286.290031 111.927273 
L 286.449717 111.927273 
L 286.609403 109.963636 
L 287.248146 109.963636 
L 287.407832 111.927273 
L 288.046575 111.927273 
L 288.206261 109.963636 
L 289.803119 109.963636 
L 289.962805 108 
L 290.441862 108 
L 290.601548 106.036364 
L 291.240291 106.036364 
L 291.399977 108 
L 291.879034 108 
L 292.198406 111.927273 
L 292.837149 111.927273 
L 292.996835 109.963636 
L 294.593693 109.963636 
L 294.593693 109.963636 
" clip-path="url(#p4e424bd916)" style="fill: none; stroke: #e377c2; stroke-width: 1.5; stroke-linecap: square"/>
   </g>
   <g id="line2d_23">
    <path d="M 104.727273 78.545455 
L 302.258612 78.545455 
L 302.258612 78.545455 
" clip-path="url(#p4e424bd916)" style="fill: none; stroke: #7f7f7f; stroke-width: 1.5; stroke-linecap: square"/>
   </g>
   <g id="line2d_24">
    <path d="M 104.727273 263.127273 
L 104.886959 265.090909 
L 105.845073 265.090909 
L 106.004759 267.054545 
L 106.962874 267.054545 
L 107.12256 265.090909 
L 107.441931 265.090909 
L 107.761303 261.163636 
L 108.559732 261.163636 
L 108.719418 259.2 
L 109.038789 259.2 
L 109.517847 253.309091 
L 109.837218 253.309091 
L 109.996904 251.345455 
L 110.316276 251.345455 
L 110.475962 249.381818 
L 110.635647 249.381818 
L 110.795333 247.418182 
L 111.114705 247.418182 
L 111.274391 245.454545 
L 111.593762 245.454545 
L 111.753448 247.418182 
L 111.913134 245.454545 
L 112.551877 245.454545 
L 112.711563 243.490909 
L 113.669678 243.490909 
L 113.829364 241.527273 
L 113.989049 241.527273 
L 114.148735 243.490909 
L 114.308421 241.527273 
L 114.468107 241.527273 
L 114.627793 239.563636 
L 114.787478 239.563636 
L 115.426222 231.709091 
L 115.585907 231.709091 
L 115.745593 229.745455 
L 116.224651 229.745455 
L 116.703708 223.854545 
L 117.02308 223.854545 
L 117.661823 216 
L 117.821509 217.963636 
L 117.981194 217.963636 
L 118.300566 214.036364 
L 118.619938 214.036364 
L 119.418367 204.218182 
L 119.737738 204.218182 
L 120.536167 194.4 
L 121.015225 194.4 
L 121.653968 186.545455 
L 121.813654 186.545455 
L 122.452397 178.690909 
L 122.612083 178.690909 
L 122.771769 176.727273 
L 123.09114 176.727273 
L 123.250826 174.763636 
L 123.570198 174.763636 
L 123.729883 176.727273 
L 124.368627 168.872727 
L 124.528312 168.872727 
L 124.687998 170.836364 
L 125.167056 164.945455 
L 125.486427 164.945455 
L 125.646113 162.981818 
L 126.12517 162.981818 
L 126.604228 157.090909 
L 126.763914 159.054545 
L 127.242971 153.163636 
L 127.402657 153.163636 
L 127.722028 149.236364 
L 128.520457 149.236364 
L 128.839829 145.309091 
L 129.318886 145.309091 
L 129.478572 147.272727 
L 129.638258 145.309091 
L 130.117315 145.309091 
L 130.277001 143.345455 
L 130.596373 143.345455 
L 130.756059 141.381818 
L 130.915744 141.381818 
L 131.07543 139.418182 
L 131.394802 139.418182 
L 131.554488 137.454545 
L 131.873859 137.454545 
L 132.352917 131.563636 
L 132.512603 133.527273 
L 132.831974 129.6 
L 133.470717 129.6 
L 133.630403 131.563636 
L 133.949775 127.636364 
L 134.109461 129.6 
L 134.269146 129.6 
L 134.428832 127.636364 
L 134.588518 127.636364 
L 134.748204 129.6 
L 135.067575 129.6 
L 135.227261 131.563636 
L 136.02569 131.563636 
L 136.185376 133.527273 
L 136.664433 133.527273 
L 136.824119 131.563636 
L 137.782234 131.563636 
L 137.94192 129.6 
L 139.05972 129.6 
L 139.219406 127.636364 
L 140.656578 127.636364 
L 140.816264 125.672727 
L 141.455008 125.672727 
L 141.614693 127.636364 
L 143.530923 127.636364 
L 143.690609 125.672727 
L 144.00998 125.672727 
L 144.169666 127.636364 
L 144.648724 127.636364 
L 144.808409 125.672727 
L 145.766524 125.672727 
L 146.085896 121.745455 
L 146.245582 121.745455 
L 146.405267 119.781818 
L 147.682754 119.781818 
L 147.84244 117.818182 
L 148.640869 117.818182 
L 148.800554 119.781818 
L 149.598983 119.781818 
L 149.758669 117.818182 
L 150.237727 117.818182 
L 150.397412 119.781818 
L 151.355527 119.781818 
L 151.515213 117.818182 
L 151.674899 117.818182 
L 151.834585 119.781818 
L 152.473328 119.781818 
L 152.633014 121.745455 
L 152.7927 121.745455 
L 152.952385 119.781818 
L 154.070186 119.781818 
L 154.229872 121.745455 
L 155.187987 121.745455 
L 155.347672 119.781818 
L 155.507358 119.781818 
L 155.667044 117.818182 
L 156.465473 117.818182 
L 156.625159 115.854545 
L 157.583274 115.854545 
L 157.742959 113.890909 
L 157.902645 113.890909 
L 158.062331 111.927273 
L 158.541388 111.927273 
L 158.701074 109.963636 
L 160.138247 109.963636 
L 160.297932 111.927273 
L 160.77699 111.927273 
L 160.936676 113.890909 
L 161.256047 113.890909 
L 161.415733 111.927273 
L 161.575419 111.927273 
L 161.735105 113.890909 
L 164.290077 113.890909 
L 164.449763 111.927273 
L 165.407878 111.927273 
L 165.567564 109.963636 
L 165.72725 111.927273 
L 165.886935 111.927273 
L 166.206307 108 
L 166.525679 108 
L 166.685364 106.036364 
L 167.004736 106.036364 
L 167.164422 104.072727 
L 167.324108 104.072727 
L 167.483793 106.036364 
L 167.962851 106.036364 
L 168.122537 104.072727 
L 173.392168 104.072727 
L 173.551854 102.109091 
L 175.947141 102.109091 
L 176.106827 100.145455 
L 176.266513 100.145455 
L 176.426198 102.109091 
L 179.619915 102.109091 
L 179.7796 104.072727 
L 179.939286 104.072727 
L 180.098972 106.036364 
L 180.578029 106.036364 
L 180.737715 104.072727 
L 180.897401 104.072727 
L 181.057087 106.036364 
L 182.174887 106.036364 
L 182.334573 104.072727 
L 183.61206 104.072727 
L 183.771745 102.109091 
L 184.410489 102.109091 
L 184.570174 100.145455 
L 186.007347 100.145455 
L 186.167032 98.181818 
L 186.326718 100.145455 
L 186.486404 98.181818 
L 187.444519 98.181818 
L 187.604205 100.145455 
L 192.075407 100.145455 
L 192.235093 98.181818 
L 192.71415 98.181818 
L 192.873836 96.218182 
L 193.512579 96.218182 
L 193.672265 94.254545 
L 195.907866 94.254545 
L 196.067552 96.218182 
L 196.706295 96.218182 
L 197.185353 102.109091 
L 197.504725 102.109091 
L 197.66441 100.145455 
L 197.824096 100.145455 
L 197.983782 102.109091 
L 199.261268 102.109091 
L 199.420954 100.145455 
L 200.858126 100.145455 
L 201.017812 102.109091 
L 201.177498 102.109091 
L 201.337184 104.072727 
L 201.975927 104.072727 
L 202.135613 106.036364 
L 207.56493 106.036364 
L 207.724616 108 
L 208.203673 108 
L 208.363359 106.036364 
L 208.682731 106.036364 
L 209.002102 109.963636 
L 211.557075 109.963636 
L 211.716761 108 
L 211.876447 108 
L 212.036133 106.036364 
L 212.834562 106.036364 
L 212.994247 104.072727 
L 215.54922 104.072727 
L 215.708906 106.036364 
L 218.104193 106.036364 
L 218.263879 104.072727 
L 219.38168 104.072727 
L 219.541365 102.109091 
L 220.978538 102.109091 
L 221.138223 104.072727 
L 226.088483 104.072727 
L 226.248169 106.036364 
L 227.685341 106.036364 
L 227.845027 108 
L 228.004713 106.036364 
L 228.643456 106.036364 
L 229.122514 100.145455 
L 229.761257 100.145455 
L 229.920943 98.181818 
L 232.31623 98.181818 
L 232.475915 100.145455 
L 232.795287 100.145455 
L 232.954973 98.181818 
L 233.114659 100.145455 
L 233.274344 98.181818 
L 233.913088 98.181818 
L 234.072773 96.218182 
L 234.232459 96.218182 
L 234.392145 98.181818 
L 235.829317 98.181818 
L 235.989003 100.145455 
L 238.38429 100.145455 
L 238.543976 102.109091 
L 239.502091 102.109091 
L 239.661777 100.145455 
L 239.821462 100.145455 
L 239.981148 102.109091 
L 240.619891 102.109091 
L 240.939263 98.181818 
L 243.174864 98.181818 
L 243.33455 100.145455 
L 243.653922 100.145455 
L 243.813607 102.109091 
L 247.486381 102.109091 
L 247.646067 100.145455 
L 252.915698 100.145455 
L 253.075384 98.181818 
L 256.109414 98.181818 
L 256.2691 100.145455 
L 259.143445 100.145455 
L 259.30313 102.109091 
L 259.462816 102.109091 
L 259.622502 104.072727 
L 259.782188 102.109091 
L 263.774333 102.109091 
L 263.934019 104.072727 
L 264.25339 104.072727 
L 264.413076 102.109091 
L 264.572762 102.109091 
L 264.732448 104.072727 
L 264.892134 104.072727 
L 265.051819 102.109091 
L 266.16962 102.109091 
L 266.329306 100.145455 
L 266.648677 100.145455 
L 266.808363 102.109091 
L 266.968049 102.109091 
L 267.127735 104.072727 
L 267.287421 104.072727 
L 267.447106 106.036364 
L 267.606792 106.036364 
L 267.766478 108 
L 267.926164 106.036364 
L 268.245535 106.036364 
L 268.405221 108 
L 270.321451 108 
L 270.481137 106.036364 
L 271.11988 106.036364 
L 271.279566 108 
L 271.758623 108 
L 271.918309 106.036364 
L 275.112025 106.036364 
L 275.271711 104.072727 
L 275.591082 104.072727 
L 275.750768 102.109091 
L 278.625113 102.109091 
L 278.784798 104.072727 
L 280.381656 104.072727 
L 280.541342 106.036364 
L 281.659143 106.036364 
L 281.818829 108 
L 283.256001 108 
L 283.415687 109.963636 
L 283.894744 109.963636 
L 284.05443 111.927273 
L 285.651288 111.927273 
L 285.97066 115.854545 
L 288.046575 115.854545 
L 288.206261 113.890909 
L 289.962805 113.890909 
L 290.12249 111.927273 
L 291.080605 111.927273 
L 291.240291 109.963636 
L 291.399977 109.963636 
L 291.559663 108 
L 295.711494 108 
L 295.871179 106.036364 
L 296.509923 106.036364 
L 296.669608 104.072727 
L 298.585838 104.072727 
L 298.745524 102.109091 
L 298.90521 102.109091 
L 299.064895 100.145455 
L 299.224581 100.145455 
L 299.384267 98.181818 
L 299.543953 98.181818 
L 299.703639 96.218182 
L 300.182696 96.218182 
L 300.342382 94.254545 
L 300.661753 94.254545 
L 300.821439 96.218182 
L 302.577983 96.218182 
L 302.737669 98.181818 
L 303.057041 98.181818 
L 303.216726 96.218182 
L 303.376412 96.218182 
L 303.536098 98.181818 
L 307.049186 98.181818 
L 307.208871 100.145455 
L 309.284787 100.145455 
L 309.444473 102.109091 
L 310.562273 102.109091 
L 310.721959 100.145455 
L 310.881645 100.145455 
L 311.041331 102.109091 
L 312.318817 102.109091 
L 312.478503 100.145455 
L 313.117246 100.145455 
L 313.436618 104.072727 
L 313.596304 104.072727 
L 313.755989 102.109091 
L 314.394733 102.109091 
L 314.554418 104.072727 
L 315.193162 104.072727 
L 315.352847 102.109091 
L 317.588449 102.109091 
L 317.90782 98.181818 
L 319.82405 98.181818 
L 319.983736 100.145455 
L 320.303107 100.145455 
L 320.462793 102.109091 
L 326.051796 102.109091 
L 326.211482 104.072727 
L 327.488968 104.072727 
L 327.648654 106.036364 
L 332.119857 106.036364 
L 332.279543 108 
L 332.598914 108 
L 332.7586 106.036364 
L 334.195772 106.036364 
L 334.355458 108 
L 334.515144 108 
L 334.67483 106.036364 
L 335.153887 106.036364 
L 335.313573 108 
L 335.473259 106.036364 
L 336.271688 106.036364 
L 336.431373 108 
L 337.70886 108 
L 337.868546 109.963636 
L 338.347603 109.963636 
L 338.507289 111.927273 
L 338.986346 111.927273 
L 339.146032 109.963636 
L 341.221948 109.963636 
L 341.381633 108 
L 342.020377 108 
L 342.180062 109.963636 
L 342.65912 109.963636 
L 342.818806 111.927273 
L 342.978491 109.963636 
L 344.096292 109.963636 
L 344.255978 111.927273 
L 345.054407 111.927273 
L 345.214093 109.963636 
L 346.172207 109.963636 
L 346.331893 111.927273 
L 346.491579 109.963636 
L 347.769065 109.963636 
L 347.928751 108 
L 348.248123 108 
L 348.407809 109.963636 
L 351.761211 109.963636 
L 351.920896 108 
L 352.240268 108 
L 352.399954 106.036364 
L 352.879011 106.036364 
L 353.038697 108 
L 354.316183 108 
L 354.475869 109.963636 
L 356.072727 109.963636 
L 356.072727 109.963636 
" clip-path="url(#p4e424bd916)" style="fill: none; stroke: #bcbd22; stroke-width: 1.5; stroke-linecap: square"/>
   </g>
   <g id="patch_3">
    <path d="M 92.16 276.48 
L 92.16 69.12 
" style="fill: none; stroke: #000000; stroke-width: 0.8; stroke-linejoin: miter; stroke-linecap: square"/>
   </g>
   <g id="patch_4">
    <path d="M 368.64 276.48 
L 368.64 69.12 
" style="fill: none; stroke: #000000; stroke-width: 0.8; stroke-linejoin: miter; stroke-linecap: square"/>
   </g>
   <g id="patch_5">
    <path d="M 92.16 276.48 
L 368.64 276.48 
" style="fill: none; stroke: #000000; stroke-width: 0.8; stroke-linejoin: miter; stroke-linecap: square"/>
   </g>
   <g id="patch_6">
    <path d="M 92.16 69.12 
L 368.64 69.12 
" style="fill: none; stroke: #000000; stroke-width: 0.8; stroke-linejoin: miter; stroke-linecap: square"/>
   </g>
   <g id="text_16">
    <!-- fixed_woosterprobe_2afc_og -->
    <g transform="translate(145.171875 63.12) scale(0.12 -0.12)">
     <defs>
      <path id="DejaVuSans-66" d="M 2375 4863 
L 2375 4384 
L 1825 4384 
Q 1516 4384 1395 4259 
Q 1275 4134 1275 3809 
L 1275 3500 
L 2222 3500 
L 2222 3053 
L 1275 3053 
L 1275 0 
L 697 0 
L 697 3053 
L 147 3053 
L 147 3500 
L 697 3500 
L 697 3744 
Q 697 4328 969 4595 
Q 1241 4863 1831 4863 
L 2375 4863 
z
" transform="scale(0.015625)"/>
      <path id="DejaVuSans-69" d="M 603 3500 
L 1178 3500 
L 1178 0 
L 603 0 
L 603 3500 
z
M 603 4863 
L 1178 4863 
L 1178 4134 
L 603 4134 
L 603 4863 
z
" transform="scale(0.015625)"/>
      <path id="DejaVuSans-78" d="M 3513 3500 
L 2247 1797 
L 3578 0 
L 2900 0 
L 1881 1375 
L 863 0 
L 184 0 
L 1544 1831 
L 300 3500 
L 978 3500 
L 1906 2253 
L 2834 3500 
L 3513 3500 
z
" transform="scale(0.015625)"/>
      <path id="DejaVuSans-65" d="M 3597 1894 
L 3597 1613 
L 953 1613 
Q 991 1019 1311 708 
Q 1631 397 2203 397 
Q 2534 397 2845 478 
Q 3156 559 3463 722 
L 3463 178 
Q 3153 47 2828 -22 
Q 2503 -91 2169 -91 
Q 1331 -91 842 396 
Q 353 884 353 1716 
Q 353 2575 817 3079 
Q 1281 3584 2069 3584 
Q 2775 3584 3186 3129 
Q 3597 2675 3597 1894 
z
M 3022 2063 
Q 3016 2534 2758 2815 
Q 2500 3097 2075 3097 
Q 1594 3097 1305 2825 
Q 1016 2553 972 2059 
L 3022 2063 
z
" transform="scale(0.015625)"/>
      <path id="DejaVuSans-64" d="M 2906 2969 
L 2906 4863 
L 3481 4863 
L 3481 0 
L 2906 0 
L 2906 525 
Q 2725 213 2448 61 
Q 2172 -91 1784 -91 
Q 1150 -91 751 415 
Q 353 922 353 1747 
Q 353 2572 751 3078 
Q 1150 3584 1784 3584 
Q 2172 3584 2448 3432 
Q 2725 3281 2906 2969 
z
M 947 1747 
Q 947 1113 1208 752 
Q 1469 391 1925 391 
Q 2381 391 2643 752 
Q 2906 1113 2906 1747 
Q 2906 2381 2643 2742 
Q 2381 3103 1925 3103 
Q 1469 3103 1208 2742 
Q 947 2381 947 1747 
z
" transform="scale(0.015625)"/>
      <path id="DejaVuSans-5f" d="M 3263 -1063 
L 3263 -1509 
L -63 -1509 
L -63 -1063 
L 3263 -1063 
z
" transform="scale(0.015625)"/>
      <path id="DejaVuSans-77" d="M 269 3500 
L 844 3500 
L 1563 769 
L 2278 3500 
L 2956 3500 
L 3675 769 
L 4391 3500 
L 4966 3500 
L 4050 0 
L 3372 0 
L 2619 2869 
L 1863 0 
L 1184 0 
L 269 3500 
z
" transform="scale(0.015625)"/>
      <path id="DejaVuSans-6f" d="M 1959 3097 
Q 1497 3097 1228 2736 
Q 959 2375 959 1747 
Q 959 1119 1226 758 
Q 1494 397 1959 397 
Q 2419 397 2687 759 
Q 2956 1122 2956 1747 
Q 2956 2369 2687 2733 
Q 2419 3097 1959 3097 
z
M 1959 3584 
Q 2709 3584 3137 3096 
Q 3566 2609 3566 1747 
Q 3566 888 3137 398 
Q 2709 -91 1959 -91 
Q 1206 -91 779 398 
Q 353 888 353 1747 
Q 353 2609 779 3096 
Q 1206 3584 1959 3584 
z
" transform="scale(0.015625)"/>
      <path id="DejaVuSans-73" d="M 2834 3397 
L 2834 2853 
Q 2591 2978 2328 3040 
Q 2066 3103 1784 3103 
Q 1356 3103 1142 2972 
Q 928 2841 928 2578 
Q 928 2378 1081 2264 
Q 1234 2150 1697 2047 
L 1894 2003 
Q 2506 1872 2764 1633 
Q 3022 1394 3022 966 
Q 3022 478 2636 193 
Q 2250 -91 1575 -91 
Q 1294 -91 989 -36 
Q 684 19 347 128 
L 347 722 
Q 666 556 975 473 
Q 1284 391 1588 391 
Q 1994 391 2212 530 
Q 2431 669 2431 922 
Q 2431 1156 2273 1281 
Q 2116 1406 1581 1522 
L 1381 1569 
Q 847 1681 609 1914 
Q 372 2147 372 2553 
Q 372 3047 722 3315 
Q 1072 3584 1716 3584 
Q 2034 3584 2315 3537 
Q 2597 3491 2834 3397 
z
" transform="scale(0.015625)"/>
      <path id="DejaVuSans-74" d="M 1172 4494 
L 1172 3500 
L 2356 3500 
L 2356 3053 
L 1172 3053 
L 1172 1153 
Q 1172 725 1289 603 
Q 1406 481 1766 481 
L 2356 481 
L 2356 0 
L 1766 0 
Q 1100 0 847 248 
Q 594 497 594 1153 
L 594 3053 
L 172 3053 
L 172 3500 
L 594 3500 
L 594 4494 
L 1172 4494 
z
" transform="scale(0.015625)"/>
      <path id="DejaVuSans-72" d="M 2631 2963 
Q 2534 3019 2420 3045 
Q 2306 3072 2169 3072 
Q 1681 3072 1420 2755 
Q 1159 2438 1159 1844 
L 1159 0 
L 581 0 
L 581 3500 
L 1159 3500 
L 1159 2956 
Q 1341 3275 1631 3429 
Q 1922 3584 2338 3584 
Q 2397 3584 2469 3576 
Q 2541 3569 2628 3553 
L 2631 2963 
z
" transform="scale(0.015625)"/>
      <path id="DejaVuSans-70" d="M 1159 525 
L 1159 -1331 
L 581 -1331 
L 581 3500 
L 1159 3500 
L 1159 2969 
Q 1341 3281 1617 3432 
Q 1894 3584 2278 3584 
Q 2916 3584 3314 3078 
Q 3713 2572 3713 1747 
Q 3713 922 3314 415 
Q 2916 -91 2278 -91 
Q 1894 -91 1617 61 
Q 1341 213 1159 525 
z
M 3116 1747 
Q 3116 2381 2855 2742 
Q 2594 3103 2138 3103 
Q 1681 3103 1420 2742 
Q 1159 2381 1159 1747 
Q 1159 1113 1420 752 
Q 1681 391 2138 391 
Q 2594 391 2855 752 
Q 3116 1113 3116 1747 
z
" transform="scale(0.015625)"/>
      <path id="DejaVuSans-62" d="M 3116 1747 
Q 3116 2381 2855 2742 
Q 2594 3103 2138 3103 
Q 1681 3103 1420 2742 
Q 1159 2381 1159 1747 
Q 1159 1113 1420 752 
Q 1681 391 2138 391 
Q 2594 391 2855 752 
Q 3116 1113 3116 1747 
z
M 1159 2969 
Q 1341 3281 1617 3432 
Q 1894 3584 2278 3584 
Q 2916 3584 3314 3078 
Q 3713 2572 3713 1747 
Q 3713 922 3314 415 
Q 2916 -91 2278 -91 
Q 1894 -91 1617 61 
Q 1341 213 1159 525 
L 1159 0 
L 581 0 
L 581 4863 
L 1159 4863 
L 1159 2969 
z
" transform="scale(0.015625)"/>
      <path id="DejaVuSans-61" d="M 2194 1759 
Q 1497 1759 1228 1600 
Q 959 1441 959 1056 
Q 959 750 1161 570 
Q 1363 391 1709 391 
Q 2188 391 2477 730 
Q 2766 1069 2766 1631 
L 2766 1759 
L 2194 1759 
z
M 3341 1997 
L 3341 0 
L 2766 0 
L 2766 531 
Q 2569 213 2275 61 
Q 1981 -91 1556 -91 
Q 1019 -91 701 211 
Q 384 513 384 1019 
Q 384 1609 779 1909 
Q 1175 2209 1959 2209 
L 2766 2209 
L 2766 2266 
Q 2766 2663 2505 2880 
Q 2244 3097 1772 3097 
Q 1472 3097 1187 3025 
Q 903 2953 641 2809 
L 641 3341 
Q 956 3463 1253 3523 
Q 1550 3584 1831 3584 
Q 2591 3584 2966 3190 
Q 3341 2797 3341 1997 
z
" transform="scale(0.015625)"/>
      <path id="DejaVuSans-63" d="M 3122 3366 
L 3122 2828 
Q 2878 2963 2633 3030 
Q 2388 3097 2138 3097 
Q 1578 3097 1268 2742 
Q 959 2388 959 1747 
Q 959 1106 1268 751 
Q 1578 397 2138 397 
Q 2388 397 2633 464 
Q 2878 531 3122 666 
L 3122 134 
Q 2881 22 2623 -34 
Q 2366 -91 2075 -91 
Q 1284 -91 818 406 
Q 353 903 353 1747 
Q 353 2603 823 3093 
Q 1294 3584 2113 3584 
Q 2378 3584 2631 3529 
Q 2884 3475 3122 3366 
z
" transform="scale(0.015625)"/>
      <path id="DejaVuSans-67" d="M 2906 1791 
Q 2906 2416 2648 2759 
Q 2391 3103 1925 3103 
Q 1463 3103 1205 2759 
Q 947 2416 947 1791 
Q 947 1169 1205 825 
Q 1463 481 1925 481 
Q 2391 481 2648 825 
Q 2906 1169 2906 1791 
z
M 3481 434 
Q 3481 -459 3084 -895 
Q 2688 -1331 1869 -1331 
Q 1566 -1331 1297 -1286 
Q 1028 -1241 775 -1147 
L 775 -588 
Q 1028 -725 1275 -790 
Q 1522 -856 1778 -856 
Q 2344 -856 2625 -561 
Q 2906 -266 2906 331 
L 2906 616 
Q 2728 306 2450 153 
Q 2172 0 1784 0 
Q 1141 0 747 490 
Q 353 981 353 1791 
Q 353 2603 747 3093 
Q 1141 3584 1784 3584 
Q 2172 3584 2450 3431 
Q 2728 3278 2906 2969 
L 2906 3500 
L 3481 3500 
L 3481 434 
z
" transform="scale(0.015625)"/>
     </defs>
     <use xlink:href="#DejaVuSans-66"/>
     <use xlink:href="#DejaVuSans-69" x="35.205078"/>
     <use xlink:href="#DejaVuSans-78" x="62.988281"/>
     <use xlink:href="#DejaVuSans-65" x="119.042969"/>
     <use xlink:href="#DejaVuSans-64" x="180.566406"/>
     <use xlink:href="#DejaVuSans-5f" x="244.042969"/>
     <use xlink:href="#DejaVuSans-77" x="294.042969"/>
     <use xlink:href="#DejaVuSans-6f" x="375.830078"/>
     <use xlink:href="#DejaVuSans-6f" x="437.011719"/>
     <use xlink:href="#DejaVuSans-73" x="498.193359"/>
     <use xlink:href="#DejaVuSans-74" x="550.292969"/>
     <use xlink:href="#DejaVuSans-65" x="589.501953"/>
     <use xlink:href="#DejaVuSans-72" x="651.025391"/>
     <use xlink:href="#DejaVuSans-70" x="692.138672"/>
     <use xlink:href="#DejaVuSans-72" x="755.615234"/>
     <use xlink:href="#DejaVuSans-6f" x="794.478516"/>
     <use xlink:href="#DejaVuSans-62" x="855.660156"/>
     <use xlink:href="#DejaVuSans-65" x="919.136719"/>
     <use xlink:href="#DejaVuSans-5f" x="980.660156"/>
     <use xlink:href="#DejaVuSans-32" x="1030.660156"/>
     <use xlink:href="#DejaVuSans-61" x="1094.283203"/>
     <use xlink:href="#DejaVuSans-66" x="1155.5625"/>
     <use xlink:href="#DejaVuSans-63" x="1190.767578"/>
     <use xlink:href="#DejaVuSans-5f" x="1245.748047"/>
     <use xlink:href="#DejaVuSans-6f" x="1295.748047"/>
     <use xlink:href="#DejaVuSans-67" x="1356.929688"/>
    </g>
   </g>
   <g id="legend_1">
    <g id="patch_7">
     <path d="M 164.72125 271.48 
L 361.64 271.48 
Q 363.64 271.48 363.64 269.48 
L 363.64 135.87375 
Q 363.64 133.87375 361.64 133.87375 
L 164.72125 133.87375 
Q 162.72125 133.87375 162.72125 135.87375 
L 162.72125 269.48 
Q 162.72125 271.48 164.72125 271.48 
z
" style="fill: #ffffff; opacity: 0.8; stroke: #cccccc; stroke-linejoin: miter"/>
    </g>
    <g id="line2d_25">
     <path d="M 166.72125 141.972187 
L 176.72125 141.972187 
L 186.72125 141.972187 
" style="fill: none; stroke: #1f77b4; stroke-width: 1.5; stroke-linecap: square"/>
    </g>
    <g id="text_17">
     <!-- low_gauss_shape_to_color -->
     <g transform="translate(194.72125 145.472187) scale(0.1 -0.1)">
      <defs>
       <path id="DejaVuSans-6c" d="M 603 4863 
L 1178 4863 
L 1178 0 
L 603 0 
L 603 4863 
z
" transform="scale(0.015625)"/>
       <path id="DejaVuSans-75" d="M 544 1381 
L 544 3500 
L 1119 3500 
L 1119 1403 
Q 1119 906 1312 657 
Q 1506 409 1894 409 
Q 2359 409 2629 706 
Q 2900 1003 2900 1516 
L 2900 3500 
L 3475 3500 
L 3475 0 
L 2900 0 
L 2900 538 
Q 2691 219 2414 64 
Q 2138 -91 1772 -91 
Q 1169 -91 856 284 
Q 544 659 544 1381 
z
M 1991 3584 
L 1991 3584 
z
" transform="scale(0.015625)"/>
       <path id="DejaVuSans-68" d="M 3513 2113 
L 3513 0 
L 2938 0 
L 2938 2094 
Q 2938 2591 2744 2837 
Q 2550 3084 2163 3084 
Q 1697 3084 1428 2787 
Q 1159 2491 1159 1978 
L 1159 0 
L 581 0 
L 581 4863 
L 1159 4863 
L 1159 2956 
Q 1366 3272 1645 3428 
Q 1925 3584 2291 3584 
Q 2894 3584 3203 3211 
Q 3513 2838 3513 2113 
z
" transform="scale(0.015625)"/>
      </defs>
      <use xlink:href="#DejaVuSans-6c"/>
      <use xlink:href="#DejaVuSans-6f" x="27.783203"/>
      <use xlink:href="#DejaVuSans-77" x="88.964844"/>
      <use xlink:href="#DejaVuSans-5f" x="170.751953"/>
      <use xlink:href="#DejaVuSans-67" x="220.751953"/>
      <use xlink:href="#DejaVuSans-61" x="284.228516"/>
      <use xlink:href="#DejaVuSans-75" x="345.507812"/>
      <use xlink:href="#DejaVuSans-73" x="408.886719"/>
      <use xlink:href="#DejaVuSans-73" x="460.986328"/>
      <use xlink:href="#DejaVuSans-5f" x="513.085938"/>
      <use xlink:href="#DejaVuSans-73" x="563.085938"/>
      <use xlink:href="#DejaVuSans-68" x="615.185547"/>
      <use xlink:href="#DejaVuSans-61" x="678.564453"/>
      <use xlink:href="#DejaVuSans-70" x="739.84375"/>
      <use xlink:href="#DejaVuSans-65" x="803.320312"/>
      <use xlink:href="#DejaVuSans-5f" x="864.84375"/>
      <use xlink:href="#DejaVuSans-74" x="914.84375"/>
      <use xlink:href="#DejaVuSans-6f" x="954.052734"/>
      <use xlink:href="#DejaVuSans-5f" x="1015.234375"/>
      <use xlink:href="#DejaVuSans-63" x="1065.234375"/>
      <use xlink:href="#DejaVuSans-6f" x="1120.214844"/>
      <use xlink:href="#DejaVuSans-6c" x="1181.396484"/>
      <use xlink:href="#DejaVuSans-6f" x="1209.179688"/>
      <use xlink:href="#DejaVuSans-72" x="1270.361328"/>
     </g>
    </g>
    <g id="line2d_26">
     <path d="M 166.72125 156.928437 
L 176.72125 156.928437 
L 186.72125 156.928437 
" style="fill: none; stroke: #ff7f0e; stroke-width: 1.5; stroke-linecap: square"/>
    </g>
    <g id="text_18">
     <!-- focal_low_gauss_shape_to_color -->
     <g transform="translate(194.72125 160.428437) scale(0.1 -0.1)">
      <use xlink:href="#DejaVuSans-66"/>
      <use xlink:href="#DejaVuSans-6f" x="35.205078"/>
      <use xlink:href="#DejaVuSans-63" x="96.386719"/>
      <use xlink:href="#DejaVuSans-61" x="151.367188"/>
      <use xlink:href="#DejaVuSans-6c" x="212.646484"/>
      <use xlink:href="#DejaVuSans-5f" x="240.429688"/>
      <use xlink:href="#DejaVuSans-6c" x="290.429688"/>
      <use xlink:href="#DejaVuSans-6f" x="318.212891"/>
      <use xlink:href="#DejaVuSans-77" x="379.394531"/>
      <use xlink:href="#DejaVuSans-5f" x="461.181641"/>
      <use xlink:href="#DejaVuSans-67" x="511.181641"/>
      <use xlink:href="#DejaVuSans-61" x="574.658203"/>
      <use xlink:href="#DejaVuSans-75" x="635.9375"/>
      <use xlink:href="#DejaVuSans-73" x="699.316406"/>
      <use xlink:href="#DejaVuSans-73" x="751.416016"/>
      <use xlink:href="#DejaVuSans-5f" x="803.515625"/>
      <use xlink:href="#DejaVuSans-73" x="853.515625"/>
      <use xlink:href="#DejaVuSans-68" x="905.615234"/>
      <use xlink:href="#DejaVuSans-61" x="968.994141"/>
      <use xlink:href="#DejaVuSans-70" x="1030.273438"/>
      <use xlink:href="#DejaVuSans-65" x="1093.75"/>
      <use xlink:href="#DejaVuSans-5f" x="1155.273438"/>
      <use xlink:href="#DejaVuSans-74" x="1205.273438"/>
      <use xlink:href="#DejaVuSans-6f" x="1244.482422"/>
      <use xlink:href="#DejaVuSans-5f" x="1305.664062"/>
      <use xlink:href="#DejaVuSans-63" x="1355.664062"/>
      <use xlink:href="#DejaVuSans-6f" x="1410.644531"/>
      <use xlink:href="#DejaVuSans-6c" x="1471.826172"/>
      <use xlink:href="#DejaVuSans-6f" x="1499.609375"/>
      <use xlink:href="#DejaVuSans-72" x="1560.791016"/>
     </g>
    </g>
    <g id="line2d_27">
     <path d="M 166.72125 171.884687 
L 176.72125 171.884687 
L 186.72125 171.884687 
" style="fill: none; stroke: #2ca02c; stroke-width: 1.5; stroke-linecap: square"/>
    </g>
    <g id="text_19">
     <!-- high_gauss_shape_to_color -->
     <g transform="translate(194.72125 175.384687) scale(0.1 -0.1)">
      <use xlink:href="#DejaVuSans-68"/>
      <use xlink:href="#DejaVuSans-69" x="63.378906"/>
      <use xlink:href="#DejaVuSans-67" x="91.162109"/>
      <use xlink:href="#DejaVuSans-68" x="154.638672"/>
      <use xlink:href="#DejaVuSans-5f" x="218.017578"/>
      <use xlink:href="#DejaVuSans-67" x="268.017578"/>
      <use xlink:href="#DejaVuSans-61" x="331.494141"/>
      <use xlink:href="#DejaVuSans-75" x="392.773438"/>
      <use xlink:href="#DejaVuSans-73" x="456.152344"/>
      <use xlink:href="#DejaVuSans-73" x="508.251953"/>
      <use xlink:href="#DejaVuSans-5f" x="560.351562"/>
      <use xlink:href="#DejaVuSans-73" x="610.351562"/>
      <use xlink:href="#DejaVuSans-68" x="662.451172"/>
      <use xlink:href="#DejaVuSans-61" x="725.830078"/>
      <use xlink:href="#DejaVuSans-70" x="787.109375"/>
      <use xlink:href="#DejaVuSans-65" x="850.585938"/>
      <use xlink:href="#DejaVuSans-5f" x="912.109375"/>
      <use xlink:href="#DejaVuSans-74" x="962.109375"/>
      <use xlink:href="#DejaVuSans-6f" x="1001.318359"/>
      <use xlink:href="#DejaVuSans-5f" x="1062.5"/>
      <use xlink:href="#DejaVuSans-63" x="1112.5"/>
      <use xlink:href="#DejaVuSans-6f" x="1167.480469"/>
      <use xlink:href="#DejaVuSans-6c" x="1228.662109"/>
      <use xlink:href="#DejaVuSans-6f" x="1256.445312"/>
      <use xlink:href="#DejaVuSans-72" x="1317.626953"/>
     </g>
    </g>
    <g id="line2d_28">
     <path d="M 166.72125 186.840937 
L 176.72125 186.840937 
L 186.72125 186.840937 
" style="fill: none; stroke: #d62728; stroke-width: 1.5; stroke-linecap: square"/>
    </g>
    <g id="text_20">
     <!-- focal_high_gauss_shape_to_color -->
     <g transform="translate(194.72125 190.340937) scale(0.1 -0.1)">
      <use xlink:href="#DejaVuSans-66"/>
      <use xlink:href="#DejaVuSans-6f" x="35.205078"/>
      <use xlink:href="#DejaVuSans-63" x="96.386719"/>
      <use xlink:href="#DejaVuSans-61" x="151.367188"/>
      <use xlink:href="#DejaVuSans-6c" x="212.646484"/>
      <use xlink:href="#DejaVuSans-5f" x="240.429688"/>
      <use xlink:href="#DejaVuSans-68" x="290.429688"/>
      <use xlink:href="#DejaVuSans-69" x="353.808594"/>
      <use xlink:href="#DejaVuSans-67" x="381.591797"/>
      <use xlink:href="#DejaVuSans-68" x="445.068359"/>
      <use xlink:href="#DejaVuSans-5f" x="508.447266"/>
      <use xlink:href="#DejaVuSans-67" x="558.447266"/>
      <use xlink:href="#DejaVuSans-61" x="621.923828"/>
      <use xlink:href="#DejaVuSans-75" x="683.203125"/>
      <use xlink:href="#DejaVuSans-73" x="746.582031"/>
      <use xlink:href="#DejaVuSans-73" x="798.681641"/>
      <use xlink:href="#DejaVuSans-5f" x="850.78125"/>
      <use xlink:href="#DejaVuSans-73" x="900.78125"/>
      <use xlink:href="#DejaVuSans-68" x="952.880859"/>
      <use xlink:href="#DejaVuSans-61" x="1016.259766"/>
      <use xlink:href="#DejaVuSans-70" x="1077.539062"/>
      <use xlink:href="#DejaVuSans-65" x="1141.015625"/>
      <use xlink:href="#DejaVuSans-5f" x="1202.539062"/>
      <use xlink:href="#DejaVuSans-74" x="1252.539062"/>
      <use xlink:href="#DejaVuSans-6f" x="1291.748047"/>
      <use xlink:href="#DejaVuSans-5f" x="1352.929688"/>
      <use xlink:href="#DejaVuSans-63" x="1402.929688"/>
      <use xlink:href="#DejaVuSans-6f" x="1457.910156"/>
      <use xlink:href="#DejaVuSans-6c" x="1519.091797"/>
      <use xlink:href="#DejaVuSans-6f" x="1546.875"/>
      <use xlink:href="#DejaVuSans-72" x="1608.056641"/>
     </g>
    </g>
    <g id="line2d_29">
     <path d="M 166.72125 201.797188 
L 176.72125 201.797188 
L 186.72125 201.797188 
" style="fill: none; stroke: #9467bd; stroke-width: 1.5; stroke-linecap: square"/>
    </g>
    <g id="text_21">
     <!-- low_gauss_color_to_shape -->
     <g transform="translate(194.72125 205.297188) scale(0.1 -0.1)">
      <use xlink:href="#DejaVuSans-6c"/>
      <use xlink:href="#DejaVuSans-6f" x="27.783203"/>
      <use xlink:href="#DejaVuSans-77" x="88.964844"/>
      <use xlink:href="#DejaVuSans-5f" x="170.751953"/>
      <use xlink:href="#DejaVuSans-67" x="220.751953"/>
      <use xlink:href="#DejaVuSans-61" x="284.228516"/>
      <use xlink:href="#DejaVuSans-75" x="345.507812"/>
      <use xlink:href="#DejaVuSans-73" x="408.886719"/>
      <use xlink:href="#DejaVuSans-73" x="460.986328"/>
      <use xlink:href="#DejaVuSans-5f" x="513.085938"/>
      <use xlink:href="#DejaVuSans-63" x="563.085938"/>
      <use xlink:href="#DejaVuSans-6f" x="618.066406"/>
      <use xlink:href="#DejaVuSans-6c" x="679.248047"/>
      <use xlink:href="#DejaVuSans-6f" x="707.03125"/>
      <use xlink:href="#DejaVuSans-72" x="768.212891"/>
      <use xlink:href="#DejaVuSans-5f" x="809.326172"/>
      <use xlink:href="#DejaVuSans-74" x="859.326172"/>
      <use xlink:href="#DejaVuSans-6f" x="898.535156"/>
      <use xlink:href="#DejaVuSans-5f" x="959.716797"/>
      <use xlink:href="#DejaVuSans-73" x="1009.716797"/>
      <use xlink:href="#DejaVuSans-68" x="1061.816406"/>
      <use xlink:href="#DejaVuSans-61" x="1125.195312"/>
      <use xlink:href="#DejaVuSans-70" x="1186.474609"/>
      <use xlink:href="#DejaVuSans-65" x="1249.951172"/>
     </g>
    </g>
    <g id="line2d_30">
     <path d="M 166.72125 216.753437 
L 176.72125 216.753437 
L 186.72125 216.753437 
" style="fill: none; stroke: #8c564b; stroke-width: 1.5; stroke-linecap: square"/>
    </g>
    <g id="text_22">
     <!-- focal_low_gauss_color_to_shape -->
     <g transform="translate(194.72125 220.253437) scale(0.1 -0.1)">
      <use xlink:href="#DejaVuSans-66"/>
      <use xlink:href="#DejaVuSans-6f" x="35.205078"/>
      <use xlink:href="#DejaVuSans-63" x="96.386719"/>
      <use xlink:href="#DejaVuSans-61" x="151.367188"/>
      <use xlink:href="#DejaVuSans-6c" x="212.646484"/>
      <use xlink:href="#DejaVuSans-5f" x="240.429688"/>
      <use xlink:href="#DejaVuSans-6c" x="290.429688"/>
      <use xlink:href="#DejaVuSans-6f" x="318.212891"/>
      <use xlink:href="#DejaVuSans-77" x="379.394531"/>
      <use xlink:href="#DejaVuSans-5f" x="461.181641"/>
      <use xlink:href="#DejaVuSans-67" x="511.181641"/>
      <use xlink:href="#DejaVuSans-61" x="574.658203"/>
      <use xlink:href="#DejaVuSans-75" x="635.9375"/>
      <use xlink:href="#DejaVuSans-73" x="699.316406"/>
      <use xlink:href="#DejaVuSans-73" x="751.416016"/>
      <use xlink:href="#DejaVuSans-5f" x="803.515625"/>
      <use xlink:href="#DejaVuSans-63" x="853.515625"/>
      <use xlink:href="#DejaVuSans-6f" x="908.496094"/>
      <use xlink:href="#DejaVuSans-6c" x="969.677734"/>
      <use xlink:href="#DejaVuSans-6f" x="997.460938"/>
      <use xlink:href="#DejaVuSans-72" x="1058.642578"/>
      <use xlink:href="#DejaVuSans-5f" x="1099.755859"/>
      <use xlink:href="#DejaVuSans-74" x="1149.755859"/>
      <use xlink:href="#DejaVuSans-6f" x="1188.964844"/>
      <use xlink:href="#DejaVuSans-5f" x="1250.146484"/>
      <use xlink:href="#DejaVuSans-73" x="1300.146484"/>
      <use xlink:href="#DejaVuSans-68" x="1352.246094"/>
      <use xlink:href="#DejaVuSans-61" x="1415.625"/>
      <use xlink:href="#DejaVuSans-70" x="1476.904297"/>
      <use xlink:href="#DejaVuSans-65" x="1540.380859"/>
     </g>
    </g>
    <g id="line2d_31">
     <path d="M 166.72125 231.709687 
L 176.72125 231.709687 
L 186.72125 231.709687 
" style="fill: none; stroke: #e377c2; stroke-width: 1.5; stroke-linecap: square"/>
    </g>
    <g id="text_23">
     <!-- high_gauss_color_to_shape -->
     <g transform="translate(194.72125 235.209687) scale(0.1 -0.1)">
      <use xlink:href="#DejaVuSans-68"/>
      <use xlink:href="#DejaVuSans-69" x="63.378906"/>
      <use xlink:href="#DejaVuSans-67" x="91.162109"/>
      <use xlink:href="#DejaVuSans-68" x="154.638672"/>
      <use xlink:href="#DejaVuSans-5f" x="218.017578"/>
      <use xlink:href="#DejaVuSans-67" x="268.017578"/>
      <use xlink:href="#DejaVuSans-61" x="331.494141"/>
      <use xlink:href="#DejaVuSans-75" x="392.773438"/>
      <use xlink:href="#DejaVuSans-73" x="456.152344"/>
      <use xlink:href="#DejaVuSans-73" x="508.251953"/>
      <use xlink:href="#DejaVuSans-5f" x="560.351562"/>
      <use xlink:href="#DejaVuSans-63" x="610.351562"/>
      <use xlink:href="#DejaVuSans-6f" x="665.332031"/>
      <use xlink:href="#DejaVuSans-6c" x="726.513672"/>
      <use xlink:href="#DejaVuSans-6f" x="754.296875"/>
      <use xlink:href="#DejaVuSans-72" x="815.478516"/>
      <use xlink:href="#DejaVuSans-5f" x="856.591797"/>
      <use xlink:href="#DejaVuSans-74" x="906.591797"/>
      <use xlink:href="#DejaVuSans-6f" x="945.800781"/>
      <use xlink:href="#DejaVuSans-5f" x="1006.982422"/>
      <use xlink:href="#DejaVuSans-73" x="1056.982422"/>
      <use xlink:href="#DejaVuSans-68" x="1109.082031"/>
      <use xlink:href="#DejaVuSans-61" x="1172.460938"/>
      <use xlink:href="#DejaVuSans-70" x="1233.740234"/>
      <use xlink:href="#DejaVuSans-65" x="1297.216797"/>
     </g>
    </g>
    <g id="line2d_32">
     <path d="M 166.72125 246.665937 
L 176.72125 246.665937 
L 186.72125 246.665937 
" style="fill: none; stroke: #7f7f7f; stroke-width: 1.5; stroke-linecap: square"/>
    </g>
    <g id="text_24">
     <!-- focal_high_gauss_color_to_shape -->
     <g transform="translate(194.72125 250.165937) scale(0.1 -0.1)">
      <use xlink:href="#DejaVuSans-66"/>
      <use xlink:href="#DejaVuSans-6f" x="35.205078"/>
      <use xlink:href="#DejaVuSans-63" x="96.386719"/>
      <use xlink:href="#DejaVuSans-61" x="151.367188"/>
      <use xlink:href="#DejaVuSans-6c" x="212.646484"/>
      <use xlink:href="#DejaVuSans-5f" x="240.429688"/>
      <use xlink:href="#DejaVuSans-68" x="290.429688"/>
      <use xlink:href="#DejaVuSans-69" x="353.808594"/>
      <use xlink:href="#DejaVuSans-67" x="381.591797"/>
      <use xlink:href="#DejaVuSans-68" x="445.068359"/>
      <use xlink:href="#DejaVuSans-5f" x="508.447266"/>
      <use xlink:href="#DejaVuSans-67" x="558.447266"/>
      <use xlink:href="#DejaVuSans-61" x="621.923828"/>
      <use xlink:href="#DejaVuSans-75" x="683.203125"/>
      <use xlink:href="#DejaVuSans-73" x="746.582031"/>
      <use xlink:href="#DejaVuSans-73" x="798.681641"/>
      <use xlink:href="#DejaVuSans-5f" x="850.78125"/>
      <use xlink:href="#DejaVuSans-63" x="900.78125"/>
      <use xlink:href="#DejaVuSans-6f" x="955.761719"/>
      <use xlink:href="#DejaVuSans-6c" x="1016.943359"/>
      <use xlink:href="#DejaVuSans-6f" x="1044.726562"/>
      <use xlink:href="#DejaVuSans-72" x="1105.908203"/>
      <use xlink:href="#DejaVuSans-5f" x="1147.021484"/>
      <use xlink:href="#DejaVuSans-74" x="1197.021484"/>
      <use xlink:href="#DejaVuSans-6f" x="1236.230469"/>
      <use xlink:href="#DejaVuSans-5f" x="1297.412109"/>
      <use xlink:href="#DejaVuSans-73" x="1347.412109"/>
      <use xlink:href="#DejaVuSans-68" x="1399.511719"/>
      <use xlink:href="#DejaVuSans-61" x="1462.890625"/>
      <use xlink:href="#DejaVuSans-70" x="1524.169922"/>
      <use xlink:href="#DejaVuSans-65" x="1587.646484"/>
     </g>
    </g>
    <g id="line2d_33">
     <path d="M 166.72125 261.622187 
L 176.72125 261.622187 
L 186.72125 261.622187 
" style="fill: none; stroke: #bcbd22; stroke-width: 1.5; stroke-linecap: square"/>
    </g>
    <g id="text_25">
     <!-- achromatic_shape_to_shape -->
     <g transform="translate(194.72125 265.122187) scale(0.1 -0.1)">
      <defs>
       <path id="DejaVuSans-6d" d="M 3328 2828 
Q 3544 3216 3844 3400 
Q 4144 3584 4550 3584 
Q 5097 3584 5394 3201 
Q 5691 2819 5691 2113 
L 5691 0 
L 5113 0 
L 5113 2094 
Q 5113 2597 4934 2840 
Q 4756 3084 4391 3084 
Q 3944 3084 3684 2787 
Q 3425 2491 3425 1978 
L 3425 0 
L 2847 0 
L 2847 2094 
Q 2847 2600 2669 2842 
Q 2491 3084 2119 3084 
Q 1678 3084 1418 2786 
Q 1159 2488 1159 1978 
L 1159 0 
L 581 0 
L 581 3500 
L 1159 3500 
L 1159 2956 
Q 1356 3278 1631 3431 
Q 1906 3584 2284 3584 
Q 2666 3584 2933 3390 
Q 3200 3197 3328 2828 
z
" transform="scale(0.015625)"/>
      </defs>
      <use xlink:href="#DejaVuSans-61"/>
      <use xlink:href="#DejaVuSans-63" x="61.279297"/>
      <use xlink:href="#DejaVuSans-68" x="116.259766"/>
      <use xlink:href="#DejaVuSans-72" x="179.638672"/>
      <use xlink:href="#DejaVuSans-6f" x="218.501953"/>
      <use xlink:href="#DejaVuSans-6d" x="279.683594"/>
      <use xlink:href="#DejaVuSans-61" x="377.095703"/>
      <use xlink:href="#DejaVuSans-74" x="438.375"/>
      <use xlink:href="#DejaVuSans-69" x="477.583984"/>
      <use xlink:href="#DejaVuSans-63" x="505.367188"/>
      <use xlink:href="#DejaVuSans-5f" x="560.347656"/>
      <use xlink:href="#DejaVuSans-73" x="610.347656"/>
      <use xlink:href="#DejaVuSans-68" x="662.447266"/>
      <use xlink:href="#DejaVuSans-61" x="725.826172"/>
      <use xlink:href="#DejaVuSans-70" x="787.105469"/>
      <use xlink:href="#DejaVuSans-65" x="850.582031"/>
      <use xlink:href="#DejaVuSans-5f" x="912.105469"/>
      <use xlink:href="#DejaVuSans-74" x="962.105469"/>
      <use xlink:href="#DejaVuSans-6f" x="1001.314453"/>
      <use xlink:href="#DejaVuSans-5f" x="1062.496094"/>
      <use xlink:href="#DejaVuSans-73" x="1112.496094"/>
      <use xlink:href="#DejaVuSans-68" x="1164.595703"/>
      <use xlink:href="#DejaVuSans-61" x="1227.974609"/>
      <use xlink:href="#DejaVuSans-70" x="1289.253906"/>
      <use xlink:href="#DejaVuSans-65" x="1352.730469"/>
     </g>
    </g>
   </g>
  </g>
 </g>
 <defs>
  <clipPath id="p4e424bd916">
   <rect x="92.16" y="69.12" width="276.48" height="207.36"/>
  </clipPath>
 </defs>
</svg>
