<?xml version="1.0" encoding="utf-8" standalone="no"?>
<!DOCTYPE svg PUBLIC "-//W3C//DTD SVG 1.1//EN"
  "http://www.w3.org/Graphics/SVG/1.1/DTD/svg11.dtd">
<svg xmlns:xlink="http://www.w3.org/1999/xlink" width="460.8pt" height="345.6pt" viewBox="0 0 460.8 345.6" xmlns="http://www.w3.org/2000/svg" version="1.1">
 <metadata>
  <rdf:RDF xmlns:dc="http://purl.org/dc/elements/1.1/" xmlns:cc="http://creativecommons.org/ns#" xmlns:rdf="http://www.w3.org/1999/02/22-rdf-syntax-ns#">
   <cc:Work>
    <dc:type rdf:resource="http://purl.org/dc/dcmitype/StillImage"/>
    <dc:date>2023-08-08T15:53:45.869449</dc:date>
    <dc:format>image/svg+xml</dc:format>
    <dc:creator>
     <cc:Agent>
      <dc:title>Matplotlib v3.7.1, https://matplotlib.org/</dc:title>
     </cc:Agent>
    </dc:creator>
   </cc:Work>
  </rdf:RDF>
 </metadata>
 <defs>
  <style type="text/css">*{stroke-linejoin: round; stroke-linecap: butt}</style>
 </defs>
 <g id="figure_1">
  <g id="patch_1">
   <path d="M 0 345.6 
L 460.8 345.6 
L 460.8 0 
L 0 0 
z
" style="fill: #ffffff"/>
  </g>
  <g id="axes_1">
   <g id="patch_2">
    <path d="M 92.16 276.48 
L 368.64 276.48 
L 368.64 69.12 
L 92.16 69.12 
z
" style="fill: #ffffff"/>
   </g>
   <g id="matplotlib.axis_1">
    <g id="xtick_1">
     <g id="line2d_1">
      <defs>
       <path id="m2bbd929b25" d="M 0 0 
L 0 3.5 
" style="stroke: #000000; stroke-width: 0.8"/>
      </defs>
      <g>
       <use xlink:href="#m2bbd929b25" x="104.727273" y="276.48" style="stroke: #000000; stroke-width: 0.8"/>
      </g>
     </g>
     <g id="text_1">
      <!-- 0 -->
      <g transform="translate(101.546023 291.078437) scale(0.1 -0.1)">
       <defs>
        <path id="DejaVuSans-30" d="M 2034 4250 
Q 1547 4250 1301 3770 
Q 1056 3291 1056 2328 
Q 1056 1369 1301 889 
Q 1547 409 2034 409 
Q 2525 409 2770 889 
Q 3016 1369 3016 2328 
Q 3016 3291 2770 3770 
Q 2525 4250 2034 4250 
z
M 2034 4750 
Q 2819 4750 3233 4129 
Q 3647 3509 3647 2328 
Q 3647 1150 3233 529 
Q 2819 -91 2034 -91 
Q 1250 -91 836 529 
Q 422 1150 422 2328 
Q 422 3509 836 4129 
Q 1250 4750 2034 4750 
z
" transform="scale(0.015625)"/>
       </defs>
       <use xlink:href="#DejaVuSans-30"/>
      </g>
     </g>
    </g>
    <g id="xtick_2">
     <g id="line2d_2">
      <g>
       <use xlink:href="#m2bbd929b25" x="159.546347" y="276.48" style="stroke: #000000; stroke-width: 0.8"/>
      </g>
     </g>
     <g id="text_2">
      <!-- 200 -->
      <g transform="translate(150.002597 291.078437) scale(0.1 -0.1)">
       <defs>
        <path id="DejaVuSans-32" d="M 1228 531 
L 3431 531 
L 3431 0 
L 469 0 
L 469 531 
Q 828 903 1448 1529 
Q 2069 2156 2228 2338 
Q 2531 2678 2651 2914 
Q 2772 3150 2772 3378 
Q 2772 3750 2511 3984 
Q 2250 4219 1831 4219 
Q 1534 4219 1204 4116 
Q 875 4013 500 3803 
L 500 4441 
Q 881 4594 1212 4672 
Q 1544 4750 1819 4750 
Q 2544 4750 2975 4387 
Q 3406 4025 3406 3419 
Q 3406 3131 3298 2873 
Q 3191 2616 2906 2266 
Q 2828 2175 2409 1742 
Q 1991 1309 1228 531 
z
" transform="scale(0.015625)"/>
       </defs>
       <use xlink:href="#DejaVuSans-32"/>
       <use xlink:href="#DejaVuSans-30" x="63.623047"/>
       <use xlink:href="#DejaVuSans-30" x="127.246094"/>
      </g>
     </g>
    </g>
    <g id="xtick_3">
     <g id="line2d_3">
      <g>
       <use xlink:href="#m2bbd929b25" x="214.365421" y="276.48" style="stroke: #000000; stroke-width: 0.8"/>
      </g>
     </g>
     <g id="text_3">
      <!-- 400 -->
      <g transform="translate(204.821671 291.078437) scale(0.1 -0.1)">
       <defs>
        <path id="DejaVuSans-34" d="M 2419 4116 
L 825 1625 
L 2419 1625 
L 2419 4116 
z
M 2253 4666 
L 3047 4666 
L 3047 1625 
L 3713 1625 
L 3713 1100 
L 3047 1100 
L 3047 0 
L 2419 0 
L 2419 1100 
L 313 1100 
L 313 1709 
L 2253 4666 
z
" transform="scale(0.015625)"/>
       </defs>
       <use xlink:href="#DejaVuSans-34"/>
       <use xlink:href="#DejaVuSans-30" x="63.623047"/>
       <use xlink:href="#DejaVuSans-30" x="127.246094"/>
      </g>
     </g>
    </g>
    <g id="xtick_4">
     <g id="line2d_4">
      <g>
       <use xlink:href="#m2bbd929b25" x="269.184495" y="276.48" style="stroke: #000000; stroke-width: 0.8"/>
      </g>
     </g>
     <g id="text_4">
      <!-- 600 -->
      <g transform="translate(259.640745 291.078437) scale(0.1 -0.1)">
       <defs>
        <path id="DejaVuSans-36" d="M 2113 2584 
Q 1688 2584 1439 2293 
Q 1191 2003 1191 1497 
Q 1191 994 1439 701 
Q 1688 409 2113 409 
Q 2538 409 2786 701 
Q 3034 994 3034 1497 
Q 3034 2003 2786 2293 
Q 2538 2584 2113 2584 
z
M 3366 4563 
L 3366 3988 
Q 3128 4100 2886 4159 
Q 2644 4219 2406 4219 
Q 1781 4219 1451 3797 
Q 1122 3375 1075 2522 
Q 1259 2794 1537 2939 
Q 1816 3084 2150 3084 
Q 2853 3084 3261 2657 
Q 3669 2231 3669 1497 
Q 3669 778 3244 343 
Q 2819 -91 2113 -91 
Q 1303 -91 875 529 
Q 447 1150 447 2328 
Q 447 3434 972 4092 
Q 1497 4750 2381 4750 
Q 2619 4750 2861 4703 
Q 3103 4656 3366 4563 
z
" transform="scale(0.015625)"/>
       </defs>
       <use xlink:href="#DejaVuSans-36"/>
       <use xlink:href="#DejaVuSans-30" x="63.623047"/>
       <use xlink:href="#DejaVuSans-30" x="127.246094"/>
      </g>
     </g>
    </g>
    <g id="xtick_5">
     <g id="line2d_5">
      <g>
       <use xlink:href="#m2bbd929b25" x="324.003569" y="276.48" style="stroke: #000000; stroke-width: 0.8"/>
      </g>
     </g>
     <g id="text_5">
      <!-- 800 -->
      <g transform="translate(314.459819 291.078437) scale(0.1 -0.1)">
       <defs>
        <path id="DejaVuSans-38" d="M 2034 2216 
Q 1584 2216 1326 1975 
Q 1069 1734 1069 1313 
Q 1069 891 1326 650 
Q 1584 409 2034 409 
Q 2484 409 2743 651 
Q 3003 894 3003 1313 
Q 3003 1734 2745 1975 
Q 2488 2216 2034 2216 
z
M 1403 2484 
Q 997 2584 770 2862 
Q 544 3141 544 3541 
Q 544 4100 942 4425 
Q 1341 4750 2034 4750 
Q 2731 4750 3128 4425 
Q 3525 4100 3525 3541 
Q 3525 3141 3298 2862 
Q 3072 2584 2669 2484 
Q 3125 2378 3379 2068 
Q 3634 1759 3634 1313 
Q 3634 634 3220 271 
Q 2806 -91 2034 -91 
Q 1263 -91 848 271 
Q 434 634 434 1313 
Q 434 1759 690 2068 
Q 947 2378 1403 2484 
z
M 1172 3481 
Q 1172 3119 1398 2916 
Q 1625 2713 2034 2713 
Q 2441 2713 2670 2916 
Q 2900 3119 2900 3481 
Q 2900 3844 2670 4047 
Q 2441 4250 2034 4250 
Q 1625 4250 1398 4047 
Q 1172 3844 1172 3481 
z
" transform="scale(0.015625)"/>
       </defs>
       <use xlink:href="#DejaVuSans-38"/>
       <use xlink:href="#DejaVuSans-30" x="63.623047"/>
       <use xlink:href="#DejaVuSans-30" x="127.246094"/>
      </g>
     </g>
    </g>
   </g>
   <g id="matplotlib.axis_2">
    <g id="ytick_1">
     <g id="line2d_6">
      <defs>
       <path id="m0d66c872e2" d="M 0 0 
L -3.5 0 
" style="stroke: #000000; stroke-width: 0.8"/>
      </defs>
      <g>
       <use xlink:href="#m0d66c872e2" x="92.16" y="250.896623" style="stroke: #000000; stroke-width: 0.8"/>
      </g>
     </g>
     <g id="text_6">
      <!-- 0.2 -->
      <g transform="translate(69.256875 254.695842) scale(0.1 -0.1)">
       <defs>
        <path id="DejaVuSans-2e" d="M 684 794 
L 1344 794 
L 1344 0 
L 684 0 
L 684 794 
z
" transform="scale(0.015625)"/>
       </defs>
       <use xlink:href="#DejaVuSans-30"/>
       <use xlink:href="#DejaVuSans-2e" x="63.623047"/>
       <use xlink:href="#DejaVuSans-32" x="95.410156"/>
      </g>
     </g>
    </g>
    <g id="ytick_2">
     <g id="line2d_7">
      <g>
       <use xlink:href="#m0d66c872e2" x="92.16" y="207.808831" style="stroke: #000000; stroke-width: 0.8"/>
      </g>
     </g>
     <g id="text_7">
      <!-- 0.4 -->
      <g transform="translate(69.256875 211.60805) scale(0.1 -0.1)">
       <use xlink:href="#DejaVuSans-30"/>
       <use xlink:href="#DejaVuSans-2e" x="63.623047"/>
       <use xlink:href="#DejaVuSans-34" x="95.410156"/>
      </g>
     </g>
    </g>
    <g id="ytick_3">
     <g id="line2d_8">
      <g>
       <use xlink:href="#m0d66c872e2" x="92.16" y="164.721039" style="stroke: #000000; stroke-width: 0.8"/>
      </g>
     </g>
     <g id="text_8">
      <!-- 0.6 -->
      <g transform="translate(69.256875 168.520258) scale(0.1 -0.1)">
       <use xlink:href="#DejaVuSans-30"/>
       <use xlink:href="#DejaVuSans-2e" x="63.623047"/>
       <use xlink:href="#DejaVuSans-36" x="95.410156"/>
      </g>
     </g>
    </g>
    <g id="ytick_4">
     <g id="line2d_9">
      <g>
       <use xlink:href="#m0d66c872e2" x="92.16" y="121.633247" style="stroke: #000000; stroke-width: 0.8"/>
      </g>
     </g>
     <g id="text_9">
      <!-- 0.8 -->
      <g transform="translate(69.256875 125.432466) scale(0.1 -0.1)">
       <use xlink:href="#DejaVuSans-30"/>
       <use xlink:href="#DejaVuSans-2e" x="63.623047"/>
       <use xlink:href="#DejaVuSans-38" x="95.410156"/>
      </g>
     </g>
    </g>
    <g id="ytick_5">
     <g id="line2d_10">
      <g>
       <use xlink:href="#m0d66c872e2" x="92.16" y="78.545455" style="stroke: #000000; stroke-width: 0.8"/>
      </g>
     </g>
     <g id="text_10">
      <!-- 1.0 -->
      <g transform="translate(69.256875 82.344673) scale(0.1 -0.1)">
       <defs>
        <path id="DejaVuSans-31" d="M 794 531 
L 1825 531 
L 1825 4091 
L 703 3866 
L 703 4441 
L 1819 4666 
L 2450 4666 
L 2450 531 
L 3481 531 
L 3481 0 
L 794 0 
L 794 531 
z
" transform="scale(0.015625)"/>
       </defs>
       <use xlink:href="#DejaVuSans-31"/>
       <use xlink:href="#DejaVuSans-2e" x="63.623047"/>
       <use xlink:href="#DejaVuSans-30" x="95.410156"/>
      </g>
     </g>
    </g>
   </g>
   <g id="line2d_11">
    <path d="M 104.727273 106.552519 
L 107.194131 106.552519 
L 107.468226 105.475325 
L 110.483276 105.475325 
L 110.757371 104.39813 
L 112.401943 104.39813 
L 112.676038 105.475325 
L 115.142897 105.475325 
L 115.416992 106.552519 
L 115.691088 106.552519 
L 115.965183 105.475325 
L 116.239278 105.475325 
L 116.513374 106.552519 
L 117.33566 106.552519 
L 117.609755 105.475325 
L 118.157946 105.475325 
L 118.706137 103.320935 
L 119.254327 103.320935 
L 119.528423 104.39813 
L 121.172995 104.39813 
L 121.44709 103.320935 
L 124.188044 103.320935 
L 124.462139 104.39813 
L 124.736235 104.39813 
L 125.01033 105.475325 
L 125.558521 105.475325 
L 125.832616 104.39813 
L 126.380807 104.39813 
L 126.928998 102.24374 
L 128.57357 102.24374 
L 128.847665 103.320935 
L 131.040428 103.320935 
L 131.314524 102.24374 
L 132.959096 102.24374 
L 133.233191 101.166545 
L 135.425954 101.166545 
L 135.70005 102.24374 
L 136.24824 102.24374 
L 136.522336 103.320935 
L 137.344622 103.320935 
L 137.892813 101.166545 
L 138.441003 101.166545 
L 138.715099 100.089351 
L 140.907862 100.089351 
L 141.181957 101.166545 
L 142.826529 101.166545 
L 143.100625 100.089351 
L 144.197006 100.089351 
L 144.471101 101.166545 
L 144.745197 101.166545 
L 145.019292 102.24374 
L 145.567483 102.24374 
L 146.115674 100.089351 
L 146.663864 100.089351 
L 146.93796 99.012156 
L 148.308437 99.012156 
L 148.856627 96.857766 
L 150.775295 96.857766 
L 151.04939 97.934961 
L 153.516249 97.934961 
L 153.790344 96.857766 
L 154.064439 96.857766 
L 154.338535 95.780571 
L 154.61263 95.780571 
L 154.886725 96.857766 
L 156.805393 96.857766 
L 157.079488 95.780571 
L 158.998156 95.780571 
L 159.272251 96.857766 
L 159.820442 96.857766 
L 160.094538 97.934961 
L 164.754159 97.934961 
L 165.028254 96.857766 
L 165.576445 96.857766 
L 165.85054 97.934961 
L 167.221017 97.934961 
L 167.495113 96.857766 
L 168.317399 96.857766 
L 168.591494 97.934961 
L 168.865589 97.934961 
L 169.139685 99.012156 
L 169.961971 99.012156 
L 170.510162 96.857766 
L 171.058352 96.857766 
L 171.332448 95.780571 
L 171.606543 96.857766 
L 174.073401 96.857766 
L 174.347497 95.780571 
L 177.910737 95.780571 
L 178.184832 96.857766 
L 179.007118 96.857766 
L 179.281213 95.780571 
L 179.555309 95.780571 
L 179.829404 94.703377 
L 182.570358 94.703377 
L 182.844453 95.780571 
L 183.392644 95.780571 
L 183.666739 94.703377 
L 190.245028 94.703377 
L 190.519124 93.626182 
L 190.793219 93.626182 
L 191.067314 94.703377 
L 191.34141 93.626182 
L 195.726936 93.626182 
L 196.001031 92.548987 
L 196.549222 92.548987 
L 196.823317 93.626182 
L 199.01608 93.626182 
L 199.290175 92.548987 
L 199.564271 92.548987 
L 199.838366 91.471792 
L 202.57932 91.471792 
L 202.853415 92.548987 
L 203.949797 92.548987 
L 204.223892 93.626182 
L 205.594369 93.626182 
L 205.868464 92.548987 
L 207.513037 92.548987 
L 207.787132 93.626182 
L 209.431704 93.626182 
L 209.7058 92.548987 
L 213.81723 92.548987 
L 214.091325 91.471792 
L 214.365421 91.471792 
L 214.639516 92.548987 
L 214.913612 91.471792 
L 216.832279 91.471792 
L 217.106375 92.548987 
L 220.395519 92.548987 
L 220.669614 91.471792 
L 221.765996 91.471792 
L 222.040091 92.548987 
L 223.136473 92.548987 
L 223.410568 91.471792 
L 223.684663 91.471792 
L 223.958759 90.394597 
L 224.781045 90.394597 
L 225.05514 91.471792 
L 226.151522 91.471792 
L 226.425617 90.394597 
L 232.18162 90.394597 
L 232.455715 91.471792 
L 232.729811 91.471792 
L 233.003906 90.394597 
L 233.278001 90.394597 
L 233.552097 91.471792 
L 233.826192 91.471792 
L 234.100287 92.548987 
L 237.389432 92.548987 
L 237.663527 91.471792 
L 239.582195 91.471792 
L 239.85629 92.548987 
L 241.500862 92.548987 
L 241.774958 93.626182 
L 244.515912 93.626182 
L 244.790007 94.703377 
L 245.612293 94.703377 
L 245.886388 93.626182 
L 251.368296 93.626182 
L 251.642391 92.548987 
L 254.383345 92.548987 
L 254.931536 94.703377 
L 257.124299 94.703377 
L 257.398394 95.780571 
L 257.672489 94.703377 
L 258.768871 94.703377 
L 259.042966 93.626182 
L 260.687538 93.626182 
L 260.961634 94.703377 
L 262.332111 94.703377 
L 262.606206 93.626182 
L 263.702587 93.626182 
L 263.976683 94.703377 
L 267.265827 94.703377 
L 267.539923 95.780571 
L 269.184495 95.780571 
L 269.45859 94.703377 
L 269.732686 94.703377 
L 270.280876 96.857766 
L 271.651353 96.857766 
L 271.925449 95.780571 
L 276.58507 95.780571 
L 276.859165 94.703377 
L 279.600119 94.703377 
L 279.874214 93.626182 
L 280.14831 94.703377 
L 282.889263 94.703377 
L 283.163359 95.780571 
L 284.807931 95.780571 
L 285.082026 96.857766 
L 287.000694 96.857766 
L 287.274789 95.780571 
L 288.097075 95.780571 
L 288.371171 94.703377 
L 288.645266 94.703377 
L 288.919362 93.626182 
L 289.467552 93.626182 
L 289.467552 93.626182 
" clip-path="url(#p95ab2a5c41)" style="fill: none; stroke: #1f77b4; stroke-width: 1.5; stroke-linecap: square"/>
   </g>
   <g id="line2d_12">
    <path d="M 104.727273 78.545455 
L 289.193457 78.545455 
L 289.193457 78.545455 
" clip-path="url(#p95ab2a5c41)" style="fill: none; stroke: #ff7f0e; stroke-width: 1.5; stroke-linecap: square"/>
   </g>
   <g id="line2d_13">
    <path d="M 104.727273 110.861299 
L 105.001368 111.938494 
L 106.09775 111.938494 
L 106.371845 110.861299 
L 107.194131 110.861299 
L 107.468226 109.784104 
L 109.386894 109.784104 
L 109.660989 110.861299 
L 110.757371 110.861299 
L 111.031466 109.784104 
L 115.142897 109.784104 
L 115.416992 108.706909 
L 115.691088 108.706909 
L 115.965183 107.629714 
L 116.787469 107.629714 
L 117.061564 106.552519 
L 117.33566 107.629714 
L 117.883851 107.629714 
L 118.157946 106.552519 
L 118.980232 106.552519 
L 119.254327 105.475325 
L 119.528423 105.475325 
L 119.802518 106.552519 
L 122.817567 106.552519 
L 123.091663 105.475325 
L 123.365758 105.475325 
L 123.639853 104.39813 
L 126.106712 104.39813 
L 126.380807 103.320935 
L 126.654902 103.320935 
L 126.928998 102.24374 
L 127.203093 102.24374 
L 127.477188 101.166545 
L 129.669951 101.166545 
L 129.944047 100.089351 
L 131.588619 100.089351 
L 131.862714 99.012156 
L 132.13681 99.012156 
L 132.410905 100.089351 
L 132.685 99.012156 
L 134.329573 99.012156 
L 134.603668 97.934961 
L 135.70005 97.934961 
L 135.974145 99.012156 
L 136.796431 99.012156 
L 137.070526 97.934961 
L 137.344622 97.934961 
L 137.618717 96.857766 
L 137.892813 96.857766 
L 138.166908 95.780571 
L 138.441003 95.780571 
L 138.715099 96.857766 
L 140.907862 96.857766 
L 141.181957 97.934961 
L 141.456052 96.857766 
L 142.552434 96.857766 
L 142.826529 97.934961 
L 143.922911 97.934961 
L 144.197006 99.012156 
L 144.471101 99.012156 
L 144.745197 100.089351 
L 145.019292 100.089351 
L 145.293388 99.012156 
L 146.115674 99.012156 
L 146.389769 97.934961 
L 146.663864 99.012156 
L 147.212055 99.012156 
L 147.48615 97.934961 
L 148.856627 97.934961 
L 149.130723 96.857766 
L 151.871676 96.857766 
L 152.145772 97.934961 
L 153.242153 97.934961 
L 153.516249 96.857766 
L 155.983107 96.857766 
L 156.257202 97.934961 
L 156.531298 97.934961 
L 156.805393 99.012156 
L 157.079488 97.934961 
L 157.627679 97.934961 
L 157.901775 99.012156 
L 158.17587 97.934961 
L 158.998156 97.934961 
L 159.272251 99.012156 
L 159.546347 99.012156 
L 159.820442 97.934961 
L 164.205968 97.934961 
L 164.480063 96.857766 
L 166.672826 96.857766 
L 166.946922 97.934961 
L 170.510162 97.934961 
L 171.058352 100.089351 
L 171.332448 100.089351 
L 171.606543 101.166545 
L 171.880638 101.166545 
L 172.154734 100.089351 
L 172.97702 100.089351 
L 173.525211 102.24374 
L 174.347497 102.24374 
L 174.621592 101.166545 
L 178.458927 101.166545 
L 178.733023 102.24374 
L 186.955884 102.24374 
L 187.229979 101.166545 
L 190.519124 101.166545 
L 190.793219 100.089351 
L 193.260077 100.089351 
L 193.534173 99.012156 
L 195.45284 99.012156 
L 196.001031 96.857766 
L 197.371508 96.857766 
L 197.645603 95.780571 
L 198.467889 95.780571 
L 198.741985 96.857766 
L 199.01608 95.780571 
L 199.290175 95.780571 
L 199.564271 94.703377 
L 200.660652 94.703377 
L 200.934748 95.780571 
L 201.208843 95.780571 
L 201.482938 94.703377 
L 203.127511 94.703377 
L 203.401606 93.626182 
L 206.69075 93.626182 
L 206.964846 92.548987 
L 210.528086 92.548987 
L 210.802181 93.626182 
L 211.076276 92.548987 
L 211.350372 92.548987 
L 211.624467 91.471792 
L 212.446753 91.471792 
L 212.720849 90.394597 
L 213.81723 90.394597 
L 214.091325 89.317403 
L 214.365421 90.394597 
L 215.187707 90.394597 
L 215.461802 91.471792 
L 217.38047 91.471792 
L 217.654565 92.548987 
L 221.4919 92.548987 
L 221.765996 91.471792 
L 225.603331 91.471792 
L 225.877426 90.394597 
L 226.425617 90.394597 
L 226.699713 91.471792 
L 227.796094 91.471792 
L 228.344285 89.317403 
L 232.729811 89.317403 
L 233.003906 90.394597 
L 233.278001 90.394597 
L 233.552097 89.317403 
L 240.952672 89.317403 
L 241.226767 90.394597 
L 243.967721 90.394597 
L 244.241816 91.471792 
L 246.434579 91.471792 
L 246.708675 92.548987 
L 248.353247 92.548987 
L 248.627342 93.626182 
L 249.175533 93.626182 
L 249.449628 94.703377 
L 253.286963 94.703377 
L 253.561059 93.626182 
L 255.479726 93.626182 
L 255.753822 92.548987 
L 265.34716 92.548987 
L 265.621255 91.471792 
L 268.9104 91.471792 
L 269.184495 90.394597 
L 269.732686 90.394597 
L 270.006781 91.471792 
L 270.280876 90.394597 
L 270.554972 90.394597 
L 270.829067 91.471792 
L 272.199544 91.471792 
L 272.473639 90.394597 
L 272.747735 91.471792 
L 274.940498 91.471792 
L 275.214593 92.548987 
L 277.955547 92.548987 
L 278.229642 93.626182 
L 280.14831 93.626182 
L 280.422405 92.548987 
L 280.970596 92.548987 
L 281.518787 90.394597 
L 286.178408 90.394597 
L 286.452503 91.471792 
L 286.726599 91.471792 
L 286.726599 91.471792 
" clip-path="url(#p95ab2a5c41)" style="fill: none; stroke: #2ca02c; stroke-width: 1.5; stroke-linecap: square"/>
   </g>
   <g id="line2d_14">
    <path d="M 104.727273 78.545455 
L 289.193457 78.545455 
L 289.193457 78.545455 
" clip-path="url(#p95ab2a5c41)" style="fill: none; stroke: #d62728; stroke-width: 1.5; stroke-linecap: square"/>
   </g>
   <g id="line2d_15">
    <path d="M 104.727273 259.514182 
L 106.371845 259.514182 
L 106.64594 258.436987 
L 107.194131 258.436987 
L 107.468226 257.359792 
L 107.742322 257.359792 
L 108.290513 255.205403 
L 108.838703 255.205403 
L 109.112799 256.282597 
L 110.757371 256.282597 
L 111.031466 255.205403 
L 111.305562 256.282597 
L 112.127848 256.282597 
L 112.401943 257.359792 
L 115.142897 257.359792 
L 115.416992 258.436987 
L 115.691088 258.436987 
L 115.965183 259.514182 
L 116.239278 259.514182 
L 116.513374 260.591377 
L 116.787469 260.591377 
L 117.061564 259.514182 
L 117.609755 259.514182 
L 118.157946 257.359792 
L 118.432041 258.436987 
L 118.980232 258.436987 
L 119.254327 259.514182 
L 120.076613 259.514182 
L 120.350709 260.591377 
L 121.44709 260.591377 
L 122.269376 263.822961 
L 123.913949 263.822961 
L 124.462139 265.977351 
L 124.736235 265.977351 
L 125.01033 267.054545 
L 125.558521 267.054545 
L 125.832616 265.977351 
L 126.106712 267.054545 
L 128.299475 267.054545 
L 128.57357 265.977351 
L 129.121761 265.977351 
L 129.395856 264.900156 
L 132.685 264.900156 
L 132.959096 263.822961 
L 133.233191 263.822961 
L 133.507287 262.745766 
L 134.055477 262.745766 
L 134.329573 261.668571 
L 135.425954 261.668571 
L 135.70005 260.591377 
L 136.796431 260.591377 
L 137.070526 259.514182 
L 137.344622 259.514182 
L 137.618717 258.436987 
L 138.166908 258.436987 
L 138.441003 259.514182 
L 138.715099 259.514182 
L 138.989194 258.436987 
L 139.81148 258.436987 
L 140.359671 260.591377 
L 141.181957 260.591377 
L 141.730148 258.436987 
L 142.004243 258.436987 
L 142.826529 261.668571 
L 143.648815 261.668571 
L 143.922911 260.591377 
L 144.197006 261.668571 
L 144.471101 261.668571 
L 144.745197 260.591377 
L 145.019292 260.591377 
L 145.293388 261.668571 
L 145.567483 260.591377 
L 145.841578 260.591377 
L 146.115674 261.668571 
L 147.760246 261.668571 
L 148.034341 262.745766 
L 148.856627 262.745766 
L 149.130723 263.822961 
L 150.5012 263.822961 
L 150.775295 262.745766 
L 151.04939 262.745766 
L 151.323486 261.668571 
L 151.871676 261.668571 
L 152.145772 262.745766 
L 153.790344 262.745766 
L 154.064439 261.668571 
L 155.160821 261.668571 
L 155.434916 262.745766 
L 158.449965 262.745766 
L 158.724061 261.668571 
L 161.190919 261.668571 
L 161.465014 262.745766 
L 162.561396 262.745766 
L 163.109587 264.900156 
L 163.383682 264.900156 
L 163.657777 263.822961 
L 163.931873 263.822961 
L 164.480063 261.668571 
L 165.576445 261.668571 
L 165.85054 262.745766 
L 166.124636 261.668571 
L 167.221017 261.668571 
L 167.769208 259.514182 
L 168.043303 259.514182 
L 168.317399 258.436987 
L 171.058352 258.436987 
L 171.332448 257.359792 
L 172.702925 257.359792 
L 172.97702 258.436987 
L 174.073401 258.436987 
L 174.347497 257.359792 
L 175.169783 257.359792 
L 175.443878 256.282597 
L 177.636641 256.282597 
L 178.184832 254.128208 
L 178.458927 254.128208 
L 178.733023 253.051013 
L 179.281213 253.051013 
L 179.555309 251.973818 
L 180.377595 251.973818 
L 180.65169 253.051013 
L 180.925786 251.973818 
L 183.118549 251.973818 
L 183.392644 253.051013 
L 183.940835 253.051013 
L 184.21493 254.128208 
L 185.585407 254.128208 
L 185.859502 253.051013 
L 186.955884 253.051013 
L 187.229979 251.973818 
L 187.504075 251.973818 
L 187.77817 253.051013 
L 188.052265 253.051013 
L 188.326361 254.128208 
L 188.874551 251.973818 
L 189.148647 253.051013 
L 189.422742 253.051013 
L 189.696838 251.973818 
L 190.245028 251.973818 
L 190.519124 253.051013 
L 191.615505 253.051013 
L 191.8896 254.128208 
L 192.163696 254.128208 
L 192.437791 255.205403 
L 193.260077 255.205403 
L 193.534173 254.128208 
L 193.808268 255.205403 
L 194.082363 255.205403 
L 194.356459 256.282597 
L 195.178745 256.282597 
L 195.45284 255.205403 
L 195.726936 255.205403 
L 196.001031 254.128208 
L 196.549222 256.282597 
L 197.645603 256.282597 
L 197.919699 255.205403 
L 198.467889 255.205403 
L 198.741985 256.282597 
L 200.112462 256.282597 
L 200.386557 257.359792 
L 201.757034 257.359792 
L 202.305225 255.205403 
L 202.57932 255.205403 
L 202.853415 254.128208 
L 203.127511 254.128208 
L 203.401606 255.205403 
L 203.949797 255.205403 
L 204.223892 254.128208 
L 205.320274 254.128208 
L 205.594369 255.205403 
L 205.868464 255.205403 
L 206.14256 256.282597 
L 206.416655 255.205403 
L 207.238941 255.205403 
L 207.513037 254.128208 
L 207.787132 254.128208 
L 208.061227 255.205403 
L 208.335323 255.205403 
L 208.609418 254.128208 
L 208.883513 255.205403 
L 209.431704 255.205403 
L 209.7058 254.128208 
L 209.979895 254.128208 
L 210.802181 250.896623 
L 211.350372 250.896623 
L 212.446753 246.587844 
L 212.994944 246.587844 
L 213.269039 245.510649 
L 213.543135 246.587844 
L 213.81723 246.587844 
L 214.091325 245.510649 
L 215.187707 245.510649 
L 215.461802 244.433455 
L 216.558184 244.433455 
L 216.832279 243.35626 
L 217.106375 243.35626 
L 217.654565 241.20187 
L 218.202756 241.20187 
L 218.476851 242.279065 
L 218.750947 241.20187 
L 219.299138 243.35626 
L 220.121424 243.35626 
L 220.669614 241.20187 
L 220.94371 242.279065 
L 221.217805 242.279065 
L 221.4919 241.20187 
L 221.765996 241.20187 
L 222.040091 240.124675 
L 222.314187 240.124675 
L 222.588282 241.20187 
L 222.862377 241.20187 
L 223.136473 242.279065 
L 224.232854 242.279065 
L 224.50695 241.20187 
L 225.05514 241.20187 
L 225.329236 240.124675 
L 226.425617 240.124675 
L 226.699713 241.20187 
L 227.521999 241.20187 
L 228.070189 239.047481 
L 228.892475 239.047481 
L 229.166571 240.124675 
L 229.714762 240.124675 
L 229.988857 239.047481 
L 231.359334 239.047481 
L 231.633429 237.970286 
L 231.907525 237.970286 
L 232.18162 236.893091 
L 232.455715 236.893091 
L 232.729811 237.970286 
L 233.003906 237.970286 
L 233.278001 236.893091 
L 233.552097 237.970286 
L 234.100287 237.970286 
L 234.374383 239.047481 
L 234.922574 239.047481 
L 235.196669 237.970286 
L 235.470764 237.970286 
L 235.74486 239.047481 
L 236.018955 239.047481 
L 236.29305 237.970286 
L 236.567146 237.970286 
L 237.389432 234.738701 
L 238.211718 234.738701 
L 238.485813 233.661506 
L 238.759909 233.661506 
L 239.3081 231.507117 
L 241.774958 231.507117 
L 242.049053 232.584312 
L 243.145435 232.584312 
L 243.41953 233.661506 
L 243.693625 233.661506 
L 244.241816 231.507117 
L 245.886388 231.507117 
L 246.160484 230.429922 
L 246.434579 230.429922 
L 246.708675 229.352727 
L 246.98277 229.352727 
L 247.256865 228.275532 
L 248.079151 228.275532 
L 248.353247 229.352727 
L 248.627342 228.275532 
L 249.175533 228.275532 
L 249.997819 225.043948 
L 250.271914 226.121143 
L 250.820105 226.121143 
L 251.0942 225.043948 
L 251.642391 225.043948 
L 252.464677 221.812364 
L 253.835154 221.812364 
L 254.10925 220.735169 
L 254.383345 221.812364 
L 254.65744 221.812364 
L 255.205631 219.657974 
L 255.479726 219.657974 
L 256.027917 217.503584 
L 256.850203 217.503584 
L 257.124299 218.580779 
L 257.398394 217.503584 
L 257.672489 218.580779 
L 258.22068 218.580779 
L 258.494775 217.503584 
L 258.768871 217.503584 
L 259.042966 218.580779 
L 260.687538 218.580779 
L 260.961634 217.503584 
L 261.509825 217.503584 
L 262.058015 215.349195 
L 262.332111 216.42639 
L 262.880301 214.272 
L 263.154397 214.272 
L 263.428492 215.349195 
L 264.250778 215.349195 
L 264.524874 216.42639 
L 264.798969 216.42639 
L 265.073064 217.503584 
L 265.34716 217.503584 
L 265.621255 218.580779 
L 266.443541 218.580779 
L 266.717637 219.657974 
L 266.991732 219.657974 
L 267.265827 220.735169 
L 267.539923 220.735169 
L 267.814018 219.657974 
L 268.362209 219.657974 
L 268.636304 218.580779 
L 269.45859 218.580779 
L 269.732686 217.503584 
L 270.006781 217.503584 
L 270.280876 218.580779 
L 270.829067 218.580779 
L 271.377258 216.42639 
L 271.925449 216.42639 
L 272.473639 218.580779 
L 273.02183 216.42639 
L 273.295925 216.42639 
L 273.570021 217.503584 
L 274.392307 214.272 
L 275.214593 214.272 
L 275.488688 215.349195 
L 276.036879 215.349195 
L 276.310975 216.42639 
L 276.58507 215.349195 
L 276.859165 216.42639 
L 277.407356 216.42639 
L 277.681451 215.349195 
L 279.326024 215.349195 
L 279.874214 213.194805 
L 280.6965 213.194805 
L 280.970596 214.272 
L 282.066977 214.272 
L 282.889263 217.503584 
L 283.163359 216.42639 
L 284.25974 216.42639 
L 284.533836 215.349195 
L 284.807931 215.349195 
L 285.082026 216.42639 
L 285.356122 215.349195 
L 286.452503 215.349195 
L 286.726599 214.272 
L 287.274789 214.272 
L 287.548885 213.194805 
L 288.097075 215.349195 
L 288.371171 215.349195 
L 288.645266 214.272 
L 288.919362 214.272 
L 288.919362 214.272 
" clip-path="url(#p95ab2a5c41)" style="fill: none; stroke: #9467bd; stroke-width: 1.5; stroke-linecap: square"/>
   </g>
   <g id="line2d_16">
    <path d="M 104.727273 78.545455 
L 292.482601 78.545455 
L 292.482601 78.545455 
" clip-path="url(#p95ab2a5c41)" style="fill: none; stroke: #8c564b; stroke-width: 1.5; stroke-linecap: square"/>
   </g>
   <g id="line2d_17">
    <path d="M 104.727273 166.875429 
L 105.001368 166.875429 
L 105.275463 167.952623 
L 105.549559 167.952623 
L 105.823654 169.029818 
L 107.742322 169.029818 
L 108.016417 167.952623 
L 108.564608 167.952623 
L 108.838703 169.029818 
L 110.483276 169.029818 
L 110.757371 170.107013 
L 111.579657 170.107013 
L 111.853752 169.029818 
L 112.950134 169.029818 
L 113.224229 167.952623 
L 114.594706 167.952623 
L 114.868801 169.029818 
L 115.416992 169.029818 
L 115.691088 167.952623 
L 115.965183 167.952623 
L 116.239278 169.029818 
L 116.513374 167.952623 
L 116.787469 167.952623 
L 117.33566 170.107013 
L 117.609755 170.107013 
L 118.157946 167.952623 
L 118.432041 167.952623 
L 118.706137 166.875429 
L 119.528423 166.875429 
L 119.802518 165.798234 
L 120.076613 165.798234 
L 120.350709 166.875429 
L 120.8989 166.875429 
L 121.172995 165.798234 
L 121.44709 165.798234 
L 121.721186 164.721039 
L 121.995281 164.721039 
L 122.817567 161.489455 
L 123.091663 162.566649 
L 123.365758 161.489455 
L 123.913949 161.489455 
L 124.462139 159.335065 
L 125.01033 159.335065 
L 125.558521 157.180675 
L 125.832616 157.180675 
L 126.106712 156.103481 
L 126.380807 156.103481 
L 126.928998 153.949091 
L 127.477188 153.949091 
L 128.025379 151.794701 
L 128.299475 151.794701 
L 129.121761 148.563117 
L 129.395856 148.563117 
L 130.766333 143.177143 
L 131.862714 143.177143 
L 132.410905 141.022753 
L 132.685 142.099948 
L 132.959096 141.022753 
L 133.507287 141.022753 
L 133.781382 139.945558 
L 134.055477 139.945558 
L 134.877763 136.713974 
L 135.151859 136.713974 
L 135.425954 135.636779 
L 135.70005 135.636779 
L 135.974145 134.559584 
L 136.522336 134.559584 
L 136.796431 133.48239 
L 137.070526 134.559584 
L 137.344622 134.559584 
L 137.618717 133.48239 
L 137.892813 133.48239 
L 138.441003 131.328 
L 138.715099 132.405195 
L 139.263289 130.250805 
L 139.537385 131.328 
L 140.085575 131.328 
L 140.359671 130.250805 
L 140.907862 130.250805 
L 141.181957 129.17361 
L 141.456052 129.17361 
L 142.004243 127.019221 
L 142.552434 127.019221 
L 142.826529 125.942026 
L 143.100625 125.942026 
L 143.37472 124.864831 
L 143.648815 124.864831 
L 143.922911 123.787636 
L 144.197006 123.787636 
L 144.745197 121.633247 
L 145.567483 121.633247 
L 145.841578 120.556052 
L 146.115674 120.556052 
L 146.93796 117.324468 
L 147.212055 117.324468 
L 147.760246 119.478857 
L 148.034341 118.401662 
L 148.582532 118.401662 
L 148.856627 117.324468 
L 149.130723 117.324468 
L 149.404818 118.401662 
L 149.678913 118.401662 
L 149.953009 117.324468 
L 150.775295 117.324468 
L 151.04939 118.401662 
L 151.323486 117.324468 
L 152.419867 117.324468 
L 152.693963 116.247273 
L 156.257202 116.247273 
L 156.531298 115.170078 
L 158.449965 115.170078 
L 158.724061 116.247273 
L 159.820442 116.247273 
L 160.094538 115.170078 
L 163.383682 115.170078 
L 163.657777 114.092883 
L 165.028254 114.092883 
L 165.30235 115.170078 
L 166.672826 115.170078 
L 167.221017 117.324468 
L 167.769208 117.324468 
L 168.043303 118.401662 
L 169.139685 118.401662 
L 169.687875 116.247273 
L 170.236066 116.247273 
L 170.510162 117.324468 
L 170.784257 117.324468 
L 171.058352 116.247273 
L 171.332448 117.324468 
L 171.606543 117.324468 
L 172.428829 114.092883 
L 172.97702 114.092883 
L 173.251115 115.170078 
L 173.525211 115.170078 
L 173.799306 114.092883 
L 174.621592 114.092883 
L 175.443878 110.861299 
L 177.08845 110.861299 
L 177.362546 111.938494 
L 177.636641 111.938494 
L 177.910737 110.861299 
L 180.65169 110.861299 
L 180.925786 111.938494 
L 181.199881 110.861299 
L 182.296263 110.861299 
L 182.570358 111.938494 
L 182.844453 111.938494 
L 183.118549 113.015688 
L 183.666739 113.015688 
L 183.940835 114.092883 
L 184.21493 113.015688 
L 185.859502 113.015688 
L 186.133598 114.092883 
L 186.407693 113.015688 
L 187.229979 113.015688 
L 187.504075 111.938494 
L 188.600456 111.938494 
L 188.874551 110.861299 
L 190.245028 110.861299 
L 190.519124 109.784104 
L 191.067314 109.784104 
L 191.34141 108.706909 
L 193.260077 108.706909 
L 193.534173 107.629714 
L 194.630554 107.629714 
L 194.90465 106.552519 
L 195.178745 106.552519 
L 195.45284 107.629714 
L 196.823317 107.629714 
L 197.097413 106.552519 
L 197.371508 107.629714 
L 200.112462 107.629714 
L 200.386557 106.552519 
L 201.482938 106.552519 
L 201.757034 107.629714 
L 202.031129 107.629714 
L 202.57932 105.475325 
L 202.853415 105.475325 
L 203.127511 106.552519 
L 203.949797 106.552519 
L 204.223892 105.475325 
L 204.772083 105.475325 
L 205.046178 106.552519 
L 205.594369 106.552519 
L 205.868464 105.475325 
L 209.979895 105.475325 
L 210.25399 106.552519 
L 215.187707 106.552519 
L 215.461802 105.475325 
L 219.025042 105.475325 
L 219.299138 106.552519 
L 219.847328 106.552519 
L 220.121424 105.475325 
L 221.4919 105.475325 
L 222.040091 103.320935 
L 222.314187 104.39813 
L 222.588282 104.39813 
L 222.862377 103.320935 
L 225.05514 103.320935 
L 225.329236 102.24374 
L 225.603331 103.320935 
L 225.877426 103.320935 
L 226.151522 102.24374 
L 227.796094 102.24374 
L 228.070189 101.166545 
L 231.907525 101.166545 
L 232.18162 100.089351 
L 233.552097 100.089351 
L 233.826192 101.166545 
L 234.100287 101.166545 
L 234.374383 102.24374 
L 235.470764 102.24374 
L 235.74486 101.166545 
L 237.115337 101.166545 
L 237.389432 100.089351 
L 237.663527 100.089351 
L 237.937623 99.012156 
L 238.485813 99.012156 
L 238.759909 97.934961 
L 240.678576 97.934961 
L 240.952672 96.857766 
L 243.693625 96.857766 
L 243.967721 97.934961 
L 244.515912 97.934961 
L 244.790007 96.857766 
L 246.434579 96.857766 
L 246.708675 95.780571 
L 247.256865 95.780571 
L 247.530961 94.703377 
L 248.901437 94.703377 
L 249.175533 93.626182 
L 249.449628 93.626182 
L 249.723724 94.703377 
L 249.997819 94.703377 
L 250.271914 93.626182 
L 251.0942 93.626182 
L 251.368296 94.703377 
L 251.916487 94.703377 
L 252.190582 93.626182 
L 252.464677 93.626182 
L 252.738773 94.703377 
L 254.383345 94.703377 
L 254.65744 95.780571 
L 255.205631 95.780571 
L 255.479726 96.857766 
L 256.302012 96.857766 
L 256.576108 95.780571 
L 257.672489 95.780571 
L 257.946585 94.703377 
L 258.22068 95.780571 
L 259.317062 95.780571 
L 259.591157 96.857766 
L 259.865252 95.780571 
L 264.798969 95.780571 
L 265.073064 94.703377 
L 268.088113 94.703377 
L 268.362209 93.626182 
L 270.006781 93.626182 
L 270.280876 94.703377 
L 271.377258 94.703377 
L 271.651353 95.780571 
L 273.844116 95.780571 
L 274.118212 94.703377 
L 274.392307 95.780571 
L 278.229642 95.780571 
L 278.503737 96.857766 
L 279.874214 96.857766 
L 280.14831 97.934961 
L 280.422405 96.857766 
L 285.630217 96.857766 
L 285.904312 97.934961 
L 288.371171 97.934961 
L 288.645266 96.857766 
L 288.919362 96.857766 
L 289.193457 95.780571 
L 291.934411 95.780571 
L 291.934411 95.780571 
" clip-path="url(#p95ab2a5c41)" style="fill: none; stroke: #e377c2; stroke-width: 1.5; stroke-linecap: square"/>
   </g>
   <g id="line2d_18">
    <path d="M 104.727273 78.545455 
L 286.726599 78.545455 
L 286.726599 78.545455 
" clip-path="url(#p95ab2a5c41)" style="fill: none; stroke: #7f7f7f; stroke-width: 1.5; stroke-linecap: square"/>
   </g>
   <g id="line2d_19">
    <path d="M 104.727273 110.861299 
L 105.275463 110.861299 
L 105.549559 111.938494 
L 109.386894 111.938494 
L 109.935085 114.092883 
L 110.757371 114.092883 
L 111.031466 115.170078 
L 112.127848 115.170078 
L 112.401943 114.092883 
L 113.498325 114.092883 
L 114.046515 111.938494 
L 115.965183 111.938494 
L 116.239278 113.015688 
L 117.609755 113.015688 
L 117.883851 114.092883 
L 119.802518 114.092883 
L 120.350709 111.938494 
L 120.8989 111.938494 
L 121.44709 114.092883 
L 122.543472 114.092883 
L 122.817567 113.015688 
L 123.091663 113.015688 
L 123.365758 114.092883 
L 123.639853 114.092883 
L 124.462139 117.324468 
L 124.736235 117.324468 
L 125.01033 118.401662 
L 128.025379 118.401662 
L 128.299475 117.324468 
L 128.847665 117.324468 
L 129.121761 118.401662 
L 129.395856 118.401662 
L 129.944047 116.247273 
L 130.218142 116.247273 
L 130.766333 114.092883 
L 131.040428 114.092883 
L 131.314524 115.170078 
L 131.588619 114.092883 
L 132.410905 114.092883 
L 132.685 115.170078 
L 132.959096 114.092883 
L 133.233191 115.170078 
L 133.507287 115.170078 
L 134.055477 113.015688 
L 134.329573 114.092883 
L 134.603668 114.092883 
L 134.877763 113.015688 
L 135.70005 113.015688 
L 136.24824 110.861299 
L 140.907862 110.861299 
L 141.181957 111.938494 
L 141.456052 111.938494 
L 141.730148 110.861299 
L 142.004243 111.938494 
L 143.922911 111.938494 
L 144.471101 109.784104 
L 150.227104 109.784104 
L 150.775295 107.629714 
L 151.871676 107.629714 
L 152.145772 106.552519 
L 152.419867 106.552519 
L 152.693963 107.629714 
L 154.064439 107.629714 
L 154.338535 106.552519 
L 154.61263 107.629714 
L 158.17587 107.629714 
L 158.449965 108.706909 
L 159.272251 108.706909 
L 159.820442 110.861299 
L 160.094538 110.861299 
L 160.368633 109.784104 
L 160.642728 110.861299 
L 162.835491 110.861299 
L 163.109587 111.938494 
L 164.205968 111.938494 
L 165.30235 107.629714 
L 165.576445 107.629714 
L 165.85054 106.552519 
L 166.124636 106.552519 
L 166.398731 107.629714 
L 168.865589 107.629714 
L 169.139685 108.706909 
L 170.236066 108.706909 
L 170.510162 109.784104 
L 170.784257 109.784104 
L 171.058352 108.706909 
L 172.428829 108.706909 
L 172.702925 107.629714 
L 172.97702 108.706909 
L 175.717974 108.706909 
L 176.266164 106.552519 
L 177.636641 106.552519 
L 177.910737 107.629714 
L 178.184832 106.552519 
L 178.458927 106.552519 
L 179.007118 104.39813 
L 180.65169 104.39813 
L 180.925786 105.475325 
L 181.748072 105.475325 
L 182.022167 106.552519 
L 182.570358 106.552519 
L 182.844453 107.629714 
L 183.118549 107.629714 
L 183.392644 106.552519 
L 183.666739 107.629714 
L 183.940835 106.552519 
L 185.859502 106.552519 
L 186.133598 105.475325 
L 187.229979 105.475325 
L 187.504075 104.39813 
L 187.77817 104.39813 
L 188.052265 103.320935 
L 188.874551 103.320935 
L 189.422742 101.166545 
L 192.163696 101.166545 
L 192.437791 102.24374 
L 193.260077 102.24374 
L 193.534173 103.320935 
L 194.356459 103.320935 
L 194.90465 105.475325 
L 195.45284 105.475325 
L 195.726936 106.552519 
L 196.001031 105.475325 
L 196.549222 105.475325 
L 196.823317 104.39813 
L 203.949797 104.39813 
L 204.223892 105.475325 
L 204.497988 105.475325 
L 204.772083 106.552519 
L 207.238941 106.552519 
L 207.513037 105.475325 
L 208.609418 105.475325 
L 208.883513 104.39813 
L 209.157609 104.39813 
L 209.431704 103.320935 
L 210.25399 103.320935 
L 210.528086 104.39813 
L 210.802181 104.39813 
L 211.076276 105.475325 
L 212.446753 105.475325 
L 212.720849 106.552519 
L 212.994944 106.552519 
L 213.269039 105.475325 
L 213.81723 107.629714 
L 214.091325 107.629714 
L 214.639516 105.475325 
L 217.654565 105.475325 
L 217.928661 104.39813 
L 218.476851 104.39813 
L 219.025042 106.552519 
L 220.94371 106.552519 
L 221.217805 105.475325 
L 223.684663 105.475325 
L 223.958759 104.39813 
L 225.05514 104.39813 
L 225.329236 103.320935 
L 225.603331 104.39813 
L 227.521999 104.39813 
L 227.796094 103.320935 
L 228.070189 103.320935 
L 228.344285 104.39813 
L 231.907525 104.39813 
L 232.18162 105.475325 
L 232.455715 105.475325 
L 232.729811 104.39813 
L 233.826192 104.39813 
L 234.100287 103.320935 
L 234.374383 103.320935 
L 234.648478 102.24374 
L 235.470764 102.24374 
L 235.74486 101.166545 
L 236.018955 101.166545 
L 236.29305 102.24374 
L 236.567146 102.24374 
L 236.841241 101.166545 
L 237.115337 101.166545 
L 237.389432 102.24374 
L 237.663527 101.166545 
L 238.211718 101.166545 
L 238.485813 100.089351 
L 240.130386 100.089351 
L 240.404481 101.166545 
L 242.049053 101.166545 
L 242.323149 102.24374 
L 245.886388 102.24374 
L 246.160484 103.320935 
L 246.98277 103.320935 
L 247.256865 102.24374 
L 248.079151 102.24374 
L 248.353247 101.166545 
L 248.627342 102.24374 
L 249.175533 102.24374 
L 249.723724 100.089351 
L 250.271914 102.24374 
L 250.54601 101.166545 
L 251.368296 101.166545 
L 251.642391 102.24374 
L 251.916487 102.24374 
L 252.190582 103.320935 
L 253.012868 103.320935 
L 253.286963 104.39813 
L 256.027917 104.39813 
L 256.302012 105.475325 
L 258.22068 105.475325 
L 258.494775 106.552519 
L 258.768871 106.552519 
L 259.042966 105.475325 
L 259.317062 106.552519 
L 259.591157 105.475325 
L 259.865252 106.552519 
L 261.509825 106.552519 
L 261.78392 107.629714 
L 264.250778 107.629714 
L 264.524874 108.706909 
L 265.073064 108.706909 
L 265.34716 107.629714 
L 265.621255 107.629714 
L 265.89535 106.552519 
L 267.265827 106.552519 
L 267.539923 105.475325 
L 268.088113 105.475325 
L 268.636304 103.320935 
L 270.554972 103.320935 
L 270.829067 104.39813 
L 271.103162 104.39813 
L 271.377258 105.475325 
L 272.199544 105.475325 
L 272.473639 106.552519 
L 273.295925 106.552519 
L 273.570021 105.475325 
L 274.666402 105.475325 
L 274.940498 106.552519 
L 279.874214 106.552519 
L 280.14831 107.629714 
L 280.422405 106.552519 
L 281.244691 106.552519 
L 281.518787 107.629714 
L 284.25974 107.629714 
L 284.533836 108.706909 
L 288.097075 108.706909 
L 288.645266 110.861299 
L 290.838029 110.861299 
L 291.112125 109.784104 
L 291.660315 109.784104 
L 291.934411 110.861299 
L 292.208506 109.784104 
L 294.94946 109.784104 
L 295.223555 108.706909 
L 296.868127 108.706909 
L 297.142223 107.629714 
L 298.5127 107.629714 
L 298.786795 108.706909 
L 299.609081 108.706909 
L 299.883176 109.784104 
L 300.431367 109.784104 
L 300.705462 110.861299 
L 300.979558 109.784104 
L 301.801844 109.784104 
L 302.075939 110.861299 
L 302.898225 110.861299 
L 303.172321 111.938494 
L 303.446416 110.861299 
L 304.542798 110.861299 
L 305.090988 108.706909 
L 305.913275 108.706909 
L 306.18737 109.784104 
L 306.461465 108.706909 
L 306.735561 108.706909 
L 307.009656 107.629714 
L 307.283751 108.706909 
L 307.831942 108.706909 
L 308.106037 107.629714 
L 308.380133 107.629714 
L 308.654228 108.706909 
L 310.846991 108.706909 
L 311.121087 107.629714 
L 312.217468 107.629714 
L 312.491563 108.706909 
L 313.039754 108.706909 
L 313.31385 107.629714 
L 313.86204 107.629714 
L 314.136136 106.552519 
L 314.410231 106.552519 
L 314.684326 105.475325 
L 316.328899 105.475325 
L 316.602994 104.39813 
L 319.069852 104.39813 
L 319.343948 103.320935 
L 320.714425 103.320935 
L 321.262615 105.475325 
L 322.358997 105.475325 
L 322.633092 106.552519 
L 322.907187 106.552519 
L 323.181283 107.629714 
L 324.825855 107.629714 
L 325.09995 106.552519 
L 325.374046 106.552519 
L 325.648141 105.475325 
L 325.922237 106.552519 
L 327.018618 106.552519 
L 327.292713 105.475325 
L 329.211381 105.475325 
L 329.485476 106.552519 
L 329.759572 105.475325 
L 331.678239 105.475325 
L 332.22643 107.629714 
L 335.241479 107.629714 
L 335.515575 108.706909 
L 336.063765 108.706909 
L 336.337861 107.629714 
L 336.611956 107.629714 
L 337.160147 109.784104 
L 337.708337 109.784104 
L 337.982433 108.706909 
L 339.078814 108.706909 
L 339.35291 107.629714 
L 341.545673 107.629714 
L 341.819768 106.552519 
L 342.916149 106.552519 
L 343.46434 104.39813 
L 345.383008 104.39813 
L 345.657103 105.475325 
L 346.479389 105.475325 
L 346.753485 104.39813 
L 349.220343 104.39813 
L 349.494438 105.475325 
L 350.59082 105.475325 
L 350.864915 106.552519 
L 351.687201 106.552519 
L 351.961297 107.629714 
L 353.331774 107.629714 
L 353.605869 106.552519 
L 354.428155 106.552519 
L 354.70225 105.475325 
L 354.976346 106.552519 
L 355.250441 106.552519 
L 355.524537 105.475325 
L 355.798632 105.475325 
L 356.072727 106.552519 
L 356.072727 106.552519 
" clip-path="url(#p95ab2a5c41)" style="fill: none; stroke: #bcbd22; stroke-width: 1.5; stroke-linecap: square"/>
   </g>
   <g id="patch_3">
    <path d="M 92.16 276.48 
L 92.16 69.12 
" style="fill: none; stroke: #000000; stroke-width: 0.8; stroke-linejoin: miter; stroke-linecap: square"/>
   </g>
   <g id="patch_4">
    <path d="M 368.64 276.48 
L 368.64 69.12 
" style="fill: none; stroke: #000000; stroke-width: 0.8; stroke-linejoin: miter; stroke-linecap: square"/>
   </g>
   <g id="patch_5">
    <path d="M 92.16 276.48 
L 368.64 276.48 
" style="fill: none; stroke: #000000; stroke-width: 0.8; stroke-linejoin: miter; stroke-linecap: square"/>
   </g>
   <g id="patch_6">
    <path d="M 92.16 69.12 
L 368.64 69.12 
" style="fill: none; stroke: #000000; stroke-width: 0.8; stroke-linejoin: miter; stroke-linecap: square"/>
   </g>
   <g id="text_11">
    <!-- fixed_jeevesprobe_2afc_og -->
    <g transform="translate(149.638125 63.12) scale(0.12 -0.12)">
     <defs>
      <path id="DejaVuSans-66" d="M 2375 4863 
L 2375 4384 
L 1825 4384 
Q 1516 4384 1395 4259 
Q 1275 4134 1275 3809 
L 1275 3500 
L 2222 3500 
L 2222 3053 
L 1275 3053 
L 1275 0 
L 697 0 
L 697 3053 
L 147 3053 
L 147 3500 
L 697 3500 
L 697 3744 
Q 697 4328 969 4595 
Q 1241 4863 1831 4863 
L 2375 4863 
z
" transform="scale(0.015625)"/>
      <path id="DejaVuSans-69" d="M 603 3500 
L 1178 3500 
L 1178 0 
L 603 0 
L 603 3500 
z
M 603 4863 
L 1178 4863 
L 1178 4134 
L 603 4134 
L 603 4863 
z
" transform="scale(0.015625)"/>
      <path id="DejaVuSans-78" d="M 3513 3500 
L 2247 1797 
L 3578 0 
L 2900 0 
L 1881 1375 
L 863 0 
L 184 0 
L 1544 1831 
L 300 3500 
L 978 3500 
L 1906 2253 
L 2834 3500 
L 3513 3500 
z
" transform="scale(0.015625)"/>
      <path id="DejaVuSans-65" d="M 3597 1894 
L 3597 1613 
L 953 1613 
Q 991 1019 1311 708 
Q 1631 397 2203 397 
Q 2534 397 2845 478 
Q 3156 559 3463 722 
L 3463 178 
Q 3153 47 2828 -22 
Q 2503 -91 2169 -91 
Q 1331 -91 842 396 
Q 353 884 353 1716 
Q 353 2575 817 3079 
Q 1281 3584 2069 3584 
Q 2775 3584 3186 3129 
Q 3597 2675 3597 1894 
z
M 3022 2063 
Q 3016 2534 2758 2815 
Q 2500 3097 2075 3097 
Q 1594 3097 1305 2825 
Q 1016 2553 972 2059 
L 3022 2063 
z
" transform="scale(0.015625)"/>
      <path id="DejaVuSans-64" d="M 2906 2969 
L 2906 4863 
L 3481 4863 
L 3481 0 
L 2906 0 
L 2906 525 
Q 2725 213 2448 61 
Q 2172 -91 1784 -91 
Q 1150 -91 751 415 
Q 353 922 353 1747 
Q 353 2572 751 3078 
Q 1150 3584 1784 3584 
Q 2172 3584 2448 3432 
Q 2725 3281 2906 2969 
z
M 947 1747 
Q 947 1113 1208 752 
Q 1469 391 1925 391 
Q 2381 391 2643 752 
Q 2906 1113 2906 1747 
Q 2906 2381 2643 2742 
Q 2381 3103 1925 3103 
Q 1469 3103 1208 2742 
Q 947 2381 947 1747 
z
" transform="scale(0.015625)"/>
      <path id="DejaVuSans-5f" d="M 3263 -1063 
L 3263 -1509 
L -63 -1509 
L -63 -1063 
L 3263 -1063 
z
" transform="scale(0.015625)"/>
      <path id="DejaVuSans-6a" d="M 603 3500 
L 1178 3500 
L 1178 -63 
Q 1178 -731 923 -1031 
Q 669 -1331 103 -1331 
L -116 -1331 
L -116 -844 
L 38 -844 
Q 366 -844 484 -692 
Q 603 -541 603 -63 
L 603 3500 
z
M 603 4863 
L 1178 4863 
L 1178 4134 
L 603 4134 
L 603 4863 
z
" transform="scale(0.015625)"/>
      <path id="DejaVuSans-76" d="M 191 3500 
L 800 3500 
L 1894 563 
L 2988 3500 
L 3597 3500 
L 2284 0 
L 1503 0 
L 191 3500 
z
" transform="scale(0.015625)"/>
      <path id="DejaVuSans-73" d="M 2834 3397 
L 2834 2853 
Q 2591 2978 2328 3040 
Q 2066 3103 1784 3103 
Q 1356 3103 1142 2972 
Q 928 2841 928 2578 
Q 928 2378 1081 2264 
Q 1234 2150 1697 2047 
L 1894 2003 
Q 2506 1872 2764 1633 
Q 3022 1394 3022 966 
Q 3022 478 2636 193 
Q 2250 -91 1575 -91 
Q 1294 -91 989 -36 
Q 684 19 347 128 
L 347 722 
Q 666 556 975 473 
Q 1284 391 1588 391 
Q 1994 391 2212 530 
Q 2431 669 2431 922 
Q 2431 1156 2273 1281 
Q 2116 1406 1581 1522 
L 1381 1569 
Q 847 1681 609 1914 
Q 372 2147 372 2553 
Q 372 3047 722 3315 
Q 1072 3584 1716 3584 
Q 2034 3584 2315 3537 
Q 2597 3491 2834 3397 
z
" transform="scale(0.015625)"/>
      <path id="DejaVuSans-70" d="M 1159 525 
L 1159 -1331 
L 581 -1331 
L 581 3500 
L 1159 3500 
L 1159 2969 
Q 1341 3281 1617 3432 
Q 1894 3584 2278 3584 
Q 2916 3584 3314 3078 
Q 3713 2572 3713 1747 
Q 3713 922 3314 415 
Q 2916 -91 2278 -91 
Q 1894 -91 1617 61 
Q 1341 213 1159 525 
z
M 3116 1747 
Q 3116 2381 2855 2742 
Q 2594 3103 2138 3103 
Q 1681 3103 1420 2742 
Q 1159 2381 1159 1747 
Q 1159 1113 1420 752 
Q 1681 391 2138 391 
Q 2594 391 2855 752 
Q 3116 1113 3116 1747 
z
" transform="scale(0.015625)"/>
      <path id="DejaVuSans-72" d="M 2631 2963 
Q 2534 3019 2420 3045 
Q 2306 3072 2169 3072 
Q 1681 3072 1420 2755 
Q 1159 2438 1159 1844 
L 1159 0 
L 581 0 
L 581 3500 
L 1159 3500 
L 1159 2956 
Q 1341 3275 1631 3429 
Q 1922 3584 2338 3584 
Q 2397 3584 2469 3576 
Q 2541 3569 2628 3553 
L 2631 2963 
z
" transform="scale(0.015625)"/>
      <path id="DejaVuSans-6f" d="M 1959 3097 
Q 1497 3097 1228 2736 
Q 959 2375 959 1747 
Q 959 1119 1226 758 
Q 1494 397 1959 397 
Q 2419 397 2687 759 
Q 2956 1122 2956 1747 
Q 2956 2369 2687 2733 
Q 2419 3097 1959 3097 
z
M 1959 3584 
Q 2709 3584 3137 3096 
Q 3566 2609 3566 1747 
Q 3566 888 3137 398 
Q 2709 -91 1959 -91 
Q 1206 -91 779 398 
Q 353 888 353 1747 
Q 353 2609 779 3096 
Q 1206 3584 1959 3584 
z
" transform="scale(0.015625)"/>
      <path id="DejaVuSans-62" d="M 3116 1747 
Q 3116 2381 2855 2742 
Q 2594 3103 2138 3103 
Q 1681 3103 1420 2742 
Q 1159 2381 1159 1747 
Q 1159 1113 1420 752 
Q 1681 391 2138 391 
Q 2594 391 2855 752 
Q 3116 1113 3116 1747 
z
M 1159 2969 
Q 1341 3281 1617 3432 
Q 1894 3584 2278 3584 
Q 2916 3584 3314 3078 
Q 3713 2572 3713 1747 
Q 3713 922 3314 415 
Q 2916 -91 2278 -91 
Q 1894 -91 1617 61 
Q 1341 213 1159 525 
L 1159 0 
L 581 0 
L 581 4863 
L 1159 4863 
L 1159 2969 
z
" transform="scale(0.015625)"/>
      <path id="DejaVuSans-61" d="M 2194 1759 
Q 1497 1759 1228 1600 
Q 959 1441 959 1056 
Q 959 750 1161 570 
Q 1363 391 1709 391 
Q 2188 391 2477 730 
Q 2766 1069 2766 1631 
L 2766 1759 
L 2194 1759 
z
M 3341 1997 
L 3341 0 
L 2766 0 
L 2766 531 
Q 2569 213 2275 61 
Q 1981 -91 1556 -91 
Q 1019 -91 701 211 
Q 384 513 384 1019 
Q 384 1609 779 1909 
Q 1175 2209 1959 2209 
L 2766 2209 
L 2766 2266 
Q 2766 2663 2505 2880 
Q 2244 3097 1772 3097 
Q 1472 3097 1187 3025 
Q 903 2953 641 2809 
L 641 3341 
Q 956 3463 1253 3523 
Q 1550 3584 1831 3584 
Q 2591 3584 2966 3190 
Q 3341 2797 3341 1997 
z
" transform="scale(0.015625)"/>
      <path id="DejaVuSans-63" d="M 3122 3366 
L 3122 2828 
Q 2878 2963 2633 3030 
Q 2388 3097 2138 3097 
Q 1578 3097 1268 2742 
Q 959 2388 959 1747 
Q 959 1106 1268 751 
Q 1578 397 2138 397 
Q 2388 397 2633 464 
Q 2878 531 3122 666 
L 3122 134 
Q 2881 22 2623 -34 
Q 2366 -91 2075 -91 
Q 1284 -91 818 406 
Q 353 903 353 1747 
Q 353 2603 823 3093 
Q 1294 3584 2113 3584 
Q 2378 3584 2631 3529 
Q 2884 3475 3122 3366 
z
" transform="scale(0.015625)"/>
      <path id="DejaVuSans-67" d="M 2906 1791 
Q 2906 2416 2648 2759 
Q 2391 3103 1925 3103 
Q 1463 3103 1205 2759 
Q 947 2416 947 1791 
Q 947 1169 1205 825 
Q 1463 481 1925 481 
Q 2391 481 2648 825 
Q 2906 1169 2906 1791 
z
M 3481 434 
Q 3481 -459 3084 -895 
Q 2688 -1331 1869 -1331 
Q 1566 -1331 1297 -1286 
Q 1028 -1241 775 -1147 
L 775 -588 
Q 1028 -725 1275 -790 
Q 1522 -856 1778 -856 
Q 2344 -856 2625 -561 
Q 2906 -266 2906 331 
L 2906 616 
Q 2728 306 2450 153 
Q 2172 0 1784 0 
Q 1141 0 747 490 
Q 353 981 353 1791 
Q 353 2603 747 3093 
Q 1141 3584 1784 3584 
Q 2172 3584 2450 3431 
Q 2728 3278 2906 2969 
L 2906 3500 
L 3481 3500 
L 3481 434 
z
" transform="scale(0.015625)"/>
     </defs>
     <use xlink:href="#DejaVuSans-66"/>
     <use xlink:href="#DejaVuSans-69" x="35.205078"/>
     <use xlink:href="#DejaVuSans-78" x="62.988281"/>
     <use xlink:href="#DejaVuSans-65" x="119.042969"/>
     <use xlink:href="#DejaVuSans-64" x="180.566406"/>
     <use xlink:href="#DejaVuSans-5f" x="244.042969"/>
     <use xlink:href="#DejaVuSans-6a" x="294.042969"/>
     <use xlink:href="#DejaVuSans-65" x="321.826172"/>
     <use xlink:href="#DejaVuSans-65" x="383.349609"/>
     <use xlink:href="#DejaVuSans-76" x="444.873047"/>
     <use xlink:href="#DejaVuSans-65" x="504.052734"/>
     <use xlink:href="#DejaVuSans-73" x="565.576172"/>
     <use xlink:href="#DejaVuSans-70" x="617.675781"/>
     <use xlink:href="#DejaVuSans-72" x="681.152344"/>
     <use xlink:href="#DejaVuSans-6f" x="720.015625"/>
     <use xlink:href="#DejaVuSans-62" x="781.197266"/>
     <use xlink:href="#DejaVuSans-65" x="844.673828"/>
     <use xlink:href="#DejaVuSans-5f" x="906.197266"/>
     <use xlink:href="#DejaVuSans-32" x="956.197266"/>
     <use xlink:href="#DejaVuSans-61" x="1019.820312"/>
     <use xlink:href="#DejaVuSans-66" x="1081.099609"/>
     <use xlink:href="#DejaVuSans-63" x="1116.304688"/>
     <use xlink:href="#DejaVuSans-5f" x="1171.285156"/>
     <use xlink:href="#DejaVuSans-6f" x="1221.285156"/>
     <use xlink:href="#DejaVuSans-67" x="1282.466797"/>
    </g>
   </g>
   <g id="legend_1">
    <g id="patch_7">
     <path d="M 164.72125 271.48 
L 361.64 271.48 
Q 363.64 271.48 363.64 269.48 
L 363.64 135.87375 
Q 363.64 133.87375 361.64 133.87375 
L 164.72125 133.87375 
Q 162.72125 133.87375 162.72125 135.87375 
L 162.72125 269.48 
Q 162.72125 271.48 164.72125 271.48 
z
" style="fill: #ffffff; opacity: 0.8; stroke: #cccccc; stroke-linejoin: miter"/>
    </g>
    <g id="line2d_20">
     <path d="M 166.72125 141.972187 
L 176.72125 141.972187 
L 186.72125 141.972187 
" style="fill: none; stroke: #1f77b4; stroke-width: 1.5; stroke-linecap: square"/>
    </g>
    <g id="text_12">
     <!-- low_gauss_shape_to_color -->
     <g transform="translate(194.72125 145.472187) scale(0.1 -0.1)">
      <defs>
       <path id="DejaVuSans-6c" d="M 603 4863 
L 1178 4863 
L 1178 0 
L 603 0 
L 603 4863 
z
" transform="scale(0.015625)"/>
       <path id="DejaVuSans-77" d="M 269 3500 
L 844 3500 
L 1563 769 
L 2278 3500 
L 2956 3500 
L 3675 769 
L 4391 3500 
L 4966 3500 
L 4050 0 
L 3372 0 
L 2619 2869 
L 1863 0 
L 1184 0 
L 269 3500 
z
" transform="scale(0.015625)"/>
       <path id="DejaVuSans-75" d="M 544 1381 
L 544 3500 
L 1119 3500 
L 1119 1403 
Q 1119 906 1312 657 
Q 1506 409 1894 409 
Q 2359 409 2629 706 
Q 2900 1003 2900 1516 
L 2900 3500 
L 3475 3500 
L 3475 0 
L 2900 0 
L 2900 538 
Q 2691 219 2414 64 
Q 2138 -91 1772 -91 
Q 1169 -91 856 284 
Q 544 659 544 1381 
z
M 1991 3584 
L 1991 3584 
z
" transform="scale(0.015625)"/>
       <path id="DejaVuSans-68" d="M 3513 2113 
L 3513 0 
L 2938 0 
L 2938 2094 
Q 2938 2591 2744 2837 
Q 2550 3084 2163 3084 
Q 1697 3084 1428 2787 
Q 1159 2491 1159 1978 
L 1159 0 
L 581 0 
L 581 4863 
L 1159 4863 
L 1159 2956 
Q 1366 3272 1645 3428 
Q 1925 3584 2291 3584 
Q 2894 3584 3203 3211 
Q 3513 2838 3513 2113 
z
" transform="scale(0.015625)"/>
       <path id="DejaVuSans-74" d="M 1172 4494 
L 1172 3500 
L 2356 3500 
L 2356 3053 
L 1172 3053 
L 1172 1153 
Q 1172 725 1289 603 
Q 1406 481 1766 481 
L 2356 481 
L 2356 0 
L 1766 0 
Q 1100 0 847 248 
Q 594 497 594 1153 
L 594 3053 
L 172 3053 
L 172 3500 
L 594 3500 
L 594 4494 
L 1172 4494 
z
" transform="scale(0.015625)"/>
      </defs>
      <use xlink:href="#DejaVuSans-6c"/>
      <use xlink:href="#DejaVuSans-6f" x="27.783203"/>
      <use xlink:href="#DejaVuSans-77" x="88.964844"/>
      <use xlink:href="#DejaVuSans-5f" x="170.751953"/>
      <use xlink:href="#DejaVuSans-67" x="220.751953"/>
      <use xlink:href="#DejaVuSans-61" x="284.228516"/>
      <use xlink:href="#DejaVuSans-75" x="345.507812"/>
      <use xlink:href="#DejaVuSans-73" x="408.886719"/>
      <use xlink:href="#DejaVuSans-73" x="460.986328"/>
      <use xlink:href="#DejaVuSans-5f" x="513.085938"/>
      <use xlink:href="#DejaVuSans-73" x="563.085938"/>
      <use xlink:href="#DejaVuSans-68" x="615.185547"/>
      <use xlink:href="#DejaVuSans-61" x="678.564453"/>
      <use xlink:href="#DejaVuSans-70" x="739.84375"/>
      <use xlink:href="#DejaVuSans-65" x="803.320312"/>
      <use xlink:href="#DejaVuSans-5f" x="864.84375"/>
      <use xlink:href="#DejaVuSans-74" x="914.84375"/>
      <use xlink:href="#DejaVuSans-6f" x="954.052734"/>
      <use xlink:href="#DejaVuSans-5f" x="1015.234375"/>
      <use xlink:href="#DejaVuSans-63" x="1065.234375"/>
      <use xlink:href="#DejaVuSans-6f" x="1120.214844"/>
      <use xlink:href="#DejaVuSans-6c" x="1181.396484"/>
      <use xlink:href="#DejaVuSans-6f" x="1209.179688"/>
      <use xlink:href="#DejaVuSans-72" x="1270.361328"/>
     </g>
    </g>
    <g id="line2d_21">
     <path d="M 166.72125 156.928437 
L 176.72125 156.928437 
L 186.72125 156.928437 
" style="fill: none; stroke: #ff7f0e; stroke-width: 1.5; stroke-linecap: square"/>
    </g>
    <g id="text_13">
     <!-- focal_low_gauss_shape_to_color -->
     <g transform="translate(194.72125 160.428437) scale(0.1 -0.1)">
      <use xlink:href="#DejaVuSans-66"/>
      <use xlink:href="#DejaVuSans-6f" x="35.205078"/>
      <use xlink:href="#DejaVuSans-63" x="96.386719"/>
      <use xlink:href="#DejaVuSans-61" x="151.367188"/>
      <use xlink:href="#DejaVuSans-6c" x="212.646484"/>
      <use xlink:href="#DejaVuSans-5f" x="240.429688"/>
      <use xlink:href="#DejaVuSans-6c" x="290.429688"/>
      <use xlink:href="#DejaVuSans-6f" x="318.212891"/>
      <use xlink:href="#DejaVuSans-77" x="379.394531"/>
      <use xlink:href="#DejaVuSans-5f" x="461.181641"/>
      <use xlink:href="#DejaVuSans-67" x="511.181641"/>
      <use xlink:href="#DejaVuSans-61" x="574.658203"/>
      <use xlink:href="#DejaVuSans-75" x="635.9375"/>
      <use xlink:href="#DejaVuSans-73" x="699.316406"/>
      <use xlink:href="#DejaVuSans-73" x="751.416016"/>
      <use xlink:href="#DejaVuSans-5f" x="803.515625"/>
      <use xlink:href="#DejaVuSans-73" x="853.515625"/>
      <use xlink:href="#DejaVuSans-68" x="905.615234"/>
      <use xlink:href="#DejaVuSans-61" x="968.994141"/>
      <use xlink:href="#DejaVuSans-70" x="1030.273438"/>
      <use xlink:href="#DejaVuSans-65" x="1093.75"/>
      <use xlink:href="#DejaVuSans-5f" x="1155.273438"/>
      <use xlink:href="#DejaVuSans-74" x="1205.273438"/>
      <use xlink:href="#DejaVuSans-6f" x="1244.482422"/>
      <use xlink:href="#DejaVuSans-5f" x="1305.664062"/>
      <use xlink:href="#DejaVuSans-63" x="1355.664062"/>
      <use xlink:href="#DejaVuSans-6f" x="1410.644531"/>
      <use xlink:href="#DejaVuSans-6c" x="1471.826172"/>
      <use xlink:href="#DejaVuSans-6f" x="1499.609375"/>
      <use xlink:href="#DejaVuSans-72" x="1560.791016"/>
     </g>
    </g>
    <g id="line2d_22">
     <path d="M 166.72125 171.884687 
L 176.72125 171.884687 
L 186.72125 171.884687 
" style="fill: none; stroke: #2ca02c; stroke-width: 1.5; stroke-linecap: square"/>
    </g>
    <g id="text_14">
     <!-- high_gauss_shape_to_color -->
     <g transform="translate(194.72125 175.384687) scale(0.1 -0.1)">
      <use xlink:href="#DejaVuSans-68"/>
      <use xlink:href="#DejaVuSans-69" x="63.378906"/>
      <use xlink:href="#DejaVuSans-67" x="91.162109"/>
      <use xlink:href="#DejaVuSans-68" x="154.638672"/>
      <use xlink:href="#DejaVuSans-5f" x="218.017578"/>
      <use xlink:href="#DejaVuSans-67" x="268.017578"/>
      <use xlink:href="#DejaVuSans-61" x="331.494141"/>
      <use xlink:href="#DejaVuSans-75" x="392.773438"/>
      <use xlink:href="#DejaVuSans-73" x="456.152344"/>
      <use xlink:href="#DejaVuSans-73" x="508.251953"/>
      <use xlink:href="#DejaVuSans-5f" x="560.351562"/>
      <use xlink:href="#DejaVuSans-73" x="610.351562"/>
      <use xlink:href="#DejaVuSans-68" x="662.451172"/>
      <use xlink:href="#DejaVuSans-61" x="725.830078"/>
      <use xlink:href="#DejaVuSans-70" x="787.109375"/>
      <use xlink:href="#DejaVuSans-65" x="850.585938"/>
      <use xlink:href="#DejaVuSans-5f" x="912.109375"/>
      <use xlink:href="#DejaVuSans-74" x="962.109375"/>
      <use xlink:href="#DejaVuSans-6f" x="1001.318359"/>
      <use xlink:href="#DejaVuSans-5f" x="1062.5"/>
      <use xlink:href="#DejaVuSans-63" x="1112.5"/>
      <use xlink:href="#DejaVuSans-6f" x="1167.480469"/>
      <use xlink:href="#DejaVuSans-6c" x="1228.662109"/>
      <use xlink:href="#DejaVuSans-6f" x="1256.445312"/>
      <use xlink:href="#DejaVuSans-72" x="1317.626953"/>
     </g>
    </g>
    <g id="line2d_23">
     <path d="M 166.72125 186.840937 
L 176.72125 186.840937 
L 186.72125 186.840937 
" style="fill: none; stroke: #d62728; stroke-width: 1.5; stroke-linecap: square"/>
    </g>
    <g id="text_15">
     <!-- focal_high_gauss_shape_to_color -->
     <g transform="translate(194.72125 190.340937) scale(0.1 -0.1)">
      <use xlink:href="#DejaVuSans-66"/>
      <use xlink:href="#DejaVuSans-6f" x="35.205078"/>
      <use xlink:href="#DejaVuSans-63" x="96.386719"/>
      <use xlink:href="#DejaVuSans-61" x="151.367188"/>
      <use xlink:href="#DejaVuSans-6c" x="212.646484"/>
      <use xlink:href="#DejaVuSans-5f" x="240.429688"/>
      <use xlink:href="#DejaVuSans-68" x="290.429688"/>
      <use xlink:href="#DejaVuSans-69" x="353.808594"/>
      <use xlink:href="#DejaVuSans-67" x="381.591797"/>
      <use xlink:href="#DejaVuSans-68" x="445.068359"/>
      <use xlink:href="#DejaVuSans-5f" x="508.447266"/>
      <use xlink:href="#DejaVuSans-67" x="558.447266"/>
      <use xlink:href="#DejaVuSans-61" x="621.923828"/>
      <use xlink:href="#DejaVuSans-75" x="683.203125"/>
      <use xlink:href="#DejaVuSans-73" x="746.582031"/>
      <use xlink:href="#DejaVuSans-73" x="798.681641"/>
      <use xlink:href="#DejaVuSans-5f" x="850.78125"/>
      <use xlink:href="#DejaVuSans-73" x="900.78125"/>
      <use xlink:href="#DejaVuSans-68" x="952.880859"/>
      <use xlink:href="#DejaVuSans-61" x="1016.259766"/>
      <use xlink:href="#DejaVuSans-70" x="1077.539062"/>
      <use xlink:href="#DejaVuSans-65" x="1141.015625"/>
      <use xlink:href="#DejaVuSans-5f" x="1202.539062"/>
      <use xlink:href="#DejaVuSans-74" x="1252.539062"/>
      <use xlink:href="#DejaVuSans-6f" x="1291.748047"/>
      <use xlink:href="#DejaVuSans-5f" x="1352.929688"/>
      <use xlink:href="#DejaVuSans-63" x="1402.929688"/>
      <use xlink:href="#DejaVuSans-6f" x="1457.910156"/>
      <use xlink:href="#DejaVuSans-6c" x="1519.091797"/>
      <use xlink:href="#DejaVuSans-6f" x="1546.875"/>
      <use xlink:href="#DejaVuSans-72" x="1608.056641"/>
     </g>
    </g>
    <g id="line2d_24">
     <path d="M 166.72125 201.797188 
L 176.72125 201.797188 
L 186.72125 201.797188 
" style="fill: none; stroke: #9467bd; stroke-width: 1.5; stroke-linecap: square"/>
    </g>
    <g id="text_16">
     <!-- low_gauss_color_to_shape -->
     <g transform="translate(194.72125 205.297188) scale(0.1 -0.1)">
      <use xlink:href="#DejaVuSans-6c"/>
      <use xlink:href="#DejaVuSans-6f" x="27.783203"/>
      <use xlink:href="#DejaVuSans-77" x="88.964844"/>
      <use xlink:href="#DejaVuSans-5f" x="170.751953"/>
      <use xlink:href="#DejaVuSans-67" x="220.751953"/>
      <use xlink:href="#DejaVuSans-61" x="284.228516"/>
      <use xlink:href="#DejaVuSans-75" x="345.507812"/>
      <use xlink:href="#DejaVuSans-73" x="408.886719"/>
      <use xlink:href="#DejaVuSans-73" x="460.986328"/>
      <use xlink:href="#DejaVuSans-5f" x="513.085938"/>
      <use xlink:href="#DejaVuSans-63" x="563.085938"/>
      <use xlink:href="#DejaVuSans-6f" x="618.066406"/>
      <use xlink:href="#DejaVuSans-6c" x="679.248047"/>
      <use xlink:href="#DejaVuSans-6f" x="707.03125"/>
      <use xlink:href="#DejaVuSans-72" x="768.212891"/>
      <use xlink:href="#DejaVuSans-5f" x="809.326172"/>
      <use xlink:href="#DejaVuSans-74" x="859.326172"/>
      <use xlink:href="#DejaVuSans-6f" x="898.535156"/>
      <use xlink:href="#DejaVuSans-5f" x="959.716797"/>
      <use xlink:href="#DejaVuSans-73" x="1009.716797"/>
      <use xlink:href="#DejaVuSans-68" x="1061.816406"/>
      <use xlink:href="#DejaVuSans-61" x="1125.195312"/>
      <use xlink:href="#DejaVuSans-70" x="1186.474609"/>
      <use xlink:href="#DejaVuSans-65" x="1249.951172"/>
     </g>
    </g>
    <g id="line2d_25">
     <path d="M 166.72125 216.753437 
L 176.72125 216.753437 
L 186.72125 216.753437 
" style="fill: none; stroke: #8c564b; stroke-width: 1.5; stroke-linecap: square"/>
    </g>
    <g id="text_17">
     <!-- focal_low_gauss_color_to_shape -->
     <g transform="translate(194.72125 220.253437) scale(0.1 -0.1)">
      <use xlink:href="#DejaVuSans-66"/>
      <use xlink:href="#DejaVuSans-6f" x="35.205078"/>
      <use xlink:href="#DejaVuSans-63" x="96.386719"/>
      <use xlink:href="#DejaVuSans-61" x="151.367188"/>
      <use xlink:href="#DejaVuSans-6c" x="212.646484"/>
      <use xlink:href="#DejaVuSans-5f" x="240.429688"/>
      <use xlink:href="#DejaVuSans-6c" x="290.429688"/>
      <use xlink:href="#DejaVuSans-6f" x="318.212891"/>
      <use xlink:href="#DejaVuSans-77" x="379.394531"/>
      <use xlink:href="#DejaVuSans-5f" x="461.181641"/>
      <use xlink:href="#DejaVuSans-67" x="511.181641"/>
      <use xlink:href="#DejaVuSans-61" x="574.658203"/>
      <use xlink:href="#DejaVuSans-75" x="635.9375"/>
      <use xlink:href="#DejaVuSans-73" x="699.316406"/>
      <use xlink:href="#DejaVuSans-73" x="751.416016"/>
      <use xlink:href="#DejaVuSans-5f" x="803.515625"/>
      <use xlink:href="#DejaVuSans-63" x="853.515625"/>
      <use xlink:href="#DejaVuSans-6f" x="908.496094"/>
      <use xlink:href="#DejaVuSans-6c" x="969.677734"/>
      <use xlink:href="#DejaVuSans-6f" x="997.460938"/>
      <use xlink:href="#DejaVuSans-72" x="1058.642578"/>
      <use xlink:href="#DejaVuSans-5f" x="1099.755859"/>
      <use xlink:href="#DejaVuSans-74" x="1149.755859"/>
      <use xlink:href="#DejaVuSans-6f" x="1188.964844"/>
      <use xlink:href="#DejaVuSans-5f" x="1250.146484"/>
      <use xlink:href="#DejaVuSans-73" x="1300.146484"/>
      <use xlink:href="#DejaVuSans-68" x="1352.246094"/>
      <use xlink:href="#DejaVuSans-61" x="1415.625"/>
      <use xlink:href="#DejaVuSans-70" x="1476.904297"/>
      <use xlink:href="#DejaVuSans-65" x="1540.380859"/>
     </g>
    </g>
    <g id="line2d_26">
     <path d="M 166.72125 231.709687 
L 176.72125 231.709687 
L 186.72125 231.709687 
" style="fill: none; stroke: #e377c2; stroke-width: 1.5; stroke-linecap: square"/>
    </g>
    <g id="text_18">
     <!-- high_gauss_color_to_shape -->
     <g transform="translate(194.72125 235.209687) scale(0.1 -0.1)">
      <use xlink:href="#DejaVuSans-68"/>
      <use xlink:href="#DejaVuSans-69" x="63.378906"/>
      <use xlink:href="#DejaVuSans-67" x="91.162109"/>
      <use xlink:href="#DejaVuSans-68" x="154.638672"/>
      <use xlink:href="#DejaVuSans-5f" x="218.017578"/>
      <use xlink:href="#DejaVuSans-67" x="268.017578"/>
      <use xlink:href="#DejaVuSans-61" x="331.494141"/>
      <use xlink:href="#DejaVuSans-75" x="392.773438"/>
      <use xlink:href="#DejaVuSans-73" x="456.152344"/>
      <use xlink:href="#DejaVuSans-73" x="508.251953"/>
      <use xlink:href="#DejaVuSans-5f" x="560.351562"/>
      <use xlink:href="#DejaVuSans-63" x="610.351562"/>
      <use xlink:href="#DejaVuSans-6f" x="665.332031"/>
      <use xlink:href="#DejaVuSans-6c" x="726.513672"/>
      <use xlink:href="#DejaVuSans-6f" x="754.296875"/>
      <use xlink:href="#DejaVuSans-72" x="815.478516"/>
      <use xlink:href="#DejaVuSans-5f" x="856.591797"/>
      <use xlink:href="#DejaVuSans-74" x="906.591797"/>
      <use xlink:href="#DejaVuSans-6f" x="945.800781"/>
      <use xlink:href="#DejaVuSans-5f" x="1006.982422"/>
      <use xlink:href="#DejaVuSans-73" x="1056.982422"/>
      <use xlink:href="#DejaVuSans-68" x="1109.082031"/>
      <use xlink:href="#DejaVuSans-61" x="1172.460938"/>
      <use xlink:href="#DejaVuSans-70" x="1233.740234"/>
      <use xlink:href="#DejaVuSans-65" x="1297.216797"/>
     </g>
    </g>
    <g id="line2d_27">
     <path d="M 166.72125 246.665937 
L 176.72125 246.665937 
L 186.72125 246.665937 
" style="fill: none; stroke: #7f7f7f; stroke-width: 1.5; stroke-linecap: square"/>
    </g>
    <g id="text_19">
     <!-- focal_high_gauss_color_to_shape -->
     <g transform="translate(194.72125 250.165937) scale(0.1 -0.1)">
      <use xlink:href="#DejaVuSans-66"/>
      <use xlink:href="#DejaVuSans-6f" x="35.205078"/>
      <use xlink:href="#DejaVuSans-63" x="96.386719"/>
      <use xlink:href="#DejaVuSans-61" x="151.367188"/>
      <use xlink:href="#DejaVuSans-6c" x="212.646484"/>
      <use xlink:href="#DejaVuSans-5f" x="240.429688"/>
      <use xlink:href="#DejaVuSans-68" x="290.429688"/>
      <use xlink:href="#DejaVuSans-69" x="353.808594"/>
      <use xlink:href="#DejaVuSans-67" x="381.591797"/>
      <use xlink:href="#DejaVuSans-68" x="445.068359"/>
      <use xlink:href="#DejaVuSans-5f" x="508.447266"/>
      <use xlink:href="#DejaVuSans-67" x="558.447266"/>
      <use xlink:href="#DejaVuSans-61" x="621.923828"/>
      <use xlink:href="#DejaVuSans-75" x="683.203125"/>
      <use xlink:href="#DejaVuSans-73" x="746.582031"/>
      <use xlink:href="#DejaVuSans-73" x="798.681641"/>
      <use xlink:href="#DejaVuSans-5f" x="850.78125"/>
      <use xlink:href="#DejaVuSans-63" x="900.78125"/>
      <use xlink:href="#DejaVuSans-6f" x="955.761719"/>
      <use xlink:href="#DejaVuSans-6c" x="1016.943359"/>
      <use xlink:href="#DejaVuSans-6f" x="1044.726562"/>
      <use xlink:href="#DejaVuSans-72" x="1105.908203"/>
      <use xlink:href="#DejaVuSans-5f" x="1147.021484"/>
      <use xlink:href="#DejaVuSans-74" x="1197.021484"/>
      <use xlink:href="#DejaVuSans-6f" x="1236.230469"/>
      <use xlink:href="#DejaVuSans-5f" x="1297.412109"/>
      <use xlink:href="#DejaVuSans-73" x="1347.412109"/>
      <use xlink:href="#DejaVuSans-68" x="1399.511719"/>
      <use xlink:href="#DejaVuSans-61" x="1462.890625"/>
      <use xlink:href="#DejaVuSans-70" x="1524.169922"/>
      <use xlink:href="#DejaVuSans-65" x="1587.646484"/>
     </g>
    </g>
    <g id="line2d_28">
     <path d="M 166.72125 261.622187 
L 176.72125 261.622187 
L 186.72125 261.622187 
" style="fill: none; stroke: #bcbd22; stroke-width: 1.5; stroke-linecap: square"/>
    </g>
    <g id="text_20">
     <!-- achromatic_shape_to_shape -->
     <g transform="translate(194.72125 265.122187) scale(0.1 -0.1)">
      <defs>
       <path id="DejaVuSans-6d" d="M 3328 2828 
Q 3544 3216 3844 3400 
Q 4144 3584 4550 3584 
Q 5097 3584 5394 3201 
Q 5691 2819 5691 2113 
L 5691 0 
L 5113 0 
L 5113 2094 
Q 5113 2597 4934 2840 
Q 4756 3084 4391 3084 
Q 3944 3084 3684 2787 
Q 3425 2491 3425 1978 
L 3425 0 
L 2847 0 
L 2847 2094 
Q 2847 2600 2669 2842 
Q 2491 3084 2119 3084 
Q 1678 3084 1418 2786 
Q 1159 2488 1159 1978 
L 1159 0 
L 581 0 
L 581 3500 
L 1159 3500 
L 1159 2956 
Q 1356 3278 1631 3431 
Q 1906 3584 2284 3584 
Q 2666 3584 2933 3390 
Q 3200 3197 3328 2828 
z
" transform="scale(0.015625)"/>
      </defs>
      <use xlink:href="#DejaVuSans-61"/>
      <use xlink:href="#DejaVuSans-63" x="61.279297"/>
      <use xlink:href="#DejaVuSans-68" x="116.259766"/>
      <use xlink:href="#DejaVuSans-72" x="179.638672"/>
      <use xlink:href="#DejaVuSans-6f" x="218.501953"/>
      <use xlink:href="#DejaVuSans-6d" x="279.683594"/>
      <use xlink:href="#DejaVuSans-61" x="377.095703"/>
      <use xlink:href="#DejaVuSans-74" x="438.375"/>
      <use xlink:href="#DejaVuSans-69" x="477.583984"/>
      <use xlink:href="#DejaVuSans-63" x="505.367188"/>
      <use xlink:href="#DejaVuSans-5f" x="560.347656"/>
      <use xlink:href="#DejaVuSans-73" x="610.347656"/>
      <use xlink:href="#DejaVuSans-68" x="662.447266"/>
      <use xlink:href="#DejaVuSans-61" x="725.826172"/>
      <use xlink:href="#DejaVuSans-70" x="787.105469"/>
      <use xlink:href="#DejaVuSans-65" x="850.582031"/>
      <use xlink:href="#DejaVuSans-5f" x="912.105469"/>
      <use xlink:href="#DejaVuSans-74" x="962.105469"/>
      <use xlink:href="#DejaVuSans-6f" x="1001.314453"/>
      <use xlink:href="#DejaVuSans-5f" x="1062.496094"/>
      <use xlink:href="#DejaVuSans-73" x="1112.496094"/>
      <use xlink:href="#DejaVuSans-68" x="1164.595703"/>
      <use xlink:href="#DejaVuSans-61" x="1227.974609"/>
      <use xlink:href="#DejaVuSans-70" x="1289.253906"/>
      <use xlink:href="#DejaVuSans-65" x="1352.730469"/>
     </g>
    </g>
   </g>
  </g>
 </g>
 <defs>
  <clipPath id="p95ab2a5c41">
   <rect x="92.16" y="69.12" width="276.48" height="207.36"/>
  </clipPath>
 </defs>
</svg>
