<?xml version="1.0" encoding="utf-8" standalone="no"?>
<!DOCTYPE svg PUBLIC "-//W3C//DTD SVG 1.1//EN"
  "http://www.w3.org/Graphics/SVG/1.1/DTD/svg11.dtd">
<svg xmlns:xlink="http://www.w3.org/1999/xlink" width="460.8pt" height="345.6pt" viewBox="0 0 460.8 345.6" xmlns="http://www.w3.org/2000/svg" version="1.1">
 <metadata>
  <rdf:RDF xmlns:dc="http://purl.org/dc/elements/1.1/" xmlns:cc="http://creativecommons.org/ns#" xmlns:rdf="http://www.w3.org/1999/02/22-rdf-syntax-ns#">
   <cc:Work>
    <dc:type rdf:resource="http://purl.org/dc/dcmitype/StillImage"/>
    <dc:date>2023-09-28T11:45:57.683331</dc:date>
    <dc:format>image/svg+xml</dc:format>
    <dc:creator>
     <cc:Agent>
      <dc:title>Matplotlib v3.7.1, https://matplotlib.org/</dc:title>
     </cc:Agent>
    </dc:creator>
   </cc:Work>
  </rdf:RDF>
 </metadata>
 <defs>
  <style type="text/css">*{stroke-linejoin: round; stroke-linecap: butt}</style>
 </defs>
 <g id="figure_1">
  <g id="patch_1">
   <path d="M 0 345.6 
L 460.8 345.6 
L 460.8 0 
L 0 0 
z
" style="fill: #ffffff"/>
  </g>
  <g id="axes_1">
   <g id="patch_2">
    <path d="M 92.16 276.48 
L 368.64 276.48 
L 368.64 69.12 
L 92.16 69.12 
z
" style="fill: #ffffff"/>
   </g>
   <g id="matplotlib.axis_1">
    <g id="xtick_1">
     <g id="line2d_1">
      <defs>
       <path id="m9f87b04409" d="M 0 0 
L 0 3.5 
" style="stroke: #000000; stroke-width: 0.8"/>
      </defs>
      <g>
       <use xlink:href="#m9f87b04409" x="104.727273" y="276.48" style="stroke: #000000; stroke-width: 0.8"/>
      </g>
     </g>
     <g id="text_1">
      <!-- 0 -->
      <g transform="translate(101.546023 291.078437) scale(0.1 -0.1)">
       <defs>
        <path id="DejaVuSans-30" d="M 2034 4250 
Q 1547 4250 1301 3770 
Q 1056 3291 1056 2328 
Q 1056 1369 1301 889 
Q 1547 409 2034 409 
Q 2525 409 2770 889 
Q 3016 1369 3016 2328 
Q 3016 3291 2770 3770 
Q 2525 4250 2034 4250 
z
M 2034 4750 
Q 2819 4750 3233 4129 
Q 3647 3509 3647 2328 
Q 3647 1150 3233 529 
Q 2819 -91 2034 -91 
Q 1250 -91 836 529 
Q 422 1150 422 2328 
Q 422 3509 836 4129 
Q 1250 4750 2034 4750 
z
" transform="scale(0.015625)"/>
       </defs>
       <use xlink:href="#DejaVuSans-30"/>
      </g>
     </g>
    </g>
    <g id="xtick_2">
     <g id="line2d_2">
      <g>
       <use xlink:href="#m9f87b04409" x="159.546347" y="276.48" style="stroke: #000000; stroke-width: 0.8"/>
      </g>
     </g>
     <g id="text_2">
      <!-- 200 -->
      <g transform="translate(150.002597 291.078437) scale(0.1 -0.1)">
       <defs>
        <path id="DejaVuSans-32" d="M 1228 531 
L 3431 531 
L 3431 0 
L 469 0 
L 469 531 
Q 828 903 1448 1529 
Q 2069 2156 2228 2338 
Q 2531 2678 2651 2914 
Q 2772 3150 2772 3378 
Q 2772 3750 2511 3984 
Q 2250 4219 1831 4219 
Q 1534 4219 1204 4116 
Q 875 4013 500 3803 
L 500 4441 
Q 881 4594 1212 4672 
Q 1544 4750 1819 4750 
Q 2544 4750 2975 4387 
Q 3406 4025 3406 3419 
Q 3406 3131 3298 2873 
Q 3191 2616 2906 2266 
Q 2828 2175 2409 1742 
Q 1991 1309 1228 531 
z
" transform="scale(0.015625)"/>
       </defs>
       <use xlink:href="#DejaVuSans-32"/>
       <use xlink:href="#DejaVuSans-30" x="63.623047"/>
       <use xlink:href="#DejaVuSans-30" x="127.246094"/>
      </g>
     </g>
    </g>
    <g id="xtick_3">
     <g id="line2d_3">
      <g>
       <use xlink:href="#m9f87b04409" x="214.365421" y="276.48" style="stroke: #000000; stroke-width: 0.8"/>
      </g>
     </g>
     <g id="text_3">
      <!-- 400 -->
      <g transform="translate(204.821671 291.078437) scale(0.1 -0.1)">
       <defs>
        <path id="DejaVuSans-34" d="M 2419 4116 
L 825 1625 
L 2419 1625 
L 2419 4116 
z
M 2253 4666 
L 3047 4666 
L 3047 1625 
L 3713 1625 
L 3713 1100 
L 3047 1100 
L 3047 0 
L 2419 0 
L 2419 1100 
L 313 1100 
L 313 1709 
L 2253 4666 
z
" transform="scale(0.015625)"/>
       </defs>
       <use xlink:href="#DejaVuSans-34"/>
       <use xlink:href="#DejaVuSans-30" x="63.623047"/>
       <use xlink:href="#DejaVuSans-30" x="127.246094"/>
      </g>
     </g>
    </g>
    <g id="xtick_4">
     <g id="line2d_4">
      <g>
       <use xlink:href="#m9f87b04409" x="269.184495" y="276.48" style="stroke: #000000; stroke-width: 0.8"/>
      </g>
     </g>
     <g id="text_4">
      <!-- 600 -->
      <g transform="translate(259.640745 291.078437) scale(0.1 -0.1)">
       <defs>
        <path id="DejaVuSans-36" d="M 2113 2584 
Q 1688 2584 1439 2293 
Q 1191 2003 1191 1497 
Q 1191 994 1439 701 
Q 1688 409 2113 409 
Q 2538 409 2786 701 
Q 3034 994 3034 1497 
Q 3034 2003 2786 2293 
Q 2538 2584 2113 2584 
z
M 3366 4563 
L 3366 3988 
Q 3128 4100 2886 4159 
Q 2644 4219 2406 4219 
Q 1781 4219 1451 3797 
Q 1122 3375 1075 2522 
Q 1259 2794 1537 2939 
Q 1816 3084 2150 3084 
Q 2853 3084 3261 2657 
Q 3669 2231 3669 1497 
Q 3669 778 3244 343 
Q 2819 -91 2113 -91 
Q 1303 -91 875 529 
Q 447 1150 447 2328 
Q 447 3434 972 4092 
Q 1497 4750 2381 4750 
Q 2619 4750 2861 4703 
Q 3103 4656 3366 4563 
z
" transform="scale(0.015625)"/>
       </defs>
       <use xlink:href="#DejaVuSans-36"/>
       <use xlink:href="#DejaVuSans-30" x="63.623047"/>
       <use xlink:href="#DejaVuSans-30" x="127.246094"/>
      </g>
     </g>
    </g>
    <g id="xtick_5">
     <g id="line2d_5">
      <g>
       <use xlink:href="#m9f87b04409" x="324.003569" y="276.48" style="stroke: #000000; stroke-width: 0.8"/>
      </g>
     </g>
     <g id="text_5">
      <!-- 800 -->
      <g transform="translate(314.459819 291.078437) scale(0.1 -0.1)">
       <defs>
        <path id="DejaVuSans-38" d="M 2034 2216 
Q 1584 2216 1326 1975 
Q 1069 1734 1069 1313 
Q 1069 891 1326 650 
Q 1584 409 2034 409 
Q 2484 409 2743 651 
Q 3003 894 3003 1313 
Q 3003 1734 2745 1975 
Q 2488 2216 2034 2216 
z
M 1403 2484 
Q 997 2584 770 2862 
Q 544 3141 544 3541 
Q 544 4100 942 4425 
Q 1341 4750 2034 4750 
Q 2731 4750 3128 4425 
Q 3525 4100 3525 3541 
Q 3525 3141 3298 2862 
Q 3072 2584 2669 2484 
Q 3125 2378 3379 2068 
Q 3634 1759 3634 1313 
Q 3634 634 3220 271 
Q 2806 -91 2034 -91 
Q 1263 -91 848 271 
Q 434 634 434 1313 
Q 434 1759 690 2068 
Q 947 2378 1403 2484 
z
M 1172 3481 
Q 1172 3119 1398 2916 
Q 1625 2713 2034 2713 
Q 2441 2713 2670 2916 
Q 2900 3119 2900 3481 
Q 2900 3844 2670 4047 
Q 2441 4250 2034 4250 
Q 1625 4250 1398 4047 
Q 1172 3844 1172 3481 
z
" transform="scale(0.015625)"/>
       </defs>
       <use xlink:href="#DejaVuSans-38"/>
       <use xlink:href="#DejaVuSans-30" x="63.623047"/>
       <use xlink:href="#DejaVuSans-30" x="127.246094"/>
      </g>
     </g>
    </g>
   </g>
   <g id="matplotlib.axis_2">
    <g id="ytick_1">
     <g id="line2d_6">
      <defs>
       <path id="md038403531" d="M 0 0 
L -3.5 0 
" style="stroke: #000000; stroke-width: 0.8"/>
      </defs>
      <g>
       <use xlink:href="#md038403531" x="92.16" y="241.580344" style="stroke: #000000; stroke-width: 0.8"/>
      </g>
     </g>
     <g id="text_6">
      <!-- 0.2 -->
      <g transform="translate(69.256875 245.379563) scale(0.1 -0.1)">
       <defs>
        <path id="DejaVuSans-2e" d="M 684 794 
L 1344 794 
L 1344 0 
L 684 0 
L 684 794 
z
" transform="scale(0.015625)"/>
       </defs>
       <use xlink:href="#DejaVuSans-30"/>
       <use xlink:href="#DejaVuSans-2e" x="63.623047"/>
       <use xlink:href="#DejaVuSans-32" x="95.410156"/>
      </g>
     </g>
    </g>
    <g id="ytick_2">
     <g id="line2d_7">
      <g>
       <use xlink:href="#md038403531" x="92.16" y="200.821622" style="stroke: #000000; stroke-width: 0.8"/>
      </g>
     </g>
     <g id="text_7">
      <!-- 0.4 -->
      <g transform="translate(69.256875 204.62084) scale(0.1 -0.1)">
       <use xlink:href="#DejaVuSans-30"/>
       <use xlink:href="#DejaVuSans-2e" x="63.623047"/>
       <use xlink:href="#DejaVuSans-34" x="95.410156"/>
      </g>
     </g>
    </g>
    <g id="ytick_3">
     <g id="line2d_8">
      <g>
       <use xlink:href="#md038403531" x="92.16" y="160.062899" style="stroke: #000000; stroke-width: 0.8"/>
      </g>
     </g>
     <g id="text_8">
      <!-- 0.6 -->
      <g transform="translate(69.256875 163.862118) scale(0.1 -0.1)">
       <use xlink:href="#DejaVuSans-30"/>
       <use xlink:href="#DejaVuSans-2e" x="63.623047"/>
       <use xlink:href="#DejaVuSans-36" x="95.410156"/>
      </g>
     </g>
    </g>
    <g id="ytick_4">
     <g id="line2d_9">
      <g>
       <use xlink:href="#md038403531" x="92.16" y="119.304177" style="stroke: #000000; stroke-width: 0.8"/>
      </g>
     </g>
     <g id="text_9">
      <!-- 0.8 -->
      <g transform="translate(69.256875 123.103396) scale(0.1 -0.1)">
       <use xlink:href="#DejaVuSans-30"/>
       <use xlink:href="#DejaVuSans-2e" x="63.623047"/>
       <use xlink:href="#DejaVuSans-38" x="95.410156"/>
      </g>
     </g>
    </g>
    <g id="ytick_5">
     <g id="line2d_10">
      <g>
       <use xlink:href="#md038403531" x="92.16" y="78.545455" style="stroke: #000000; stroke-width: 0.8"/>
      </g>
     </g>
     <g id="text_10">
      <!-- 1.0 -->
      <g transform="translate(69.256875 82.344673) scale(0.1 -0.1)">
       <defs>
        <path id="DejaVuSans-31" d="M 794 531 
L 1825 531 
L 1825 4091 
L 703 3866 
L 703 4441 
L 1819 4666 
L 2450 4666 
L 2450 531 
L 3481 531 
L 3481 0 
L 794 0 
L 794 531 
z
" transform="scale(0.015625)"/>
       </defs>
       <use xlink:href="#DejaVuSans-31"/>
       <use xlink:href="#DejaVuSans-2e" x="63.623047"/>
       <use xlink:href="#DejaVuSans-30" x="95.410156"/>
      </g>
     </g>
    </g>
   </g>
   <g id="line2d_11">
    <path d="M 104.727273 109.114496 
L 106.64594 109.114496 
L 106.920036 110.133464 
L 107.742322 110.133464 
L 108.016417 109.114496 
L 108.838703 109.114496 
L 109.386894 107.07656 
L 110.20918 107.07656 
L 110.483276 106.057592 
L 111.305562 106.057592 
L 111.579657 105.038624 
L 112.676038 105.038624 
L 112.950134 106.057592 
L 113.77242 106.057592 
L 114.046515 105.038624 
L 114.320611 105.038624 
L 114.594706 104.019656 
L 117.33566 104.019656 
L 117.609755 103.000688 
L 119.802518 103.000688 
L 120.076613 104.019656 
L 120.350709 103.000688 
L 120.624804 103.000688 
L 120.8989 101.98172 
L 121.172995 103.000688 
L 121.995281 103.000688 
L 122.269376 104.019656 
L 124.188044 104.019656 
L 124.462139 103.000688 
L 125.832616 103.000688 
L 126.380807 100.962752 
L 127.751284 100.962752 
L 128.025379 99.943784 
L 128.57357 99.943784 
L 128.847665 100.962752 
L 136.24824 100.962752 
L 136.522336 99.943784 
L 137.892813 99.943784 
L 138.441003 97.905848 
L 139.81148 97.905848 
L 140.085575 96.88688 
L 141.730148 96.88688 
L 142.004243 97.905848 
L 142.826529 97.905848 
L 143.37472 99.943784 
L 143.648815 98.924816 
L 143.922911 98.924816 
L 144.197006 97.905848 
L 146.663864 97.905848 
L 146.93796 96.88688 
L 149.130723 96.88688 
L 149.404818 97.905848 
L 149.678913 97.905848 
L 149.953009 96.88688 
L 150.227104 96.88688 
L 150.5012 95.867912 
L 153.790344 95.867912 
L 154.064439 94.848943 
L 154.338535 94.848943 
L 154.61263 95.867912 
L 154.886725 95.867912 
L 155.434916 93.829975 
L 156.257202 93.829975 
L 156.531298 92.811007 
L 161.465014 92.811007 
L 161.73911 91.792039 
L 162.013205 92.811007 
L 163.931873 92.811007 
L 164.205968 93.829975 
L 164.754159 93.829975 
L 165.028254 94.848943 
L 165.30235 94.848943 
L 165.576445 95.867912 
L 167.495113 95.867912 
L 167.769208 94.848943 
L 171.606543 94.848943 
L 171.880638 95.867912 
L 172.97702 95.867912 
L 173.251115 96.88688 
L 174.621592 96.88688 
L 174.895688 95.867912 
L 175.443878 97.905848 
L 175.717974 97.905848 
L 175.992069 96.88688 
L 176.266164 97.905848 
L 178.458927 97.905848 
L 178.733023 98.924816 
L 179.555309 98.924816 
L 179.829404 99.943784 
L 180.377595 99.943784 
L 180.65169 100.962752 
L 183.392644 100.962752 
L 183.666739 99.943784 
L 186.133598 99.943784 
L 186.407693 98.924816 
L 187.504075 98.924816 
L 187.77817 97.905848 
L 191.34141 97.905848 
L 191.615505 98.924816 
L 192.711887 98.924816 
L 192.985982 99.943784 
L 193.260077 99.943784 
L 193.534173 100.962752 
L 194.082363 100.962752 
L 194.356459 101.98172 
L 196.549222 101.98172 
L 196.823317 100.962752 
L 197.919699 100.962752 
L 198.193794 99.943784 
L 199.01608 99.943784 
L 199.290175 100.962752 
L 199.564271 100.962752 
L 199.838366 101.98172 
L 200.112462 101.98172 
L 200.660652 104.019656 
L 203.949797 104.019656 
L 204.223892 103.000688 
L 205.320274 103.000688 
L 205.594369 104.019656 
L 207.513037 104.019656 
L 207.787132 103.000688 
L 208.609418 103.000688 
L 208.883513 104.019656 
L 216.558184 104.019656 
L 216.832279 103.000688 
L 217.106375 104.019656 
L 217.928661 104.019656 
L 218.202756 105.038624 
L 218.750947 105.038624 
L 219.025042 104.019656 
L 219.573233 104.019656 
L 219.847328 103.000688 
L 220.121424 103.000688 
L 220.395519 101.98172 
L 223.136473 101.98172 
L 223.410568 103.000688 
L 226.425617 103.000688 
L 226.699713 101.98172 
L 226.973808 101.98172 
L 227.247903 103.000688 
L 227.796094 103.000688 
L 228.070189 101.98172 
L 229.714762 101.98172 
L 230.262952 99.943784 
L 230.811143 99.943784 
L 231.085238 98.924816 
L 231.633429 98.924816 
L 231.907525 97.905848 
L 233.278001 97.905848 
L 233.552097 96.88688 
L 234.374383 96.88688 
L 234.648478 95.867912 
L 235.196669 95.867912 
L 235.470764 94.848943 
L 237.115337 94.848943 
L 237.389432 95.867912 
L 237.663527 95.867912 
L 237.937623 96.88688 
L 244.241816 96.88688 
L 244.515912 97.905848 
L 246.160484 97.905848 
L 246.434579 96.88688 
L 247.530961 96.88688 
L 247.805056 95.867912 
L 248.079151 95.867912 
L 248.353247 94.848943 
L 248.627342 94.848943 
L 248.901437 95.867912 
L 249.175533 94.848943 
L 252.464677 94.848943 
L 252.738773 93.829975 
L 253.835154 93.829975 
L 254.10925 92.811007 
L 254.383345 92.811007 
L 254.65744 91.792039 
L 254.931536 91.792039 
L 255.205631 90.773071 
L 257.124299 90.773071 
L 257.398394 91.792039 
L 258.494775 91.792039 
L 258.768871 92.811007 
L 259.865252 92.811007 
L 260.139348 93.829975 
L 260.413443 92.811007 
L 263.428492 92.811007 
L 263.702587 91.792039 
L 263.976683 91.792039 
L 264.250778 90.773071 
L 264.524874 90.773071 
L 264.798969 91.792039 
L 265.89535 91.792039 
L 266.169446 92.811007 
L 267.265827 92.811007 
L 267.539923 93.829975 
L 269.184495 93.829975 
L 269.45859 94.848943 
L 271.651353 94.848943 
L 271.925449 93.829975 
L 272.747735 93.829975 
L 273.02183 92.811007 
L 275.762784 92.811007 
L 276.036879 93.829975 
L 277.955547 93.829975 
L 278.229642 92.811007 
L 280.14831 92.811007 
L 280.422405 93.829975 
L 281.792882 93.829975 
L 282.066977 92.811007 
L 286.726599 92.811007 
L 287.000694 93.829975 
L 287.274789 93.829975 
L 287.548885 94.848943 
L 289.467552 94.848943 
L 289.467552 94.848943 
" clip-path="url(#pdd507b2e8e)" style="fill: none; stroke: #1f77b4; stroke-width: 1.5; stroke-linecap: square"/>
   </g>
   <g id="line2d_12">
    <path d="M 104.727273 78.545455 
L 289.193457 78.545455 
L 289.193457 78.545455 
" clip-path="url(#pdd507b2e8e)" style="fill: none; stroke: #ff7f0e; stroke-width: 1.5; stroke-linecap: square"/>
   </g>
   <g id="line2d_13">
    <path d="M 104.727273 107.07656 
L 106.64594 107.07656 
L 107.468226 110.133464 
L 108.016417 110.133464 
L 108.290513 109.114496 
L 108.564608 109.114496 
L 108.838703 108.095528 
L 109.386894 108.095528 
L 109.660989 107.07656 
L 110.20918 107.07656 
L 110.483276 106.057592 
L 110.757371 106.057592 
L 111.305562 104.019656 
L 112.401943 104.019656 
L 112.676038 103.000688 
L 117.33566 103.000688 
L 117.609755 101.98172 
L 118.980232 101.98172 
L 119.254327 100.962752 
L 120.8989 100.962752 
L 121.172995 101.98172 
L 124.188044 101.98172 
L 124.462139 100.962752 
L 124.736235 100.962752 
L 125.284425 98.924816 
L 126.380807 98.924816 
L 126.654902 99.943784 
L 126.928998 99.943784 
L 127.477188 101.98172 
L 129.669951 101.98172 
L 129.944047 100.962752 
L 130.218142 101.98172 
L 131.314524 101.98172 
L 131.588619 103.000688 
L 134.329573 103.000688 
L 134.603668 101.98172 
L 138.989194 101.98172 
L 139.263289 100.962752 
L 139.537385 100.962752 
L 139.81148 101.98172 
L 140.085575 100.962752 
L 141.456052 100.962752 
L 141.730148 101.98172 
L 142.552434 101.98172 
L 142.826529 103.000688 
L 143.37472 103.000688 
L 143.648815 104.019656 
L 145.019292 104.019656 
L 145.293388 103.000688 
L 146.663864 103.000688 
L 146.93796 101.98172 
L 152.968058 101.98172 
L 153.516249 99.943784 
L 153.790344 99.943784 
L 154.064439 98.924816 
L 154.61263 98.924816 
L 154.886725 97.905848 
L 155.709012 97.905848 
L 155.983107 98.924816 
L 156.257202 97.905848 
L 158.449965 97.905848 
L 158.724061 98.924816 
L 158.998156 97.905848 
L 160.094538 97.905848 
L 160.368633 96.88688 
L 160.642728 96.88688 
L 160.916824 97.905848 
L 161.465014 97.905848 
L 162.2873 94.848943 
L 163.109587 94.848943 
L 163.383682 95.867912 
L 164.205968 95.867912 
L 164.480063 96.88688 
L 168.317399 96.88688 
L 168.591494 97.905848 
L 175.717974 97.905848 
L 175.992069 96.88688 
L 177.636641 96.88688 
L 177.910737 97.905848 
L 178.733023 97.905848 
L 179.007118 98.924816 
L 181.199881 98.924816 
L 181.473976 97.905848 
L 181.748072 97.905848 
L 182.022167 96.88688 
L 184.21493 96.88688 
L 184.489025 97.905848 
L 184.763121 97.905848 
L 185.037216 96.88688 
L 185.311312 97.905848 
L 186.133598 97.905848 
L 186.407693 96.88688 
L 187.504075 96.88688 
L 187.77817 97.905848 
L 194.082363 97.905848 
L 194.630554 95.867912 
L 197.371508 95.867912 
L 197.645603 94.848943 
L 206.416655 94.848943 
L 206.69075 93.829975 
L 209.979895 93.829975 
L 210.25399 94.848943 
L 210.802181 92.811007 
L 211.076276 92.811007 
L 211.350372 93.829975 
L 213.269039 93.829975 
L 213.543135 92.811007 
L 214.639516 92.811007 
L 214.913612 93.829975 
L 215.461802 93.829975 
L 215.735898 92.811007 
L 217.928661 92.811007 
L 218.202756 91.792039 
L 219.025042 91.792039 
L 219.299138 90.773071 
L 219.573233 91.792039 
L 232.455715 91.792039 
L 232.729811 90.773071 
L 233.003906 91.792039 
L 233.552097 91.792039 
L 233.826192 90.773071 
L 234.100287 90.773071 
L 234.374383 91.792039 
L 234.922574 91.792039 
L 235.196669 92.811007 
L 236.841241 92.811007 
L 237.115337 91.792039 
L 239.034004 91.792039 
L 239.3081 90.773071 
L 239.85629 90.773071 
L 240.130386 89.754103 
L 240.678576 89.754103 
L 240.952672 90.773071 
L 242.323149 90.773071 
L 242.597244 89.754103 
L 242.871339 89.754103 
L 243.145435 90.773071 
L 243.41953 90.773071 
L 244.241816 93.829975 
L 251.0942 93.829975 
L 251.368296 92.811007 
L 253.012868 92.811007 
L 253.286963 91.792039 
L 255.753822 91.792039 
L 256.027917 92.811007 
L 256.302012 92.811007 
L 256.576108 93.829975 
L 262.606206 93.829975 
L 262.880301 94.848943 
L 263.154397 94.848943 
L 263.428492 95.867912 
L 264.798969 95.867912 
L 265.073064 94.848943 
L 265.89535 94.848943 
L 266.169446 93.829975 
L 269.45859 93.829975 
L 269.732686 92.811007 
L 274.118212 92.811007 
L 274.392307 91.792039 
L 274.940498 91.792039 
L 275.762784 94.848943 
L 276.036879 94.848943 
L 276.310975 95.867912 
L 277.955547 95.867912 
L 278.229642 94.848943 
L 278.503737 95.867912 
L 283.985645 95.867912 
L 284.25974 96.88688 
L 284.807931 96.88688 
L 285.082026 97.905848 
L 286.178408 97.905848 
L 286.452503 98.924816 
L 286.726599 98.924816 
L 286.726599 98.924816 
" clip-path="url(#pdd507b2e8e)" style="fill: none; stroke: #2ca02c; stroke-width: 1.5; stroke-linecap: square"/>
   </g>
   <g id="line2d_14">
    <path d="M 104.727273 78.545455 
L 289.193457 78.545455 
L 289.193457 78.545455 
" clip-path="url(#pdd507b2e8e)" style="fill: none; stroke: #d62728; stroke-width: 1.5; stroke-linecap: square"/>
   </g>
   <g id="line2d_15">
    <path d="M 104.727273 266.035577 
L 105.001368 267.054545 
L 108.016417 267.054545 
L 108.290513 266.035577 
L 109.660989 266.035577 
L 109.935085 265.016609 
L 110.20918 266.035577 
L 110.483276 266.035577 
L 111.031466 263.997641 
L 111.853752 263.997641 
L 112.127848 262.978673 
L 117.061564 262.978673 
L 117.33566 261.959705 
L 118.157946 261.959705 
L 118.432041 260.940737 
L 118.980232 260.940737 
L 119.254327 259.921769 
L 123.365758 259.921769 
L 123.639853 258.902801 
L 123.913949 258.902801 
L 124.462139 260.940737 
L 125.832616 260.940737 
L 126.106712 261.959705 
L 127.203093 261.959705 
L 127.477188 262.978673 
L 127.751284 262.978673 
L 128.025379 261.959705 
L 131.862714 261.959705 
L 132.410905 263.997641 
L 135.70005 263.997641 
L 135.974145 262.978673 
L 136.796431 262.978673 
L 137.070526 263.997641 
L 137.618717 263.997641 
L 137.892813 262.978673 
L 138.166908 262.978673 
L 138.441003 263.997641 
L 138.715099 263.997641 
L 138.989194 262.978673 
L 139.537385 262.978673 
L 139.81148 261.959705 
L 140.907862 261.959705 
L 141.181957 260.940737 
L 141.456052 260.940737 
L 141.730148 259.921769 
L 142.278338 259.921769 
L 142.552434 258.902801 
L 144.471101 258.902801 
L 144.745197 257.883833 
L 145.019292 257.883833 
L 145.293388 256.864865 
L 146.389769 256.864865 
L 146.663864 257.883833 
L 147.48615 257.883833 
L 147.760246 256.864865 
L 148.582532 256.864865 
L 148.856627 255.845897 
L 149.130723 255.845897 
L 149.404818 254.826929 
L 150.5012 254.826929 
L 150.775295 253.807961 
L 152.419867 253.807961 
L 152.693963 252.788993 
L 153.242153 252.788993 
L 154.064439 249.732088 
L 154.338535 250.751057 
L 154.886725 250.751057 
L 155.160821 249.732088 
L 155.983107 249.732088 
L 156.257202 248.71312 
L 156.531298 248.71312 
L 156.805393 247.694152 
L 157.079488 247.694152 
L 157.353584 246.675184 
L 158.449965 246.675184 
L 158.724061 245.656216 
L 159.272251 245.656216 
L 159.546347 246.675184 
L 160.094538 246.675184 
L 160.368633 245.656216 
L 161.73911 245.656216 
L 162.013205 244.637248 
L 162.835491 244.637248 
L 163.109587 245.656216 
L 164.205968 245.656216 
L 164.480063 244.637248 
L 164.754159 245.656216 
L 165.30235 245.656216 
L 165.576445 246.675184 
L 166.672826 246.675184 
L 166.946922 247.694152 
L 167.221017 247.694152 
L 167.495113 246.675184 
L 169.139685 246.675184 
L 169.41378 245.656216 
L 172.428829 245.656216 
L 172.702925 246.675184 
L 172.97702 246.675184 
L 173.251115 247.694152 
L 174.073401 247.694152 
L 174.347497 246.675184 
L 175.169783 246.675184 
L 175.443878 245.656216 
L 176.266164 245.656216 
L 176.814355 243.61828 
L 177.636641 243.61828 
L 178.184832 241.580344 
L 178.458927 242.599312 
L 179.007118 242.599312 
L 179.281213 241.580344 
L 180.1035 241.580344 
L 180.377595 240.561376 
L 181.473976 240.561376 
L 182.022167 238.52344 
L 182.296263 238.52344 
L 182.570358 237.504472 
L 183.118549 237.504472 
L 183.392644 236.485504 
L 184.489025 236.485504 
L 184.763121 235.466536 
L 185.311312 235.466536 
L 185.585407 234.447568 
L 186.681788 234.447568 
L 187.229979 232.409631 
L 187.504075 232.409631 
L 187.77817 231.390663 
L 188.326361 231.390663 
L 188.600456 230.371695 
L 190.519124 230.371695 
L 190.793219 231.390663 
L 191.615505 231.390663 
L 191.8896 230.371695 
L 192.163696 230.371695 
L 192.437791 229.352727 
L 193.260077 229.352727 
L 193.534173 228.333759 
L 193.808268 229.352727 
L 194.082363 229.352727 
L 194.356459 228.333759 
L 195.178745 231.390663 
L 195.726936 231.390663 
L 196.001031 232.409631 
L 196.275126 232.409631 
L 196.549222 233.4286 
L 197.097413 233.4286 
L 197.371508 234.447568 
L 197.919699 232.409631 
L 198.193794 232.409631 
L 198.467889 231.390663 
L 199.290175 231.390663 
L 199.564271 232.409631 
L 200.386557 232.409631 
L 200.660652 231.390663 
L 200.934748 231.390663 
L 201.482938 229.352727 
L 202.031129 229.352727 
L 202.305225 228.333759 
L 202.57932 229.352727 
L 203.127511 229.352727 
L 203.401606 228.333759 
L 203.949797 228.333759 
L 204.223892 229.352727 
L 205.046178 226.295823 
L 205.320274 226.295823 
L 205.594369 227.314791 
L 206.14256 227.314791 
L 206.416655 226.295823 
L 206.69075 226.295823 
L 206.964846 225.276855 
L 207.238941 225.276855 
L 207.513037 226.295823 
L 207.787132 226.295823 
L 208.061227 225.276855 
L 208.609418 225.276855 
L 208.883513 226.295823 
L 209.157609 226.295823 
L 209.7058 224.257887 
L 209.979895 225.276855 
L 210.528086 225.276855 
L 210.802181 224.257887 
L 211.076276 225.276855 
L 211.350372 225.276855 
L 211.624467 226.295823 
L 211.898563 226.295823 
L 212.172658 227.314791 
L 212.994944 227.314791 
L 213.269039 226.295823 
L 213.543135 227.314791 
L 214.091325 225.276855 
L 214.913612 225.276855 
L 215.187707 226.295823 
L 215.461802 225.276855 
L 217.106375 225.276855 
L 218.476851 220.182015 
L 219.025042 220.182015 
L 219.299138 221.200983 
L 219.573233 221.200983 
L 219.847328 220.182015 
L 220.94371 220.182015 
L 221.217805 219.163047 
L 222.040091 219.163047 
L 222.314187 220.182015 
L 222.588282 220.182015 
L 222.862377 219.163047 
L 223.684663 219.163047 
L 223.958759 218.144079 
L 224.232854 219.163047 
L 224.781045 219.163047 
L 225.05514 218.144079 
L 226.699713 218.144079 
L 226.973808 219.163047 
L 227.521999 219.163047 
L 227.796094 218.144079 
L 228.070189 218.144079 
L 228.344285 217.125111 
L 228.61838 217.125111 
L 228.892475 218.144079 
L 229.166571 218.144079 
L 229.440666 217.125111 
L 229.988857 217.125111 
L 230.262952 218.144079 
L 230.537048 218.144079 
L 230.811143 217.125111 
L 231.085238 217.125111 
L 231.633429 219.163047 
L 231.907525 218.144079 
L 232.455715 218.144079 
L 233.003906 220.182015 
L 233.278001 219.163047 
L 233.826192 219.163047 
L 234.100287 220.182015 
L 234.922574 220.182015 
L 235.196669 221.200983 
L 235.470764 221.200983 
L 235.74486 220.182015 
L 236.29305 220.182015 
L 236.567146 221.200983 
L 236.841241 221.200983 
L 237.115337 220.182015 
L 237.663527 222.219951 
L 237.937623 221.200983 
L 239.3081 221.200983 
L 239.582195 222.219951 
L 240.130386 222.219951 
L 240.404481 223.238919 
L 240.678576 222.219951 
L 241.226767 222.219951 
L 241.500862 221.200983 
L 242.049053 223.238919 
L 242.323149 223.238919 
L 242.597244 224.257887 
L 242.871339 224.257887 
L 243.145435 223.238919 
L 243.41953 223.238919 
L 244.241816 220.182015 
L 244.515912 220.182015 
L 244.790007 219.163047 
L 245.612293 219.163047 
L 246.160484 217.125111 
L 246.434579 217.125111 
L 246.708675 218.144079 
L 246.98277 218.144079 
L 247.530961 220.182015 
L 248.079151 220.182015 
L 248.353247 221.200983 
L 249.175533 221.200983 
L 249.449628 220.182015 
L 250.820105 220.182015 
L 251.0942 219.163047 
L 252.190582 219.163047 
L 252.464677 220.182015 
L 252.738773 220.182015 
L 253.012868 219.163047 
L 253.286963 219.163047 
L 253.561059 218.144079 
L 255.479726 218.144079 
L 255.753822 217.125111 
L 256.027917 217.125111 
L 256.302012 218.144079 
L 256.850203 218.144079 
L 257.124299 219.163047 
L 257.398394 218.144079 
L 257.672489 218.144079 
L 257.946585 217.125111 
L 258.494775 217.125111 
L 258.768871 216.106143 
L 259.317062 216.106143 
L 259.865252 218.144079 
L 260.139348 217.125111 
L 260.687538 217.125111 
L 260.961634 216.106143 
L 261.235729 216.106143 
L 261.509825 215.087174 
L 261.78392 215.087174 
L 262.606206 212.03027 
L 262.880301 212.03027 
L 263.428492 214.068206 
L 263.702587 213.049238 
L 263.976683 213.049238 
L 264.250778 214.068206 
L 264.798969 214.068206 
L 265.34716 212.03027 
L 265.621255 212.03027 
L 265.89535 211.011302 
L 266.169446 211.011302 
L 266.443541 209.992334 
L 267.539923 209.992334 
L 267.814018 208.973366 
L 268.088113 208.973366 
L 268.362209 207.954398 
L 268.636304 208.973366 
L 270.280876 208.973366 
L 271.103162 205.916462 
L 271.377258 205.916462 
L 271.651353 206.93543 
L 271.925449 206.93543 
L 272.473639 208.973366 
L 272.747735 208.973366 
L 273.295925 211.011302 
L 274.118212 211.011302 
L 274.392307 209.992334 
L 275.214593 209.992334 
L 275.488688 211.011302 
L 275.762784 211.011302 
L 276.036879 212.03027 
L 277.681451 212.03027 
L 277.955547 211.011302 
L 278.503737 211.011302 
L 278.777833 212.03027 
L 279.051928 211.011302 
L 279.326024 211.011302 
L 279.600119 209.992334 
L 279.874214 209.992334 
L 280.6965 206.93543 
L 282.066977 206.93543 
L 282.341073 205.916462 
L 282.615168 206.93543 
L 283.71155 206.93543 
L 284.25974 208.973366 
L 285.630217 208.973366 
L 285.904312 207.954398 
L 286.726599 207.954398 
L 287.000694 206.93543 
L 288.919362 206.93543 
L 288.919362 206.93543 
" clip-path="url(#pdd507b2e8e)" style="fill: none; stroke: #9467bd; stroke-width: 1.5; stroke-linecap: square"/>
   </g>
   <g id="line2d_16">
    <path d="M 104.727273 78.545455 
L 292.482601 78.545455 
L 292.482601 78.545455 
" clip-path="url(#pdd507b2e8e)" style="fill: none; stroke: #8c564b; stroke-width: 1.5; stroke-linecap: square"/>
   </g>
   <g id="line2d_17">
    <path d="M 104.727273 208.973366 
L 105.001368 209.992334 
L 105.275463 208.973366 
L 105.549559 209.992334 
L 106.09775 209.992334 
L 106.371845 208.973366 
L 106.920036 211.011302 
L 107.742322 211.011302 
L 108.290513 208.973366 
L 108.564608 208.973366 
L 108.838703 209.992334 
L 109.935085 209.992334 
L 110.20918 211.011302 
L 111.579657 211.011302 
L 111.853752 209.992334 
L 112.127848 211.011302 
L 112.401943 211.011302 
L 112.676038 209.992334 
L 112.950134 211.011302 
L 114.046515 211.011302 
L 114.320611 212.03027 
L 115.142897 212.03027 
L 115.965183 208.973366 
L 116.239278 208.973366 
L 116.513374 207.954398 
L 116.787469 208.973366 
L 117.609755 208.973366 
L 118.432041 205.916462 
L 118.706137 205.916462 
L 118.980232 204.897494 
L 120.350709 204.897494 
L 120.8989 202.859558 
L 121.172995 203.878526 
L 121.44709 203.878526 
L 122.269376 200.821622 
L 122.543472 200.821622 
L 122.817567 199.802654 
L 123.091663 199.802654 
L 123.913949 196.745749 
L 124.188044 196.745749 
L 124.462139 195.726781 
L 124.736235 195.726781 
L 125.284425 193.688845 
L 125.558521 193.688845 
L 125.832616 192.669877 
L 126.380807 192.669877 
L 126.928998 190.631941 
L 127.203093 191.650909 
L 129.669951 182.480197 
L 129.944047 182.480197 
L 130.766333 179.423292 
L 131.314524 179.423292 
L 131.588619 180.44226 
L 132.685 176.366388 
L 132.959096 176.366388 
L 133.233191 177.385356 
L 133.507287 177.385356 
L 134.055477 175.34742 
L 134.603668 175.34742 
L 136.796431 167.195676 
L 137.344622 167.195676 
L 138.166908 164.138771 
L 138.441003 164.138771 
L 139.263289 161.081867 
L 139.81148 161.081867 
L 141.181957 155.987027 
L 141.456052 155.987027 
L 141.730148 154.968059 
L 142.278338 154.968059 
L 143.100625 151.911155 
L 143.37472 152.930123 
L 143.922911 150.892187 
L 145.293388 150.892187 
L 146.663864 145.797346 
L 146.93796 145.797346 
L 147.212055 144.778378 
L 147.760246 144.778378 
L 148.034341 143.75941 
L 148.308437 143.75941 
L 149.130723 140.702506 
L 149.404818 140.702506 
L 149.953009 138.66457 
L 150.227104 138.66457 
L 150.775295 136.626634 
L 151.04939 136.626634 
L 151.323486 137.645602 
L 151.597581 137.645602 
L 151.871676 136.626634 
L 152.419867 136.626634 
L 152.693963 135.607666 
L 152.968058 135.607666 
L 154.064439 131.531794 
L 154.338535 131.531794 
L 154.61263 130.512826 
L 155.983107 130.512826 
L 156.531298 128.474889 
L 157.079488 128.474889 
L 157.353584 129.493857 
L 157.901775 129.493857 
L 158.17587 128.474889 
L 158.998156 128.474889 
L 159.272251 127.455921 
L 159.546347 127.455921 
L 159.820442 126.436953 
L 160.094538 126.436953 
L 160.642728 124.399017 
L 161.465014 124.399017 
L 161.73911 123.380049 
L 163.109587 123.380049 
L 163.383682 124.399017 
L 164.205968 124.399017 
L 164.480063 125.417985 
L 166.398731 118.285209 
L 166.672826 118.285209 
L 166.946922 117.266241 
L 167.495113 117.266241 
L 167.769208 116.247273 
L 168.591494 116.247273 
L 169.687875 112.1714 
L 170.784257 112.1714 
L 171.058352 111.152432 
L 171.332448 111.152432 
L 172.154734 108.095528 
L 173.251115 108.095528 
L 173.525211 107.07656 
L 174.073401 107.07656 
L 174.621592 105.038624 
L 175.717974 105.038624 
L 176.266164 103.000688 
L 176.54026 103.000688 
L 176.814355 104.019656 
L 178.733023 104.019656 
L 179.007118 103.000688 
L 180.1035 103.000688 
L 180.377595 101.98172 
L 180.925786 101.98172 
L 181.199881 100.962752 
L 181.748072 100.962752 
L 182.022167 99.943784 
L 183.392644 99.943784 
L 183.666739 100.962752 
L 183.940835 100.962752 
L 184.21493 101.98172 
L 186.133598 101.98172 
L 186.407693 100.962752 
L 186.681788 101.98172 
L 187.77817 101.98172 
L 188.052265 100.962752 
L 188.874551 100.962752 
L 189.148647 99.943784 
L 191.8896 99.943784 
L 192.163696 100.962752 
L 194.082363 100.962752 
L 194.356459 99.943784 
L 196.001031 99.943784 
L 196.275126 100.962752 
L 197.919699 100.962752 
L 198.193794 99.943784 
L 199.290175 99.943784 
L 199.838366 97.905848 
L 200.386557 97.905848 
L 200.660652 98.924816 
L 201.208843 98.924816 
L 201.482938 99.943784 
L 202.031129 99.943784 
L 202.305225 98.924816 
L 202.853415 98.924816 
L 203.127511 97.905848 
L 203.949797 97.905848 
L 204.223892 98.924816 
L 205.868464 98.924816 
L 206.14256 97.905848 
L 207.513037 97.905848 
L 207.787132 96.88688 
L 208.335323 96.88688 
L 208.609418 97.905848 
L 211.898563 97.905848 
L 212.172658 96.88688 
L 213.269039 96.88688 
L 213.543135 95.867912 
L 213.81723 96.88688 
L 216.009993 96.88688 
L 216.284088 95.867912 
L 216.558184 95.867912 
L 216.832279 96.88688 
L 217.928661 96.88688 
L 218.476851 94.848943 
L 219.025042 94.848943 
L 219.299138 93.829975 
L 220.121424 93.829975 
L 220.395519 94.848943 
L 222.040091 94.848943 
L 222.862377 97.905848 
L 223.136473 97.905848 
L 223.410568 96.88688 
L 228.892475 96.88688 
L 229.166571 97.905848 
L 229.714762 97.905848 
L 229.988857 98.924816 
L 230.537048 98.924816 
L 230.811143 99.943784 
L 231.085238 99.943784 
L 231.359334 100.962752 
L 231.633429 99.943784 
L 233.278001 99.943784 
L 233.826192 101.98172 
L 234.374383 101.98172 
L 234.648478 103.000688 
L 235.196669 103.000688 
L 235.470764 104.019656 
L 237.937623 104.019656 
L 238.211718 105.038624 
L 238.485813 104.019656 
L 238.759909 104.019656 
L 239.034004 103.000688 
L 239.3081 103.000688 
L 239.582195 104.019656 
L 240.404481 104.019656 
L 240.678576 105.038624 
L 241.226767 105.038624 
L 241.500862 104.019656 
L 244.241816 104.019656 
L 244.515912 105.038624 
L 246.434579 105.038624 
L 246.98277 103.000688 
L 248.627342 103.000688 
L 248.901437 104.019656 
L 249.449628 104.019656 
L 249.723724 105.038624 
L 250.820105 105.038624 
L 251.0942 104.019656 
L 251.368296 105.038624 
L 253.561059 105.038624 
L 253.835154 106.057592 
L 255.205631 106.057592 
L 255.479726 105.038624 
L 256.027917 105.038624 
L 256.302012 104.019656 
L 258.768871 104.019656 
L 259.042966 103.000688 
L 259.317062 103.000688 
L 259.591157 104.019656 
L 263.976683 104.019656 
L 264.250778 105.038624 
L 265.34716 105.038624 
L 265.621255 106.057592 
L 266.169446 106.057592 
L 266.443541 107.07656 
L 268.362209 107.07656 
L 268.636304 106.057592 
L 270.006781 106.057592 
L 270.280876 107.07656 
L 271.377258 107.07656 
L 271.651353 106.057592 
L 274.940498 106.057592 
L 275.214593 105.038624 
L 275.762784 105.038624 
L 276.036879 106.057592 
L 276.859165 106.057592 
L 277.681451 103.000688 
L 277.955547 104.019656 
L 278.229642 104.019656 
L 278.503737 105.038624 
L 279.874214 105.038624 
L 280.14831 106.057592 
L 280.6965 106.057592 
L 280.970596 107.07656 
L 283.71155 107.07656 
L 283.985645 106.057592 
L 284.533836 106.057592 
L 284.807931 105.038624 
L 285.082026 105.038624 
L 285.356122 106.057592 
L 285.630217 105.038624 
L 285.904312 105.038624 
L 286.178408 104.019656 
L 288.097075 104.019656 
L 288.645266 101.98172 
L 288.919362 101.98172 
L 289.193457 103.000688 
L 289.467552 101.98172 
L 291.38622 101.98172 
L 291.660315 103.000688 
L 291.934411 103.000688 
L 291.934411 103.000688 
" clip-path="url(#pdd507b2e8e)" style="fill: none; stroke: #e377c2; stroke-width: 1.5; stroke-linecap: square"/>
   </g>
   <g id="line2d_18">
    <path d="M 104.727273 78.545455 
L 286.726599 78.545455 
L 286.726599 78.545455 
" clip-path="url(#pdd507b2e8e)" style="fill: none; stroke: #7f7f7f; stroke-width: 1.5; stroke-linecap: square"/>
   </g>
   <g id="line2d_19">
    <path d="M 104.727273 113.190369 
L 105.275463 115.228305 
L 105.549559 114.209337 
L 111.031466 114.209337 
L 111.305562 113.190369 
L 111.579657 114.209337 
L 112.127848 114.209337 
L 112.401943 115.228305 
L 114.046515 115.228305 
L 114.320611 114.209337 
L 114.594706 115.228305 
L 114.868801 115.228305 
L 115.142897 116.247273 
L 115.416992 115.228305 
L 115.965183 115.228305 
L 116.513374 117.266241 
L 116.787469 116.247273 
L 117.883851 116.247273 
L 118.157946 115.228305 
L 118.980232 115.228305 
L 119.254327 116.247273 
L 120.350709 116.247273 
L 120.624804 115.228305 
L 121.172995 115.228305 
L 121.44709 116.247273 
L 121.995281 116.247273 
L 122.269376 117.266241 
L 122.543472 116.247273 
L 122.817567 116.247273 
L 123.091663 117.266241 
L 123.365758 117.266241 
L 123.639853 118.285209 
L 123.913949 118.285209 
L 124.188044 119.304177 
L 125.284425 119.304177 
L 125.558521 118.285209 
L 125.832616 118.285209 
L 126.380807 120.323145 
L 126.654902 119.304177 
L 127.203093 119.304177 
L 127.477188 118.285209 
L 128.299475 118.285209 
L 128.57357 119.304177 
L 128.847665 118.285209 
L 129.121761 118.285209 
L 129.395856 117.266241 
L 130.492238 117.266241 
L 130.766333 116.247273 
L 131.314524 116.247273 
L 131.862714 114.209337 
L 132.410905 114.209337 
L 132.959096 112.1714 
L 133.507287 112.1714 
L 133.781382 111.152432 
L 134.877763 111.152432 
L 135.151859 110.133464 
L 135.425954 111.152432 
L 135.70005 110.133464 
L 135.974145 110.133464 
L 136.24824 111.152432 
L 136.522336 111.152432 
L 136.796431 112.1714 
L 137.070526 111.152432 
L 137.618717 111.152432 
L 137.892813 110.133464 
L 138.715099 110.133464 
L 139.263289 108.095528 
L 139.81148 108.095528 
L 140.359671 110.133464 
L 140.633766 110.133464 
L 140.907862 111.152432 
L 141.730148 111.152432 
L 142.004243 110.133464 
L 143.648815 110.133464 
L 143.922911 109.114496 
L 145.567483 109.114496 
L 145.841578 110.133464 
L 146.389769 110.133464 
L 146.663864 111.152432 
L 146.93796 111.152432 
L 147.48615 113.190369 
L 147.760246 112.1714 
L 148.856627 112.1714 
L 149.130723 111.152432 
L 149.953009 111.152432 
L 150.227104 110.133464 
L 151.597581 110.133464 
L 151.871676 111.152432 
L 152.693963 111.152432 
L 152.968058 112.1714 
L 153.242153 111.152432 
L 153.516249 111.152432 
L 153.790344 112.1714 
L 154.064439 112.1714 
L 154.338535 113.190369 
L 156.531298 113.190369 
L 156.805393 114.209337 
L 158.449965 114.209337 
L 158.724061 115.228305 
L 158.998156 114.209337 
L 159.546347 114.209337 
L 160.094538 112.1714 
L 161.465014 112.1714 
L 162.013205 114.209337 
L 162.2873 114.209337 
L 162.561396 115.228305 
L 166.124636 115.228305 
L 166.398731 114.209337 
L 166.946922 114.209337 
L 167.221017 113.190369 
L 169.139685 113.190369 
L 169.41378 112.1714 
L 169.687875 112.1714 
L 169.961971 111.152432 
L 170.236066 112.1714 
L 170.510162 112.1714 
L 170.784257 113.190369 
L 171.332448 111.152432 
L 173.799306 111.152432 
L 174.073401 110.133464 
L 174.621592 110.133464 
L 174.895688 111.152432 
L 175.443878 111.152432 
L 175.717974 112.1714 
L 175.992069 112.1714 
L 176.266164 111.152432 
L 176.814355 111.152432 
L 177.08845 110.133464 
L 177.636641 110.133464 
L 177.910737 109.114496 
L 178.733023 109.114496 
L 179.007118 108.095528 
L 179.829404 108.095528 
L 180.1035 107.07656 
L 180.377595 108.095528 
L 181.199881 108.095528 
L 181.473976 109.114496 
L 181.748072 109.114496 
L 182.022167 110.133464 
L 183.118549 110.133464 
L 183.392644 109.114496 
L 185.311312 109.114496 
L 185.585407 110.133464 
L 189.970933 110.133464 
L 190.245028 109.114496 
L 190.519124 110.133464 
L 190.793219 110.133464 
L 191.067314 109.114496 
L 191.34141 109.114496 
L 191.615505 108.095528 
L 192.437791 108.095528 
L 192.711887 109.114496 
L 194.630554 109.114496 
L 195.178745 107.07656 
L 195.45284 107.07656 
L 195.726936 106.057592 
L 196.275126 108.095528 
L 200.386557 108.095528 
L 200.660652 107.07656 
L 200.934748 107.07656 
L 201.482938 105.038624 
L 201.757034 105.038624 
L 202.305225 103.000688 
L 203.127511 103.000688 
L 203.401606 104.019656 
L 203.675701 104.019656 
L 203.949797 105.038624 
L 204.223892 105.038624 
L 204.497988 106.057592 
L 205.868464 106.057592 
L 206.14256 107.07656 
L 206.416655 107.07656 
L 206.69075 106.057592 
L 206.964846 107.07656 
L 207.513037 107.07656 
L 207.787132 106.057592 
L 208.335323 106.057592 
L 208.609418 105.038624 
L 208.883513 105.038624 
L 209.157609 104.019656 
L 209.7058 104.019656 
L 209.979895 105.038624 
L 211.076276 105.038624 
L 211.350372 106.057592 
L 211.624467 105.038624 
L 215.461802 105.038624 
L 216.009993 107.07656 
L 216.284088 107.07656 
L 216.832279 105.038624 
L 217.106375 105.038624 
L 217.38047 104.019656 
L 217.928661 104.019656 
L 218.202756 105.038624 
L 219.847328 105.038624 
L 220.121424 106.057592 
L 223.684663 106.057592 
L 223.958759 107.07656 
L 224.781045 107.07656 
L 225.05514 106.057592 
L 225.329236 106.057592 
L 225.603331 105.038624 
L 230.262952 105.038624 
L 230.537048 104.019656 
L 232.455715 104.019656 
L 232.729811 105.038624 
L 233.003906 105.038624 
L 233.278001 104.019656 
L 233.552097 105.038624 
L 234.648478 105.038624 
L 234.922574 106.057592 
L 235.196669 105.038624 
L 235.470764 105.038624 
L 236.29305 101.98172 
L 236.567146 101.98172 
L 236.841241 100.962752 
L 238.485813 100.962752 
L 238.759909 101.98172 
L 239.3081 101.98172 
L 239.582195 103.000688 
L 240.130386 103.000688 
L 240.404481 101.98172 
L 241.226767 101.98172 
L 241.500862 103.000688 
L 242.323149 103.000688 
L 242.597244 104.019656 
L 243.693625 104.019656 
L 243.967721 105.038624 
L 245.064102 105.038624 
L 245.338198 104.019656 
L 247.256865 104.019656 
L 247.530961 103.000688 
L 249.723724 103.000688 
L 249.997819 104.019656 
L 250.54601 104.019656 
L 251.0942 101.98172 
L 255.479726 101.98172 
L 255.753822 103.000688 
L 256.302012 103.000688 
L 256.576108 104.019656 
L 256.850203 104.019656 
L 257.124299 105.038624 
L 257.398394 105.038624 
L 257.672489 106.057592 
L 257.946585 106.057592 
L 258.22068 105.038624 
L 259.042966 105.038624 
L 259.317062 104.019656 
L 260.687538 104.019656 
L 260.961634 103.000688 
L 261.509825 103.000688 
L 261.78392 101.98172 
L 263.428492 101.98172 
L 263.976683 104.019656 
L 264.250778 104.019656 
L 264.524874 105.038624 
L 264.798969 105.038624 
L 265.34716 107.07656 
L 267.814018 107.07656 
L 268.088113 108.095528 
L 268.362209 107.07656 
L 268.9104 107.07656 
L 269.184495 108.095528 
L 269.732686 108.095528 
L 270.006781 109.114496 
L 270.280876 109.114496 
L 270.829067 107.07656 
L 272.199544 107.07656 
L 272.473639 108.095528 
L 272.747735 108.095528 
L 273.02183 107.07656 
L 273.570021 109.114496 
L 274.118212 109.114496 
L 274.392307 110.133464 
L 274.666402 110.133464 
L 274.940498 109.114496 
L 278.503737 109.114496 
L 278.777833 108.095528 
L 284.25974 108.095528 
L 284.533836 107.07656 
L 286.726599 107.07656 
L 287.000694 108.095528 
L 287.274789 108.095528 
L 287.548885 107.07656 
L 288.097075 107.07656 
L 288.371171 106.057592 
L 289.467552 106.057592 
L 289.741648 105.038624 
L 290.289838 105.038624 
L 290.563934 106.057592 
L 293.304887 106.057592 
L 293.578983 105.038624 
L 294.127174 105.038624 
L 294.401269 104.019656 
L 294.94946 104.019656 
L 295.223555 105.038624 
L 295.771746 105.038624 
L 296.045841 106.057592 
L 296.319937 105.038624 
L 297.142223 105.038624 
L 297.416318 104.019656 
L 297.690413 104.019656 
L 297.964509 105.038624 
L 298.238604 105.038624 
L 298.5127 106.057592 
L 298.786795 105.038624 
L 299.334986 105.038624 
L 299.609081 106.057592 
L 299.883176 106.057592 
L 300.157272 107.07656 
L 302.350035 107.07656 
L 302.62413 108.095528 
L 303.446416 108.095528 
L 303.720512 109.114496 
L 304.542798 109.114496 
L 304.816893 108.095528 
L 305.090988 109.114496 
L 307.009656 109.114496 
L 307.283751 110.133464 
L 310.2988 110.133464 
L 310.572896 109.114496 
L 310.846991 109.114496 
L 311.121087 110.133464 
L 311.395182 109.114496 
L 311.669277 110.133464 
L 311.943373 109.114496 
L 312.217468 110.133464 
L 312.491563 109.114496 
L 313.31385 109.114496 
L 313.587945 108.095528 
L 318.521662 108.095528 
L 318.795757 107.07656 
L 319.069852 107.07656 
L 320.166234 103.000688 
L 321.262615 103.000688 
L 321.536711 104.019656 
L 322.633092 104.019656 
L 322.907187 103.000688 
L 323.181283 103.000688 
L 323.455378 104.019656 
L 323.729474 104.019656 
L 324.003569 103.000688 
L 324.277664 103.000688 
L 324.55176 104.019656 
L 324.825855 103.000688 
L 327.840904 103.000688 
L 328.389095 100.962752 
L 328.66319 101.98172 
L 328.937286 101.98172 
L 329.211381 100.962752 
L 329.485476 101.98172 
L 330.581858 101.98172 
L 330.855953 103.000688 
L 333.322812 103.000688 
L 333.596907 104.019656 
L 334.419193 104.019656 
L 334.693288 105.038624 
L 336.337861 105.038624 
L 336.611956 106.057592 
L 336.886051 106.057592 
L 337.160147 107.07656 
L 339.35291 107.07656 
L 339.627005 108.095528 
L 341.545673 108.095528 
L 341.819768 107.07656 
L 345.108912 107.07656 
L 345.383008 106.057592 
L 345.657103 106.057592 
L 345.931199 107.07656 
L 346.205294 107.07656 
L 346.479389 108.095528 
L 346.753485 108.095528 
L 347.02758 109.114496 
L 349.768534 109.114496 
L 350.042629 108.095528 
L 352.509487 108.095528 
L 352.783583 107.07656 
L 353.057678 108.095528 
L 353.331774 107.07656 
L 354.70225 107.07656 
L 354.976346 106.057592 
L 355.250441 106.057592 
L 355.524537 107.07656 
L 356.072727 107.07656 
L 356.072727 107.07656 
" clip-path="url(#pdd507b2e8e)" style="fill: none; stroke: #bcbd22; stroke-width: 1.5; stroke-linecap: square"/>
   </g>
   <g id="patch_3">
    <path d="M 92.16 276.48 
L 92.16 69.12 
" style="fill: none; stroke: #000000; stroke-width: 0.8; stroke-linejoin: miter; stroke-linecap: square"/>
   </g>
   <g id="patch_4">
    <path d="M 368.64 276.48 
L 368.64 69.12 
" style="fill: none; stroke: #000000; stroke-width: 0.8; stroke-linejoin: miter; stroke-linecap: square"/>
   </g>
   <g id="patch_5">
    <path d="M 92.16 276.48 
L 368.64 276.48 
" style="fill: none; stroke: #000000; stroke-width: 0.8; stroke-linejoin: miter; stroke-linecap: square"/>
   </g>
   <g id="patch_6">
    <path d="M 92.16 69.12 
L 368.64 69.12 
" style="fill: none; stroke: #000000; stroke-width: 0.8; stroke-linejoin: miter; stroke-linecap: square"/>
   </g>
   <g id="text_11">
    <!-- fixed_jeevesprobe_2afc_og -->
    <g transform="translate(149.638125 63.12) scale(0.12 -0.12)">
     <defs>
      <path id="DejaVuSans-66" d="M 2375 4863 
L 2375 4384 
L 1825 4384 
Q 1516 4384 1395 4259 
Q 1275 4134 1275 3809 
L 1275 3500 
L 2222 3500 
L 2222 3053 
L 1275 3053 
L 1275 0 
L 697 0 
L 697 3053 
L 147 3053 
L 147 3500 
L 697 3500 
L 697 3744 
Q 697 4328 969 4595 
Q 1241 4863 1831 4863 
L 2375 4863 
z
" transform="scale(0.015625)"/>
      <path id="DejaVuSans-69" d="M 603 3500 
L 1178 3500 
L 1178 0 
L 603 0 
L 603 3500 
z
M 603 4863 
L 1178 4863 
L 1178 4134 
L 603 4134 
L 603 4863 
z
" transform="scale(0.015625)"/>
      <path id="DejaVuSans-78" d="M 3513 3500 
L 2247 1797 
L 3578 0 
L 2900 0 
L 1881 1375 
L 863 0 
L 184 0 
L 1544 1831 
L 300 3500 
L 978 3500 
L 1906 2253 
L 2834 3500 
L 3513 3500 
z
" transform="scale(0.015625)"/>
      <path id="DejaVuSans-65" d="M 3597 1894 
L 3597 1613 
L 953 1613 
Q 991 1019 1311 708 
Q 1631 397 2203 397 
Q 2534 397 2845 478 
Q 3156 559 3463 722 
L 3463 178 
Q 3153 47 2828 -22 
Q 2503 -91 2169 -91 
Q 1331 -91 842 396 
Q 353 884 353 1716 
Q 353 2575 817 3079 
Q 1281 3584 2069 3584 
Q 2775 3584 3186 3129 
Q 3597 2675 3597 1894 
z
M 3022 2063 
Q 3016 2534 2758 2815 
Q 2500 3097 2075 3097 
Q 1594 3097 1305 2825 
Q 1016 2553 972 2059 
L 3022 2063 
z
" transform="scale(0.015625)"/>
      <path id="DejaVuSans-64" d="M 2906 2969 
L 2906 4863 
L 3481 4863 
L 3481 0 
L 2906 0 
L 2906 525 
Q 2725 213 2448 61 
Q 2172 -91 1784 -91 
Q 1150 -91 751 415 
Q 353 922 353 1747 
Q 353 2572 751 3078 
Q 1150 3584 1784 3584 
Q 2172 3584 2448 3432 
Q 2725 3281 2906 2969 
z
M 947 1747 
Q 947 1113 1208 752 
Q 1469 391 1925 391 
Q 2381 391 2643 752 
Q 2906 1113 2906 1747 
Q 2906 2381 2643 2742 
Q 2381 3103 1925 3103 
Q 1469 3103 1208 2742 
Q 947 2381 947 1747 
z
" transform="scale(0.015625)"/>
      <path id="DejaVuSans-5f" d="M 3263 -1063 
L 3263 -1509 
L -63 -1509 
L -63 -1063 
L 3263 -1063 
z
" transform="scale(0.015625)"/>
      <path id="DejaVuSans-6a" d="M 603 3500 
L 1178 3500 
L 1178 -63 
Q 1178 -731 923 -1031 
Q 669 -1331 103 -1331 
L -116 -1331 
L -116 -844 
L 38 -844 
Q 366 -844 484 -692 
Q 603 -541 603 -63 
L 603 3500 
z
M 603 4863 
L 1178 4863 
L 1178 4134 
L 603 4134 
L 603 4863 
z
" transform="scale(0.015625)"/>
      <path id="DejaVuSans-76" d="M 191 3500 
L 800 3500 
L 1894 563 
L 2988 3500 
L 3597 3500 
L 2284 0 
L 1503 0 
L 191 3500 
z
" transform="scale(0.015625)"/>
      <path id="DejaVuSans-73" d="M 2834 3397 
L 2834 2853 
Q 2591 2978 2328 3040 
Q 2066 3103 1784 3103 
Q 1356 3103 1142 2972 
Q 928 2841 928 2578 
Q 928 2378 1081 2264 
Q 1234 2150 1697 2047 
L 1894 2003 
Q 2506 1872 2764 1633 
Q 3022 1394 3022 966 
Q 3022 478 2636 193 
Q 2250 -91 1575 -91 
Q 1294 -91 989 -36 
Q 684 19 347 128 
L 347 722 
Q 666 556 975 473 
Q 1284 391 1588 391 
Q 1994 391 2212 530 
Q 2431 669 2431 922 
Q 2431 1156 2273 1281 
Q 2116 1406 1581 1522 
L 1381 1569 
Q 847 1681 609 1914 
Q 372 2147 372 2553 
Q 372 3047 722 3315 
Q 1072 3584 1716 3584 
Q 2034 3584 2315 3537 
Q 2597 3491 2834 3397 
z
" transform="scale(0.015625)"/>
      <path id="DejaVuSans-70" d="M 1159 525 
L 1159 -1331 
L 581 -1331 
L 581 3500 
L 1159 3500 
L 1159 2969 
Q 1341 3281 1617 3432 
Q 1894 3584 2278 3584 
Q 2916 3584 3314 3078 
Q 3713 2572 3713 1747 
Q 3713 922 3314 415 
Q 2916 -91 2278 -91 
Q 1894 -91 1617 61 
Q 1341 213 1159 525 
z
M 3116 1747 
Q 3116 2381 2855 2742 
Q 2594 3103 2138 3103 
Q 1681 3103 1420 2742 
Q 1159 2381 1159 1747 
Q 1159 1113 1420 752 
Q 1681 391 2138 391 
Q 2594 391 2855 752 
Q 3116 1113 3116 1747 
z
" transform="scale(0.015625)"/>
      <path id="DejaVuSans-72" d="M 2631 2963 
Q 2534 3019 2420 3045 
Q 2306 3072 2169 3072 
Q 1681 3072 1420 2755 
Q 1159 2438 1159 1844 
L 1159 0 
L 581 0 
L 581 3500 
L 1159 3500 
L 1159 2956 
Q 1341 3275 1631 3429 
Q 1922 3584 2338 3584 
Q 2397 3584 2469 3576 
Q 2541 3569 2628 3553 
L 2631 2963 
z
" transform="scale(0.015625)"/>
      <path id="DejaVuSans-6f" d="M 1959 3097 
Q 1497 3097 1228 2736 
Q 959 2375 959 1747 
Q 959 1119 1226 758 
Q 1494 397 1959 397 
Q 2419 397 2687 759 
Q 2956 1122 2956 1747 
Q 2956 2369 2687 2733 
Q 2419 3097 1959 3097 
z
M 1959 3584 
Q 2709 3584 3137 3096 
Q 3566 2609 3566 1747 
Q 3566 888 3137 398 
Q 2709 -91 1959 -91 
Q 1206 -91 779 398 
Q 353 888 353 1747 
Q 353 2609 779 3096 
Q 1206 3584 1959 3584 
z
" transform="scale(0.015625)"/>
      <path id="DejaVuSans-62" d="M 3116 1747 
Q 3116 2381 2855 2742 
Q 2594 3103 2138 3103 
Q 1681 3103 1420 2742 
Q 1159 2381 1159 1747 
Q 1159 1113 1420 752 
Q 1681 391 2138 391 
Q 2594 391 2855 752 
Q 3116 1113 3116 1747 
z
M 1159 2969 
Q 1341 3281 1617 3432 
Q 1894 3584 2278 3584 
Q 2916 3584 3314 3078 
Q 3713 2572 3713 1747 
Q 3713 922 3314 415 
Q 2916 -91 2278 -91 
Q 1894 -91 1617 61 
Q 1341 213 1159 525 
L 1159 0 
L 581 0 
L 581 4863 
L 1159 4863 
L 1159 2969 
z
" transform="scale(0.015625)"/>
      <path id="DejaVuSans-61" d="M 2194 1759 
Q 1497 1759 1228 1600 
Q 959 1441 959 1056 
Q 959 750 1161 570 
Q 1363 391 1709 391 
Q 2188 391 2477 730 
Q 2766 1069 2766 1631 
L 2766 1759 
L 2194 1759 
z
M 3341 1997 
L 3341 0 
L 2766 0 
L 2766 531 
Q 2569 213 2275 61 
Q 1981 -91 1556 -91 
Q 1019 -91 701 211 
Q 384 513 384 1019 
Q 384 1609 779 1909 
Q 1175 2209 1959 2209 
L 2766 2209 
L 2766 2266 
Q 2766 2663 2505 2880 
Q 2244 3097 1772 3097 
Q 1472 3097 1187 3025 
Q 903 2953 641 2809 
L 641 3341 
Q 956 3463 1253 3523 
Q 1550 3584 1831 3584 
Q 2591 3584 2966 3190 
Q 3341 2797 3341 1997 
z
" transform="scale(0.015625)"/>
      <path id="DejaVuSans-63" d="M 3122 3366 
L 3122 2828 
Q 2878 2963 2633 3030 
Q 2388 3097 2138 3097 
Q 1578 3097 1268 2742 
Q 959 2388 959 1747 
Q 959 1106 1268 751 
Q 1578 397 2138 397 
Q 2388 397 2633 464 
Q 2878 531 3122 666 
L 3122 134 
Q 2881 22 2623 -34 
Q 2366 -91 2075 -91 
Q 1284 -91 818 406 
Q 353 903 353 1747 
Q 353 2603 823 3093 
Q 1294 3584 2113 3584 
Q 2378 3584 2631 3529 
Q 2884 3475 3122 3366 
z
" transform="scale(0.015625)"/>
      <path id="DejaVuSans-67" d="M 2906 1791 
Q 2906 2416 2648 2759 
Q 2391 3103 1925 3103 
Q 1463 3103 1205 2759 
Q 947 2416 947 1791 
Q 947 1169 1205 825 
Q 1463 481 1925 481 
Q 2391 481 2648 825 
Q 2906 1169 2906 1791 
z
M 3481 434 
Q 3481 -459 3084 -895 
Q 2688 -1331 1869 -1331 
Q 1566 -1331 1297 -1286 
Q 1028 -1241 775 -1147 
L 775 -588 
Q 1028 -725 1275 -790 
Q 1522 -856 1778 -856 
Q 2344 -856 2625 -561 
Q 2906 -266 2906 331 
L 2906 616 
Q 2728 306 2450 153 
Q 2172 0 1784 0 
Q 1141 0 747 490 
Q 353 981 353 1791 
Q 353 2603 747 3093 
Q 1141 3584 1784 3584 
Q 2172 3584 2450 3431 
Q 2728 3278 2906 2969 
L 2906 3500 
L 3481 3500 
L 3481 434 
z
" transform="scale(0.015625)"/>
     </defs>
     <use xlink:href="#DejaVuSans-66"/>
     <use xlink:href="#DejaVuSans-69" x="35.205078"/>
     <use xlink:href="#DejaVuSans-78" x="62.988281"/>
     <use xlink:href="#DejaVuSans-65" x="119.042969"/>
     <use xlink:href="#DejaVuSans-64" x="180.566406"/>
     <use xlink:href="#DejaVuSans-5f" x="244.042969"/>
     <use xlink:href="#DejaVuSans-6a" x="294.042969"/>
     <use xlink:href="#DejaVuSans-65" x="321.826172"/>
     <use xlink:href="#DejaVuSans-65" x="383.349609"/>
     <use xlink:href="#DejaVuSans-76" x="444.873047"/>
     <use xlink:href="#DejaVuSans-65" x="504.052734"/>
     <use xlink:href="#DejaVuSans-73" x="565.576172"/>
     <use xlink:href="#DejaVuSans-70" x="617.675781"/>
     <use xlink:href="#DejaVuSans-72" x="681.152344"/>
     <use xlink:href="#DejaVuSans-6f" x="720.015625"/>
     <use xlink:href="#DejaVuSans-62" x="781.197266"/>
     <use xlink:href="#DejaVuSans-65" x="844.673828"/>
     <use xlink:href="#DejaVuSans-5f" x="906.197266"/>
     <use xlink:href="#DejaVuSans-32" x="956.197266"/>
     <use xlink:href="#DejaVuSans-61" x="1019.820312"/>
     <use xlink:href="#DejaVuSans-66" x="1081.099609"/>
     <use xlink:href="#DejaVuSans-63" x="1116.304688"/>
     <use xlink:href="#DejaVuSans-5f" x="1171.285156"/>
     <use xlink:href="#DejaVuSans-6f" x="1221.285156"/>
     <use xlink:href="#DejaVuSans-67" x="1282.466797"/>
    </g>
   </g>
   <g id="legend_1">
    <g id="patch_7">
     <path d="M 164.72125 271.48 
L 361.64 271.48 
Q 363.64 271.48 363.64 269.48 
L 363.64 135.87375 
Q 363.64 133.87375 361.64 133.87375 
L 164.72125 133.87375 
Q 162.72125 133.87375 162.72125 135.87375 
L 162.72125 269.48 
Q 162.72125 271.48 164.72125 271.48 
z
" style="fill: #ffffff; opacity: 0.8; stroke: #cccccc; stroke-linejoin: miter"/>
    </g>
    <g id="line2d_20">
     <path d="M 166.72125 141.972187 
L 176.72125 141.972187 
L 186.72125 141.972187 
" style="fill: none; stroke: #1f77b4; stroke-width: 1.5; stroke-linecap: square"/>
    </g>
    <g id="text_12">
     <!-- low_gauss_shape_to_color -->
     <g transform="translate(194.72125 145.472187) scale(0.1 -0.1)">
      <defs>
       <path id="DejaVuSans-6c" d="M 603 4863 
L 1178 4863 
L 1178 0 
L 603 0 
L 603 4863 
z
" transform="scale(0.015625)"/>
       <path id="DejaVuSans-77" d="M 269 3500 
L 844 3500 
L 1563 769 
L 2278 3500 
L 2956 3500 
L 3675 769 
L 4391 3500 
L 4966 3500 
L 4050 0 
L 3372 0 
L 2619 2869 
L 1863 0 
L 1184 0 
L 269 3500 
z
" transform="scale(0.015625)"/>
       <path id="DejaVuSans-75" d="M 544 1381 
L 544 3500 
L 1119 3500 
L 1119 1403 
Q 1119 906 1312 657 
Q 1506 409 1894 409 
Q 2359 409 2629 706 
Q 2900 1003 2900 1516 
L 2900 3500 
L 3475 3500 
L 3475 0 
L 2900 0 
L 2900 538 
Q 2691 219 2414 64 
Q 2138 -91 1772 -91 
Q 1169 -91 856 284 
Q 544 659 544 1381 
z
M 1991 3584 
L 1991 3584 
z
" transform="scale(0.015625)"/>
       <path id="DejaVuSans-68" d="M 3513 2113 
L 3513 0 
L 2938 0 
L 2938 2094 
Q 2938 2591 2744 2837 
Q 2550 3084 2163 3084 
Q 1697 3084 1428 2787 
Q 1159 2491 1159 1978 
L 1159 0 
L 581 0 
L 581 4863 
L 1159 4863 
L 1159 2956 
Q 1366 3272 1645 3428 
Q 1925 3584 2291 3584 
Q 2894 3584 3203 3211 
Q 3513 2838 3513 2113 
z
" transform="scale(0.015625)"/>
       <path id="DejaVuSans-74" d="M 1172 4494 
L 1172 3500 
L 2356 3500 
L 2356 3053 
L 1172 3053 
L 1172 1153 
Q 1172 725 1289 603 
Q 1406 481 1766 481 
L 2356 481 
L 2356 0 
L 1766 0 
Q 1100 0 847 248 
Q 594 497 594 1153 
L 594 3053 
L 172 3053 
L 172 3500 
L 594 3500 
L 594 4494 
L 1172 4494 
z
" transform="scale(0.015625)"/>
      </defs>
      <use xlink:href="#DejaVuSans-6c"/>
      <use xlink:href="#DejaVuSans-6f" x="27.783203"/>
      <use xlink:href="#DejaVuSans-77" x="88.964844"/>
      <use xlink:href="#DejaVuSans-5f" x="170.751953"/>
      <use xlink:href="#DejaVuSans-67" x="220.751953"/>
      <use xlink:href="#DejaVuSans-61" x="284.228516"/>
      <use xlink:href="#DejaVuSans-75" x="345.507812"/>
      <use xlink:href="#DejaVuSans-73" x="408.886719"/>
      <use xlink:href="#DejaVuSans-73" x="460.986328"/>
      <use xlink:href="#DejaVuSans-5f" x="513.085938"/>
      <use xlink:href="#DejaVuSans-73" x="563.085938"/>
      <use xlink:href="#DejaVuSans-68" x="615.185547"/>
      <use xlink:href="#DejaVuSans-61" x="678.564453"/>
      <use xlink:href="#DejaVuSans-70" x="739.84375"/>
      <use xlink:href="#DejaVuSans-65" x="803.320312"/>
      <use xlink:href="#DejaVuSans-5f" x="864.84375"/>
      <use xlink:href="#DejaVuSans-74" x="914.84375"/>
      <use xlink:href="#DejaVuSans-6f" x="954.052734"/>
      <use xlink:href="#DejaVuSans-5f" x="1015.234375"/>
      <use xlink:href="#DejaVuSans-63" x="1065.234375"/>
      <use xlink:href="#DejaVuSans-6f" x="1120.214844"/>
      <use xlink:href="#DejaVuSans-6c" x="1181.396484"/>
      <use xlink:href="#DejaVuSans-6f" x="1209.179688"/>
      <use xlink:href="#DejaVuSans-72" x="1270.361328"/>
     </g>
    </g>
    <g id="line2d_21">
     <path d="M 166.72125 156.928437 
L 176.72125 156.928437 
L 186.72125 156.928437 
" style="fill: none; stroke: #ff7f0e; stroke-width: 1.5; stroke-linecap: square"/>
    </g>
    <g id="text_13">
     <!-- focal_low_gauss_shape_to_color -->
     <g transform="translate(194.72125 160.428437) scale(0.1 -0.1)">
      <use xlink:href="#DejaVuSans-66"/>
      <use xlink:href="#DejaVuSans-6f" x="35.205078"/>
      <use xlink:href="#DejaVuSans-63" x="96.386719"/>
      <use xlink:href="#DejaVuSans-61" x="151.367188"/>
      <use xlink:href="#DejaVuSans-6c" x="212.646484"/>
      <use xlink:href="#DejaVuSans-5f" x="240.429688"/>
      <use xlink:href="#DejaVuSans-6c" x="290.429688"/>
      <use xlink:href="#DejaVuSans-6f" x="318.212891"/>
      <use xlink:href="#DejaVuSans-77" x="379.394531"/>
      <use xlink:href="#DejaVuSans-5f" x="461.181641"/>
      <use xlink:href="#DejaVuSans-67" x="511.181641"/>
      <use xlink:href="#DejaVuSans-61" x="574.658203"/>
      <use xlink:href="#DejaVuSans-75" x="635.9375"/>
      <use xlink:href="#DejaVuSans-73" x="699.316406"/>
      <use xlink:href="#DejaVuSans-73" x="751.416016"/>
      <use xlink:href="#DejaVuSans-5f" x="803.515625"/>
      <use xlink:href="#DejaVuSans-73" x="853.515625"/>
      <use xlink:href="#DejaVuSans-68" x="905.615234"/>
      <use xlink:href="#DejaVuSans-61" x="968.994141"/>
      <use xlink:href="#DejaVuSans-70" x="1030.273438"/>
      <use xlink:href="#DejaVuSans-65" x="1093.75"/>
      <use xlink:href="#DejaVuSans-5f" x="1155.273438"/>
      <use xlink:href="#DejaVuSans-74" x="1205.273438"/>
      <use xlink:href="#DejaVuSans-6f" x="1244.482422"/>
      <use xlink:href="#DejaVuSans-5f" x="1305.664062"/>
      <use xlink:href="#DejaVuSans-63" x="1355.664062"/>
      <use xlink:href="#DejaVuSans-6f" x="1410.644531"/>
      <use xlink:href="#DejaVuSans-6c" x="1471.826172"/>
      <use xlink:href="#DejaVuSans-6f" x="1499.609375"/>
      <use xlink:href="#DejaVuSans-72" x="1560.791016"/>
     </g>
    </g>
    <g id="line2d_22">
     <path d="M 166.72125 171.884687 
L 176.72125 171.884687 
L 186.72125 171.884687 
" style="fill: none; stroke: #2ca02c; stroke-width: 1.5; stroke-linecap: square"/>
    </g>
    <g id="text_14">
     <!-- high_gauss_shape_to_color -->
     <g transform="translate(194.72125 175.384687) scale(0.1 -0.1)">
      <use xlink:href="#DejaVuSans-68"/>
      <use xlink:href="#DejaVuSans-69" x="63.378906"/>
      <use xlink:href="#DejaVuSans-67" x="91.162109"/>
      <use xlink:href="#DejaVuSans-68" x="154.638672"/>
      <use xlink:href="#DejaVuSans-5f" x="218.017578"/>
      <use xlink:href="#DejaVuSans-67" x="268.017578"/>
      <use xlink:href="#DejaVuSans-61" x="331.494141"/>
      <use xlink:href="#DejaVuSans-75" x="392.773438"/>
      <use xlink:href="#DejaVuSans-73" x="456.152344"/>
      <use xlink:href="#DejaVuSans-73" x="508.251953"/>
      <use xlink:href="#DejaVuSans-5f" x="560.351562"/>
      <use xlink:href="#DejaVuSans-73" x="610.351562"/>
      <use xlink:href="#DejaVuSans-68" x="662.451172"/>
      <use xlink:href="#DejaVuSans-61" x="725.830078"/>
      <use xlink:href="#DejaVuSans-70" x="787.109375"/>
      <use xlink:href="#DejaVuSans-65" x="850.585938"/>
      <use xlink:href="#DejaVuSans-5f" x="912.109375"/>
      <use xlink:href="#DejaVuSans-74" x="962.109375"/>
      <use xlink:href="#DejaVuSans-6f" x="1001.318359"/>
      <use xlink:href="#DejaVuSans-5f" x="1062.5"/>
      <use xlink:href="#DejaVuSans-63" x="1112.5"/>
      <use xlink:href="#DejaVuSans-6f" x="1167.480469"/>
      <use xlink:href="#DejaVuSans-6c" x="1228.662109"/>
      <use xlink:href="#DejaVuSans-6f" x="1256.445312"/>
      <use xlink:href="#DejaVuSans-72" x="1317.626953"/>
     </g>
    </g>
    <g id="line2d_23">
     <path d="M 166.72125 186.840937 
L 176.72125 186.840937 
L 186.72125 186.840937 
" style="fill: none; stroke: #d62728; stroke-width: 1.5; stroke-linecap: square"/>
    </g>
    <g id="text_15">
     <!-- focal_high_gauss_shape_to_color -->
     <g transform="translate(194.72125 190.340937) scale(0.1 -0.1)">
      <use xlink:href="#DejaVuSans-66"/>
      <use xlink:href="#DejaVuSans-6f" x="35.205078"/>
      <use xlink:href="#DejaVuSans-63" x="96.386719"/>
      <use xlink:href="#DejaVuSans-61" x="151.367188"/>
      <use xlink:href="#DejaVuSans-6c" x="212.646484"/>
      <use xlink:href="#DejaVuSans-5f" x="240.429688"/>
      <use xlink:href="#DejaVuSans-68" x="290.429688"/>
      <use xlink:href="#DejaVuSans-69" x="353.808594"/>
      <use xlink:href="#DejaVuSans-67" x="381.591797"/>
      <use xlink:href="#DejaVuSans-68" x="445.068359"/>
      <use xlink:href="#DejaVuSans-5f" x="508.447266"/>
      <use xlink:href="#DejaVuSans-67" x="558.447266"/>
      <use xlink:href="#DejaVuSans-61" x="621.923828"/>
      <use xlink:href="#DejaVuSans-75" x="683.203125"/>
      <use xlink:href="#DejaVuSans-73" x="746.582031"/>
      <use xlink:href="#DejaVuSans-73" x="798.681641"/>
      <use xlink:href="#DejaVuSans-5f" x="850.78125"/>
      <use xlink:href="#DejaVuSans-73" x="900.78125"/>
      <use xlink:href="#DejaVuSans-68" x="952.880859"/>
      <use xlink:href="#DejaVuSans-61" x="1016.259766"/>
      <use xlink:href="#DejaVuSans-70" x="1077.539062"/>
      <use xlink:href="#DejaVuSans-65" x="1141.015625"/>
      <use xlink:href="#DejaVuSans-5f" x="1202.539062"/>
      <use xlink:href="#DejaVuSans-74" x="1252.539062"/>
      <use xlink:href="#DejaVuSans-6f" x="1291.748047"/>
      <use xlink:href="#DejaVuSans-5f" x="1352.929688"/>
      <use xlink:href="#DejaVuSans-63" x="1402.929688"/>
      <use xlink:href="#DejaVuSans-6f" x="1457.910156"/>
      <use xlink:href="#DejaVuSans-6c" x="1519.091797"/>
      <use xlink:href="#DejaVuSans-6f" x="1546.875"/>
      <use xlink:href="#DejaVuSans-72" x="1608.056641"/>
     </g>
    </g>
    <g id="line2d_24">
     <path d="M 166.72125 201.797188 
L 176.72125 201.797188 
L 186.72125 201.797188 
" style="fill: none; stroke: #9467bd; stroke-width: 1.5; stroke-linecap: square"/>
    </g>
    <g id="text_16">
     <!-- low_gauss_color_to_shape -->
     <g transform="translate(194.72125 205.297188) scale(0.1 -0.1)">
      <use xlink:href="#DejaVuSans-6c"/>
      <use xlink:href="#DejaVuSans-6f" x="27.783203"/>
      <use xlink:href="#DejaVuSans-77" x="88.964844"/>
      <use xlink:href="#DejaVuSans-5f" x="170.751953"/>
      <use xlink:href="#DejaVuSans-67" x="220.751953"/>
      <use xlink:href="#DejaVuSans-61" x="284.228516"/>
      <use xlink:href="#DejaVuSans-75" x="345.507812"/>
      <use xlink:href="#DejaVuSans-73" x="408.886719"/>
      <use xlink:href="#DejaVuSans-73" x="460.986328"/>
      <use xlink:href="#DejaVuSans-5f" x="513.085938"/>
      <use xlink:href="#DejaVuSans-63" x="563.085938"/>
      <use xlink:href="#DejaVuSans-6f" x="618.066406"/>
      <use xlink:href="#DejaVuSans-6c" x="679.248047"/>
      <use xlink:href="#DejaVuSans-6f" x="707.03125"/>
      <use xlink:href="#DejaVuSans-72" x="768.212891"/>
      <use xlink:href="#DejaVuSans-5f" x="809.326172"/>
      <use xlink:href="#DejaVuSans-74" x="859.326172"/>
      <use xlink:href="#DejaVuSans-6f" x="898.535156"/>
      <use xlink:href="#DejaVuSans-5f" x="959.716797"/>
      <use xlink:href="#DejaVuSans-73" x="1009.716797"/>
      <use xlink:href="#DejaVuSans-68" x="1061.816406"/>
      <use xlink:href="#DejaVuSans-61" x="1125.195312"/>
      <use xlink:href="#DejaVuSans-70" x="1186.474609"/>
      <use xlink:href="#DejaVuSans-65" x="1249.951172"/>
     </g>
    </g>
    <g id="line2d_25">
     <path d="M 166.72125 216.753437 
L 176.72125 216.753437 
L 186.72125 216.753437 
" style="fill: none; stroke: #8c564b; stroke-width: 1.5; stroke-linecap: square"/>
    </g>
    <g id="text_17">
     <!-- focal_low_gauss_color_to_shape -->
     <g transform="translate(194.72125 220.253437) scale(0.1 -0.1)">
      <use xlink:href="#DejaVuSans-66"/>
      <use xlink:href="#DejaVuSans-6f" x="35.205078"/>
      <use xlink:href="#DejaVuSans-63" x="96.386719"/>
      <use xlink:href="#DejaVuSans-61" x="151.367188"/>
      <use xlink:href="#DejaVuSans-6c" x="212.646484"/>
      <use xlink:href="#DejaVuSans-5f" x="240.429688"/>
      <use xlink:href="#DejaVuSans-6c" x="290.429688"/>
      <use xlink:href="#DejaVuSans-6f" x="318.212891"/>
      <use xlink:href="#DejaVuSans-77" x="379.394531"/>
      <use xlink:href="#DejaVuSans-5f" x="461.181641"/>
      <use xlink:href="#DejaVuSans-67" x="511.181641"/>
      <use xlink:href="#DejaVuSans-61" x="574.658203"/>
      <use xlink:href="#DejaVuSans-75" x="635.9375"/>
      <use xlink:href="#DejaVuSans-73" x="699.316406"/>
      <use xlink:href="#DejaVuSans-73" x="751.416016"/>
      <use xlink:href="#DejaVuSans-5f" x="803.515625"/>
      <use xlink:href="#DejaVuSans-63" x="853.515625"/>
      <use xlink:href="#DejaVuSans-6f" x="908.496094"/>
      <use xlink:href="#DejaVuSans-6c" x="969.677734"/>
      <use xlink:href="#DejaVuSans-6f" x="997.460938"/>
      <use xlink:href="#DejaVuSans-72" x="1058.642578"/>
      <use xlink:href="#DejaVuSans-5f" x="1099.755859"/>
      <use xlink:href="#DejaVuSans-74" x="1149.755859"/>
      <use xlink:href="#DejaVuSans-6f" x="1188.964844"/>
      <use xlink:href="#DejaVuSans-5f" x="1250.146484"/>
      <use xlink:href="#DejaVuSans-73" x="1300.146484"/>
      <use xlink:href="#DejaVuSans-68" x="1352.246094"/>
      <use xlink:href="#DejaVuSans-61" x="1415.625"/>
      <use xlink:href="#DejaVuSans-70" x="1476.904297"/>
      <use xlink:href="#DejaVuSans-65" x="1540.380859"/>
     </g>
    </g>
    <g id="line2d_26">
     <path d="M 166.72125 231.709687 
L 176.72125 231.709687 
L 186.72125 231.709687 
" style="fill: none; stroke: #e377c2; stroke-width: 1.5; stroke-linecap: square"/>
    </g>
    <g id="text_18">
     <!-- high_gauss_color_to_shape -->
     <g transform="translate(194.72125 235.209687) scale(0.1 -0.1)">
      <use xlink:href="#DejaVuSans-68"/>
      <use xlink:href="#DejaVuSans-69" x="63.378906"/>
      <use xlink:href="#DejaVuSans-67" x="91.162109"/>
      <use xlink:href="#DejaVuSans-68" x="154.638672"/>
      <use xlink:href="#DejaVuSans-5f" x="218.017578"/>
      <use xlink:href="#DejaVuSans-67" x="268.017578"/>
      <use xlink:href="#DejaVuSans-61" x="331.494141"/>
      <use xlink:href="#DejaVuSans-75" x="392.773438"/>
      <use xlink:href="#DejaVuSans-73" x="456.152344"/>
      <use xlink:href="#DejaVuSans-73" x="508.251953"/>
      <use xlink:href="#DejaVuSans-5f" x="560.351562"/>
      <use xlink:href="#DejaVuSans-63" x="610.351562"/>
      <use xlink:href="#DejaVuSans-6f" x="665.332031"/>
      <use xlink:href="#DejaVuSans-6c" x="726.513672"/>
      <use xlink:href="#DejaVuSans-6f" x="754.296875"/>
      <use xlink:href="#DejaVuSans-72" x="815.478516"/>
      <use xlink:href="#DejaVuSans-5f" x="856.591797"/>
      <use xlink:href="#DejaVuSans-74" x="906.591797"/>
      <use xlink:href="#DejaVuSans-6f" x="945.800781"/>
      <use xlink:href="#DejaVuSans-5f" x="1006.982422"/>
      <use xlink:href="#DejaVuSans-73" x="1056.982422"/>
      <use xlink:href="#DejaVuSans-68" x="1109.082031"/>
      <use xlink:href="#DejaVuSans-61" x="1172.460938"/>
      <use xlink:href="#DejaVuSans-70" x="1233.740234"/>
      <use xlink:href="#DejaVuSans-65" x="1297.216797"/>
     </g>
    </g>
    <g id="line2d_27">
     <path d="M 166.72125 246.665937 
L 176.72125 246.665937 
L 186.72125 246.665937 
" style="fill: none; stroke: #7f7f7f; stroke-width: 1.5; stroke-linecap: square"/>
    </g>
    <g id="text_19">
     <!-- focal_high_gauss_color_to_shape -->
     <g transform="translate(194.72125 250.165937) scale(0.1 -0.1)">
      <use xlink:href="#DejaVuSans-66"/>
      <use xlink:href="#DejaVuSans-6f" x="35.205078"/>
      <use xlink:href="#DejaVuSans-63" x="96.386719"/>
      <use xlink:href="#DejaVuSans-61" x="151.367188"/>
      <use xlink:href="#DejaVuSans-6c" x="212.646484"/>
      <use xlink:href="#DejaVuSans-5f" x="240.429688"/>
      <use xlink:href="#DejaVuSans-68" x="290.429688"/>
      <use xlink:href="#DejaVuSans-69" x="353.808594"/>
      <use xlink:href="#DejaVuSans-67" x="381.591797"/>
      <use xlink:href="#DejaVuSans-68" x="445.068359"/>
      <use xlink:href="#DejaVuSans-5f" x="508.447266"/>
      <use xlink:href="#DejaVuSans-67" x="558.447266"/>
      <use xlink:href="#DejaVuSans-61" x="621.923828"/>
      <use xlink:href="#DejaVuSans-75" x="683.203125"/>
      <use xlink:href="#DejaVuSans-73" x="746.582031"/>
      <use xlink:href="#DejaVuSans-73" x="798.681641"/>
      <use xlink:href="#DejaVuSans-5f" x="850.78125"/>
      <use xlink:href="#DejaVuSans-63" x="900.78125"/>
      <use xlink:href="#DejaVuSans-6f" x="955.761719"/>
      <use xlink:href="#DejaVuSans-6c" x="1016.943359"/>
      <use xlink:href="#DejaVuSans-6f" x="1044.726562"/>
      <use xlink:href="#DejaVuSans-72" x="1105.908203"/>
      <use xlink:href="#DejaVuSans-5f" x="1147.021484"/>
      <use xlink:href="#DejaVuSans-74" x="1197.021484"/>
      <use xlink:href="#DejaVuSans-6f" x="1236.230469"/>
      <use xlink:href="#DejaVuSans-5f" x="1297.412109"/>
      <use xlink:href="#DejaVuSans-73" x="1347.412109"/>
      <use xlink:href="#DejaVuSans-68" x="1399.511719"/>
      <use xlink:href="#DejaVuSans-61" x="1462.890625"/>
      <use xlink:href="#DejaVuSans-70" x="1524.169922"/>
      <use xlink:href="#DejaVuSans-65" x="1587.646484"/>
     </g>
    </g>
    <g id="line2d_28">
     <path d="M 166.72125 261.622187 
L 176.72125 261.622187 
L 186.72125 261.622187 
" style="fill: none; stroke: #bcbd22; stroke-width: 1.5; stroke-linecap: square"/>
    </g>
    <g id="text_20">
     <!-- achromatic_shape_to_shape -->
     <g transform="translate(194.72125 265.122187) scale(0.1 -0.1)">
      <defs>
       <path id="DejaVuSans-6d" d="M 3328 2828 
Q 3544 3216 3844 3400 
Q 4144 3584 4550 3584 
Q 5097 3584 5394 3201 
Q 5691 2819 5691 2113 
L 5691 0 
L 5113 0 
L 5113 2094 
Q 5113 2597 4934 2840 
Q 4756 3084 4391 3084 
Q 3944 3084 3684 2787 
Q 3425 2491 3425 1978 
L 3425 0 
L 2847 0 
L 2847 2094 
Q 2847 2600 2669 2842 
Q 2491 3084 2119 3084 
Q 1678 3084 1418 2786 
Q 1159 2488 1159 1978 
L 1159 0 
L 581 0 
L 581 3500 
L 1159 3500 
L 1159 2956 
Q 1356 3278 1631 3431 
Q 1906 3584 2284 3584 
Q 2666 3584 2933 3390 
Q 3200 3197 3328 2828 
z
" transform="scale(0.015625)"/>
      </defs>
      <use xlink:href="#DejaVuSans-61"/>
      <use xlink:href="#DejaVuSans-63" x="61.279297"/>
      <use xlink:href="#DejaVuSans-68" x="116.259766"/>
      <use xlink:href="#DejaVuSans-72" x="179.638672"/>
      <use xlink:href="#DejaVuSans-6f" x="218.501953"/>
      <use xlink:href="#DejaVuSans-6d" x="279.683594"/>
      <use xlink:href="#DejaVuSans-61" x="377.095703"/>
      <use xlink:href="#DejaVuSans-74" x="438.375"/>
      <use xlink:href="#DejaVuSans-69" x="477.583984"/>
      <use xlink:href="#DejaVuSans-63" x="505.367188"/>
      <use xlink:href="#DejaVuSans-5f" x="560.347656"/>
      <use xlink:href="#DejaVuSans-73" x="610.347656"/>
      <use xlink:href="#DejaVuSans-68" x="662.447266"/>
      <use xlink:href="#DejaVuSans-61" x="725.826172"/>
      <use xlink:href="#DejaVuSans-70" x="787.105469"/>
      <use xlink:href="#DejaVuSans-65" x="850.582031"/>
      <use xlink:href="#DejaVuSans-5f" x="912.105469"/>
      <use xlink:href="#DejaVuSans-74" x="962.105469"/>
      <use xlink:href="#DejaVuSans-6f" x="1001.314453"/>
      <use xlink:href="#DejaVuSans-5f" x="1062.496094"/>
      <use xlink:href="#DejaVuSans-73" x="1112.496094"/>
      <use xlink:href="#DejaVuSans-68" x="1164.595703"/>
      <use xlink:href="#DejaVuSans-61" x="1227.974609"/>
      <use xlink:href="#DejaVuSans-70" x="1289.253906"/>
      <use xlink:href="#DejaVuSans-65" x="1352.730469"/>
     </g>
    </g>
   </g>
  </g>
  <g id="text_21">
   <!-- free_behavior -->
   <g transform="translate(189.23625 16.030125) scale(0.12 -0.12)">
    <use xlink:href="#DejaVuSans-66"/>
    <use xlink:href="#DejaVuSans-72" x="35.205078"/>
    <use xlink:href="#DejaVuSans-65" x="74.068359"/>
    <use xlink:href="#DejaVuSans-65" x="135.591797"/>
    <use xlink:href="#DejaVuSans-5f" x="197.115234"/>
    <use xlink:href="#DejaVuSans-62" x="247.115234"/>
    <use xlink:href="#DejaVuSans-65" x="310.591797"/>
    <use xlink:href="#DejaVuSans-68" x="372.115234"/>
    <use xlink:href="#DejaVuSans-61" x="435.494141"/>
    <use xlink:href="#DejaVuSans-76" x="496.773438"/>
    <use xlink:href="#DejaVuSans-69" x="555.953125"/>
    <use xlink:href="#DejaVuSans-6f" x="583.736328"/>
    <use xlink:href="#DejaVuSans-72" x="644.917969"/>
   </g>
  </g>
 </g>
 <defs>
  <clipPath id="pdd507b2e8e">
   <rect x="92.16" y="69.12" width="276.48" height="207.36"/>
  </clipPath>
 </defs>
</svg>
