<?xml version="1.0" encoding="utf-8" standalone="no"?>
<!DOCTYPE svg PUBLIC "-//W3C//DTD SVG 1.1//EN"
  "http://www.w3.org/Graphics/SVG/1.1/DTD/svg11.dtd">
<svg xmlns:xlink="http://www.w3.org/1999/xlink" width="460.8pt" height="345.6pt" viewBox="0 0 460.8 345.6" xmlns="http://www.w3.org/2000/svg" version="1.1">
 <metadata>
  <rdf:RDF xmlns:dc="http://purl.org/dc/elements/1.1/" xmlns:cc="http://creativecommons.org/ns#" xmlns:rdf="http://www.w3.org/1999/02/22-rdf-syntax-ns#">
   <cc:Work>
    <dc:type rdf:resource="http://purl.org/dc/dcmitype/StillImage"/>
    <dc:date>2023-08-08T12:05:14.371205</dc:date>
    <dc:format>image/svg+xml</dc:format>
    <dc:creator>
     <cc:Agent>
      <dc:title>Matplotlib v3.7.1, https://matplotlib.org/</dc:title>
     </cc:Agent>
    </dc:creator>
   </cc:Work>
  </rdf:RDF>
 </metadata>
 <defs>
  <style type="text/css">*{stroke-linejoin: round; stroke-linecap: butt}</style>
 </defs>
 <g id="figure_1">
  <g id="patch_1">
   <path d="M 0 345.6 
L 460.8 345.6 
L 460.8 0 
L 0 0 
z
" style="fill: #ffffff"/>
  </g>
  <g id="axes_1">
   <g id="patch_2">
    <path d="M 92.16 276.48 
L 368.64 276.48 
L 368.64 69.12 
L 92.16 69.12 
z
" style="fill: #ffffff"/>
   </g>
   <g id="matplotlib.axis_1">
    <g id="xtick_1">
     <g id="line2d_1">
      <defs>
       <path id="m6074791d25" d="M 0 0 
L 0 3.5 
" style="stroke: #000000; stroke-width: 0.8"/>
      </defs>
      <g>
       <use xlink:href="#m6074791d25" x="104.727273" y="276.48" style="stroke: #000000; stroke-width: 0.8"/>
      </g>
     </g>
     <g id="text_1">
      <!-- 0 -->
      <g transform="translate(101.546023 291.078437) scale(0.1 -0.1)">
       <defs>
        <path id="DejaVuSans-30" d="M 2034 4250 
Q 1547 4250 1301 3770 
Q 1056 3291 1056 2328 
Q 1056 1369 1301 889 
Q 1547 409 2034 409 
Q 2525 409 2770 889 
Q 3016 1369 3016 2328 
Q 3016 3291 2770 3770 
Q 2525 4250 2034 4250 
z
M 2034 4750 
Q 2819 4750 3233 4129 
Q 3647 3509 3647 2328 
Q 3647 1150 3233 529 
Q 2819 -91 2034 -91 
Q 1250 -91 836 529 
Q 422 1150 422 2328 
Q 422 3509 836 4129 
Q 1250 4750 2034 4750 
z
" transform="scale(0.015625)"/>
       </defs>
       <use xlink:href="#DejaVuSans-30"/>
      </g>
     </g>
    </g>
    <g id="xtick_2">
     <g id="line2d_2">
      <g>
       <use xlink:href="#m6074791d25" x="159.546347" y="276.48" style="stroke: #000000; stroke-width: 0.8"/>
      </g>
     </g>
     <g id="text_2">
      <!-- 200 -->
      <g transform="translate(150.002597 291.078437) scale(0.1 -0.1)">
       <defs>
        <path id="DejaVuSans-32" d="M 1228 531 
L 3431 531 
L 3431 0 
L 469 0 
L 469 531 
Q 828 903 1448 1529 
Q 2069 2156 2228 2338 
Q 2531 2678 2651 2914 
Q 2772 3150 2772 3378 
Q 2772 3750 2511 3984 
Q 2250 4219 1831 4219 
Q 1534 4219 1204 4116 
Q 875 4013 500 3803 
L 500 4441 
Q 881 4594 1212 4672 
Q 1544 4750 1819 4750 
Q 2544 4750 2975 4387 
Q 3406 4025 3406 3419 
Q 3406 3131 3298 2873 
Q 3191 2616 2906 2266 
Q 2828 2175 2409 1742 
Q 1991 1309 1228 531 
z
" transform="scale(0.015625)"/>
       </defs>
       <use xlink:href="#DejaVuSans-32"/>
       <use xlink:href="#DejaVuSans-30" x="63.623047"/>
       <use xlink:href="#DejaVuSans-30" x="127.246094"/>
      </g>
     </g>
    </g>
    <g id="xtick_3">
     <g id="line2d_3">
      <g>
       <use xlink:href="#m6074791d25" x="214.365421" y="276.48" style="stroke: #000000; stroke-width: 0.8"/>
      </g>
     </g>
     <g id="text_3">
      <!-- 400 -->
      <g transform="translate(204.821671 291.078437) scale(0.1 -0.1)">
       <defs>
        <path id="DejaVuSans-34" d="M 2419 4116 
L 825 1625 
L 2419 1625 
L 2419 4116 
z
M 2253 4666 
L 3047 4666 
L 3047 1625 
L 3713 1625 
L 3713 1100 
L 3047 1100 
L 3047 0 
L 2419 0 
L 2419 1100 
L 313 1100 
L 313 1709 
L 2253 4666 
z
" transform="scale(0.015625)"/>
       </defs>
       <use xlink:href="#DejaVuSans-34"/>
       <use xlink:href="#DejaVuSans-30" x="63.623047"/>
       <use xlink:href="#DejaVuSans-30" x="127.246094"/>
      </g>
     </g>
    </g>
    <g id="xtick_4">
     <g id="line2d_4">
      <g>
       <use xlink:href="#m6074791d25" x="269.184495" y="276.48" style="stroke: #000000; stroke-width: 0.8"/>
      </g>
     </g>
     <g id="text_4">
      <!-- 600 -->
      <g transform="translate(259.640745 291.078437) scale(0.1 -0.1)">
       <defs>
        <path id="DejaVuSans-36" d="M 2113 2584 
Q 1688 2584 1439 2293 
Q 1191 2003 1191 1497 
Q 1191 994 1439 701 
Q 1688 409 2113 409 
Q 2538 409 2786 701 
Q 3034 994 3034 1497 
Q 3034 2003 2786 2293 
Q 2538 2584 2113 2584 
z
M 3366 4563 
L 3366 3988 
Q 3128 4100 2886 4159 
Q 2644 4219 2406 4219 
Q 1781 4219 1451 3797 
Q 1122 3375 1075 2522 
Q 1259 2794 1537 2939 
Q 1816 3084 2150 3084 
Q 2853 3084 3261 2657 
Q 3669 2231 3669 1497 
Q 3669 778 3244 343 
Q 2819 -91 2113 -91 
Q 1303 -91 875 529 
Q 447 1150 447 2328 
Q 447 3434 972 4092 
Q 1497 4750 2381 4750 
Q 2619 4750 2861 4703 
Q 3103 4656 3366 4563 
z
" transform="scale(0.015625)"/>
       </defs>
       <use xlink:href="#DejaVuSans-36"/>
       <use xlink:href="#DejaVuSans-30" x="63.623047"/>
       <use xlink:href="#DejaVuSans-30" x="127.246094"/>
      </g>
     </g>
    </g>
    <g id="xtick_5">
     <g id="line2d_5">
      <g>
       <use xlink:href="#m6074791d25" x="324.003569" y="276.48" style="stroke: #000000; stroke-width: 0.8"/>
      </g>
     </g>
     <g id="text_5">
      <!-- 800 -->
      <g transform="translate(314.459819 291.078437) scale(0.1 -0.1)">
       <defs>
        <path id="DejaVuSans-38" d="M 2034 2216 
Q 1584 2216 1326 1975 
Q 1069 1734 1069 1313 
Q 1069 891 1326 650 
Q 1584 409 2034 409 
Q 2484 409 2743 651 
Q 3003 894 3003 1313 
Q 3003 1734 2745 1975 
Q 2488 2216 2034 2216 
z
M 1403 2484 
Q 997 2584 770 2862 
Q 544 3141 544 3541 
Q 544 4100 942 4425 
Q 1341 4750 2034 4750 
Q 2731 4750 3128 4425 
Q 3525 4100 3525 3541 
Q 3525 3141 3298 2862 
Q 3072 2584 2669 2484 
Q 3125 2378 3379 2068 
Q 3634 1759 3634 1313 
Q 3634 634 3220 271 
Q 2806 -91 2034 -91 
Q 1263 -91 848 271 
Q 434 634 434 1313 
Q 434 1759 690 2068 
Q 947 2378 1403 2484 
z
M 1172 3481 
Q 1172 3119 1398 2916 
Q 1625 2713 2034 2713 
Q 2441 2713 2670 2916 
Q 2900 3119 2900 3481 
Q 2900 3844 2670 4047 
Q 2441 4250 2034 4250 
Q 1625 4250 1398 4047 
Q 1172 3844 1172 3481 
z
" transform="scale(0.015625)"/>
       </defs>
       <use xlink:href="#DejaVuSans-38"/>
       <use xlink:href="#DejaVuSans-30" x="63.623047"/>
       <use xlink:href="#DejaVuSans-30" x="127.246094"/>
      </g>
     </g>
    </g>
   </g>
   <g id="matplotlib.axis_2">
    <g id="ytick_1">
     <g id="line2d_6">
      <defs>
       <path id="m492dc07512" d="M 0 0 
L -3.5 0 
" style="stroke: #000000; stroke-width: 0.8"/>
      </defs>
      <g>
       <use xlink:href="#m492dc07512" x="92.16" y="245.367659" style="stroke: #000000; stroke-width: 0.8"/>
      </g>
     </g>
     <g id="text_6">
      <!-- 0.5 -->
      <g transform="translate(69.256875 249.166878) scale(0.1 -0.1)">
       <defs>
        <path id="DejaVuSans-2e" d="M 684 794 
L 1344 794 
L 1344 0 
L 684 0 
L 684 794 
z
" transform="scale(0.015625)"/>
        <path id="DejaVuSans-35" d="M 691 4666 
L 3169 4666 
L 3169 4134 
L 1269 4134 
L 1269 2991 
Q 1406 3038 1543 3061 
Q 1681 3084 1819 3084 
Q 2600 3084 3056 2656 
Q 3513 2228 3513 1497 
Q 3513 744 3044 326 
Q 2575 -91 1722 -91 
Q 1428 -91 1123 -41 
Q 819 9 494 109 
L 494 744 
Q 775 591 1075 516 
Q 1375 441 1709 441 
Q 2250 441 2565 725 
Q 2881 1009 2881 1497 
Q 2881 1984 2565 2268 
Q 2250 2553 1709 2553 
Q 1456 2553 1204 2497 
Q 953 2441 691 2322 
L 691 4666 
z
" transform="scale(0.015625)"/>
       </defs>
       <use xlink:href="#DejaVuSans-30"/>
       <use xlink:href="#DejaVuSans-2e" x="63.623047"/>
       <use xlink:href="#DejaVuSans-35" x="95.410156"/>
      </g>
     </g>
    </g>
    <g id="ytick_2">
     <g id="line2d_7">
      <g>
       <use xlink:href="#m492dc07512" x="92.16" y="212.003218" style="stroke: #000000; stroke-width: 0.8"/>
      </g>
     </g>
     <g id="text_7">
      <!-- 0.6 -->
      <g transform="translate(69.256875 215.802437) scale(0.1 -0.1)">
       <use xlink:href="#DejaVuSans-30"/>
       <use xlink:href="#DejaVuSans-2e" x="63.623047"/>
       <use xlink:href="#DejaVuSans-36" x="95.410156"/>
      </g>
     </g>
    </g>
    <g id="ytick_3">
     <g id="line2d_8">
      <g>
       <use xlink:href="#m492dc07512" x="92.16" y="178.638777" style="stroke: #000000; stroke-width: 0.8"/>
      </g>
     </g>
     <g id="text_8">
      <!-- 0.7 -->
      <g transform="translate(69.256875 182.437996) scale(0.1 -0.1)">
       <defs>
        <path id="DejaVuSans-37" d="M 525 4666 
L 3525 4666 
L 3525 4397 
L 1831 0 
L 1172 0 
L 2766 4134 
L 525 4134 
L 525 4666 
z
" transform="scale(0.015625)"/>
       </defs>
       <use xlink:href="#DejaVuSans-30"/>
       <use xlink:href="#DejaVuSans-2e" x="63.623047"/>
       <use xlink:href="#DejaVuSans-37" x="95.410156"/>
      </g>
     </g>
    </g>
    <g id="ytick_4">
     <g id="line2d_9">
      <g>
       <use xlink:href="#m492dc07512" x="92.16" y="145.274336" style="stroke: #000000; stroke-width: 0.8"/>
      </g>
     </g>
     <g id="text_9">
      <!-- 0.8 -->
      <g transform="translate(69.256875 149.073555) scale(0.1 -0.1)">
       <use xlink:href="#DejaVuSans-30"/>
       <use xlink:href="#DejaVuSans-2e" x="63.623047"/>
       <use xlink:href="#DejaVuSans-38" x="95.410156"/>
      </g>
     </g>
    </g>
    <g id="ytick_5">
     <g id="line2d_10">
      <g>
       <use xlink:href="#m492dc07512" x="92.16" y="111.909895" style="stroke: #000000; stroke-width: 0.8"/>
      </g>
     </g>
     <g id="text_10">
      <!-- 0.9 -->
      <g transform="translate(69.256875 115.709114) scale(0.1 -0.1)">
       <defs>
        <path id="DejaVuSans-39" d="M 703 97 
L 703 672 
Q 941 559 1184 500 
Q 1428 441 1663 441 
Q 2288 441 2617 861 
Q 2947 1281 2994 2138 
Q 2813 1869 2534 1725 
Q 2256 1581 1919 1581 
Q 1219 1581 811 2004 
Q 403 2428 403 3163 
Q 403 3881 828 4315 
Q 1253 4750 1959 4750 
Q 2769 4750 3195 4129 
Q 3622 3509 3622 2328 
Q 3622 1225 3098 567 
Q 2575 -91 1691 -91 
Q 1453 -91 1209 -44 
Q 966 3 703 97 
z
M 1959 2075 
Q 2384 2075 2632 2365 
Q 2881 2656 2881 3163 
Q 2881 3666 2632 3958 
Q 2384 4250 1959 4250 
Q 1534 4250 1286 3958 
Q 1038 3666 1038 3163 
Q 1038 2656 1286 2365 
Q 1534 2075 1959 2075 
z
" transform="scale(0.015625)"/>
       </defs>
       <use xlink:href="#DejaVuSans-30"/>
       <use xlink:href="#DejaVuSans-2e" x="63.623047"/>
       <use xlink:href="#DejaVuSans-39" x="95.410156"/>
      </g>
     </g>
    </g>
    <g id="ytick_6">
     <g id="line2d_11">
      <g>
       <use xlink:href="#m492dc07512" x="92.16" y="78.545455" style="stroke: #000000; stroke-width: 0.8"/>
      </g>
     </g>
     <g id="text_11">
      <!-- 1.0 -->
      <g transform="translate(69.256875 82.344673) scale(0.1 -0.1)">
       <defs>
        <path id="DejaVuSans-31" d="M 794 531 
L 1825 531 
L 1825 4091 
L 703 3866 
L 703 4441 
L 1819 4666 
L 2450 4666 
L 2450 531 
L 3481 531 
L 3481 0 
L 794 0 
L 794 531 
z
" transform="scale(0.015625)"/>
       </defs>
       <use xlink:href="#DejaVuSans-31"/>
       <use xlink:href="#DejaVuSans-2e" x="63.623047"/>
       <use xlink:href="#DejaVuSans-30" x="95.410156"/>
      </g>
     </g>
    </g>
   </g>
   <g id="line2d_12">
    <path d="M 104.727273 212.003218 
L 105.275463 212.003218 
L 105.549559 213.67144 
L 106.09775 213.67144 
L 106.371845 215.339662 
L 106.920036 215.339662 
L 107.194131 213.67144 
L 107.742322 213.67144 
L 108.016417 215.339662 
L 108.838703 210.334996 
L 109.386894 210.334996 
L 109.660989 212.003218 
L 109.935085 210.334996 
L 110.20918 212.003218 
L 110.483276 212.003218 
L 110.757371 213.67144 
L 111.305562 210.334996 
L 111.579657 210.334996 
L 111.853752 208.666774 
L 112.676038 208.666774 
L 112.950134 210.334996 
L 113.224229 208.666774 
L 113.498325 208.666774 
L 113.77242 206.998552 
L 115.142897 206.998552 
L 115.416992 208.666774 
L 115.691088 208.666774 
L 115.965183 210.334996 
L 116.239278 208.666774 
L 116.787469 208.666774 
L 117.061564 210.334996 
L 120.350709 210.334996 
L 120.624804 212.003218 
L 120.8989 210.334996 
L 121.172995 210.334996 
L 121.721186 213.67144 
L 121.995281 213.67144 
L 122.817567 218.676106 
L 123.091663 217.007884 
L 123.365758 218.676106 
L 124.188044 218.676106 
L 124.462139 220.344328 
L 124.736235 220.344328 
L 125.01033 218.676106 
L 125.284425 220.344328 
L 125.558521 220.344328 
L 125.832616 222.01255 
L 126.106712 222.01255 
L 126.380807 220.344328 
L 126.928998 223.680772 
L 127.751284 223.680772 
L 128.025379 225.348994 
L 128.57357 225.348994 
L 129.121761 228.685438 
L 129.395856 228.685438 
L 129.669951 227.017216 
L 129.944047 228.685438 
L 130.218142 228.685438 
L 131.040428 223.680772 
L 131.588619 223.680772 
L 132.685 230.35366 
L 133.507287 230.35366 
L 134.055477 227.017216 
L 134.603668 230.35366 
L 134.877763 228.685438 
L 135.151859 228.685438 
L 135.425954 230.35366 
L 135.70005 230.35366 
L 135.974145 232.021883 
L 136.24824 232.021883 
L 136.522336 233.690105 
L 136.796431 232.021883 
L 137.892813 238.694771 
L 138.441003 235.358327 
L 138.715099 237.026549 
L 138.989194 235.358327 
L 139.263289 235.358327 
L 139.81148 232.021883 
L 142.278338 232.021883 
L 142.552434 230.35366 
L 143.100625 230.35366 
L 143.648815 227.017216 
L 144.197006 227.017216 
L 144.745197 223.680772 
L 146.115674 223.680772 
L 146.93796 218.676106 
L 147.48615 218.676106 
L 148.034341 222.01255 
L 148.308437 222.01255 
L 148.582532 223.680772 
L 149.130723 223.680772 
L 149.404818 222.01255 
L 149.678913 222.01255 
L 150.227104 218.676106 
L 151.04939 218.676106 
L 151.323486 217.007884 
L 151.597581 217.007884 
L 152.145772 220.344328 
L 153.242153 220.344328 
L 153.516249 218.676106 
L 153.790344 220.344328 
L 154.064439 220.344328 
L 154.338535 222.01255 
L 154.886725 222.01255 
L 155.160821 220.344328 
L 155.434916 222.01255 
L 156.257202 217.007884 
L 157.079488 217.007884 
L 157.353584 215.339662 
L 157.627679 217.007884 
L 157.901775 217.007884 
L 158.17587 218.676106 
L 158.449965 217.007884 
L 159.546347 217.007884 
L 159.820442 218.676106 
L 160.094538 218.676106 
L 160.368633 217.007884 
L 160.642728 218.676106 
L 160.916824 218.676106 
L 161.190919 217.007884 
L 161.73911 220.344328 
L 162.013205 220.344328 
L 162.2873 222.01255 
L 162.561396 222.01255 
L 162.835491 220.344328 
L 163.109587 220.344328 
L 163.383682 222.01255 
L 163.657777 222.01255 
L 163.931873 223.680772 
L 164.480063 220.344328 
L 164.754159 222.01255 
L 165.30235 222.01255 
L 165.576445 220.344328 
L 165.85054 222.01255 
L 168.043303 222.01255 
L 168.317399 220.344328 
L 168.865589 220.344328 
L 169.139685 218.676106 
L 169.41378 218.676106 
L 169.687875 220.344328 
L 169.961971 218.676106 
L 170.236066 218.676106 
L 170.784257 215.339662 
L 171.606543 215.339662 
L 171.880638 213.67144 
L 172.154734 215.339662 
L 172.428829 215.339662 
L 172.702925 213.67144 
L 173.525211 213.67144 
L 173.799306 215.339662 
L 174.347497 215.339662 
L 174.895688 212.003218 
L 175.169783 212.003218 
L 175.443878 210.334996 
L 175.992069 210.334996 
L 177.08845 203.662108 
L 177.362546 203.662108 
L 177.636641 201.993886 
L 177.910737 203.662108 
L 178.733023 203.662108 
L 179.007118 205.33033 
L 179.281213 203.662108 
L 179.829404 203.662108 
L 180.925786 196.98922 
L 181.199881 198.657442 
L 181.748072 195.320998 
L 182.570358 195.320998 
L 182.844453 193.652776 
L 183.392644 193.652776 
L 183.940835 190.316331 
L 184.21493 190.316331 
L 184.489025 191.984553 
L 184.763121 190.316331 
L 185.859502 196.98922 
L 186.407693 196.98922 
L 186.681788 195.320998 
L 186.955884 195.320998 
L 187.229979 193.652776 
L 188.052265 193.652776 
L 188.326361 191.984553 
L 188.600456 191.984553 
L 188.874551 193.652776 
L 189.148647 193.652776 
L 189.422742 191.984553 
L 189.696838 193.652776 
L 190.245028 193.652776 
L 190.519124 195.320998 
L 190.793219 193.652776 
L 191.067314 195.320998 
L 191.34141 193.652776 
L 191.615505 193.652776 
L 192.163696 190.316331 
L 194.90465 190.316331 
L 195.178745 191.984553 
L 195.45284 191.984553 
L 195.726936 193.652776 
L 196.823317 193.652776 
L 197.371508 196.98922 
L 198.193794 196.98922 
L 198.467889 198.657442 
L 198.741985 198.657442 
L 199.01608 200.325664 
L 199.290175 200.325664 
L 199.564271 201.993886 
L 199.838366 201.993886 
L 200.660652 206.998552 
L 200.934748 205.33033 
L 201.482938 208.666774 
L 202.305225 208.666774 
L 202.853415 205.33033 
L 203.675701 205.33033 
L 203.949797 206.998552 
L 204.223892 206.998552 
L 204.497988 208.666774 
L 204.772083 208.666774 
L 205.320274 212.003218 
L 205.594369 212.003218 
L 205.868464 210.334996 
L 206.416655 213.67144 
L 206.69075 213.67144 
L 206.964846 212.003218 
L 207.238941 212.003218 
L 207.513037 210.334996 
L 207.787132 210.334996 
L 208.061227 208.666774 
L 208.609418 208.666774 
L 208.883513 210.334996 
L 209.431704 206.998552 
L 209.7058 206.998552 
L 209.979895 208.666774 
L 210.25399 206.998552 
L 210.528086 208.666774 
L 211.350372 208.666774 
L 211.898563 212.003218 
L 216.009993 212.003218 
L 216.558184 208.666774 
L 217.106375 208.666774 
L 217.38047 210.334996 
L 217.928661 210.334996 
L 218.202756 208.666774 
L 218.476851 208.666774 
L 218.750947 206.998552 
L 219.299138 210.334996 
L 219.573233 210.334996 
L 219.847328 208.666774 
L 220.121424 208.666774 
L 220.395519 210.334996 
L 220.669614 208.666774 
L 220.94371 210.334996 
L 222.040091 210.334996 
L 222.314187 212.003218 
L 222.588282 210.334996 
L 223.136473 210.334996 
L 223.958759 215.339662 
L 225.603331 215.339662 
L 226.151522 218.676106 
L 226.973808 218.676106 
L 227.247903 217.007884 
L 227.521999 217.007884 
L 227.796094 215.339662 
L 228.892475 215.339662 
L 229.166571 217.007884 
L 229.440666 217.007884 
L 229.714762 218.676106 
L 229.988857 218.676106 
L 230.537048 222.01255 
L 230.811143 222.01255 
L 231.085238 223.680772 
L 231.907525 223.680772 
L 232.18162 222.01255 
L 232.455715 222.01255 
L 232.729811 220.344328 
L 233.552097 220.344328 
L 233.826192 218.676106 
L 234.100287 218.676106 
L 234.374383 217.007884 
L 234.648478 217.007884 
L 235.470764 222.01255 
L 236.018955 222.01255 
L 236.29305 223.680772 
L 236.567146 223.680772 
L 236.841241 225.348994 
L 237.115337 225.348994 
L 237.389432 223.680772 
L 238.759909 232.021883 
L 239.034004 232.021883 
L 239.3081 230.35366 
L 239.582195 230.35366 
L 239.85629 228.685438 
L 240.952672 228.685438 
L 241.226767 227.017216 
L 241.500862 228.685438 
L 241.774958 227.017216 
L 242.323149 227.017216 
L 242.597244 225.348994 
L 243.41953 230.35366 
L 243.967721 227.017216 
L 244.515912 227.017216 
L 244.790007 228.685438 
L 245.064102 227.017216 
L 245.886388 227.017216 
L 246.160484 228.685438 
L 246.98277 228.685438 
L 247.530961 225.348994 
L 247.805056 225.348994 
L 248.079151 227.017216 
L 250.271914 227.017216 
L 250.54601 225.348994 
L 250.820105 227.017216 
L 251.0942 225.348994 
L 251.368296 225.348994 
L 251.642391 227.017216 
L 252.190582 223.680772 
L 252.464677 225.348994 
L 252.738773 225.348994 
L 253.012868 227.017216 
L 253.286963 225.348994 
L 253.561059 227.017216 
L 253.835154 225.348994 
L 254.10925 227.017216 
L 254.383345 227.017216 
L 254.65744 228.685438 
L 254.931536 227.017216 
L 255.205631 227.017216 
L 255.479726 225.348994 
L 255.753822 225.348994 
L 256.302012 222.01255 
L 256.576108 222.01255 
L 257.124299 225.348994 
L 257.398394 225.348994 
L 257.672489 227.017216 
L 257.946585 225.348994 
L 258.768871 225.348994 
L 259.042966 227.017216 
L 260.139348 227.017216 
L 260.413443 225.348994 
L 260.687538 227.017216 
L 261.235729 223.680772 
L 261.509825 223.680772 
L 262.058015 227.017216 
L 262.606206 227.017216 
L 263.154397 230.35366 
L 263.428492 230.35366 
L 263.702587 228.685438 
L 263.976683 228.685438 
L 264.250778 230.35366 
L 264.798969 230.35366 
L 265.073064 232.021883 
L 265.34716 230.35366 
L 266.169446 235.358327 
L 267.814018 235.358327 
L 268.088113 237.026549 
L 269.184495 237.026549 
L 269.45859 235.358327 
L 269.732686 237.026549 
L 270.554972 237.026549 
L 270.829067 238.694771 
L 271.103162 238.694771 
L 271.377258 240.362993 
L 271.925449 240.362993 
L 272.199544 238.694771 
L 272.473639 240.362993 
L 273.02183 240.362993 
L 273.295925 242.031215 
L 273.570021 242.031215 
L 273.844116 240.362993 
L 274.118212 240.362993 
L 274.392307 238.694771 
L 274.940498 242.031215 
L 275.214593 240.362993 
L 275.488688 240.362993 
L 275.762784 238.694771 
L 276.310975 238.694771 
L 276.859165 242.031215 
L 277.133261 240.362993 
L 277.955547 240.362993 
L 278.503737 237.026549 
L 279.051928 237.026549 
L 279.326024 235.358327 
L 279.600119 237.026549 
L 279.874214 235.358327 
L 280.422405 238.694771 
L 280.970596 235.358327 
L 281.244691 235.358327 
L 281.518787 237.026549 
L 281.792882 237.026549 
L 282.066977 238.694771 
L 282.341073 238.694771 
L 282.615168 240.362993 
L 282.889263 238.694771 
L 283.71155 238.694771 
L 283.985645 237.026549 
L 284.25974 238.694771 
L 284.533836 238.694771 
L 284.807931 240.362993 
L 285.904312 233.690105 
L 287.274789 242.031215 
L 287.548885 242.031215 
L 287.82298 240.362993 
L 288.097075 242.031215 
L 288.371171 240.362993 
L 288.919362 243.699437 
L 289.193457 243.699437 
L 289.467552 245.367659 
L 289.467552 245.367659 
" clip-path="url(#p8037a863d0)" style="fill: none; stroke: #1f77b4; stroke-width: 1.5; stroke-linecap: square"/>
   </g>
   <g id="line2d_13">
    <path d="M 104.727273 78.545455 
L 289.193457 78.545455 
L 289.193457 78.545455 
" clip-path="url(#p8037a863d0)" style="fill: none; stroke: #ff7f0e; stroke-width: 1.5; stroke-linecap: square"/>
   </g>
   <g id="line2d_14">
    <path d="M 104.727273 245.367659 
L 105.001368 245.367659 
L 105.275463 247.035881 
L 106.371845 247.035881 
L 106.64594 245.367659 
L 106.920036 247.035881 
L 107.194131 247.035881 
L 107.468226 245.367659 
L 107.742322 245.367659 
L 108.016417 247.035881 
L 108.838703 242.031215 
L 109.386894 242.031215 
L 109.660989 243.699437 
L 110.20918 243.699437 
L 110.483276 245.367659 
L 111.853752 245.367659 
L 112.127848 247.035881 
L 112.401943 247.035881 
L 112.676038 245.367659 
L 113.224229 245.367659 
L 113.498325 243.699437 
L 114.868801 243.699437 
L 115.142897 242.031215 
L 115.416992 242.031215 
L 115.691088 243.699437 
L 116.239278 243.699437 
L 116.513374 245.367659 
L 116.787469 243.699437 
L 117.061564 245.367659 
L 118.706137 245.367659 
L 118.980232 243.699437 
L 119.528423 243.699437 
L 119.802518 242.031215 
L 120.076613 242.031215 
L 120.624804 238.694771 
L 120.8989 238.694771 
L 121.172995 240.362993 
L 121.44709 240.362993 
L 121.995281 243.699437 
L 122.543472 240.362993 
L 122.817567 242.031215 
L 123.365758 242.031215 
L 123.639853 240.362993 
L 125.01033 240.362993 
L 125.558521 237.026549 
L 125.832616 238.694771 
L 126.106712 237.026549 
L 127.203093 237.026549 
L 127.751284 240.362993 
L 128.025379 238.694771 
L 128.299475 238.694771 
L 128.847665 242.031215 
L 130.766333 242.031215 
L 131.040428 240.362993 
L 131.314524 242.031215 
L 131.862714 238.694771 
L 132.13681 240.362993 
L 132.410905 240.362993 
L 132.685 238.694771 
L 132.959096 238.694771 
L 133.233191 240.362993 
L 133.507287 238.694771 
L 134.603668 238.694771 
L 135.151859 242.031215 
L 136.522336 242.031215 
L 137.070526 245.367659 
L 137.618717 245.367659 
L 137.892813 247.035881 
L 138.441003 243.699437 
L 138.715099 243.699437 
L 138.989194 242.031215 
L 139.81148 242.031215 
L 140.085575 240.362993 
L 140.907862 240.362993 
L 141.181957 238.694771 
L 141.456052 240.362993 
L 141.730148 240.362993 
L 142.278338 237.026549 
L 142.552434 238.694771 
L 144.197006 238.694771 
L 144.471101 240.362993 
L 144.745197 238.694771 
L 145.019292 238.694771 
L 145.293388 237.026549 
L 145.841578 237.026549 
L 146.389769 240.362993 
L 146.663864 238.694771 
L 146.93796 240.362993 
L 147.760246 240.362993 
L 148.308437 243.699437 
L 148.582532 243.699437 
L 148.856627 245.367659 
L 149.130723 245.367659 
L 149.404818 243.699437 
L 149.678913 245.367659 
L 149.953009 245.367659 
L 150.227104 243.699437 
L 150.775295 243.699437 
L 151.323486 240.362993 
L 151.871676 240.362993 
L 152.419867 243.699437 
L 152.968058 240.362993 
L 153.516249 240.362993 
L 154.064439 243.699437 
L 154.61263 240.362993 
L 155.434916 240.362993 
L 156.257202 235.358327 
L 156.531298 235.358327 
L 156.805393 237.026549 
L 157.079488 237.026549 
L 157.353584 235.358327 
L 159.820442 235.358327 
L 160.094538 233.690105 
L 160.368633 233.690105 
L 160.642728 235.358327 
L 160.916824 235.358327 
L 161.190919 233.690105 
L 161.465014 235.358327 
L 162.013205 232.021883 
L 162.561396 235.358327 
L 162.835491 233.690105 
L 163.109587 235.358327 
L 164.480063 235.358327 
L 165.028254 232.021883 
L 165.30235 232.021883 
L 165.576445 233.690105 
L 166.124636 233.690105 
L 166.946922 228.685438 
L 168.043303 228.685438 
L 168.317399 230.35366 
L 169.139685 230.35366 
L 169.41378 232.021883 
L 170.510162 232.021883 
L 170.784257 233.690105 
L 171.058352 233.690105 
L 171.332448 232.021883 
L 171.606543 233.690105 
L 171.880638 233.690105 
L 172.154734 232.021883 
L 173.525211 232.021883 
L 173.799306 233.690105 
L 174.073401 232.021883 
L 175.443878 232.021883 
L 175.717974 233.690105 
L 176.266164 233.690105 
L 176.54026 232.021883 
L 177.362546 232.021883 
L 177.636641 230.35366 
L 177.910737 232.021883 
L 178.184832 230.35366 
L 178.458927 232.021883 
L 178.733023 232.021883 
L 179.281213 228.685438 
L 180.65169 228.685438 
L 180.925786 230.35366 
L 182.022167 230.35366 
L 182.296263 228.685438 
L 182.570358 228.685438 
L 182.844453 230.35366 
L 183.392644 227.017216 
L 183.666739 227.017216 
L 183.940835 228.685438 
L 184.489025 228.685438 
L 185.037216 225.348994 
L 185.585407 228.685438 
L 185.859502 228.685438 
L 186.133598 227.017216 
L 186.407693 228.685438 
L 186.681788 228.685438 
L 186.955884 227.017216 
L 187.77817 227.017216 
L 188.052265 225.348994 
L 188.600456 228.685438 
L 188.874551 228.685438 
L 189.148647 227.017216 
L 189.422742 227.017216 
L 189.970933 223.680772 
L 190.245028 225.348994 
L 190.793219 225.348994 
L 191.067314 223.680772 
L 191.34141 223.680772 
L 191.8896 220.344328 
L 192.163696 220.344328 
L 192.437791 222.01255 
L 192.711887 220.344328 
L 192.985982 222.01255 
L 193.808268 222.01255 
L 194.082363 220.344328 
L 194.356459 222.01255 
L 194.630554 222.01255 
L 194.90465 223.680772 
L 195.726936 218.676106 
L 196.275126 218.676106 
L 196.823317 222.01255 
L 197.371508 222.01255 
L 197.919699 225.348994 
L 198.467889 225.348994 
L 198.741985 223.680772 
L 199.838366 223.680772 
L 200.112462 225.348994 
L 200.386557 225.348994 
L 200.660652 223.680772 
L 201.208843 223.680772 
L 201.482938 225.348994 
L 201.757034 223.680772 
L 202.305225 223.680772 
L 203.127511 218.676106 
L 203.401606 220.344328 
L 204.497988 220.344328 
L 205.594369 227.017216 
L 205.868464 227.017216 
L 206.14256 228.685438 
L 206.416655 228.685438 
L 207.238941 223.680772 
L 207.513037 225.348994 
L 208.061227 225.348994 
L 208.883513 220.344328 
L 209.431704 220.344328 
L 209.979895 223.680772 
L 210.25399 223.680772 
L 210.528086 225.348994 
L 212.172658 225.348994 
L 212.446753 227.017216 
L 212.994944 227.017216 
L 213.269039 225.348994 
L 213.81723 225.348994 
L 214.091325 227.017216 
L 214.365421 227.017216 
L 214.639516 228.685438 
L 216.832279 228.685438 
L 217.38047 225.348994 
L 217.654565 225.348994 
L 217.928661 223.680772 
L 218.476851 223.680772 
L 218.750947 222.01255 
L 219.025042 223.680772 
L 220.94371 223.680772 
L 221.217805 225.348994 
L 221.765996 225.348994 
L 222.314187 228.685438 
L 222.588282 228.685438 
L 223.136473 225.348994 
L 223.684663 228.685438 
L 223.958759 228.685438 
L 224.232854 227.017216 
L 224.50695 227.017216 
L 224.781045 228.685438 
L 225.05514 227.017216 
L 225.329236 227.017216 
L 225.603331 225.348994 
L 225.877426 225.348994 
L 226.151522 227.017216 
L 227.521999 227.017216 
L 228.070189 230.35366 
L 228.61838 230.35366 
L 228.892475 232.021883 
L 229.166571 230.35366 
L 229.440666 232.021883 
L 229.714762 232.021883 
L 229.988857 233.690105 
L 230.262952 233.690105 
L 230.537048 232.021883 
L 231.085238 232.021883 
L 231.359334 233.690105 
L 231.633429 232.021883 
L 231.907525 233.690105 
L 233.278001 233.690105 
L 233.552097 232.021883 
L 234.100287 235.358327 
L 234.374383 235.358327 
L 234.922574 238.694771 
L 235.470764 238.694771 
L 236.018955 235.358327 
L 236.29305 235.358327 
L 236.567146 237.026549 
L 237.389432 237.026549 
L 237.663527 235.358327 
L 238.211718 235.358327 
L 238.759909 232.021883 
L 239.034004 233.690105 
L 239.3081 233.690105 
L 239.582195 235.358327 
L 239.85629 235.358327 
L 240.404481 232.021883 
L 240.678576 232.021883 
L 240.952672 233.690105 
L 241.226767 233.690105 
L 241.774958 237.026549 
L 242.049053 237.026549 
L 242.323149 238.694771 
L 242.871339 238.694771 
L 243.41953 235.358327 
L 244.790007 235.358327 
L 245.064102 233.690105 
L 245.612293 237.026549 
L 246.708675 237.026549 
L 246.98277 238.694771 
L 247.256865 237.026549 
L 247.530961 237.026549 
L 247.805056 235.358327 
L 248.079151 237.026549 
L 248.901437 237.026549 
L 249.175533 235.358327 
L 249.449628 237.026549 
L 249.723724 237.026549 
L 249.997819 238.694771 
L 250.54601 238.694771 
L 250.820105 240.362993 
L 251.0942 238.694771 
L 251.368296 238.694771 
L 251.642391 237.026549 
L 251.916487 238.694771 
L 252.190582 238.694771 
L 252.464677 237.026549 
L 253.286963 237.026549 
L 253.561059 238.694771 
L 254.10925 238.694771 
L 254.383345 240.362993 
L 254.65744 240.362993 
L 255.205631 237.026549 
L 255.479726 238.694771 
L 255.753822 237.026549 
L 257.124299 237.026549 
L 257.672489 240.362993 
L 258.494775 240.362993 
L 258.768871 238.694771 
L 260.139348 238.694771 
L 260.413443 237.026549 
L 261.509825 237.026549 
L 262.058015 240.362993 
L 262.332111 238.694771 
L 262.606206 240.362993 
L 262.880301 240.362993 
L 263.428492 243.699437 
L 263.702587 243.699437 
L 263.976683 245.367659 
L 264.250778 245.367659 
L 264.524874 243.699437 
L 265.34716 243.699437 
L 265.89535 247.035881 
L 266.169446 247.035881 
L 266.443541 245.367659 
L 267.539923 245.367659 
L 267.814018 243.699437 
L 268.088113 245.367659 
L 268.636304 245.367659 
L 268.9104 243.699437 
L 269.45859 243.699437 
L 269.732686 245.367659 
L 270.006781 245.367659 
L 270.554972 242.031215 
L 270.829067 242.031215 
L 271.103162 240.362993 
L 271.377258 242.031215 
L 272.199544 242.031215 
L 272.473639 243.699437 
L 273.02183 243.699437 
L 273.295925 245.367659 
L 274.666402 245.367659 
L 274.940498 243.699437 
L 275.214593 243.699437 
L 275.488688 242.031215 
L 275.762784 242.031215 
L 276.036879 240.362993 
L 277.133261 240.362993 
L 277.407356 238.694771 
L 277.955547 242.031215 
L 278.503737 242.031215 
L 278.777833 240.362993 
L 279.326024 240.362993 
L 279.600119 238.694771 
L 279.874214 240.362993 
L 280.14831 238.694771 
L 280.422405 240.362993 
L 280.6965 240.362993 
L 281.518787 235.358327 
L 281.792882 235.358327 
L 282.066977 237.026549 
L 282.615168 233.690105 
L 282.889263 233.690105 
L 283.71155 228.685438 
L 283.985645 230.35366 
L 284.25974 228.685438 
L 284.533836 230.35366 
L 285.082026 230.35366 
L 285.356122 232.021883 
L 286.726599 232.021883 
L 286.726599 232.021883 
" clip-path="url(#p8037a863d0)" style="fill: none; stroke: #2ca02c; stroke-width: 1.5; stroke-linecap: square"/>
   </g>
   <g id="line2d_15">
    <path d="M 104.727273 78.545455 
L 289.193457 78.545455 
L 289.193457 78.545455 
" clip-path="url(#p8037a863d0)" style="fill: none; stroke: #d62728; stroke-width: 1.5; stroke-linecap: square"/>
   </g>
   <g id="line2d_16">
    <path d="M 104.727273 258.713435 
L 105.001368 260.381657 
L 105.275463 258.713435 
L 105.823654 258.713435 
L 106.09775 260.381657 
L 106.64594 260.381657 
L 106.920036 262.049879 
L 107.468226 262.049879 
L 108.016417 265.386323 
L 108.290513 263.718101 
L 108.838703 267.054545 
L 109.386894 267.054545 
L 109.660989 265.386323 
L 110.20918 265.386323 
L 110.483276 263.718101 
L 111.853752 263.718101 
L 112.401943 260.381657 
L 112.676038 262.049879 
L 113.224229 262.049879 
L 113.498325 260.381657 
L 114.046515 260.381657 
L 114.320611 258.713435 
L 115.416992 258.713435 
L 115.691088 260.381657 
L 117.061564 260.381657 
L 117.33566 258.713435 
L 117.883851 258.713435 
L 118.157946 260.381657 
L 118.432041 260.381657 
L 118.706137 258.713435 
L 118.980232 258.713435 
L 119.528423 255.376991 
L 119.802518 257.045213 
L 120.350709 257.045213 
L 120.624804 258.713435 
L 121.172995 255.376991 
L 123.091663 255.376991 
L 123.365758 257.045213 
L 124.188044 257.045213 
L 124.462139 255.376991 
L 125.284425 255.376991 
L 125.558521 257.045213 
L 125.832616 255.376991 
L 126.106712 255.376991 
L 126.380807 253.708769 
L 127.203093 253.708769 
L 127.477188 252.040547 
L 127.751284 252.040547 
L 128.025379 250.372325 
L 128.299475 252.040547 
L 128.57357 250.372325 
L 129.121761 253.708769 
L 129.669951 253.708769 
L 129.944047 252.040547 
L 130.492238 252.040547 
L 130.766333 250.372325 
L 131.588619 250.372325 
L 132.13681 253.708769 
L 132.410905 253.708769 
L 132.959096 257.045213 
L 133.233191 257.045213 
L 133.507287 258.713435 
L 133.781382 258.713435 
L 134.329573 255.376991 
L 135.151859 255.376991 
L 135.425954 257.045213 
L 136.24824 257.045213 
L 137.070526 252.040547 
L 137.344622 252.040547 
L 137.892813 248.704103 
L 138.166908 248.704103 
L 138.715099 245.367659 
L 139.263289 245.367659 
L 139.537385 243.699437 
L 140.085575 243.699437 
L 140.359671 245.367659 
L 140.633766 243.699437 
L 140.907862 243.699437 
L 141.181957 245.367659 
L 142.278338 245.367659 
L 142.826529 248.704103 
L 143.922911 248.704103 
L 144.197006 247.035881 
L 144.745197 247.035881 
L 145.841578 240.362993 
L 146.115674 240.362993 
L 146.663864 243.699437 
L 146.93796 243.699437 
L 147.48615 240.362993 
L 148.034341 240.362993 
L 148.308437 238.694771 
L 148.582532 238.694771 
L 148.856627 240.362993 
L 149.130723 240.362993 
L 149.678913 243.699437 
L 151.04939 243.699437 
L 151.323486 245.367659 
L 151.597581 245.367659 
L 151.871676 247.035881 
L 152.145772 245.367659 
L 152.968058 245.367659 
L 153.242153 243.699437 
L 153.790344 247.035881 
L 154.886725 240.362993 
L 155.434916 240.362993 
L 155.709012 242.031215 
L 155.983107 242.031215 
L 156.257202 240.362993 
L 156.805393 240.362993 
L 157.079488 242.031215 
L 157.353584 242.031215 
L 157.627679 243.699437 
L 157.901775 242.031215 
L 158.449965 242.031215 
L 158.724061 240.362993 
L 159.820442 240.362993 
L 160.094538 242.031215 
L 160.368633 242.031215 
L 160.642728 240.362993 
L 160.916824 240.362993 
L 161.465014 237.026549 
L 162.835491 237.026549 
L 163.109587 238.694771 
L 163.383682 237.026549 
L 163.657777 237.026549 
L 163.931873 238.694771 
L 165.30235 238.694771 
L 165.576445 240.362993 
L 165.85054 240.362993 
L 166.398731 237.026549 
L 167.221017 242.031215 
L 167.769208 238.694771 
L 168.591494 243.699437 
L 168.865589 242.031215 
L 169.41378 242.031215 
L 169.961971 245.367659 
L 170.236066 245.367659 
L 170.510162 243.699437 
L 170.784257 243.699437 
L 171.058352 242.031215 
L 173.251115 242.031215 
L 173.525211 243.699437 
L 173.799306 242.031215 
L 174.073401 242.031215 
L 174.347497 243.699437 
L 174.621592 243.699437 
L 174.895688 242.031215 
L 175.169783 242.031215 
L 175.443878 240.362993 
L 175.717974 240.362993 
L 175.992069 242.031215 
L 176.266164 240.362993 
L 177.08845 240.362993 
L 177.362546 238.694771 
L 177.636641 240.362993 
L 177.910737 240.362993 
L 178.458927 237.026549 
L 179.281213 237.026549 
L 179.555309 238.694771 
L 179.829404 238.694771 
L 180.1035 240.362993 
L 180.377595 240.362993 
L 180.65169 242.031215 
L 180.925786 240.362993 
L 181.199881 242.031215 
L 181.473976 242.031215 
L 181.748072 240.362993 
L 182.296263 240.362993 
L 182.570358 238.694771 
L 183.118549 238.694771 
L 183.392644 240.362993 
L 184.21493 235.358327 
L 186.133598 235.358327 
L 186.407693 237.026549 
L 187.229979 237.026549 
L 187.504075 235.358327 
L 188.326361 235.358327 
L 188.600456 233.690105 
L 189.422742 233.690105 
L 189.696838 235.358327 
L 190.245028 235.358327 
L 190.519124 237.026549 
L 190.793219 235.358327 
L 191.34141 235.358327 
L 191.8896 238.694771 
L 192.437791 238.694771 
L 192.711887 240.362993 
L 193.534173 240.362993 
L 194.630554 247.035881 
L 195.178745 243.699437 
L 195.45284 245.367659 
L 195.726936 243.699437 
L 196.001031 243.699437 
L 196.275126 245.367659 
L 196.549222 245.367659 
L 196.823317 243.699437 
L 197.097413 243.699437 
L 198.193794 237.026549 
L 198.467889 237.026549 
L 198.741985 238.694771 
L 199.564271 238.694771 
L 200.112462 242.031215 
L 200.660652 242.031215 
L 200.934748 243.699437 
L 201.208843 242.031215 
L 202.853415 242.031215 
L 203.401606 245.367659 
L 203.675701 243.699437 
L 203.949797 243.699437 
L 204.497988 240.362993 
L 204.772083 240.362993 
L 205.320274 237.026549 
L 205.868464 237.026549 
L 206.416655 233.690105 
L 208.061227 233.690105 
L 208.335323 232.021883 
L 208.609418 232.021883 
L 209.157609 235.358327 
L 209.431704 235.358327 
L 209.979895 238.694771 
L 210.25399 238.694771 
L 210.528086 237.026549 
L 211.076276 237.026549 
L 211.624467 240.362993 
L 211.898563 238.694771 
L 212.172658 238.694771 
L 212.446753 237.026549 
L 212.720849 238.694771 
L 212.994944 237.026549 
L 213.269039 237.026549 
L 213.543135 238.694771 
L 214.091325 235.358327 
L 214.365421 237.026549 
L 214.639516 237.026549 
L 215.187707 233.690105 
L 215.461802 235.358327 
L 215.735898 233.690105 
L 216.009993 235.358327 
L 216.558184 235.358327 
L 217.106375 238.694771 
L 217.654565 235.358327 
L 217.928661 235.358327 
L 218.202756 237.026549 
L 218.476851 237.026549 
L 218.750947 235.358327 
L 219.025042 235.358327 
L 219.299138 237.026549 
L 219.847328 237.026549 
L 220.121424 238.694771 
L 220.395519 237.026549 
L 220.669614 237.026549 
L 220.94371 238.694771 
L 221.217805 238.694771 
L 221.4919 237.026549 
L 222.314187 237.026549 
L 222.588282 238.694771 
L 222.862377 237.026549 
L 223.410568 237.026549 
L 223.958759 240.362993 
L 224.232854 240.362993 
L 224.781045 237.026549 
L 225.05514 237.026549 
L 225.877426 242.031215 
L 226.151522 242.031215 
L 226.425617 243.699437 
L 226.699713 242.031215 
L 227.247903 245.367659 
L 227.521999 245.367659 
L 227.796094 243.699437 
L 228.070189 245.367659 
L 228.344285 243.699437 
L 228.61838 243.699437 
L 228.892475 245.367659 
L 229.166571 243.699437 
L 229.714762 243.699437 
L 229.988857 242.031215 
L 230.537048 242.031215 
L 230.811143 240.362993 
L 231.085238 240.362993 
L 231.359334 242.031215 
L 231.633429 242.031215 
L 231.907525 240.362993 
L 232.18162 242.031215 
L 232.455715 242.031215 
L 232.729811 243.699437 
L 233.278001 243.699437 
L 233.552097 242.031215 
L 233.826192 243.699437 
L 234.100287 243.699437 
L 234.374383 242.031215 
L 234.922574 242.031215 
L 235.470764 238.694771 
L 235.74486 240.362993 
L 236.29305 240.362993 
L 236.567146 242.031215 
L 236.841241 240.362993 
L 237.115337 240.362993 
L 237.389432 242.031215 
L 237.937623 242.031215 
L 238.211718 240.362993 
L 238.485813 242.031215 
L 238.759909 242.031215 
L 239.582195 247.035881 
L 239.85629 247.035881 
L 240.130386 245.367659 
L 240.678576 245.367659 
L 241.500862 240.362993 
L 242.323149 240.362993 
L 243.145435 235.358327 
L 243.41953 235.358327 
L 243.693625 237.026549 
L 243.967721 237.026549 
L 244.515912 233.690105 
L 247.256865 233.690105 
L 247.805056 230.35366 
L 248.079151 232.021883 
L 248.627342 232.021883 
L 248.901437 230.35366 
L 249.449628 230.35366 
L 249.723724 232.021883 
L 249.997819 232.021883 
L 250.271914 230.35366 
L 250.54601 230.35366 
L 251.0942 227.017216 
L 252.464677 227.017216 
L 253.012868 230.35366 
L 253.286963 228.685438 
L 253.561059 228.685438 
L 253.835154 230.35366 
L 254.10925 230.35366 
L 254.383345 232.021883 
L 254.65744 232.021883 
L 254.931536 230.35366 
L 255.479726 233.690105 
L 255.753822 233.690105 
L 256.027917 235.358327 
L 256.302012 233.690105 
L 256.850203 237.026549 
L 257.672489 237.026549 
L 258.22068 233.690105 
L 259.042966 233.690105 
L 259.317062 235.358327 
L 259.591157 235.358327 
L 259.865252 237.026549 
L 260.413443 237.026549 
L 260.687538 235.358327 
L 261.235729 238.694771 
L 261.509825 237.026549 
L 261.78392 237.026549 
L 262.058015 235.358327 
L 262.606206 235.358327 
L 262.880301 237.026549 
L 263.154397 237.026549 
L 263.702587 233.690105 
L 263.976683 233.690105 
L 264.250778 235.358327 
L 264.524874 235.358327 
L 264.798969 233.690105 
L 265.073064 235.358327 
L 265.89535 235.358327 
L 266.443541 232.021883 
L 266.717637 232.021883 
L 267.265827 235.358327 
L 267.539923 233.690105 
L 268.088113 237.026549 
L 268.362209 237.026549 
L 268.636304 238.694771 
L 269.45859 238.694771 
L 270.006781 242.031215 
L 270.829067 242.031215 
L 271.103162 243.699437 
L 271.651353 240.362993 
L 272.473639 240.362993 
L 273.295925 235.358327 
L 274.666402 235.358327 
L 274.940498 233.690105 
L 275.214593 235.358327 
L 276.310975 235.358327 
L 276.58507 233.690105 
L 276.859165 233.690105 
L 277.133261 235.358327 
L 277.681451 235.358327 
L 278.229642 232.021883 
L 279.600119 232.021883 
L 279.874214 230.35366 
L 280.14831 230.35366 
L 280.6965 227.017216 
L 280.970596 227.017216 
L 281.244691 225.348994 
L 281.518787 225.348994 
L 281.792882 223.680772 
L 282.615168 223.680772 
L 282.889263 222.01255 
L 283.437454 222.01255 
L 283.71155 220.344328 
L 283.985645 222.01255 
L 284.25974 222.01255 
L 284.807931 225.348994 
L 285.082026 225.348994 
L 285.356122 227.017216 
L 285.630217 227.017216 
L 285.904312 228.685438 
L 286.178408 227.017216 
L 286.452503 228.685438 
L 286.726599 228.685438 
L 287.000694 227.017216 
L 287.548885 227.017216 
L 288.097075 230.35366 
L 288.371171 230.35366 
L 288.645266 228.685438 
L 288.919362 230.35366 
L 288.919362 230.35366 
" clip-path="url(#p8037a863d0)" style="fill: none; stroke: #9467bd; stroke-width: 1.5; stroke-linecap: square"/>
   </g>
   <g id="line2d_17">
    <path d="M 104.727273 78.545455 
L 292.482601 78.545455 
L 292.482601 78.545455 
" clip-path="url(#p8037a863d0)" style="fill: none; stroke: #8c564b; stroke-width: 1.5; stroke-linecap: square"/>
   </g>
   <g id="line2d_18">
    <path d="M 104.727273 228.685438 
L 105.001368 230.35366 
L 105.823654 230.35366 
L 106.09775 228.685438 
L 107.194131 228.685438 
L 107.468226 230.35366 
L 108.290513 230.35366 
L 109.112799 225.348994 
L 109.386894 225.348994 
L 109.660989 223.680772 
L 109.935085 223.680772 
L 110.20918 225.348994 
L 111.031466 225.348994 
L 111.305562 227.017216 
L 111.579657 225.348994 
L 111.853752 227.017216 
L 112.127848 227.017216 
L 112.676038 230.35366 
L 113.224229 230.35366 
L 113.498325 232.021883 
L 114.046515 232.021883 
L 114.594706 235.358327 
L 114.868801 235.358327 
L 115.142897 233.690105 
L 115.416992 233.690105 
L 115.965183 230.35366 
L 116.239278 232.021883 
L 116.513374 230.35366 
L 116.787469 230.35366 
L 117.061564 228.685438 
L 117.33566 230.35366 
L 117.609755 230.35366 
L 117.883851 228.685438 
L 118.157946 228.685438 
L 118.432041 227.017216 
L 118.706137 228.685438 
L 119.528423 228.685438 
L 119.802518 230.35366 
L 120.350709 230.35366 
L 120.624804 228.685438 
L 121.172995 232.021883 
L 122.543472 232.021883 
L 122.817567 233.690105 
L 123.639853 233.690105 
L 123.913949 235.358327 
L 124.462139 235.358327 
L 124.736235 237.026549 
L 125.01033 237.026549 
L 125.558521 233.690105 
L 125.832616 235.358327 
L 126.106712 233.690105 
L 126.380807 235.358327 
L 126.928998 235.358327 
L 127.203093 237.026549 
L 127.477188 237.026549 
L 127.751284 235.358327 
L 128.025379 237.026549 
L 128.299475 237.026549 
L 128.847665 233.690105 
L 129.121761 233.690105 
L 129.395856 232.021883 
L 129.669951 232.021883 
L 129.944047 233.690105 
L 130.766333 233.690105 
L 131.040428 235.358327 
L 131.314524 233.690105 
L 131.588619 233.690105 
L 132.13681 230.35366 
L 132.410905 230.35366 
L 132.685 228.685438 
L 132.959096 230.35366 
L 133.233191 228.685438 
L 133.781382 228.685438 
L 134.055477 230.35366 
L 135.151859 230.35366 
L 135.425954 232.021883 
L 135.70005 232.021883 
L 135.974145 230.35366 
L 136.522336 233.690105 
L 136.796431 232.021883 
L 137.344622 235.358327 
L 137.618717 235.358327 
L 137.892813 233.690105 
L 138.166908 235.358327 
L 139.263289 235.358327 
L 139.81148 238.694771 
L 140.085575 238.694771 
L 140.359671 237.026549 
L 140.633766 238.694771 
L 140.907862 238.694771 
L 141.181957 237.026549 
L 141.730148 237.026549 
L 142.004243 238.694771 
L 142.278338 237.026549 
L 142.552434 237.026549 
L 142.826529 238.694771 
L 143.100625 238.694771 
L 143.648815 242.031215 
L 144.197006 242.031215 
L 144.471101 240.362993 
L 144.745197 240.362993 
L 145.019292 238.694771 
L 145.841578 238.694771 
L 146.115674 237.026549 
L 146.389769 238.694771 
L 146.93796 235.358327 
L 147.48615 235.358327 
L 147.760246 237.026549 
L 148.034341 235.358327 
L 148.308437 235.358327 
L 148.582532 233.690105 
L 149.404818 233.690105 
L 149.678913 235.358327 
L 150.227104 235.358327 
L 150.5012 233.690105 
L 150.775295 235.358327 
L 151.323486 235.358327 
L 151.597581 233.690105 
L 152.419867 233.690105 
L 152.693963 235.358327 
L 152.968058 233.690105 
L 153.242153 235.358327 
L 154.338535 235.358327 
L 154.886725 232.021883 
L 155.160821 232.021883 
L 155.983107 227.017216 
L 156.531298 227.017216 
L 156.805393 228.685438 
L 157.079488 228.685438 
L 157.627679 232.021883 
L 157.901775 230.35366 
L 158.17587 230.35366 
L 158.724061 227.017216 
L 158.998156 227.017216 
L 159.272251 225.348994 
L 159.546347 227.017216 
L 159.820442 225.348994 
L 160.094538 225.348994 
L 160.368633 227.017216 
L 160.642728 227.017216 
L 160.916824 228.685438 
L 161.465014 228.685438 
L 162.013205 232.021883 
L 162.2873 232.021883 
L 162.561396 233.690105 
L 162.835491 233.690105 
L 163.109587 232.021883 
L 163.931873 232.021883 
L 164.205968 230.35366 
L 164.480063 232.021883 
L 164.754159 230.35366 
L 165.30235 230.35366 
L 165.576445 232.021883 
L 166.124636 232.021883 
L 166.398731 233.690105 
L 166.672826 233.690105 
L 166.946922 235.358327 
L 167.221017 233.690105 
L 167.495113 233.690105 
L 168.043303 230.35366 
L 168.865589 230.35366 
L 169.139685 228.685438 
L 169.41378 228.685438 
L 169.687875 230.35366 
L 170.236066 230.35366 
L 170.510162 232.021883 
L 170.784257 232.021883 
L 171.058352 230.35366 
L 171.332448 232.021883 
L 172.154734 232.021883 
L 172.428829 230.35366 
L 172.702925 232.021883 
L 173.251115 232.021883 
L 173.525211 230.35366 
L 173.799306 232.021883 
L 175.169783 232.021883 
L 175.443878 233.690105 
L 175.992069 230.35366 
L 176.266164 232.021883 
L 176.54026 232.021883 
L 176.814355 233.690105 
L 177.362546 233.690105 
L 177.636641 232.021883 
L 177.910737 232.021883 
L 178.184832 230.35366 
L 178.458927 232.021883 
L 179.555309 232.021883 
L 180.1035 235.358327 
L 180.377595 235.358327 
L 180.65169 233.690105 
L 180.925786 235.358327 
L 181.199881 235.358327 
L 181.748072 232.021883 
L 182.296263 232.021883 
L 182.570358 233.690105 
L 182.844453 233.690105 
L 183.392644 237.026549 
L 183.940835 237.026549 
L 184.21493 238.694771 
L 184.489025 238.694771 
L 185.037216 235.358327 
L 185.311312 235.358327 
L 185.585407 237.026549 
L 186.407693 237.026549 
L 186.955884 240.362993 
L 187.77817 240.362993 
L 188.052265 242.031215 
L 188.600456 242.031215 
L 189.148647 238.694771 
L 189.422742 240.362993 
L 189.970933 240.362993 
L 190.519124 237.026549 
L 191.067314 237.026549 
L 191.34141 235.358327 
L 191.615505 237.026549 
L 192.163696 237.026549 
L 192.437791 235.358327 
L 192.711887 235.358327 
L 193.260077 232.021883 
L 193.534173 232.021883 
L 193.808268 230.35366 
L 194.082363 230.35366 
L 194.630554 227.017216 
L 196.549222 227.017216 
L 196.823317 225.348994 
L 197.371508 228.685438 
L 198.467889 228.685438 
L 198.741985 227.017216 
L 199.01608 227.017216 
L 199.564271 230.35366 
L 200.112462 230.35366 
L 200.386557 232.021883 
L 200.660652 232.021883 
L 200.934748 233.690105 
L 201.208843 233.690105 
L 201.482938 235.358327 
L 201.757034 235.358327 
L 202.031129 237.026549 
L 202.305225 237.026549 
L 202.57932 235.358327 
L 202.853415 237.026549 
L 203.675701 237.026549 
L 203.949797 238.694771 
L 204.223892 238.694771 
L 204.497988 237.026549 
L 204.772083 237.026549 
L 205.046178 238.694771 
L 205.320274 238.694771 
L 205.594369 237.026549 
L 205.868464 237.026549 
L 206.14256 235.358327 
L 206.69075 235.358327 
L 206.964846 237.026549 
L 207.238941 237.026549 
L 207.513037 235.358327 
L 207.787132 235.358327 
L 208.061227 233.690105 
L 208.335323 233.690105 
L 208.609418 235.358327 
L 208.883513 235.358327 
L 209.157609 237.026549 
L 209.431704 237.026549 
L 209.7058 238.694771 
L 209.979895 237.026549 
L 210.25399 238.694771 
L 210.802181 238.694771 
L 211.076276 237.026549 
L 211.350372 237.026549 
L 211.624467 235.358327 
L 211.898563 237.026549 
L 212.172658 235.358327 
L 214.091325 235.358327 
L 214.365421 233.690105 
L 214.913612 233.690105 
L 215.187707 232.021883 
L 215.735898 232.021883 
L 216.009993 230.35366 
L 216.832279 230.35366 
L 217.38047 227.017216 
L 217.928661 227.017216 
L 218.202756 228.685438 
L 218.476851 228.685438 
L 218.750947 230.35366 
L 219.573233 230.35366 
L 219.847328 228.685438 
L 220.121424 230.35366 
L 220.669614 230.35366 
L 221.217805 227.017216 
L 223.684663 227.017216 
L 223.958759 228.685438 
L 224.232854 227.017216 
L 224.50695 227.017216 
L 225.05514 230.35366 
L 225.329236 230.35366 
L 225.603331 232.021883 
L 225.877426 232.021883 
L 226.151522 230.35366 
L 227.247903 230.35366 
L 227.521999 228.685438 
L 227.796094 228.685438 
L 228.070189 230.35366 
L 228.344285 230.35366 
L 228.61838 228.685438 
L 228.892475 228.685438 
L 229.166571 227.017216 
L 229.440666 227.017216 
L 229.714762 225.348994 
L 229.988857 225.348994 
L 230.262952 223.680772 
L 230.537048 223.680772 
L 230.811143 225.348994 
L 231.085238 223.680772 
L 231.359334 225.348994 
L 231.907525 222.01255 
L 232.455715 222.01255 
L 233.003906 225.348994 
L 233.552097 222.01255 
L 234.922574 222.01255 
L 235.470764 225.348994 
L 235.74486 223.680772 
L 237.115337 223.680772 
L 237.389432 222.01255 
L 237.663527 222.01255 
L 238.211718 218.676106 
L 238.759909 218.676106 
L 239.034004 217.007884 
L 239.3081 218.676106 
L 239.85629 218.676106 
L 240.130386 220.344328 
L 240.404481 220.344328 
L 240.678576 218.676106 
L 240.952672 220.344328 
L 241.226767 220.344328 
L 241.500862 218.676106 
L 241.774958 218.676106 
L 242.049053 217.007884 
L 242.323149 217.007884 
L 242.871339 213.67144 
L 243.41953 217.007884 
L 244.515912 217.007884 
L 244.790007 215.339662 
L 245.338198 218.676106 
L 245.612293 218.676106 
L 245.886388 217.007884 
L 246.434579 217.007884 
L 246.98277 213.67144 
L 247.256865 215.339662 
L 248.353247 215.339662 
L 248.627342 217.007884 
L 250.820105 217.007884 
L 251.0942 218.676106 
L 251.642391 218.676106 
L 251.916487 217.007884 
L 252.738773 217.007884 
L 253.012868 215.339662 
L 253.286963 215.339662 
L 253.561059 217.007884 
L 253.835154 217.007884 
L 254.383345 213.67144 
L 254.931536 213.67144 
L 255.205631 212.003218 
L 255.479726 212.003218 
L 256.027917 208.666774 
L 256.576108 208.666774 
L 257.124299 205.33033 
L 258.494775 205.33033 
L 259.042966 201.993886 
L 259.317062 203.662108 
L 259.591157 203.662108 
L 259.865252 201.993886 
L 260.139348 201.993886 
L 261.235729 208.666774 
L 262.332111 208.666774 
L 262.880301 212.003218 
L 263.154397 210.334996 
L 263.702587 210.334996 
L 263.976683 208.666774 
L 264.250778 208.666774 
L 264.524874 206.998552 
L 264.798969 208.666774 
L 265.89535 208.666774 
L 266.169446 206.998552 
L 266.443541 208.666774 
L 266.717637 206.998552 
L 266.991732 208.666774 
L 267.539923 208.666774 
L 267.814018 206.998552 
L 268.088113 208.666774 
L 268.362209 208.666774 
L 269.45859 215.339662 
L 269.732686 213.67144 
L 270.006781 213.67144 
L 270.280876 212.003218 
L 270.829067 212.003218 
L 271.103162 210.334996 
L 271.377258 210.334996 
L 271.651353 208.666774 
L 271.925449 208.666774 
L 272.199544 210.334996 
L 272.473639 208.666774 
L 272.747735 208.666774 
L 273.02183 206.998552 
L 273.844116 206.998552 
L 274.118212 205.33033 
L 274.666402 205.33033 
L 275.488688 200.325664 
L 276.859165 200.325664 
L 277.133261 198.657442 
L 277.681451 201.993886 
L 277.955547 200.325664 
L 278.229642 200.325664 
L 278.503737 198.657442 
L 279.051928 198.657442 
L 279.326024 196.98922 
L 279.600119 196.98922 
L 280.422405 191.984553 
L 280.6965 191.984553 
L 281.244691 195.320998 
L 281.518787 195.320998 
L 281.792882 193.652776 
L 282.341073 193.652776 
L 282.615168 195.320998 
L 282.889263 193.652776 
L 283.163359 193.652776 
L 283.437454 195.320998 
L 283.985645 195.320998 
L 284.25974 193.652776 
L 284.807931 196.98922 
L 285.904312 196.98922 
L 286.178408 195.320998 
L 286.726599 198.657442 
L 287.274789 198.657442 
L 287.82298 195.320998 
L 288.097075 196.98922 
L 288.371171 196.98922 
L 288.645266 195.320998 
L 288.919362 196.98922 
L 289.193457 195.320998 
L 289.741648 195.320998 
L 290.289838 191.984553 
L 290.563934 193.652776 
L 290.838029 191.984553 
L 291.38622 191.984553 
L 291.660315 190.316331 
L 291.934411 190.316331 
L 291.934411 190.316331 
" clip-path="url(#p8037a863d0)" style="fill: none; stroke: #e377c2; stroke-width: 1.5; stroke-linecap: square"/>
   </g>
   <g id="line2d_19">
    <path d="M 104.727273 78.545455 
L 286.726599 78.545455 
L 286.726599 78.545455 
" clip-path="url(#p8037a863d0)" style="fill: none; stroke: #7f7f7f; stroke-width: 1.5; stroke-linecap: square"/>
   </g>
   <g id="line2d_20">
    <path d="M 104.727273 235.358327 
L 105.275463 235.358327 
L 105.549559 237.026549 
L 105.823654 235.358327 
L 106.371845 238.694771 
L 106.920036 238.694771 
L 107.194131 240.362993 
L 107.468226 238.694771 
L 108.016417 238.694771 
L 108.290513 240.362993 
L 108.838703 240.362993 
L 109.112799 238.694771 
L 109.660989 238.694771 
L 110.20918 235.358327 
L 110.483276 235.358327 
L 110.757371 237.026549 
L 111.031466 235.358327 
L 111.305562 237.026549 
L 111.579657 235.358327 
L 111.853752 237.026549 
L 112.401943 237.026549 
L 112.950134 233.690105 
L 113.224229 233.690105 
L 113.77242 230.35366 
L 114.046515 230.35366 
L 114.320611 228.685438 
L 114.594706 228.685438 
L 114.868801 227.017216 
L 115.416992 227.017216 
L 116.239278 222.01255 
L 116.787469 222.01255 
L 117.061564 220.344328 
L 117.33566 222.01255 
L 118.706137 222.01255 
L 118.980232 223.680772 
L 119.254327 223.680772 
L 119.528423 225.348994 
L 120.076613 225.348994 
L 120.350709 227.017216 
L 121.172995 227.017216 
L 121.44709 225.348994 
L 121.995281 225.348994 
L 122.269376 223.680772 
L 122.817567 223.680772 
L 123.091663 222.01255 
L 124.188044 222.01255 
L 124.736235 225.348994 
L 125.284425 225.348994 
L 125.558521 223.680772 
L 125.832616 223.680772 
L 126.106712 222.01255 
L 126.654902 222.01255 
L 126.928998 223.680772 
L 128.299475 223.680772 
L 128.57357 222.01255 
L 129.395856 222.01255 
L 129.669951 223.680772 
L 129.944047 222.01255 
L 130.218142 223.680772 
L 130.492238 222.01255 
L 131.588619 222.01255 
L 131.862714 220.344328 
L 132.13681 220.344328 
L 132.410905 218.676106 
L 133.507287 218.676106 
L 133.781382 220.344328 
L 134.055477 218.676106 
L 135.151859 218.676106 
L 135.70005 222.01255 
L 135.974145 220.344328 
L 136.24824 222.01255 
L 137.618717 222.01255 
L 137.892813 220.344328 
L 138.166908 222.01255 
L 138.989194 217.007884 
L 139.263289 218.676106 
L 139.537385 217.007884 
L 139.81148 217.007884 
L 140.085575 218.676106 
L 140.633766 218.676106 
L 140.907862 217.007884 
L 141.181957 218.676106 
L 141.456052 217.007884 
L 141.730148 217.007884 
L 142.278338 213.67144 
L 142.552434 215.339662 
L 142.826529 215.339662 
L 143.100625 213.67144 
L 143.37472 213.67144 
L 143.922911 210.334996 
L 145.567483 210.334996 
L 145.841578 208.666774 
L 146.115674 208.666774 
L 146.389769 206.998552 
L 147.212055 206.998552 
L 147.48615 205.33033 
L 148.034341 205.33033 
L 148.308437 203.662108 
L 148.582532 203.662108 
L 148.856627 201.993886 
L 149.130723 201.993886 
L 149.678913 198.657442 
L 150.227104 198.657442 
L 150.5012 200.325664 
L 150.775295 198.657442 
L 151.597581 198.657442 
L 151.871676 196.98922 
L 152.145772 196.98922 
L 152.419867 195.320998 
L 153.242153 195.320998 
L 153.516249 193.652776 
L 153.790344 193.652776 
L 154.064439 195.320998 
L 154.338535 193.652776 
L 154.61263 193.652776 
L 154.886725 191.984553 
L 155.160821 193.652776 
L 155.434916 191.984553 
L 155.983107 195.320998 
L 156.531298 195.320998 
L 156.805393 196.98922 
L 157.079488 195.320998 
L 157.901775 200.325664 
L 158.17587 200.325664 
L 158.449965 201.993886 
L 158.724061 200.325664 
L 159.820442 200.325664 
L 160.094538 201.993886 
L 160.642728 201.993886 
L 161.190919 198.657442 
L 161.465014 200.325664 
L 161.73911 200.325664 
L 162.013205 198.657442 
L 162.561396 201.993886 
L 162.835491 201.993886 
L 163.109587 200.325664 
L 165.028254 200.325664 
L 165.30235 201.993886 
L 165.576445 200.325664 
L 165.85054 200.325664 
L 166.124636 198.657442 
L 166.672826 198.657442 
L 166.946922 196.98922 
L 167.221017 198.657442 
L 168.591494 198.657442 
L 168.865589 200.325664 
L 169.139685 200.325664 
L 169.687875 203.662108 
L 170.236066 203.662108 
L 170.784257 206.998552 
L 171.058352 206.998552 
L 171.332448 208.666774 
L 171.880638 208.666774 
L 172.97702 201.993886 
L 173.525211 201.993886 
L 173.799306 200.325664 
L 174.347497 200.325664 
L 174.621592 201.993886 
L 174.895688 201.993886 
L 175.717974 196.98922 
L 176.814355 196.98922 
L 177.08845 198.657442 
L 177.362546 196.98922 
L 177.636641 196.98922 
L 178.184832 200.325664 
L 178.733023 200.325664 
L 179.007118 201.993886 
L 179.281213 200.325664 
L 179.555309 200.325664 
L 179.829404 198.657442 
L 180.377595 198.657442 
L 180.65169 196.98922 
L 180.925786 196.98922 
L 181.199881 198.657442 
L 182.296263 191.984553 
L 184.21493 191.984553 
L 184.489025 190.316331 
L 184.763121 190.316331 
L 185.037216 188.648109 
L 185.585407 188.648109 
L 186.133598 185.311665 
L 187.229979 185.311665 
L 187.504075 183.643443 
L 187.77817 185.311665 
L 188.600456 180.306999 
L 188.874551 180.306999 
L 189.148647 181.975221 
L 189.422742 180.306999 
L 189.970933 180.306999 
L 190.519124 176.970555 
L 190.793219 176.970555 
L 191.067314 175.302333 
L 191.34141 176.970555 
L 191.615505 176.970555 
L 192.163696 173.634111 
L 193.260077 173.634111 
L 193.534173 175.302333 
L 194.356459 175.302333 
L 194.630554 176.970555 
L 194.90465 175.302333 
L 195.178745 176.970555 
L 195.45284 175.302333 
L 197.097413 175.302333 
L 197.371508 173.634111 
L 199.564271 173.634111 
L 199.838366 175.302333 
L 200.112462 175.302333 
L 200.934748 180.306999 
L 201.208843 180.306999 
L 201.757034 176.970555 
L 203.127511 176.970555 
L 203.401606 175.302333 
L 203.675701 175.302333 
L 203.949797 173.634111 
L 204.772083 173.634111 
L 205.046178 171.965889 
L 205.594369 171.965889 
L 205.868464 170.297667 
L 206.14256 171.965889 
L 206.416655 171.965889 
L 206.69075 173.634111 
L 207.513037 173.634111 
L 207.787132 171.965889 
L 208.061227 173.634111 
L 208.335323 173.634111 
L 208.609418 175.302333 
L 208.883513 173.634111 
L 209.157609 173.634111 
L 209.431704 171.965889 
L 209.7058 171.965889 
L 209.979895 170.297667 
L 211.076276 170.297667 
L 211.350372 171.965889 
L 211.624467 170.297667 
L 211.898563 170.297667 
L 212.446753 166.961223 
L 212.994944 166.961223 
L 213.269039 165.293001 
L 214.639516 165.293001 
L 215.187707 161.956557 
L 215.461802 163.624779 
L 216.009993 163.624779 
L 216.284088 161.956557 
L 216.558184 161.956557 
L 216.832279 163.624779 
L 217.654565 163.624779 
L 217.928661 165.293001 
L 218.202756 165.293001 
L 218.476851 166.961223 
L 219.025042 166.961223 
L 219.299138 165.293001 
L 219.847328 165.293001 
L 220.121424 163.624779 
L 220.669614 163.624779 
L 220.94371 165.293001 
L 221.765996 165.293001 
L 222.040091 163.624779 
L 222.314187 163.624779 
L 222.588282 165.293001 
L 223.410568 165.293001 
L 223.684663 163.624779 
L 223.958759 163.624779 
L 224.781045 158.620113 
L 225.05514 158.620113 
L 225.603331 155.283669 
L 226.425617 155.283669 
L 226.699713 156.951891 
L 228.892475 156.951891 
L 229.166571 155.283669 
L 231.633429 155.283669 
L 231.907525 153.615447 
L 232.18162 153.615447 
L 232.455715 155.283669 
L 233.003906 151.947224 
L 233.278001 151.947224 
L 233.826192 148.61078 
L 234.100287 148.61078 
L 234.374383 146.942558 
L 234.922574 146.942558 
L 235.196669 148.61078 
L 235.74486 148.61078 
L 236.018955 146.942558 
L 236.29305 146.942558 
L 237.115337 151.947224 
L 238.211718 151.947224 
L 238.485813 153.615447 
L 239.034004 153.615447 
L 239.3081 155.283669 
L 240.130386 155.283669 
L 240.404481 156.951891 
L 241.500862 156.951891 
L 241.774958 155.283669 
L 242.871339 155.283669 
L 243.145435 156.951891 
L 243.693625 156.951891 
L 243.967721 155.283669 
L 245.886388 155.283669 
L 246.160484 153.615447 
L 247.530961 153.615447 
L 247.805056 151.947224 
L 248.079151 153.615447 
L 248.353247 151.947224 
L 249.175533 151.947224 
L 249.449628 150.279002 
L 249.723724 150.279002 
L 249.997819 148.61078 
L 250.54601 148.61078 
L 250.820105 146.942558 
L 251.0942 148.61078 
L 254.383345 148.61078 
L 254.65744 146.942558 
L 254.931536 146.942558 
L 255.753822 141.937892 
L 259.591157 141.937892 
L 259.865252 143.606114 
L 260.139348 141.937892 
L 260.687538 141.937892 
L 261.509825 136.933226 
L 262.606206 136.933226 
L 262.880301 135.265004 
L 263.154397 135.265004 
L 263.428492 133.596782 
L 263.976683 136.933226 
L 264.798969 136.933226 
L 265.073064 138.601448 
L 265.621255 135.265004 
L 265.89535 135.265004 
L 266.169446 133.596782 
L 266.717637 133.596782 
L 266.991732 135.265004 
L 267.265827 135.265004 
L 267.539923 133.596782 
L 270.006781 133.596782 
L 270.280876 131.92856 
L 271.925449 131.92856 
L 272.199544 130.260338 
L 272.473639 130.260338 
L 272.747735 128.592116 
L 273.02183 128.592116 
L 273.295925 126.923894 
L 274.118212 126.923894 
L 274.392307 128.592116 
L 275.488688 128.592116 
L 275.762784 126.923894 
L 276.036879 128.592116 
L 276.310975 126.923894 
L 277.133261 126.923894 
L 277.407356 125.255672 
L 278.503737 125.255672 
L 278.777833 126.923894 
L 279.600119 126.923894 
L 279.874214 125.255672 
L 280.6965 125.255672 
L 280.970596 123.58745 
L 281.244691 123.58745 
L 281.518787 121.919228 
L 282.066977 121.919228 
L 282.341073 123.58745 
L 282.889263 123.58745 
L 283.163359 121.919228 
L 283.985645 121.919228 
L 284.25974 120.251006 
L 284.533836 121.919228 
L 287.000694 121.919228 
L 287.274789 120.251006 
L 289.741648 120.251006 
L 290.015743 118.582784 
L 290.563934 121.919228 
L 291.112125 121.919228 
L 291.38622 120.251006 
L 292.208506 120.251006 
L 293.030792 125.255672 
L 293.304887 123.58745 
L 293.853078 123.58745 
L 294.127174 121.919228 
L 298.786795 121.919228 
L 299.06089 123.58745 
L 300.431367 123.58745 
L 300.705462 125.255672 
L 302.62413 125.255672 
L 302.898225 123.58745 
L 303.446416 123.58745 
L 303.720512 121.919228 
L 303.994607 121.919228 
L 304.268702 123.58745 
L 305.639179 123.58745 
L 305.913275 121.919228 
L 308.928324 121.919228 
L 309.202419 123.58745 
L 309.476514 123.58745 
L 309.75061 125.255672 
L 310.846991 125.255672 
L 311.121087 126.923894 
L 313.31385 126.923894 
L 313.86204 130.260338 
L 316.054803 130.260338 
L 316.328899 131.92856 
L 318.247566 131.92856 
L 318.795757 128.592116 
L 319.618043 128.592116 
L 319.892138 126.923894 
L 321.536711 126.923894 
L 321.810806 125.255672 
L 322.358997 125.255672 
L 322.633092 126.923894 
L 325.648141 126.923894 
L 326.196332 130.260338 
L 326.744523 126.923894 
L 328.937286 126.923894 
L 329.211381 125.255672 
L 330.581858 125.255672 
L 330.855953 123.58745 
L 331.678239 123.58745 
L 332.22643 126.923894 
L 333.322812 126.923894 
L 333.596907 125.255672 
L 335.241479 125.255672 
L 335.515575 126.923894 
L 336.886051 126.923894 
L 337.160147 125.255672 
L 339.078814 125.255672 
L 339.35291 123.58745 
L 341.545673 123.58745 
L 341.819768 125.255672 
L 342.642054 125.255672 
L 342.916149 123.58745 
L 343.190245 123.58745 
L 343.46434 125.255672 
L 344.012531 125.255672 
L 344.560722 128.592116 
L 344.834817 128.592116 
L 345.383008 125.255672 
L 346.205294 125.255672 
L 346.753485 121.919228 
L 347.02758 123.58745 
L 347.849866 118.582784 
L 348.123962 118.582784 
L 348.398057 120.251006 
L 348.672152 120.251006 
L 348.946248 121.919228 
L 349.768534 121.919228 
L 350.042629 120.251006 
L 351.961297 120.251006 
L 352.235392 118.582784 
L 352.509487 118.582784 
L 352.783583 116.914562 
L 355.250441 116.914562 
L 355.524537 115.24634 
L 356.072727 115.24634 
L 356.072727 115.24634 
" clip-path="url(#p8037a863d0)" style="fill: none; stroke: #bcbd22; stroke-width: 1.5; stroke-linecap: square"/>
   </g>
   <g id="patch_3">
    <path d="M 92.16 276.48 
L 92.16 69.12 
" style="fill: none; stroke: #000000; stroke-width: 0.8; stroke-linejoin: miter; stroke-linecap: square"/>
   </g>
   <g id="patch_4">
    <path d="M 368.64 276.48 
L 368.64 69.12 
" style="fill: none; stroke: #000000; stroke-width: 0.8; stroke-linejoin: miter; stroke-linecap: square"/>
   </g>
   <g id="patch_5">
    <path d="M 92.16 276.48 
L 368.64 276.48 
" style="fill: none; stroke: #000000; stroke-width: 0.8; stroke-linejoin: miter; stroke-linecap: square"/>
   </g>
   <g id="patch_6">
    <path d="M 92.16 69.12 
L 368.64 69.12 
" style="fill: none; stroke: #000000; stroke-width: 0.8; stroke-linejoin: miter; stroke-linecap: square"/>
   </g>
   <g id="text_12">
    <!-- fixed_jeevesprobe_2afc_og -->
    <g transform="translate(149.638125 63.12) scale(0.12 -0.12)">
     <defs>
      <path id="DejaVuSans-66" d="M 2375 4863 
L 2375 4384 
L 1825 4384 
Q 1516 4384 1395 4259 
Q 1275 4134 1275 3809 
L 1275 3500 
L 2222 3500 
L 2222 3053 
L 1275 3053 
L 1275 0 
L 697 0 
L 697 3053 
L 147 3053 
L 147 3500 
L 697 3500 
L 697 3744 
Q 697 4328 969 4595 
Q 1241 4863 1831 4863 
L 2375 4863 
z
" transform="scale(0.015625)"/>
      <path id="DejaVuSans-69" d="M 603 3500 
L 1178 3500 
L 1178 0 
L 603 0 
L 603 3500 
z
M 603 4863 
L 1178 4863 
L 1178 4134 
L 603 4134 
L 603 4863 
z
" transform="scale(0.015625)"/>
      <path id="DejaVuSans-78" d="M 3513 3500 
L 2247 1797 
L 3578 0 
L 2900 0 
L 1881 1375 
L 863 0 
L 184 0 
L 1544 1831 
L 300 3500 
L 978 3500 
L 1906 2253 
L 2834 3500 
L 3513 3500 
z
" transform="scale(0.015625)"/>
      <path id="DejaVuSans-65" d="M 3597 1894 
L 3597 1613 
L 953 1613 
Q 991 1019 1311 708 
Q 1631 397 2203 397 
Q 2534 397 2845 478 
Q 3156 559 3463 722 
L 3463 178 
Q 3153 47 2828 -22 
Q 2503 -91 2169 -91 
Q 1331 -91 842 396 
Q 353 884 353 1716 
Q 353 2575 817 3079 
Q 1281 3584 2069 3584 
Q 2775 3584 3186 3129 
Q 3597 2675 3597 1894 
z
M 3022 2063 
Q 3016 2534 2758 2815 
Q 2500 3097 2075 3097 
Q 1594 3097 1305 2825 
Q 1016 2553 972 2059 
L 3022 2063 
z
" transform="scale(0.015625)"/>
      <path id="DejaVuSans-64" d="M 2906 2969 
L 2906 4863 
L 3481 4863 
L 3481 0 
L 2906 0 
L 2906 525 
Q 2725 213 2448 61 
Q 2172 -91 1784 -91 
Q 1150 -91 751 415 
Q 353 922 353 1747 
Q 353 2572 751 3078 
Q 1150 3584 1784 3584 
Q 2172 3584 2448 3432 
Q 2725 3281 2906 2969 
z
M 947 1747 
Q 947 1113 1208 752 
Q 1469 391 1925 391 
Q 2381 391 2643 752 
Q 2906 1113 2906 1747 
Q 2906 2381 2643 2742 
Q 2381 3103 1925 3103 
Q 1469 3103 1208 2742 
Q 947 2381 947 1747 
z
" transform="scale(0.015625)"/>
      <path id="DejaVuSans-5f" d="M 3263 -1063 
L 3263 -1509 
L -63 -1509 
L -63 -1063 
L 3263 -1063 
z
" transform="scale(0.015625)"/>
      <path id="DejaVuSans-6a" d="M 603 3500 
L 1178 3500 
L 1178 -63 
Q 1178 -731 923 -1031 
Q 669 -1331 103 -1331 
L -116 -1331 
L -116 -844 
L 38 -844 
Q 366 -844 484 -692 
Q 603 -541 603 -63 
L 603 3500 
z
M 603 4863 
L 1178 4863 
L 1178 4134 
L 603 4134 
L 603 4863 
z
" transform="scale(0.015625)"/>
      <path id="DejaVuSans-76" d="M 191 3500 
L 800 3500 
L 1894 563 
L 2988 3500 
L 3597 3500 
L 2284 0 
L 1503 0 
L 191 3500 
z
" transform="scale(0.015625)"/>
      <path id="DejaVuSans-73" d="M 2834 3397 
L 2834 2853 
Q 2591 2978 2328 3040 
Q 2066 3103 1784 3103 
Q 1356 3103 1142 2972 
Q 928 2841 928 2578 
Q 928 2378 1081 2264 
Q 1234 2150 1697 2047 
L 1894 2003 
Q 2506 1872 2764 1633 
Q 3022 1394 3022 966 
Q 3022 478 2636 193 
Q 2250 -91 1575 -91 
Q 1294 -91 989 -36 
Q 684 19 347 128 
L 347 722 
Q 666 556 975 473 
Q 1284 391 1588 391 
Q 1994 391 2212 530 
Q 2431 669 2431 922 
Q 2431 1156 2273 1281 
Q 2116 1406 1581 1522 
L 1381 1569 
Q 847 1681 609 1914 
Q 372 2147 372 2553 
Q 372 3047 722 3315 
Q 1072 3584 1716 3584 
Q 2034 3584 2315 3537 
Q 2597 3491 2834 3397 
z
" transform="scale(0.015625)"/>
      <path id="DejaVuSans-70" d="M 1159 525 
L 1159 -1331 
L 581 -1331 
L 581 3500 
L 1159 3500 
L 1159 2969 
Q 1341 3281 1617 3432 
Q 1894 3584 2278 3584 
Q 2916 3584 3314 3078 
Q 3713 2572 3713 1747 
Q 3713 922 3314 415 
Q 2916 -91 2278 -91 
Q 1894 -91 1617 61 
Q 1341 213 1159 525 
z
M 3116 1747 
Q 3116 2381 2855 2742 
Q 2594 3103 2138 3103 
Q 1681 3103 1420 2742 
Q 1159 2381 1159 1747 
Q 1159 1113 1420 752 
Q 1681 391 2138 391 
Q 2594 391 2855 752 
Q 3116 1113 3116 1747 
z
" transform="scale(0.015625)"/>
      <path id="DejaVuSans-72" d="M 2631 2963 
Q 2534 3019 2420 3045 
Q 2306 3072 2169 3072 
Q 1681 3072 1420 2755 
Q 1159 2438 1159 1844 
L 1159 0 
L 581 0 
L 581 3500 
L 1159 3500 
L 1159 2956 
Q 1341 3275 1631 3429 
Q 1922 3584 2338 3584 
Q 2397 3584 2469 3576 
Q 2541 3569 2628 3553 
L 2631 2963 
z
" transform="scale(0.015625)"/>
      <path id="DejaVuSans-6f" d="M 1959 3097 
Q 1497 3097 1228 2736 
Q 959 2375 959 1747 
Q 959 1119 1226 758 
Q 1494 397 1959 397 
Q 2419 397 2687 759 
Q 2956 1122 2956 1747 
Q 2956 2369 2687 2733 
Q 2419 3097 1959 3097 
z
M 1959 3584 
Q 2709 3584 3137 3096 
Q 3566 2609 3566 1747 
Q 3566 888 3137 398 
Q 2709 -91 1959 -91 
Q 1206 -91 779 398 
Q 353 888 353 1747 
Q 353 2609 779 3096 
Q 1206 3584 1959 3584 
z
" transform="scale(0.015625)"/>
      <path id="DejaVuSans-62" d="M 3116 1747 
Q 3116 2381 2855 2742 
Q 2594 3103 2138 3103 
Q 1681 3103 1420 2742 
Q 1159 2381 1159 1747 
Q 1159 1113 1420 752 
Q 1681 391 2138 391 
Q 2594 391 2855 752 
Q 3116 1113 3116 1747 
z
M 1159 2969 
Q 1341 3281 1617 3432 
Q 1894 3584 2278 3584 
Q 2916 3584 3314 3078 
Q 3713 2572 3713 1747 
Q 3713 922 3314 415 
Q 2916 -91 2278 -91 
Q 1894 -91 1617 61 
Q 1341 213 1159 525 
L 1159 0 
L 581 0 
L 581 4863 
L 1159 4863 
L 1159 2969 
z
" transform="scale(0.015625)"/>
      <path id="DejaVuSans-61" d="M 2194 1759 
Q 1497 1759 1228 1600 
Q 959 1441 959 1056 
Q 959 750 1161 570 
Q 1363 391 1709 391 
Q 2188 391 2477 730 
Q 2766 1069 2766 1631 
L 2766 1759 
L 2194 1759 
z
M 3341 1997 
L 3341 0 
L 2766 0 
L 2766 531 
Q 2569 213 2275 61 
Q 1981 -91 1556 -91 
Q 1019 -91 701 211 
Q 384 513 384 1019 
Q 384 1609 779 1909 
Q 1175 2209 1959 2209 
L 2766 2209 
L 2766 2266 
Q 2766 2663 2505 2880 
Q 2244 3097 1772 3097 
Q 1472 3097 1187 3025 
Q 903 2953 641 2809 
L 641 3341 
Q 956 3463 1253 3523 
Q 1550 3584 1831 3584 
Q 2591 3584 2966 3190 
Q 3341 2797 3341 1997 
z
" transform="scale(0.015625)"/>
      <path id="DejaVuSans-63" d="M 3122 3366 
L 3122 2828 
Q 2878 2963 2633 3030 
Q 2388 3097 2138 3097 
Q 1578 3097 1268 2742 
Q 959 2388 959 1747 
Q 959 1106 1268 751 
Q 1578 397 2138 397 
Q 2388 397 2633 464 
Q 2878 531 3122 666 
L 3122 134 
Q 2881 22 2623 -34 
Q 2366 -91 2075 -91 
Q 1284 -91 818 406 
Q 353 903 353 1747 
Q 353 2603 823 3093 
Q 1294 3584 2113 3584 
Q 2378 3584 2631 3529 
Q 2884 3475 3122 3366 
z
" transform="scale(0.015625)"/>
      <path id="DejaVuSans-67" d="M 2906 1791 
Q 2906 2416 2648 2759 
Q 2391 3103 1925 3103 
Q 1463 3103 1205 2759 
Q 947 2416 947 1791 
Q 947 1169 1205 825 
Q 1463 481 1925 481 
Q 2391 481 2648 825 
Q 2906 1169 2906 1791 
z
M 3481 434 
Q 3481 -459 3084 -895 
Q 2688 -1331 1869 -1331 
Q 1566 -1331 1297 -1286 
Q 1028 -1241 775 -1147 
L 775 -588 
Q 1028 -725 1275 -790 
Q 1522 -856 1778 -856 
Q 2344 -856 2625 -561 
Q 2906 -266 2906 331 
L 2906 616 
Q 2728 306 2450 153 
Q 2172 0 1784 0 
Q 1141 0 747 490 
Q 353 981 353 1791 
Q 353 2603 747 3093 
Q 1141 3584 1784 3584 
Q 2172 3584 2450 3431 
Q 2728 3278 2906 2969 
L 2906 3500 
L 3481 3500 
L 3481 434 
z
" transform="scale(0.015625)"/>
     </defs>
     <use xlink:href="#DejaVuSans-66"/>
     <use xlink:href="#DejaVuSans-69" x="35.205078"/>
     <use xlink:href="#DejaVuSans-78" x="62.988281"/>
     <use xlink:href="#DejaVuSans-65" x="119.042969"/>
     <use xlink:href="#DejaVuSans-64" x="180.566406"/>
     <use xlink:href="#DejaVuSans-5f" x="244.042969"/>
     <use xlink:href="#DejaVuSans-6a" x="294.042969"/>
     <use xlink:href="#DejaVuSans-65" x="321.826172"/>
     <use xlink:href="#DejaVuSans-65" x="383.349609"/>
     <use xlink:href="#DejaVuSans-76" x="444.873047"/>
     <use xlink:href="#DejaVuSans-65" x="504.052734"/>
     <use xlink:href="#DejaVuSans-73" x="565.576172"/>
     <use xlink:href="#DejaVuSans-70" x="617.675781"/>
     <use xlink:href="#DejaVuSans-72" x="681.152344"/>
     <use xlink:href="#DejaVuSans-6f" x="720.015625"/>
     <use xlink:href="#DejaVuSans-62" x="781.197266"/>
     <use xlink:href="#DejaVuSans-65" x="844.673828"/>
     <use xlink:href="#DejaVuSans-5f" x="906.197266"/>
     <use xlink:href="#DejaVuSans-32" x="956.197266"/>
     <use xlink:href="#DejaVuSans-61" x="1019.820312"/>
     <use xlink:href="#DejaVuSans-66" x="1081.099609"/>
     <use xlink:href="#DejaVuSans-63" x="1116.304688"/>
     <use xlink:href="#DejaVuSans-5f" x="1171.285156"/>
     <use xlink:href="#DejaVuSans-6f" x="1221.285156"/>
     <use xlink:href="#DejaVuSans-67" x="1282.466797"/>
    </g>
   </g>
   <g id="legend_1">
    <g id="patch_7">
     <path d="M 164.72125 271.48 
L 361.64 271.48 
Q 363.64 271.48 363.64 269.48 
L 363.64 135.87375 
Q 363.64 133.87375 361.64 133.87375 
L 164.72125 133.87375 
Q 162.72125 133.87375 162.72125 135.87375 
L 162.72125 269.48 
Q 162.72125 271.48 164.72125 271.48 
z
" style="fill: #ffffff; opacity: 0.8; stroke: #cccccc; stroke-linejoin: miter"/>
    </g>
    <g id="line2d_21">
     <path d="M 166.72125 141.972187 
L 176.72125 141.972187 
L 186.72125 141.972187 
" style="fill: none; stroke: #1f77b4; stroke-width: 1.5; stroke-linecap: square"/>
    </g>
    <g id="text_13">
     <!-- low_gauss_shape_to_color -->
     <g transform="translate(194.72125 145.472187) scale(0.1 -0.1)">
      <defs>
       <path id="DejaVuSans-6c" d="M 603 4863 
L 1178 4863 
L 1178 0 
L 603 0 
L 603 4863 
z
" transform="scale(0.015625)"/>
       <path id="DejaVuSans-77" d="M 269 3500 
L 844 3500 
L 1563 769 
L 2278 3500 
L 2956 3500 
L 3675 769 
L 4391 3500 
L 4966 3500 
L 4050 0 
L 3372 0 
L 2619 2869 
L 1863 0 
L 1184 0 
L 269 3500 
z
" transform="scale(0.015625)"/>
       <path id="DejaVuSans-75" d="M 544 1381 
L 544 3500 
L 1119 3500 
L 1119 1403 
Q 1119 906 1312 657 
Q 1506 409 1894 409 
Q 2359 409 2629 706 
Q 2900 1003 2900 1516 
L 2900 3500 
L 3475 3500 
L 3475 0 
L 2900 0 
L 2900 538 
Q 2691 219 2414 64 
Q 2138 -91 1772 -91 
Q 1169 -91 856 284 
Q 544 659 544 1381 
z
M 1991 3584 
L 1991 3584 
z
" transform="scale(0.015625)"/>
       <path id="DejaVuSans-68" d="M 3513 2113 
L 3513 0 
L 2938 0 
L 2938 2094 
Q 2938 2591 2744 2837 
Q 2550 3084 2163 3084 
Q 1697 3084 1428 2787 
Q 1159 2491 1159 1978 
L 1159 0 
L 581 0 
L 581 4863 
L 1159 4863 
L 1159 2956 
Q 1366 3272 1645 3428 
Q 1925 3584 2291 3584 
Q 2894 3584 3203 3211 
Q 3513 2838 3513 2113 
z
" transform="scale(0.015625)"/>
       <path id="DejaVuSans-74" d="M 1172 4494 
L 1172 3500 
L 2356 3500 
L 2356 3053 
L 1172 3053 
L 1172 1153 
Q 1172 725 1289 603 
Q 1406 481 1766 481 
L 2356 481 
L 2356 0 
L 1766 0 
Q 1100 0 847 248 
Q 594 497 594 1153 
L 594 3053 
L 172 3053 
L 172 3500 
L 594 3500 
L 594 4494 
L 1172 4494 
z
" transform="scale(0.015625)"/>
      </defs>
      <use xlink:href="#DejaVuSans-6c"/>
      <use xlink:href="#DejaVuSans-6f" x="27.783203"/>
      <use xlink:href="#DejaVuSans-77" x="88.964844"/>
      <use xlink:href="#DejaVuSans-5f" x="170.751953"/>
      <use xlink:href="#DejaVuSans-67" x="220.751953"/>
      <use xlink:href="#DejaVuSans-61" x="284.228516"/>
      <use xlink:href="#DejaVuSans-75" x="345.507812"/>
      <use xlink:href="#DejaVuSans-73" x="408.886719"/>
      <use xlink:href="#DejaVuSans-73" x="460.986328"/>
      <use xlink:href="#DejaVuSans-5f" x="513.085938"/>
      <use xlink:href="#DejaVuSans-73" x="563.085938"/>
      <use xlink:href="#DejaVuSans-68" x="615.185547"/>
      <use xlink:href="#DejaVuSans-61" x="678.564453"/>
      <use xlink:href="#DejaVuSans-70" x="739.84375"/>
      <use xlink:href="#DejaVuSans-65" x="803.320312"/>
      <use xlink:href="#DejaVuSans-5f" x="864.84375"/>
      <use xlink:href="#DejaVuSans-74" x="914.84375"/>
      <use xlink:href="#DejaVuSans-6f" x="954.052734"/>
      <use xlink:href="#DejaVuSans-5f" x="1015.234375"/>
      <use xlink:href="#DejaVuSans-63" x="1065.234375"/>
      <use xlink:href="#DejaVuSans-6f" x="1120.214844"/>
      <use xlink:href="#DejaVuSans-6c" x="1181.396484"/>
      <use xlink:href="#DejaVuSans-6f" x="1209.179688"/>
      <use xlink:href="#DejaVuSans-72" x="1270.361328"/>
     </g>
    </g>
    <g id="line2d_22">
     <path d="M 166.72125 156.928437 
L 176.72125 156.928437 
L 186.72125 156.928437 
" style="fill: none; stroke: #ff7f0e; stroke-width: 1.5; stroke-linecap: square"/>
    </g>
    <g id="text_14">
     <!-- focal_low_gauss_shape_to_color -->
     <g transform="translate(194.72125 160.428437) scale(0.1 -0.1)">
      <use xlink:href="#DejaVuSans-66"/>
      <use xlink:href="#DejaVuSans-6f" x="35.205078"/>
      <use xlink:href="#DejaVuSans-63" x="96.386719"/>
      <use xlink:href="#DejaVuSans-61" x="151.367188"/>
      <use xlink:href="#DejaVuSans-6c" x="212.646484"/>
      <use xlink:href="#DejaVuSans-5f" x="240.429688"/>
      <use xlink:href="#DejaVuSans-6c" x="290.429688"/>
      <use xlink:href="#DejaVuSans-6f" x="318.212891"/>
      <use xlink:href="#DejaVuSans-77" x="379.394531"/>
      <use xlink:href="#DejaVuSans-5f" x="461.181641"/>
      <use xlink:href="#DejaVuSans-67" x="511.181641"/>
      <use xlink:href="#DejaVuSans-61" x="574.658203"/>
      <use xlink:href="#DejaVuSans-75" x="635.9375"/>
      <use xlink:href="#DejaVuSans-73" x="699.316406"/>
      <use xlink:href="#DejaVuSans-73" x="751.416016"/>
      <use xlink:href="#DejaVuSans-5f" x="803.515625"/>
      <use xlink:href="#DejaVuSans-73" x="853.515625"/>
      <use xlink:href="#DejaVuSans-68" x="905.615234"/>
      <use xlink:href="#DejaVuSans-61" x="968.994141"/>
      <use xlink:href="#DejaVuSans-70" x="1030.273438"/>
      <use xlink:href="#DejaVuSans-65" x="1093.75"/>
      <use xlink:href="#DejaVuSans-5f" x="1155.273438"/>
      <use xlink:href="#DejaVuSans-74" x="1205.273438"/>
      <use xlink:href="#DejaVuSans-6f" x="1244.482422"/>
      <use xlink:href="#DejaVuSans-5f" x="1305.664062"/>
      <use xlink:href="#DejaVuSans-63" x="1355.664062"/>
      <use xlink:href="#DejaVuSans-6f" x="1410.644531"/>
      <use xlink:href="#DejaVuSans-6c" x="1471.826172"/>
      <use xlink:href="#DejaVuSans-6f" x="1499.609375"/>
      <use xlink:href="#DejaVuSans-72" x="1560.791016"/>
     </g>
    </g>
    <g id="line2d_23">
     <path d="M 166.72125 171.884687 
L 176.72125 171.884687 
L 186.72125 171.884687 
" style="fill: none; stroke: #2ca02c; stroke-width: 1.5; stroke-linecap: square"/>
    </g>
    <g id="text_15">
     <!-- high_gauss_shape_to_color -->
     <g transform="translate(194.72125 175.384687) scale(0.1 -0.1)">
      <use xlink:href="#DejaVuSans-68"/>
      <use xlink:href="#DejaVuSans-69" x="63.378906"/>
      <use xlink:href="#DejaVuSans-67" x="91.162109"/>
      <use xlink:href="#DejaVuSans-68" x="154.638672"/>
      <use xlink:href="#DejaVuSans-5f" x="218.017578"/>
      <use xlink:href="#DejaVuSans-67" x="268.017578"/>
      <use xlink:href="#DejaVuSans-61" x="331.494141"/>
      <use xlink:href="#DejaVuSans-75" x="392.773438"/>
      <use xlink:href="#DejaVuSans-73" x="456.152344"/>
      <use xlink:href="#DejaVuSans-73" x="508.251953"/>
      <use xlink:href="#DejaVuSans-5f" x="560.351562"/>
      <use xlink:href="#DejaVuSans-73" x="610.351562"/>
      <use xlink:href="#DejaVuSans-68" x="662.451172"/>
      <use xlink:href="#DejaVuSans-61" x="725.830078"/>
      <use xlink:href="#DejaVuSans-70" x="787.109375"/>
      <use xlink:href="#DejaVuSans-65" x="850.585938"/>
      <use xlink:href="#DejaVuSans-5f" x="912.109375"/>
      <use xlink:href="#DejaVuSans-74" x="962.109375"/>
      <use xlink:href="#DejaVuSans-6f" x="1001.318359"/>
      <use xlink:href="#DejaVuSans-5f" x="1062.5"/>
      <use xlink:href="#DejaVuSans-63" x="1112.5"/>
      <use xlink:href="#DejaVuSans-6f" x="1167.480469"/>
      <use xlink:href="#DejaVuSans-6c" x="1228.662109"/>
      <use xlink:href="#DejaVuSans-6f" x="1256.445312"/>
      <use xlink:href="#DejaVuSans-72" x="1317.626953"/>
     </g>
    </g>
    <g id="line2d_24">
     <path d="M 166.72125 186.840937 
L 176.72125 186.840937 
L 186.72125 186.840937 
" style="fill: none; stroke: #d62728; stroke-width: 1.5; stroke-linecap: square"/>
    </g>
    <g id="text_16">
     <!-- focal_high_gauss_shape_to_color -->
     <g transform="translate(194.72125 190.340937) scale(0.1 -0.1)">
      <use xlink:href="#DejaVuSans-66"/>
      <use xlink:href="#DejaVuSans-6f" x="35.205078"/>
      <use xlink:href="#DejaVuSans-63" x="96.386719"/>
      <use xlink:href="#DejaVuSans-61" x="151.367188"/>
      <use xlink:href="#DejaVuSans-6c" x="212.646484"/>
      <use xlink:href="#DejaVuSans-5f" x="240.429688"/>
      <use xlink:href="#DejaVuSans-68" x="290.429688"/>
      <use xlink:href="#DejaVuSans-69" x="353.808594"/>
      <use xlink:href="#DejaVuSans-67" x="381.591797"/>
      <use xlink:href="#DejaVuSans-68" x="445.068359"/>
      <use xlink:href="#DejaVuSans-5f" x="508.447266"/>
      <use xlink:href="#DejaVuSans-67" x="558.447266"/>
      <use xlink:href="#DejaVuSans-61" x="621.923828"/>
      <use xlink:href="#DejaVuSans-75" x="683.203125"/>
      <use xlink:href="#DejaVuSans-73" x="746.582031"/>
      <use xlink:href="#DejaVuSans-73" x="798.681641"/>
      <use xlink:href="#DejaVuSans-5f" x="850.78125"/>
      <use xlink:href="#DejaVuSans-73" x="900.78125"/>
      <use xlink:href="#DejaVuSans-68" x="952.880859"/>
      <use xlink:href="#DejaVuSans-61" x="1016.259766"/>
      <use xlink:href="#DejaVuSans-70" x="1077.539062"/>
      <use xlink:href="#DejaVuSans-65" x="1141.015625"/>
      <use xlink:href="#DejaVuSans-5f" x="1202.539062"/>
      <use xlink:href="#DejaVuSans-74" x="1252.539062"/>
      <use xlink:href="#DejaVuSans-6f" x="1291.748047"/>
      <use xlink:href="#DejaVuSans-5f" x="1352.929688"/>
      <use xlink:href="#DejaVuSans-63" x="1402.929688"/>
      <use xlink:href="#DejaVuSans-6f" x="1457.910156"/>
      <use xlink:href="#DejaVuSans-6c" x="1519.091797"/>
      <use xlink:href="#DejaVuSans-6f" x="1546.875"/>
      <use xlink:href="#DejaVuSans-72" x="1608.056641"/>
     </g>
    </g>
    <g id="line2d_25">
     <path d="M 166.72125 201.797188 
L 176.72125 201.797188 
L 186.72125 201.797188 
" style="fill: none; stroke: #9467bd; stroke-width: 1.5; stroke-linecap: square"/>
    </g>
    <g id="text_17">
     <!-- low_gauss_color_to_shape -->
     <g transform="translate(194.72125 205.297188) scale(0.1 -0.1)">
      <use xlink:href="#DejaVuSans-6c"/>
      <use xlink:href="#DejaVuSans-6f" x="27.783203"/>
      <use xlink:href="#DejaVuSans-77" x="88.964844"/>
      <use xlink:href="#DejaVuSans-5f" x="170.751953"/>
      <use xlink:href="#DejaVuSans-67" x="220.751953"/>
      <use xlink:href="#DejaVuSans-61" x="284.228516"/>
      <use xlink:href="#DejaVuSans-75" x="345.507812"/>
      <use xlink:href="#DejaVuSans-73" x="408.886719"/>
      <use xlink:href="#DejaVuSans-73" x="460.986328"/>
      <use xlink:href="#DejaVuSans-5f" x="513.085938"/>
      <use xlink:href="#DejaVuSans-63" x="563.085938"/>
      <use xlink:href="#DejaVuSans-6f" x="618.066406"/>
      <use xlink:href="#DejaVuSans-6c" x="679.248047"/>
      <use xlink:href="#DejaVuSans-6f" x="707.03125"/>
      <use xlink:href="#DejaVuSans-72" x="768.212891"/>
      <use xlink:href="#DejaVuSans-5f" x="809.326172"/>
      <use xlink:href="#DejaVuSans-74" x="859.326172"/>
      <use xlink:href="#DejaVuSans-6f" x="898.535156"/>
      <use xlink:href="#DejaVuSans-5f" x="959.716797"/>
      <use xlink:href="#DejaVuSans-73" x="1009.716797"/>
      <use xlink:href="#DejaVuSans-68" x="1061.816406"/>
      <use xlink:href="#DejaVuSans-61" x="1125.195312"/>
      <use xlink:href="#DejaVuSans-70" x="1186.474609"/>
      <use xlink:href="#DejaVuSans-65" x="1249.951172"/>
     </g>
    </g>
    <g id="line2d_26">
     <path d="M 166.72125 216.753437 
L 176.72125 216.753437 
L 186.72125 216.753437 
" style="fill: none; stroke: #8c564b; stroke-width: 1.5; stroke-linecap: square"/>
    </g>
    <g id="text_18">
     <!-- focal_low_gauss_color_to_shape -->
     <g transform="translate(194.72125 220.253437) scale(0.1 -0.1)">
      <use xlink:href="#DejaVuSans-66"/>
      <use xlink:href="#DejaVuSans-6f" x="35.205078"/>
      <use xlink:href="#DejaVuSans-63" x="96.386719"/>
      <use xlink:href="#DejaVuSans-61" x="151.367188"/>
      <use xlink:href="#DejaVuSans-6c" x="212.646484"/>
      <use xlink:href="#DejaVuSans-5f" x="240.429688"/>
      <use xlink:href="#DejaVuSans-6c" x="290.429688"/>
      <use xlink:href="#DejaVuSans-6f" x="318.212891"/>
      <use xlink:href="#DejaVuSans-77" x="379.394531"/>
      <use xlink:href="#DejaVuSans-5f" x="461.181641"/>
      <use xlink:href="#DejaVuSans-67" x="511.181641"/>
      <use xlink:href="#DejaVuSans-61" x="574.658203"/>
      <use xlink:href="#DejaVuSans-75" x="635.9375"/>
      <use xlink:href="#DejaVuSans-73" x="699.316406"/>
      <use xlink:href="#DejaVuSans-73" x="751.416016"/>
      <use xlink:href="#DejaVuSans-5f" x="803.515625"/>
      <use xlink:href="#DejaVuSans-63" x="853.515625"/>
      <use xlink:href="#DejaVuSans-6f" x="908.496094"/>
      <use xlink:href="#DejaVuSans-6c" x="969.677734"/>
      <use xlink:href="#DejaVuSans-6f" x="997.460938"/>
      <use xlink:href="#DejaVuSans-72" x="1058.642578"/>
      <use xlink:href="#DejaVuSans-5f" x="1099.755859"/>
      <use xlink:href="#DejaVuSans-74" x="1149.755859"/>
      <use xlink:href="#DejaVuSans-6f" x="1188.964844"/>
      <use xlink:href="#DejaVuSans-5f" x="1250.146484"/>
      <use xlink:href="#DejaVuSans-73" x="1300.146484"/>
      <use xlink:href="#DejaVuSans-68" x="1352.246094"/>
      <use xlink:href="#DejaVuSans-61" x="1415.625"/>
      <use xlink:href="#DejaVuSans-70" x="1476.904297"/>
      <use xlink:href="#DejaVuSans-65" x="1540.380859"/>
     </g>
    </g>
    <g id="line2d_27">
     <path d="M 166.72125 231.709687 
L 176.72125 231.709687 
L 186.72125 231.709687 
" style="fill: none; stroke: #e377c2; stroke-width: 1.5; stroke-linecap: square"/>
    </g>
    <g id="text_19">
     <!-- high_gauss_color_to_shape -->
     <g transform="translate(194.72125 235.209687) scale(0.1 -0.1)">
      <use xlink:href="#DejaVuSans-68"/>
      <use xlink:href="#DejaVuSans-69" x="63.378906"/>
      <use xlink:href="#DejaVuSans-67" x="91.162109"/>
      <use xlink:href="#DejaVuSans-68" x="154.638672"/>
      <use xlink:href="#DejaVuSans-5f" x="218.017578"/>
      <use xlink:href="#DejaVuSans-67" x="268.017578"/>
      <use xlink:href="#DejaVuSans-61" x="331.494141"/>
      <use xlink:href="#DejaVuSans-75" x="392.773438"/>
      <use xlink:href="#DejaVuSans-73" x="456.152344"/>
      <use xlink:href="#DejaVuSans-73" x="508.251953"/>
      <use xlink:href="#DejaVuSans-5f" x="560.351562"/>
      <use xlink:href="#DejaVuSans-63" x="610.351562"/>
      <use xlink:href="#DejaVuSans-6f" x="665.332031"/>
      <use xlink:href="#DejaVuSans-6c" x="726.513672"/>
      <use xlink:href="#DejaVuSans-6f" x="754.296875"/>
      <use xlink:href="#DejaVuSans-72" x="815.478516"/>
      <use xlink:href="#DejaVuSans-5f" x="856.591797"/>
      <use xlink:href="#DejaVuSans-74" x="906.591797"/>
      <use xlink:href="#DejaVuSans-6f" x="945.800781"/>
      <use xlink:href="#DejaVuSans-5f" x="1006.982422"/>
      <use xlink:href="#DejaVuSans-73" x="1056.982422"/>
      <use xlink:href="#DejaVuSans-68" x="1109.082031"/>
      <use xlink:href="#DejaVuSans-61" x="1172.460938"/>
      <use xlink:href="#DejaVuSans-70" x="1233.740234"/>
      <use xlink:href="#DejaVuSans-65" x="1297.216797"/>
     </g>
    </g>
    <g id="line2d_28">
     <path d="M 166.72125 246.665937 
L 176.72125 246.665937 
L 186.72125 246.665937 
" style="fill: none; stroke: #7f7f7f; stroke-width: 1.5; stroke-linecap: square"/>
    </g>
    <g id="text_20">
     <!-- focal_high_gauss_color_to_shape -->
     <g transform="translate(194.72125 250.165937) scale(0.1 -0.1)">
      <use xlink:href="#DejaVuSans-66"/>
      <use xlink:href="#DejaVuSans-6f" x="35.205078"/>
      <use xlink:href="#DejaVuSans-63" x="96.386719"/>
      <use xlink:href="#DejaVuSans-61" x="151.367188"/>
      <use xlink:href="#DejaVuSans-6c" x="212.646484"/>
      <use xlink:href="#DejaVuSans-5f" x="240.429688"/>
      <use xlink:href="#DejaVuSans-68" x="290.429688"/>
      <use xlink:href="#DejaVuSans-69" x="353.808594"/>
      <use xlink:href="#DejaVuSans-67" x="381.591797"/>
      <use xlink:href="#DejaVuSans-68" x="445.068359"/>
      <use xlink:href="#DejaVuSans-5f" x="508.447266"/>
      <use xlink:href="#DejaVuSans-67" x="558.447266"/>
      <use xlink:href="#DejaVuSans-61" x="621.923828"/>
      <use xlink:href="#DejaVuSans-75" x="683.203125"/>
      <use xlink:href="#DejaVuSans-73" x="746.582031"/>
      <use xlink:href="#DejaVuSans-73" x="798.681641"/>
      <use xlink:href="#DejaVuSans-5f" x="850.78125"/>
      <use xlink:href="#DejaVuSans-63" x="900.78125"/>
      <use xlink:href="#DejaVuSans-6f" x="955.761719"/>
      <use xlink:href="#DejaVuSans-6c" x="1016.943359"/>
      <use xlink:href="#DejaVuSans-6f" x="1044.726562"/>
      <use xlink:href="#DejaVuSans-72" x="1105.908203"/>
      <use xlink:href="#DejaVuSans-5f" x="1147.021484"/>
      <use xlink:href="#DejaVuSans-74" x="1197.021484"/>
      <use xlink:href="#DejaVuSans-6f" x="1236.230469"/>
      <use xlink:href="#DejaVuSans-5f" x="1297.412109"/>
      <use xlink:href="#DejaVuSans-73" x="1347.412109"/>
      <use xlink:href="#DejaVuSans-68" x="1399.511719"/>
      <use xlink:href="#DejaVuSans-61" x="1462.890625"/>
      <use xlink:href="#DejaVuSans-70" x="1524.169922"/>
      <use xlink:href="#DejaVuSans-65" x="1587.646484"/>
     </g>
    </g>
    <g id="line2d_29">
     <path d="M 166.72125 261.622187 
L 176.72125 261.622187 
L 186.72125 261.622187 
" style="fill: none; stroke: #bcbd22; stroke-width: 1.5; stroke-linecap: square"/>
    </g>
    <g id="text_21">
     <!-- achromatic_shape_to_shape -->
     <g transform="translate(194.72125 265.122187) scale(0.1 -0.1)">
      <defs>
       <path id="DejaVuSans-6d" d="M 3328 2828 
Q 3544 3216 3844 3400 
Q 4144 3584 4550 3584 
Q 5097 3584 5394 3201 
Q 5691 2819 5691 2113 
L 5691 0 
L 5113 0 
L 5113 2094 
Q 5113 2597 4934 2840 
Q 4756 3084 4391 3084 
Q 3944 3084 3684 2787 
Q 3425 2491 3425 1978 
L 3425 0 
L 2847 0 
L 2847 2094 
Q 2847 2600 2669 2842 
Q 2491 3084 2119 3084 
Q 1678 3084 1418 2786 
Q 1159 2488 1159 1978 
L 1159 0 
L 581 0 
L 581 3500 
L 1159 3500 
L 1159 2956 
Q 1356 3278 1631 3431 
Q 1906 3584 2284 3584 
Q 2666 3584 2933 3390 
Q 3200 3197 3328 2828 
z
" transform="scale(0.015625)"/>
      </defs>
      <use xlink:href="#DejaVuSans-61"/>
      <use xlink:href="#DejaVuSans-63" x="61.279297"/>
      <use xlink:href="#DejaVuSans-68" x="116.259766"/>
      <use xlink:href="#DejaVuSans-72" x="179.638672"/>
      <use xlink:href="#DejaVuSans-6f" x="218.501953"/>
      <use xlink:href="#DejaVuSans-6d" x="279.683594"/>
      <use xlink:href="#DejaVuSans-61" x="377.095703"/>
      <use xlink:href="#DejaVuSans-74" x="438.375"/>
      <use xlink:href="#DejaVuSans-69" x="477.583984"/>
      <use xlink:href="#DejaVuSans-63" x="505.367188"/>
      <use xlink:href="#DejaVuSans-5f" x="560.347656"/>
      <use xlink:href="#DejaVuSans-73" x="610.347656"/>
      <use xlink:href="#DejaVuSans-68" x="662.447266"/>
      <use xlink:href="#DejaVuSans-61" x="725.826172"/>
      <use xlink:href="#DejaVuSans-70" x="787.105469"/>
      <use xlink:href="#DejaVuSans-65" x="850.582031"/>
      <use xlink:href="#DejaVuSans-5f" x="912.105469"/>
      <use xlink:href="#DejaVuSans-74" x="962.105469"/>
      <use xlink:href="#DejaVuSans-6f" x="1001.314453"/>
      <use xlink:href="#DejaVuSans-5f" x="1062.496094"/>
      <use xlink:href="#DejaVuSans-73" x="1112.496094"/>
      <use xlink:href="#DejaVuSans-68" x="1164.595703"/>
      <use xlink:href="#DejaVuSans-61" x="1227.974609"/>
      <use xlink:href="#DejaVuSans-70" x="1289.253906"/>
      <use xlink:href="#DejaVuSans-65" x="1352.730469"/>
     </g>
    </g>
   </g>
  </g>
 </g>
 <defs>
  <clipPath id="p8037a863d0">
   <rect x="92.16" y="69.12" width="276.48" height="207.36"/>
  </clipPath>
 </defs>
</svg>
