<?xml version="1.0" encoding="utf-8" standalone="no"?>
<!DOCTYPE svg PUBLIC "-//W3C//DTD SVG 1.1//EN"
  "http://www.w3.org/Graphics/SVG/1.1/DTD/svg11.dtd">
<svg xmlns:xlink="http://www.w3.org/1999/xlink" width="460.8pt" height="345.6pt" viewBox="0 0 460.8 345.6" xmlns="http://www.w3.org/2000/svg" version="1.1">
 <metadata>
  <rdf:RDF xmlns:dc="http://purl.org/dc/elements/1.1/" xmlns:cc="http://creativecommons.org/ns#" xmlns:rdf="http://www.w3.org/1999/02/22-rdf-syntax-ns#">
   <cc:Work>
    <dc:type rdf:resource="http://purl.org/dc/dcmitype/StillImage"/>
    <dc:date>2023-08-08T12:05:14.583578</dc:date>
    <dc:format>image/svg+xml</dc:format>
    <dc:creator>
     <cc:Agent>
      <dc:title>Matplotlib v3.7.1, https://matplotlib.org/</dc:title>
     </cc:Agent>
    </dc:creator>
   </cc:Work>
  </rdf:RDF>
 </metadata>
 <defs>
  <style type="text/css">*{stroke-linejoin: round; stroke-linecap: butt}</style>
 </defs>
 <g id="figure_1">
  <g id="patch_1">
   <path d="M 0 345.6 
L 460.8 345.6 
L 460.8 0 
L 0 0 
z
" style="fill: #ffffff"/>
  </g>
  <g id="axes_1">
   <g id="patch_2">
    <path d="M 92.16 276.48 
L 368.64 276.48 
L 368.64 69.12 
L 92.16 69.12 
z
" style="fill: #ffffff"/>
   </g>
   <g id="matplotlib.axis_1">
    <g id="xtick_1">
     <g id="line2d_1">
      <defs>
       <path id="me8d1c52fa7" d="M 0 0 
L 0 3.5 
" style="stroke: #000000; stroke-width: 0.8"/>
      </defs>
      <g>
       <use xlink:href="#me8d1c52fa7" x="104.727273" y="276.48" style="stroke: #000000; stroke-width: 0.8"/>
      </g>
     </g>
     <g id="text_1">
      <!-- 0 -->
      <g transform="translate(101.546023 291.078437) scale(0.1 -0.1)">
       <defs>
        <path id="DejaVuSans-30" d="M 2034 4250 
Q 1547 4250 1301 3770 
Q 1056 3291 1056 2328 
Q 1056 1369 1301 889 
Q 1547 409 2034 409 
Q 2525 409 2770 889 
Q 3016 1369 3016 2328 
Q 3016 3291 2770 3770 
Q 2525 4250 2034 4250 
z
M 2034 4750 
Q 2819 4750 3233 4129 
Q 3647 3509 3647 2328 
Q 3647 1150 3233 529 
Q 2819 -91 2034 -91 
Q 1250 -91 836 529 
Q 422 1150 422 2328 
Q 422 3509 836 4129 
Q 1250 4750 2034 4750 
z
" transform="scale(0.015625)"/>
       </defs>
       <use xlink:href="#DejaVuSans-30"/>
      </g>
     </g>
    </g>
    <g id="xtick_2">
     <g id="line2d_2">
      <g>
       <use xlink:href="#me8d1c52fa7" x="159.546347" y="276.48" style="stroke: #000000; stroke-width: 0.8"/>
      </g>
     </g>
     <g id="text_2">
      <!-- 200 -->
      <g transform="translate(150.002597 291.078437) scale(0.1 -0.1)">
       <defs>
        <path id="DejaVuSans-32" d="M 1228 531 
L 3431 531 
L 3431 0 
L 469 0 
L 469 531 
Q 828 903 1448 1529 
Q 2069 2156 2228 2338 
Q 2531 2678 2651 2914 
Q 2772 3150 2772 3378 
Q 2772 3750 2511 3984 
Q 2250 4219 1831 4219 
Q 1534 4219 1204 4116 
Q 875 4013 500 3803 
L 500 4441 
Q 881 4594 1212 4672 
Q 1544 4750 1819 4750 
Q 2544 4750 2975 4387 
Q 3406 4025 3406 3419 
Q 3406 3131 3298 2873 
Q 3191 2616 2906 2266 
Q 2828 2175 2409 1742 
Q 1991 1309 1228 531 
z
" transform="scale(0.015625)"/>
       </defs>
       <use xlink:href="#DejaVuSans-32"/>
       <use xlink:href="#DejaVuSans-30" x="63.623047"/>
       <use xlink:href="#DejaVuSans-30" x="127.246094"/>
      </g>
     </g>
    </g>
    <g id="xtick_3">
     <g id="line2d_3">
      <g>
       <use xlink:href="#me8d1c52fa7" x="214.365421" y="276.48" style="stroke: #000000; stroke-width: 0.8"/>
      </g>
     </g>
     <g id="text_3">
      <!-- 400 -->
      <g transform="translate(204.821671 291.078437) scale(0.1 -0.1)">
       <defs>
        <path id="DejaVuSans-34" d="M 2419 4116 
L 825 1625 
L 2419 1625 
L 2419 4116 
z
M 2253 4666 
L 3047 4666 
L 3047 1625 
L 3713 1625 
L 3713 1100 
L 3047 1100 
L 3047 0 
L 2419 0 
L 2419 1100 
L 313 1100 
L 313 1709 
L 2253 4666 
z
" transform="scale(0.015625)"/>
       </defs>
       <use xlink:href="#DejaVuSans-34"/>
       <use xlink:href="#DejaVuSans-30" x="63.623047"/>
       <use xlink:href="#DejaVuSans-30" x="127.246094"/>
      </g>
     </g>
    </g>
    <g id="xtick_4">
     <g id="line2d_4">
      <g>
       <use xlink:href="#me8d1c52fa7" x="269.184495" y="276.48" style="stroke: #000000; stroke-width: 0.8"/>
      </g>
     </g>
     <g id="text_4">
      <!-- 600 -->
      <g transform="translate(259.640745 291.078437) scale(0.1 -0.1)">
       <defs>
        <path id="DejaVuSans-36" d="M 2113 2584 
Q 1688 2584 1439 2293 
Q 1191 2003 1191 1497 
Q 1191 994 1439 701 
Q 1688 409 2113 409 
Q 2538 409 2786 701 
Q 3034 994 3034 1497 
Q 3034 2003 2786 2293 
Q 2538 2584 2113 2584 
z
M 3366 4563 
L 3366 3988 
Q 3128 4100 2886 4159 
Q 2644 4219 2406 4219 
Q 1781 4219 1451 3797 
Q 1122 3375 1075 2522 
Q 1259 2794 1537 2939 
Q 1816 3084 2150 3084 
Q 2853 3084 3261 2657 
Q 3669 2231 3669 1497 
Q 3669 778 3244 343 
Q 2819 -91 2113 -91 
Q 1303 -91 875 529 
Q 447 1150 447 2328 
Q 447 3434 972 4092 
Q 1497 4750 2381 4750 
Q 2619 4750 2861 4703 
Q 3103 4656 3366 4563 
z
" transform="scale(0.015625)"/>
       </defs>
       <use xlink:href="#DejaVuSans-36"/>
       <use xlink:href="#DejaVuSans-30" x="63.623047"/>
       <use xlink:href="#DejaVuSans-30" x="127.246094"/>
      </g>
     </g>
    </g>
    <g id="xtick_5">
     <g id="line2d_5">
      <g>
       <use xlink:href="#me8d1c52fa7" x="324.003569" y="276.48" style="stroke: #000000; stroke-width: 0.8"/>
      </g>
     </g>
     <g id="text_5">
      <!-- 800 -->
      <g transform="translate(314.459819 291.078437) scale(0.1 -0.1)">
       <defs>
        <path id="DejaVuSans-38" d="M 2034 2216 
Q 1584 2216 1326 1975 
Q 1069 1734 1069 1313 
Q 1069 891 1326 650 
Q 1584 409 2034 409 
Q 2484 409 2743 651 
Q 3003 894 3003 1313 
Q 3003 1734 2745 1975 
Q 2488 2216 2034 2216 
z
M 1403 2484 
Q 997 2584 770 2862 
Q 544 3141 544 3541 
Q 544 4100 942 4425 
Q 1341 4750 2034 4750 
Q 2731 4750 3128 4425 
Q 3525 4100 3525 3541 
Q 3525 3141 3298 2862 
Q 3072 2584 2669 2484 
Q 3125 2378 3379 2068 
Q 3634 1759 3634 1313 
Q 3634 634 3220 271 
Q 2806 -91 2034 -91 
Q 1263 -91 848 271 
Q 434 634 434 1313 
Q 434 1759 690 2068 
Q 947 2378 1403 2484 
z
M 1172 3481 
Q 1172 3119 1398 2916 
Q 1625 2713 2034 2713 
Q 2441 2713 2670 2916 
Q 2900 3119 2900 3481 
Q 2900 3844 2670 4047 
Q 2441 4250 2034 4250 
Q 1625 4250 1398 4047 
Q 1172 3844 1172 3481 
z
" transform="scale(0.015625)"/>
       </defs>
       <use xlink:href="#DejaVuSans-38"/>
       <use xlink:href="#DejaVuSans-30" x="63.623047"/>
       <use xlink:href="#DejaVuSans-30" x="127.246094"/>
      </g>
     </g>
    </g>
   </g>
   <g id="matplotlib.axis_2">
    <g id="ytick_1">
     <g id="line2d_6">
      <defs>
       <path id="m9bc38d2bd7" d="M 0 0 
L -3.5 0 
" style="stroke: #000000; stroke-width: 0.8"/>
      </defs>
      <g>
       <use xlink:href="#m9bc38d2bd7" x="92.16" y="250.896623" style="stroke: #000000; stroke-width: 0.8"/>
      </g>
     </g>
     <g id="text_6">
      <!-- 0.2 -->
      <g transform="translate(69.256875 254.695842) scale(0.1 -0.1)">
       <defs>
        <path id="DejaVuSans-2e" d="M 684 794 
L 1344 794 
L 1344 0 
L 684 0 
L 684 794 
z
" transform="scale(0.015625)"/>
       </defs>
       <use xlink:href="#DejaVuSans-30"/>
       <use xlink:href="#DejaVuSans-2e" x="63.623047"/>
       <use xlink:href="#DejaVuSans-32" x="95.410156"/>
      </g>
     </g>
    </g>
    <g id="ytick_2">
     <g id="line2d_7">
      <g>
       <use xlink:href="#m9bc38d2bd7" x="92.16" y="207.808831" style="stroke: #000000; stroke-width: 0.8"/>
      </g>
     </g>
     <g id="text_7">
      <!-- 0.4 -->
      <g transform="translate(69.256875 211.60805) scale(0.1 -0.1)">
       <use xlink:href="#DejaVuSans-30"/>
       <use xlink:href="#DejaVuSans-2e" x="63.623047"/>
       <use xlink:href="#DejaVuSans-34" x="95.410156"/>
      </g>
     </g>
    </g>
    <g id="ytick_3">
     <g id="line2d_8">
      <g>
       <use xlink:href="#m9bc38d2bd7" x="92.16" y="164.721039" style="stroke: #000000; stroke-width: 0.8"/>
      </g>
     </g>
     <g id="text_8">
      <!-- 0.6 -->
      <g transform="translate(69.256875 168.520258) scale(0.1 -0.1)">
       <use xlink:href="#DejaVuSans-30"/>
       <use xlink:href="#DejaVuSans-2e" x="63.623047"/>
       <use xlink:href="#DejaVuSans-36" x="95.410156"/>
      </g>
     </g>
    </g>
    <g id="ytick_4">
     <g id="line2d_9">
      <g>
       <use xlink:href="#m9bc38d2bd7" x="92.16" y="121.633247" style="stroke: #000000; stroke-width: 0.8"/>
      </g>
     </g>
     <g id="text_9">
      <!-- 0.8 -->
      <g transform="translate(69.256875 125.432466) scale(0.1 -0.1)">
       <use xlink:href="#DejaVuSans-30"/>
       <use xlink:href="#DejaVuSans-2e" x="63.623047"/>
       <use xlink:href="#DejaVuSans-38" x="95.410156"/>
      </g>
     </g>
    </g>
    <g id="ytick_5">
     <g id="line2d_10">
      <g>
       <use xlink:href="#m9bc38d2bd7" x="92.16" y="78.545455" style="stroke: #000000; stroke-width: 0.8"/>
      </g>
     </g>
     <g id="text_10">
      <!-- 1.0 -->
      <g transform="translate(69.256875 82.344673) scale(0.1 -0.1)">
       <defs>
        <path id="DejaVuSans-31" d="M 794 531 
L 1825 531 
L 1825 4091 
L 703 3866 
L 703 4441 
L 1819 4666 
L 2450 4666 
L 2450 531 
L 3481 531 
L 3481 0 
L 794 0 
L 794 531 
z
" transform="scale(0.015625)"/>
       </defs>
       <use xlink:href="#DejaVuSans-31"/>
       <use xlink:href="#DejaVuSans-2e" x="63.623047"/>
       <use xlink:href="#DejaVuSans-30" x="95.410156"/>
      </g>
     </g>
    </g>
   </g>
   <g id="line2d_11">
    <path d="M 104.727273 110.861299 
L 105.001368 109.784104 
L 106.371845 109.784104 
L 106.64594 110.861299 
L 107.194131 110.861299 
L 107.468226 109.784104 
L 108.564608 109.784104 
L 108.838703 110.861299 
L 111.579657 110.861299 
L 112.127848 113.015688 
L 112.401943 113.015688 
L 112.950134 110.861299 
L 114.046515 110.861299 
L 114.320611 109.784104 
L 114.868801 109.784104 
L 115.142897 110.861299 
L 115.416992 109.784104 
L 117.883851 109.784104 
L 118.157946 108.706909 
L 118.980232 108.706909 
L 119.254327 107.629714 
L 120.076613 107.629714 
L 120.624804 109.784104 
L 122.269376 109.784104 
L 122.543472 108.706909 
L 123.365758 108.706909 
L 123.639853 107.629714 
L 124.736235 107.629714 
L 125.01033 106.552519 
L 125.284425 107.629714 
L 125.558521 106.552519 
L 125.832616 107.629714 
L 127.203093 107.629714 
L 127.477188 108.706909 
L 128.57357 108.706909 
L 128.847665 107.629714 
L 129.121761 107.629714 
L 129.395856 106.552519 
L 130.492238 106.552519 
L 130.766333 105.475325 
L 133.507287 105.475325 
L 133.781382 104.39813 
L 134.055477 104.39813 
L 134.329573 105.475325 
L 134.877763 105.475325 
L 135.151859 104.39813 
L 135.425954 104.39813 
L 135.70005 103.320935 
L 135.974145 104.39813 
L 137.892813 104.39813 
L 138.166908 105.475325 
L 138.715099 105.475325 
L 138.989194 104.39813 
L 139.263289 104.39813 
L 139.537385 103.320935 
L 139.81148 104.39813 
L 140.633766 104.39813 
L 140.907862 103.320935 
L 141.730148 103.320935 
L 142.004243 102.24374 
L 145.019292 102.24374 
L 145.293388 101.166545 
L 146.115674 101.166545 
L 146.389769 100.089351 
L 147.48615 100.089351 
L 147.760246 101.166545 
L 148.856627 101.166545 
L 149.130723 100.089351 
L 149.953009 100.089351 
L 150.227104 99.012156 
L 150.775295 99.012156 
L 151.04939 100.089351 
L 151.323486 100.089351 
L 151.871676 97.934961 
L 152.145772 97.934961 
L 152.419867 99.012156 
L 156.805393 99.012156 
L 157.079488 97.934961 
L 159.272251 97.934961 
L 159.546347 96.857766 
L 161.190919 96.857766 
L 161.465014 95.780571 
L 163.383682 95.780571 
L 163.657777 94.703377 
L 165.85054 94.703377 
L 166.124636 95.780571 
L 166.398731 95.780571 
L 166.946922 93.626182 
L 168.043303 93.626182 
L 168.317399 94.703377 
L 169.687875 94.703377 
L 169.961971 93.626182 
L 170.510162 95.780571 
L 171.880638 95.780571 
L 172.154734 96.857766 
L 174.621592 96.857766 
L 174.895688 97.934961 
L 175.443878 95.780571 
L 180.377595 95.780571 
L 180.65169 94.703377 
L 182.022167 94.703377 
L 182.296263 93.626182 
L 183.118549 93.626182 
L 183.666739 95.780571 
L 185.311312 95.780571 
L 185.585407 96.857766 
L 188.874551 96.857766 
L 189.148647 95.780571 
L 190.245028 95.780571 
L 190.519124 96.857766 
L 190.793219 95.780571 
L 194.356459 95.780571 
L 194.630554 94.703377 
L 199.01608 94.703377 
L 199.290175 95.780571 
L 202.305225 95.780571 
L 202.57932 94.703377 
L 205.594369 94.703377 
L 205.868464 93.626182 
L 206.69075 93.626182 
L 206.964846 94.703377 
L 207.238941 93.626182 
L 207.787132 93.626182 
L 208.061227 94.703377 
L 209.7058 94.703377 
L 209.979895 95.780571 
L 210.528086 95.780571 
L 210.802181 96.857766 
L 213.81723 96.857766 
L 214.091325 97.934961 
L 216.009993 97.934961 
L 216.284088 99.012156 
L 218.202756 99.012156 
L 218.750947 101.166545 
L 219.299138 101.166545 
L 219.573233 102.24374 
L 220.669614 102.24374 
L 220.94371 101.166545 
L 222.040091 101.166545 
L 222.314187 102.24374 
L 223.684663 102.24374 
L 223.958759 103.320935 
L 224.232854 103.320935 
L 224.781045 105.475325 
L 225.329236 103.320935 
L 226.699713 103.320935 
L 226.973808 102.24374 
L 227.247903 102.24374 
L 227.521999 103.320935 
L 229.440666 103.320935 
L 229.714762 102.24374 
L 230.262952 102.24374 
L 230.537048 103.320935 
L 234.648478 103.320935 
L 234.922574 102.24374 
L 235.196669 103.320935 
L 235.74486 103.320935 
L 236.018955 104.39813 
L 238.211718 104.39813 
L 238.485813 103.320935 
L 240.130386 103.320935 
L 240.404481 102.24374 
L 245.064102 102.24374 
L 245.338198 101.166545 
L 247.530961 101.166545 
L 247.805056 100.089351 
L 252.464677 100.089351 
L 252.738773 101.166545 
L 253.835154 101.166545 
L 254.10925 100.089351 
L 261.509825 100.089351 
L 261.78392 99.012156 
L 262.606206 99.012156 
L 262.880301 97.934961 
L 264.524874 97.934961 
L 264.798969 96.857766 
L 265.34716 96.857766 
L 265.621255 95.780571 
L 268.636304 95.780571 
L 268.9104 94.703377 
L 270.829067 94.703377 
L 271.103162 93.626182 
L 271.925449 93.626182 
L 272.199544 94.703377 
L 273.02183 94.703377 
L 273.570021 92.548987 
L 274.118212 92.548987 
L 274.392307 91.471792 
L 276.859165 91.471792 
L 277.133261 90.394597 
L 277.681451 90.394597 
L 277.955547 89.317403 
L 278.503737 89.317403 
L 278.777833 88.240208 
L 279.051928 88.240208 
L 279.600119 86.085818 
L 282.066977 86.085818 
L 282.341073 85.008623 
L 285.082026 85.008623 
L 285.356122 83.931429 
L 286.452503 83.931429 
L 286.726599 85.008623 
L 288.645266 85.008623 
L 288.919362 86.085818 
L 289.467552 86.085818 
L 289.467552 86.085818 
" clip-path="url(#p29f17e45a9)" style="fill: none; stroke: #1f77b4; stroke-width: 1.5; stroke-linecap: square"/>
   </g>
   <g id="line2d_12">
    <path d="M 104.727273 78.545455 
L 289.193457 78.545455 
L 289.193457 78.545455 
" clip-path="url(#p29f17e45a9)" style="fill: none; stroke: #ff7f0e; stroke-width: 1.5; stroke-linecap: square"/>
   </g>
   <g id="line2d_13">
    <path d="M 104.727273 125.942026 
L 105.275463 125.942026 
L 105.823654 123.787636 
L 106.371845 123.787636 
L 106.64594 122.710442 
L 108.290513 122.710442 
L 108.564608 121.633247 
L 108.838703 121.633247 
L 109.112799 120.556052 
L 110.483276 120.556052 
L 110.757371 121.633247 
L 111.579657 121.633247 
L 111.853752 122.710442 
L 114.046515 122.710442 
L 114.320611 121.633247 
L 114.868801 121.633247 
L 115.142897 120.556052 
L 115.691088 120.556052 
L 115.965183 119.478857 
L 116.239278 119.478857 
L 116.513374 118.401662 
L 116.787469 119.478857 
L 117.883851 119.478857 
L 118.706137 116.247273 
L 120.076613 116.247273 
L 120.350709 117.324468 
L 120.8989 117.324468 
L 121.172995 118.401662 
L 122.269376 118.401662 
L 122.543472 119.478857 
L 123.091663 117.324468 
L 124.462139 117.324468 
L 124.736235 116.247273 
L 125.01033 116.247273 
L 125.284425 117.324468 
L 125.558521 117.324468 
L 125.832616 116.247273 
L 126.106712 116.247273 
L 126.380807 115.170078 
L 127.203093 115.170078 
L 127.751284 113.015688 
L 128.299475 113.015688 
L 128.57357 114.092883 
L 128.847665 113.015688 
L 129.669951 113.015688 
L 129.944047 111.938494 
L 133.233191 111.938494 
L 133.507287 113.015688 
L 134.329573 113.015688 
L 134.603668 111.938494 
L 134.877763 113.015688 
L 135.425954 113.015688 
L 135.70005 111.938494 
L 136.522336 111.938494 
L 137.070526 109.784104 
L 137.344622 109.784104 
L 137.618717 110.861299 
L 137.892813 110.861299 
L 138.166908 109.784104 
L 138.441003 110.861299 
L 138.715099 109.784104 
L 139.263289 109.784104 
L 139.537385 108.706909 
L 141.181957 108.706909 
L 141.730148 106.552519 
L 142.278338 106.552519 
L 142.552434 107.629714 
L 145.293388 107.629714 
L 145.567483 108.706909 
L 146.389769 105.475325 
L 146.663864 105.475325 
L 146.93796 106.552519 
L 147.212055 106.552519 
L 147.48615 107.629714 
L 147.760246 107.629714 
L 148.034341 106.552519 
L 148.308437 106.552519 
L 148.582532 105.475325 
L 149.953009 105.475325 
L 150.227104 104.39813 
L 150.775295 104.39813 
L 151.04939 105.475325 
L 153.516249 105.475325 
L 153.790344 106.552519 
L 154.064439 106.552519 
L 154.338535 107.629714 
L 155.160821 107.629714 
L 155.434916 106.552519 
L 155.709012 106.552519 
L 155.983107 105.475325 
L 156.257202 105.475325 
L 156.531298 106.552519 
L 156.805393 106.552519 
L 157.353584 108.706909 
L 157.627679 108.706909 
L 157.901775 107.629714 
L 158.724061 107.629714 
L 158.998156 106.552519 
L 160.642728 106.552519 
L 160.916824 107.629714 
L 165.30235 107.629714 
L 165.576445 106.552519 
L 166.398731 106.552519 
L 166.672826 105.475325 
L 166.946922 105.475325 
L 167.221017 106.552519 
L 167.495113 106.552519 
L 167.769208 107.629714 
L 169.139685 107.629714 
L 169.41378 108.706909 
L 171.332448 108.706909 
L 171.606543 107.629714 
L 174.895688 107.629714 
L 175.169783 106.552519 
L 175.717974 106.552519 
L 175.992069 105.475325 
L 177.08845 105.475325 
L 177.362546 104.39813 
L 179.555309 104.39813 
L 180.1035 102.24374 
L 183.118549 102.24374 
L 183.392644 101.166545 
L 183.666739 101.166545 
L 183.940835 102.24374 
L 185.585407 102.24374 
L 185.859502 103.320935 
L 188.052265 103.320935 
L 188.326361 102.24374 
L 189.422742 102.24374 
L 189.696838 101.166545 
L 192.163696 101.166545 
L 192.437791 100.089351 
L 192.711887 100.089351 
L 192.985982 101.166545 
L 193.260077 100.089351 
L 194.356459 100.089351 
L 194.630554 99.012156 
L 194.90465 99.012156 
L 195.178745 100.089351 
L 195.45284 100.089351 
L 195.726936 101.166545 
L 196.549222 101.166545 
L 196.823317 102.24374 
L 197.097413 102.24374 
L 197.371508 101.166545 
L 197.919699 101.166545 
L 198.467889 103.320935 
L 200.112462 103.320935 
L 200.386557 102.24374 
L 201.482938 102.24374 
L 201.757034 101.166545 
L 202.031129 101.166545 
L 202.305225 100.089351 
L 203.675701 100.089351 
L 203.949797 101.166545 
L 204.223892 100.089351 
L 204.497988 100.089351 
L 204.772083 101.166545 
L 205.594369 101.166545 
L 205.868464 100.089351 
L 208.335323 100.089351 
L 208.609418 99.012156 
L 208.883513 99.012156 
L 209.157609 97.934961 
L 211.076276 97.934961 
L 211.350372 96.857766 
L 211.624467 96.857766 
L 212.172658 94.703377 
L 213.269039 94.703377 
L 213.543135 93.626182 
L 214.365421 93.626182 
L 214.639516 94.703377 
L 215.461802 94.703377 
L 215.735898 93.626182 
L 217.106375 93.626182 
L 217.38047 94.703377 
L 217.928661 94.703377 
L 218.202756 95.780571 
L 221.765996 95.780571 
L 222.040091 94.703377 
L 222.314187 94.703377 
L 222.588282 93.626182 
L 223.958759 93.626182 
L 224.232854 92.548987 
L 226.699713 92.548987 
L 226.973808 93.626182 
L 228.61838 93.626182 
L 228.892475 94.703377 
L 229.988857 94.703377 
L 230.262952 95.780571 
L 233.003906 95.780571 
L 233.278001 96.857766 
L 234.648478 96.857766 
L 234.922574 97.934961 
L 238.485813 97.934961 
L 238.759909 96.857766 
L 239.034004 97.934961 
L 240.130386 97.934961 
L 240.404481 99.012156 
L 240.678576 97.934961 
L 244.241816 97.934961 
L 244.515912 99.012156 
L 246.98277 99.012156 
L 247.256865 100.089351 
L 247.530961 100.089351 
L 247.805056 99.012156 
L 248.079151 99.012156 
L 248.353247 100.089351 
L 249.723724 100.089351 
L 249.997819 99.012156 
L 250.271914 99.012156 
L 250.54601 97.934961 
L 251.368296 97.934961 
L 251.642391 96.857766 
L 252.190582 96.857766 
L 252.464677 97.934961 
L 252.738773 97.934961 
L 253.286963 95.780571 
L 254.931536 95.780571 
L 255.205631 96.857766 
L 256.302012 96.857766 
L 256.576108 97.934961 
L 258.494775 97.934961 
L 258.768871 96.857766 
L 259.042966 97.934961 
L 259.317062 97.934961 
L 259.591157 96.857766 
L 260.139348 96.857766 
L 260.413443 97.934961 
L 262.606206 97.934961 
L 262.880301 99.012156 
L 263.976683 99.012156 
L 264.250778 100.089351 
L 266.717637 100.089351 
L 266.991732 101.166545 
L 269.184495 101.166545 
L 269.45859 100.089351 
L 270.829067 100.089351 
L 271.103162 101.166545 
L 272.747735 101.166545 
L 273.02183 100.089351 
L 274.666402 100.089351 
L 274.940498 101.166545 
L 278.777833 101.166545 
L 279.051928 102.24374 
L 280.14831 102.24374 
L 280.422405 103.320935 
L 281.518787 103.320935 
L 281.792882 102.24374 
L 283.437454 102.24374 
L 283.71155 101.166545 
L 284.25974 101.166545 
L 284.533836 102.24374 
L 284.807931 102.24374 
L 285.082026 101.166545 
L 285.904312 101.166545 
L 286.178408 102.24374 
L 286.726599 102.24374 
L 286.726599 102.24374 
" clip-path="url(#p29f17e45a9)" style="fill: none; stroke: #2ca02c; stroke-width: 1.5; stroke-linecap: square"/>
   </g>
   <g id="line2d_14">
    <path d="M 104.727273 78.545455 
L 289.193457 78.545455 
L 289.193457 78.545455 
" clip-path="url(#p29f17e45a9)" style="fill: none; stroke: #d62728; stroke-width: 1.5; stroke-linecap: square"/>
   </g>
   <g id="line2d_15">
    <path d="M 104.727273 265.977351 
L 105.275463 265.977351 
L 105.549559 264.900156 
L 105.823654 264.900156 
L 106.09775 263.822961 
L 107.468226 263.822961 
L 108.016417 265.977351 
L 108.290513 264.900156 
L 108.564608 264.900156 
L 108.838703 265.977351 
L 109.112799 265.977351 
L 109.386894 264.900156 
L 110.757371 264.900156 
L 111.031466 263.822961 
L 111.305562 263.822961 
L 111.853752 265.977351 
L 112.127848 265.977351 
L 112.401943 267.054545 
L 112.676038 267.054545 
L 112.950134 265.977351 
L 114.046515 265.977351 
L 114.320611 264.900156 
L 114.868801 264.900156 
L 115.142897 265.977351 
L 116.239278 265.977351 
L 116.513374 267.054545 
L 117.609755 267.054545 
L 117.883851 265.977351 
L 118.706137 265.977351 
L 118.980232 264.900156 
L 121.995281 264.900156 
L 122.543472 262.745766 
L 123.913949 262.745766 
L 124.188044 263.822961 
L 126.380807 263.822961 
L 126.654902 262.745766 
L 128.299475 262.745766 
L 128.57357 263.822961 
L 132.410905 263.822961 
L 132.685 262.745766 
L 134.055477 262.745766 
L 134.603668 260.591377 
L 135.70005 260.591377 
L 135.974145 261.668571 
L 136.24824 260.591377 
L 136.796431 260.591377 
L 137.070526 259.514182 
L 139.263289 259.514182 
L 139.537385 258.436987 
L 140.085575 258.436987 
L 140.359671 259.514182 
L 141.181957 259.514182 
L 141.730148 257.359792 
L 144.471101 257.359792 
L 144.745197 256.282597 
L 146.115674 256.282597 
L 146.389769 255.205403 
L 147.48615 255.205403 
L 147.760246 254.128208 
L 148.582532 254.128208 
L 148.856627 255.205403 
L 149.130723 255.205403 
L 149.404818 256.282597 
L 150.5012 256.282597 
L 150.775295 255.205403 
L 152.419867 255.205403 
L 152.693963 256.282597 
L 153.790344 256.282597 
L 154.338535 254.128208 
L 155.434916 254.128208 
L 155.709012 255.205403 
L 156.257202 255.205403 
L 156.805393 257.359792 
L 158.449965 257.359792 
L 158.724061 256.282597 
L 159.272251 256.282597 
L 159.546347 255.205403 
L 160.094538 255.205403 
L 160.368633 256.282597 
L 162.835491 256.282597 
L 163.109587 257.359792 
L 163.931873 257.359792 
L 164.205968 258.436987 
L 164.754159 256.282597 
L 165.576445 256.282597 
L 166.124636 258.436987 
L 166.946922 258.436987 
L 167.221017 257.359792 
L 168.865589 257.359792 
L 169.139685 258.436987 
L 169.687875 258.436987 
L 169.961971 257.359792 
L 170.236066 257.359792 
L 170.784257 259.514182 
L 171.332448 259.514182 
L 172.154734 256.282597 
L 172.702925 256.282597 
L 172.97702 255.205403 
L 173.525211 255.205403 
L 173.799306 256.282597 
L 174.073401 256.282597 
L 174.621592 254.128208 
L 175.169783 254.128208 
L 175.443878 253.051013 
L 175.717974 253.051013 
L 176.266164 250.896623 
L 176.814355 250.896623 
L 177.08845 251.973818 
L 177.910737 251.973818 
L 178.184832 250.896623 
L 179.281213 250.896623 
L 179.555309 249.819429 
L 181.199881 249.819429 
L 181.473976 250.896623 
L 181.748072 250.896623 
L 182.022167 249.819429 
L 182.570358 249.819429 
L 182.844453 248.742234 
L 183.118549 248.742234 
L 183.392644 247.665039 
L 185.585407 247.665039 
L 185.859502 246.587844 
L 186.133598 246.587844 
L 186.681788 244.433455 
L 187.504075 244.433455 
L 188.052265 242.279065 
L 188.326361 242.279065 
L 188.600456 241.20187 
L 188.874551 241.20187 
L 189.422742 243.35626 
L 189.696838 242.279065 
L 189.970933 242.279065 
L 190.245028 241.20187 
L 190.793219 241.20187 
L 191.067314 242.279065 
L 191.615505 242.279065 
L 191.8896 243.35626 
L 192.163696 242.279065 
L 193.260077 242.279065 
L 193.808268 240.124675 
L 194.90465 240.124675 
L 195.178745 239.047481 
L 196.001031 239.047481 
L 196.549222 241.20187 
L 197.645603 241.20187 
L 197.919699 240.124675 
L 199.290175 240.124675 
L 199.564271 241.20187 
L 200.112462 241.20187 
L 200.934748 237.970286 
L 202.031129 237.970286 
L 202.305225 236.893091 
L 202.853415 236.893091 
L 203.127511 235.815896 
L 203.401606 236.893091 
L 203.675701 235.815896 
L 204.223892 235.815896 
L 204.497988 234.738701 
L 206.14256 234.738701 
L 206.69075 232.584312 
L 206.964846 233.661506 
L 207.238941 233.661506 
L 207.513037 232.584312 
L 207.787132 233.661506 
L 208.609418 233.661506 
L 208.883513 234.738701 
L 210.528086 234.738701 
L 210.802181 233.661506 
L 211.898563 233.661506 
L 212.172658 232.584312 
L 212.446753 232.584312 
L 212.720849 231.507117 
L 213.81723 231.507117 
L 214.091325 230.429922 
L 214.365421 231.507117 
L 214.639516 231.507117 
L 215.187707 229.352727 
L 215.461802 229.352727 
L 215.735898 230.429922 
L 216.009993 230.429922 
L 216.284088 229.352727 
L 216.832279 229.352727 
L 217.106375 228.275532 
L 218.750947 228.275532 
L 219.025042 227.198338 
L 219.573233 229.352727 
L 219.847328 228.275532 
L 220.395519 228.275532 
L 221.217805 225.043948 
L 222.314187 225.043948 
L 222.588282 226.121143 
L 222.862377 225.043948 
L 223.684663 225.043948 
L 224.50695 221.812364 
L 224.781045 222.889558 
L 225.05514 222.889558 
L 225.329236 221.812364 
L 227.247903 221.812364 
L 227.796094 223.966753 
L 228.070189 222.889558 
L 228.892475 222.889558 
L 229.440666 225.043948 
L 229.988857 225.043948 
L 230.262952 226.121143 
L 230.811143 226.121143 
L 231.085238 227.198338 
L 231.359334 227.198338 
L 231.907525 225.043948 
L 232.18162 226.121143 
L 232.729811 226.121143 
L 233.003906 227.198338 
L 233.278001 226.121143 
L 234.100287 226.121143 
L 234.374383 227.198338 
L 234.648478 227.198338 
L 235.196669 225.043948 
L 236.841241 225.043948 
L 237.115337 223.966753 
L 237.937623 223.966753 
L 238.211718 225.043948 
L 238.759909 225.043948 
L 239.034004 223.966753 
L 239.3081 223.966753 
L 239.582195 222.889558 
L 239.85629 222.889558 
L 240.130386 221.812364 
L 240.678576 221.812364 
L 240.952672 220.735169 
L 241.500862 222.889558 
L 241.774958 221.812364 
L 242.049053 221.812364 
L 242.597244 223.966753 
L 242.871339 223.966753 
L 243.145435 222.889558 
L 243.41953 222.889558 
L 244.241816 219.657974 
L 244.515912 220.735169 
L 244.790007 219.657974 
L 245.064102 220.735169 
L 245.338198 220.735169 
L 245.886388 218.580779 
L 246.434579 218.580779 
L 246.708675 217.503584 
L 246.98277 218.580779 
L 247.256865 217.503584 
L 248.079151 217.503584 
L 248.353247 218.580779 
L 249.175533 218.580779 
L 249.723724 216.42639 
L 249.997819 217.503584 
L 250.271914 217.503584 
L 250.54601 216.42639 
L 252.190582 216.42639 
L 252.464677 215.349195 
L 252.738773 215.349195 
L 253.012868 214.272 
L 254.65744 214.272 
L 254.931536 213.194805 
L 255.205631 214.272 
L 255.479726 214.272 
L 256.027917 216.42639 
L 256.302012 216.42639 
L 256.576108 215.349195 
L 256.850203 215.349195 
L 257.124299 216.42639 
L 257.398394 216.42639 
L 257.672489 217.503584 
L 259.317062 217.503584 
L 259.591157 216.42639 
L 260.413443 216.42639 
L 260.961634 214.272 
L 261.235729 214.272 
L 261.509825 215.349195 
L 262.058015 215.349195 
L 262.332111 216.42639 
L 262.606206 215.349195 
L 262.880301 215.349195 
L 263.428492 213.194805 
L 263.702587 213.194805 
L 263.976683 214.272 
L 264.524874 212.11761 
L 265.073064 212.11761 
L 265.34716 211.040416 
L 265.621255 212.11761 
L 265.89535 211.040416 
L 266.169446 211.040416 
L 266.443541 209.963221 
L 266.717637 209.963221 
L 266.991732 211.040416 
L 267.265827 209.963221 
L 267.539923 211.040416 
L 269.45859 211.040416 
L 270.006781 213.194805 
L 270.554972 213.194805 
L 270.829067 212.11761 
L 271.103162 212.11761 
L 271.377258 211.040416 
L 271.651353 211.040416 
L 271.925449 212.11761 
L 273.02183 212.11761 
L 273.295925 211.040416 
L 273.570021 211.040416 
L 273.844116 212.11761 
L 274.392307 209.963221 
L 274.940498 209.963221 
L 275.214593 208.886026 
L 276.036879 212.11761 
L 276.310975 212.11761 
L 276.58507 211.040416 
L 276.859165 212.11761 
L 277.133261 211.040416 
L 277.407356 211.040416 
L 277.681451 212.11761 
L 278.229642 209.963221 
L 278.503737 209.963221 
L 278.777833 211.040416 
L 279.051928 211.040416 
L 279.326024 212.11761 
L 279.874214 209.963221 
L 280.14831 209.963221 
L 280.970596 206.731636 
L 281.792882 209.963221 
L 282.066977 208.886026 
L 282.889263 208.886026 
L 283.163359 207.808831 
L 283.437454 207.808831 
L 283.71155 206.731636 
L 283.985645 206.731636 
L 284.25974 205.654442 
L 284.533836 205.654442 
L 284.807931 204.577247 
L 285.356122 204.577247 
L 285.630217 205.654442 
L 285.904312 205.654442 
L 286.178408 204.577247 
L 286.452503 205.654442 
L 286.726599 205.654442 
L 287.000694 204.577247 
L 287.82298 204.577247 
L 288.097075 205.654442 
L 288.371171 205.654442 
L 288.919362 203.500052 
L 288.919362 203.500052 
" clip-path="url(#p29f17e45a9)" style="fill: none; stroke: #9467bd; stroke-width: 1.5; stroke-linecap: square"/>
   </g>
   <g id="line2d_16">
    <path d="M 104.727273 78.545455 
L 292.482601 78.545455 
L 292.482601 78.545455 
" clip-path="url(#p29f17e45a9)" style="fill: none; stroke: #8c564b; stroke-width: 1.5; stroke-linecap: square"/>
   </g>
   <g id="line2d_17">
    <path d="M 104.727273 235.815896 
L 106.09775 235.815896 
L 106.371845 234.738701 
L 107.194131 234.738701 
L 107.468226 233.661506 
L 107.742322 233.661506 
L 108.290513 235.815896 
L 109.660989 230.429922 
L 110.20918 230.429922 
L 110.483276 229.352727 
L 111.305562 229.352727 
L 111.579657 228.275532 
L 111.853752 228.275532 
L 112.676038 225.043948 
L 112.950134 226.121143 
L 113.224229 226.121143 
L 114.046515 222.889558 
L 114.320611 222.889558 
L 115.142897 219.657974 
L 115.416992 219.657974 
L 115.691088 218.580779 
L 116.239278 218.580779 
L 117.883851 212.11761 
L 118.157946 212.11761 
L 118.432041 211.040416 
L 118.706137 211.040416 
L 119.254327 208.886026 
L 119.528423 209.963221 
L 119.802518 208.886026 
L 120.350709 208.886026 
L 120.8989 206.731636 
L 121.172995 207.808831 
L 122.543472 202.422857 
L 123.091663 202.422857 
L 124.462139 197.036883 
L 124.736235 197.036883 
L 125.832616 192.728104 
L 126.106712 192.728104 
L 126.380807 191.650909 
L 126.928998 191.650909 
L 127.751284 188.419325 
L 128.299475 188.419325 
L 128.57357 187.34213 
L 128.847665 187.34213 
L 129.121761 186.264935 
L 129.395856 186.264935 
L 129.669951 185.18774 
L 129.944047 185.18774 
L 130.218142 184.110545 
L 130.492238 185.18774 
L 130.766333 184.110545 
L 131.040428 184.110545 
L 133.233191 175.492987 
L 133.507287 175.492987 
L 133.781382 174.415792 
L 134.055477 174.415792 
L 134.877763 171.184208 
L 135.151859 171.184208 
L 135.425954 170.107013 
L 135.70005 170.107013 
L 135.974145 169.029818 
L 136.24824 169.029818 
L 136.796431 166.875429 
L 137.070526 166.875429 
L 137.344622 165.798234 
L 137.618717 165.798234 
L 138.166908 163.643844 
L 138.441003 163.643844 
L 138.715099 162.566649 
L 138.989194 162.566649 
L 139.537385 160.41226 
L 139.81148 160.41226 
L 141.456052 153.949091 
L 141.730148 153.949091 
L 143.100625 148.563117 
L 143.648815 148.563117 
L 144.745197 144.254338 
L 145.019292 144.254338 
L 146.115674 139.945558 
L 146.389769 139.945558 
L 146.663864 138.868364 
L 146.93796 138.868364 
L 147.48615 136.713974 
L 148.308437 136.713974 
L 149.130723 133.48239 
L 149.404818 133.48239 
L 149.953009 131.328 
L 150.227104 131.328 
L 151.04939 128.096416 
L 151.323486 128.096416 
L 151.597581 129.17361 
L 152.419867 125.942026 
L 152.693963 125.942026 
L 152.968058 124.864831 
L 153.790344 124.864831 
L 154.064439 123.787636 
L 154.338535 123.787636 
L 154.886725 121.633247 
L 155.160821 121.633247 
L 155.983107 118.401662 
L 156.257202 118.401662 
L 156.531298 119.478857 
L 157.079488 119.478857 
L 157.353584 118.401662 
L 157.627679 118.401662 
L 158.17587 116.247273 
L 158.449965 117.324468 
L 158.998156 117.324468 
L 159.272251 116.247273 
L 160.368633 116.247273 
L 160.642728 117.324468 
L 161.190919 117.324468 
L 161.465014 116.247273 
L 161.73911 116.247273 
L 162.013205 115.170078 
L 162.561396 115.170078 
L 163.109587 113.015688 
L 163.657777 113.015688 
L 164.205968 115.170078 
L 164.480063 115.170078 
L 164.754159 114.092883 
L 165.028254 114.092883 
L 165.30235 115.170078 
L 165.576445 115.170078 
L 165.85054 114.092883 
L 167.221017 114.092883 
L 167.495113 115.170078 
L 167.769208 115.170078 
L 168.043303 116.247273 
L 168.865589 116.247273 
L 169.139685 117.324468 
L 169.41378 117.324468 
L 169.687875 118.401662 
L 169.961971 118.401662 
L 170.236066 117.324468 
L 170.510162 117.324468 
L 170.784257 116.247273 
L 171.058352 116.247273 
L 171.332448 117.324468 
L 172.154734 117.324468 
L 172.702925 119.478857 
L 173.251115 119.478857 
L 173.525211 118.401662 
L 174.621592 118.401662 
L 175.169783 116.247273 
L 177.636641 116.247273 
L 177.910737 115.170078 
L 178.733023 115.170078 
L 179.007118 116.247273 
L 181.199881 116.247273 
L 181.473976 115.170078 
L 182.570358 115.170078 
L 182.844453 114.092883 
L 183.940835 114.092883 
L 184.21493 113.015688 
L 184.489025 113.015688 
L 184.763121 111.938494 
L 185.037216 111.938494 
L 185.311312 110.861299 
L 188.600456 110.861299 
L 188.874551 111.938494 
L 189.696838 111.938494 
L 189.970933 110.861299 
L 191.615505 110.861299 
L 191.8896 109.784104 
L 193.534173 109.784104 
L 193.808268 108.706909 
L 194.90465 108.706909 
L 195.178745 109.784104 
L 200.112462 109.784104 
L 200.386557 110.861299 
L 201.482938 110.861299 
L 201.757034 109.784104 
L 202.57932 109.784104 
L 202.853415 108.706909 
L 203.949797 108.706909 
L 204.223892 107.629714 
L 206.14256 107.629714 
L 206.416655 106.552519 
L 207.513037 106.552519 
L 207.787132 107.629714 
L 208.061227 107.629714 
L 208.335323 106.552519 
L 209.431704 106.552519 
L 209.7058 107.629714 
L 211.076276 107.629714 
L 211.350372 106.552519 
L 211.624467 106.552519 
L 211.898563 105.475325 
L 212.994944 105.475325 
L 213.269039 104.39813 
L 214.639516 104.39813 
L 214.913612 103.320935 
L 215.187707 104.39813 
L 215.461802 103.320935 
L 215.735898 104.39813 
L 218.476851 104.39813 
L 219.025042 102.24374 
L 219.299138 103.320935 
L 219.847328 103.320935 
L 220.121424 102.24374 
L 220.94371 102.24374 
L 221.217805 103.320935 
L 222.040091 103.320935 
L 222.862377 100.089351 
L 223.684663 100.089351 
L 223.958759 99.012156 
L 224.232854 99.012156 
L 224.50695 97.934961 
L 224.781045 97.934961 
L 225.05514 99.012156 
L 225.877426 99.012156 
L 226.151522 97.934961 
L 226.973808 97.934961 
L 227.521999 95.780571 
L 228.892475 95.780571 
L 229.166571 94.703377 
L 230.537048 94.703377 
L 230.811143 93.626182 
L 231.085238 94.703377 
L 233.552097 94.703377 
L 233.826192 93.626182 
L 237.115337 93.626182 
L 237.389432 94.703377 
L 239.034004 94.703377 
L 239.3081 95.780571 
L 240.404481 95.780571 
L 240.678576 96.857766 
L 243.145435 96.857766 
L 243.41953 97.934961 
L 243.693625 96.857766 
L 244.241816 96.857766 
L 244.515912 97.934961 
L 246.434579 97.934961 
L 246.708675 99.012156 
L 249.723724 99.012156 
L 249.997819 97.934961 
L 251.916487 97.934961 
L 252.190582 99.012156 
L 254.931536 99.012156 
L 255.205631 97.934961 
L 256.027917 97.934961 
L 256.302012 99.012156 
L 257.124299 99.012156 
L 257.398394 97.934961 
L 259.042966 97.934961 
L 259.317062 99.012156 
L 262.332111 99.012156 
L 262.606206 97.934961 
L 263.702587 97.934961 
L 263.976683 99.012156 
L 264.524874 99.012156 
L 264.798969 97.934961 
L 265.073064 97.934961 
L 265.34716 99.012156 
L 265.621255 99.012156 
L 265.89535 100.089351 
L 269.732686 100.089351 
L 270.006781 99.012156 
L 273.295925 99.012156 
L 273.570021 100.089351 
L 273.844116 100.089351 
L 274.118212 99.012156 
L 275.762784 99.012156 
L 276.036879 97.934961 
L 276.310975 97.934961 
L 276.58507 99.012156 
L 277.407356 99.012156 
L 277.681451 100.089351 
L 279.600119 100.089351 
L 279.874214 99.012156 
L 282.889263 99.012156 
L 283.163359 100.089351 
L 285.082026 100.089351 
L 285.356122 101.166545 
L 285.630217 101.166545 
L 285.904312 100.089351 
L 286.178408 100.089351 
L 286.452503 101.166545 
L 288.919362 101.166545 
L 289.193457 102.24374 
L 290.289838 102.24374 
L 290.563934 103.320935 
L 291.934411 103.320935 
L 291.934411 103.320935 
" clip-path="url(#p29f17e45a9)" style="fill: none; stroke: #e377c2; stroke-width: 1.5; stroke-linecap: square"/>
   </g>
   <g id="line2d_18">
    <path d="M 104.727273 78.545455 
L 286.726599 78.545455 
L 286.726599 78.545455 
" clip-path="url(#p29f17e45a9)" style="fill: none; stroke: #7f7f7f; stroke-width: 1.5; stroke-linecap: square"/>
   </g>
   <g id="line2d_19">
    <path d="M 104.727273 100.089351 
L 105.001368 100.089351 
L 105.275463 101.166545 
L 107.194131 101.166545 
L 107.468226 102.24374 
L 108.016417 102.24374 
L 108.290513 103.320935 
L 109.112799 103.320935 
L 109.386894 104.39813 
L 109.660989 104.39813 
L 109.935085 105.475325 
L 111.031466 105.475325 
L 111.305562 106.552519 
L 111.579657 105.475325 
L 112.950134 105.475325 
L 113.224229 104.39813 
L 113.77242 104.39813 
L 114.046515 103.320935 
L 115.142897 103.320935 
L 115.416992 102.24374 
L 115.691088 102.24374 
L 115.965183 101.166545 
L 116.513374 101.166545 
L 116.787469 102.24374 
L 117.609755 102.24374 
L 117.883851 103.320935 
L 119.254327 103.320935 
L 119.528423 104.39813 
L 120.076613 104.39813 
L 120.350709 103.320935 
L 120.624804 104.39813 
L 121.44709 104.39813 
L 121.721186 103.320935 
L 123.365758 103.320935 
L 123.639853 102.24374 
L 128.847665 102.24374 
L 129.944047 106.552519 
L 130.766333 106.552519 
L 131.040428 107.629714 
L 133.507287 107.629714 
L 133.781382 108.706909 
L 136.24824 108.706909 
L 136.522336 109.784104 
L 138.441003 109.784104 
L 138.715099 110.861299 
L 139.537385 110.861299 
L 139.81148 109.784104 
L 140.633766 109.784104 
L 140.907862 108.706909 
L 141.181957 108.706909 
L 141.456052 109.784104 
L 142.278338 109.784104 
L 142.552434 110.861299 
L 142.826529 109.784104 
L 143.100625 110.861299 
L 143.922911 110.861299 
L 144.197006 109.784104 
L 145.841578 109.784104 
L 146.115674 110.861299 
L 147.48615 110.861299 
L 147.760246 111.938494 
L 148.308437 111.938494 
L 148.582532 110.861299 
L 148.856627 110.861299 
L 149.130723 109.784104 
L 149.404818 109.784104 
L 149.678913 110.861299 
L 150.227104 110.861299 
L 150.5012 109.784104 
L 151.04939 109.784104 
L 151.323486 108.706909 
L 152.145772 108.706909 
L 152.419867 109.784104 
L 152.693963 109.784104 
L 152.968058 108.706909 
L 153.516249 110.861299 
L 154.064439 110.861299 
L 154.61263 113.015688 
L 154.886725 113.015688 
L 155.160821 114.092883 
L 157.901775 114.092883 
L 158.17587 115.170078 
L 159.272251 115.170078 
L 159.546347 114.092883 
L 159.820442 114.092883 
L 160.094538 113.015688 
L 160.368633 113.015688 
L 160.642728 114.092883 
L 162.013205 114.092883 
L 162.2873 113.015688 
L 162.835491 113.015688 
L 163.109587 111.938494 
L 163.931873 111.938494 
L 164.205968 110.861299 
L 164.480063 110.861299 
L 164.754159 109.784104 
L 165.85054 109.784104 
L 166.124636 108.706909 
L 168.865589 108.706909 
L 169.139685 109.784104 
L 170.236066 109.784104 
L 170.784257 111.938494 
L 171.058352 111.938494 
L 171.332448 113.015688 
L 171.606543 111.938494 
L 172.428829 111.938494 
L 172.702925 110.861299 
L 174.073401 110.861299 
L 174.347497 109.784104 
L 175.169783 109.784104 
L 175.443878 108.706909 
L 176.266164 111.938494 
L 177.08845 111.938494 
L 177.362546 113.015688 
L 179.281213 113.015688 
L 179.555309 111.938494 
L 179.829404 113.015688 
L 183.666739 113.015688 
L 184.763121 108.706909 
L 188.326361 108.706909 
L 188.600456 107.629714 
L 190.245028 107.629714 
L 190.519124 108.706909 
L 191.067314 108.706909 
L 191.34141 107.629714 
L 191.615505 108.706909 
L 191.8896 108.706909 
L 192.163696 109.784104 
L 192.711887 109.784104 
L 192.985982 110.861299 
L 193.260077 110.861299 
L 193.534173 109.784104 
L 194.90465 109.784104 
L 195.178745 110.861299 
L 195.45284 110.861299 
L 195.726936 111.938494 
L 196.001031 111.938494 
L 196.275126 110.861299 
L 197.645603 110.861299 
L 197.919699 109.784104 
L 200.660652 109.784104 
L 200.934748 108.706909 
L 201.757034 108.706909 
L 202.031129 109.784104 
L 202.305225 109.784104 
L 202.57932 108.706909 
L 202.853415 109.784104 
L 204.223892 109.784104 
L 204.497988 108.706909 
L 205.594369 108.706909 
L 205.868464 109.784104 
L 206.964846 109.784104 
L 207.238941 108.706909 
L 207.787132 108.706909 
L 208.335323 106.552519 
L 208.883513 106.552519 
L 209.431704 104.39813 
L 209.7058 104.39813 
L 209.979895 103.320935 
L 210.528086 103.320935 
L 210.802181 104.39813 
L 211.076276 104.39813 
L 211.350372 105.475325 
L 211.624467 105.475325 
L 211.898563 106.552519 
L 212.720849 106.552519 
L 212.994944 105.475325 
L 213.81723 105.475325 
L 214.091325 106.552519 
L 214.365421 106.552519 
L 214.639516 105.475325 
L 215.187707 105.475325 
L 215.461802 104.39813 
L 215.735898 104.39813 
L 216.009993 105.475325 
L 221.217805 105.475325 
L 221.4919 106.552519 
L 222.314187 106.552519 
L 222.588282 107.629714 
L 223.136473 107.629714 
L 223.410568 108.706909 
L 223.684663 108.706909 
L 223.958759 107.629714 
L 225.05514 107.629714 
L 225.603331 105.475325 
L 225.877426 106.552519 
L 226.151522 105.475325 
L 227.247903 105.475325 
L 227.521999 106.552519 
L 229.166571 106.552519 
L 229.440666 107.629714 
L 229.714762 107.629714 
L 229.988857 108.706909 
L 230.262952 108.706909 
L 231.085238 105.475325 
L 231.907525 105.475325 
L 232.18162 104.39813 
L 234.374383 104.39813 
L 234.648478 103.320935 
L 235.470764 103.320935 
L 235.74486 104.39813 
L 236.018955 104.39813 
L 236.29305 105.475325 
L 237.937623 105.475325 
L 238.211718 106.552519 
L 239.034004 106.552519 
L 239.3081 107.629714 
L 240.130386 107.629714 
L 240.404481 108.706909 
L 240.678576 107.629714 
L 240.952672 107.629714 
L 241.226767 108.706909 
L 243.693625 108.706909 
L 243.967721 109.784104 
L 245.064102 109.784104 
L 245.338198 108.706909 
L 246.160484 108.706909 
L 246.434579 107.629714 
L 246.708675 108.706909 
L 246.98277 107.629714 
L 247.530961 107.629714 
L 247.805056 106.552519 
L 249.449628 106.552519 
L 249.723724 107.629714 
L 249.997819 106.552519 
L 250.271914 106.552519 
L 250.54601 105.475325 
L 251.916487 105.475325 
L 252.190582 104.39813 
L 253.835154 104.39813 
L 254.10925 105.475325 
L 256.576108 105.475325 
L 256.850203 104.39813 
L 257.398394 104.39813 
L 257.672489 103.320935 
L 260.413443 103.320935 
L 260.687538 102.24374 
L 261.235729 102.24374 
L 261.509825 103.320935 
L 264.798969 103.320935 
L 265.073064 104.39813 
L 265.34716 104.39813 
L 265.621255 103.320935 
L 265.89535 103.320935 
L 266.169446 102.24374 
L 266.443541 102.24374 
L 266.717637 101.166545 
L 267.814018 101.166545 
L 268.088113 102.24374 
L 268.636304 102.24374 
L 268.9104 101.166545 
L 269.184495 102.24374 
L 269.732686 102.24374 
L 270.006781 103.320935 
L 270.554972 103.320935 
L 270.829067 102.24374 
L 273.844116 102.24374 
L 274.392307 104.39813 
L 276.036879 104.39813 
L 276.310975 103.320935 
L 277.133261 103.320935 
L 277.407356 102.24374 
L 277.955547 102.24374 
L 278.229642 101.166545 
L 280.422405 101.166545 
L 280.6965 100.089351 
L 280.970596 101.166545 
L 282.066977 101.166545 
L 282.341073 100.089351 
L 283.985645 100.089351 
L 284.25974 99.012156 
L 287.000694 99.012156 
L 287.274789 100.089351 
L 289.741648 100.089351 
L 290.015743 101.166545 
L 290.289838 101.166545 
L 290.563934 100.089351 
L 292.756697 100.089351 
L 293.030792 99.012156 
L 293.304887 100.089351 
L 293.853078 100.089351 
L 294.127174 99.012156 
L 295.771746 99.012156 
L 296.045841 97.934961 
L 298.5127 97.934961 
L 298.786795 96.857766 
L 299.883176 96.857766 
L 300.157272 97.934961 
L 301.253653 97.934961 
L 301.527749 96.857766 
L 302.075939 96.857766 
L 302.350035 97.934961 
L 304.268702 97.934961 
L 304.542798 96.857766 
L 304.816893 96.857766 
L 305.090988 97.934961 
L 308.380133 97.934961 
L 308.654228 99.012156 
L 308.928324 97.934961 
L 317.699375 97.934961 
L 317.973471 99.012156 
L 318.247566 99.012156 
L 318.795757 101.166545 
L 319.343948 101.166545 
L 319.618043 102.24374 
L 319.892138 101.166545 
L 322.633092 101.166545 
L 322.907187 100.089351 
L 323.181283 101.166545 
L 323.729474 101.166545 
L 324.003569 100.089351 
L 325.648141 100.089351 
L 325.922237 101.166545 
L 328.66319 101.166545 
L 329.211381 99.012156 
L 331.952335 99.012156 
L 332.22643 100.089351 
L 333.048716 100.089351 
L 333.322812 101.166545 
L 334.693288 101.166545 
L 334.967384 102.24374 
L 335.515575 102.24374 
L 335.78967 101.166545 
L 338.256528 101.166545 
L 338.530624 102.24374 
L 339.078814 102.24374 
L 339.35291 103.320935 
L 339.9011 103.320935 
L 340.175196 104.39813 
L 341.545673 104.39813 
L 341.819768 105.475325 
L 342.093863 104.39813 
L 344.560722 104.39813 
L 344.834817 103.320935 
L 345.657103 103.320935 
L 345.931199 102.24374 
L 347.849866 102.24374 
L 348.123962 101.166545 
L 349.220343 101.166545 
L 349.494438 102.24374 
L 349.768534 102.24374 
L 350.042629 101.166545 
L 352.783583 101.166545 
L 353.057678 102.24374 
L 354.70225 102.24374 
L 354.976346 101.166545 
L 355.524537 101.166545 
L 355.798632 102.24374 
L 356.072727 102.24374 
L 356.072727 102.24374 
" clip-path="url(#p29f17e45a9)" style="fill: none; stroke: #bcbd22; stroke-width: 1.5; stroke-linecap: square"/>
   </g>
   <g id="patch_3">
    <path d="M 92.16 276.48 
L 92.16 69.12 
" style="fill: none; stroke: #000000; stroke-width: 0.8; stroke-linejoin: miter; stroke-linecap: square"/>
   </g>
   <g id="patch_4">
    <path d="M 368.64 276.48 
L 368.64 69.12 
" style="fill: none; stroke: #000000; stroke-width: 0.8; stroke-linejoin: miter; stroke-linecap: square"/>
   </g>
   <g id="patch_5">
    <path d="M 92.16 276.48 
L 368.64 276.48 
" style="fill: none; stroke: #000000; stroke-width: 0.8; stroke-linejoin: miter; stroke-linecap: square"/>
   </g>
   <g id="patch_6">
    <path d="M 92.16 69.12 
L 368.64 69.12 
" style="fill: none; stroke: #000000; stroke-width: 0.8; stroke-linejoin: miter; stroke-linecap: square"/>
   </g>
   <g id="text_11">
    <!-- fixed_jeevesprobe_2afc_og -->
    <g transform="translate(149.638125 63.12) scale(0.12 -0.12)">
     <defs>
      <path id="DejaVuSans-66" d="M 2375 4863 
L 2375 4384 
L 1825 4384 
Q 1516 4384 1395 4259 
Q 1275 4134 1275 3809 
L 1275 3500 
L 2222 3500 
L 2222 3053 
L 1275 3053 
L 1275 0 
L 697 0 
L 697 3053 
L 147 3053 
L 147 3500 
L 697 3500 
L 697 3744 
Q 697 4328 969 4595 
Q 1241 4863 1831 4863 
L 2375 4863 
z
" transform="scale(0.015625)"/>
      <path id="DejaVuSans-69" d="M 603 3500 
L 1178 3500 
L 1178 0 
L 603 0 
L 603 3500 
z
M 603 4863 
L 1178 4863 
L 1178 4134 
L 603 4134 
L 603 4863 
z
" transform="scale(0.015625)"/>
      <path id="DejaVuSans-78" d="M 3513 3500 
L 2247 1797 
L 3578 0 
L 2900 0 
L 1881 1375 
L 863 0 
L 184 0 
L 1544 1831 
L 300 3500 
L 978 3500 
L 1906 2253 
L 2834 3500 
L 3513 3500 
z
" transform="scale(0.015625)"/>
      <path id="DejaVuSans-65" d="M 3597 1894 
L 3597 1613 
L 953 1613 
Q 991 1019 1311 708 
Q 1631 397 2203 397 
Q 2534 397 2845 478 
Q 3156 559 3463 722 
L 3463 178 
Q 3153 47 2828 -22 
Q 2503 -91 2169 -91 
Q 1331 -91 842 396 
Q 353 884 353 1716 
Q 353 2575 817 3079 
Q 1281 3584 2069 3584 
Q 2775 3584 3186 3129 
Q 3597 2675 3597 1894 
z
M 3022 2063 
Q 3016 2534 2758 2815 
Q 2500 3097 2075 3097 
Q 1594 3097 1305 2825 
Q 1016 2553 972 2059 
L 3022 2063 
z
" transform="scale(0.015625)"/>
      <path id="DejaVuSans-64" d="M 2906 2969 
L 2906 4863 
L 3481 4863 
L 3481 0 
L 2906 0 
L 2906 525 
Q 2725 213 2448 61 
Q 2172 -91 1784 -91 
Q 1150 -91 751 415 
Q 353 922 353 1747 
Q 353 2572 751 3078 
Q 1150 3584 1784 3584 
Q 2172 3584 2448 3432 
Q 2725 3281 2906 2969 
z
M 947 1747 
Q 947 1113 1208 752 
Q 1469 391 1925 391 
Q 2381 391 2643 752 
Q 2906 1113 2906 1747 
Q 2906 2381 2643 2742 
Q 2381 3103 1925 3103 
Q 1469 3103 1208 2742 
Q 947 2381 947 1747 
z
" transform="scale(0.015625)"/>
      <path id="DejaVuSans-5f" d="M 3263 -1063 
L 3263 -1509 
L -63 -1509 
L -63 -1063 
L 3263 -1063 
z
" transform="scale(0.015625)"/>
      <path id="DejaVuSans-6a" d="M 603 3500 
L 1178 3500 
L 1178 -63 
Q 1178 -731 923 -1031 
Q 669 -1331 103 -1331 
L -116 -1331 
L -116 -844 
L 38 -844 
Q 366 -844 484 -692 
Q 603 -541 603 -63 
L 603 3500 
z
M 603 4863 
L 1178 4863 
L 1178 4134 
L 603 4134 
L 603 4863 
z
" transform="scale(0.015625)"/>
      <path id="DejaVuSans-76" d="M 191 3500 
L 800 3500 
L 1894 563 
L 2988 3500 
L 3597 3500 
L 2284 0 
L 1503 0 
L 191 3500 
z
" transform="scale(0.015625)"/>
      <path id="DejaVuSans-73" d="M 2834 3397 
L 2834 2853 
Q 2591 2978 2328 3040 
Q 2066 3103 1784 3103 
Q 1356 3103 1142 2972 
Q 928 2841 928 2578 
Q 928 2378 1081 2264 
Q 1234 2150 1697 2047 
L 1894 2003 
Q 2506 1872 2764 1633 
Q 3022 1394 3022 966 
Q 3022 478 2636 193 
Q 2250 -91 1575 -91 
Q 1294 -91 989 -36 
Q 684 19 347 128 
L 347 722 
Q 666 556 975 473 
Q 1284 391 1588 391 
Q 1994 391 2212 530 
Q 2431 669 2431 922 
Q 2431 1156 2273 1281 
Q 2116 1406 1581 1522 
L 1381 1569 
Q 847 1681 609 1914 
Q 372 2147 372 2553 
Q 372 3047 722 3315 
Q 1072 3584 1716 3584 
Q 2034 3584 2315 3537 
Q 2597 3491 2834 3397 
z
" transform="scale(0.015625)"/>
      <path id="DejaVuSans-70" d="M 1159 525 
L 1159 -1331 
L 581 -1331 
L 581 3500 
L 1159 3500 
L 1159 2969 
Q 1341 3281 1617 3432 
Q 1894 3584 2278 3584 
Q 2916 3584 3314 3078 
Q 3713 2572 3713 1747 
Q 3713 922 3314 415 
Q 2916 -91 2278 -91 
Q 1894 -91 1617 61 
Q 1341 213 1159 525 
z
M 3116 1747 
Q 3116 2381 2855 2742 
Q 2594 3103 2138 3103 
Q 1681 3103 1420 2742 
Q 1159 2381 1159 1747 
Q 1159 1113 1420 752 
Q 1681 391 2138 391 
Q 2594 391 2855 752 
Q 3116 1113 3116 1747 
z
" transform="scale(0.015625)"/>
      <path id="DejaVuSans-72" d="M 2631 2963 
Q 2534 3019 2420 3045 
Q 2306 3072 2169 3072 
Q 1681 3072 1420 2755 
Q 1159 2438 1159 1844 
L 1159 0 
L 581 0 
L 581 3500 
L 1159 3500 
L 1159 2956 
Q 1341 3275 1631 3429 
Q 1922 3584 2338 3584 
Q 2397 3584 2469 3576 
Q 2541 3569 2628 3553 
L 2631 2963 
z
" transform="scale(0.015625)"/>
      <path id="DejaVuSans-6f" d="M 1959 3097 
Q 1497 3097 1228 2736 
Q 959 2375 959 1747 
Q 959 1119 1226 758 
Q 1494 397 1959 397 
Q 2419 397 2687 759 
Q 2956 1122 2956 1747 
Q 2956 2369 2687 2733 
Q 2419 3097 1959 3097 
z
M 1959 3584 
Q 2709 3584 3137 3096 
Q 3566 2609 3566 1747 
Q 3566 888 3137 398 
Q 2709 -91 1959 -91 
Q 1206 -91 779 398 
Q 353 888 353 1747 
Q 353 2609 779 3096 
Q 1206 3584 1959 3584 
z
" transform="scale(0.015625)"/>
      <path id="DejaVuSans-62" d="M 3116 1747 
Q 3116 2381 2855 2742 
Q 2594 3103 2138 3103 
Q 1681 3103 1420 2742 
Q 1159 2381 1159 1747 
Q 1159 1113 1420 752 
Q 1681 391 2138 391 
Q 2594 391 2855 752 
Q 3116 1113 3116 1747 
z
M 1159 2969 
Q 1341 3281 1617 3432 
Q 1894 3584 2278 3584 
Q 2916 3584 3314 3078 
Q 3713 2572 3713 1747 
Q 3713 922 3314 415 
Q 2916 -91 2278 -91 
Q 1894 -91 1617 61 
Q 1341 213 1159 525 
L 1159 0 
L 581 0 
L 581 4863 
L 1159 4863 
L 1159 2969 
z
" transform="scale(0.015625)"/>
      <path id="DejaVuSans-61" d="M 2194 1759 
Q 1497 1759 1228 1600 
Q 959 1441 959 1056 
Q 959 750 1161 570 
Q 1363 391 1709 391 
Q 2188 391 2477 730 
Q 2766 1069 2766 1631 
L 2766 1759 
L 2194 1759 
z
M 3341 1997 
L 3341 0 
L 2766 0 
L 2766 531 
Q 2569 213 2275 61 
Q 1981 -91 1556 -91 
Q 1019 -91 701 211 
Q 384 513 384 1019 
Q 384 1609 779 1909 
Q 1175 2209 1959 2209 
L 2766 2209 
L 2766 2266 
Q 2766 2663 2505 2880 
Q 2244 3097 1772 3097 
Q 1472 3097 1187 3025 
Q 903 2953 641 2809 
L 641 3341 
Q 956 3463 1253 3523 
Q 1550 3584 1831 3584 
Q 2591 3584 2966 3190 
Q 3341 2797 3341 1997 
z
" transform="scale(0.015625)"/>
      <path id="DejaVuSans-63" d="M 3122 3366 
L 3122 2828 
Q 2878 2963 2633 3030 
Q 2388 3097 2138 3097 
Q 1578 3097 1268 2742 
Q 959 2388 959 1747 
Q 959 1106 1268 751 
Q 1578 397 2138 397 
Q 2388 397 2633 464 
Q 2878 531 3122 666 
L 3122 134 
Q 2881 22 2623 -34 
Q 2366 -91 2075 -91 
Q 1284 -91 818 406 
Q 353 903 353 1747 
Q 353 2603 823 3093 
Q 1294 3584 2113 3584 
Q 2378 3584 2631 3529 
Q 2884 3475 3122 3366 
z
" transform="scale(0.015625)"/>
      <path id="DejaVuSans-67" d="M 2906 1791 
Q 2906 2416 2648 2759 
Q 2391 3103 1925 3103 
Q 1463 3103 1205 2759 
Q 947 2416 947 1791 
Q 947 1169 1205 825 
Q 1463 481 1925 481 
Q 2391 481 2648 825 
Q 2906 1169 2906 1791 
z
M 3481 434 
Q 3481 -459 3084 -895 
Q 2688 -1331 1869 -1331 
Q 1566 -1331 1297 -1286 
Q 1028 -1241 775 -1147 
L 775 -588 
Q 1028 -725 1275 -790 
Q 1522 -856 1778 -856 
Q 2344 -856 2625 -561 
Q 2906 -266 2906 331 
L 2906 616 
Q 2728 306 2450 153 
Q 2172 0 1784 0 
Q 1141 0 747 490 
Q 353 981 353 1791 
Q 353 2603 747 3093 
Q 1141 3584 1784 3584 
Q 2172 3584 2450 3431 
Q 2728 3278 2906 2969 
L 2906 3500 
L 3481 3500 
L 3481 434 
z
" transform="scale(0.015625)"/>
     </defs>
     <use xlink:href="#DejaVuSans-66"/>
     <use xlink:href="#DejaVuSans-69" x="35.205078"/>
     <use xlink:href="#DejaVuSans-78" x="62.988281"/>
     <use xlink:href="#DejaVuSans-65" x="119.042969"/>
     <use xlink:href="#DejaVuSans-64" x="180.566406"/>
     <use xlink:href="#DejaVuSans-5f" x="244.042969"/>
     <use xlink:href="#DejaVuSans-6a" x="294.042969"/>
     <use xlink:href="#DejaVuSans-65" x="321.826172"/>
     <use xlink:href="#DejaVuSans-65" x="383.349609"/>
     <use xlink:href="#DejaVuSans-76" x="444.873047"/>
     <use xlink:href="#DejaVuSans-65" x="504.052734"/>
     <use xlink:href="#DejaVuSans-73" x="565.576172"/>
     <use xlink:href="#DejaVuSans-70" x="617.675781"/>
     <use xlink:href="#DejaVuSans-72" x="681.152344"/>
     <use xlink:href="#DejaVuSans-6f" x="720.015625"/>
     <use xlink:href="#DejaVuSans-62" x="781.197266"/>
     <use xlink:href="#DejaVuSans-65" x="844.673828"/>
     <use xlink:href="#DejaVuSans-5f" x="906.197266"/>
     <use xlink:href="#DejaVuSans-32" x="956.197266"/>
     <use xlink:href="#DejaVuSans-61" x="1019.820312"/>
     <use xlink:href="#DejaVuSans-66" x="1081.099609"/>
     <use xlink:href="#DejaVuSans-63" x="1116.304688"/>
     <use xlink:href="#DejaVuSans-5f" x="1171.285156"/>
     <use xlink:href="#DejaVuSans-6f" x="1221.285156"/>
     <use xlink:href="#DejaVuSans-67" x="1282.466797"/>
    </g>
   </g>
   <g id="legend_1">
    <g id="patch_7">
     <path d="M 164.72125 271.48 
L 361.64 271.48 
Q 363.64 271.48 363.64 269.48 
L 363.64 135.87375 
Q 363.64 133.87375 361.64 133.87375 
L 164.72125 133.87375 
Q 162.72125 133.87375 162.72125 135.87375 
L 162.72125 269.48 
Q 162.72125 271.48 164.72125 271.48 
z
" style="fill: #ffffff; opacity: 0.8; stroke: #cccccc; stroke-linejoin: miter"/>
    </g>
    <g id="line2d_20">
     <path d="M 166.72125 141.972187 
L 176.72125 141.972187 
L 186.72125 141.972187 
" style="fill: none; stroke: #1f77b4; stroke-width: 1.5; stroke-linecap: square"/>
    </g>
    <g id="text_12">
     <!-- low_gauss_shape_to_color -->
     <g transform="translate(194.72125 145.472187) scale(0.1 -0.1)">
      <defs>
       <path id="DejaVuSans-6c" d="M 603 4863 
L 1178 4863 
L 1178 0 
L 603 0 
L 603 4863 
z
" transform="scale(0.015625)"/>
       <path id="DejaVuSans-77" d="M 269 3500 
L 844 3500 
L 1563 769 
L 2278 3500 
L 2956 3500 
L 3675 769 
L 4391 3500 
L 4966 3500 
L 4050 0 
L 3372 0 
L 2619 2869 
L 1863 0 
L 1184 0 
L 269 3500 
z
" transform="scale(0.015625)"/>
       <path id="DejaVuSans-75" d="M 544 1381 
L 544 3500 
L 1119 3500 
L 1119 1403 
Q 1119 906 1312 657 
Q 1506 409 1894 409 
Q 2359 409 2629 706 
Q 2900 1003 2900 1516 
L 2900 3500 
L 3475 3500 
L 3475 0 
L 2900 0 
L 2900 538 
Q 2691 219 2414 64 
Q 2138 -91 1772 -91 
Q 1169 -91 856 284 
Q 544 659 544 1381 
z
M 1991 3584 
L 1991 3584 
z
" transform="scale(0.015625)"/>
       <path id="DejaVuSans-68" d="M 3513 2113 
L 3513 0 
L 2938 0 
L 2938 2094 
Q 2938 2591 2744 2837 
Q 2550 3084 2163 3084 
Q 1697 3084 1428 2787 
Q 1159 2491 1159 1978 
L 1159 0 
L 581 0 
L 581 4863 
L 1159 4863 
L 1159 2956 
Q 1366 3272 1645 3428 
Q 1925 3584 2291 3584 
Q 2894 3584 3203 3211 
Q 3513 2838 3513 2113 
z
" transform="scale(0.015625)"/>
       <path id="DejaVuSans-74" d="M 1172 4494 
L 1172 3500 
L 2356 3500 
L 2356 3053 
L 1172 3053 
L 1172 1153 
Q 1172 725 1289 603 
Q 1406 481 1766 481 
L 2356 481 
L 2356 0 
L 1766 0 
Q 1100 0 847 248 
Q 594 497 594 1153 
L 594 3053 
L 172 3053 
L 172 3500 
L 594 3500 
L 594 4494 
L 1172 4494 
z
" transform="scale(0.015625)"/>
      </defs>
      <use xlink:href="#DejaVuSans-6c"/>
      <use xlink:href="#DejaVuSans-6f" x="27.783203"/>
      <use xlink:href="#DejaVuSans-77" x="88.964844"/>
      <use xlink:href="#DejaVuSans-5f" x="170.751953"/>
      <use xlink:href="#DejaVuSans-67" x="220.751953"/>
      <use xlink:href="#DejaVuSans-61" x="284.228516"/>
      <use xlink:href="#DejaVuSans-75" x="345.507812"/>
      <use xlink:href="#DejaVuSans-73" x="408.886719"/>
      <use xlink:href="#DejaVuSans-73" x="460.986328"/>
      <use xlink:href="#DejaVuSans-5f" x="513.085938"/>
      <use xlink:href="#DejaVuSans-73" x="563.085938"/>
      <use xlink:href="#DejaVuSans-68" x="615.185547"/>
      <use xlink:href="#DejaVuSans-61" x="678.564453"/>
      <use xlink:href="#DejaVuSans-70" x="739.84375"/>
      <use xlink:href="#DejaVuSans-65" x="803.320312"/>
      <use xlink:href="#DejaVuSans-5f" x="864.84375"/>
      <use xlink:href="#DejaVuSans-74" x="914.84375"/>
      <use xlink:href="#DejaVuSans-6f" x="954.052734"/>
      <use xlink:href="#DejaVuSans-5f" x="1015.234375"/>
      <use xlink:href="#DejaVuSans-63" x="1065.234375"/>
      <use xlink:href="#DejaVuSans-6f" x="1120.214844"/>
      <use xlink:href="#DejaVuSans-6c" x="1181.396484"/>
      <use xlink:href="#DejaVuSans-6f" x="1209.179688"/>
      <use xlink:href="#DejaVuSans-72" x="1270.361328"/>
     </g>
    </g>
    <g id="line2d_21">
     <path d="M 166.72125 156.928437 
L 176.72125 156.928437 
L 186.72125 156.928437 
" style="fill: none; stroke: #ff7f0e; stroke-width: 1.5; stroke-linecap: square"/>
    </g>
    <g id="text_13">
     <!-- focal_low_gauss_shape_to_color -->
     <g transform="translate(194.72125 160.428437) scale(0.1 -0.1)">
      <use xlink:href="#DejaVuSans-66"/>
      <use xlink:href="#DejaVuSans-6f" x="35.205078"/>
      <use xlink:href="#DejaVuSans-63" x="96.386719"/>
      <use xlink:href="#DejaVuSans-61" x="151.367188"/>
      <use xlink:href="#DejaVuSans-6c" x="212.646484"/>
      <use xlink:href="#DejaVuSans-5f" x="240.429688"/>
      <use xlink:href="#DejaVuSans-6c" x="290.429688"/>
      <use xlink:href="#DejaVuSans-6f" x="318.212891"/>
      <use xlink:href="#DejaVuSans-77" x="379.394531"/>
      <use xlink:href="#DejaVuSans-5f" x="461.181641"/>
      <use xlink:href="#DejaVuSans-67" x="511.181641"/>
      <use xlink:href="#DejaVuSans-61" x="574.658203"/>
      <use xlink:href="#DejaVuSans-75" x="635.9375"/>
      <use xlink:href="#DejaVuSans-73" x="699.316406"/>
      <use xlink:href="#DejaVuSans-73" x="751.416016"/>
      <use xlink:href="#DejaVuSans-5f" x="803.515625"/>
      <use xlink:href="#DejaVuSans-73" x="853.515625"/>
      <use xlink:href="#DejaVuSans-68" x="905.615234"/>
      <use xlink:href="#DejaVuSans-61" x="968.994141"/>
      <use xlink:href="#DejaVuSans-70" x="1030.273438"/>
      <use xlink:href="#DejaVuSans-65" x="1093.75"/>
      <use xlink:href="#DejaVuSans-5f" x="1155.273438"/>
      <use xlink:href="#DejaVuSans-74" x="1205.273438"/>
      <use xlink:href="#DejaVuSans-6f" x="1244.482422"/>
      <use xlink:href="#DejaVuSans-5f" x="1305.664062"/>
      <use xlink:href="#DejaVuSans-63" x="1355.664062"/>
      <use xlink:href="#DejaVuSans-6f" x="1410.644531"/>
      <use xlink:href="#DejaVuSans-6c" x="1471.826172"/>
      <use xlink:href="#DejaVuSans-6f" x="1499.609375"/>
      <use xlink:href="#DejaVuSans-72" x="1560.791016"/>
     </g>
    </g>
    <g id="line2d_22">
     <path d="M 166.72125 171.884687 
L 176.72125 171.884687 
L 186.72125 171.884687 
" style="fill: none; stroke: #2ca02c; stroke-width: 1.5; stroke-linecap: square"/>
    </g>
    <g id="text_14">
     <!-- high_gauss_shape_to_color -->
     <g transform="translate(194.72125 175.384687) scale(0.1 -0.1)">
      <use xlink:href="#DejaVuSans-68"/>
      <use xlink:href="#DejaVuSans-69" x="63.378906"/>
      <use xlink:href="#DejaVuSans-67" x="91.162109"/>
      <use xlink:href="#DejaVuSans-68" x="154.638672"/>
      <use xlink:href="#DejaVuSans-5f" x="218.017578"/>
      <use xlink:href="#DejaVuSans-67" x="268.017578"/>
      <use xlink:href="#DejaVuSans-61" x="331.494141"/>
      <use xlink:href="#DejaVuSans-75" x="392.773438"/>
      <use xlink:href="#DejaVuSans-73" x="456.152344"/>
      <use xlink:href="#DejaVuSans-73" x="508.251953"/>
      <use xlink:href="#DejaVuSans-5f" x="560.351562"/>
      <use xlink:href="#DejaVuSans-73" x="610.351562"/>
      <use xlink:href="#DejaVuSans-68" x="662.451172"/>
      <use xlink:href="#DejaVuSans-61" x="725.830078"/>
      <use xlink:href="#DejaVuSans-70" x="787.109375"/>
      <use xlink:href="#DejaVuSans-65" x="850.585938"/>
      <use xlink:href="#DejaVuSans-5f" x="912.109375"/>
      <use xlink:href="#DejaVuSans-74" x="962.109375"/>
      <use xlink:href="#DejaVuSans-6f" x="1001.318359"/>
      <use xlink:href="#DejaVuSans-5f" x="1062.5"/>
      <use xlink:href="#DejaVuSans-63" x="1112.5"/>
      <use xlink:href="#DejaVuSans-6f" x="1167.480469"/>
      <use xlink:href="#DejaVuSans-6c" x="1228.662109"/>
      <use xlink:href="#DejaVuSans-6f" x="1256.445312"/>
      <use xlink:href="#DejaVuSans-72" x="1317.626953"/>
     </g>
    </g>
    <g id="line2d_23">
     <path d="M 166.72125 186.840937 
L 176.72125 186.840937 
L 186.72125 186.840937 
" style="fill: none; stroke: #d62728; stroke-width: 1.5; stroke-linecap: square"/>
    </g>
    <g id="text_15">
     <!-- focal_high_gauss_shape_to_color -->
     <g transform="translate(194.72125 190.340937) scale(0.1 -0.1)">
      <use xlink:href="#DejaVuSans-66"/>
      <use xlink:href="#DejaVuSans-6f" x="35.205078"/>
      <use xlink:href="#DejaVuSans-63" x="96.386719"/>
      <use xlink:href="#DejaVuSans-61" x="151.367188"/>
      <use xlink:href="#DejaVuSans-6c" x="212.646484"/>
      <use xlink:href="#DejaVuSans-5f" x="240.429688"/>
      <use xlink:href="#DejaVuSans-68" x="290.429688"/>
      <use xlink:href="#DejaVuSans-69" x="353.808594"/>
      <use xlink:href="#DejaVuSans-67" x="381.591797"/>
      <use xlink:href="#DejaVuSans-68" x="445.068359"/>
      <use xlink:href="#DejaVuSans-5f" x="508.447266"/>
      <use xlink:href="#DejaVuSans-67" x="558.447266"/>
      <use xlink:href="#DejaVuSans-61" x="621.923828"/>
      <use xlink:href="#DejaVuSans-75" x="683.203125"/>
      <use xlink:href="#DejaVuSans-73" x="746.582031"/>
      <use xlink:href="#DejaVuSans-73" x="798.681641"/>
      <use xlink:href="#DejaVuSans-5f" x="850.78125"/>
      <use xlink:href="#DejaVuSans-73" x="900.78125"/>
      <use xlink:href="#DejaVuSans-68" x="952.880859"/>
      <use xlink:href="#DejaVuSans-61" x="1016.259766"/>
      <use xlink:href="#DejaVuSans-70" x="1077.539062"/>
      <use xlink:href="#DejaVuSans-65" x="1141.015625"/>
      <use xlink:href="#DejaVuSans-5f" x="1202.539062"/>
      <use xlink:href="#DejaVuSans-74" x="1252.539062"/>
      <use xlink:href="#DejaVuSans-6f" x="1291.748047"/>
      <use xlink:href="#DejaVuSans-5f" x="1352.929688"/>
      <use xlink:href="#DejaVuSans-63" x="1402.929688"/>
      <use xlink:href="#DejaVuSans-6f" x="1457.910156"/>
      <use xlink:href="#DejaVuSans-6c" x="1519.091797"/>
      <use xlink:href="#DejaVuSans-6f" x="1546.875"/>
      <use xlink:href="#DejaVuSans-72" x="1608.056641"/>
     </g>
    </g>
    <g id="line2d_24">
     <path d="M 166.72125 201.797188 
L 176.72125 201.797188 
L 186.72125 201.797188 
" style="fill: none; stroke: #9467bd; stroke-width: 1.5; stroke-linecap: square"/>
    </g>
    <g id="text_16">
     <!-- low_gauss_color_to_shape -->
     <g transform="translate(194.72125 205.297188) scale(0.1 -0.1)">
      <use xlink:href="#DejaVuSans-6c"/>
      <use xlink:href="#DejaVuSans-6f" x="27.783203"/>
      <use xlink:href="#DejaVuSans-77" x="88.964844"/>
      <use xlink:href="#DejaVuSans-5f" x="170.751953"/>
      <use xlink:href="#DejaVuSans-67" x="220.751953"/>
      <use xlink:href="#DejaVuSans-61" x="284.228516"/>
      <use xlink:href="#DejaVuSans-75" x="345.507812"/>
      <use xlink:href="#DejaVuSans-73" x="408.886719"/>
      <use xlink:href="#DejaVuSans-73" x="460.986328"/>
      <use xlink:href="#DejaVuSans-5f" x="513.085938"/>
      <use xlink:href="#DejaVuSans-63" x="563.085938"/>
      <use xlink:href="#DejaVuSans-6f" x="618.066406"/>
      <use xlink:href="#DejaVuSans-6c" x="679.248047"/>
      <use xlink:href="#DejaVuSans-6f" x="707.03125"/>
      <use xlink:href="#DejaVuSans-72" x="768.212891"/>
      <use xlink:href="#DejaVuSans-5f" x="809.326172"/>
      <use xlink:href="#DejaVuSans-74" x="859.326172"/>
      <use xlink:href="#DejaVuSans-6f" x="898.535156"/>
      <use xlink:href="#DejaVuSans-5f" x="959.716797"/>
      <use xlink:href="#DejaVuSans-73" x="1009.716797"/>
      <use xlink:href="#DejaVuSans-68" x="1061.816406"/>
      <use xlink:href="#DejaVuSans-61" x="1125.195312"/>
      <use xlink:href="#DejaVuSans-70" x="1186.474609"/>
      <use xlink:href="#DejaVuSans-65" x="1249.951172"/>
     </g>
    </g>
    <g id="line2d_25">
     <path d="M 166.72125 216.753437 
L 176.72125 216.753437 
L 186.72125 216.753437 
" style="fill: none; stroke: #8c564b; stroke-width: 1.5; stroke-linecap: square"/>
    </g>
    <g id="text_17">
     <!-- focal_low_gauss_color_to_shape -->
     <g transform="translate(194.72125 220.253437) scale(0.1 -0.1)">
      <use xlink:href="#DejaVuSans-66"/>
      <use xlink:href="#DejaVuSans-6f" x="35.205078"/>
      <use xlink:href="#DejaVuSans-63" x="96.386719"/>
      <use xlink:href="#DejaVuSans-61" x="151.367188"/>
      <use xlink:href="#DejaVuSans-6c" x="212.646484"/>
      <use xlink:href="#DejaVuSans-5f" x="240.429688"/>
      <use xlink:href="#DejaVuSans-6c" x="290.429688"/>
      <use xlink:href="#DejaVuSans-6f" x="318.212891"/>
      <use xlink:href="#DejaVuSans-77" x="379.394531"/>
      <use xlink:href="#DejaVuSans-5f" x="461.181641"/>
      <use xlink:href="#DejaVuSans-67" x="511.181641"/>
      <use xlink:href="#DejaVuSans-61" x="574.658203"/>
      <use xlink:href="#DejaVuSans-75" x="635.9375"/>
      <use xlink:href="#DejaVuSans-73" x="699.316406"/>
      <use xlink:href="#DejaVuSans-73" x="751.416016"/>
      <use xlink:href="#DejaVuSans-5f" x="803.515625"/>
      <use xlink:href="#DejaVuSans-63" x="853.515625"/>
      <use xlink:href="#DejaVuSans-6f" x="908.496094"/>
      <use xlink:href="#DejaVuSans-6c" x="969.677734"/>
      <use xlink:href="#DejaVuSans-6f" x="997.460938"/>
      <use xlink:href="#DejaVuSans-72" x="1058.642578"/>
      <use xlink:href="#DejaVuSans-5f" x="1099.755859"/>
      <use xlink:href="#DejaVuSans-74" x="1149.755859"/>
      <use xlink:href="#DejaVuSans-6f" x="1188.964844"/>
      <use xlink:href="#DejaVuSans-5f" x="1250.146484"/>
      <use xlink:href="#DejaVuSans-73" x="1300.146484"/>
      <use xlink:href="#DejaVuSans-68" x="1352.246094"/>
      <use xlink:href="#DejaVuSans-61" x="1415.625"/>
      <use xlink:href="#DejaVuSans-70" x="1476.904297"/>
      <use xlink:href="#DejaVuSans-65" x="1540.380859"/>
     </g>
    </g>
    <g id="line2d_26">
     <path d="M 166.72125 231.709687 
L 176.72125 231.709687 
L 186.72125 231.709687 
" style="fill: none; stroke: #e377c2; stroke-width: 1.5; stroke-linecap: square"/>
    </g>
    <g id="text_18">
     <!-- high_gauss_color_to_shape -->
     <g transform="translate(194.72125 235.209687) scale(0.1 -0.1)">
      <use xlink:href="#DejaVuSans-68"/>
      <use xlink:href="#DejaVuSans-69" x="63.378906"/>
      <use xlink:href="#DejaVuSans-67" x="91.162109"/>
      <use xlink:href="#DejaVuSans-68" x="154.638672"/>
      <use xlink:href="#DejaVuSans-5f" x="218.017578"/>
      <use xlink:href="#DejaVuSans-67" x="268.017578"/>
      <use xlink:href="#DejaVuSans-61" x="331.494141"/>
      <use xlink:href="#DejaVuSans-75" x="392.773438"/>
      <use xlink:href="#DejaVuSans-73" x="456.152344"/>
      <use xlink:href="#DejaVuSans-73" x="508.251953"/>
      <use xlink:href="#DejaVuSans-5f" x="560.351562"/>
      <use xlink:href="#DejaVuSans-63" x="610.351562"/>
      <use xlink:href="#DejaVuSans-6f" x="665.332031"/>
      <use xlink:href="#DejaVuSans-6c" x="726.513672"/>
      <use xlink:href="#DejaVuSans-6f" x="754.296875"/>
      <use xlink:href="#DejaVuSans-72" x="815.478516"/>
      <use xlink:href="#DejaVuSans-5f" x="856.591797"/>
      <use xlink:href="#DejaVuSans-74" x="906.591797"/>
      <use xlink:href="#DejaVuSans-6f" x="945.800781"/>
      <use xlink:href="#DejaVuSans-5f" x="1006.982422"/>
      <use xlink:href="#DejaVuSans-73" x="1056.982422"/>
      <use xlink:href="#DejaVuSans-68" x="1109.082031"/>
      <use xlink:href="#DejaVuSans-61" x="1172.460938"/>
      <use xlink:href="#DejaVuSans-70" x="1233.740234"/>
      <use xlink:href="#DejaVuSans-65" x="1297.216797"/>
     </g>
    </g>
    <g id="line2d_27">
     <path d="M 166.72125 246.665937 
L 176.72125 246.665937 
L 186.72125 246.665937 
" style="fill: none; stroke: #7f7f7f; stroke-width: 1.5; stroke-linecap: square"/>
    </g>
    <g id="text_19">
     <!-- focal_high_gauss_color_to_shape -->
     <g transform="translate(194.72125 250.165937) scale(0.1 -0.1)">
      <use xlink:href="#DejaVuSans-66"/>
      <use xlink:href="#DejaVuSans-6f" x="35.205078"/>
      <use xlink:href="#DejaVuSans-63" x="96.386719"/>
      <use xlink:href="#DejaVuSans-61" x="151.367188"/>
      <use xlink:href="#DejaVuSans-6c" x="212.646484"/>
      <use xlink:href="#DejaVuSans-5f" x="240.429688"/>
      <use xlink:href="#DejaVuSans-68" x="290.429688"/>
      <use xlink:href="#DejaVuSans-69" x="353.808594"/>
      <use xlink:href="#DejaVuSans-67" x="381.591797"/>
      <use xlink:href="#DejaVuSans-68" x="445.068359"/>
      <use xlink:href="#DejaVuSans-5f" x="508.447266"/>
      <use xlink:href="#DejaVuSans-67" x="558.447266"/>
      <use xlink:href="#DejaVuSans-61" x="621.923828"/>
      <use xlink:href="#DejaVuSans-75" x="683.203125"/>
      <use xlink:href="#DejaVuSans-73" x="746.582031"/>
      <use xlink:href="#DejaVuSans-73" x="798.681641"/>
      <use xlink:href="#DejaVuSans-5f" x="850.78125"/>
      <use xlink:href="#DejaVuSans-63" x="900.78125"/>
      <use xlink:href="#DejaVuSans-6f" x="955.761719"/>
      <use xlink:href="#DejaVuSans-6c" x="1016.943359"/>
      <use xlink:href="#DejaVuSans-6f" x="1044.726562"/>
      <use xlink:href="#DejaVuSans-72" x="1105.908203"/>
      <use xlink:href="#DejaVuSans-5f" x="1147.021484"/>
      <use xlink:href="#DejaVuSans-74" x="1197.021484"/>
      <use xlink:href="#DejaVuSans-6f" x="1236.230469"/>
      <use xlink:href="#DejaVuSans-5f" x="1297.412109"/>
      <use xlink:href="#DejaVuSans-73" x="1347.412109"/>
      <use xlink:href="#DejaVuSans-68" x="1399.511719"/>
      <use xlink:href="#DejaVuSans-61" x="1462.890625"/>
      <use xlink:href="#DejaVuSans-70" x="1524.169922"/>
      <use xlink:href="#DejaVuSans-65" x="1587.646484"/>
     </g>
    </g>
    <g id="line2d_28">
     <path d="M 166.72125 261.622187 
L 176.72125 261.622187 
L 186.72125 261.622187 
" style="fill: none; stroke: #bcbd22; stroke-width: 1.5; stroke-linecap: square"/>
    </g>
    <g id="text_20">
     <!-- achromatic_shape_to_shape -->
     <g transform="translate(194.72125 265.122187) scale(0.1 -0.1)">
      <defs>
       <path id="DejaVuSans-6d" d="M 3328 2828 
Q 3544 3216 3844 3400 
Q 4144 3584 4550 3584 
Q 5097 3584 5394 3201 
Q 5691 2819 5691 2113 
L 5691 0 
L 5113 0 
L 5113 2094 
Q 5113 2597 4934 2840 
Q 4756 3084 4391 3084 
Q 3944 3084 3684 2787 
Q 3425 2491 3425 1978 
L 3425 0 
L 2847 0 
L 2847 2094 
Q 2847 2600 2669 2842 
Q 2491 3084 2119 3084 
Q 1678 3084 1418 2786 
Q 1159 2488 1159 1978 
L 1159 0 
L 581 0 
L 581 3500 
L 1159 3500 
L 1159 2956 
Q 1356 3278 1631 3431 
Q 1906 3584 2284 3584 
Q 2666 3584 2933 3390 
Q 3200 3197 3328 2828 
z
" transform="scale(0.015625)"/>
      </defs>
      <use xlink:href="#DejaVuSans-61"/>
      <use xlink:href="#DejaVuSans-63" x="61.279297"/>
      <use xlink:href="#DejaVuSans-68" x="116.259766"/>
      <use xlink:href="#DejaVuSans-72" x="179.638672"/>
      <use xlink:href="#DejaVuSans-6f" x="218.501953"/>
      <use xlink:href="#DejaVuSans-6d" x="279.683594"/>
      <use xlink:href="#DejaVuSans-61" x="377.095703"/>
      <use xlink:href="#DejaVuSans-74" x="438.375"/>
      <use xlink:href="#DejaVuSans-69" x="477.583984"/>
      <use xlink:href="#DejaVuSans-63" x="505.367188"/>
      <use xlink:href="#DejaVuSans-5f" x="560.347656"/>
      <use xlink:href="#DejaVuSans-73" x="610.347656"/>
      <use xlink:href="#DejaVuSans-68" x="662.447266"/>
      <use xlink:href="#DejaVuSans-61" x="725.826172"/>
      <use xlink:href="#DejaVuSans-70" x="787.105469"/>
      <use xlink:href="#DejaVuSans-65" x="850.582031"/>
      <use xlink:href="#DejaVuSans-5f" x="912.105469"/>
      <use xlink:href="#DejaVuSans-74" x="962.105469"/>
      <use xlink:href="#DejaVuSans-6f" x="1001.314453"/>
      <use xlink:href="#DejaVuSans-5f" x="1062.496094"/>
      <use xlink:href="#DejaVuSans-73" x="1112.496094"/>
      <use xlink:href="#DejaVuSans-68" x="1164.595703"/>
      <use xlink:href="#DejaVuSans-61" x="1227.974609"/>
      <use xlink:href="#DejaVuSans-70" x="1289.253906"/>
      <use xlink:href="#DejaVuSans-65" x="1352.730469"/>
     </g>
    </g>
   </g>
  </g>
 </g>
 <defs>
  <clipPath id="p29f17e45a9">
   <rect x="92.16" y="69.12" width="276.48" height="207.36"/>
  </clipPath>
 </defs>
</svg>
