<?xml version="1.0" encoding="utf-8" standalone="no"?>
<!DOCTYPE svg PUBLIC "-//W3C//DTD SVG 1.1//EN"
  "http://www.w3.org/Graphics/SVG/1.1/DTD/svg11.dtd">
<svg xmlns:xlink="http://www.w3.org/1999/xlink" width="460.8pt" height="345.6pt" viewBox="0 0 460.8 345.6" xmlns="http://www.w3.org/2000/svg" version="1.1">
 <metadata>
  <rdf:RDF xmlns:dc="http://purl.org/dc/elements/1.1/" xmlns:cc="http://creativecommons.org/ns#" xmlns:rdf="http://www.w3.org/1999/02/22-rdf-syntax-ns#">
   <cc:Work>
    <dc:type rdf:resource="http://purl.org/dc/dcmitype/StillImage"/>
    <dc:date>2023-07-31T12:55:03.373454</dc:date>
    <dc:format>image/svg+xml</dc:format>
    <dc:creator>
     <cc:Agent>
      <dc:title>Matplotlib v3.7.1, https://matplotlib.org/</dc:title>
     </cc:Agent>
    </dc:creator>
   </cc:Work>
  </rdf:RDF>
 </metadata>
 <defs>
  <style type="text/css">*{stroke-linejoin: round; stroke-linecap: butt}</style>
 </defs>
 <g id="figure_1">
  <g id="patch_1">
   <path d="M 0 345.6 
L 460.8 345.6 
L 460.8 0 
L 0 0 
z
" style="fill: #ffffff"/>
  </g>
  <g id="axes_1">
   <g id="patch_2">
    <path d="M 92.16 276.48 
L 368.64 276.48 
L 368.64 69.12 
L 92.16 69.12 
z
" style="fill: #ffffff"/>
   </g>
   <g id="matplotlib.axis_1">
    <g id="xtick_1">
     <g id="line2d_1">
      <defs>
       <path id="m7da8aa2069" d="M 0 0 
L 0 3.5 
" style="stroke: #000000; stroke-width: 0.8"/>
      </defs>
      <g>
       <use xlink:href="#m7da8aa2069" x="104.727273" y="276.48" style="stroke: #000000; stroke-width: 0.8"/>
      </g>
     </g>
     <g id="text_1">
      <!-- 0 -->
      <g transform="translate(101.546023 291.078437) scale(0.1 -0.1)">
       <defs>
        <path id="DejaVuSans-30" d="M 2034 4250 
Q 1547 4250 1301 3770 
Q 1056 3291 1056 2328 
Q 1056 1369 1301 889 
Q 1547 409 2034 409 
Q 2525 409 2770 889 
Q 3016 1369 3016 2328 
Q 3016 3291 2770 3770 
Q 2525 4250 2034 4250 
z
M 2034 4750 
Q 2819 4750 3233 4129 
Q 3647 3509 3647 2328 
Q 3647 1150 3233 529 
Q 2819 -91 2034 -91 
Q 1250 -91 836 529 
Q 422 1150 422 2328 
Q 422 3509 836 4129 
Q 1250 4750 2034 4750 
z
" transform="scale(0.015625)"/>
       </defs>
       <use xlink:href="#DejaVuSans-30"/>
      </g>
     </g>
    </g>
    <g id="xtick_2">
     <g id="line2d_2">
      <g>
       <use xlink:href="#m7da8aa2069" x="136.664433" y="276.48" style="stroke: #000000; stroke-width: 0.8"/>
      </g>
     </g>
     <g id="text_2">
      <!-- 200 -->
      <g transform="translate(127.120683 291.078437) scale(0.1 -0.1)">
       <defs>
        <path id="DejaVuSans-32" d="M 1228 531 
L 3431 531 
L 3431 0 
L 469 0 
L 469 531 
Q 828 903 1448 1529 
Q 2069 2156 2228 2338 
Q 2531 2678 2651 2914 
Q 2772 3150 2772 3378 
Q 2772 3750 2511 3984 
Q 2250 4219 1831 4219 
Q 1534 4219 1204 4116 
Q 875 4013 500 3803 
L 500 4441 
Q 881 4594 1212 4672 
Q 1544 4750 1819 4750 
Q 2544 4750 2975 4387 
Q 3406 4025 3406 3419 
Q 3406 3131 3298 2873 
Q 3191 2616 2906 2266 
Q 2828 2175 2409 1742 
Q 1991 1309 1228 531 
z
" transform="scale(0.015625)"/>
       </defs>
       <use xlink:href="#DejaVuSans-32"/>
       <use xlink:href="#DejaVuSans-30" x="63.623047"/>
       <use xlink:href="#DejaVuSans-30" x="127.246094"/>
      </g>
     </g>
    </g>
    <g id="xtick_3">
     <g id="line2d_3">
      <g>
       <use xlink:href="#m7da8aa2069" x="168.601594" y="276.48" style="stroke: #000000; stroke-width: 0.8"/>
      </g>
     </g>
     <g id="text_3">
      <!-- 400 -->
      <g transform="translate(159.057844 291.078437) scale(0.1 -0.1)">
       <defs>
        <path id="DejaVuSans-34" d="M 2419 4116 
L 825 1625 
L 2419 1625 
L 2419 4116 
z
M 2253 4666 
L 3047 4666 
L 3047 1625 
L 3713 1625 
L 3713 1100 
L 3047 1100 
L 3047 0 
L 2419 0 
L 2419 1100 
L 313 1100 
L 313 1709 
L 2253 4666 
z
" transform="scale(0.015625)"/>
       </defs>
       <use xlink:href="#DejaVuSans-34"/>
       <use xlink:href="#DejaVuSans-30" x="63.623047"/>
       <use xlink:href="#DejaVuSans-30" x="127.246094"/>
      </g>
     </g>
    </g>
    <g id="xtick_4">
     <g id="line2d_4">
      <g>
       <use xlink:href="#m7da8aa2069" x="200.538755" y="276.48" style="stroke: #000000; stroke-width: 0.8"/>
      </g>
     </g>
     <g id="text_4">
      <!-- 600 -->
      <g transform="translate(190.995005 291.078437) scale(0.1 -0.1)">
       <defs>
        <path id="DejaVuSans-36" d="M 2113 2584 
Q 1688 2584 1439 2293 
Q 1191 2003 1191 1497 
Q 1191 994 1439 701 
Q 1688 409 2113 409 
Q 2538 409 2786 701 
Q 3034 994 3034 1497 
Q 3034 2003 2786 2293 
Q 2538 2584 2113 2584 
z
M 3366 4563 
L 3366 3988 
Q 3128 4100 2886 4159 
Q 2644 4219 2406 4219 
Q 1781 4219 1451 3797 
Q 1122 3375 1075 2522 
Q 1259 2794 1537 2939 
Q 1816 3084 2150 3084 
Q 2853 3084 3261 2657 
Q 3669 2231 3669 1497 
Q 3669 778 3244 343 
Q 2819 -91 2113 -91 
Q 1303 -91 875 529 
Q 447 1150 447 2328 
Q 447 3434 972 4092 
Q 1497 4750 2381 4750 
Q 2619 4750 2861 4703 
Q 3103 4656 3366 4563 
z
" transform="scale(0.015625)"/>
       </defs>
       <use xlink:href="#DejaVuSans-36"/>
       <use xlink:href="#DejaVuSans-30" x="63.623047"/>
       <use xlink:href="#DejaVuSans-30" x="127.246094"/>
      </g>
     </g>
    </g>
    <g id="xtick_5">
     <g id="line2d_5">
      <g>
       <use xlink:href="#m7da8aa2069" x="232.475915" y="276.48" style="stroke: #000000; stroke-width: 0.8"/>
      </g>
     </g>
     <g id="text_5">
      <!-- 800 -->
      <g transform="translate(222.932165 291.078437) scale(0.1 -0.1)">
       <defs>
        <path id="DejaVuSans-38" d="M 2034 2216 
Q 1584 2216 1326 1975 
Q 1069 1734 1069 1313 
Q 1069 891 1326 650 
Q 1584 409 2034 409 
Q 2484 409 2743 651 
Q 3003 894 3003 1313 
Q 3003 1734 2745 1975 
Q 2488 2216 2034 2216 
z
M 1403 2484 
Q 997 2584 770 2862 
Q 544 3141 544 3541 
Q 544 4100 942 4425 
Q 1341 4750 2034 4750 
Q 2731 4750 3128 4425 
Q 3525 4100 3525 3541 
Q 3525 3141 3298 2862 
Q 3072 2584 2669 2484 
Q 3125 2378 3379 2068 
Q 3634 1759 3634 1313 
Q 3634 634 3220 271 
Q 2806 -91 2034 -91 
Q 1263 -91 848 271 
Q 434 634 434 1313 
Q 434 1759 690 2068 
Q 947 2378 1403 2484 
z
M 1172 3481 
Q 1172 3119 1398 2916 
Q 1625 2713 2034 2713 
Q 2441 2713 2670 2916 
Q 2900 3119 2900 3481 
Q 2900 3844 2670 4047 
Q 2441 4250 2034 4250 
Q 1625 4250 1398 4047 
Q 1172 3844 1172 3481 
z
" transform="scale(0.015625)"/>
       </defs>
       <use xlink:href="#DejaVuSans-38"/>
       <use xlink:href="#DejaVuSans-30" x="63.623047"/>
       <use xlink:href="#DejaVuSans-30" x="127.246094"/>
      </g>
     </g>
    </g>
    <g id="xtick_6">
     <g id="line2d_6">
      <g>
       <use xlink:href="#m7da8aa2069" x="264.413076" y="276.48" style="stroke: #000000; stroke-width: 0.8"/>
      </g>
     </g>
     <g id="text_6">
      <!-- 1000 -->
      <g transform="translate(251.688076 291.078437) scale(0.1 -0.1)">
       <defs>
        <path id="DejaVuSans-31" d="M 794 531 
L 1825 531 
L 1825 4091 
L 703 3866 
L 703 4441 
L 1819 4666 
L 2450 4666 
L 2450 531 
L 3481 531 
L 3481 0 
L 794 0 
L 794 531 
z
" transform="scale(0.015625)"/>
       </defs>
       <use xlink:href="#DejaVuSans-31"/>
       <use xlink:href="#DejaVuSans-30" x="63.623047"/>
       <use xlink:href="#DejaVuSans-30" x="127.246094"/>
       <use xlink:href="#DejaVuSans-30" x="190.869141"/>
      </g>
     </g>
    </g>
    <g id="xtick_7">
     <g id="line2d_7">
      <g>
       <use xlink:href="#m7da8aa2069" x="296.350237" y="276.48" style="stroke: #000000; stroke-width: 0.8"/>
      </g>
     </g>
     <g id="text_7">
      <!-- 1200 -->
      <g transform="translate(283.625237 291.078437) scale(0.1 -0.1)">
       <use xlink:href="#DejaVuSans-31"/>
       <use xlink:href="#DejaVuSans-32" x="63.623047"/>
       <use xlink:href="#DejaVuSans-30" x="127.246094"/>
       <use xlink:href="#DejaVuSans-30" x="190.869141"/>
      </g>
     </g>
    </g>
    <g id="xtick_8">
     <g id="line2d_8">
      <g>
       <use xlink:href="#m7da8aa2069" x="328.287397" y="276.48" style="stroke: #000000; stroke-width: 0.8"/>
      </g>
     </g>
     <g id="text_8">
      <!-- 1400 -->
      <g transform="translate(315.562397 291.078437) scale(0.1 -0.1)">
       <use xlink:href="#DejaVuSans-31"/>
       <use xlink:href="#DejaVuSans-34" x="63.623047"/>
       <use xlink:href="#DejaVuSans-30" x="127.246094"/>
       <use xlink:href="#DejaVuSans-30" x="190.869141"/>
      </g>
     </g>
    </g>
    <g id="xtick_9">
     <g id="line2d_9">
      <g>
       <use xlink:href="#m7da8aa2069" x="360.224558" y="276.48" style="stroke: #000000; stroke-width: 0.8"/>
      </g>
     </g>
     <g id="text_9">
      <!-- 1600 -->
      <g transform="translate(347.499558 291.078437) scale(0.1 -0.1)">
       <use xlink:href="#DejaVuSans-31"/>
       <use xlink:href="#DejaVuSans-36" x="63.623047"/>
       <use xlink:href="#DejaVuSans-30" x="127.246094"/>
       <use xlink:href="#DejaVuSans-30" x="190.869141"/>
      </g>
     </g>
    </g>
   </g>
   <g id="matplotlib.axis_2">
    <g id="ytick_1">
     <g id="line2d_10">
      <defs>
       <path id="mfca30b938f" d="M 0 0 
L -3.5 0 
" style="stroke: #000000; stroke-width: 0.8"/>
      </defs>
      <g>
       <use xlink:href="#mfca30b938f" x="92.16" y="262.456763" style="stroke: #000000; stroke-width: 0.8"/>
      </g>
     </g>
     <g id="text_10">
      <!-- 0.6 -->
      <g transform="translate(69.256875 266.255981) scale(0.1 -0.1)">
       <defs>
        <path id="DejaVuSans-2e" d="M 684 794 
L 1344 794 
L 1344 0 
L 684 0 
L 684 794 
z
" transform="scale(0.015625)"/>
       </defs>
       <use xlink:href="#DejaVuSans-30"/>
       <use xlink:href="#DejaVuSans-2e" x="63.623047"/>
       <use xlink:href="#DejaVuSans-36" x="95.410156"/>
      </g>
     </g>
    </g>
    <g id="ytick_2">
     <g id="line2d_11">
      <g>
       <use xlink:href="#mfca30b938f" x="92.16" y="216.478936" style="stroke: #000000; stroke-width: 0.8"/>
      </g>
     </g>
     <g id="text_11">
      <!-- 0.7 -->
      <g transform="translate(69.256875 220.278154) scale(0.1 -0.1)">
       <defs>
        <path id="DejaVuSans-37" d="M 525 4666 
L 3525 4666 
L 3525 4397 
L 1831 0 
L 1172 0 
L 2766 4134 
L 525 4134 
L 525 4666 
z
" transform="scale(0.015625)"/>
       </defs>
       <use xlink:href="#DejaVuSans-30"/>
       <use xlink:href="#DejaVuSans-2e" x="63.623047"/>
       <use xlink:href="#DejaVuSans-37" x="95.410156"/>
      </g>
     </g>
    </g>
    <g id="ytick_3">
     <g id="line2d_12">
      <g>
       <use xlink:href="#mfca30b938f" x="92.16" y="170.501109" style="stroke: #000000; stroke-width: 0.8"/>
      </g>
     </g>
     <g id="text_12">
      <!-- 0.8 -->
      <g transform="translate(69.256875 174.300327) scale(0.1 -0.1)">
       <use xlink:href="#DejaVuSans-30"/>
       <use xlink:href="#DejaVuSans-2e" x="63.623047"/>
       <use xlink:href="#DejaVuSans-38" x="95.410156"/>
      </g>
     </g>
    </g>
    <g id="ytick_4">
     <g id="line2d_13">
      <g>
       <use xlink:href="#mfca30b938f" x="92.16" y="124.523282" style="stroke: #000000; stroke-width: 0.8"/>
      </g>
     </g>
     <g id="text_13">
      <!-- 0.9 -->
      <g transform="translate(69.256875 128.3225) scale(0.1 -0.1)">
       <defs>
        <path id="DejaVuSans-39" d="M 703 97 
L 703 672 
Q 941 559 1184 500 
Q 1428 441 1663 441 
Q 2288 441 2617 861 
Q 2947 1281 2994 2138 
Q 2813 1869 2534 1725 
Q 2256 1581 1919 1581 
Q 1219 1581 811 2004 
Q 403 2428 403 3163 
Q 403 3881 828 4315 
Q 1253 4750 1959 4750 
Q 2769 4750 3195 4129 
Q 3622 3509 3622 2328 
Q 3622 1225 3098 567 
Q 2575 -91 1691 -91 
Q 1453 -91 1209 -44 
Q 966 3 703 97 
z
M 1959 2075 
Q 2384 2075 2632 2365 
Q 2881 2656 2881 3163 
Q 2881 3666 2632 3958 
Q 2384 4250 1959 4250 
Q 1534 4250 1286 3958 
Q 1038 3666 1038 3163 
Q 1038 2656 1286 2365 
Q 1534 2075 1959 2075 
z
" transform="scale(0.015625)"/>
       </defs>
       <use xlink:href="#DejaVuSans-30"/>
       <use xlink:href="#DejaVuSans-2e" x="63.623047"/>
       <use xlink:href="#DejaVuSans-39" x="95.410156"/>
      </g>
     </g>
    </g>
    <g id="ytick_5">
     <g id="line2d_14">
      <g>
       <use xlink:href="#mfca30b938f" x="92.16" y="78.545455" style="stroke: #000000; stroke-width: 0.8"/>
      </g>
     </g>
     <g id="text_14">
      <!-- 1.0 -->
      <g transform="translate(69.256875 82.344673) scale(0.1 -0.1)">
       <use xlink:href="#DejaVuSans-31"/>
       <use xlink:href="#DejaVuSans-2e" x="63.623047"/>
       <use xlink:href="#DejaVuSans-30" x="95.410156"/>
      </g>
     </g>
    </g>
   </g>
   <g id="line2d_15">
    <path d="M 104.727273 124.523282 
L 104.886959 126.822173 
L 105.525702 126.822173 
L 105.685388 129.121064 
L 105.845073 129.121064 
L 106.164445 133.718847 
L 106.324131 131.419956 
L 106.643502 131.419956 
L 106.803188 129.121064 
L 106.962874 129.121064 
L 107.12256 131.419956 
L 108.879104 131.419956 
L 109.038789 129.121064 
L 109.198475 129.121064 
L 109.358161 126.822173 
L 111.434076 126.822173 
L 111.593762 129.121064 
L 111.753448 126.822173 
L 115.905279 126.822173 
L 116.064965 124.523282 
L 116.544022 124.523282 
L 116.703708 122.22439 
L 118.779623 122.22439 
L 118.939309 124.523282 
L 119.578052 124.523282 
L 119.737738 122.22439 
L 121.17491 122.22439 
L 121.334596 124.523282 
L 121.494282 124.523282 
L 121.653968 126.822173 
L 121.813654 124.523282 
L 123.250826 124.523282 
L 123.410512 126.822173 
L 123.570198 126.822173 
L 123.729883 129.121064 
L 124.687998 129.121064 
L 124.847684 126.822173 
L 125.326741 126.822173 
L 125.486427 124.523282 
L 127.083285 124.523282 
L 127.242971 126.822173 
L 128.999515 126.822173 
L 129.159201 124.523282 
L 129.638258 124.523282 
L 129.797944 122.22439 
L 130.117315 122.22439 
L 130.277001 119.925499 
L 130.915744 119.925499 
L 131.235116 124.523282 
L 131.554488 124.523282 
L 131.714174 126.822173 
L 132.033545 126.822173 
L 132.193231 124.523282 
L 132.352917 124.523282 
L 132.512603 122.22439 
L 134.588518 122.22439 
L 134.748204 119.925499 
L 135.067575 119.925499 
L 135.227261 117.626608 
L 136.664433 117.626608 
L 136.824119 115.327716 
L 137.462862 115.327716 
L 137.622548 113.028825 
L 137.782234 113.028825 
L 138.101606 108.431042 
L 138.900035 108.431042 
L 139.05972 106.132151 
L 141.455008 106.132151 
L 141.614693 108.431042 
L 142.413122 108.431042 
L 142.572808 110.729933 
L 142.89218 110.729933 
L 143.051866 113.028825 
L 143.211551 110.729933 
L 143.371237 110.729933 
L 143.530923 108.431042 
L 144.169666 108.431042 
L 144.329352 106.132151 
L 147.044011 106.132151 
L 147.203696 108.431042 
L 150.716784 108.431042 
L 150.87647 106.132151 
L 153.112071 106.132151 
L 153.271757 103.833259 
L 153.431443 103.833259 
L 153.591129 101.534368 
L 155.187987 101.534368 
L 155.347672 99.235477 
L 155.507358 99.235477 
L 155.667044 96.936585 
L 158.86076 96.936585 
L 159.020446 99.235477 
L 159.180132 96.936585 
L 162.533534 96.936585 
L 162.693219 99.235477 
L 162.852905 99.235477 
L 163.172277 94.637694 
L 163.491648 94.637694 
L 163.651334 92.338803 
L 168.282222 92.338803 
L 168.441908 94.637694 
L 170.837195 94.637694 
L 171.156567 99.235477 
L 173.392168 99.235477 
L 173.551854 96.936585 
L 174.350283 96.936585 
L 174.509969 94.637694 
L 174.82934 94.637694 
L 174.989026 92.338803 
L 177.224627 92.338803 
L 177.384313 94.637694 
L 178.182742 94.637694 
L 178.342428 96.936585 
L 178.981171 96.936585 
L 179.140857 94.637694 
L 180.418344 94.637694 
L 180.578029 96.936585 
L 190.159178 96.936585 
L 190.318863 99.235477 
L 190.797921 99.235477 
L 190.957607 96.936585 
L 194.470694 96.936585 
L 194.63038 94.637694 
L 200.219383 94.637694 
L 200.379069 92.338803 
L 201.816241 92.338803 
L 201.975927 94.637694 
L 202.934042 94.637694 
L 203.093728 92.338803 
L 204.850271 92.338803 
L 205.009957 94.637694 
L 209.161788 94.637694 
L 209.321474 92.338803 
L 210.119903 92.338803 
L 210.279589 90.039911 
L 210.59896 90.039911 
L 210.758646 92.338803 
L 211.876447 92.338803 
L 212.036133 94.637694 
L 212.355504 94.637694 
L 212.51519 92.338803 
L 214.112048 92.338803 
L 214.271734 94.637694 
L 216.667021 94.637694 
L 216.986393 99.235477 
L 225.44974 99.235477 
L 225.609426 101.534368 
L 228.803142 101.534368 
L 228.962828 103.833259 
L 233.753402 103.833259 
L 233.913088 101.534368 
L 234.711517 101.534368 
L 234.871202 99.235477 
L 235.669632 99.235477 
L 235.829317 101.534368 
L 236.787432 101.534368 
L 236.947118 99.235477 
L 238.703662 99.235477 
L 238.863348 101.534368 
L 242.536121 101.534368 
L 242.695807 99.235477 
L 245.25078 99.235477 
L 245.410466 101.534368 
L 245.889523 101.534368 
L 246.049209 103.833259 
L 246.208895 101.534368 
L 248.604182 101.534368 
L 248.923553 96.936585 
L 253.075384 96.936585 
L 253.23507 99.235477 
L 254.033499 99.235477 
L 254.193185 96.936585 
L 254.512556 96.936585 
L 254.672242 99.235477 
L 256.2691 99.235477 
L 256.588472 103.833259 
L 256.748158 103.833259 
L 256.907843 106.132151 
L 257.386901 106.132151 
L 257.546587 103.833259 
L 258.824073 103.833259 
L 258.983759 106.132151 
L 259.622502 106.132151 
L 259.782188 108.431042 
L 260.580617 108.431042 
L 260.740303 110.729933 
L 260.899988 108.431042 
L 262.017789 108.431042 
L 262.177475 110.729933 
L 262.496846 110.729933 
L 262.656532 113.028825 
L 263.614647 113.028825 
L 263.774333 115.327716 
L 266.808363 115.327716 
L 266.968049 117.626608 
L 267.606792 117.626608 
L 267.766478 115.327716 
L 269.682708 115.327716 
L 269.842393 117.626608 
L 270.640822 117.626608 
L 270.800508 115.327716 
L 275.750768 115.327716 
L 275.910454 113.028825 
L 277.18794 113.028825 
L 277.347626 110.729933 
L 277.826684 110.729933 
L 277.986369 108.431042 
L 278.625113 108.431042 
L 278.784798 110.729933 
L 280.860714 110.729933 
L 281.0204 113.028825 
L 283.575373 113.028825 
L 283.735058 115.327716 
L 285.012545 115.327716 
L 285.172231 113.028825 
L 285.810974 113.028825 
L 285.97066 115.327716 
L 286.449717 115.327716 
L 286.609403 113.028825 
L 288.206261 113.028825 
L 288.525632 108.431042 
L 288.685318 108.431042 
L 288.845004 106.132151 
L 290.761234 106.132151 
L 290.920919 103.833259 
L 291.559663 103.833259 
L 291.719349 101.534368 
L 292.517778 101.534368 
L 292.677463 99.235477 
L 293.95495 99.235477 
L 294.114636 96.936585 
L 294.434007 96.936585 
L 294.593693 94.637694 
L 294.753379 94.637694 
L 294.913065 96.936585 
L 295.551808 96.936585 
L 295.711494 94.637694 
L 297.627723 94.637694 
L 297.787409 96.936585 
L 298.106781 96.936585 
L 298.106781 96.936585 
" clip-path="url(#ped30396b84)" style="fill: none; stroke: #1f77b4; stroke-width: 1.5; stroke-linecap: square"/>
   </g>
   <g id="line2d_16">
    <path d="M 104.727273 78.545455 
L 302.418297 78.545455 
L 302.418297 78.545455 
" clip-path="url(#ped30396b84)" style="fill: none; stroke: #ff7f0e; stroke-width: 1.5; stroke-linecap: square"/>
   </g>
   <g id="line2d_17">
    <path d="M 104.727273 129.121064 
L 104.886959 126.822173 
L 105.046644 126.822173 
L 105.20633 129.121064 
L 105.525702 129.121064 
L 105.685388 126.822173 
L 106.164445 126.822173 
L 106.643502 133.718847 
L 107.12256 133.718847 
L 107.282246 136.017738 
L 109.038789 136.017738 
L 109.198475 138.31663 
L 109.837218 138.31663 
L 110.15659 142.914412 
L 110.635647 142.914412 
L 110.795333 145.213304 
L 112.07282 145.213304 
L 112.232505 147.512195 
L 112.392191 147.512195 
L 112.551877 149.811086 
L 113.350306 149.811086 
L 113.509992 152.109978 
L 113.669678 149.811086 
L 113.829364 149.811086 
L 113.989049 152.109978 
L 114.787478 152.109978 
L 114.947164 149.811086 
L 115.585907 149.811086 
L 115.745593 147.512195 
L 116.224651 147.512195 
L 116.384336 145.213304 
L 117.02308 145.213304 
L 117.182765 147.512195 
L 117.502137 147.512195 
L 117.661823 149.811086 
L 117.821509 149.811086 
L 117.981194 152.109978 
L 118.14088 149.811086 
L 118.939309 149.811086 
L 119.258681 154.408869 
L 119.418367 154.408869 
L 119.578052 156.707761 
L 120.05711 156.707761 
L 120.216796 154.408869 
L 120.695853 154.408869 
L 120.855539 156.707761 
L 121.17491 156.707761 
L 121.334596 154.408869 
L 121.494282 156.707761 
L 121.813654 156.707761 
L 121.973339 159.006652 
L 122.931454 159.006652 
L 123.09114 161.305543 
L 123.250826 161.305543 
L 123.410512 159.006652 
L 124.847684 159.006652 
L 125.00737 161.305543 
L 125.167056 159.006652 
L 125.486427 159.006652 
L 125.646113 161.305543 
L 125.805799 159.006652 
L 126.444542 159.006652 
L 126.604228 156.707761 
L 126.763914 156.707761 
L 126.923599 159.006652 
L 127.722028 159.006652 
L 127.881714 156.707761 
L 132.193231 156.707761 
L 132.352917 159.006652 
L 133.470717 159.006652 
L 133.790089 154.408869 
L 133.949775 154.408869 
L 134.109461 152.109978 
L 134.269146 152.109978 
L 134.428832 154.408869 
L 135.706319 154.408869 
L 135.866004 152.109978 
L 136.02569 152.109978 
L 136.185376 154.408869 
L 136.504748 154.408869 
L 136.664433 152.109978 
L 136.983805 152.109978 
L 137.143491 149.811086 
L 138.101606 149.811086 
L 138.580663 142.914412 
L 139.05972 142.914412 
L 139.379092 138.31663 
L 139.538778 138.31663 
L 139.858149 133.718847 
L 140.97595 133.718847 
L 141.135636 131.419956 
L 141.774379 131.419956 
L 142.093751 126.822173 
L 142.572808 126.822173 
L 142.732494 124.523282 
L 144.00998 124.523282 
L 144.169666 122.22439 
L 144.329352 122.22439 
L 144.489038 119.925499 
L 145.287467 119.925499 
L 145.447153 117.626608 
L 145.766524 117.626608 
L 145.92621 115.327716 
L 148.96024 115.327716 
L 149.119926 113.028825 
L 149.439298 113.028825 
L 149.598983 110.729933 
L 149.758669 110.729933 
L 149.918355 108.431042 
L 150.87647 108.431042 
L 151.195842 103.833259 
L 151.355527 103.833259 
L 151.515213 101.534368 
L 152.633014 101.534368 
L 152.7927 99.235477 
L 153.271757 99.235477 
L 153.431443 96.936585 
L 153.750814 96.936585 
L 153.9105 94.637694 
L 154.549243 94.637694 
L 154.708929 96.936585 
L 154.868615 96.936585 
L 155.028301 94.637694 
L 156.784845 94.637694 
L 156.94453 92.338803 
L 157.423588 92.338803 
L 157.583274 90.039911 
L 158.541388 90.039911 
L 158.701074 92.338803 
L 158.86076 90.039911 
L 160.77699 90.039911 
L 160.936676 92.338803 
L 161.89479 92.338803 
L 162.054476 94.637694 
L 163.651334 94.637694 
L 163.81102 96.936585 
L 163.970706 96.936585 
L 164.130392 99.235477 
L 164.290077 96.936585 
L 164.449763 96.936585 
L 164.609449 99.235477 
L 166.365993 99.235477 
L 166.525679 101.534368 
L 167.004736 101.534368 
L 167.164422 103.833259 
L 167.962851 103.833259 
L 168.122537 101.534368 
L 168.441908 101.534368 
L 168.601594 103.833259 
L 169.080651 103.833259 
L 169.240337 106.132151 
L 169.559709 106.132151 
L 169.719395 108.431042 
L 170.837195 108.431042 
L 170.996881 110.729933 
L 171.635624 110.729933 
L 171.79531 113.028825 
L 177.543999 113.028825 
L 177.703685 115.327716 
L 178.6618 115.327716 
L 178.821486 117.626608 
L 180.098972 117.626608 
L 180.258658 119.925499 
L 184.72986 119.925499 
L 184.889546 122.22439 
L 186.486404 122.22439 
L 186.64609 119.925499 
L 187.604205 119.925499 
L 187.76389 122.22439 
L 190.478549 122.22439 
L 190.638235 119.925499 
L 192.873836 119.925499 
L 193.033522 122.22439 
L 193.352894 122.22439 
L 193.512579 124.523282 
L 193.831951 124.523282 
L 193.991637 122.22439 
L 195.588495 122.22439 
L 195.748181 119.925499 
L 195.907866 119.925499 
L 196.067552 117.626608 
L 196.386924 117.626608 
L 196.54661 115.327716 
L 198.143468 115.327716 
L 198.462839 110.729933 
L 198.941897 110.729933 
L 199.101583 108.431042 
L 200.379069 108.431042 
L 200.538755 106.132151 
L 200.698441 106.132151 
L 200.858126 108.431042 
L 201.017812 108.431042 
L 201.177498 106.132151 
L 201.49687 106.132151 
L 201.656555 103.833259 
L 201.816241 106.132151 
L 202.774356 106.132151 
L 202.934042 103.833259 
L 203.572785 103.833259 
L 203.732471 101.534368 
L 205.329329 101.534368 
L 205.489015 103.833259 
L 207.724616 103.833259 
L 207.884302 106.132151 
L 209.002102 106.132151 
L 209.161788 108.431042 
L 209.48116 108.431042 
L 209.640846 106.132151 
L 210.59896 106.132151 
L 210.758646 103.833259 
L 212.036133 103.833259 
L 212.195818 101.534368 
L 212.51519 101.534368 
L 212.674876 103.833259 
L 215.070163 103.833259 
L 215.229849 106.132151 
L 216.667021 106.132151 
L 216.826707 103.833259 
L 224.331939 103.833259 
L 224.491625 106.132151 
L 224.651311 106.132151 
L 224.970683 101.534368 
L 225.290054 101.534368 
L 225.44974 99.235477 
L 231.837172 99.235477 
L 231.996858 101.534368 
L 232.635601 101.534368 
L 232.795287 99.235477 
L 233.593716 99.235477 
L 233.753402 96.936585 
L 234.392145 96.936585 
L 234.551831 99.235477 
L 237.26649 99.235477 
L 237.426175 96.936585 
L 239.342405 96.936585 
L 239.502091 99.235477 
L 239.661777 99.235477 
L 239.821462 96.936585 
L 240.939263 96.936585 
L 241.098949 94.637694 
L 241.258635 94.637694 
L 241.41832 96.936585 
L 244.452351 96.936585 
L 244.612037 94.637694 
L 247.007324 94.637694 
L 247.167009 92.338803 
L 247.965438 92.338803 
L 248.125124 94.637694 
L 248.28481 94.637694 
L 248.604182 99.235477 
L 248.763867 99.235477 
L 248.923553 101.534368 
L 251.478526 101.534368 
L 251.638212 99.235477 
L 252.596327 99.235477 
L 252.756012 101.534368 
L 255.1513 101.534368 
L 255.310985 103.833259 
L 255.949729 103.833259 
L 256.109414 106.132151 
L 256.2691 106.132151 
L 256.428786 103.833259 
L 263.774333 103.833259 
L 263.934019 101.534368 
L 264.093705 101.534368 
L 264.25339 103.833259 
L 266.329306 103.833259 
L 266.488992 101.534368 
L 267.127735 101.534368 
L 267.447106 106.132151 
L 269.043964 106.132151 
L 269.20365 108.431042 
L 270.161765 108.431042 
L 270.321451 110.729933 
L 270.640822 110.729933 
L 270.800508 113.028825 
L 271.279566 113.028825 
L 271.439251 110.729933 
L 273.195795 110.729933 
L 273.355481 108.431042 
L 275.431397 108.431042 
L 275.591082 110.729933 
L 276.868569 110.729933 
L 277.028255 113.028825 
L 279.902599 113.028825 
L 280.062285 110.729933 
L 280.221971 110.729933 
L 280.541342 106.132151 
L 280.701028 106.132151 
L 280.860714 103.833259 
L 284.533487 103.833259 
L 284.693173 101.534368 
L 284.852859 103.833259 
L 286.130345 103.833259 
L 286.290031 106.132151 
L 287.08846 106.132151 
L 287.248146 103.833259 
L 287.886889 103.833259 
L 288.046575 101.534368 
L 290.920919 101.534368 
L 291.080605 103.833259 
L 291.399977 103.833259 
L 291.559663 106.132151 
L 292.517778 106.132151 
L 292.677463 108.431042 
L 294.274321 108.431042 
L 294.593693 113.028825 
L 296.030865 113.028825 
L 296.190551 110.729933 
L 296.669608 110.729933 
L 296.669608 110.729933 
" clip-path="url(#ped30396b84)" style="fill: none; stroke: #2ca02c; stroke-width: 1.5; stroke-linecap: square"/>
   </g>
   <g id="line2d_18">
    <path d="M 104.727273 78.545455 
L 292.517778 78.545455 
L 292.517778 78.545455 
" clip-path="url(#ped30396b84)" style="fill: none; stroke: #d62728; stroke-width: 1.5; stroke-linecap: square"/>
   </g>
   <g id="line2d_19">
    <path d="M 104.727273 119.925499 
L 104.886959 119.925499 
L 105.046644 117.626608 
L 106.962874 117.626608 
L 107.12256 115.327716 
L 107.282246 115.327716 
L 107.441931 113.028825 
L 107.761303 113.028825 
L 107.920989 115.327716 
L 109.358161 115.327716 
L 109.677533 119.925499 
L 111.753448 119.925499 
L 111.913134 117.626608 
L 112.392191 117.626608 
L 112.551877 115.327716 
L 113.829364 115.327716 
L 113.989049 117.626608 
L 114.148735 117.626608 
L 114.308421 119.925499 
L 114.787478 119.925499 
L 114.947164 117.626608 
L 115.905279 117.626608 
L 116.064965 119.925499 
L 116.224651 117.626608 
L 117.661823 117.626608 
L 117.821509 115.327716 
L 118.619938 115.327716 
L 118.779623 117.626608 
L 119.418367 117.626608 
L 119.578052 115.327716 
L 121.813654 115.327716 
L 121.973339 113.028825 
L 122.452397 113.028825 
L 122.612083 115.327716 
L 122.771769 115.327716 
L 122.931454 117.626608 
L 123.250826 117.626608 
L 123.410512 119.925499 
L 123.570198 119.925499 
L 123.729883 117.626608 
L 125.167056 117.626608 
L 125.326741 115.327716 
L 125.646113 115.327716 
L 125.805799 117.626608 
L 126.444542 117.626608 
L 126.604228 115.327716 
L 128.201086 115.327716 
L 128.360772 117.626608 
L 128.839829 117.626608 
L 128.999515 115.327716 
L 129.478572 115.327716 
L 129.638258 113.028825 
L 133.151346 113.028825 
L 133.311032 115.327716 
L 133.790089 115.327716 
L 133.949775 117.626608 
L 134.109461 115.327716 
L 134.269146 115.327716 
L 134.428832 113.028825 
L 136.345062 113.028825 
L 136.504748 110.729933 
L 136.983805 110.729933 
L 137.143491 113.028825 
L 139.698464 113.028825 
L 139.858149 110.729933 
L 140.496893 110.729933 
L 140.656578 113.028825 
L 141.135636 113.028825 
L 141.295322 115.327716 
L 141.614693 110.729933 
L 143.371237 110.729933 
L 143.690609 115.327716 
L 145.766524 115.327716 
L 145.92621 113.028825 
L 146.085896 113.028825 
L 146.245582 110.729933 
L 147.84244 110.729933 
L 148.002125 108.431042 
L 150.557098 108.431042 
L 150.716784 106.132151 
L 153.591129 106.132151 
L 153.750814 108.431042 
L 154.389558 108.431042 
L 154.549243 106.132151 
L 154.708929 106.132151 
L 154.868615 103.833259 
L 155.028301 106.132151 
L 155.187987 106.132151 
L 155.347672 103.833259 
L 155.507358 103.833259 
L 155.667044 106.132151 
L 156.625159 106.132151 
L 156.784845 108.431042 
L 157.583274 108.431042 
L 157.742959 106.132151 
L 158.222017 106.132151 
L 158.381703 108.431042 
L 159.180132 108.431042 
L 159.339817 110.729933 
L 159.499503 110.729933 
L 159.659189 113.028825 
L 160.138247 113.028825 
L 160.297932 110.729933 
L 160.617304 110.729933 
L 160.77699 113.028825 
L 160.936676 113.028825 
L 161.096361 115.327716 
L 161.256047 115.327716 
L 161.415733 117.626608 
L 162.533534 117.626608 
L 162.693219 119.925499 
L 165.088506 119.925499 
L 165.248192 117.626608 
L 165.72725 117.626608 
L 165.886935 115.327716 
L 167.643479 115.327716 
L 167.803165 117.626608 
L 167.962851 117.626608 
L 168.122537 119.925499 
L 168.282222 119.925499 
L 168.441908 122.22439 
L 168.601594 122.22439 
L 168.76128 124.523282 
L 168.920966 124.523282 
L 169.080651 122.22439 
L 170.517824 122.22439 
L 170.67751 124.523282 
L 170.837195 124.523282 
L 170.996881 126.822173 
L 172.434053 126.822173 
L 172.593739 124.523282 
L 173.072797 124.523282 
L 173.232482 122.22439 
L 175.308398 122.22439 
L 175.627769 117.626608 
L 178.182742 117.626608 
L 178.342428 119.925499 
L 179.939286 119.925499 
L 180.098972 122.22439 
L 185.528289 122.22439 
L 185.687975 119.925499 
L 186.805776 119.925499 
L 186.965461 117.626608 
L 187.444519 117.626608 
L 187.604205 115.327716 
L 187.923576 115.327716 
L 188.083262 117.626608 
L 188.56232 117.626608 
L 188.722005 115.327716 
L 190.159178 115.327716 
L 190.318863 113.028825 
L 191.117292 113.028825 
L 191.276978 110.729933 
L 191.436664 110.729933 
L 191.59635 108.431042 
L 192.554465 108.431042 
L 192.71415 106.132151 
L 192.873836 106.132151 
L 193.033522 103.833259 
L 193.193208 103.833259 
L 193.352894 101.534368 
L 194.470694 101.534368 
L 194.63038 99.235477 
L 195.588495 99.235477 
L 195.748181 101.534368 
L 198.143468 101.534368 
L 198.303154 103.833259 
L 199.58064 103.833259 
L 199.740326 101.534368 
L 199.900012 101.534368 
L 200.059697 99.235477 
L 200.219383 99.235477 
L 200.379069 96.936585 
L 200.538755 96.936585 
L 200.698441 94.637694 
L 201.975927 94.637694 
L 202.135613 96.936585 
L 202.774356 96.936585 
L 202.934042 94.637694 
L 207.085873 94.637694 
L 207.245559 96.936585 
L 208.682731 96.936585 
L 208.842417 99.235477 
L 210.119903 99.235477 
L 210.279589 96.936585 
L 211.397389 96.936585 
L 211.557075 99.235477 
L 211.716761 99.235477 
L 211.876447 101.534368 
L 212.036133 99.235477 
L 212.355504 99.235477 
L 212.674876 103.833259 
L 214.591105 103.833259 
L 214.750791 106.132151 
L 219.860737 106.132151 
L 220.020423 103.833259 
L 221.617281 103.833259 
L 221.776967 106.132151 
L 222.41571 106.132151 
L 222.575396 108.431042 
L 224.651311 108.431042 
L 224.810997 110.729933 
L 227.525656 110.729933 
L 227.685341 108.431042 
L 230.080628 108.431042 
L 230.240314 106.132151 
L 231.358115 106.132151 
L 231.677486 110.729933 
L 233.913088 110.729933 
L 234.072773 108.431042 
L 234.392145 108.431042 
L 234.551831 106.132151 
L 239.023033 106.132151 
L 239.182719 103.833259 
L 240.619891 103.833259 
L 240.779577 101.534368 
L 241.258635 101.534368 
L 241.41832 103.833259 
L 242.376435 103.833259 
L 242.536121 106.132151 
L 243.33455 106.132151 
L 243.494236 103.833259 
L 243.653922 103.833259 
L 243.813607 101.534368 
L 244.292665 101.534368 
L 244.612037 96.936585 
L 244.771722 96.936585 
L 244.931408 99.235477 
L 246.528266 99.235477 
L 246.687952 96.936585 
L 247.805753 96.936585 
L 247.965438 99.235477 
L 248.604182 99.235477 
L 248.763867 101.534368 
L 248.923553 101.534368 
L 249.242925 106.132151 
L 253.554441 106.132151 
L 253.714127 103.833259 
L 254.193185 103.833259 
L 254.352871 106.132151 
L 254.512556 103.833259 
L 255.949729 103.833259 
L 256.109414 106.132151 
L 256.588472 106.132151 
L 256.748158 103.833259 
L 257.865958 103.833259 
L 258.025644 106.132151 
L 259.941874 106.132151 
L 260.101559 108.431042 
L 260.899988 108.431042 
L 261.059674 110.729933 
L 263.13559 110.729933 
L 263.295275 113.028825 
L 263.454961 110.729933 
L 263.774333 110.729933 
L 263.934019 113.028825 
L 267.926164 113.028825 
L 268.08585 115.327716 
L 268.245535 115.327716 
L 268.405221 117.626608 
L 270.321451 117.626608 
L 270.481137 119.925499 
L 272.077995 119.925499 
L 272.23768 122.22439 
L 273.195795 122.22439 
L 273.355481 119.925499 
L 274.313596 119.925499 
L 274.473282 117.626608 
L 275.910454 117.626608 
L 276.07014 119.925499 
L 276.229826 119.925499 
L 276.389511 122.22439 
L 276.549197 122.22439 
L 276.708883 124.523282 
L 276.868569 122.22439 
L 278.944484 122.22439 
L 279.10417 124.523282 
L 279.742913 124.523282 
L 279.902599 122.22439 
L 280.541342 122.22439 
L 280.701028 119.925499 
L 281.0204 119.925499 
L 281.180085 117.626608 
L 282.1382 117.626608 
L 282.297886 119.925499 
L 284.214116 119.925499 
L 284.533487 124.523282 
L 285.810974 124.523282 
L 286.130345 129.121064 
L 286.290031 126.822173 
L 287.886889 126.822173 
L 288.046575 124.523282 
L 288.206261 126.822173 
L 289.324061 126.822173 
L 289.483747 129.121064 
L 289.803119 129.121064 
L 289.962805 126.822173 
L 291.240291 126.822173 
L 291.399977 129.121064 
L 291.879034 129.121064 
L 292.03872 126.822173 
L 292.837149 126.822173 
L 292.996835 124.523282 
L 293.635578 124.523282 
L 293.795264 126.822173 
L 293.95495 126.822173 
L 294.114636 129.121064 
L 294.274321 129.121064 
L 294.434007 131.419956 
L 295.07275 131.419956 
L 295.232436 129.121064 
L 295.392122 129.121064 
L 295.551808 126.822173 
L 295.711494 126.822173 
L 295.871179 124.523282 
L 298.106781 124.523282 
L 298.266466 126.822173 
L 300.182696 126.822173 
L 300.342382 124.523282 
L 300.981125 124.523282 
L 300.981125 124.523282 
" clip-path="url(#ped30396b84)" style="fill: none; stroke: #9467bd; stroke-width: 1.5; stroke-linecap: square"/>
   </g>
   <g id="line2d_20">
    <path d="M 104.727273 78.545455 
L 292.837149 78.545455 
L 292.837149 78.545455 
" clip-path="url(#ped30396b84)" style="fill: none; stroke: #8c564b; stroke-width: 1.5; stroke-linecap: square"/>
   </g>
   <g id="line2d_21">
    <path d="M 104.727273 138.31663 
L 104.886959 136.017738 
L 105.525702 136.017738 
L 105.685388 133.718847 
L 106.483817 133.718847 
L 106.643502 131.419956 
L 106.962874 131.419956 
L 107.12256 129.121064 
L 108.24036 129.121064 
L 108.400046 131.419956 
L 108.719418 131.419956 
L 108.879104 133.718847 
L 109.677533 133.718847 
L 109.837218 131.419956 
L 110.316276 138.31663 
L 110.795333 138.31663 
L 110.955019 136.017738 
L 111.753448 136.017738 
L 111.913134 133.718847 
L 113.350306 133.718847 
L 113.509992 131.419956 
L 113.829364 131.419956 
L 113.989049 129.121064 
L 114.148735 131.419956 
L 114.308421 131.419956 
L 114.468107 133.718847 
L 114.627793 133.718847 
L 114.787478 136.017738 
L 116.544022 136.017738 
L 116.703708 138.31663 
L 117.981194 138.31663 
L 118.14088 140.615521 
L 118.460252 140.615521 
L 118.619938 142.914412 
L 120.05711 142.914412 
L 120.216796 145.213304 
L 121.494282 145.213304 
L 121.653968 147.512195 
L 122.612083 147.512195 
L 122.771769 149.811086 
L 123.729883 149.811086 
L 124.049255 154.408869 
L 124.528312 154.408869 
L 124.687998 156.707761 
L 126.923599 156.707761 
L 127.083285 159.006652 
L 127.242971 156.707761 
L 127.402657 159.006652 
L 127.562343 156.707761 
L 127.722028 159.006652 
L 128.999515 159.006652 
L 129.159201 161.305543 
L 129.318886 159.006652 
L 129.478572 161.305543 
L 129.638258 159.006652 
L 130.436687 159.006652 
L 130.596373 156.707761 
L 131.554488 156.707761 
L 131.714174 154.408869 
L 132.352917 154.408869 
L 132.512603 156.707761 
L 133.470717 156.707761 
L 133.790089 161.305543 
L 134.109461 161.305543 
L 134.269146 163.604435 
L 134.428832 161.305543 
L 134.748204 161.305543 
L 134.90789 159.006652 
L 135.546633 159.006652 
L 135.706319 161.305543 
L 135.866004 159.006652 
L 136.504748 159.006652 
L 136.664433 156.707761 
L 137.303177 156.707761 
L 137.462862 159.006652 
L 137.622548 159.006652 
L 137.782234 161.305543 
L 140.177521 161.305543 
L 140.337207 159.006652 
L 140.656578 159.006652 
L 140.816264 156.707761 
L 141.774379 156.707761 
L 142.253437 149.811086 
L 144.00998 149.811086 
L 144.169666 147.512195 
L 144.808409 147.512195 
L 144.968095 145.213304 
L 145.766524 145.213304 
L 145.92621 147.512195 
L 146.245582 147.512195 
L 146.405267 145.213304 
L 146.564953 145.213304 
L 146.724639 142.914412 
L 147.203696 142.914412 
L 147.363382 145.213304 
L 148.481183 145.213304 
L 148.640869 142.914412 
L 149.119926 142.914412 
L 149.279612 145.213304 
L 149.918355 145.213304 
L 150.078041 142.914412 
L 150.237727 142.914412 
L 150.397412 145.213304 
L 150.557098 142.914412 
L 150.716784 145.213304 
L 150.87647 145.213304 
L 151.195842 149.811086 
L 151.355527 149.811086 
L 151.515213 152.109978 
L 151.994271 152.109978 
L 152.153956 149.811086 
L 152.952385 149.811086 
L 153.112071 152.109978 
L 153.431443 152.109978 
L 153.591129 149.811086 
L 154.070186 149.811086 
L 154.229872 152.109978 
L 154.549243 152.109978 
L 154.708929 149.811086 
L 155.187987 149.811086 
L 155.347672 152.109978 
L 155.667044 152.109978 
L 155.986416 147.512195 
L 156.146101 147.512195 
L 156.305787 149.811086 
L 156.94453 149.811086 
L 157.104216 152.109978 
L 157.583274 152.109978 
L 157.742959 154.408869 
L 158.86076 154.408869 
L 159.020446 152.109978 
L 159.180132 152.109978 
L 159.339817 149.811086 
L 159.499503 149.811086 
L 159.659189 147.512195 
L 159.818875 147.512195 
L 159.978561 145.213304 
L 160.936676 145.213304 
L 161.096361 142.914412 
L 161.256047 142.914412 
L 161.415733 140.615521 
L 161.575419 140.615521 
L 161.89479 145.213304 
L 162.693219 145.213304 
L 163.012591 149.811086 
L 163.651334 149.811086 
L 163.81102 147.512195 
L 164.290077 147.512195 
L 164.449763 145.213304 
L 165.407878 145.213304 
L 165.72725 140.615521 
L 166.84505 140.615521 
L 167.004736 142.914412 
L 167.483793 142.914412 
L 167.643479 140.615521 
L 168.282222 140.615521 
L 168.441908 142.914412 
L 168.601594 142.914412 
L 168.76128 145.213304 
L 168.920966 145.213304 
L 169.080651 147.512195 
L 169.240337 147.512195 
L 169.400023 145.213304 
L 169.559709 145.213304 
L 169.719395 142.914412 
L 173.392168 142.914412 
L 173.551854 140.615521 
L 177.384313 140.615521 
L 177.543999 142.914412 
L 177.863371 142.914412 
L 178.182742 138.31663 
L 179.140857 138.31663 
L 179.300543 136.017738 
L 181.057087 136.017738 
L 181.216773 133.718847 
L 182.015202 133.718847 
L 182.174887 136.017738 
L 182.334573 133.718847 
L 182.494259 133.718847 
L 182.653945 131.419956 
L 182.813631 133.718847 
L 183.133002 129.121064 
L 183.292688 129.121064 
L 183.452374 126.822173 
L 184.091117 126.822173 
L 184.250803 129.121064 
L 184.72986 129.121064 
L 184.889546 131.419956 
L 185.049232 129.121064 
L 186.007347 129.121064 
L 186.167032 126.822173 
L 186.805776 126.822173 
L 186.965461 129.121064 
L 187.125147 129.121064 
L 187.284833 126.822173 
L 187.76389 126.822173 
L 187.923576 129.121064 
L 188.083262 129.121064 
L 188.242948 126.822173 
L 188.402634 126.822173 
L 188.56232 124.523282 
L 188.881691 124.523282 
L 189.041377 122.22439 
L 189.520434 122.22439 
L 189.68012 119.925499 
L 189.839806 119.925499 
L 189.999492 122.22439 
L 191.436664 122.22439 
L 191.59635 124.523282 
L 192.075407 124.523282 
L 192.235093 126.822173 
L 192.394779 124.523282 
L 193.512579 124.523282 
L 193.831951 119.925499 
L 194.63038 119.925499 
L 194.949752 115.327716 
L 197.983782 115.327716 
L 198.143468 113.028825 
L 198.782211 113.028825 
L 198.941897 110.729933 
L 199.101583 113.028825 
L 199.261268 113.028825 
L 199.420954 115.327716 
L 199.740326 115.327716 
L 199.900012 117.626608 
L 200.219383 117.626608 
L 200.379069 115.327716 
L 200.538755 115.327716 
L 200.698441 113.028825 
L 200.858126 113.028825 
L 201.017812 110.729933 
L 201.49687 110.729933 
L 201.656555 113.028825 
L 202.934042 113.028825 
L 203.093728 115.327716 
L 203.413099 115.327716 
L 203.572785 117.626608 
L 204.850271 117.626608 
L 205.009957 119.925499 
L 209.161788 119.925499 
L 209.321474 122.22439 
L 209.48116 119.925499 
L 209.640846 119.925499 
L 209.800531 117.626608 
L 211.557075 117.626608 
L 211.876447 122.22439 
L 213.632991 122.22439 
L 213.792676 124.523282 
L 213.952362 124.523282 
L 214.112048 122.22439 
L 214.591105 122.22439 
L 214.750791 119.925499 
L 215.389534 119.925499 
L 215.54922 122.22439 
L 216.028278 122.22439 
L 216.187963 119.925499 
L 216.667021 119.925499 
L 216.826707 117.626608 
L 218.742936 117.626608 
L 218.902622 115.327716 
L 219.701051 115.327716 
L 219.860737 113.028825 
L 220.978538 113.028825 
L 221.138223 115.327716 
L 221.776967 115.327716 
L 221.936652 113.028825 
L 223.214139 113.028825 
L 223.373825 115.327716 
L 223.53351 113.028825 
L 224.012568 113.028825 
L 224.172254 110.729933 
L 224.970683 110.729933 
L 225.130368 113.028825 
L 227.525656 113.028825 
L 227.685341 115.327716 
L 229.601571 115.327716 
L 229.761257 117.626608 
L 231.198429 117.626608 
L 231.358115 115.327716 
L 232.635601 115.327716 
L 232.795287 117.626608 
L 233.43403 117.626608 
L 233.593716 115.327716 
L 234.871202 115.327716 
L 235.030888 113.028825 
L 235.35026 113.028825 
L 235.509946 110.729933 
L 235.829317 110.729933 
L 235.989003 113.028825 
L 236.148689 113.028825 
L 236.308375 115.327716 
L 236.787432 115.327716 
L 236.947118 113.028825 
L 237.426175 113.028825 
L 237.585861 115.327716 
L 237.905233 115.327716 
L 238.064919 117.626608 
L 238.224604 117.626608 
L 238.38429 119.925499 
L 239.023033 119.925499 
L 239.182719 122.22439 
L 239.502091 122.22439 
L 239.661777 124.523282 
L 239.981148 124.523282 
L 240.140834 126.822173 
L 241.098949 126.822173 
L 241.258635 124.523282 
L 241.41832 124.523282 
L 241.578006 126.822173 
L 242.376435 126.822173 
L 242.536121 129.121064 
L 242.695807 129.121064 
L 242.855493 131.419956 
L 243.494236 131.419956 
L 243.813607 126.822173 
L 243.973293 129.121064 
L 244.612037 129.121064 
L 244.931408 133.718847 
L 245.091094 133.718847 
L 245.25078 136.017738 
L 245.570151 136.017738 
L 245.729837 133.718847 
L 247.007324 133.718847 
L 247.167009 136.017738 
L 247.326695 136.017738 
L 247.486381 133.718847 
L 250.20104 133.718847 
L 250.360725 136.017738 
L 251.957583 136.017738 
L 252.117269 138.31663 
L 252.596327 138.31663 
L 252.756012 140.615521 
L 252.915698 140.615521 
L 253.075384 138.31663 
L 254.672242 138.31663 
L 254.831928 140.615521 
L 255.1513 140.615521 
L 255.310985 138.31663 
L 255.949729 138.31663 
L 256.109414 140.615521 
L 256.2691 140.615521 
L 256.428786 142.914412 
L 256.907843 142.914412 
L 257.067529 140.615521 
L 259.143445 140.615521 
L 259.30313 142.914412 
L 259.462816 142.914412 
L 259.622502 140.615521 
L 259.782188 142.914412 
L 260.261245 142.914412 
L 260.420931 145.213304 
L 260.580617 145.213304 
L 260.740303 147.512195 
L 260.899988 147.512195 
L 261.059674 149.811086 
L 261.379046 149.811086 
L 261.538732 152.109978 
L 261.698417 149.811086 
L 261.858103 149.811086 
L 262.017789 152.109978 
L 262.816218 152.109978 
L 262.975904 149.811086 
L 263.614647 149.811086 
L 263.774333 147.512195 
L 264.413076 147.512195 
L 264.572762 149.811086 
L 264.732448 147.512195 
L 266.488992 147.512195 
L 266.648677 149.811086 
L 267.127735 149.811086 
L 267.287421 152.109978 
L 267.766478 152.109978 
L 267.926164 149.811086 
L 268.08585 149.811086 
L 268.245535 147.512195 
L 269.20365 147.512195 
L 269.363336 149.811086 
L 269.523022 147.512195 
L 269.842393 147.512195 
L 270.002079 145.213304 
L 270.161765 145.213304 
L 270.321451 142.914412 
L 270.960194 142.914412 
L 271.11988 140.615521 
L 271.439251 145.213304 
L 271.598937 142.914412 
L 271.918309 142.914412 
L 272.077995 140.615521 
L 273.195795 140.615521 
L 273.355481 142.914412 
L 273.515167 140.615521 
L 274.313596 140.615521 
L 274.473282 138.31663 
L 274.632968 138.31663 
L 274.792653 136.017738 
L 275.750768 136.017738 
L 275.910454 133.718847 
L 276.708883 133.718847 
L 276.868569 131.419956 
L 277.028255 131.419956 
L 277.18794 129.121064 
L 277.986369 129.121064 
L 278.146055 131.419956 
L 278.944484 131.419956 
L 279.10417 129.121064 
L 279.423542 129.121064 
L 279.583227 131.419956 
L 280.860714 131.419956 
L 281.0204 133.718847 
L 282.1382 133.718847 
L 282.297886 131.419956 
L 283.894744 131.419956 
L 284.05443 129.121064 
L 284.214116 129.121064 
L 284.373802 131.419956 
L 284.533487 131.419956 
L 284.693173 129.121064 
L 286.130345 129.121064 
L 286.449717 133.718847 
L 286.609403 133.718847 
L 286.769089 131.419956 
L 287.886889 131.419956 
L 288.046575 129.121064 
L 290.282176 129.121064 
L 290.441862 131.419956 
L 290.920919 131.419956 
L 291.080605 133.718847 
L 291.240291 131.419956 
L 291.559663 131.419956 
L 291.719349 129.121064 
L 292.198406 129.121064 
L 292.358092 126.822173 
L 292.517778 126.822173 
L 292.677463 124.523282 
L 292.837149 124.523282 
L 292.996835 122.22439 
L 293.156521 124.523282 
L 293.316207 124.523282 
L 293.475892 122.22439 
L 293.795264 122.22439 
L 293.95495 119.925499 
L 294.593693 119.925499 
L 294.593693 119.925499 
" clip-path="url(#ped30396b84)" style="fill: none; stroke: #e377c2; stroke-width: 1.5; stroke-linecap: square"/>
   </g>
   <g id="line2d_22">
    <path d="M 104.727273 78.545455 
L 302.258612 78.545455 
L 302.258612 78.545455 
" clip-path="url(#ped30396b84)" style="fill: none; stroke: #7f7f7f; stroke-width: 1.5; stroke-linecap: square"/>
   </g>
   <g id="line2d_23">
    <path d="M 104.727273 262.456763 
L 104.886959 264.755654 
L 105.046644 264.755654 
L 105.20633 267.054545 
L 106.004759 267.054545 
L 106.164445 264.755654 
L 106.962874 264.755654 
L 107.12256 262.456763 
L 107.601617 262.456763 
L 107.761303 260.157871 
L 107.920989 260.157871 
L 108.080675 257.85898 
L 108.24036 260.157871 
L 108.879104 260.157871 
L 109.038789 257.85898 
L 109.198475 257.85898 
L 109.517847 253.261197 
L 109.677533 255.560089 
L 109.996904 255.560089 
L 110.15659 253.261197 
L 110.316276 253.261197 
L 110.475962 255.560089 
L 110.635647 255.560089 
L 110.795333 257.85898 
L 110.955019 257.85898 
L 111.114705 255.560089 
L 111.274391 255.560089 
L 111.434076 257.85898 
L 111.753448 257.85898 
L 111.913134 255.560089 
L 113.19062 255.560089 
L 113.350306 253.261197 
L 113.829364 253.261197 
L 113.989049 250.962306 
L 114.148735 253.261197 
L 114.627793 246.364523 
L 114.787478 248.663415 
L 114.947164 246.364523 
L 115.10685 248.663415 
L 115.266536 246.364523 
L 115.905279 246.364523 
L 116.224651 241.766741 
L 116.544022 241.766741 
L 116.703708 239.467849 
L 116.863394 239.467849 
L 117.02308 237.168958 
L 117.182765 237.168958 
L 117.342451 234.870067 
L 117.502137 234.870067 
L 117.661823 232.571175 
L 118.14088 232.571175 
L 118.779623 223.37561 
L 118.939309 223.37561 
L 119.418367 216.478936 
L 119.578052 216.478936 
L 119.897424 211.881153 
L 120.05711 214.180044 
L 120.216796 214.180044 
L 120.536167 209.582262 
L 120.855539 209.582262 
L 121.17491 204.984479 
L 121.494282 204.984479 
L 121.653968 202.685588 
L 121.973339 202.685588 
L 122.452397 195.788914 
L 122.612083 195.788914 
L 123.250826 186.593348 
L 123.410512 186.593348 
L 123.570198 184.294457 
L 123.729883 184.294457 
L 123.889569 181.995565 
L 124.368627 181.995565 
L 124.528312 179.696674 
L 125.167056 179.696674 
L 125.486427 175.098891 
L 126.12517 175.098891 
L 126.284856 172.8 
L 126.444542 172.8 
L 126.604228 170.501109 
L 126.763914 170.501109 
L 127.242971 163.604435 
L 127.402657 163.604435 
L 127.562343 161.305543 
L 128.0414 161.305543 
L 128.201086 159.006652 
L 128.520457 159.006652 
L 128.680143 156.707761 
L 129.478572 156.707761 
L 129.638258 154.408869 
L 131.07543 154.408869 
L 131.235116 152.109978 
L 131.873859 152.109978 
L 132.193231 147.512195 
L 132.352917 149.811086 
L 132.672288 145.213304 
L 133.151346 145.213304 
L 133.311032 147.512195 
L 133.470717 145.213304 
L 133.630403 145.213304 
L 133.790089 142.914412 
L 134.269146 149.811086 
L 134.428832 147.512195 
L 135.227261 147.512195 
L 135.386947 145.213304 
L 136.983805 145.213304 
L 137.143491 142.914412 
L 137.462862 142.914412 
L 137.622548 145.213304 
L 137.94192 145.213304 
L 138.101606 147.512195 
L 139.698464 147.512195 
L 139.858149 149.811086 
L 140.656578 149.811086 
L 140.816264 147.512195 
L 140.97595 149.811086 
L 141.455008 149.811086 
L 141.614693 147.512195 
L 142.093751 147.512195 
L 142.413122 142.914412 
L 142.572808 142.914412 
L 142.732494 140.615521 
L 143.211551 140.615521 
L 143.371237 138.31663 
L 144.329352 138.31663 
L 144.489038 140.615521 
L 144.968095 140.615521 
L 145.127781 142.914412 
L 145.606838 142.914412 
L 145.766524 145.213304 
L 145.92621 145.213304 
L 146.085896 142.914412 
L 146.245582 142.914412 
L 146.405267 145.213304 
L 146.564953 145.213304 
L 146.724639 142.914412 
L 147.523068 142.914412 
L 147.682754 140.615521 
L 148.800554 140.615521 
L 148.96024 142.914412 
L 149.119926 140.615521 
L 149.758669 140.615521 
L 149.918355 138.31663 
L 151.834585 138.31663 
L 151.994271 136.017738 
L 153.271757 136.017738 
L 153.431443 138.31663 
L 155.986416 138.31663 
L 156.305787 133.718847 
L 156.465473 136.017738 
L 157.583274 136.017738 
L 157.742959 133.718847 
L 158.062331 133.718847 
L 158.222017 136.017738 
L 159.339817 136.017738 
L 159.499503 138.31663 
L 161.256047 138.31663 
L 161.415733 140.615521 
L 162.214162 140.615521 
L 162.373848 138.31663 
L 163.012591 138.31663 
L 163.172277 140.615521 
L 163.331963 138.31663 
L 163.970706 138.31663 
L 164.130392 140.615521 
L 164.290077 138.31663 
L 165.088506 138.31663 
L 165.248192 136.017738 
L 165.72725 136.017738 
L 166.206307 129.121064 
L 168.441908 129.121064 
L 168.601594 131.419956 
L 168.76128 129.121064 
L 169.400023 129.121064 
L 169.559709 126.822173 
L 169.879081 126.822173 
L 170.038766 124.523282 
L 170.67751 124.523282 
L 170.837195 126.822173 
L 171.635624 126.822173 
L 171.79531 124.523282 
L 171.954996 124.523282 
L 172.114682 122.22439 
L 172.274368 124.523282 
L 172.753425 124.523282 
L 172.913111 122.22439 
L 174.190597 122.22439 
L 174.350283 124.523282 
L 176.266513 124.523282 
L 176.426198 122.22439 
L 176.585884 122.22439 
L 176.74557 119.925499 
L 176.905256 119.925499 
L 177.064942 117.626608 
L 177.543999 117.626608 
L 177.703685 115.327716 
L 178.182742 115.327716 
L 178.342428 113.028825 
L 178.821486 113.028825 
L 178.981171 110.729933 
L 180.737715 110.729933 
L 180.897401 108.431042 
L 183.931431 108.431042 
L 184.091117 110.729933 
L 184.570174 110.729933 
L 184.72986 113.028825 
L 185.208918 113.028825 
L 185.368603 110.729933 
L 185.528289 110.729933 
L 185.687975 108.431042 
L 185.847661 108.431042 
L 186.007347 110.729933 
L 188.242948 110.729933 
L 188.402634 108.431042 
L 188.56232 108.431042 
L 188.722005 106.132151 
L 189.999492 106.132151 
L 190.159178 103.833259 
L 191.276978 103.833259 
L 191.436664 101.534368 
L 193.193208 101.534368 
L 193.352894 99.235477 
L 193.672265 99.235477 
L 193.831951 101.534368 
L 194.949752 101.534368 
L 195.109437 99.235477 
L 198.622525 99.235477 
L 198.782211 101.534368 
L 200.379069 101.534368 
L 200.538755 99.235477 
L 202.61467 99.235477 
L 202.774356 96.936585 
L 204.051842 96.936585 
L 204.211528 94.637694 
L 206.127758 94.637694 
L 206.287444 92.338803 
L 207.085873 92.338803 
L 207.405244 96.936585 
L 213.952362 96.936585 
L 214.271734 101.534368 
L 214.591105 101.534368 
L 214.750791 103.833259 
L 215.868592 103.833259 
L 216.028278 101.534368 
L 216.507335 101.534368 
L 216.667021 99.235477 
L 217.784822 99.235477 
L 217.944507 96.936585 
L 219.701051 96.936585 
L 219.860737 99.235477 
L 220.020423 99.235477 
L 220.339794 103.833259 
L 223.852882 103.833259 
L 224.012568 106.132151 
L 225.609426 106.132151 
L 225.769112 103.833259 
L 227.845027 103.833259 
L 228.004713 101.534368 
L 229.920943 101.534368 
L 230.080628 103.833259 
L 230.559686 103.833259 
L 230.719372 101.534368 
L 231.517801 101.534368 
L 231.677486 103.833259 
L 232.156544 103.833259 
L 232.475915 108.431042 
L 235.35026 108.431042 
L 235.509946 110.729933 
L 237.26649 110.729933 
L 237.426175 113.028825 
L 238.863348 113.028825 
L 239.023033 115.327716 
L 239.342405 110.729933 
L 239.502091 113.028825 
L 244.771722 113.028825 
L 244.931408 115.327716 
L 245.889523 115.327716 
L 246.208895 110.729933 
L 246.528266 110.729933 
L 246.687952 108.431042 
L 247.007324 108.431042 
L 247.326695 113.028825 
L 250.520411 113.028825 
L 250.680097 115.327716 
L 251.31884 115.327716 
L 251.638212 119.925499 
L 251.797898 117.626608 
L 251.957583 117.626608 
L 252.276955 113.028825 
L 257.865958 113.028825 
L 258.025644 115.327716 
L 258.345016 115.327716 
L 258.504701 117.626608 
L 259.30313 117.626608 
L 259.462816 119.925499 
L 260.580617 119.925499 
L 260.740303 122.22439 
L 261.858103 122.22439 
L 262.017789 119.925499 
L 263.454961 119.925499 
L 263.614647 117.626608 
L 263.934019 117.626608 
L 264.093705 119.925499 
L 264.413076 115.327716 
L 266.009934 115.327716 
L 266.16962 117.626608 
L 267.287421 117.626608 
L 267.447106 115.327716 
L 269.043964 115.327716 
L 269.20365 117.626608 
L 269.363336 115.327716 
L 270.002079 115.327716 
L 270.161765 117.626608 
L 270.481137 117.626608 
L 270.640822 119.925499 
L 270.800508 119.925499 
L 270.960194 117.626608 
L 274.792653 117.626608 
L 274.952339 119.925499 
L 276.708883 119.925499 
L 276.868569 117.626608 
L 277.347626 117.626608 
L 277.507312 119.925499 
L 278.305741 119.925499 
L 278.465427 122.22439 
L 278.944484 122.22439 
L 279.263856 117.626608 
L 279.902599 117.626608 
L 280.062285 119.925499 
L 282.457572 119.925499 
L 282.617258 117.626608 
L 283.415687 117.626608 
L 283.575373 115.327716 
L 284.693173 115.327716 
L 284.852859 117.626608 
L 286.769089 117.626608 
L 286.928774 119.925499 
L 287.727203 119.925499 
L 287.886889 117.626608 
L 288.046575 117.626608 
L 288.206261 119.925499 
L 289.324061 119.925499 
L 289.483747 122.22439 
L 289.803119 122.22439 
L 289.962805 119.925499 
L 290.282176 119.925499 
L 290.441862 117.626608 
L 291.240291 117.626608 
L 291.399977 115.327716 
L 292.517778 115.327716 
L 292.677463 113.028825 
L 297.947095 113.028825 
L 298.106781 110.729933 
L 298.266466 113.028825 
L 299.703639 113.028825 
L 299.863324 115.327716 
L 300.981125 115.327716 
L 301.140811 113.028825 
L 301.93924 113.028825 
L 302.098926 110.729933 
L 302.418297 110.729933 
L 302.577983 108.431042 
L 303.216726 108.431042 
L 303.376412 106.132151 
L 305.612013 106.132151 
L 305.931385 110.729933 
L 306.729814 110.729933 
L 306.8895 108.431042 
L 309.284787 108.431042 
L 309.444473 106.132151 
L 309.604158 108.431042 
L 310.242902 108.431042 
L 310.402588 106.132151 
L 311.83976 106.132151 
L 311.999446 103.833259 
L 315.193162 103.833259 
L 315.352847 101.534368 
L 316.630334 101.534368 
L 316.79002 99.235477 
L 316.949705 99.235477 
L 317.269077 103.833259 
L 318.227192 103.833259 
L 318.386878 106.132151 
L 318.706249 106.132151 
L 318.865935 103.833259 
L 319.504678 103.833259 
L 319.664364 106.132151 
L 319.983736 106.132151 
L 320.143422 103.833259 
L 320.303107 103.833259 
L 320.462793 106.132151 
L 321.74028 106.132151 
L 321.899965 108.431042 
L 322.698394 108.431042 
L 322.85808 110.729933 
L 323.816195 110.729933 
L 323.975881 113.028825 
L 324.933996 113.028825 
L 325.093681 115.327716 
L 327.80834 115.327716 
L 327.968026 113.028825 
L 330.043941 113.028825 
L 330.203627 110.729933 
L 331.640799 110.729933 
L 331.800485 108.431042 
L 334.355458 108.431042 
L 334.515144 110.729933 
L 337.549174 110.729933 
L 337.868546 106.132151 
L 339.146032 106.132151 
L 339.305718 108.431042 
L 341.221948 108.431042 
L 341.381633 110.729933 
L 341.541319 108.431042 
L 346.012522 108.431042 
L 346.172207 110.729933 
L 348.886866 110.729933 
L 349.206238 106.132151 
L 350.164353 106.132151 
L 350.324038 103.833259 
L 351.441839 103.833259 
L 351.601525 101.534368 
L 352.240268 101.534368 
L 352.399954 99.235477 
L 353.198383 99.235477 
L 353.358069 96.936585 
L 353.67744 96.936585 
L 353.837126 94.637694 
L 354.635555 94.637694 
L 354.795241 92.338803 
L 355.433984 92.338803 
L 355.59367 94.637694 
L 355.753356 94.637694 
L 355.913041 92.338803 
L 356.072727 92.338803 
L 356.072727 92.338803 
" clip-path="url(#ped30396b84)" style="fill: none; stroke: #bcbd22; stroke-width: 1.5; stroke-linecap: square"/>
   </g>
   <g id="patch_3">
    <path d="M 92.16 276.48 
L 92.16 69.12 
" style="fill: none; stroke: #000000; stroke-width: 0.8; stroke-linejoin: miter; stroke-linecap: square"/>
   </g>
   <g id="patch_4">
    <path d="M 368.64 276.48 
L 368.64 69.12 
" style="fill: none; stroke: #000000; stroke-width: 0.8; stroke-linejoin: miter; stroke-linecap: square"/>
   </g>
   <g id="patch_5">
    <path d="M 92.16 276.48 
L 368.64 276.48 
" style="fill: none; stroke: #000000; stroke-width: 0.8; stroke-linejoin: miter; stroke-linecap: square"/>
   </g>
   <g id="patch_6">
    <path d="M 92.16 69.12 
L 368.64 69.12 
" style="fill: none; stroke: #000000; stroke-width: 0.8; stroke-linejoin: miter; stroke-linecap: square"/>
   </g>
   <g id="text_15">
    <!-- fixed_woosterprobe_2afc_og -->
    <g transform="translate(145.171875 63.12) scale(0.12 -0.12)">
     <defs>
      <path id="DejaVuSans-66" d="M 2375 4863 
L 2375 4384 
L 1825 4384 
Q 1516 4384 1395 4259 
Q 1275 4134 1275 3809 
L 1275 3500 
L 2222 3500 
L 2222 3053 
L 1275 3053 
L 1275 0 
L 697 0 
L 697 3053 
L 147 3053 
L 147 3500 
L 697 3500 
L 697 3744 
Q 697 4328 969 4595 
Q 1241 4863 1831 4863 
L 2375 4863 
z
" transform="scale(0.015625)"/>
      <path id="DejaVuSans-69" d="M 603 3500 
L 1178 3500 
L 1178 0 
L 603 0 
L 603 3500 
z
M 603 4863 
L 1178 4863 
L 1178 4134 
L 603 4134 
L 603 4863 
z
" transform="scale(0.015625)"/>
      <path id="DejaVuSans-78" d="M 3513 3500 
L 2247 1797 
L 3578 0 
L 2900 0 
L 1881 1375 
L 863 0 
L 184 0 
L 1544 1831 
L 300 3500 
L 978 3500 
L 1906 2253 
L 2834 3500 
L 3513 3500 
z
" transform="scale(0.015625)"/>
      <path id="DejaVuSans-65" d="M 3597 1894 
L 3597 1613 
L 953 1613 
Q 991 1019 1311 708 
Q 1631 397 2203 397 
Q 2534 397 2845 478 
Q 3156 559 3463 722 
L 3463 178 
Q 3153 47 2828 -22 
Q 2503 -91 2169 -91 
Q 1331 -91 842 396 
Q 353 884 353 1716 
Q 353 2575 817 3079 
Q 1281 3584 2069 3584 
Q 2775 3584 3186 3129 
Q 3597 2675 3597 1894 
z
M 3022 2063 
Q 3016 2534 2758 2815 
Q 2500 3097 2075 3097 
Q 1594 3097 1305 2825 
Q 1016 2553 972 2059 
L 3022 2063 
z
" transform="scale(0.015625)"/>
      <path id="DejaVuSans-64" d="M 2906 2969 
L 2906 4863 
L 3481 4863 
L 3481 0 
L 2906 0 
L 2906 525 
Q 2725 213 2448 61 
Q 2172 -91 1784 -91 
Q 1150 -91 751 415 
Q 353 922 353 1747 
Q 353 2572 751 3078 
Q 1150 3584 1784 3584 
Q 2172 3584 2448 3432 
Q 2725 3281 2906 2969 
z
M 947 1747 
Q 947 1113 1208 752 
Q 1469 391 1925 391 
Q 2381 391 2643 752 
Q 2906 1113 2906 1747 
Q 2906 2381 2643 2742 
Q 2381 3103 1925 3103 
Q 1469 3103 1208 2742 
Q 947 2381 947 1747 
z
" transform="scale(0.015625)"/>
      <path id="DejaVuSans-5f" d="M 3263 -1063 
L 3263 -1509 
L -63 -1509 
L -63 -1063 
L 3263 -1063 
z
" transform="scale(0.015625)"/>
      <path id="DejaVuSans-77" d="M 269 3500 
L 844 3500 
L 1563 769 
L 2278 3500 
L 2956 3500 
L 3675 769 
L 4391 3500 
L 4966 3500 
L 4050 0 
L 3372 0 
L 2619 2869 
L 1863 0 
L 1184 0 
L 269 3500 
z
" transform="scale(0.015625)"/>
      <path id="DejaVuSans-6f" d="M 1959 3097 
Q 1497 3097 1228 2736 
Q 959 2375 959 1747 
Q 959 1119 1226 758 
Q 1494 397 1959 397 
Q 2419 397 2687 759 
Q 2956 1122 2956 1747 
Q 2956 2369 2687 2733 
Q 2419 3097 1959 3097 
z
M 1959 3584 
Q 2709 3584 3137 3096 
Q 3566 2609 3566 1747 
Q 3566 888 3137 398 
Q 2709 -91 1959 -91 
Q 1206 -91 779 398 
Q 353 888 353 1747 
Q 353 2609 779 3096 
Q 1206 3584 1959 3584 
z
" transform="scale(0.015625)"/>
      <path id="DejaVuSans-73" d="M 2834 3397 
L 2834 2853 
Q 2591 2978 2328 3040 
Q 2066 3103 1784 3103 
Q 1356 3103 1142 2972 
Q 928 2841 928 2578 
Q 928 2378 1081 2264 
Q 1234 2150 1697 2047 
L 1894 2003 
Q 2506 1872 2764 1633 
Q 3022 1394 3022 966 
Q 3022 478 2636 193 
Q 2250 -91 1575 -91 
Q 1294 -91 989 -36 
Q 684 19 347 128 
L 347 722 
Q 666 556 975 473 
Q 1284 391 1588 391 
Q 1994 391 2212 530 
Q 2431 669 2431 922 
Q 2431 1156 2273 1281 
Q 2116 1406 1581 1522 
L 1381 1569 
Q 847 1681 609 1914 
Q 372 2147 372 2553 
Q 372 3047 722 3315 
Q 1072 3584 1716 3584 
Q 2034 3584 2315 3537 
Q 2597 3491 2834 3397 
z
" transform="scale(0.015625)"/>
      <path id="DejaVuSans-74" d="M 1172 4494 
L 1172 3500 
L 2356 3500 
L 2356 3053 
L 1172 3053 
L 1172 1153 
Q 1172 725 1289 603 
Q 1406 481 1766 481 
L 2356 481 
L 2356 0 
L 1766 0 
Q 1100 0 847 248 
Q 594 497 594 1153 
L 594 3053 
L 172 3053 
L 172 3500 
L 594 3500 
L 594 4494 
L 1172 4494 
z
" transform="scale(0.015625)"/>
      <path id="DejaVuSans-72" d="M 2631 2963 
Q 2534 3019 2420 3045 
Q 2306 3072 2169 3072 
Q 1681 3072 1420 2755 
Q 1159 2438 1159 1844 
L 1159 0 
L 581 0 
L 581 3500 
L 1159 3500 
L 1159 2956 
Q 1341 3275 1631 3429 
Q 1922 3584 2338 3584 
Q 2397 3584 2469 3576 
Q 2541 3569 2628 3553 
L 2631 2963 
z
" transform="scale(0.015625)"/>
      <path id="DejaVuSans-70" d="M 1159 525 
L 1159 -1331 
L 581 -1331 
L 581 3500 
L 1159 3500 
L 1159 2969 
Q 1341 3281 1617 3432 
Q 1894 3584 2278 3584 
Q 2916 3584 3314 3078 
Q 3713 2572 3713 1747 
Q 3713 922 3314 415 
Q 2916 -91 2278 -91 
Q 1894 -91 1617 61 
Q 1341 213 1159 525 
z
M 3116 1747 
Q 3116 2381 2855 2742 
Q 2594 3103 2138 3103 
Q 1681 3103 1420 2742 
Q 1159 2381 1159 1747 
Q 1159 1113 1420 752 
Q 1681 391 2138 391 
Q 2594 391 2855 752 
Q 3116 1113 3116 1747 
z
" transform="scale(0.015625)"/>
      <path id="DejaVuSans-62" d="M 3116 1747 
Q 3116 2381 2855 2742 
Q 2594 3103 2138 3103 
Q 1681 3103 1420 2742 
Q 1159 2381 1159 1747 
Q 1159 1113 1420 752 
Q 1681 391 2138 391 
Q 2594 391 2855 752 
Q 3116 1113 3116 1747 
z
M 1159 2969 
Q 1341 3281 1617 3432 
Q 1894 3584 2278 3584 
Q 2916 3584 3314 3078 
Q 3713 2572 3713 1747 
Q 3713 922 3314 415 
Q 2916 -91 2278 -91 
Q 1894 -91 1617 61 
Q 1341 213 1159 525 
L 1159 0 
L 581 0 
L 581 4863 
L 1159 4863 
L 1159 2969 
z
" transform="scale(0.015625)"/>
      <path id="DejaVuSans-61" d="M 2194 1759 
Q 1497 1759 1228 1600 
Q 959 1441 959 1056 
Q 959 750 1161 570 
Q 1363 391 1709 391 
Q 2188 391 2477 730 
Q 2766 1069 2766 1631 
L 2766 1759 
L 2194 1759 
z
M 3341 1997 
L 3341 0 
L 2766 0 
L 2766 531 
Q 2569 213 2275 61 
Q 1981 -91 1556 -91 
Q 1019 -91 701 211 
Q 384 513 384 1019 
Q 384 1609 779 1909 
Q 1175 2209 1959 2209 
L 2766 2209 
L 2766 2266 
Q 2766 2663 2505 2880 
Q 2244 3097 1772 3097 
Q 1472 3097 1187 3025 
Q 903 2953 641 2809 
L 641 3341 
Q 956 3463 1253 3523 
Q 1550 3584 1831 3584 
Q 2591 3584 2966 3190 
Q 3341 2797 3341 1997 
z
" transform="scale(0.015625)"/>
      <path id="DejaVuSans-63" d="M 3122 3366 
L 3122 2828 
Q 2878 2963 2633 3030 
Q 2388 3097 2138 3097 
Q 1578 3097 1268 2742 
Q 959 2388 959 1747 
Q 959 1106 1268 751 
Q 1578 397 2138 397 
Q 2388 397 2633 464 
Q 2878 531 3122 666 
L 3122 134 
Q 2881 22 2623 -34 
Q 2366 -91 2075 -91 
Q 1284 -91 818 406 
Q 353 903 353 1747 
Q 353 2603 823 3093 
Q 1294 3584 2113 3584 
Q 2378 3584 2631 3529 
Q 2884 3475 3122 3366 
z
" transform="scale(0.015625)"/>
      <path id="DejaVuSans-67" d="M 2906 1791 
Q 2906 2416 2648 2759 
Q 2391 3103 1925 3103 
Q 1463 3103 1205 2759 
Q 947 2416 947 1791 
Q 947 1169 1205 825 
Q 1463 481 1925 481 
Q 2391 481 2648 825 
Q 2906 1169 2906 1791 
z
M 3481 434 
Q 3481 -459 3084 -895 
Q 2688 -1331 1869 -1331 
Q 1566 -1331 1297 -1286 
Q 1028 -1241 775 -1147 
L 775 -588 
Q 1028 -725 1275 -790 
Q 1522 -856 1778 -856 
Q 2344 -856 2625 -561 
Q 2906 -266 2906 331 
L 2906 616 
Q 2728 306 2450 153 
Q 2172 0 1784 0 
Q 1141 0 747 490 
Q 353 981 353 1791 
Q 353 2603 747 3093 
Q 1141 3584 1784 3584 
Q 2172 3584 2450 3431 
Q 2728 3278 2906 2969 
L 2906 3500 
L 3481 3500 
L 3481 434 
z
" transform="scale(0.015625)"/>
     </defs>
     <use xlink:href="#DejaVuSans-66"/>
     <use xlink:href="#DejaVuSans-69" x="35.205078"/>
     <use xlink:href="#DejaVuSans-78" x="62.988281"/>
     <use xlink:href="#DejaVuSans-65" x="119.042969"/>
     <use xlink:href="#DejaVuSans-64" x="180.566406"/>
     <use xlink:href="#DejaVuSans-5f" x="244.042969"/>
     <use xlink:href="#DejaVuSans-77" x="294.042969"/>
     <use xlink:href="#DejaVuSans-6f" x="375.830078"/>
     <use xlink:href="#DejaVuSans-6f" x="437.011719"/>
     <use xlink:href="#DejaVuSans-73" x="498.193359"/>
     <use xlink:href="#DejaVuSans-74" x="550.292969"/>
     <use xlink:href="#DejaVuSans-65" x="589.501953"/>
     <use xlink:href="#DejaVuSans-72" x="651.025391"/>
     <use xlink:href="#DejaVuSans-70" x="692.138672"/>
     <use xlink:href="#DejaVuSans-72" x="755.615234"/>
     <use xlink:href="#DejaVuSans-6f" x="794.478516"/>
     <use xlink:href="#DejaVuSans-62" x="855.660156"/>
     <use xlink:href="#DejaVuSans-65" x="919.136719"/>
     <use xlink:href="#DejaVuSans-5f" x="980.660156"/>
     <use xlink:href="#DejaVuSans-32" x="1030.660156"/>
     <use xlink:href="#DejaVuSans-61" x="1094.283203"/>
     <use xlink:href="#DejaVuSans-66" x="1155.5625"/>
     <use xlink:href="#DejaVuSans-63" x="1190.767578"/>
     <use xlink:href="#DejaVuSans-5f" x="1245.748047"/>
     <use xlink:href="#DejaVuSans-6f" x="1295.748047"/>
     <use xlink:href="#DejaVuSans-67" x="1356.929688"/>
    </g>
   </g>
   <g id="legend_1">
    <g id="patch_7">
     <path d="M 164.72125 271.48 
L 361.64 271.48 
Q 363.64 271.48 363.64 269.48 
L 363.64 135.87375 
Q 363.64 133.87375 361.64 133.87375 
L 164.72125 133.87375 
Q 162.72125 133.87375 162.72125 135.87375 
L 162.72125 269.48 
Q 162.72125 271.48 164.72125 271.48 
z
" style="fill: #ffffff; opacity: 0.8; stroke: #cccccc; stroke-linejoin: miter"/>
    </g>
    <g id="line2d_24">
     <path d="M 166.72125 141.972187 
L 176.72125 141.972187 
L 186.72125 141.972187 
" style="fill: none; stroke: #1f77b4; stroke-width: 1.5; stroke-linecap: square"/>
    </g>
    <g id="text_16">
     <!-- low_gauss_shape_to_color -->
     <g transform="translate(194.72125 145.472187) scale(0.1 -0.1)">
      <defs>
       <path id="DejaVuSans-6c" d="M 603 4863 
L 1178 4863 
L 1178 0 
L 603 0 
L 603 4863 
z
" transform="scale(0.015625)"/>
       <path id="DejaVuSans-75" d="M 544 1381 
L 544 3500 
L 1119 3500 
L 1119 1403 
Q 1119 906 1312 657 
Q 1506 409 1894 409 
Q 2359 409 2629 706 
Q 2900 1003 2900 1516 
L 2900 3500 
L 3475 3500 
L 3475 0 
L 2900 0 
L 2900 538 
Q 2691 219 2414 64 
Q 2138 -91 1772 -91 
Q 1169 -91 856 284 
Q 544 659 544 1381 
z
M 1991 3584 
L 1991 3584 
z
" transform="scale(0.015625)"/>
       <path id="DejaVuSans-68" d="M 3513 2113 
L 3513 0 
L 2938 0 
L 2938 2094 
Q 2938 2591 2744 2837 
Q 2550 3084 2163 3084 
Q 1697 3084 1428 2787 
Q 1159 2491 1159 1978 
L 1159 0 
L 581 0 
L 581 4863 
L 1159 4863 
L 1159 2956 
Q 1366 3272 1645 3428 
Q 1925 3584 2291 3584 
Q 2894 3584 3203 3211 
Q 3513 2838 3513 2113 
z
" transform="scale(0.015625)"/>
      </defs>
      <use xlink:href="#DejaVuSans-6c"/>
      <use xlink:href="#DejaVuSans-6f" x="27.783203"/>
      <use xlink:href="#DejaVuSans-77" x="88.964844"/>
      <use xlink:href="#DejaVuSans-5f" x="170.751953"/>
      <use xlink:href="#DejaVuSans-67" x="220.751953"/>
      <use xlink:href="#DejaVuSans-61" x="284.228516"/>
      <use xlink:href="#DejaVuSans-75" x="345.507812"/>
      <use xlink:href="#DejaVuSans-73" x="408.886719"/>
      <use xlink:href="#DejaVuSans-73" x="460.986328"/>
      <use xlink:href="#DejaVuSans-5f" x="513.085938"/>
      <use xlink:href="#DejaVuSans-73" x="563.085938"/>
      <use xlink:href="#DejaVuSans-68" x="615.185547"/>
      <use xlink:href="#DejaVuSans-61" x="678.564453"/>
      <use xlink:href="#DejaVuSans-70" x="739.84375"/>
      <use xlink:href="#DejaVuSans-65" x="803.320312"/>
      <use xlink:href="#DejaVuSans-5f" x="864.84375"/>
      <use xlink:href="#DejaVuSans-74" x="914.84375"/>
      <use xlink:href="#DejaVuSans-6f" x="954.052734"/>
      <use xlink:href="#DejaVuSans-5f" x="1015.234375"/>
      <use xlink:href="#DejaVuSans-63" x="1065.234375"/>
      <use xlink:href="#DejaVuSans-6f" x="1120.214844"/>
      <use xlink:href="#DejaVuSans-6c" x="1181.396484"/>
      <use xlink:href="#DejaVuSans-6f" x="1209.179688"/>
      <use xlink:href="#DejaVuSans-72" x="1270.361328"/>
     </g>
    </g>
    <g id="line2d_25">
     <path d="M 166.72125 156.928437 
L 176.72125 156.928437 
L 186.72125 156.928437 
" style="fill: none; stroke: #ff7f0e; stroke-width: 1.5; stroke-linecap: square"/>
    </g>
    <g id="text_17">
     <!-- focal_low_gauss_shape_to_color -->
     <g transform="translate(194.72125 160.428437) scale(0.1 -0.1)">
      <use xlink:href="#DejaVuSans-66"/>
      <use xlink:href="#DejaVuSans-6f" x="35.205078"/>
      <use xlink:href="#DejaVuSans-63" x="96.386719"/>
      <use xlink:href="#DejaVuSans-61" x="151.367188"/>
      <use xlink:href="#DejaVuSans-6c" x="212.646484"/>
      <use xlink:href="#DejaVuSans-5f" x="240.429688"/>
      <use xlink:href="#DejaVuSans-6c" x="290.429688"/>
      <use xlink:href="#DejaVuSans-6f" x="318.212891"/>
      <use xlink:href="#DejaVuSans-77" x="379.394531"/>
      <use xlink:href="#DejaVuSans-5f" x="461.181641"/>
      <use xlink:href="#DejaVuSans-67" x="511.181641"/>
      <use xlink:href="#DejaVuSans-61" x="574.658203"/>
      <use xlink:href="#DejaVuSans-75" x="635.9375"/>
      <use xlink:href="#DejaVuSans-73" x="699.316406"/>
      <use xlink:href="#DejaVuSans-73" x="751.416016"/>
      <use xlink:href="#DejaVuSans-5f" x="803.515625"/>
      <use xlink:href="#DejaVuSans-73" x="853.515625"/>
      <use xlink:href="#DejaVuSans-68" x="905.615234"/>
      <use xlink:href="#DejaVuSans-61" x="968.994141"/>
      <use xlink:href="#DejaVuSans-70" x="1030.273438"/>
      <use xlink:href="#DejaVuSans-65" x="1093.75"/>
      <use xlink:href="#DejaVuSans-5f" x="1155.273438"/>
      <use xlink:href="#DejaVuSans-74" x="1205.273438"/>
      <use xlink:href="#DejaVuSans-6f" x="1244.482422"/>
      <use xlink:href="#DejaVuSans-5f" x="1305.664062"/>
      <use xlink:href="#DejaVuSans-63" x="1355.664062"/>
      <use xlink:href="#DejaVuSans-6f" x="1410.644531"/>
      <use xlink:href="#DejaVuSans-6c" x="1471.826172"/>
      <use xlink:href="#DejaVuSans-6f" x="1499.609375"/>
      <use xlink:href="#DejaVuSans-72" x="1560.791016"/>
     </g>
    </g>
    <g id="line2d_26">
     <path d="M 166.72125 171.884687 
L 176.72125 171.884687 
L 186.72125 171.884687 
" style="fill: none; stroke: #2ca02c; stroke-width: 1.5; stroke-linecap: square"/>
    </g>
    <g id="text_18">
     <!-- high_gauss_shape_to_color -->
     <g transform="translate(194.72125 175.384687) scale(0.1 -0.1)">
      <use xlink:href="#DejaVuSans-68"/>
      <use xlink:href="#DejaVuSans-69" x="63.378906"/>
      <use xlink:href="#DejaVuSans-67" x="91.162109"/>
      <use xlink:href="#DejaVuSans-68" x="154.638672"/>
      <use xlink:href="#DejaVuSans-5f" x="218.017578"/>
      <use xlink:href="#DejaVuSans-67" x="268.017578"/>
      <use xlink:href="#DejaVuSans-61" x="331.494141"/>
      <use xlink:href="#DejaVuSans-75" x="392.773438"/>
      <use xlink:href="#DejaVuSans-73" x="456.152344"/>
      <use xlink:href="#DejaVuSans-73" x="508.251953"/>
      <use xlink:href="#DejaVuSans-5f" x="560.351562"/>
      <use xlink:href="#DejaVuSans-73" x="610.351562"/>
      <use xlink:href="#DejaVuSans-68" x="662.451172"/>
      <use xlink:href="#DejaVuSans-61" x="725.830078"/>
      <use xlink:href="#DejaVuSans-70" x="787.109375"/>
      <use xlink:href="#DejaVuSans-65" x="850.585938"/>
      <use xlink:href="#DejaVuSans-5f" x="912.109375"/>
      <use xlink:href="#DejaVuSans-74" x="962.109375"/>
      <use xlink:href="#DejaVuSans-6f" x="1001.318359"/>
      <use xlink:href="#DejaVuSans-5f" x="1062.5"/>
      <use xlink:href="#DejaVuSans-63" x="1112.5"/>
      <use xlink:href="#DejaVuSans-6f" x="1167.480469"/>
      <use xlink:href="#DejaVuSans-6c" x="1228.662109"/>
      <use xlink:href="#DejaVuSans-6f" x="1256.445312"/>
      <use xlink:href="#DejaVuSans-72" x="1317.626953"/>
     </g>
    </g>
    <g id="line2d_27">
     <path d="M 166.72125 186.840937 
L 176.72125 186.840937 
L 186.72125 186.840937 
" style="fill: none; stroke: #d62728; stroke-width: 1.5; stroke-linecap: square"/>
    </g>
    <g id="text_19">
     <!-- focal_high_gauss_shape_to_color -->
     <g transform="translate(194.72125 190.340937) scale(0.1 -0.1)">
      <use xlink:href="#DejaVuSans-66"/>
      <use xlink:href="#DejaVuSans-6f" x="35.205078"/>
      <use xlink:href="#DejaVuSans-63" x="96.386719"/>
      <use xlink:href="#DejaVuSans-61" x="151.367188"/>
      <use xlink:href="#DejaVuSans-6c" x="212.646484"/>
      <use xlink:href="#DejaVuSans-5f" x="240.429688"/>
      <use xlink:href="#DejaVuSans-68" x="290.429688"/>
      <use xlink:href="#DejaVuSans-69" x="353.808594"/>
      <use xlink:href="#DejaVuSans-67" x="381.591797"/>
      <use xlink:href="#DejaVuSans-68" x="445.068359"/>
      <use xlink:href="#DejaVuSans-5f" x="508.447266"/>
      <use xlink:href="#DejaVuSans-67" x="558.447266"/>
      <use xlink:href="#DejaVuSans-61" x="621.923828"/>
      <use xlink:href="#DejaVuSans-75" x="683.203125"/>
      <use xlink:href="#DejaVuSans-73" x="746.582031"/>
      <use xlink:href="#DejaVuSans-73" x="798.681641"/>
      <use xlink:href="#DejaVuSans-5f" x="850.78125"/>
      <use xlink:href="#DejaVuSans-73" x="900.78125"/>
      <use xlink:href="#DejaVuSans-68" x="952.880859"/>
      <use xlink:href="#DejaVuSans-61" x="1016.259766"/>
      <use xlink:href="#DejaVuSans-70" x="1077.539062"/>
      <use xlink:href="#DejaVuSans-65" x="1141.015625"/>
      <use xlink:href="#DejaVuSans-5f" x="1202.539062"/>
      <use xlink:href="#DejaVuSans-74" x="1252.539062"/>
      <use xlink:href="#DejaVuSans-6f" x="1291.748047"/>
      <use xlink:href="#DejaVuSans-5f" x="1352.929688"/>
      <use xlink:href="#DejaVuSans-63" x="1402.929688"/>
      <use xlink:href="#DejaVuSans-6f" x="1457.910156"/>
      <use xlink:href="#DejaVuSans-6c" x="1519.091797"/>
      <use xlink:href="#DejaVuSans-6f" x="1546.875"/>
      <use xlink:href="#DejaVuSans-72" x="1608.056641"/>
     </g>
    </g>
    <g id="line2d_28">
     <path d="M 166.72125 201.797188 
L 176.72125 201.797188 
L 186.72125 201.797188 
" style="fill: none; stroke: #9467bd; stroke-width: 1.5; stroke-linecap: square"/>
    </g>
    <g id="text_20">
     <!-- low_gauss_color_to_shape -->
     <g transform="translate(194.72125 205.297188) scale(0.1 -0.1)">
      <use xlink:href="#DejaVuSans-6c"/>
      <use xlink:href="#DejaVuSans-6f" x="27.783203"/>
      <use xlink:href="#DejaVuSans-77" x="88.964844"/>
      <use xlink:href="#DejaVuSans-5f" x="170.751953"/>
      <use xlink:href="#DejaVuSans-67" x="220.751953"/>
      <use xlink:href="#DejaVuSans-61" x="284.228516"/>
      <use xlink:href="#DejaVuSans-75" x="345.507812"/>
      <use xlink:href="#DejaVuSans-73" x="408.886719"/>
      <use xlink:href="#DejaVuSans-73" x="460.986328"/>
      <use xlink:href="#DejaVuSans-5f" x="513.085938"/>
      <use xlink:href="#DejaVuSans-63" x="563.085938"/>
      <use xlink:href="#DejaVuSans-6f" x="618.066406"/>
      <use xlink:href="#DejaVuSans-6c" x="679.248047"/>
      <use xlink:href="#DejaVuSans-6f" x="707.03125"/>
      <use xlink:href="#DejaVuSans-72" x="768.212891"/>
      <use xlink:href="#DejaVuSans-5f" x="809.326172"/>
      <use xlink:href="#DejaVuSans-74" x="859.326172"/>
      <use xlink:href="#DejaVuSans-6f" x="898.535156"/>
      <use xlink:href="#DejaVuSans-5f" x="959.716797"/>
      <use xlink:href="#DejaVuSans-73" x="1009.716797"/>
      <use xlink:href="#DejaVuSans-68" x="1061.816406"/>
      <use xlink:href="#DejaVuSans-61" x="1125.195312"/>
      <use xlink:href="#DejaVuSans-70" x="1186.474609"/>
      <use xlink:href="#DejaVuSans-65" x="1249.951172"/>
     </g>
    </g>
    <g id="line2d_29">
     <path d="M 166.72125 216.753437 
L 176.72125 216.753437 
L 186.72125 216.753437 
" style="fill: none; stroke: #8c564b; stroke-width: 1.5; stroke-linecap: square"/>
    </g>
    <g id="text_21">
     <!-- focal_low_gauss_color_to_shape -->
     <g transform="translate(194.72125 220.253437) scale(0.1 -0.1)">
      <use xlink:href="#DejaVuSans-66"/>
      <use xlink:href="#DejaVuSans-6f" x="35.205078"/>
      <use xlink:href="#DejaVuSans-63" x="96.386719"/>
      <use xlink:href="#DejaVuSans-61" x="151.367188"/>
      <use xlink:href="#DejaVuSans-6c" x="212.646484"/>
      <use xlink:href="#DejaVuSans-5f" x="240.429688"/>
      <use xlink:href="#DejaVuSans-6c" x="290.429688"/>
      <use xlink:href="#DejaVuSans-6f" x="318.212891"/>
      <use xlink:href="#DejaVuSans-77" x="379.394531"/>
      <use xlink:href="#DejaVuSans-5f" x="461.181641"/>
      <use xlink:href="#DejaVuSans-67" x="511.181641"/>
      <use xlink:href="#DejaVuSans-61" x="574.658203"/>
      <use xlink:href="#DejaVuSans-75" x="635.9375"/>
      <use xlink:href="#DejaVuSans-73" x="699.316406"/>
      <use xlink:href="#DejaVuSans-73" x="751.416016"/>
      <use xlink:href="#DejaVuSans-5f" x="803.515625"/>
      <use xlink:href="#DejaVuSans-63" x="853.515625"/>
      <use xlink:href="#DejaVuSans-6f" x="908.496094"/>
      <use xlink:href="#DejaVuSans-6c" x="969.677734"/>
      <use xlink:href="#DejaVuSans-6f" x="997.460938"/>
      <use xlink:href="#DejaVuSans-72" x="1058.642578"/>
      <use xlink:href="#DejaVuSans-5f" x="1099.755859"/>
      <use xlink:href="#DejaVuSans-74" x="1149.755859"/>
      <use xlink:href="#DejaVuSans-6f" x="1188.964844"/>
      <use xlink:href="#DejaVuSans-5f" x="1250.146484"/>
      <use xlink:href="#DejaVuSans-73" x="1300.146484"/>
      <use xlink:href="#DejaVuSans-68" x="1352.246094"/>
      <use xlink:href="#DejaVuSans-61" x="1415.625"/>
      <use xlink:href="#DejaVuSans-70" x="1476.904297"/>
      <use xlink:href="#DejaVuSans-65" x="1540.380859"/>
     </g>
    </g>
    <g id="line2d_30">
     <path d="M 166.72125 231.709687 
L 176.72125 231.709687 
L 186.72125 231.709687 
" style="fill: none; stroke: #e377c2; stroke-width: 1.5; stroke-linecap: square"/>
    </g>
    <g id="text_22">
     <!-- high_gauss_color_to_shape -->
     <g transform="translate(194.72125 235.209687) scale(0.1 -0.1)">
      <use xlink:href="#DejaVuSans-68"/>
      <use xlink:href="#DejaVuSans-69" x="63.378906"/>
      <use xlink:href="#DejaVuSans-67" x="91.162109"/>
      <use xlink:href="#DejaVuSans-68" x="154.638672"/>
      <use xlink:href="#DejaVuSans-5f" x="218.017578"/>
      <use xlink:href="#DejaVuSans-67" x="268.017578"/>
      <use xlink:href="#DejaVuSans-61" x="331.494141"/>
      <use xlink:href="#DejaVuSans-75" x="392.773438"/>
      <use xlink:href="#DejaVuSans-73" x="456.152344"/>
      <use xlink:href="#DejaVuSans-73" x="508.251953"/>
      <use xlink:href="#DejaVuSans-5f" x="560.351562"/>
      <use xlink:href="#DejaVuSans-63" x="610.351562"/>
      <use xlink:href="#DejaVuSans-6f" x="665.332031"/>
      <use xlink:href="#DejaVuSans-6c" x="726.513672"/>
      <use xlink:href="#DejaVuSans-6f" x="754.296875"/>
      <use xlink:href="#DejaVuSans-72" x="815.478516"/>
      <use xlink:href="#DejaVuSans-5f" x="856.591797"/>
      <use xlink:href="#DejaVuSans-74" x="906.591797"/>
      <use xlink:href="#DejaVuSans-6f" x="945.800781"/>
      <use xlink:href="#DejaVuSans-5f" x="1006.982422"/>
      <use xlink:href="#DejaVuSans-73" x="1056.982422"/>
      <use xlink:href="#DejaVuSans-68" x="1109.082031"/>
      <use xlink:href="#DejaVuSans-61" x="1172.460938"/>
      <use xlink:href="#DejaVuSans-70" x="1233.740234"/>
      <use xlink:href="#DejaVuSans-65" x="1297.216797"/>
     </g>
    </g>
    <g id="line2d_31">
     <path d="M 166.72125 246.665937 
L 176.72125 246.665937 
L 186.72125 246.665937 
" style="fill: none; stroke: #7f7f7f; stroke-width: 1.5; stroke-linecap: square"/>
    </g>
    <g id="text_23">
     <!-- focal_high_gauss_color_to_shape -->
     <g transform="translate(194.72125 250.165937) scale(0.1 -0.1)">
      <use xlink:href="#DejaVuSans-66"/>
      <use xlink:href="#DejaVuSans-6f" x="35.205078"/>
      <use xlink:href="#DejaVuSans-63" x="96.386719"/>
      <use xlink:href="#DejaVuSans-61" x="151.367188"/>
      <use xlink:href="#DejaVuSans-6c" x="212.646484"/>
      <use xlink:href="#DejaVuSans-5f" x="240.429688"/>
      <use xlink:href="#DejaVuSans-68" x="290.429688"/>
      <use xlink:href="#DejaVuSans-69" x="353.808594"/>
      <use xlink:href="#DejaVuSans-67" x="381.591797"/>
      <use xlink:href="#DejaVuSans-68" x="445.068359"/>
      <use xlink:href="#DejaVuSans-5f" x="508.447266"/>
      <use xlink:href="#DejaVuSans-67" x="558.447266"/>
      <use xlink:href="#DejaVuSans-61" x="621.923828"/>
      <use xlink:href="#DejaVuSans-75" x="683.203125"/>
      <use xlink:href="#DejaVuSans-73" x="746.582031"/>
      <use xlink:href="#DejaVuSans-73" x="798.681641"/>
      <use xlink:href="#DejaVuSans-5f" x="850.78125"/>
      <use xlink:href="#DejaVuSans-63" x="900.78125"/>
      <use xlink:href="#DejaVuSans-6f" x="955.761719"/>
      <use xlink:href="#DejaVuSans-6c" x="1016.943359"/>
      <use xlink:href="#DejaVuSans-6f" x="1044.726562"/>
      <use xlink:href="#DejaVuSans-72" x="1105.908203"/>
      <use xlink:href="#DejaVuSans-5f" x="1147.021484"/>
      <use xlink:href="#DejaVuSans-74" x="1197.021484"/>
      <use xlink:href="#DejaVuSans-6f" x="1236.230469"/>
      <use xlink:href="#DejaVuSans-5f" x="1297.412109"/>
      <use xlink:href="#DejaVuSans-73" x="1347.412109"/>
      <use xlink:href="#DejaVuSans-68" x="1399.511719"/>
      <use xlink:href="#DejaVuSans-61" x="1462.890625"/>
      <use xlink:href="#DejaVuSans-70" x="1524.169922"/>
      <use xlink:href="#DejaVuSans-65" x="1587.646484"/>
     </g>
    </g>
    <g id="line2d_32">
     <path d="M 166.72125 261.622187 
L 176.72125 261.622187 
L 186.72125 261.622187 
" style="fill: none; stroke: #bcbd22; stroke-width: 1.5; stroke-linecap: square"/>
    </g>
    <g id="text_24">
     <!-- achromatic_shape_to_shape -->
     <g transform="translate(194.72125 265.122187) scale(0.1 -0.1)">
      <defs>
       <path id="DejaVuSans-6d" d="M 3328 2828 
Q 3544 3216 3844 3400 
Q 4144 3584 4550 3584 
Q 5097 3584 5394 3201 
Q 5691 2819 5691 2113 
L 5691 0 
L 5113 0 
L 5113 2094 
Q 5113 2597 4934 2840 
Q 4756 3084 4391 3084 
Q 3944 3084 3684 2787 
Q 3425 2491 3425 1978 
L 3425 0 
L 2847 0 
L 2847 2094 
Q 2847 2600 2669 2842 
Q 2491 3084 2119 3084 
Q 1678 3084 1418 2786 
Q 1159 2488 1159 1978 
L 1159 0 
L 581 0 
L 581 3500 
L 1159 3500 
L 1159 2956 
Q 1356 3278 1631 3431 
Q 1906 3584 2284 3584 
Q 2666 3584 2933 3390 
Q 3200 3197 3328 2828 
z
" transform="scale(0.015625)"/>
      </defs>
      <use xlink:href="#DejaVuSans-61"/>
      <use xlink:href="#DejaVuSans-63" x="61.279297"/>
      <use xlink:href="#DejaVuSans-68" x="116.259766"/>
      <use xlink:href="#DejaVuSans-72" x="179.638672"/>
      <use xlink:href="#DejaVuSans-6f" x="218.501953"/>
      <use xlink:href="#DejaVuSans-6d" x="279.683594"/>
      <use xlink:href="#DejaVuSans-61" x="377.095703"/>
      <use xlink:href="#DejaVuSans-74" x="438.375"/>
      <use xlink:href="#DejaVuSans-69" x="477.583984"/>
      <use xlink:href="#DejaVuSans-63" x="505.367188"/>
      <use xlink:href="#DejaVuSans-5f" x="560.347656"/>
      <use xlink:href="#DejaVuSans-73" x="610.347656"/>
      <use xlink:href="#DejaVuSans-68" x="662.447266"/>
      <use xlink:href="#DejaVuSans-61" x="725.826172"/>
      <use xlink:href="#DejaVuSans-70" x="787.105469"/>
      <use xlink:href="#DejaVuSans-65" x="850.582031"/>
      <use xlink:href="#DejaVuSans-5f" x="912.105469"/>
      <use xlink:href="#DejaVuSans-74" x="962.105469"/>
      <use xlink:href="#DejaVuSans-6f" x="1001.314453"/>
      <use xlink:href="#DejaVuSans-5f" x="1062.496094"/>
      <use xlink:href="#DejaVuSans-73" x="1112.496094"/>
      <use xlink:href="#DejaVuSans-68" x="1164.595703"/>
      <use xlink:href="#DejaVuSans-61" x="1227.974609"/>
      <use xlink:href="#DejaVuSans-70" x="1289.253906"/>
      <use xlink:href="#DejaVuSans-65" x="1352.730469"/>
     </g>
    </g>
   </g>
  </g>
 </g>
 <defs>
  <clipPath id="ped30396b84">
   <rect x="92.16" y="69.12" width="276.48" height="207.36"/>
  </clipPath>
 </defs>
</svg>
