<?xml version="1.0" encoding="utf-8" standalone="no"?>
<!DOCTYPE svg PUBLIC "-//W3C//DTD SVG 1.1//EN"
  "http://www.w3.org/Graphics/SVG/1.1/DTD/svg11.dtd">
<svg xmlns:xlink="http://www.w3.org/1999/xlink" width="460.8pt" height="345.6pt" viewBox="0 0 460.8 345.6" xmlns="http://www.w3.org/2000/svg" version="1.1">
 <metadata>
  <rdf:RDF xmlns:dc="http://purl.org/dc/elements/1.1/" xmlns:cc="http://creativecommons.org/ns#" xmlns:rdf="http://www.w3.org/1999/02/22-rdf-syntax-ns#">
   <cc:Work>
    <dc:type rdf:resource="http://purl.org/dc/dcmitype/StillImage"/>
    <dc:date>2023-09-28T11:47:10.884378</dc:date>
    <dc:format>image/svg+xml</dc:format>
    <dc:creator>
     <cc:Agent>
      <dc:title>Matplotlib v3.7.1, https://matplotlib.org/</dc:title>
     </cc:Agent>
    </dc:creator>
   </cc:Work>
  </rdf:RDF>
 </metadata>
 <defs>
  <style type="text/css">*{stroke-linejoin: round; stroke-linecap: butt}</style>
 </defs>
 <g id="figure_1">
  <g id="patch_1">
   <path d="M 0 345.6 
L 460.8 345.6 
L 460.8 0 
L 0 0 
z
" style="fill: #ffffff"/>
  </g>
  <g id="axes_1">
   <g id="patch_2">
    <path d="M 92.16 276.48 
L 368.64 276.48 
L 368.64 69.12 
L 92.16 69.12 
z
" style="fill: #ffffff"/>
   </g>
   <g id="matplotlib.axis_1">
    <g id="xtick_1">
     <g id="line2d_1">
      <defs>
       <path id="mf0bc331b55" d="M 0 0 
L 0 3.5 
" style="stroke: #000000; stroke-width: 0.8"/>
      </defs>
      <g>
       <use xlink:href="#mf0bc331b55" x="104.727273" y="276.48" style="stroke: #000000; stroke-width: 0.8"/>
      </g>
     </g>
     <g id="text_1">
      <!-- 0 -->
      <g transform="translate(101.546023 291.078437) scale(0.1 -0.1)">
       <defs>
        <path id="DejaVuSans-30" d="M 2034 4250 
Q 1547 4250 1301 3770 
Q 1056 3291 1056 2328 
Q 1056 1369 1301 889 
Q 1547 409 2034 409 
Q 2525 409 2770 889 
Q 3016 1369 3016 2328 
Q 3016 3291 2770 3770 
Q 2525 4250 2034 4250 
z
M 2034 4750 
Q 2819 4750 3233 4129 
Q 3647 3509 3647 2328 
Q 3647 1150 3233 529 
Q 2819 -91 2034 -91 
Q 1250 -91 836 529 
Q 422 1150 422 2328 
Q 422 3509 836 4129 
Q 1250 4750 2034 4750 
z
" transform="scale(0.015625)"/>
       </defs>
       <use xlink:href="#DejaVuSans-30"/>
      </g>
     </g>
    </g>
    <g id="xtick_2">
     <g id="line2d_2">
      <g>
       <use xlink:href="#mf0bc331b55" x="136.664433" y="276.48" style="stroke: #000000; stroke-width: 0.8"/>
      </g>
     </g>
     <g id="text_2">
      <!-- 200 -->
      <g transform="translate(127.120683 291.078437) scale(0.1 -0.1)">
       <defs>
        <path id="DejaVuSans-32" d="M 1228 531 
L 3431 531 
L 3431 0 
L 469 0 
L 469 531 
Q 828 903 1448 1529 
Q 2069 2156 2228 2338 
Q 2531 2678 2651 2914 
Q 2772 3150 2772 3378 
Q 2772 3750 2511 3984 
Q 2250 4219 1831 4219 
Q 1534 4219 1204 4116 
Q 875 4013 500 3803 
L 500 4441 
Q 881 4594 1212 4672 
Q 1544 4750 1819 4750 
Q 2544 4750 2975 4387 
Q 3406 4025 3406 3419 
Q 3406 3131 3298 2873 
Q 3191 2616 2906 2266 
Q 2828 2175 2409 1742 
Q 1991 1309 1228 531 
z
" transform="scale(0.015625)"/>
       </defs>
       <use xlink:href="#DejaVuSans-32"/>
       <use xlink:href="#DejaVuSans-30" x="63.623047"/>
       <use xlink:href="#DejaVuSans-30" x="127.246094"/>
      </g>
     </g>
    </g>
    <g id="xtick_3">
     <g id="line2d_3">
      <g>
       <use xlink:href="#mf0bc331b55" x="168.601594" y="276.48" style="stroke: #000000; stroke-width: 0.8"/>
      </g>
     </g>
     <g id="text_3">
      <!-- 400 -->
      <g transform="translate(159.057844 291.078437) scale(0.1 -0.1)">
       <defs>
        <path id="DejaVuSans-34" d="M 2419 4116 
L 825 1625 
L 2419 1625 
L 2419 4116 
z
M 2253 4666 
L 3047 4666 
L 3047 1625 
L 3713 1625 
L 3713 1100 
L 3047 1100 
L 3047 0 
L 2419 0 
L 2419 1100 
L 313 1100 
L 313 1709 
L 2253 4666 
z
" transform="scale(0.015625)"/>
       </defs>
       <use xlink:href="#DejaVuSans-34"/>
       <use xlink:href="#DejaVuSans-30" x="63.623047"/>
       <use xlink:href="#DejaVuSans-30" x="127.246094"/>
      </g>
     </g>
    </g>
    <g id="xtick_4">
     <g id="line2d_4">
      <g>
       <use xlink:href="#mf0bc331b55" x="200.538755" y="276.48" style="stroke: #000000; stroke-width: 0.8"/>
      </g>
     </g>
     <g id="text_4">
      <!-- 600 -->
      <g transform="translate(190.995005 291.078437) scale(0.1 -0.1)">
       <defs>
        <path id="DejaVuSans-36" d="M 2113 2584 
Q 1688 2584 1439 2293 
Q 1191 2003 1191 1497 
Q 1191 994 1439 701 
Q 1688 409 2113 409 
Q 2538 409 2786 701 
Q 3034 994 3034 1497 
Q 3034 2003 2786 2293 
Q 2538 2584 2113 2584 
z
M 3366 4563 
L 3366 3988 
Q 3128 4100 2886 4159 
Q 2644 4219 2406 4219 
Q 1781 4219 1451 3797 
Q 1122 3375 1075 2522 
Q 1259 2794 1537 2939 
Q 1816 3084 2150 3084 
Q 2853 3084 3261 2657 
Q 3669 2231 3669 1497 
Q 3669 778 3244 343 
Q 2819 -91 2113 -91 
Q 1303 -91 875 529 
Q 447 1150 447 2328 
Q 447 3434 972 4092 
Q 1497 4750 2381 4750 
Q 2619 4750 2861 4703 
Q 3103 4656 3366 4563 
z
" transform="scale(0.015625)"/>
       </defs>
       <use xlink:href="#DejaVuSans-36"/>
       <use xlink:href="#DejaVuSans-30" x="63.623047"/>
       <use xlink:href="#DejaVuSans-30" x="127.246094"/>
      </g>
     </g>
    </g>
    <g id="xtick_5">
     <g id="line2d_5">
      <g>
       <use xlink:href="#mf0bc331b55" x="232.475915" y="276.48" style="stroke: #000000; stroke-width: 0.8"/>
      </g>
     </g>
     <g id="text_5">
      <!-- 800 -->
      <g transform="translate(222.932165 291.078437) scale(0.1 -0.1)">
       <defs>
        <path id="DejaVuSans-38" d="M 2034 2216 
Q 1584 2216 1326 1975 
Q 1069 1734 1069 1313 
Q 1069 891 1326 650 
Q 1584 409 2034 409 
Q 2484 409 2743 651 
Q 3003 894 3003 1313 
Q 3003 1734 2745 1975 
Q 2488 2216 2034 2216 
z
M 1403 2484 
Q 997 2584 770 2862 
Q 544 3141 544 3541 
Q 544 4100 942 4425 
Q 1341 4750 2034 4750 
Q 2731 4750 3128 4425 
Q 3525 4100 3525 3541 
Q 3525 3141 3298 2862 
Q 3072 2584 2669 2484 
Q 3125 2378 3379 2068 
Q 3634 1759 3634 1313 
Q 3634 634 3220 271 
Q 2806 -91 2034 -91 
Q 1263 -91 848 271 
Q 434 634 434 1313 
Q 434 1759 690 2068 
Q 947 2378 1403 2484 
z
M 1172 3481 
Q 1172 3119 1398 2916 
Q 1625 2713 2034 2713 
Q 2441 2713 2670 2916 
Q 2900 3119 2900 3481 
Q 2900 3844 2670 4047 
Q 2441 4250 2034 4250 
Q 1625 4250 1398 4047 
Q 1172 3844 1172 3481 
z
" transform="scale(0.015625)"/>
       </defs>
       <use xlink:href="#DejaVuSans-38"/>
       <use xlink:href="#DejaVuSans-30" x="63.623047"/>
       <use xlink:href="#DejaVuSans-30" x="127.246094"/>
      </g>
     </g>
    </g>
    <g id="xtick_6">
     <g id="line2d_6">
      <g>
       <use xlink:href="#mf0bc331b55" x="264.413076" y="276.48" style="stroke: #000000; stroke-width: 0.8"/>
      </g>
     </g>
     <g id="text_6">
      <!-- 1000 -->
      <g transform="translate(251.688076 291.078437) scale(0.1 -0.1)">
       <defs>
        <path id="DejaVuSans-31" d="M 794 531 
L 1825 531 
L 1825 4091 
L 703 3866 
L 703 4441 
L 1819 4666 
L 2450 4666 
L 2450 531 
L 3481 531 
L 3481 0 
L 794 0 
L 794 531 
z
" transform="scale(0.015625)"/>
       </defs>
       <use xlink:href="#DejaVuSans-31"/>
       <use xlink:href="#DejaVuSans-30" x="63.623047"/>
       <use xlink:href="#DejaVuSans-30" x="127.246094"/>
       <use xlink:href="#DejaVuSans-30" x="190.869141"/>
      </g>
     </g>
    </g>
    <g id="xtick_7">
     <g id="line2d_7">
      <g>
       <use xlink:href="#mf0bc331b55" x="296.350237" y="276.48" style="stroke: #000000; stroke-width: 0.8"/>
      </g>
     </g>
     <g id="text_7">
      <!-- 1200 -->
      <g transform="translate(283.625237 291.078437) scale(0.1 -0.1)">
       <use xlink:href="#DejaVuSans-31"/>
       <use xlink:href="#DejaVuSans-32" x="63.623047"/>
       <use xlink:href="#DejaVuSans-30" x="127.246094"/>
       <use xlink:href="#DejaVuSans-30" x="190.869141"/>
      </g>
     </g>
    </g>
    <g id="xtick_8">
     <g id="line2d_8">
      <g>
       <use xlink:href="#mf0bc331b55" x="328.287397" y="276.48" style="stroke: #000000; stroke-width: 0.8"/>
      </g>
     </g>
     <g id="text_8">
      <!-- 1400 -->
      <g transform="translate(315.562397 291.078437) scale(0.1 -0.1)">
       <use xlink:href="#DejaVuSans-31"/>
       <use xlink:href="#DejaVuSans-34" x="63.623047"/>
       <use xlink:href="#DejaVuSans-30" x="127.246094"/>
       <use xlink:href="#DejaVuSans-30" x="190.869141"/>
      </g>
     </g>
    </g>
    <g id="xtick_9">
     <g id="line2d_9">
      <g>
       <use xlink:href="#mf0bc331b55" x="360.224558" y="276.48" style="stroke: #000000; stroke-width: 0.8"/>
      </g>
     </g>
     <g id="text_9">
      <!-- 1600 -->
      <g transform="translate(347.499558 291.078437) scale(0.1 -0.1)">
       <use xlink:href="#DejaVuSans-31"/>
       <use xlink:href="#DejaVuSans-36" x="63.623047"/>
       <use xlink:href="#DejaVuSans-30" x="127.246094"/>
       <use xlink:href="#DejaVuSans-30" x="190.869141"/>
      </g>
     </g>
    </g>
   </g>
   <g id="matplotlib.axis_2">
    <g id="ytick_1">
     <g id="line2d_10">
      <defs>
       <path id="m8883df2ddc" d="M 0 0 
L -3.5 0 
" style="stroke: #000000; stroke-width: 0.8"/>
      </defs>
      <g>
       <use xlink:href="#m8883df2ddc" x="92.16" y="274.399055" style="stroke: #000000; stroke-width: 0.8"/>
      </g>
     </g>
     <g id="text_10">
      <!-- 0.60 -->
      <g transform="translate(62.894375 278.198274) scale(0.1 -0.1)">
       <defs>
        <path id="DejaVuSans-2e" d="M 684 794 
L 1344 794 
L 1344 0 
L 684 0 
L 684 794 
z
" transform="scale(0.015625)"/>
       </defs>
       <use xlink:href="#DejaVuSans-30"/>
       <use xlink:href="#DejaVuSans-2e" x="63.623047"/>
       <use xlink:href="#DejaVuSans-36" x="95.410156"/>
       <use xlink:href="#DejaVuSans-30" x="159.033203"/>
      </g>
     </g>
    </g>
    <g id="ytick_2">
     <g id="line2d_11">
      <g>
       <use xlink:href="#m8883df2ddc" x="92.16" y="249.917355" style="stroke: #000000; stroke-width: 0.8"/>
      </g>
     </g>
     <g id="text_11">
      <!-- 0.65 -->
      <g transform="translate(62.894375 253.716574) scale(0.1 -0.1)">
       <defs>
        <path id="DejaVuSans-35" d="M 691 4666 
L 3169 4666 
L 3169 4134 
L 1269 4134 
L 1269 2991 
Q 1406 3038 1543 3061 
Q 1681 3084 1819 3084 
Q 2600 3084 3056 2656 
Q 3513 2228 3513 1497 
Q 3513 744 3044 326 
Q 2575 -91 1722 -91 
Q 1428 -91 1123 -41 
Q 819 9 494 109 
L 494 744 
Q 775 591 1075 516 
Q 1375 441 1709 441 
Q 2250 441 2565 725 
Q 2881 1009 2881 1497 
Q 2881 1984 2565 2268 
Q 2250 2553 1709 2553 
Q 1456 2553 1204 2497 
Q 953 2441 691 2322 
L 691 4666 
z
" transform="scale(0.015625)"/>
       </defs>
       <use xlink:href="#DejaVuSans-30"/>
       <use xlink:href="#DejaVuSans-2e" x="63.623047"/>
       <use xlink:href="#DejaVuSans-36" x="95.410156"/>
       <use xlink:href="#DejaVuSans-35" x="159.033203"/>
      </g>
     </g>
    </g>
    <g id="ytick_3">
     <g id="line2d_12">
      <g>
       <use xlink:href="#m8883df2ddc" x="92.16" y="225.435655" style="stroke: #000000; stroke-width: 0.8"/>
      </g>
     </g>
     <g id="text_12">
      <!-- 0.70 -->
      <g transform="translate(62.894375 229.234874) scale(0.1 -0.1)">
       <defs>
        <path id="DejaVuSans-37" d="M 525 4666 
L 3525 4666 
L 3525 4397 
L 1831 0 
L 1172 0 
L 2766 4134 
L 525 4134 
L 525 4666 
z
" transform="scale(0.015625)"/>
       </defs>
       <use xlink:href="#DejaVuSans-30"/>
       <use xlink:href="#DejaVuSans-2e" x="63.623047"/>
       <use xlink:href="#DejaVuSans-37" x="95.410156"/>
       <use xlink:href="#DejaVuSans-30" x="159.033203"/>
      </g>
     </g>
    </g>
    <g id="ytick_4">
     <g id="line2d_13">
      <g>
       <use xlink:href="#m8883df2ddc" x="92.16" y="200.953955" style="stroke: #000000; stroke-width: 0.8"/>
      </g>
     </g>
     <g id="text_13">
      <!-- 0.75 -->
      <g transform="translate(62.894375 204.753174) scale(0.1 -0.1)">
       <use xlink:href="#DejaVuSans-30"/>
       <use xlink:href="#DejaVuSans-2e" x="63.623047"/>
       <use xlink:href="#DejaVuSans-37" x="95.410156"/>
       <use xlink:href="#DejaVuSans-35" x="159.033203"/>
      </g>
     </g>
    </g>
    <g id="ytick_5">
     <g id="line2d_14">
      <g>
       <use xlink:href="#m8883df2ddc" x="92.16" y="176.472255" style="stroke: #000000; stroke-width: 0.8"/>
      </g>
     </g>
     <g id="text_14">
      <!-- 0.80 -->
      <g transform="translate(62.894375 180.271474) scale(0.1 -0.1)">
       <use xlink:href="#DejaVuSans-30"/>
       <use xlink:href="#DejaVuSans-2e" x="63.623047"/>
       <use xlink:href="#DejaVuSans-38" x="95.410156"/>
       <use xlink:href="#DejaVuSans-30" x="159.033203"/>
      </g>
     </g>
    </g>
    <g id="ytick_6">
     <g id="line2d_15">
      <g>
       <use xlink:href="#m8883df2ddc" x="92.16" y="151.990555" style="stroke: #000000; stroke-width: 0.8"/>
      </g>
     </g>
     <g id="text_15">
      <!-- 0.85 -->
      <g transform="translate(62.894375 155.789774) scale(0.1 -0.1)">
       <use xlink:href="#DejaVuSans-30"/>
       <use xlink:href="#DejaVuSans-2e" x="63.623047"/>
       <use xlink:href="#DejaVuSans-38" x="95.410156"/>
       <use xlink:href="#DejaVuSans-35" x="159.033203"/>
      </g>
     </g>
    </g>
    <g id="ytick_7">
     <g id="line2d_16">
      <g>
       <use xlink:href="#m8883df2ddc" x="92.16" y="127.508855" style="stroke: #000000; stroke-width: 0.8"/>
      </g>
     </g>
     <g id="text_16">
      <!-- 0.90 -->
      <g transform="translate(62.894375 131.308074) scale(0.1 -0.1)">
       <defs>
        <path id="DejaVuSans-39" d="M 703 97 
L 703 672 
Q 941 559 1184 500 
Q 1428 441 1663 441 
Q 2288 441 2617 861 
Q 2947 1281 2994 2138 
Q 2813 1869 2534 1725 
Q 2256 1581 1919 1581 
Q 1219 1581 811 2004 
Q 403 2428 403 3163 
Q 403 3881 828 4315 
Q 1253 4750 1959 4750 
Q 2769 4750 3195 4129 
Q 3622 3509 3622 2328 
Q 3622 1225 3098 567 
Q 2575 -91 1691 -91 
Q 1453 -91 1209 -44 
Q 966 3 703 97 
z
M 1959 2075 
Q 2384 2075 2632 2365 
Q 2881 2656 2881 3163 
Q 2881 3666 2632 3958 
Q 2384 4250 1959 4250 
Q 1534 4250 1286 3958 
Q 1038 3666 1038 3163 
Q 1038 2656 1286 2365 
Q 1534 2075 1959 2075 
z
" transform="scale(0.015625)"/>
       </defs>
       <use xlink:href="#DejaVuSans-30"/>
       <use xlink:href="#DejaVuSans-2e" x="63.623047"/>
       <use xlink:href="#DejaVuSans-39" x="95.410156"/>
       <use xlink:href="#DejaVuSans-30" x="159.033203"/>
      </g>
     </g>
    </g>
    <g id="ytick_8">
     <g id="line2d_17">
      <g>
       <use xlink:href="#m8883df2ddc" x="92.16" y="103.027155" style="stroke: #000000; stroke-width: 0.8"/>
      </g>
     </g>
     <g id="text_17">
      <!-- 0.95 -->
      <g transform="translate(62.894375 106.826373) scale(0.1 -0.1)">
       <use xlink:href="#DejaVuSans-30"/>
       <use xlink:href="#DejaVuSans-2e" x="63.623047"/>
       <use xlink:href="#DejaVuSans-39" x="95.410156"/>
       <use xlink:href="#DejaVuSans-35" x="159.033203"/>
      </g>
     </g>
    </g>
    <g id="ytick_9">
     <g id="line2d_18">
      <g>
       <use xlink:href="#m8883df2ddc" x="92.16" y="78.545455" style="stroke: #000000; stroke-width: 0.8"/>
      </g>
     </g>
     <g id="text_18">
      <!-- 1.00 -->
      <g transform="translate(62.894375 82.344673) scale(0.1 -0.1)">
       <use xlink:href="#DejaVuSans-31"/>
       <use xlink:href="#DejaVuSans-2e" x="63.623047"/>
       <use xlink:href="#DejaVuSans-30" x="95.410156"/>
       <use xlink:href="#DejaVuSans-30" x="159.033203"/>
      </g>
     </g>
    </g>
   </g>
   <g id="line2d_19">
    <path d="M 104.727273 151.990555 
L 105.20633 151.990555 
L 105.366016 149.542385 
L 105.525702 151.990555 
L 106.004759 151.990555 
L 106.164445 149.542385 
L 106.483817 149.542385 
L 106.643502 147.094215 
L 106.962874 147.094215 
L 107.12256 144.646045 
L 107.282246 144.646045 
L 107.441931 142.197875 
L 108.080675 142.197875 
L 108.24036 144.646045 
L 108.400046 142.197875 
L 109.517847 142.197875 
L 109.677533 144.646045 
L 109.837218 142.197875 
L 109.996904 142.197875 
L 110.15659 144.646045 
L 110.316276 142.197875 
L 111.114705 142.197875 
L 111.274391 139.749705 
L 111.753448 139.749705 
L 111.913134 137.301535 
L 115.745593 137.301535 
L 115.905279 139.749705 
L 116.064965 139.749705 
L 116.224651 137.301535 
L 116.703708 137.301535 
L 116.863394 134.853365 
L 119.578052 134.853365 
L 119.737738 132.405195 
L 121.653968 132.405195 
L 121.813654 129.957025 
L 121.973339 129.957025 
L 122.133025 132.405195 
L 123.09114 132.405195 
L 123.250826 134.853365 
L 124.528312 134.853365 
L 124.687998 132.405195 
L 125.00737 132.405195 
L 125.167056 134.853365 
L 125.326741 132.405195 
L 128.839829 132.405195 
L 128.999515 129.957025 
L 129.478572 129.957025 
L 129.638258 127.508855 
L 130.117315 127.508855 
L 130.277001 125.060685 
L 131.07543 125.060685 
L 131.235116 122.612515 
L 132.831974 122.612515 
L 132.99166 125.060685 
L 133.151346 122.612515 
L 133.949775 122.612515 
L 134.109461 120.164345 
L 134.269146 120.164345 
L 134.428832 117.716175 
L 134.748204 117.716175 
L 134.90789 115.268005 
L 135.227261 115.268005 
L 135.386947 112.819835 
L 136.02569 112.819835 
L 136.185376 110.371665 
L 137.303177 110.371665 
L 137.462862 107.923495 
L 140.017835 107.923495 
L 140.177521 105.475325 
L 141.455008 105.475325 
L 141.614693 103.027155 
L 141.934065 103.027155 
L 142.093751 100.578985 
L 144.329352 100.578985 
L 144.489038 98.130815 
L 144.968095 98.130815 
L 145.127781 100.578985 
L 145.287467 100.578985 
L 145.447153 98.130815 
L 146.884325 98.130815 
L 147.044011 100.578985 
L 147.523068 100.578985 
L 147.682754 103.027155 
L 147.84244 100.578985 
L 152.473328 100.578985 
L 152.633014 103.027155 
L 152.952385 103.027155 
L 153.112071 105.475325 
L 153.9105 105.475325 
L 154.070186 103.027155 
L 156.94453 103.027155 
L 157.104216 100.578985 
L 157.263902 100.578985 
L 157.423588 103.027155 
L 158.062331 103.027155 
L 158.222017 105.475325 
L 159.818875 105.475325 
L 159.978561 103.027155 
L 163.012591 103.027155 
L 163.331963 107.923495 
L 163.491648 107.923495 
L 163.651334 105.475325 
L 164.769135 105.475325 
L 164.928821 103.027155 
L 167.324108 103.027155 
L 167.483793 105.475325 
L 169.240337 105.475325 
L 169.400023 107.923495 
L 170.996881 107.923495 
L 171.156567 110.371665 
L 175.148712 110.371665 
L 175.308398 112.819835 
L 176.905256 112.819835 
L 177.064942 110.371665 
L 178.821486 110.371665 
L 178.981171 107.923495 
L 179.460229 107.923495 
L 179.619915 105.475325 
L 184.410489 105.475325 
L 184.570174 103.027155 
L 186.965461 103.027155 
L 187.125147 100.578985 
L 188.722005 100.578985 
L 188.881691 103.027155 
L 189.201063 103.027155 
L 189.360749 100.578985 
L 189.999492 100.578985 
L 190.159178 98.130815 
L 190.957607 98.130815 
L 191.117292 100.578985 
L 191.756036 100.578985 
L 191.915721 103.027155 
L 193.991637 103.027155 
L 194.151323 105.475325 
L 194.63038 105.475325 
L 194.790066 107.923495 
L 194.949752 107.923495 
L 195.269123 103.027155 
L 199.261268 103.027155 
L 199.420954 100.578985 
L 201.177498 100.578985 
L 201.337184 98.130815 
L 202.934042 98.130815 
L 203.093728 95.682645 
L 204.211528 95.682645 
L 204.371214 98.130815 
L 205.009957 98.130815 
L 205.169643 100.578985 
L 206.287444 100.578985 
L 206.447129 103.027155 
L 207.085873 103.027155 
L 207.245559 100.578985 
L 208.523045 100.578985 
L 208.682731 103.027155 
L 216.826707 103.027155 
L 216.986393 100.578985 
L 220.659166 100.578985 
L 220.818852 98.130815 
L 221.457595 98.130815 
L 221.617281 100.578985 
L 222.41571 100.578985 
L 222.575396 103.027155 
L 222.894767 103.027155 
L 223.054453 100.578985 
L 223.693196 100.578985 
L 223.852882 98.130815 
L 224.172254 98.130815 
L 224.331939 100.578985 
L 224.491625 100.578985 
L 224.651311 103.027155 
L 225.928798 103.027155 
L 226.088483 100.578985 
L 226.567541 100.578985 
L 226.727227 98.130815 
L 230.240314 98.130815 
L 230.4 100.578985 
L 231.996858 100.578985 
L 232.156544 103.027155 
L 236.148689 103.027155 
L 236.308375 100.578985 
L 236.947118 100.578985 
L 237.106804 98.130815 
L 238.224604 98.130815 
L 238.38429 95.682645 
L 240.460206 95.682645 
L 240.619891 93.234475 
L 241.258635 93.234475 
L 241.41832 95.682645 
L 253.394756 95.682645 
L 253.554441 93.234475 
L 254.352871 93.234475 
L 254.512556 90.786305 
L 256.109414 90.786305 
L 256.2691 88.338135 
L 256.428786 88.338135 
L 256.588472 85.889965 
L 262.017789 85.889965 
L 262.177475 88.338135 
L 262.337161 85.889965 
L 263.774333 85.889965 
L 263.934019 88.338135 
L 264.093705 85.889965 
L 268.405221 85.889965 
L 268.564907 88.338135 
L 271.758623 88.338135 
L 271.918309 90.786305 
L 272.077995 90.786305 
L 272.23768 93.234475 
L 273.195795 93.234475 
L 273.355481 90.786305 
L 275.591082 90.786305 
L 275.750768 93.234475 
L 276.07014 93.234475 
L 276.229826 95.682645 
L 279.902599 95.682645 
L 280.062285 98.130815 
L 280.381656 98.130815 
L 280.541342 100.578985 
L 284.05443 100.578985 
L 284.214116 103.027155 
L 284.533487 103.027155 
L 284.693173 105.475325 
L 288.365947 105.475325 
L 288.525632 107.923495 
L 288.845004 107.923495 
L 289.00469 110.371665 
L 292.358092 110.371665 
L 292.517778 112.819835 
L 292.677463 112.819835 
L 292.837149 115.268005 
L 293.95495 115.268005 
L 294.114636 112.819835 
L 295.711494 112.819835 
L 295.871179 110.371665 
L 296.030865 110.371665 
L 296.190551 112.819835 
L 298.106781 112.819835 
L 298.106781 112.819835 
" clip-path="url(#p5c401ecebf)" style="fill: none; stroke: #1f77b4; stroke-width: 1.5; stroke-linecap: square"/>
   </g>
   <g id="line2d_20">
    <path d="M 104.727273 78.545455 
L 302.418297 78.545455 
L 302.418297 78.545455 
" clip-path="url(#p5c401ecebf)" style="fill: none; stroke: #ff7f0e; stroke-width: 1.5; stroke-linecap: square"/>
   </g>
   <g id="line2d_21">
    <path d="M 104.727273 132.405195 
L 104.886959 134.853365 
L 105.046644 132.405195 
L 106.483817 132.405195 
L 106.643502 134.853365 
L 106.803188 134.853365 
L 106.962874 137.301535 
L 109.996904 137.301535 
L 110.15659 139.749705 
L 110.635647 139.749705 
L 110.795333 137.301535 
L 111.114705 137.301535 
L 111.274391 134.853365 
L 111.753448 134.853365 
L 111.913134 137.301535 
L 113.19062 137.301535 
L 113.350306 139.749705 
L 113.829364 139.749705 
L 114.148735 134.853365 
L 114.787478 134.853365 
L 114.947164 132.405195 
L 115.745593 132.405195 
L 115.905279 129.957025 
L 116.384336 129.957025 
L 116.544022 127.508855 
L 116.863394 127.508855 
L 117.02308 125.060685 
L 117.342451 125.060685 
L 117.502137 127.508855 
L 117.661823 125.060685 
L 121.015225 125.060685 
L 121.17491 127.508855 
L 121.494282 127.508855 
L 121.653968 129.957025 
L 123.729883 129.957025 
L 123.889569 127.508855 
L 124.368627 127.508855 
L 124.528312 125.060685 
L 124.847684 125.060685 
L 125.00737 122.612515 
L 125.486427 122.612515 
L 125.646113 120.164345 
L 126.444542 120.164345 
L 126.604228 117.716175 
L 127.242971 117.716175 
L 127.562343 112.819835 
L 128.520457 112.819835 
L 128.680143 110.371665 
L 129.478572 110.371665 
L 129.638258 112.819835 
L 130.117315 112.819835 
L 130.277001 110.371665 
L 130.596373 110.371665 
L 130.756059 107.923495 
L 132.193231 107.923495 
L 132.352917 110.371665 
L 135.067575 110.371665 
L 135.227261 112.819835 
L 135.866004 112.819835 
L 136.02569 115.268005 
L 136.664433 115.268005 
L 136.824119 112.819835 
L 138.420977 112.819835 
L 138.580663 110.371665 
L 140.017835 110.371665 
L 140.177521 112.819835 
L 141.135636 112.819835 
L 141.295322 115.268005 
L 141.614693 115.268005 
L 141.774379 117.716175 
L 141.934065 117.716175 
L 142.093751 115.268005 
L 143.690609 115.268005 
L 143.850295 112.819835 
L 144.489038 112.819835 
L 144.648724 115.268005 
L 144.808409 112.819835 
L 145.127781 112.819835 
L 145.287467 110.371665 
L 146.564953 110.371665 
L 146.724639 112.819835 
L 147.203696 112.819835 
L 147.363382 115.268005 
L 148.96024 115.268005 
L 149.119926 117.716175 
L 149.279612 117.716175 
L 149.439298 115.268005 
L 152.952385 115.268005 
L 153.112071 112.819835 
L 153.431443 112.819835 
L 153.591129 110.371665 
L 154.549243 110.371665 
L 154.868615 115.268005 
L 155.986416 115.268005 
L 156.146101 117.716175 
L 156.784845 117.716175 
L 156.94453 120.164345 
L 158.701074 120.164345 
L 158.86076 122.612515 
L 161.415733 122.612515 
L 161.575419 120.164345 
L 162.533534 120.164345 
L 162.693219 122.612515 
L 163.970706 122.612515 
L 164.130392 125.060685 
L 164.290077 122.612515 
L 164.928821 122.612515 
L 165.088506 125.060685 
L 167.004736 125.060685 
L 167.164422 122.612515 
L 167.803165 122.612515 
L 167.962851 120.164345 
L 168.282222 120.164345 
L 168.441908 117.716175 
L 170.67751 117.716175 
L 170.837195 115.268005 
L 170.996881 115.268005 
L 171.156567 117.716175 
L 171.954996 117.716175 
L 172.114682 115.268005 
L 172.753425 115.268005 
L 172.913111 117.716175 
L 173.072797 117.716175 
L 173.232482 115.268005 
L 173.551854 115.268005 
L 173.71154 112.819835 
L 176.426198 112.819835 
L 176.585884 110.371665 
L 176.74557 112.819835 
L 179.140857 112.819835 
L 179.300543 110.371665 
L 179.619915 110.371665 
L 179.7796 112.819835 
L 180.897401 112.819835 
L 181.057087 110.371665 
L 182.813631 110.371665 
L 182.973316 112.819835 
L 184.250803 112.819835 
L 184.410489 115.268005 
L 184.889546 115.268005 
L 185.208918 120.164345 
L 186.486404 120.164345 
L 186.805776 115.268005 
L 187.125147 115.268005 
L 187.284833 117.716175 
L 187.923576 117.716175 
L 188.083262 115.268005 
L 188.722005 115.268005 
L 188.881691 112.819835 
L 189.839806 112.819835 
L 189.999492 115.268005 
L 190.638235 115.268005 
L 190.797921 112.819835 
L 191.915721 112.819835 
L 192.075407 115.268005 
L 192.235093 115.268005 
L 192.554465 120.164345 
L 194.470694 120.164345 
L 194.63038 117.716175 
L 194.790066 120.164345 
L 195.907866 120.164345 
L 196.067552 117.716175 
L 196.865981 117.716175 
L 197.025667 115.268005 
L 197.185353 117.716175 
L 202.135613 117.716175 
L 202.295299 120.164345 
L 203.253413 120.164345 
L 203.413099 122.612515 
L 203.892157 122.612515 
L 204.051842 125.060685 
L 204.690586 125.060685 
L 204.850271 122.612515 
L 208.523045 122.612515 
L 208.682731 120.164345 
L 209.161788 120.164345 
L 209.321474 122.612515 
L 210.439275 122.612515 
L 210.59896 120.164345 
L 211.397389 120.164345 
L 211.557075 122.612515 
L 211.716761 120.164345 
L 212.674876 120.164345 
L 212.834562 122.612515 
L 214.910477 122.612515 
L 215.070163 125.060685 
L 216.187963 125.060685 
L 216.347649 122.612515 
L 216.826707 122.612515 
L 217.146078 117.716175 
L 218.263879 117.716175 
L 218.423565 120.164345 
L 219.062308 120.164345 
L 219.221994 117.716175 
L 221.457595 117.716175 
L 221.617281 120.164345 
L 221.776967 120.164345 
L 221.936652 117.716175 
L 223.852882 117.716175 
L 224.012568 115.268005 
L 224.172254 115.268005 
L 224.491625 110.371665 
L 224.651311 112.819835 
L 226.567541 112.819835 
L 226.727227 110.371665 
L 228.643456 110.371665 
L 228.803142 112.819835 
L 228.962828 112.819835 
L 229.122514 110.371665 
L 230.240314 110.371665 
L 230.4 112.819835 
L 234.072773 112.819835 
L 234.232459 110.371665 
L 234.871202 110.371665 
L 235.030888 107.923495 
L 235.190574 107.923495 
L 235.35026 105.475325 
L 235.829317 105.475325 
L 235.989003 103.027155 
L 237.426175 103.027155 
L 237.585861 105.475325 
L 239.342405 105.475325 
L 239.502091 107.923495 
L 241.098949 107.923495 
L 241.258635 105.475325 
L 242.536121 105.475325 
L 242.695807 107.923495 
L 243.33455 107.923495 
L 243.494236 105.475325 
L 244.612037 105.475325 
L 244.771722 103.027155 
L 246.687952 103.027155 
L 247.007324 98.130815 
L 250.20104 98.130815 
L 250.360725 95.682645 
L 251.797898 95.682645 
L 251.957583 98.130815 
L 253.394756 98.130815 
L 253.554441 95.682645 
L 254.512556 95.682645 
L 254.672242 98.130815 
L 255.310985 98.130815 
L 255.470671 100.578985 
L 256.109414 100.578985 
L 256.2691 103.027155 
L 256.428786 103.027155 
L 256.588472 100.578985 
L 257.546587 100.578985 
L 257.706272 103.027155 
L 260.580617 103.027155 
L 260.740303 100.578985 
L 261.21936 100.578985 
L 261.379046 103.027155 
L 261.538732 103.027155 
L 261.698417 105.475325 
L 262.177475 105.475325 
L 262.337161 103.027155 
L 266.16962 103.027155 
L 266.329306 105.475325 
L 269.363336 105.475325 
L 269.523022 103.027155 
L 271.279566 103.027155 
L 271.439251 100.578985 
L 272.557052 100.578985 
L 272.716738 103.027155 
L 273.03611 103.027155 
L 273.195795 105.475325 
L 274.473282 105.475325 
L 274.632968 103.027155 
L 278.944484 103.027155 
L 279.10417 105.475325 
L 282.617258 105.475325 
L 282.776944 107.923495 
L 283.735058 107.923495 
L 283.894744 105.475325 
L 286.449717 105.475325 
L 286.609403 103.027155 
L 287.248146 103.027155 
L 287.407832 100.578985 
L 288.046575 100.578985 
L 288.206261 98.130815 
L 288.525632 98.130815 
L 288.685318 100.578985 
L 289.00469 100.578985 
L 289.164376 103.027155 
L 289.483747 103.027155 
L 289.643433 100.578985 
L 293.156521 100.578985 
L 293.316207 98.130815 
L 293.475892 98.130815 
L 293.635578 95.682645 
L 295.392122 95.682645 
L 295.551808 98.130815 
L 296.669608 98.130815 
L 296.669608 98.130815 
" clip-path="url(#p5c401ecebf)" style="fill: none; stroke: #2ca02c; stroke-width: 1.5; stroke-linecap: square"/>
   </g>
   <g id="line2d_22">
    <path d="M 104.727273 78.545455 
L 292.517778 78.545455 
L 292.517778 78.545455 
" clip-path="url(#p5c401ecebf)" style="fill: none; stroke: #d62728; stroke-width: 1.5; stroke-linecap: square"/>
   </g>
   <g id="line2d_23">
    <path d="M 104.727273 137.301535 
L 105.20633 137.301535 
L 105.366016 134.853365 
L 105.525702 134.853365 
L 105.685388 137.301535 
L 106.324131 137.301535 
L 106.483817 139.749705 
L 106.803188 139.749705 
L 106.962874 142.197875 
L 107.920989 142.197875 
L 108.080675 144.646045 
L 108.879104 144.646045 
L 109.038789 147.094215 
L 110.15659 147.094215 
L 110.316276 144.646045 
L 110.795333 144.646045 
L 110.955019 142.197875 
L 111.114705 144.646045 
L 111.274391 144.646045 
L 111.434076 147.094215 
L 113.829364 147.094215 
L 113.989049 144.646045 
L 114.148735 144.646045 
L 114.308421 147.094215 
L 114.468107 147.094215 
L 114.627793 144.646045 
L 115.585907 144.646045 
L 115.745593 142.197875 
L 115.905279 142.197875 
L 116.064965 139.749705 
L 116.703708 139.749705 
L 116.863394 142.197875 
L 117.182765 142.197875 
L 117.342451 144.646045 
L 117.661823 139.749705 
L 117.981194 139.749705 
L 118.14088 137.301535 
L 118.300566 139.749705 
L 118.619938 139.749705 
L 118.779623 137.301535 
L 120.376481 137.301535 
L 120.536167 134.853365 
L 120.855539 134.853365 
L 121.015225 132.405195 
L 121.17491 134.853365 
L 121.653968 134.853365 
L 121.813654 137.301535 
L 122.292711 137.301535 
L 122.452397 139.749705 
L 122.612083 139.749705 
L 122.771769 137.301535 
L 123.09114 137.301535 
L 123.250826 139.749705 
L 123.410512 137.301535 
L 123.570198 137.301535 
L 123.729883 139.749705 
L 124.049255 134.853365 
L 124.208941 137.301535 
L 125.326741 137.301535 
L 125.486427 134.853365 
L 125.646113 134.853365 
L 125.805799 132.405195 
L 126.763914 132.405195 
L 126.923599 129.957025 
L 127.083285 129.957025 
L 127.242971 132.405195 
L 127.402657 132.405195 
L 127.562343 129.957025 
L 128.360772 129.957025 
L 128.520457 132.405195 
L 130.436687 132.405195 
L 130.596373 129.957025 
L 131.07543 129.957025 
L 131.235116 127.508855 
L 131.554488 127.508855 
L 131.714174 129.957025 
L 131.873859 129.957025 
L 132.033545 132.405195 
L 135.546633 132.405195 
L 135.706319 134.853365 
L 137.143491 134.853365 
L 137.303177 137.301535 
L 137.462862 137.301535 
L 137.622548 134.853365 
L 138.420977 134.853365 
L 138.580663 137.301535 
L 138.740349 137.301535 
L 138.900035 134.853365 
L 139.858149 134.853365 
L 140.017835 132.405195 
L 140.816264 132.405195 
L 140.97595 129.957025 
L 142.413122 129.957025 
L 142.572808 132.405195 
L 142.89218 132.405195 
L 143.051866 129.957025 
L 143.211551 129.957025 
L 143.371237 127.508855 
L 144.329352 127.508855 
L 144.489038 129.957025 
L 146.085896 129.957025 
L 146.245582 127.508855 
L 146.405267 129.957025 
L 148.640869 129.957025 
L 148.800554 127.508855 
L 149.119926 127.508855 
L 149.279612 125.060685 
L 150.078041 125.060685 
L 150.237727 122.612515 
L 151.994271 122.612515 
L 152.153956 125.060685 
L 152.473328 125.060685 
L 152.633014 127.508855 
L 152.952385 127.508855 
L 153.112071 125.060685 
L 153.591129 125.060685 
L 153.750814 122.612515 
L 154.229872 122.612515 
L 154.389558 120.164345 
L 155.028301 120.164345 
L 155.187987 117.716175 
L 155.507358 117.716175 
L 155.667044 115.268005 
L 155.82673 117.716175 
L 155.986416 117.716175 
L 156.146101 115.268005 
L 157.742959 115.268005 
L 157.902645 117.716175 
L 159.020446 117.716175 
L 159.180132 115.268005 
L 159.818875 115.268005 
L 160.138247 120.164345 
L 160.297932 120.164345 
L 160.457618 117.716175 
L 160.77699 117.716175 
L 160.936676 120.164345 
L 163.491648 120.164345 
L 163.651334 117.716175 
L 163.81102 117.716175 
L 163.970706 115.268005 
L 164.928821 115.268005 
L 165.088506 117.716175 
L 166.046621 117.716175 
L 166.206307 120.164345 
L 167.483793 120.164345 
L 167.643479 117.716175 
L 167.962851 117.716175 
L 168.122537 115.268005 
L 169.080651 115.268005 
L 169.240337 112.819835 
L 169.400023 112.819835 
L 169.559709 115.268005 
L 170.198452 115.268005 
L 170.517824 110.371665 
L 172.593739 110.371665 
L 172.753425 112.819835 
L 173.392168 112.819835 
L 173.551854 115.268005 
L 174.350283 115.268005 
L 174.509969 112.819835 
L 176.266513 112.819835 
L 176.426198 110.371665 
L 176.905256 110.371665 
L 177.064942 112.819835 
L 177.543999 112.819835 
L 177.703685 115.268005 
L 178.182742 115.268005 
L 178.342428 112.819835 
L 178.981171 112.819835 
L 179.140857 115.268005 
L 180.578029 115.268005 
L 180.737715 117.716175 
L 181.216773 117.716175 
L 181.376458 120.164345 
L 181.855516 120.164345 
L 182.015202 122.612515 
L 182.653945 122.612515 
L 182.813631 125.060685 
L 183.931431 125.060685 
L 184.091117 122.612515 
L 184.410489 122.612515 
L 184.570174 120.164345 
L 187.923576 120.164345 
L 188.083262 122.612515 
L 189.68012 122.612515 
L 189.839806 120.164345 
L 191.276978 120.164345 
L 191.436664 122.612515 
L 191.59635 122.612515 
L 191.756036 125.060685 
L 191.915721 125.060685 
L 192.075407 122.612515 
L 192.71415 122.612515 
L 192.873836 120.164345 
L 196.865981 120.164345 
L 197.025667 117.716175 
L 197.983782 117.716175 
L 198.143468 115.268005 
L 201.017812 115.268005 
L 201.177498 117.716175 
L 201.337184 117.716175 
L 201.49687 115.268005 
L 204.211528 115.268005 
L 204.371214 117.716175 
L 204.5309 117.716175 
L 204.690586 115.268005 
L 205.009957 115.268005 
L 205.169643 117.716175 
L 205.329329 117.716175 
L 205.489015 115.268005 
L 208.842417 115.268005 
L 209.002102 112.819835 
L 209.48116 112.819835 
L 209.640846 110.371665 
L 209.960217 110.371665 
L 210.279589 115.268005 
L 212.355504 115.268005 
L 212.51519 117.716175 
L 212.674876 115.268005 
L 213.153933 115.268005 
L 213.313619 112.819835 
L 213.792676 112.819835 
L 213.952362 110.371665 
L 214.591105 110.371665 
L 214.750791 107.923495 
L 216.347649 107.923495 
L 216.507335 110.371665 
L 219.541365 110.371665 
L 219.701051 107.923495 
L 219.860737 107.923495 
L 220.020423 105.475325 
L 222.575396 105.475325 
L 222.735081 107.923495 
L 223.214139 107.923495 
L 223.373825 105.475325 
L 223.53351 105.475325 
L 223.693196 103.027155 
L 225.769112 103.027155 
L 225.928798 105.475325 
L 227.206284 105.475325 
L 227.36597 107.923495 
L 229.122514 107.923495 
L 229.282199 110.371665 
L 229.761257 110.371665 
L 229.920943 112.819835 
L 231.677486 112.819835 
L 231.837172 115.268005 
L 232.475915 115.268005 
L 232.635601 117.716175 
L 232.954973 117.716175 
L 233.114659 115.268005 
L 236.148689 115.268005 
L 236.308375 112.819835 
L 236.468061 112.819835 
L 236.787432 117.716175 
L 236.947118 117.716175 
L 237.106804 115.268005 
L 237.26649 117.716175 
L 238.863348 117.716175 
L 239.023033 120.164345 
L 240.779577 120.164345 
L 240.939263 122.612515 
L 241.897378 122.612515 
L 242.216749 117.716175 
L 242.855493 117.716175 
L 243.015178 115.268005 
L 244.292665 115.268005 
L 244.452351 112.819835 
L 248.28481 112.819835 
L 248.444496 110.371665 
L 248.763867 110.371665 
L 248.923553 112.819835 
L 249.562296 112.819835 
L 249.721982 115.268005 
L 254.512556 115.268005 
L 254.672242 112.819835 
L 255.630357 112.819835 
L 255.790043 110.371665 
L 256.109414 110.371665 
L 256.2691 112.819835 
L 259.143445 112.819835 
L 259.30313 110.371665 
L 261.379046 110.371665 
L 261.538732 112.819835 
L 261.698417 112.819835 
L 261.858103 110.371665 
L 263.614647 110.371665 
L 263.774333 107.923495 
L 264.413076 107.923495 
L 264.572762 105.475325 
L 264.892134 105.475325 
L 265.211505 110.371665 
L 266.488992 110.371665 
L 266.648677 112.819835 
L 268.405221 112.819835 
L 268.564907 110.371665 
L 269.043964 110.371665 
L 269.20365 107.923495 
L 270.800508 107.923495 
L 270.960194 105.475325 
L 271.279566 105.475325 
L 271.439251 107.923495 
L 277.507312 107.923495 
L 277.666998 110.371665 
L 280.381656 110.371665 
L 280.541342 112.819835 
L 280.701028 112.819835 
L 280.860714 110.371665 
L 281.339771 110.371665 
L 281.499457 112.819835 
L 281.659143 110.371665 
L 281.818829 110.371665 
L 281.978514 112.819835 
L 288.046575 112.819835 
L 288.206261 110.371665 
L 288.365947 110.371665 
L 288.525632 112.819835 
L 288.845004 112.819835 
L 289.00469 115.268005 
L 289.643433 115.268005 
L 289.803119 112.819835 
L 289.962805 115.268005 
L 292.677463 115.268005 
L 292.837149 117.716175 
L 292.996835 117.716175 
L 293.156521 115.268005 
L 293.316207 115.268005 
L 293.475892 112.819835 
L 296.829294 112.819835 
L 297.148666 107.923495 
L 297.468037 107.923495 
L 297.627723 110.371665 
L 298.426152 110.371665 
L 298.585838 107.923495 
L 298.90521 107.923495 
L 299.064895 110.371665 
L 300.502068 110.371665 
L 300.661753 107.923495 
L 300.981125 107.923495 
L 300.981125 107.923495 
" clip-path="url(#p5c401ecebf)" style="fill: none; stroke: #9467bd; stroke-width: 1.5; stroke-linecap: square"/>
   </g>
   <g id="line2d_24">
    <path d="M 104.727273 78.545455 
L 292.837149 78.545455 
L 292.837149 78.545455 
" clip-path="url(#p5c401ecebf)" style="fill: none; stroke: #8c564b; stroke-width: 1.5; stroke-linecap: square"/>
   </g>
   <g id="line2d_25">
    <path d="M 104.727273 122.612515 
L 105.046644 122.612515 
L 105.20633 120.164345 
L 106.164445 120.164345 
L 106.324131 122.612515 
L 106.643502 122.612515 
L 106.803188 125.060685 
L 107.282246 125.060685 
L 107.441931 122.612515 
L 108.400046 122.612515 
L 108.559732 120.164345 
L 108.719418 120.164345 
L 108.879104 122.612515 
L 110.795333 122.612515 
L 110.955019 125.060685 
L 111.274391 125.060685 
L 111.434076 127.508855 
L 116.064965 127.508855 
L 116.224651 125.060685 
L 116.703708 125.060685 
L 116.863394 127.508855 
L 117.02308 127.508855 
L 117.182765 125.060685 
L 119.098995 125.060685 
L 119.258681 127.508855 
L 120.05711 127.508855 
L 120.216796 125.060685 
L 121.17491 125.060685 
L 121.334596 122.612515 
L 122.612083 122.612515 
L 122.771769 125.060685 
L 124.049255 125.060685 
L 124.208941 127.508855 
L 124.368627 125.060685 
L 125.167056 125.060685 
L 125.326741 122.612515 
L 125.805799 122.612515 
L 125.965485 120.164345 
L 127.722028 120.164345 
L 127.881714 122.612515 
L 128.201086 122.612515 
L 128.360772 120.164345 
L 128.680143 120.164345 
L 128.999515 125.060685 
L 130.436687 125.060685 
L 130.596373 127.508855 
L 131.07543 127.508855 
L 131.394802 132.405195 
L 132.831974 132.405195 
L 132.99166 129.957025 
L 133.151346 129.957025 
L 133.311032 132.405195 
L 133.949775 132.405195 
L 134.109461 129.957025 
L 136.02569 129.957025 
L 136.185376 132.405195 
L 136.345062 129.957025 
L 136.824119 129.957025 
L 136.983805 132.405195 
L 138.101606 132.405195 
L 138.261291 129.957025 
L 138.420977 132.405195 
L 140.017835 132.405195 
L 140.337207 137.301535 
L 140.656578 137.301535 
L 140.816264 134.853365 
L 141.455008 134.853365 
L 141.614693 137.301535 
L 141.934065 137.301535 
L 142.253437 142.197875 
L 142.732494 142.197875 
L 142.89218 139.749705 
L 143.211551 139.749705 
L 143.371237 137.301535 
L 143.690609 137.301535 
L 143.850295 139.749705 
L 144.968095 139.749705 
L 145.127781 137.301535 
L 145.447153 137.301535 
L 145.606838 139.749705 
L 147.044011 139.749705 
L 147.203696 142.197875 
L 147.363382 142.197875 
L 147.523068 139.749705 
L 148.002125 139.749705 
L 148.161811 142.197875 
L 148.481183 142.197875 
L 148.640869 144.646045 
L 148.800554 142.197875 
L 150.87647 142.197875 
L 151.195842 137.301535 
L 151.834585 137.301535 
L 151.994271 139.749705 
L 154.229872 139.749705 
L 154.389558 137.301535 
L 154.549243 137.301535 
L 154.708929 134.853365 
L 155.028301 139.749705 
L 155.82673 139.749705 
L 155.986416 142.197875 
L 156.146101 139.749705 
L 156.465473 139.749705 
L 156.625159 142.197875 
L 158.062331 142.197875 
L 158.222017 144.646045 
L 158.701074 144.646045 
L 158.86076 147.094215 
L 159.020446 147.094215 
L 159.180132 149.542385 
L 160.297932 149.542385 
L 160.457618 151.990555 
L 160.617304 151.990555 
L 160.936676 147.094215 
L 161.256047 151.990555 
L 161.89479 151.990555 
L 162.054476 154.438725 
L 162.373848 154.438725 
L 162.533534 151.990555 
L 163.012591 151.990555 
L 163.331963 147.094215 
L 165.088506 147.094215 
L 165.248192 144.646045 
L 167.962851 144.646045 
L 168.122537 142.197875 
L 168.282222 144.646045 
L 168.601594 144.646045 
L 168.76128 147.094215 
L 168.920966 144.646045 
L 170.198452 144.646045 
L 170.358138 142.197875 
L 170.517824 142.197875 
L 170.67751 139.749705 
L 170.996881 139.749705 
L 171.156567 142.197875 
L 171.954996 142.197875 
L 172.274368 137.301535 
L 172.434053 137.301535 
L 172.593739 139.749705 
L 173.392168 139.749705 
L 173.551854 137.301535 
L 173.71154 137.301535 
L 173.871226 139.749705 
L 174.190597 134.853365 
L 175.308398 134.853365 
L 175.627769 139.749705 
L 175.787455 137.301535 
L 177.224627 137.301535 
L 177.384313 139.749705 
L 177.543999 137.301535 
L 178.981171 137.301535 
L 179.140857 134.853365 
L 179.619915 134.853365 
L 179.7796 137.301535 
L 179.939286 137.301535 
L 180.098972 134.853365 
L 180.418344 134.853365 
L 180.578029 132.405195 
L 180.737715 134.853365 
L 183.292688 134.853365 
L 183.452374 137.301535 
L 183.771745 137.301535 
L 183.931431 134.853365 
L 185.049232 134.853365 
L 185.208918 137.301535 
L 186.64609 137.301535 
L 186.965461 132.405195 
L 187.284833 132.405195 
L 187.444519 134.853365 
L 187.76389 134.853365 
L 187.923576 132.405195 
L 188.402634 132.405195 
L 188.56232 129.957025 
L 188.722005 132.405195 
L 189.68012 132.405195 
L 189.839806 134.853365 
L 189.999492 134.853365 
L 190.159178 132.405195 
L 190.638235 132.405195 
L 190.797921 129.957025 
L 191.276978 129.957025 
L 191.59635 134.853365 
L 191.756036 132.405195 
L 192.235093 132.405195 
L 192.394779 129.957025 
L 192.554465 132.405195 
L 192.71415 132.405195 
L 192.873836 134.853365 
L 193.193208 129.957025 
L 193.512579 129.957025 
L 193.672265 132.405195 
L 193.831951 132.405195 
L 193.991637 129.957025 
L 198.303154 129.957025 
L 198.462839 132.405195 
L 198.941897 132.405195 
L 199.101583 134.853365 
L 200.059697 134.853365 
L 200.219383 132.405195 
L 200.538755 132.405195 
L 200.698441 129.957025 
L 200.858126 129.957025 
L 201.017812 132.405195 
L 202.934042 132.405195 
L 203.093728 129.957025 
L 203.572785 129.957025 
L 203.732471 132.405195 
L 204.371214 132.405195 
L 204.5309 129.957025 
L 204.690586 132.405195 
L 205.169643 132.405195 
L 205.329329 134.853365 
L 205.489015 134.853365 
L 205.6487 137.301535 
L 205.808386 134.853365 
L 206.287444 134.853365 
L 206.447129 137.301535 
L 206.606815 137.301535 
L 206.766501 139.749705 
L 207.245559 139.749705 
L 207.56493 134.853365 
L 209.161788 134.853365 
L 209.321474 132.405195 
L 209.48116 134.853365 
L 209.960217 134.853365 
L 210.119903 137.301535 
L 210.918332 137.301535 
L 211.078018 139.749705 
L 211.397389 139.749705 
L 211.557075 142.197875 
L 211.716761 139.749705 
L 212.51519 139.749705 
L 212.674876 137.301535 
L 212.834562 139.749705 
L 212.994247 139.749705 
L 213.153933 142.197875 
L 213.632991 142.197875 
L 213.792676 144.646045 
L 213.952362 144.646045 
L 214.112048 147.094215 
L 214.591105 147.094215 
L 214.750791 149.542385 
L 215.229849 149.542385 
L 215.389534 147.094215 
L 216.986393 147.094215 
L 217.146078 144.646045 
L 217.784822 144.646045 
L 217.944507 147.094215 
L 218.263879 147.094215 
L 218.423565 149.542385 
L 218.583251 149.542385 
L 218.742936 151.990555 
L 219.062308 151.990555 
L 219.221994 154.438725 
L 219.38168 151.990555 
L 219.541365 154.438725 
L 220.49948 154.438725 
L 220.659166 151.990555 
L 221.138223 151.990555 
L 221.297909 154.438725 
L 221.617281 154.438725 
L 221.776967 151.990555 
L 222.41571 151.990555 
L 222.575396 154.438725 
L 222.894767 154.438725 
L 223.054453 151.990555 
L 223.214139 151.990555 
L 223.53351 147.094215 
L 223.693196 147.094215 
L 223.852882 149.542385 
L 224.331939 149.542385 
L 224.491625 147.094215 
L 224.651311 147.094215 
L 224.810997 144.646045 
L 225.44974 144.646045 
L 225.609426 142.197875 
L 226.567541 142.197875 
L 226.727227 144.646045 
L 227.206284 144.646045 
L 227.36597 147.094215 
L 230.080628 147.094215 
L 230.240314 149.542385 
L 230.4 147.094215 
L 230.879057 147.094215 
L 231.038743 144.646045 
L 231.837172 144.646045 
L 231.996858 147.094215 
L 232.795287 147.094215 
L 232.954973 144.646045 
L 233.753402 144.646045 
L 233.913088 147.094215 
L 235.989003 147.094215 
L 236.468061 154.438725 
L 236.627746 151.990555 
L 237.106804 151.990555 
L 237.26649 149.542385 
L 237.426175 151.990555 
L 237.745547 151.990555 
L 237.905233 154.438725 
L 238.224604 154.438725 
L 238.38429 151.990555 
L 238.543976 151.990555 
L 238.703662 149.542385 
L 238.863348 149.542385 
L 239.023033 151.990555 
L 239.502091 151.990555 
L 239.661777 154.438725 
L 241.41832 154.438725 
L 241.578006 156.886895 
L 241.897378 156.886895 
L 242.057064 154.438725 
L 242.855493 154.438725 
L 243.015178 151.990555 
L 243.33455 151.990555 
L 243.494236 149.542385 
L 244.931408 149.542385 
L 245.091094 147.094215 
L 245.570151 147.094215 
L 245.729837 144.646045 
L 245.889523 144.646045 
L 246.049209 142.197875 
L 246.208895 142.197875 
L 246.36858 144.646045 
L 246.528266 144.646045 
L 246.687952 142.197875 
L 246.847638 144.646045 
L 247.486381 144.646045 
L 247.646067 147.094215 
L 249.721982 147.094215 
L 249.881668 144.646045 
L 250.839783 144.646045 
L 250.999469 147.094215 
L 251.159154 144.646045 
L 251.31884 144.646045 
L 251.478526 142.197875 
L 252.117269 142.197875 
L 252.276955 144.646045 
L 252.596327 144.646045 
L 252.756012 147.094215 
L 253.075384 147.094215 
L 253.23507 144.646045 
L 254.352871 144.646045 
L 254.512556 142.197875 
L 256.748158 142.197875 
L 256.907843 144.646045 
L 257.227215 144.646045 
L 257.386901 147.094215 
L 258.504701 147.094215 
L 258.664387 144.646045 
L 259.143445 144.646045 
L 259.30313 142.197875 
L 259.782188 142.197875 
L 259.941874 144.646045 
L 260.101559 144.646045 
L 260.420931 149.542385 
L 261.379046 149.542385 
L 262.017789 159.335065 
L 262.177475 156.886895 
L 262.337161 159.335065 
L 263.774333 159.335065 
L 263.934019 156.886895 
L 264.093705 159.335065 
L 265.690563 159.335065 
L 265.850248 156.886895 
L 267.926164 156.886895 
L 268.405221 149.542385 
L 268.564907 151.990555 
L 268.724593 151.990555 
L 268.884279 154.438725 
L 269.363336 154.438725 
L 269.523022 151.990555 
L 269.682708 154.438725 
L 269.842393 151.990555 
L 270.800508 151.990555 
L 270.960194 149.542385 
L 271.11988 149.542385 
L 271.279566 151.990555 
L 271.439251 151.990555 
L 271.598937 149.542385 
L 272.557052 149.542385 
L 272.716738 151.990555 
L 273.195795 151.990555 
L 273.515167 147.094215 
L 273.834539 147.094215 
L 273.994224 149.542385 
L 276.549197 149.542385 
L 276.708883 147.094215 
L 277.028255 147.094215 
L 277.18794 149.542385 
L 278.146055 149.542385 
L 278.305741 147.094215 
L 278.625113 147.094215 
L 278.784798 144.646045 
L 279.423542 144.646045 
L 279.583227 142.197875 
L 280.381656 142.197875 
L 280.541342 144.646045 
L 282.1382 144.646045 
L 282.297886 142.197875 
L 282.457572 142.197875 
L 282.617258 139.749705 
L 282.776944 139.749705 
L 282.936629 137.301535 
L 283.575373 137.301535 
L 283.735058 139.749705 
L 284.05443 139.749705 
L 284.214116 137.301535 
L 284.533487 137.301535 
L 284.693173 134.853365 
L 284.852859 134.853365 
L 285.012545 137.301535 
L 286.290031 137.301535 
L 286.449717 139.749705 
L 287.567518 139.749705 
L 287.727203 137.301535 
L 287.886889 137.301535 
L 288.046575 139.749705 
L 288.206261 139.749705 
L 288.365947 142.197875 
L 289.00469 142.197875 
L 289.164376 144.646045 
L 289.324061 142.197875 
L 289.962805 142.197875 
L 290.12249 144.646045 
L 291.719349 144.646045 
L 291.879034 142.197875 
L 292.03872 142.197875 
L 292.358092 137.301535 
L 293.316207 137.301535 
L 293.475892 134.853365 
L 293.635578 134.853365 
L 293.95495 129.957025 
L 294.114636 129.957025 
L 294.274321 127.508855 
L 294.593693 127.508855 
L 294.593693 127.508855 
" clip-path="url(#p5c401ecebf)" style="fill: none; stroke: #e377c2; stroke-width: 1.5; stroke-linecap: square"/>
   </g>
   <g id="line2d_26">
    <path d="M 104.727273 78.545455 
L 302.258612 78.545455 
L 302.258612 78.545455 
" clip-path="url(#p5c401ecebf)" style="fill: none; stroke: #7f7f7f; stroke-width: 1.5; stroke-linecap: square"/>
   </g>
   <g id="line2d_27">
    <path d="M 104.727273 254.813695 
L 104.886959 254.813695 
L 105.046644 252.365525 
L 105.20633 254.813695 
L 105.685388 254.813695 
L 105.845073 257.261865 
L 106.164445 257.261865 
L 106.483817 262.158205 
L 106.643502 262.158205 
L 106.803188 264.606375 
L 106.962874 264.606375 
L 107.12256 267.054545 
L 107.282246 264.606375 
L 107.761303 264.606375 
L 107.920989 262.158205 
L 108.080675 262.158205 
L 108.24036 259.710035 
L 108.719418 259.710035 
L 108.879104 257.261865 
L 109.677533 257.261865 
L 109.837218 259.710035 
L 110.15659 259.710035 
L 110.316276 262.158205 
L 110.635647 262.158205 
L 110.795333 264.606375 
L 110.955019 262.158205 
L 111.274391 262.158205 
L 111.434076 259.710035 
L 111.913134 259.710035 
L 112.07282 257.261865 
L 112.232505 257.261865 
L 112.392191 254.813695 
L 112.871249 254.813695 
L 113.030935 252.365525 
L 113.19062 252.365525 
L 113.509992 247.469185 
L 113.829364 247.469185 
L 113.989049 245.021015 
L 114.787478 245.021015 
L 115.266536 237.676505 
L 115.585907 237.676505 
L 115.905279 232.780165 
L 116.064965 232.780165 
L 116.224651 230.331995 
L 116.384336 230.331995 
L 116.544022 227.883825 
L 117.182765 227.883825 
L 117.661823 220.539315 
L 117.821509 220.539315 
L 117.981194 218.091145 
L 118.300566 218.091145 
L 118.619938 213.194805 
L 118.779623 213.194805 
L 118.939309 210.746635 
L 119.098995 213.194805 
L 120.05711 198.505785 
L 120.216796 198.505785 
L 120.536167 193.609445 
L 120.855539 193.609445 
L 121.17491 188.713105 
L 121.334596 188.713105 
L 122.292711 174.024085 
L 122.452397 174.024085 
L 122.612083 171.575915 
L 122.931454 171.575915 
L 123.09114 169.127745 
L 123.250826 171.575915 
L 123.410512 171.575915 
L 123.570198 169.127745 
L 123.729883 169.127745 
L 123.889569 166.679575 
L 124.049255 166.679575 
L 124.208941 164.231405 
L 124.847684 164.231405 
L 125.00737 161.783235 
L 125.167056 164.231405 
L 125.646113 156.886895 
L 125.965485 156.886895 
L 126.12517 159.335065 
L 126.604228 151.990555 
L 127.242971 151.990555 
L 127.402657 154.438725 
L 127.562343 151.990555 
L 127.881714 151.990555 
L 128.201086 147.094215 
L 128.360772 147.094215 
L 128.520457 144.646045 
L 128.999515 144.646045 
L 129.159201 142.197875 
L 129.318886 142.197875 
L 129.478572 139.749705 
L 129.95763 139.749705 
L 130.117315 137.301535 
L 130.277001 139.749705 
L 130.436687 139.749705 
L 130.596373 137.301535 
L 131.554488 137.301535 
L 131.714174 139.749705 
L 132.352917 139.749705 
L 132.512603 142.197875 
L 132.672288 139.749705 
L 133.151346 139.749705 
L 133.311032 137.301535 
L 133.470717 139.749705 
L 133.630403 137.301535 
L 134.109461 137.301535 
L 134.269146 134.853365 
L 135.067575 134.853365 
L 135.227261 137.301535 
L 135.866004 137.301535 
L 136.02569 139.749705 
L 136.345062 139.749705 
L 136.504748 137.301535 
L 136.664433 139.749705 
L 136.983805 139.749705 
L 137.143491 137.301535 
L 138.101606 137.301535 
L 138.420977 132.405195 
L 138.580663 132.405195 
L 138.740349 129.957025 
L 138.900035 129.957025 
L 139.05972 127.508855 
L 141.614693 127.508855 
L 141.774379 125.060685 
L 144.648724 125.060685 
L 144.808409 127.508855 
L 147.203696 127.508855 
L 147.363382 129.957025 
L 147.523068 129.957025 
L 147.682754 132.405195 
L 147.84244 132.405195 
L 148.002125 129.957025 
L 150.87647 129.957025 
L 151.036156 127.508855 
L 154.389558 127.508855 
L 154.549243 129.957025 
L 155.028301 129.957025 
L 155.187987 127.508855 
L 155.82673 127.508855 
L 155.986416 125.060685 
L 156.94453 125.060685 
L 157.104216 122.612515 
L 157.583274 122.612515 
L 157.742959 120.164345 
L 157.902645 120.164345 
L 158.062331 117.716175 
L 159.180132 117.716175 
L 159.339817 115.268005 
L 159.499503 117.716175 
L 162.054476 117.716175 
L 162.214162 115.268005 
L 163.491648 115.268005 
L 163.651334 112.819835 
L 164.290077 112.819835 
L 164.449763 110.371665 
L 165.248192 110.371665 
L 165.407878 107.923495 
L 167.803165 107.923495 
L 167.962851 105.475325 
L 168.441908 105.475325 
L 168.601594 103.027155 
L 169.559709 103.027155 
L 169.719395 100.578985 
L 170.517824 100.578985 
L 170.67751 103.027155 
L 172.593739 103.027155 
L 172.753425 105.475325 
L 174.030911 105.475325 
L 174.190597 103.027155 
L 174.509969 103.027155 
L 174.669655 100.578985 
L 175.787455 100.578985 
L 176.106827 105.475325 
L 176.266513 105.475325 
L 176.426198 107.923495 
L 176.585884 107.923495 
L 176.74557 105.475325 
L 177.384313 105.475325 
L 177.543999 107.923495 
L 178.6618 107.923495 
L 178.821486 110.371665 
L 179.140857 110.371665 
L 179.300543 107.923495 
L 179.460229 110.371665 
L 179.619915 107.923495 
L 184.250803 107.923495 
L 184.410489 110.371665 
L 184.889546 110.371665 
L 185.049232 112.819835 
L 186.326718 112.819835 
L 186.486404 110.371665 
L 186.64609 110.371665 
L 186.805776 107.923495 
L 191.276978 107.923495 
L 191.436664 105.475325 
L 193.672265 105.475325 
L 193.831951 107.923495 
L 194.470694 107.923495 
L 194.63038 110.371665 
L 197.025667 110.371665 
L 197.185353 112.819835 
L 198.941897 112.819835 
L 199.101583 110.371665 
L 199.261268 110.371665 
L 199.58064 115.268005 
L 200.219383 115.268005 
L 200.379069 117.716175 
L 201.975927 117.716175 
L 202.135613 120.164345 
L 203.093728 120.164345 
L 203.253413 122.612515 
L 204.5309 122.612515 
L 204.690586 120.164345 
L 207.245559 120.164345 
L 207.405244 122.612515 
L 207.56493 122.612515 
L 207.724616 125.060685 
L 208.043988 120.164345 
L 208.203673 120.164345 
L 208.363359 117.716175 
L 209.321474 117.716175 
L 209.48116 115.268005 
L 210.59896 115.268005 
L 210.758646 112.819835 
L 211.237704 112.819835 
L 211.397389 110.371665 
L 213.632991 110.371665 
L 213.792676 112.819835 
L 214.591105 112.819835 
L 214.750791 115.268005 
L 215.070163 115.268005 
L 215.229849 117.716175 
L 216.187963 117.716175 
L 216.347649 115.268005 
L 216.826707 115.268005 
L 216.986393 112.819835 
L 218.423565 112.819835 
L 218.583251 115.268005 
L 223.693196 115.268005 
L 223.852882 117.716175 
L 225.609426 117.716175 
L 225.769112 115.268005 
L 225.928798 117.716175 
L 226.407855 117.716175 
L 226.567541 115.268005 
L 228.962828 115.268005 
L 229.122514 112.819835 
L 231.198429 112.819835 
L 231.517801 107.923495 
L 232.156544 107.923495 
L 232.31623 105.475325 
L 233.43403 105.475325 
L 233.593716 107.923495 
L 233.913088 107.923495 
L 234.072773 105.475325 
L 234.392145 105.475325 
L 234.551831 103.027155 
L 235.030888 103.027155 
L 235.190574 100.578985 
L 236.308375 100.578985 
L 236.468061 103.027155 
L 239.182719 103.027155 
L 239.342405 100.578985 
L 239.502091 100.578985 
L 239.661777 98.130815 
L 239.981148 98.130815 
L 240.140834 100.578985 
L 241.41832 100.578985 
L 241.578006 103.027155 
L 242.376435 103.027155 
L 242.536121 105.475325 
L 245.570151 105.475325 
L 245.729837 103.027155 
L 246.528266 103.027155 
L 246.687952 100.578985 
L 247.007324 100.578985 
L 247.167009 98.130815 
L 247.646067 98.130815 
L 247.805753 100.578985 
L 248.604182 100.578985 
L 248.763867 103.027155 
L 250.360725 103.027155 
L 250.520411 100.578985 
L 254.512556 100.578985 
L 254.672242 103.027155 
L 255.630357 103.027155 
L 255.790043 100.578985 
L 257.706272 100.578985 
L 257.865958 98.130815 
L 258.025644 98.130815 
L 258.18533 100.578985 
L 263.295275 100.578985 
L 263.454961 103.027155 
L 265.690563 103.027155 
L 265.850248 105.475325 
L 268.245535 105.475325 
L 268.405221 103.027155 
L 270.481137 103.027155 
L 270.640822 105.475325 
L 271.918309 105.475325 
L 272.077995 103.027155 
L 272.716738 103.027155 
L 272.876424 105.475325 
L 273.355481 105.475325 
L 273.515167 103.027155 
L 274.313596 103.027155 
L 274.473282 100.578985 
L 277.028255 100.578985 
L 277.18794 103.027155 
L 279.583227 103.027155 
L 279.742913 100.578985 
L 280.541342 100.578985 
L 280.701028 98.130815 
L 286.449717 98.130815 
L 286.609403 95.682645 
L 287.567518 95.682645 
L 287.727203 98.130815 
L 289.962805 98.130815 
L 290.12249 95.682645 
L 290.441862 95.682645 
L 290.601548 98.130815 
L 292.996835 98.130815 
L 293.156521 100.578985 
L 295.232436 100.578985 
L 295.392122 98.130815 
L 296.190551 98.130815 
L 296.350237 100.578985 
L 297.308352 100.578985 
L 297.468037 98.130815 
L 297.627723 98.130815 
L 297.787409 95.682645 
L 301.140811 95.682645 
L 301.300497 98.130815 
L 302.418297 98.130815 
L 302.577983 95.682645 
L 304.653899 95.682645 
L 304.813584 93.234475 
L 307.368557 93.234475 
L 307.528243 95.682645 
L 308.646044 95.682645 
L 308.805729 98.130815 
L 308.965415 98.130815 
L 309.125101 95.682645 
L 309.444473 95.682645 
L 309.604158 98.130815 
L 310.881645 98.130815 
L 311.041331 100.578985 
L 311.999446 100.578985 
L 312.159131 103.027155 
L 315.033476 103.027155 
L 315.352847 107.923495 
L 319.504678 107.923495 
L 319.664364 105.475325 
L 319.82405 105.475325 
L 319.983736 107.923495 
L 321.420908 107.923495 
L 321.580594 110.371665 
L 322.379023 110.371665 
L 322.538709 107.923495 
L 324.933996 107.923495 
L 325.093681 105.475325 
L 328.127712 105.475325 
L 328.287397 103.027155 
L 329.085826 103.027155 
L 329.245512 105.475325 
L 330.203627 105.475325 
L 330.363313 107.923495 
L 332.598914 107.923495 
L 332.7586 110.371665 
L 333.077972 110.371665 
L 333.237657 107.923495 
L 335.79263 107.923495 
L 335.952316 110.371665 
L 339.305718 110.371665 
L 339.465404 107.923495 
L 340.583204 107.923495 
L 340.74289 105.475325 
L 341.381633 105.475325 
L 341.541319 103.027155 
L 342.818806 103.027155 
L 342.978491 100.578985 
L 343.936606 100.578985 
L 344.096292 98.130815 
L 344.575349 98.130815 
L 344.735035 100.578985 
L 346.970636 100.578985 
L 347.290008 95.682645 
L 347.769065 95.682645 
L 347.928751 98.130815 
L 350.164353 98.130815 
L 350.324038 100.578985 
L 351.282153 100.578985 
L 351.441839 103.027155 
L 351.761211 103.027155 
L 351.920896 100.578985 
L 353.358069 100.578985 
L 353.517754 98.130815 
L 356.072727 98.130815 
L 356.072727 98.130815 
" clip-path="url(#p5c401ecebf)" style="fill: none; stroke: #bcbd22; stroke-width: 1.5; stroke-linecap: square"/>
   </g>
   <g id="patch_3">
    <path d="M 92.16 276.48 
L 92.16 69.12 
" style="fill: none; stroke: #000000; stroke-width: 0.8; stroke-linejoin: miter; stroke-linecap: square"/>
   </g>
   <g id="patch_4">
    <path d="M 368.64 276.48 
L 368.64 69.12 
" style="fill: none; stroke: #000000; stroke-width: 0.8; stroke-linejoin: miter; stroke-linecap: square"/>
   </g>
   <g id="patch_5">
    <path d="M 92.16 276.48 
L 368.64 276.48 
" style="fill: none; stroke: #000000; stroke-width: 0.8; stroke-linejoin: miter; stroke-linecap: square"/>
   </g>
   <g id="patch_6">
    <path d="M 92.16 69.12 
L 368.64 69.12 
" style="fill: none; stroke: #000000; stroke-width: 0.8; stroke-linejoin: miter; stroke-linecap: square"/>
   </g>
   <g id="text_19">
    <!-- fixed_woosterprobe_2afc_og -->
    <g transform="translate(145.171875 63.12) scale(0.12 -0.12)">
     <defs>
      <path id="DejaVuSans-66" d="M 2375 4863 
L 2375 4384 
L 1825 4384 
Q 1516 4384 1395 4259 
Q 1275 4134 1275 3809 
L 1275 3500 
L 2222 3500 
L 2222 3053 
L 1275 3053 
L 1275 0 
L 697 0 
L 697 3053 
L 147 3053 
L 147 3500 
L 697 3500 
L 697 3744 
Q 697 4328 969 4595 
Q 1241 4863 1831 4863 
L 2375 4863 
z
" transform="scale(0.015625)"/>
      <path id="DejaVuSans-69" d="M 603 3500 
L 1178 3500 
L 1178 0 
L 603 0 
L 603 3500 
z
M 603 4863 
L 1178 4863 
L 1178 4134 
L 603 4134 
L 603 4863 
z
" transform="scale(0.015625)"/>
      <path id="DejaVuSans-78" d="M 3513 3500 
L 2247 1797 
L 3578 0 
L 2900 0 
L 1881 1375 
L 863 0 
L 184 0 
L 1544 1831 
L 300 3500 
L 978 3500 
L 1906 2253 
L 2834 3500 
L 3513 3500 
z
" transform="scale(0.015625)"/>
      <path id="DejaVuSans-65" d="M 3597 1894 
L 3597 1613 
L 953 1613 
Q 991 1019 1311 708 
Q 1631 397 2203 397 
Q 2534 397 2845 478 
Q 3156 559 3463 722 
L 3463 178 
Q 3153 47 2828 -22 
Q 2503 -91 2169 -91 
Q 1331 -91 842 396 
Q 353 884 353 1716 
Q 353 2575 817 3079 
Q 1281 3584 2069 3584 
Q 2775 3584 3186 3129 
Q 3597 2675 3597 1894 
z
M 3022 2063 
Q 3016 2534 2758 2815 
Q 2500 3097 2075 3097 
Q 1594 3097 1305 2825 
Q 1016 2553 972 2059 
L 3022 2063 
z
" transform="scale(0.015625)"/>
      <path id="DejaVuSans-64" d="M 2906 2969 
L 2906 4863 
L 3481 4863 
L 3481 0 
L 2906 0 
L 2906 525 
Q 2725 213 2448 61 
Q 2172 -91 1784 -91 
Q 1150 -91 751 415 
Q 353 922 353 1747 
Q 353 2572 751 3078 
Q 1150 3584 1784 3584 
Q 2172 3584 2448 3432 
Q 2725 3281 2906 2969 
z
M 947 1747 
Q 947 1113 1208 752 
Q 1469 391 1925 391 
Q 2381 391 2643 752 
Q 2906 1113 2906 1747 
Q 2906 2381 2643 2742 
Q 2381 3103 1925 3103 
Q 1469 3103 1208 2742 
Q 947 2381 947 1747 
z
" transform="scale(0.015625)"/>
      <path id="DejaVuSans-5f" d="M 3263 -1063 
L 3263 -1509 
L -63 -1509 
L -63 -1063 
L 3263 -1063 
z
" transform="scale(0.015625)"/>
      <path id="DejaVuSans-77" d="M 269 3500 
L 844 3500 
L 1563 769 
L 2278 3500 
L 2956 3500 
L 3675 769 
L 4391 3500 
L 4966 3500 
L 4050 0 
L 3372 0 
L 2619 2869 
L 1863 0 
L 1184 0 
L 269 3500 
z
" transform="scale(0.015625)"/>
      <path id="DejaVuSans-6f" d="M 1959 3097 
Q 1497 3097 1228 2736 
Q 959 2375 959 1747 
Q 959 1119 1226 758 
Q 1494 397 1959 397 
Q 2419 397 2687 759 
Q 2956 1122 2956 1747 
Q 2956 2369 2687 2733 
Q 2419 3097 1959 3097 
z
M 1959 3584 
Q 2709 3584 3137 3096 
Q 3566 2609 3566 1747 
Q 3566 888 3137 398 
Q 2709 -91 1959 -91 
Q 1206 -91 779 398 
Q 353 888 353 1747 
Q 353 2609 779 3096 
Q 1206 3584 1959 3584 
z
" transform="scale(0.015625)"/>
      <path id="DejaVuSans-73" d="M 2834 3397 
L 2834 2853 
Q 2591 2978 2328 3040 
Q 2066 3103 1784 3103 
Q 1356 3103 1142 2972 
Q 928 2841 928 2578 
Q 928 2378 1081 2264 
Q 1234 2150 1697 2047 
L 1894 2003 
Q 2506 1872 2764 1633 
Q 3022 1394 3022 966 
Q 3022 478 2636 193 
Q 2250 -91 1575 -91 
Q 1294 -91 989 -36 
Q 684 19 347 128 
L 347 722 
Q 666 556 975 473 
Q 1284 391 1588 391 
Q 1994 391 2212 530 
Q 2431 669 2431 922 
Q 2431 1156 2273 1281 
Q 2116 1406 1581 1522 
L 1381 1569 
Q 847 1681 609 1914 
Q 372 2147 372 2553 
Q 372 3047 722 3315 
Q 1072 3584 1716 3584 
Q 2034 3584 2315 3537 
Q 2597 3491 2834 3397 
z
" transform="scale(0.015625)"/>
      <path id="DejaVuSans-74" d="M 1172 4494 
L 1172 3500 
L 2356 3500 
L 2356 3053 
L 1172 3053 
L 1172 1153 
Q 1172 725 1289 603 
Q 1406 481 1766 481 
L 2356 481 
L 2356 0 
L 1766 0 
Q 1100 0 847 248 
Q 594 497 594 1153 
L 594 3053 
L 172 3053 
L 172 3500 
L 594 3500 
L 594 4494 
L 1172 4494 
z
" transform="scale(0.015625)"/>
      <path id="DejaVuSans-72" d="M 2631 2963 
Q 2534 3019 2420 3045 
Q 2306 3072 2169 3072 
Q 1681 3072 1420 2755 
Q 1159 2438 1159 1844 
L 1159 0 
L 581 0 
L 581 3500 
L 1159 3500 
L 1159 2956 
Q 1341 3275 1631 3429 
Q 1922 3584 2338 3584 
Q 2397 3584 2469 3576 
Q 2541 3569 2628 3553 
L 2631 2963 
z
" transform="scale(0.015625)"/>
      <path id="DejaVuSans-70" d="M 1159 525 
L 1159 -1331 
L 581 -1331 
L 581 3500 
L 1159 3500 
L 1159 2969 
Q 1341 3281 1617 3432 
Q 1894 3584 2278 3584 
Q 2916 3584 3314 3078 
Q 3713 2572 3713 1747 
Q 3713 922 3314 415 
Q 2916 -91 2278 -91 
Q 1894 -91 1617 61 
Q 1341 213 1159 525 
z
M 3116 1747 
Q 3116 2381 2855 2742 
Q 2594 3103 2138 3103 
Q 1681 3103 1420 2742 
Q 1159 2381 1159 1747 
Q 1159 1113 1420 752 
Q 1681 391 2138 391 
Q 2594 391 2855 752 
Q 3116 1113 3116 1747 
z
" transform="scale(0.015625)"/>
      <path id="DejaVuSans-62" d="M 3116 1747 
Q 3116 2381 2855 2742 
Q 2594 3103 2138 3103 
Q 1681 3103 1420 2742 
Q 1159 2381 1159 1747 
Q 1159 1113 1420 752 
Q 1681 391 2138 391 
Q 2594 391 2855 752 
Q 3116 1113 3116 1747 
z
M 1159 2969 
Q 1341 3281 1617 3432 
Q 1894 3584 2278 3584 
Q 2916 3584 3314 3078 
Q 3713 2572 3713 1747 
Q 3713 922 3314 415 
Q 2916 -91 2278 -91 
Q 1894 -91 1617 61 
Q 1341 213 1159 525 
L 1159 0 
L 581 0 
L 581 4863 
L 1159 4863 
L 1159 2969 
z
" transform="scale(0.015625)"/>
      <path id="DejaVuSans-61" d="M 2194 1759 
Q 1497 1759 1228 1600 
Q 959 1441 959 1056 
Q 959 750 1161 570 
Q 1363 391 1709 391 
Q 2188 391 2477 730 
Q 2766 1069 2766 1631 
L 2766 1759 
L 2194 1759 
z
M 3341 1997 
L 3341 0 
L 2766 0 
L 2766 531 
Q 2569 213 2275 61 
Q 1981 -91 1556 -91 
Q 1019 -91 701 211 
Q 384 513 384 1019 
Q 384 1609 779 1909 
Q 1175 2209 1959 2209 
L 2766 2209 
L 2766 2266 
Q 2766 2663 2505 2880 
Q 2244 3097 1772 3097 
Q 1472 3097 1187 3025 
Q 903 2953 641 2809 
L 641 3341 
Q 956 3463 1253 3523 
Q 1550 3584 1831 3584 
Q 2591 3584 2966 3190 
Q 3341 2797 3341 1997 
z
" transform="scale(0.015625)"/>
      <path id="DejaVuSans-63" d="M 3122 3366 
L 3122 2828 
Q 2878 2963 2633 3030 
Q 2388 3097 2138 3097 
Q 1578 3097 1268 2742 
Q 959 2388 959 1747 
Q 959 1106 1268 751 
Q 1578 397 2138 397 
Q 2388 397 2633 464 
Q 2878 531 3122 666 
L 3122 134 
Q 2881 22 2623 -34 
Q 2366 -91 2075 -91 
Q 1284 -91 818 406 
Q 353 903 353 1747 
Q 353 2603 823 3093 
Q 1294 3584 2113 3584 
Q 2378 3584 2631 3529 
Q 2884 3475 3122 3366 
z
" transform="scale(0.015625)"/>
      <path id="DejaVuSans-67" d="M 2906 1791 
Q 2906 2416 2648 2759 
Q 2391 3103 1925 3103 
Q 1463 3103 1205 2759 
Q 947 2416 947 1791 
Q 947 1169 1205 825 
Q 1463 481 1925 481 
Q 2391 481 2648 825 
Q 2906 1169 2906 1791 
z
M 3481 434 
Q 3481 -459 3084 -895 
Q 2688 -1331 1869 -1331 
Q 1566 -1331 1297 -1286 
Q 1028 -1241 775 -1147 
L 775 -588 
Q 1028 -725 1275 -790 
Q 1522 -856 1778 -856 
Q 2344 -856 2625 -561 
Q 2906 -266 2906 331 
L 2906 616 
Q 2728 306 2450 153 
Q 2172 0 1784 0 
Q 1141 0 747 490 
Q 353 981 353 1791 
Q 353 2603 747 3093 
Q 1141 3584 1784 3584 
Q 2172 3584 2450 3431 
Q 2728 3278 2906 2969 
L 2906 3500 
L 3481 3500 
L 3481 434 
z
" transform="scale(0.015625)"/>
     </defs>
     <use xlink:href="#DejaVuSans-66"/>
     <use xlink:href="#DejaVuSans-69" x="35.205078"/>
     <use xlink:href="#DejaVuSans-78" x="62.988281"/>
     <use xlink:href="#DejaVuSans-65" x="119.042969"/>
     <use xlink:href="#DejaVuSans-64" x="180.566406"/>
     <use xlink:href="#DejaVuSans-5f" x="244.042969"/>
     <use xlink:href="#DejaVuSans-77" x="294.042969"/>
     <use xlink:href="#DejaVuSans-6f" x="375.830078"/>
     <use xlink:href="#DejaVuSans-6f" x="437.011719"/>
     <use xlink:href="#DejaVuSans-73" x="498.193359"/>
     <use xlink:href="#DejaVuSans-74" x="550.292969"/>
     <use xlink:href="#DejaVuSans-65" x="589.501953"/>
     <use xlink:href="#DejaVuSans-72" x="651.025391"/>
     <use xlink:href="#DejaVuSans-70" x="692.138672"/>
     <use xlink:href="#DejaVuSans-72" x="755.615234"/>
     <use xlink:href="#DejaVuSans-6f" x="794.478516"/>
     <use xlink:href="#DejaVuSans-62" x="855.660156"/>
     <use xlink:href="#DejaVuSans-65" x="919.136719"/>
     <use xlink:href="#DejaVuSans-5f" x="980.660156"/>
     <use xlink:href="#DejaVuSans-32" x="1030.660156"/>
     <use xlink:href="#DejaVuSans-61" x="1094.283203"/>
     <use xlink:href="#DejaVuSans-66" x="1155.5625"/>
     <use xlink:href="#DejaVuSans-63" x="1190.767578"/>
     <use xlink:href="#DejaVuSans-5f" x="1245.748047"/>
     <use xlink:href="#DejaVuSans-6f" x="1295.748047"/>
     <use xlink:href="#DejaVuSans-67" x="1356.929688"/>
    </g>
   </g>
   <g id="legend_1">
    <g id="patch_7">
     <path d="M 146.311875 271.48 
L 361.64 271.48 
Q 363.64 271.48 363.64 269.48 
L 363.64 165.78625 
Q 363.64 163.78625 361.64 163.78625 
L 146.311875 163.78625 
Q 144.311875 163.78625 144.311875 165.78625 
L 144.311875 269.48 
Q 144.311875 271.48 146.311875 271.48 
z
" style="fill: #ffffff; opacity: 0.8; stroke: #cccccc; stroke-linejoin: miter"/>
    </g>
    <g id="line2d_28">
     <path d="M 148.311875 171.884687 
L 158.311875 171.884687 
L 168.311875 171.884687 
" style="fill: none; stroke: #1f77b4; stroke-width: 1.5; stroke-linecap: square"/>
    </g>
    <g id="text_20">
     <!-- low_guass_colored_shape_to_color -->
     <g transform="translate(176.311875 175.384687) scale(0.1 -0.1)">
      <defs>
       <path id="DejaVuSans-6c" d="M 603 4863 
L 1178 4863 
L 1178 0 
L 603 0 
L 603 4863 
z
" transform="scale(0.015625)"/>
       <path id="DejaVuSans-75" d="M 544 1381 
L 544 3500 
L 1119 3500 
L 1119 1403 
Q 1119 906 1312 657 
Q 1506 409 1894 409 
Q 2359 409 2629 706 
Q 2900 1003 2900 1516 
L 2900 3500 
L 3475 3500 
L 3475 0 
L 2900 0 
L 2900 538 
Q 2691 219 2414 64 
Q 2138 -91 1772 -91 
Q 1169 -91 856 284 
Q 544 659 544 1381 
z
M 1991 3584 
L 1991 3584 
z
" transform="scale(0.015625)"/>
       <path id="DejaVuSans-68" d="M 3513 2113 
L 3513 0 
L 2938 0 
L 2938 2094 
Q 2938 2591 2744 2837 
Q 2550 3084 2163 3084 
Q 1697 3084 1428 2787 
Q 1159 2491 1159 1978 
L 1159 0 
L 581 0 
L 581 4863 
L 1159 4863 
L 1159 2956 
Q 1366 3272 1645 3428 
Q 1925 3584 2291 3584 
Q 2894 3584 3203 3211 
Q 3513 2838 3513 2113 
z
" transform="scale(0.015625)"/>
      </defs>
      <use xlink:href="#DejaVuSans-6c"/>
      <use xlink:href="#DejaVuSans-6f" x="27.783203"/>
      <use xlink:href="#DejaVuSans-77" x="88.964844"/>
      <use xlink:href="#DejaVuSans-5f" x="170.751953"/>
      <use xlink:href="#DejaVuSans-67" x="220.751953"/>
      <use xlink:href="#DejaVuSans-75" x="284.228516"/>
      <use xlink:href="#DejaVuSans-61" x="347.607422"/>
      <use xlink:href="#DejaVuSans-73" x="408.886719"/>
      <use xlink:href="#DejaVuSans-73" x="460.986328"/>
      <use xlink:href="#DejaVuSans-5f" x="513.085938"/>
      <use xlink:href="#DejaVuSans-63" x="563.085938"/>
      <use xlink:href="#DejaVuSans-6f" x="618.066406"/>
      <use xlink:href="#DejaVuSans-6c" x="679.248047"/>
      <use xlink:href="#DejaVuSans-6f" x="707.03125"/>
      <use xlink:href="#DejaVuSans-72" x="768.212891"/>
      <use xlink:href="#DejaVuSans-65" x="807.076172"/>
      <use xlink:href="#DejaVuSans-64" x="868.599609"/>
      <use xlink:href="#DejaVuSans-5f" x="932.076172"/>
      <use xlink:href="#DejaVuSans-73" x="982.076172"/>
      <use xlink:href="#DejaVuSans-68" x="1034.175781"/>
      <use xlink:href="#DejaVuSans-61" x="1097.554688"/>
      <use xlink:href="#DejaVuSans-70" x="1158.833984"/>
      <use xlink:href="#DejaVuSans-65" x="1222.310547"/>
      <use xlink:href="#DejaVuSans-5f" x="1283.833984"/>
      <use xlink:href="#DejaVuSans-74" x="1333.833984"/>
      <use xlink:href="#DejaVuSans-6f" x="1373.042969"/>
      <use xlink:href="#DejaVuSans-5f" x="1434.224609"/>
      <use xlink:href="#DejaVuSans-63" x="1484.224609"/>
      <use xlink:href="#DejaVuSans-6f" x="1539.205078"/>
      <use xlink:href="#DejaVuSans-6c" x="1600.386719"/>
      <use xlink:href="#DejaVuSans-6f" x="1628.169922"/>
      <use xlink:href="#DejaVuSans-72" x="1689.351562"/>
     </g>
    </g>
    <g id="line2d_29">
     <path d="M 148.311875 186.840937 
L 158.311875 186.840937 
L 168.311875 186.840937 
" style="fill: none; stroke: #ff7f0e; stroke-width: 1.5; stroke-linecap: square"/>
    </g>
    <g id="text_21">
     <!-- high_guass_colored_shape_to_color -->
     <g transform="translate(176.311875 190.340937) scale(0.1 -0.1)">
      <use xlink:href="#DejaVuSans-68"/>
      <use xlink:href="#DejaVuSans-69" x="63.378906"/>
      <use xlink:href="#DejaVuSans-67" x="91.162109"/>
      <use xlink:href="#DejaVuSans-68" x="154.638672"/>
      <use xlink:href="#DejaVuSans-5f" x="218.017578"/>
      <use xlink:href="#DejaVuSans-67" x="268.017578"/>
      <use xlink:href="#DejaVuSans-75" x="331.494141"/>
      <use xlink:href="#DejaVuSans-61" x="394.873047"/>
      <use xlink:href="#DejaVuSans-73" x="456.152344"/>
      <use xlink:href="#DejaVuSans-73" x="508.251953"/>
      <use xlink:href="#DejaVuSans-5f" x="560.351562"/>
      <use xlink:href="#DejaVuSans-63" x="610.351562"/>
      <use xlink:href="#DejaVuSans-6f" x="665.332031"/>
      <use xlink:href="#DejaVuSans-6c" x="726.513672"/>
      <use xlink:href="#DejaVuSans-6f" x="754.296875"/>
      <use xlink:href="#DejaVuSans-72" x="815.478516"/>
      <use xlink:href="#DejaVuSans-65" x="854.341797"/>
      <use xlink:href="#DejaVuSans-64" x="915.865234"/>
      <use xlink:href="#DejaVuSans-5f" x="979.341797"/>
      <use xlink:href="#DejaVuSans-73" x="1029.341797"/>
      <use xlink:href="#DejaVuSans-68" x="1081.441406"/>
      <use xlink:href="#DejaVuSans-61" x="1144.820312"/>
      <use xlink:href="#DejaVuSans-70" x="1206.099609"/>
      <use xlink:href="#DejaVuSans-65" x="1269.576172"/>
      <use xlink:href="#DejaVuSans-5f" x="1331.099609"/>
      <use xlink:href="#DejaVuSans-74" x="1381.099609"/>
      <use xlink:href="#DejaVuSans-6f" x="1420.308594"/>
      <use xlink:href="#DejaVuSans-5f" x="1481.490234"/>
      <use xlink:href="#DejaVuSans-63" x="1531.490234"/>
      <use xlink:href="#DejaVuSans-6f" x="1586.470703"/>
      <use xlink:href="#DejaVuSans-6c" x="1647.652344"/>
      <use xlink:href="#DejaVuSans-6f" x="1675.435547"/>
      <use xlink:href="#DejaVuSans-72" x="1736.617188"/>
     </g>
    </g>
    <g id="line2d_30">
     <path d="M 148.311875 201.797187 
L 158.311875 201.797187 
L 168.311875 201.797187 
" style="fill: none; stroke: #2ca02c; stroke-width: 1.5; stroke-linecap: square"/>
    </g>
    <g id="text_22">
     <!-- low_guass_colored_shape_to_shape -->
     <g transform="translate(176.311875 205.297187) scale(0.1 -0.1)">
      <use xlink:href="#DejaVuSans-6c"/>
      <use xlink:href="#DejaVuSans-6f" x="27.783203"/>
      <use xlink:href="#DejaVuSans-77" x="88.964844"/>
      <use xlink:href="#DejaVuSans-5f" x="170.751953"/>
      <use xlink:href="#DejaVuSans-67" x="220.751953"/>
      <use xlink:href="#DejaVuSans-75" x="284.228516"/>
      <use xlink:href="#DejaVuSans-61" x="347.607422"/>
      <use xlink:href="#DejaVuSans-73" x="408.886719"/>
      <use xlink:href="#DejaVuSans-73" x="460.986328"/>
      <use xlink:href="#DejaVuSans-5f" x="513.085938"/>
      <use xlink:href="#DejaVuSans-63" x="563.085938"/>
      <use xlink:href="#DejaVuSans-6f" x="618.066406"/>
      <use xlink:href="#DejaVuSans-6c" x="679.248047"/>
      <use xlink:href="#DejaVuSans-6f" x="707.03125"/>
      <use xlink:href="#DejaVuSans-72" x="768.212891"/>
      <use xlink:href="#DejaVuSans-65" x="807.076172"/>
      <use xlink:href="#DejaVuSans-64" x="868.599609"/>
      <use xlink:href="#DejaVuSans-5f" x="932.076172"/>
      <use xlink:href="#DejaVuSans-73" x="982.076172"/>
      <use xlink:href="#DejaVuSans-68" x="1034.175781"/>
      <use xlink:href="#DejaVuSans-61" x="1097.554688"/>
      <use xlink:href="#DejaVuSans-70" x="1158.833984"/>
      <use xlink:href="#DejaVuSans-65" x="1222.310547"/>
      <use xlink:href="#DejaVuSans-5f" x="1283.833984"/>
      <use xlink:href="#DejaVuSans-74" x="1333.833984"/>
      <use xlink:href="#DejaVuSans-6f" x="1373.042969"/>
      <use xlink:href="#DejaVuSans-5f" x="1434.224609"/>
      <use xlink:href="#DejaVuSans-73" x="1484.224609"/>
      <use xlink:href="#DejaVuSans-68" x="1536.324219"/>
      <use xlink:href="#DejaVuSans-61" x="1599.703125"/>
      <use xlink:href="#DejaVuSans-70" x="1660.982422"/>
      <use xlink:href="#DejaVuSans-65" x="1724.458984"/>
     </g>
    </g>
    <g id="line2d_31">
     <path d="M 148.311875 216.753437 
L 158.311875 216.753437 
L 168.311875 216.753437 
" style="fill: none; stroke: #d62728; stroke-width: 1.5; stroke-linecap: square"/>
    </g>
    <g id="text_23">
     <!-- high_guass_colored_shape_to_shape -->
     <g transform="translate(176.311875 220.253437) scale(0.1 -0.1)">
      <use xlink:href="#DejaVuSans-68"/>
      <use xlink:href="#DejaVuSans-69" x="63.378906"/>
      <use xlink:href="#DejaVuSans-67" x="91.162109"/>
      <use xlink:href="#DejaVuSans-68" x="154.638672"/>
      <use xlink:href="#DejaVuSans-5f" x="218.017578"/>
      <use xlink:href="#DejaVuSans-67" x="268.017578"/>
      <use xlink:href="#DejaVuSans-75" x="331.494141"/>
      <use xlink:href="#DejaVuSans-61" x="394.873047"/>
      <use xlink:href="#DejaVuSans-73" x="456.152344"/>
      <use xlink:href="#DejaVuSans-73" x="508.251953"/>
      <use xlink:href="#DejaVuSans-5f" x="560.351562"/>
      <use xlink:href="#DejaVuSans-63" x="610.351562"/>
      <use xlink:href="#DejaVuSans-6f" x="665.332031"/>
      <use xlink:href="#DejaVuSans-6c" x="726.513672"/>
      <use xlink:href="#DejaVuSans-6f" x="754.296875"/>
      <use xlink:href="#DejaVuSans-72" x="815.478516"/>
      <use xlink:href="#DejaVuSans-65" x="854.341797"/>
      <use xlink:href="#DejaVuSans-64" x="915.865234"/>
      <use xlink:href="#DejaVuSans-5f" x="979.341797"/>
      <use xlink:href="#DejaVuSans-73" x="1029.341797"/>
      <use xlink:href="#DejaVuSans-68" x="1081.441406"/>
      <use xlink:href="#DejaVuSans-61" x="1144.820312"/>
      <use xlink:href="#DejaVuSans-70" x="1206.099609"/>
      <use xlink:href="#DejaVuSans-65" x="1269.576172"/>
      <use xlink:href="#DejaVuSans-5f" x="1331.099609"/>
      <use xlink:href="#DejaVuSans-74" x="1381.099609"/>
      <use xlink:href="#DejaVuSans-6f" x="1420.308594"/>
      <use xlink:href="#DejaVuSans-5f" x="1481.490234"/>
      <use xlink:href="#DejaVuSans-73" x="1531.490234"/>
      <use xlink:href="#DejaVuSans-68" x="1583.589844"/>
      <use xlink:href="#DejaVuSans-61" x="1646.96875"/>
      <use xlink:href="#DejaVuSans-70" x="1708.248047"/>
      <use xlink:href="#DejaVuSans-65" x="1771.724609"/>
     </g>
    </g>
    <g id="line2d_32">
     <path d="M 148.311875 231.709687 
L 158.311875 231.709687 
L 168.311875 231.709687 
" style="fill: none; stroke: #9467bd; stroke-width: 1.5; stroke-linecap: square"/>
    </g>
    <g id="text_24">
     <!-- achromatic_shape_to_shape -->
     <g transform="translate(176.311875 235.209687) scale(0.1 -0.1)">
      <defs>
       <path id="DejaVuSans-6d" d="M 3328 2828 
Q 3544 3216 3844 3400 
Q 4144 3584 4550 3584 
Q 5097 3584 5394 3201 
Q 5691 2819 5691 2113 
L 5691 0 
L 5113 0 
L 5113 2094 
Q 5113 2597 4934 2840 
Q 4756 3084 4391 3084 
Q 3944 3084 3684 2787 
Q 3425 2491 3425 1978 
L 3425 0 
L 2847 0 
L 2847 2094 
Q 2847 2600 2669 2842 
Q 2491 3084 2119 3084 
Q 1678 3084 1418 2786 
Q 1159 2488 1159 1978 
L 1159 0 
L 581 0 
L 581 3500 
L 1159 3500 
L 1159 2956 
Q 1356 3278 1631 3431 
Q 1906 3584 2284 3584 
Q 2666 3584 2933 3390 
Q 3200 3197 3328 2828 
z
" transform="scale(0.015625)"/>
      </defs>
      <use xlink:href="#DejaVuSans-61"/>
      <use xlink:href="#DejaVuSans-63" x="61.279297"/>
      <use xlink:href="#DejaVuSans-68" x="116.259766"/>
      <use xlink:href="#DejaVuSans-72" x="179.638672"/>
      <use xlink:href="#DejaVuSans-6f" x="218.501953"/>
      <use xlink:href="#DejaVuSans-6d" x="279.683594"/>
      <use xlink:href="#DejaVuSans-61" x="377.095703"/>
      <use xlink:href="#DejaVuSans-74" x="438.375"/>
      <use xlink:href="#DejaVuSans-69" x="477.583984"/>
      <use xlink:href="#DejaVuSans-63" x="505.367188"/>
      <use xlink:href="#DejaVuSans-5f" x="560.347656"/>
      <use xlink:href="#DejaVuSans-73" x="610.347656"/>
      <use xlink:href="#DejaVuSans-68" x="662.447266"/>
      <use xlink:href="#DejaVuSans-61" x="725.826172"/>
      <use xlink:href="#DejaVuSans-70" x="787.105469"/>
      <use xlink:href="#DejaVuSans-65" x="850.582031"/>
      <use xlink:href="#DejaVuSans-5f" x="912.105469"/>
      <use xlink:href="#DejaVuSans-74" x="962.105469"/>
      <use xlink:href="#DejaVuSans-6f" x="1001.314453"/>
      <use xlink:href="#DejaVuSans-5f" x="1062.496094"/>
      <use xlink:href="#DejaVuSans-73" x="1112.496094"/>
      <use xlink:href="#DejaVuSans-68" x="1164.595703"/>
      <use xlink:href="#DejaVuSans-61" x="1227.974609"/>
      <use xlink:href="#DejaVuSans-70" x="1289.253906"/>
      <use xlink:href="#DejaVuSans-65" x="1352.730469"/>
     </g>
    </g>
    <g id="line2d_33">
     <path d="M 148.311875 246.665937 
L 158.311875 246.665937 
L 168.311875 246.665937 
" style="fill: none; stroke: #8c564b; stroke-width: 1.5; stroke-linecap: square"/>
    </g>
    <g id="text_25">
     <!-- color_to_color_low -->
     <g transform="translate(176.311875 250.165937) scale(0.1 -0.1)">
      <use xlink:href="#DejaVuSans-63"/>
      <use xlink:href="#DejaVuSans-6f" x="54.980469"/>
      <use xlink:href="#DejaVuSans-6c" x="116.162109"/>
      <use xlink:href="#DejaVuSans-6f" x="143.945312"/>
      <use xlink:href="#DejaVuSans-72" x="205.126953"/>
      <use xlink:href="#DejaVuSans-5f" x="246.240234"/>
      <use xlink:href="#DejaVuSans-74" x="296.240234"/>
      <use xlink:href="#DejaVuSans-6f" x="335.449219"/>
      <use xlink:href="#DejaVuSans-5f" x="396.630859"/>
      <use xlink:href="#DejaVuSans-63" x="446.630859"/>
      <use xlink:href="#DejaVuSans-6f" x="501.611328"/>
      <use xlink:href="#DejaVuSans-6c" x="562.792969"/>
      <use xlink:href="#DejaVuSans-6f" x="590.576172"/>
      <use xlink:href="#DejaVuSans-72" x="651.757812"/>
      <use xlink:href="#DejaVuSans-5f" x="692.871094"/>
      <use xlink:href="#DejaVuSans-6c" x="742.871094"/>
      <use xlink:href="#DejaVuSans-6f" x="770.654297"/>
      <use xlink:href="#DejaVuSans-77" x="831.835938"/>
     </g>
    </g>
    <g id="line2d_34">
     <path d="M 148.311875 261.622187 
L 158.311875 261.622187 
L 168.311875 261.622187 
" style="fill: none; stroke: #e377c2; stroke-width: 1.5; stroke-linecap: square"/>
    </g>
    <g id="text_26">
     <!-- color_to_color_high -->
     <g transform="translate(176.311875 265.122187) scale(0.1 -0.1)">
      <use xlink:href="#DejaVuSans-63"/>
      <use xlink:href="#DejaVuSans-6f" x="54.980469"/>
      <use xlink:href="#DejaVuSans-6c" x="116.162109"/>
      <use xlink:href="#DejaVuSans-6f" x="143.945312"/>
      <use xlink:href="#DejaVuSans-72" x="205.126953"/>
      <use xlink:href="#DejaVuSans-5f" x="246.240234"/>
      <use xlink:href="#DejaVuSans-74" x="296.240234"/>
      <use xlink:href="#DejaVuSans-6f" x="335.449219"/>
      <use xlink:href="#DejaVuSans-5f" x="396.630859"/>
      <use xlink:href="#DejaVuSans-63" x="446.630859"/>
      <use xlink:href="#DejaVuSans-6f" x="501.611328"/>
      <use xlink:href="#DejaVuSans-6c" x="562.792969"/>
      <use xlink:href="#DejaVuSans-6f" x="590.576172"/>
      <use xlink:href="#DejaVuSans-72" x="651.757812"/>
      <use xlink:href="#DejaVuSans-5f" x="692.871094"/>
      <use xlink:href="#DejaVuSans-68" x="742.871094"/>
      <use xlink:href="#DejaVuSans-69" x="806.25"/>
      <use xlink:href="#DejaVuSans-67" x="834.033203"/>
      <use xlink:href="#DejaVuSans-68" x="897.509766"/>
     </g>
    </g>
   </g>
  </g>
  <g id="text_27">
   <!-- free_behavior -->
   <g transform="translate(189.23625 16.030125) scale(0.12 -0.12)">
    <defs>
     <path id="DejaVuSans-76" d="M 191 3500 
L 800 3500 
L 1894 563 
L 2988 3500 
L 3597 3500 
L 2284 0 
L 1503 0 
L 191 3500 
z
" transform="scale(0.015625)"/>
    </defs>
    <use xlink:href="#DejaVuSans-66"/>
    <use xlink:href="#DejaVuSans-72" x="35.205078"/>
    <use xlink:href="#DejaVuSans-65" x="74.068359"/>
    <use xlink:href="#DejaVuSans-65" x="135.591797"/>
    <use xlink:href="#DejaVuSans-5f" x="197.115234"/>
    <use xlink:href="#DejaVuSans-62" x="247.115234"/>
    <use xlink:href="#DejaVuSans-65" x="310.591797"/>
    <use xlink:href="#DejaVuSans-68" x="372.115234"/>
    <use xlink:href="#DejaVuSans-61" x="435.494141"/>
    <use xlink:href="#DejaVuSans-76" x="496.773438"/>
    <use xlink:href="#DejaVuSans-69" x="555.953125"/>
    <use xlink:href="#DejaVuSans-6f" x="583.736328"/>
    <use xlink:href="#DejaVuSans-72" x="644.917969"/>
   </g>
  </g>
 </g>
 <defs>
  <clipPath id="p5c401ecebf">
   <rect x="92.16" y="69.12" width="276.48" height="207.36"/>
  </clipPath>
 </defs>
</svg>
