<?xml version="1.0" encoding="utf-8" standalone="no"?>
<!DOCTYPE svg PUBLIC "-//W3C//DTD SVG 1.1//EN"
  "http://www.w3.org/Graphics/SVG/1.1/DTD/svg11.dtd">
<svg xmlns:xlink="http://www.w3.org/1999/xlink" width="460.8pt" height="345.6pt" viewBox="0 0 460.8 345.6" xmlns="http://www.w3.org/2000/svg" version="1.1">
 <metadata>
  <rdf:RDF xmlns:dc="http://purl.org/dc/elements/1.1/" xmlns:cc="http://creativecommons.org/ns#" xmlns:rdf="http://www.w3.org/1999/02/22-rdf-syntax-ns#">
   <cc:Work>
    <dc:type rdf:resource="http://purl.org/dc/dcmitype/StillImage"/>
    <dc:date>2023-08-08T12:07:38.570139</dc:date>
    <dc:format>image/svg+xml</dc:format>
    <dc:creator>
     <cc:Agent>
      <dc:title>Matplotlib v3.7.1, https://matplotlib.org/</dc:title>
     </cc:Agent>
    </dc:creator>
   </cc:Work>
  </rdf:RDF>
 </metadata>
 <defs>
  <style type="text/css">*{stroke-linejoin: round; stroke-linecap: butt}</style>
 </defs>
 <g id="figure_1">
  <g id="patch_1">
   <path d="M 0 345.6 
L 460.8 345.6 
L 460.8 0 
L 0 0 
z
" style="fill: #ffffff"/>
  </g>
  <g id="axes_1">
   <g id="patch_2">
    <path d="M 92.16 276.48 
L 368.64 276.48 
L 368.64 69.12 
L 92.16 69.12 
z
" style="fill: #ffffff"/>
   </g>
   <g id="matplotlib.axis_1">
    <g id="xtick_1">
     <g id="line2d_1">
      <defs>
       <path id="mddd3970bb6" d="M 0 0 
L 0 3.5 
" style="stroke: #000000; stroke-width: 0.8"/>
      </defs>
      <g>
       <use xlink:href="#mddd3970bb6" x="104.727273" y="276.48" style="stroke: #000000; stroke-width: 0.8"/>
      </g>
     </g>
     <g id="text_1">
      <!-- 0 -->
      <g transform="translate(101.546023 291.078437) scale(0.1 -0.1)">
       <defs>
        <path id="DejaVuSans-30" d="M 2034 4250 
Q 1547 4250 1301 3770 
Q 1056 3291 1056 2328 
Q 1056 1369 1301 889 
Q 1547 409 2034 409 
Q 2525 409 2770 889 
Q 3016 1369 3016 2328 
Q 3016 3291 2770 3770 
Q 2525 4250 2034 4250 
z
M 2034 4750 
Q 2819 4750 3233 4129 
Q 3647 3509 3647 2328 
Q 3647 1150 3233 529 
Q 2819 -91 2034 -91 
Q 1250 -91 836 529 
Q 422 1150 422 2328 
Q 422 3509 836 4129 
Q 1250 4750 2034 4750 
z
" transform="scale(0.015625)"/>
       </defs>
       <use xlink:href="#DejaVuSans-30"/>
      </g>
     </g>
    </g>
    <g id="xtick_2">
     <g id="line2d_2">
      <g>
       <use xlink:href="#mddd3970bb6" x="136.664433" y="276.48" style="stroke: #000000; stroke-width: 0.8"/>
      </g>
     </g>
     <g id="text_2">
      <!-- 200 -->
      <g transform="translate(127.120683 291.078437) scale(0.1 -0.1)">
       <defs>
        <path id="DejaVuSans-32" d="M 1228 531 
L 3431 531 
L 3431 0 
L 469 0 
L 469 531 
Q 828 903 1448 1529 
Q 2069 2156 2228 2338 
Q 2531 2678 2651 2914 
Q 2772 3150 2772 3378 
Q 2772 3750 2511 3984 
Q 2250 4219 1831 4219 
Q 1534 4219 1204 4116 
Q 875 4013 500 3803 
L 500 4441 
Q 881 4594 1212 4672 
Q 1544 4750 1819 4750 
Q 2544 4750 2975 4387 
Q 3406 4025 3406 3419 
Q 3406 3131 3298 2873 
Q 3191 2616 2906 2266 
Q 2828 2175 2409 1742 
Q 1991 1309 1228 531 
z
" transform="scale(0.015625)"/>
       </defs>
       <use xlink:href="#DejaVuSans-32"/>
       <use xlink:href="#DejaVuSans-30" x="63.623047"/>
       <use xlink:href="#DejaVuSans-30" x="127.246094"/>
      </g>
     </g>
    </g>
    <g id="xtick_3">
     <g id="line2d_3">
      <g>
       <use xlink:href="#mddd3970bb6" x="168.601594" y="276.48" style="stroke: #000000; stroke-width: 0.8"/>
      </g>
     </g>
     <g id="text_3">
      <!-- 400 -->
      <g transform="translate(159.057844 291.078437) scale(0.1 -0.1)">
       <defs>
        <path id="DejaVuSans-34" d="M 2419 4116 
L 825 1625 
L 2419 1625 
L 2419 4116 
z
M 2253 4666 
L 3047 4666 
L 3047 1625 
L 3713 1625 
L 3713 1100 
L 3047 1100 
L 3047 0 
L 2419 0 
L 2419 1100 
L 313 1100 
L 313 1709 
L 2253 4666 
z
" transform="scale(0.015625)"/>
       </defs>
       <use xlink:href="#DejaVuSans-34"/>
       <use xlink:href="#DejaVuSans-30" x="63.623047"/>
       <use xlink:href="#DejaVuSans-30" x="127.246094"/>
      </g>
     </g>
    </g>
    <g id="xtick_4">
     <g id="line2d_4">
      <g>
       <use xlink:href="#mddd3970bb6" x="200.538755" y="276.48" style="stroke: #000000; stroke-width: 0.8"/>
      </g>
     </g>
     <g id="text_4">
      <!-- 600 -->
      <g transform="translate(190.995005 291.078437) scale(0.1 -0.1)">
       <defs>
        <path id="DejaVuSans-36" d="M 2113 2584 
Q 1688 2584 1439 2293 
Q 1191 2003 1191 1497 
Q 1191 994 1439 701 
Q 1688 409 2113 409 
Q 2538 409 2786 701 
Q 3034 994 3034 1497 
Q 3034 2003 2786 2293 
Q 2538 2584 2113 2584 
z
M 3366 4563 
L 3366 3988 
Q 3128 4100 2886 4159 
Q 2644 4219 2406 4219 
Q 1781 4219 1451 3797 
Q 1122 3375 1075 2522 
Q 1259 2794 1537 2939 
Q 1816 3084 2150 3084 
Q 2853 3084 3261 2657 
Q 3669 2231 3669 1497 
Q 3669 778 3244 343 
Q 2819 -91 2113 -91 
Q 1303 -91 875 529 
Q 447 1150 447 2328 
Q 447 3434 972 4092 
Q 1497 4750 2381 4750 
Q 2619 4750 2861 4703 
Q 3103 4656 3366 4563 
z
" transform="scale(0.015625)"/>
       </defs>
       <use xlink:href="#DejaVuSans-36"/>
       <use xlink:href="#DejaVuSans-30" x="63.623047"/>
       <use xlink:href="#DejaVuSans-30" x="127.246094"/>
      </g>
     </g>
    </g>
    <g id="xtick_5">
     <g id="line2d_5">
      <g>
       <use xlink:href="#mddd3970bb6" x="232.475915" y="276.48" style="stroke: #000000; stroke-width: 0.8"/>
      </g>
     </g>
     <g id="text_5">
      <!-- 800 -->
      <g transform="translate(222.932165 291.078437) scale(0.1 -0.1)">
       <defs>
        <path id="DejaVuSans-38" d="M 2034 2216 
Q 1584 2216 1326 1975 
Q 1069 1734 1069 1313 
Q 1069 891 1326 650 
Q 1584 409 2034 409 
Q 2484 409 2743 651 
Q 3003 894 3003 1313 
Q 3003 1734 2745 1975 
Q 2488 2216 2034 2216 
z
M 1403 2484 
Q 997 2584 770 2862 
Q 544 3141 544 3541 
Q 544 4100 942 4425 
Q 1341 4750 2034 4750 
Q 2731 4750 3128 4425 
Q 3525 4100 3525 3541 
Q 3525 3141 3298 2862 
Q 3072 2584 2669 2484 
Q 3125 2378 3379 2068 
Q 3634 1759 3634 1313 
Q 3634 634 3220 271 
Q 2806 -91 2034 -91 
Q 1263 -91 848 271 
Q 434 634 434 1313 
Q 434 1759 690 2068 
Q 947 2378 1403 2484 
z
M 1172 3481 
Q 1172 3119 1398 2916 
Q 1625 2713 2034 2713 
Q 2441 2713 2670 2916 
Q 2900 3119 2900 3481 
Q 2900 3844 2670 4047 
Q 2441 4250 2034 4250 
Q 1625 4250 1398 4047 
Q 1172 3844 1172 3481 
z
" transform="scale(0.015625)"/>
       </defs>
       <use xlink:href="#DejaVuSans-38"/>
       <use xlink:href="#DejaVuSans-30" x="63.623047"/>
       <use xlink:href="#DejaVuSans-30" x="127.246094"/>
      </g>
     </g>
    </g>
    <g id="xtick_6">
     <g id="line2d_6">
      <g>
       <use xlink:href="#mddd3970bb6" x="264.413076" y="276.48" style="stroke: #000000; stroke-width: 0.8"/>
      </g>
     </g>
     <g id="text_6">
      <!-- 1000 -->
      <g transform="translate(251.688076 291.078437) scale(0.1 -0.1)">
       <defs>
        <path id="DejaVuSans-31" d="M 794 531 
L 1825 531 
L 1825 4091 
L 703 3866 
L 703 4441 
L 1819 4666 
L 2450 4666 
L 2450 531 
L 3481 531 
L 3481 0 
L 794 0 
L 794 531 
z
" transform="scale(0.015625)"/>
       </defs>
       <use xlink:href="#DejaVuSans-31"/>
       <use xlink:href="#DejaVuSans-30" x="63.623047"/>
       <use xlink:href="#DejaVuSans-30" x="127.246094"/>
       <use xlink:href="#DejaVuSans-30" x="190.869141"/>
      </g>
     </g>
    </g>
    <g id="xtick_7">
     <g id="line2d_7">
      <g>
       <use xlink:href="#mddd3970bb6" x="296.350237" y="276.48" style="stroke: #000000; stroke-width: 0.8"/>
      </g>
     </g>
     <g id="text_7">
      <!-- 1200 -->
      <g transform="translate(283.625237 291.078437) scale(0.1 -0.1)">
       <use xlink:href="#DejaVuSans-31"/>
       <use xlink:href="#DejaVuSans-32" x="63.623047"/>
       <use xlink:href="#DejaVuSans-30" x="127.246094"/>
       <use xlink:href="#DejaVuSans-30" x="190.869141"/>
      </g>
     </g>
    </g>
    <g id="xtick_8">
     <g id="line2d_8">
      <g>
       <use xlink:href="#mddd3970bb6" x="328.287397" y="276.48" style="stroke: #000000; stroke-width: 0.8"/>
      </g>
     </g>
     <g id="text_8">
      <!-- 1400 -->
      <g transform="translate(315.562397 291.078437) scale(0.1 -0.1)">
       <use xlink:href="#DejaVuSans-31"/>
       <use xlink:href="#DejaVuSans-34" x="63.623047"/>
       <use xlink:href="#DejaVuSans-30" x="127.246094"/>
       <use xlink:href="#DejaVuSans-30" x="190.869141"/>
      </g>
     </g>
    </g>
    <g id="xtick_9">
     <g id="line2d_9">
      <g>
       <use xlink:href="#mddd3970bb6" x="360.224558" y="276.48" style="stroke: #000000; stroke-width: 0.8"/>
      </g>
     </g>
     <g id="text_9">
      <!-- 1600 -->
      <g transform="translate(347.499558 291.078437) scale(0.1 -0.1)">
       <use xlink:href="#DejaVuSans-31"/>
       <use xlink:href="#DejaVuSans-36" x="63.623047"/>
       <use xlink:href="#DejaVuSans-30" x="127.246094"/>
       <use xlink:href="#DejaVuSans-30" x="190.869141"/>
      </g>
     </g>
    </g>
   </g>
   <g id="matplotlib.axis_2">
    <g id="ytick_1">
     <g id="line2d_10">
      <defs>
       <path id="mcfa8e2212d" d="M 0 0 
L -3.5 0 
" style="stroke: #000000; stroke-width: 0.8"/>
      </defs>
      <g>
       <use xlink:href="#mcfa8e2212d" x="92.16" y="274.909091" style="stroke: #000000; stroke-width: 0.8"/>
      </g>
     </g>
     <g id="text_10">
      <!-- 0.5 -->
      <g transform="translate(69.256875 278.70831) scale(0.1 -0.1)">
       <defs>
        <path id="DejaVuSans-2e" d="M 684 794 
L 1344 794 
L 1344 0 
L 684 0 
L 684 794 
z
" transform="scale(0.015625)"/>
        <path id="DejaVuSans-35" d="M 691 4666 
L 3169 4666 
L 3169 4134 
L 1269 4134 
L 1269 2991 
Q 1406 3038 1543 3061 
Q 1681 3084 1819 3084 
Q 2600 3084 3056 2656 
Q 3513 2228 3513 1497 
Q 3513 744 3044 326 
Q 2575 -91 1722 -91 
Q 1428 -91 1123 -41 
Q 819 9 494 109 
L 494 744 
Q 775 591 1075 516 
Q 1375 441 1709 441 
Q 2250 441 2565 725 
Q 2881 1009 2881 1497 
Q 2881 1984 2565 2268 
Q 2250 2553 1709 2553 
Q 1456 2553 1204 2497 
Q 953 2441 691 2322 
L 691 4666 
z
" transform="scale(0.015625)"/>
       </defs>
       <use xlink:href="#DejaVuSans-30"/>
       <use xlink:href="#DejaVuSans-2e" x="63.623047"/>
       <use xlink:href="#DejaVuSans-35" x="95.410156"/>
      </g>
     </g>
    </g>
    <g id="ytick_2">
     <g id="line2d_11">
      <g>
       <use xlink:href="#mcfa8e2212d" x="92.16" y="235.636364" style="stroke: #000000; stroke-width: 0.8"/>
      </g>
     </g>
     <g id="text_11">
      <!-- 0.6 -->
      <g transform="translate(69.256875 239.435582) scale(0.1 -0.1)">
       <use xlink:href="#DejaVuSans-30"/>
       <use xlink:href="#DejaVuSans-2e" x="63.623047"/>
       <use xlink:href="#DejaVuSans-36" x="95.410156"/>
      </g>
     </g>
    </g>
    <g id="ytick_3">
     <g id="line2d_12">
      <g>
       <use xlink:href="#mcfa8e2212d" x="92.16" y="196.363636" style="stroke: #000000; stroke-width: 0.8"/>
      </g>
     </g>
     <g id="text_12">
      <!-- 0.7 -->
      <g transform="translate(69.256875 200.162855) scale(0.1 -0.1)">
       <defs>
        <path id="DejaVuSans-37" d="M 525 4666 
L 3525 4666 
L 3525 4397 
L 1831 0 
L 1172 0 
L 2766 4134 
L 525 4134 
L 525 4666 
z
" transform="scale(0.015625)"/>
       </defs>
       <use xlink:href="#DejaVuSans-30"/>
       <use xlink:href="#DejaVuSans-2e" x="63.623047"/>
       <use xlink:href="#DejaVuSans-37" x="95.410156"/>
      </g>
     </g>
    </g>
    <g id="ytick_4">
     <g id="line2d_13">
      <g>
       <use xlink:href="#mcfa8e2212d" x="92.16" y="157.090909" style="stroke: #000000; stroke-width: 0.8"/>
      </g>
     </g>
     <g id="text_13">
      <!-- 0.8 -->
      <g transform="translate(69.256875 160.890128) scale(0.1 -0.1)">
       <use xlink:href="#DejaVuSans-30"/>
       <use xlink:href="#DejaVuSans-2e" x="63.623047"/>
       <use xlink:href="#DejaVuSans-38" x="95.410156"/>
      </g>
     </g>
    </g>
    <g id="ytick_5">
     <g id="line2d_14">
      <g>
       <use xlink:href="#mcfa8e2212d" x="92.16" y="117.818182" style="stroke: #000000; stroke-width: 0.8"/>
      </g>
     </g>
     <g id="text_14">
      <!-- 0.9 -->
      <g transform="translate(69.256875 121.617401) scale(0.1 -0.1)">
       <defs>
        <path id="DejaVuSans-39" d="M 703 97 
L 703 672 
Q 941 559 1184 500 
Q 1428 441 1663 441 
Q 2288 441 2617 861 
Q 2947 1281 2994 2138 
Q 2813 1869 2534 1725 
Q 2256 1581 1919 1581 
Q 1219 1581 811 2004 
Q 403 2428 403 3163 
Q 403 3881 828 4315 
Q 1253 4750 1959 4750 
Q 2769 4750 3195 4129 
Q 3622 3509 3622 2328 
Q 3622 1225 3098 567 
Q 2575 -91 1691 -91 
Q 1453 -91 1209 -44 
Q 966 3 703 97 
z
M 1959 2075 
Q 2384 2075 2632 2365 
Q 2881 2656 2881 3163 
Q 2881 3666 2632 3958 
Q 2384 4250 1959 4250 
Q 1534 4250 1286 3958 
Q 1038 3666 1038 3163 
Q 1038 2656 1286 2365 
Q 1534 2075 1959 2075 
z
" transform="scale(0.015625)"/>
       </defs>
       <use xlink:href="#DejaVuSans-30"/>
       <use xlink:href="#DejaVuSans-2e" x="63.623047"/>
       <use xlink:href="#DejaVuSans-39" x="95.410156"/>
      </g>
     </g>
    </g>
    <g id="ytick_6">
     <g id="line2d_15">
      <g>
       <use xlink:href="#mcfa8e2212d" x="92.16" y="78.545455" style="stroke: #000000; stroke-width: 0.8"/>
      </g>
     </g>
     <g id="text_15">
      <!-- 1.0 -->
      <g transform="translate(69.256875 82.344673) scale(0.1 -0.1)">
       <use xlink:href="#DejaVuSans-31"/>
       <use xlink:href="#DejaVuSans-2e" x="63.623047"/>
       <use xlink:href="#DejaVuSans-30" x="95.410156"/>
      </g>
     </g>
    </g>
   </g>
   <g id="line2d_16">
    <path d="M 104.727273 117.818182 
L 104.886959 117.818182 
L 105.046644 115.854545 
L 105.366016 115.854545 
L 105.525702 113.890909 
L 109.038789 113.890909 
L 109.198475 115.854545 
L 109.996904 115.854545 
L 110.316276 111.927273 
L 111.434076 111.927273 
L 111.593762 113.890909 
L 112.07282 113.890909 
L 112.232505 111.927273 
L 112.392191 111.927273 
L 112.551877 109.963636 
L 112.711563 111.927273 
L 116.544022 111.927273 
L 116.703708 109.963636 
L 118.14088 109.963636 
L 118.300566 111.927273 
L 118.939309 111.927273 
L 119.098995 113.890909 
L 119.418367 113.890909 
L 119.737738 109.963636 
L 120.216796 109.963636 
L 120.376481 108 
L 121.015225 108 
L 121.17491 106.036364 
L 121.653968 106.036364 
L 121.973339 102.109091 
L 124.687998 102.109091 
L 124.847684 100.145455 
L 128.0414 100.145455 
L 128.201086 102.109091 
L 128.360772 102.109091 
L 128.520457 104.072727 
L 128.839829 104.072727 
L 128.999515 102.109091 
L 129.159201 104.072727 
L 129.318886 102.109091 
L 131.07543 102.109091 
L 131.394802 98.181818 
L 131.554488 98.181818 
L 131.714174 100.145455 
L 133.311032 100.145455 
L 133.470717 102.109091 
L 135.866004 102.109091 
L 136.02569 100.145455 
L 136.345062 100.145455 
L 136.504748 98.181818 
L 138.580663 98.181818 
L 138.740349 100.145455 
L 139.05972 100.145455 
L 139.219406 102.109091 
L 140.816264 102.109091 
L 140.97595 104.072727 
L 143.371237 104.072727 
L 143.530923 102.109091 
L 145.287467 102.109091 
L 145.447153 104.072727 
L 147.523068 104.072727 
L 147.682754 106.036364 
L 150.078041 106.036364 
L 150.237727 104.072727 
L 150.87647 104.072727 
L 151.036156 102.109091 
L 151.355527 102.109091 
L 151.515213 104.072727 
L 152.952385 104.072727 
L 153.112071 106.036364 
L 153.271757 106.036364 
L 153.431443 108 
L 157.583274 108 
L 157.742959 109.963636 
L 158.222017 109.963636 
L 158.381703 111.927273 
L 159.978561 111.927273 
L 160.138247 109.963636 
L 160.936676 109.963636 
L 161.096361 108 
L 162.214162 108 
L 162.373848 109.963636 
L 162.693219 109.963636 
L 162.852905 111.927273 
L 163.491648 111.927273 
L 163.651334 109.963636 
L 165.248192 109.963636 
L 165.407878 108 
L 170.517824 108 
L 170.67751 106.036364 
L 170.996881 106.036364 
L 171.156567 104.072727 
L 172.753425 104.072727 
L 173.072797 100.145455 
L 174.190597 100.145455 
L 174.350283 102.109091 
L 174.989026 102.109091 
L 175.148712 104.072727 
L 176.426198 104.072727 
L 176.585884 102.109091 
L 177.224627 102.109091 
L 177.384313 100.145455 
L 179.460229 100.145455 
L 179.619915 98.181818 
L 180.737715 98.181818 
L 180.897401 100.145455 
L 183.292688 100.145455 
L 183.452374 98.181818 
L 183.61206 98.181818 
L 183.771745 100.145455 
L 184.889546 100.145455 
L 185.049232 98.181818 
L 185.208918 98.181818 
L 185.368603 96.218182 
L 188.242948 96.218182 
L 188.402634 98.181818 
L 189.520434 98.181818 
L 189.68012 96.218182 
L 189.839806 98.181818 
L 190.159178 98.181818 
L 190.318863 96.218182 
L 192.235093 96.218182 
L 192.394779 94.254545 
L 194.151323 94.254545 
L 194.311008 92.290909 
L 195.428809 92.290909 
L 195.588495 94.254545 
L 195.907866 94.254545 
L 196.067552 96.218182 
L 199.740326 96.218182 
L 200.059697 100.145455 
L 201.656555 100.145455 
L 201.816241 102.109091 
L 202.295299 102.109091 
L 202.454984 104.072727 
L 206.127758 104.072727 
L 206.287444 102.109091 
L 206.926187 102.109091 
L 207.085873 100.145455 
L 212.674876 100.145455 
L 212.834562 98.181818 
L 215.54922 98.181818 
L 215.708906 96.218182 
L 216.507335 96.218182 
L 216.667021 98.181818 
L 220.180109 98.181818 
L 220.339794 96.218182 
L 221.617281 96.218182 
L 221.776967 94.254545 
L 223.373825 94.254545 
L 223.53351 96.218182 
L 226.567541 96.218182 
L 226.727227 94.254545 
L 227.36597 94.254545 
L 227.525656 92.290909 
L 227.845027 92.290909 
L 228.004713 90.327273 
L 230.080628 90.327273 
L 230.240314 92.290909 
L 230.4 92.290909 
L 230.559686 94.254545 
L 230.879057 94.254545 
L 231.198429 98.181818 
L 231.677486 98.181818 
L 231.996858 94.254545 
L 233.593716 94.254545 
L 233.753402 92.290909 
L 234.232459 92.290909 
L 234.392145 90.327273 
L 237.745547 90.327273 
L 237.905233 92.290909 
L 240.779577 92.290909 
L 240.939263 94.254545 
L 244.292665 94.254545 
L 244.452351 96.218182 
L 245.570151 96.218182 
L 245.729837 98.181818 
L 248.444496 98.181818 
L 248.604182 96.218182 
L 255.310985 96.218182 
L 255.470671 94.254545 
L 255.630357 94.254545 
L 255.790043 96.218182 
L 259.30313 96.218182 
L 259.462816 98.181818 
L 262.017789 98.181818 
L 262.177475 96.218182 
L 262.337161 96.218182 
L 262.496846 94.254545 
L 262.816218 94.254545 
L 263.13559 90.327273 
L 264.732448 90.327273 
L 264.892134 92.290909 
L 266.968049 92.290909 
L 267.127735 94.254545 
L 269.682708 94.254545 
L 269.842393 92.290909 
L 271.11988 92.290909 
L 271.279566 94.254545 
L 272.716738 94.254545 
L 272.876424 92.290909 
L 276.229826 92.290909 
L 276.389511 90.327273 
L 277.507312 90.327273 
L 277.666998 88.363636 
L 287.567518 88.363636 
L 287.727203 86.4 
L 291.240291 86.4 
L 291.399977 84.436364 
L 293.316207 84.436364 
L 293.475892 86.4 
L 296.669608 86.4 
L 296.829294 84.436364 
L 297.468037 84.436364 
L 297.627723 86.4 
L 298.106781 86.4 
L 298.106781 86.4 
" clip-path="url(#p524e495621)" style="fill: none; stroke: #1f77b4; stroke-width: 1.5; stroke-linecap: square"/>
   </g>
   <g id="line2d_17">
    <path d="M 104.727273 78.545455 
L 302.418297 78.545455 
L 302.418297 78.545455 
" clip-path="url(#p524e495621)" style="fill: none; stroke: #ff7f0e; stroke-width: 1.5; stroke-linecap: square"/>
   </g>
   <g id="line2d_18">
    <path d="M 104.727273 145.309091 
L 104.886959 147.272727 
L 105.366016 147.272727 
L 105.685388 151.2 
L 106.483817 151.2 
L 106.803188 147.272727 
L 107.920989 147.272727 
L 108.24036 143.345455 
L 108.719418 143.345455 
L 108.879104 141.381818 
L 111.114705 141.381818 
L 111.434076 137.454545 
L 112.232505 137.454545 
L 112.392191 135.490909 
L 112.551877 135.490909 
L 112.711563 137.454545 
L 112.871249 135.490909 
L 113.350306 135.490909 
L 113.509992 137.454545 
L 114.627793 137.454545 
L 114.787478 135.490909 
L 114.947164 135.490909 
L 115.10685 133.527273 
L 115.266536 135.490909 
L 115.426222 135.490909 
L 115.585907 133.527273 
L 116.064965 133.527273 
L 116.224651 135.490909 
L 116.703708 135.490909 
L 117.02308 131.563636 
L 118.460252 131.563636 
L 118.619938 129.6 
L 120.376481 129.6 
L 120.536167 131.563636 
L 121.17491 131.563636 
L 121.334596 129.6 
L 122.133025 129.6 
L 122.292711 131.563636 
L 122.771769 131.563636 
L 122.931454 129.6 
L 123.889569 129.6 
L 124.049255 131.563636 
L 124.368627 131.563636 
L 124.687998 127.636364 
L 125.486427 127.636364 
L 125.646113 129.6 
L 125.805799 129.6 
L 125.965485 127.636364 
L 126.284856 127.636364 
L 126.444542 125.672727 
L 126.604228 125.672727 
L 126.763914 123.709091 
L 128.201086 123.709091 
L 128.360772 125.672727 
L 128.520457 125.672727 
L 128.680143 123.709091 
L 128.999515 123.709091 
L 129.159201 121.745455 
L 129.95763 121.745455 
L 130.277001 117.818182 
L 131.235116 117.818182 
L 131.394802 119.781818 
L 132.193231 119.781818 
L 132.352917 117.818182 
L 132.512603 117.818182 
L 132.672288 115.854545 
L 133.151346 115.854545 
L 133.470717 111.927273 
L 134.588518 111.927273 
L 134.90789 108 
L 136.345062 108 
L 136.504748 109.963636 
L 136.664433 109.963636 
L 136.824119 108 
L 137.303177 108 
L 137.622548 104.072727 
L 137.782234 106.036364 
L 138.900035 106.036364 
L 139.05972 108 
L 140.017835 108 
L 140.177521 109.963636 
L 140.97595 109.963636 
L 141.135636 108 
L 141.295322 109.963636 
L 142.732494 109.963636 
L 142.89218 111.927273 
L 144.489038 111.927273 
L 144.648724 109.963636 
L 145.287467 109.963636 
L 145.447153 108 
L 147.044011 108 
L 147.203696 106.036364 
L 149.279612 106.036364 
L 149.439298 108 
L 149.918355 108 
L 150.078041 109.963636 
L 150.716784 109.963636 
L 150.87647 111.927273 
L 153.431443 111.927273 
L 153.591129 113.890909 
L 154.070186 113.890909 
L 154.229872 111.927273 
L 154.868615 111.927273 
L 155.028301 113.890909 
L 155.82673 113.890909 
L 155.986416 111.927273 
L 156.146101 111.927273 
L 156.305787 113.890909 
L 156.625159 113.890909 
L 156.784845 115.854545 
L 157.423588 115.854545 
L 157.583274 113.890909 
L 158.541388 113.890909 
L 158.701074 115.854545 
L 159.020446 115.854545 
L 159.180132 117.818182 
L 163.172277 117.818182 
L 163.331963 115.854545 
L 164.449763 115.854545 
L 164.609449 117.818182 
L 164.928821 117.818182 
L 165.088506 119.781818 
L 165.407878 119.781818 
L 165.567564 121.745455 
L 167.483793 121.745455 
L 167.803165 125.672727 
L 168.282222 125.672727 
L 168.441908 123.709091 
L 168.601594 125.672727 
L 169.559709 125.672727 
L 169.719395 123.709091 
L 170.837195 123.709091 
L 170.996881 121.745455 
L 171.954996 121.745455 
L 172.114682 119.781818 
L 173.072797 119.781818 
L 173.232482 117.818182 
L 174.669655 117.818182 
L 174.82934 115.854545 
L 174.989026 117.818182 
L 178.182742 117.818182 
L 178.342428 119.781818 
L 179.939286 119.781818 
L 180.098972 117.818182 
L 181.216773 117.818182 
L 181.376458 115.854545 
L 181.855516 115.854545 
L 182.015202 113.890909 
L 182.653945 113.890909 
L 182.813631 111.927273 
L 183.292688 111.927273 
L 183.452374 113.890909 
L 183.931431 113.890909 
L 184.091117 111.927273 
L 184.250803 111.927273 
L 184.410489 109.963636 
L 185.368603 109.963636 
L 185.528289 108 
L 185.687975 108 
L 185.847661 109.963636 
L 186.805776 109.963636 
L 186.965461 108 
L 188.083262 108 
L 188.242948 106.036364 
L 188.56232 106.036364 
L 188.722005 104.072727 
L 189.041377 104.072727 
L 189.201063 106.036364 
L 190.478549 106.036364 
L 190.638235 104.072727 
L 190.957607 104.072727 
L 191.117292 102.109091 
L 192.075407 102.109091 
L 192.235093 100.145455 
L 192.394779 100.145455 
L 192.554465 102.109091 
L 192.873836 102.109091 
L 193.033522 104.072727 
L 196.386924 104.072727 
L 196.54661 102.109091 
L 196.865981 102.109091 
L 197.025667 100.145455 
L 197.345039 100.145455 
L 197.504725 98.181818 
L 199.420954 98.181818 
L 199.740326 94.254545 
L 200.379069 94.254545 
L 200.538755 92.290909 
L 206.766501 92.290909 
L 206.926187 90.327273 
L 210.119903 90.327273 
L 210.279589 88.363636 
L 212.355504 88.363636 
L 212.51519 90.327273 
L 215.070163 90.327273 
L 215.229849 92.290909 
L 215.389534 90.327273 
L 217.625136 90.327273 
L 217.784822 88.363636 
L 218.104193 88.363636 
L 218.263879 90.327273 
L 220.978538 90.327273 
L 221.138223 88.363636 
L 221.297909 90.327273 
L 222.735081 90.327273 
L 222.894767 92.290909 
L 224.331939 92.290909 
L 224.491625 90.327273 
L 224.810997 90.327273 
L 224.970683 88.363636 
L 232.795287 88.363636 
L 232.954973 90.327273 
L 235.509946 90.327273 
L 235.669632 92.290909 
L 239.182719 92.290909 
L 239.342405 94.254545 
L 239.821462 94.254545 
L 239.981148 96.218182 
L 240.779577 96.218182 
L 240.939263 98.181818 
L 244.292665 98.181818 
L 244.452351 96.218182 
L 246.847638 96.218182 
L 247.007324 98.181818 
L 247.167009 96.218182 
L 250.041354 96.218182 
L 250.20104 94.254545 
L 253.075384 94.254545 
L 253.23507 92.290909 
L 254.672242 92.290909 
L 254.831928 90.327273 
L 255.630357 90.327273 
L 255.790043 92.290909 
L 258.345016 92.290909 
L 258.504701 94.254545 
L 262.337161 94.254545 
L 262.496846 96.218182 
L 264.732448 96.218182 
L 264.892134 94.254545 
L 265.211505 94.254545 
L 265.371191 96.218182 
L 265.690563 96.218182 
L 266.009934 100.145455 
L 267.447106 100.145455 
L 267.606792 98.181818 
L 270.481137 98.181818 
L 270.640822 100.145455 
L 271.11988 100.145455 
L 271.279566 98.181818 
L 271.758623 98.181818 
L 271.918309 96.218182 
L 272.716738 96.218182 
L 272.876424 94.254545 
L 273.195795 94.254545 
L 273.355481 96.218182 
L 276.868569 96.218182 
L 277.028255 98.181818 
L 278.146055 98.181818 
L 278.305741 100.145455 
L 278.784798 100.145455 
L 278.944484 98.181818 
L 280.062285 98.181818 
L 280.221971 100.145455 
L 281.499457 100.145455 
L 281.659143 102.109091 
L 283.415687 102.109091 
L 283.575373 104.072727 
L 284.693173 104.072727 
L 284.852859 106.036364 
L 287.567518 106.036364 
L 287.727203 104.072727 
L 288.365947 104.072727 
L 288.525632 106.036364 
L 290.282176 106.036364 
L 290.441862 104.072727 
L 291.080605 104.072727 
L 291.240291 106.036364 
L 294.274321 106.036364 
L 294.434007 104.072727 
L 295.711494 104.072727 
L 296.030865 108 
L 296.350237 108 
L 296.509923 109.963636 
L 296.669608 109.963636 
L 296.669608 109.963636 
" clip-path="url(#p524e495621)" style="fill: none; stroke: #2ca02c; stroke-width: 1.5; stroke-linecap: square"/>
   </g>
   <g id="line2d_19">
    <path d="M 104.727273 78.545455 
L 292.517778 78.545455 
L 292.517778 78.545455 
" clip-path="url(#p524e495621)" style="fill: none; stroke: #d62728; stroke-width: 1.5; stroke-linecap: square"/>
   </g>
   <g id="line2d_20">
    <path d="M 104.727273 133.527273 
L 106.004759 133.527273 
L 106.164445 135.490909 
L 106.324131 135.490909 
L 106.483817 137.454545 
L 106.643502 137.454545 
L 106.803188 139.418182 
L 106.962874 139.418182 
L 107.12256 141.381818 
L 107.282246 139.418182 
L 107.920989 139.418182 
L 108.080675 141.381818 
L 108.400046 137.454545 
L 109.677533 137.454545 
L 109.837218 135.490909 
L 110.316276 135.490909 
L 110.475962 133.527273 
L 110.635647 133.527273 
L 110.795333 131.563636 
L 112.551877 131.563636 
L 112.711563 129.6 
L 113.350306 129.6 
L 113.509992 127.636364 
L 114.148735 127.636364 
L 114.308421 125.672727 
L 114.468107 127.636364 
L 114.627793 127.636364 
L 114.787478 125.672727 
L 117.02308 125.672727 
L 117.182765 123.709091 
L 117.342451 123.709091 
L 117.502137 121.745455 
L 118.460252 121.745455 
L 118.619938 119.781818 
L 120.376481 119.781818 
L 120.536167 117.818182 
L 120.855539 117.818182 
L 121.015225 115.854545 
L 122.771769 115.854545 
L 122.931454 113.890909 
L 123.410512 113.890909 
L 123.570198 115.854545 
L 123.889569 115.854545 
L 124.049255 113.890909 
L 124.208941 113.890909 
L 124.368627 111.927273 
L 125.00737 111.927273 
L 125.167056 113.890909 
L 126.604228 113.890909 
L 126.763914 111.927273 
L 127.881714 111.927273 
L 128.0414 109.963636 
L 128.680143 109.963636 
L 128.839829 108 
L 130.596373 108 
L 130.756059 106.036364 
L 130.915744 108 
L 131.07543 106.036364 
L 131.235116 108 
L 131.394802 108 
L 131.554488 109.963636 
L 131.714174 108 
L 132.672288 108 
L 132.831974 109.963636 
L 132.99166 109.963636 
L 133.311032 106.036364 
L 134.109461 106.036364 
L 134.269146 104.072727 
L 134.428832 104.072727 
L 134.588518 106.036364 
L 134.748204 106.036364 
L 134.90789 108 
L 135.546633 108 
L 135.706319 109.963636 
L 136.185376 109.963636 
L 136.345062 111.927273 
L 136.664433 111.927273 
L 136.824119 113.890909 
L 137.94192 113.890909 
L 138.101606 111.927273 
L 138.261291 111.927273 
L 138.420977 109.963636 
L 138.580663 109.963636 
L 138.740349 108 
L 139.538778 108 
L 139.698464 109.963636 
L 139.858149 109.963636 
L 140.017835 108 
L 141.455008 108 
L 141.614693 109.963636 
L 142.253437 109.963636 
L 142.413122 111.927273 
L 146.245582 111.927273 
L 146.405267 109.963636 
L 148.481183 109.963636 
L 148.640869 111.927273 
L 149.119926 111.927273 
L 149.279612 113.890909 
L 151.036156 113.890909 
L 151.355527 117.818182 
L 151.674899 117.818182 
L 151.834585 119.781818 
L 153.591129 119.781818 
L 153.750814 121.745455 
L 155.347672 121.745455 
L 155.507358 119.781818 
L 159.020446 119.781818 
L 159.180132 117.818182 
L 160.617304 117.818182 
L 160.77699 119.781818 
L 162.214162 119.781818 
L 162.373848 121.745455 
L 162.693219 121.745455 
L 162.852905 119.781818 
L 163.012591 119.781818 
L 163.172277 117.818182 
L 164.609449 117.818182 
L 164.769135 115.854545 
L 164.928821 115.854545 
L 165.088506 117.818182 
L 166.365993 117.818182 
L 166.525679 115.854545 
L 166.685364 115.854545 
L 166.84505 113.890909 
L 167.483793 113.890909 
L 167.643479 111.927273 
L 168.122537 111.927273 
L 168.282222 109.963636 
L 168.441908 109.963636 
L 168.601594 111.927273 
L 168.76128 109.963636 
L 169.400023 109.963636 
L 169.719395 113.890909 
L 170.038766 113.890909 
L 170.198452 115.854545 
L 170.837195 115.854545 
L 170.996881 113.890909 
L 171.156567 113.890909 
L 171.316253 115.854545 
L 171.475939 115.854545 
L 171.635624 113.890909 
L 173.392168 113.890909 
L 173.551854 111.927273 
L 174.190597 111.927273 
L 174.350283 109.963636 
L 175.148712 109.963636 
L 175.308398 111.927273 
L 176.74557 111.927273 
L 176.905256 113.890909 
L 180.418344 113.890909 
L 180.578029 111.927273 
L 181.057087 111.927273 
L 181.216773 109.963636 
L 181.855516 109.963636 
L 182.015202 111.927273 
L 182.973316 111.927273 
L 183.292688 108 
L 185.528289 108 
L 185.687975 106.036364 
L 188.881691 106.036364 
L 189.041377 104.072727 
L 189.68012 104.072727 
L 189.839806 106.036364 
L 189.999492 106.036364 
L 190.159178 108 
L 190.638235 108 
L 190.797921 109.963636 
L 192.394779 109.963636 
L 192.554465 111.927273 
L 192.71415 109.963636 
L 192.873836 109.963636 
L 193.033522 111.927273 
L 193.193208 111.927273 
L 193.352894 113.890909 
L 194.151323 113.890909 
L 194.311008 111.927273 
L 196.865981 111.927273 
L 197.025667 109.963636 
L 197.345039 109.963636 
L 197.66441 113.890909 
L 198.782211 113.890909 
L 199.101583 117.818182 
L 200.379069 117.818182 
L 200.538755 115.854545 
L 201.49687 115.854545 
L 201.656555 113.890909 
L 201.975927 113.890909 
L 202.135613 111.927273 
L 203.093728 111.927273 
L 203.253413 109.963636 
L 204.371214 109.963636 
L 204.5309 111.927273 
L 205.009957 111.927273 
L 205.169643 113.890909 
L 205.489015 113.890909 
L 205.6487 115.854545 
L 205.808386 115.854545 
L 205.968072 117.818182 
L 206.447129 117.818182 
L 206.606815 119.781818 
L 207.085873 119.781818 
L 207.245559 117.818182 
L 208.363359 117.818182 
L 208.523045 119.781818 
L 208.682731 119.781818 
L 208.842417 117.818182 
L 213.473305 117.818182 
L 213.632991 119.781818 
L 213.792676 119.781818 
L 213.952362 117.818182 
L 215.229849 117.818182 
L 215.389534 119.781818 
L 215.54922 119.781818 
L 215.708906 117.818182 
L 219.221994 117.818182 
L 219.38168 119.781818 
L 220.339794 119.781818 
L 220.49948 121.745455 
L 221.617281 121.745455 
L 221.776967 119.781818 
L 221.936652 119.781818 
L 222.096338 117.818182 
L 222.575396 117.818182 
L 222.735081 115.854545 
L 224.331939 115.854545 
L 224.491625 113.890909 
L 224.810997 113.890909 
L 224.970683 111.927273 
L 225.130368 111.927273 
L 225.290054 109.963636 
L 227.046598 109.963636 
L 227.206284 111.927273 
L 227.36597 109.963636 
L 229.282199 109.963636 
L 229.601571 106.036364 
L 230.719372 106.036364 
L 231.038743 102.109091 
L 232.635601 102.109091 
L 232.795287 104.072727 
L 233.274344 104.072727 
L 233.43403 102.109091 
L 233.753402 102.109091 
L 233.913088 104.072727 
L 236.308375 104.072727 
L 236.468061 102.109091 
L 236.947118 102.109091 
L 237.106804 100.145455 
L 237.426175 100.145455 
L 237.585861 98.181818 
L 237.745547 98.181818 
L 237.905233 96.218182 
L 238.38429 96.218182 
L 238.543976 94.254545 
L 240.30052 94.254545 
L 240.460206 92.290909 
L 243.813607 92.290909 
L 243.973293 94.254545 
L 245.410466 94.254545 
L 245.570151 92.290909 
L 247.167009 92.290909 
L 247.326695 90.327273 
L 250.041354 90.327273 
L 250.20104 92.290909 
L 251.159154 92.290909 
L 251.31884 90.327273 
L 252.276955 90.327273 
L 252.436641 88.363636 
L 257.227215 88.363636 
L 257.386901 90.327273 
L 258.025644 90.327273 
L 258.18533 92.290909 
L 258.983759 92.290909 
L 259.143445 90.327273 
L 264.572762 90.327273 
L 264.732448 88.363636 
L 265.051819 88.363636 
L 265.211505 90.327273 
L 265.530877 90.327273 
L 265.690563 92.290909 
L 265.850248 90.327273 
L 268.245535 90.327273 
L 268.405221 92.290909 
L 269.523022 92.290909 
L 269.682708 94.254545 
L 273.515167 94.254545 
L 273.674853 96.218182 
L 274.473282 96.218182 
L 274.632968 98.181818 
L 275.750768 98.181818 
L 275.910454 96.218182 
L 276.868569 96.218182 
L 277.028255 98.181818 
L 277.507312 98.181818 
L 277.666998 100.145455 
L 280.701028 100.145455 
L 280.860714 102.109091 
L 281.978514 102.109091 
L 282.1382 100.145455 
L 282.457572 100.145455 
L 282.617258 102.109091 
L 283.096315 102.109091 
L 283.256001 104.072727 
L 287.08846 104.072727 
L 287.248146 106.036364 
L 287.727203 106.036364 
L 287.886889 108 
L 289.164376 108 
L 289.324061 106.036364 
L 289.483747 106.036364 
L 289.643433 108 
L 289.962805 108 
L 290.12249 106.036364 
L 292.677463 106.036364 
L 292.837149 108 
L 293.316207 108 
L 293.475892 109.963636 
L 295.711494 109.963636 
L 295.871179 111.927273 
L 296.669608 111.927273 
L 296.829294 113.890909 
L 296.98898 113.890909 
L 297.148666 111.927273 
L 297.468037 111.927273 
L 297.627723 109.963636 
L 300.182696 109.963636 
L 300.342382 108 
L 300.661753 108 
L 300.821439 109.963636 
L 300.981125 109.963636 
L 300.981125 109.963636 
" clip-path="url(#p524e495621)" style="fill: none; stroke: #9467bd; stroke-width: 1.5; stroke-linecap: square"/>
   </g>
   <g id="line2d_21">
    <path d="M 104.727273 78.545455 
L 292.837149 78.545455 
L 292.837149 78.545455 
" clip-path="url(#p524e495621)" style="fill: none; stroke: #8c564b; stroke-width: 1.5; stroke-linecap: square"/>
   </g>
   <g id="line2d_22">
    <path d="M 104.727273 149.236364 
L 104.886959 149.236364 
L 105.046644 147.272727 
L 105.366016 147.272727 
L 105.525702 145.309091 
L 106.164445 145.309091 
L 106.643502 151.2 
L 107.12256 151.2 
L 107.282246 149.236364 
L 107.441931 151.2 
L 108.080675 151.2 
L 108.24036 149.236364 
L 108.400046 151.2 
L 109.677533 151.2 
L 109.837218 149.236364 
L 110.955019 149.236364 
L 111.114705 147.272727 
L 111.274391 147.272727 
L 111.593762 151.2 
L 112.07282 151.2 
L 112.232505 149.236364 
L 112.392191 149.236364 
L 112.551877 151.2 
L 112.711563 149.236364 
L 113.669678 149.236364 
L 113.829364 151.2 
L 114.148735 151.2 
L 114.308421 153.163636 
L 114.627793 153.163636 
L 114.787478 151.2 
L 115.266536 151.2 
L 115.426222 153.163636 
L 116.224651 153.163636 
L 116.384336 151.2 
L 117.02308 151.2 
L 117.182765 153.163636 
L 117.502137 153.163636 
L 117.661823 151.2 
L 117.981194 151.2 
L 118.14088 153.163636 
L 118.779623 153.163636 
L 118.939309 151.2 
L 119.578052 151.2 
L 119.737738 149.236364 
L 120.216796 149.236364 
L 120.376481 147.272727 
L 121.015225 147.272727 
L 121.17491 145.309091 
L 121.653968 145.309091 
L 121.813654 143.345455 
L 122.452397 143.345455 
L 122.612083 141.381818 
L 122.771769 143.345455 
L 123.729883 143.345455 
L 123.889569 141.381818 
L 124.208941 141.381818 
L 124.368627 143.345455 
L 125.00737 143.345455 
L 125.167056 141.381818 
L 125.326741 141.381818 
L 125.486427 143.345455 
L 126.604228 143.345455 
L 126.763914 141.381818 
L 126.923599 141.381818 
L 127.083285 143.345455 
L 128.201086 143.345455 
L 128.360772 141.381818 
L 128.680143 141.381818 
L 128.839829 139.418182 
L 129.159201 139.418182 
L 129.318886 137.454545 
L 130.117315 137.454545 
L 130.436687 133.527273 
L 131.394802 133.527273 
L 131.554488 135.490909 
L 131.714174 133.527273 
L 132.033545 133.527273 
L 132.193231 131.563636 
L 132.352917 133.527273 
L 132.831974 133.527273 
L 132.99166 131.563636 
L 133.151346 131.563636 
L 133.311032 129.6 
L 134.109461 129.6 
L 134.269146 127.636364 
L 134.588518 131.563636 
L 135.067575 131.563636 
L 135.227261 133.527273 
L 135.866004 133.527273 
L 136.02569 131.563636 
L 136.345062 131.563636 
L 136.504748 129.6 
L 136.983805 129.6 
L 137.143491 131.563636 
L 137.303177 131.563636 
L 137.462862 133.527273 
L 137.782234 133.527273 
L 137.94192 135.490909 
L 138.261291 135.490909 
L 138.580663 131.563636 
L 139.219406 131.563636 
L 139.379092 129.6 
L 139.698464 129.6 
L 139.858149 131.563636 
L 140.177521 131.563636 
L 140.496893 127.636364 
L 141.135636 127.636364 
L 141.295322 125.672727 
L 143.051866 125.672727 
L 143.530923 119.781818 
L 144.169666 119.781818 
L 144.329352 121.745455 
L 144.489038 119.781818 
L 144.968095 119.781818 
L 145.127781 117.818182 
L 145.606838 117.818182 
L 145.766524 115.854545 
L 146.085896 115.854545 
L 146.245582 113.890909 
L 146.405267 113.890909 
L 146.564953 115.854545 
L 147.203696 115.854545 
L 147.363382 113.890909 
L 148.640869 113.890909 
L 148.800554 115.854545 
L 148.96024 115.854545 
L 149.119926 113.890909 
L 149.918355 113.890909 
L 150.078041 111.927273 
L 150.397412 111.927273 
L 150.557098 113.890909 
L 152.473328 113.890909 
L 152.633014 115.854545 
L 153.431443 115.854545 
L 153.591129 117.818182 
L 153.9105 117.818182 
L 154.070186 119.781818 
L 154.549243 119.781818 
L 154.708929 117.818182 
L 155.507358 117.818182 
L 155.667044 119.781818 
L 155.986416 119.781818 
L 156.146101 121.745455 
L 156.305787 119.781818 
L 157.263902 119.781818 
L 157.423588 117.818182 
L 157.742959 117.818182 
L 157.902645 119.781818 
L 158.86076 119.781818 
L 159.020446 117.818182 
L 159.659189 117.818182 
L 159.818875 119.781818 
L 161.256047 119.781818 
L 161.415733 121.745455 
L 163.331963 121.745455 
L 163.491648 119.781818 
L 163.651334 119.781818 
L 163.970706 123.709091 
L 164.130392 123.709091 
L 164.290077 121.745455 
L 164.449763 123.709091 
L 164.769135 123.709091 
L 164.928821 125.672727 
L 165.248192 125.672727 
L 165.407878 127.636364 
L 165.567564 127.636364 
L 165.72725 129.6 
L 166.206307 129.6 
L 166.365993 127.636364 
L 166.525679 127.636364 
L 166.685364 129.6 
L 167.004736 129.6 
L 167.164422 127.636364 
L 167.962851 127.636364 
L 168.122537 129.6 
L 168.920966 129.6 
L 169.080651 127.636364 
L 169.240337 127.636364 
L 169.400023 125.672727 
L 169.719395 125.672727 
L 169.879081 123.709091 
L 170.038766 123.709091 
L 170.198452 121.745455 
L 171.316253 121.745455 
L 171.475939 123.709091 
L 171.635624 123.709091 
L 171.79531 121.745455 
L 171.954996 121.745455 
L 172.114682 123.709091 
L 172.274368 123.709091 
L 172.434053 125.672727 
L 173.392168 125.672727 
L 173.551854 127.636364 
L 174.190597 127.636364 
L 174.509969 131.563636 
L 175.308398 131.563636 
L 175.468084 133.527273 
L 176.106827 133.527273 
L 176.266513 131.563636 
L 177.703685 131.563636 
L 178.023056 135.490909 
L 178.342428 135.490909 
L 178.502114 133.527273 
L 178.6618 135.490909 
L 178.821486 135.490909 
L 178.981171 137.454545 
L 179.619915 137.454545 
L 179.939286 141.381818 
L 180.258658 141.381818 
L 180.418344 143.345455 
L 180.578029 143.345455 
L 180.737715 141.381818 
L 180.897401 143.345455 
L 182.334573 143.345455 
L 182.494259 141.381818 
L 182.653945 143.345455 
L 183.292688 143.345455 
L 183.452374 145.309091 
L 184.410489 145.309091 
L 184.570174 143.345455 
L 184.72986 143.345455 
L 184.889546 145.309091 
L 185.368603 145.309091 
L 185.528289 143.345455 
L 185.847661 143.345455 
L 186.007347 141.381818 
L 186.64609 141.381818 
L 187.125147 147.272727 
L 187.923576 147.272727 
L 188.083262 145.309091 
L 189.360749 145.309091 
L 189.68012 149.236364 
L 189.839806 147.272727 
L 190.638235 147.272727 
L 190.797921 149.236364 
L 191.276978 149.236364 
L 191.436664 151.2 
L 191.59635 151.2 
L 191.756036 149.236364 
L 193.033522 149.236364 
L 193.193208 151.2 
L 193.352894 149.236364 
L 193.831951 149.236364 
L 193.991637 151.2 
L 195.588495 151.2 
L 195.907866 147.272727 
L 196.067552 147.272727 
L 196.227238 149.236364 
L 196.386924 147.272727 
L 196.706295 147.272727 
L 196.865981 145.309091 
L 197.185353 145.309091 
L 197.345039 143.345455 
L 198.303154 143.345455 
L 198.622525 139.418182 
L 199.58064 139.418182 
L 199.740326 141.381818 
L 199.900012 141.381818 
L 200.059697 139.418182 
L 202.774356 139.418182 
L 202.934042 141.381818 
L 203.413099 141.381818 
L 203.572785 143.345455 
L 203.892157 143.345455 
L 204.051842 141.381818 
L 204.211528 141.381818 
L 204.371214 139.418182 
L 205.329329 139.418182 
L 205.489015 137.454545 
L 206.127758 137.454545 
L 206.447129 133.527273 
L 206.606815 133.527273 
L 206.766501 135.490909 
L 207.245559 135.490909 
L 207.405244 133.527273 
L 209.640846 133.527273 
L 209.960217 129.6 
L 210.439275 129.6 
L 210.59896 127.636364 
L 210.758646 127.636364 
L 210.918332 125.672727 
L 211.557075 125.672727 
L 211.876447 121.745455 
L 212.195818 121.745455 
L 212.355504 119.781818 
L 212.674876 119.781818 
L 212.834562 117.818182 
L 214.43142 117.818182 
L 214.591105 115.854545 
L 215.229849 115.854545 
L 215.389534 113.890909 
L 216.667021 113.890909 
L 216.826707 111.927273 
L 216.986393 111.927273 
L 217.146078 113.890909 
L 218.423565 113.890909 
L 218.583251 115.854545 
L 218.742936 115.854545 
L 219.062308 111.927273 
L 219.38168 111.927273 
L 219.541365 109.963636 
L 221.138223 109.963636 
L 221.297909 111.927273 
L 221.457595 109.963636 
L 221.776967 109.963636 
L 221.936652 111.927273 
L 223.214139 111.927273 
L 223.373825 109.963636 
L 224.970683 109.963636 
L 225.130368 108 
L 225.769112 108 
L 225.928798 106.036364 
L 228.004713 106.036364 
L 228.164399 104.072727 
L 228.643456 104.072727 
L 228.803142 106.036364 
L 229.441885 106.036364 
L 229.601571 104.072727 
L 229.761257 104.072727 
L 229.920943 106.036364 
L 230.719372 106.036364 
L 230.879057 108 
L 231.517801 108 
L 231.677486 106.036364 
L 232.156544 106.036364 
L 232.31623 108 
L 233.913088 108 
L 234.072773 109.963636 
L 234.711517 109.963636 
L 234.871202 108 
L 235.190574 108 
L 235.509946 104.072727 
L 238.543976 104.072727 
L 238.703662 102.109091 
L 239.661777 102.109091 
L 239.821462 104.072727 
L 239.981148 104.072727 
L 240.140834 106.036364 
L 240.779577 106.036364 
L 241.098949 109.963636 
L 241.578006 109.963636 
L 241.737692 111.927273 
L 241.897378 111.927273 
L 242.057064 113.890909 
L 242.376435 113.890909 
L 242.536121 115.854545 
L 245.729837 115.854545 
L 246.049209 119.781818 
L 246.36858 119.781818 
L 246.528266 121.745455 
L 246.847638 121.745455 
L 247.007324 123.709091 
L 248.923553 123.709091 
L 249.083239 121.745455 
L 249.242925 121.745455 
L 249.402611 123.709091 
L 250.520411 123.709091 
L 250.680097 121.745455 
L 252.596327 121.745455 
L 252.756012 123.709091 
L 253.075384 123.709091 
L 253.23507 121.745455 
L 253.394756 123.709091 
L 253.714127 123.709091 
L 253.873813 121.745455 
L 254.033499 123.709091 
L 254.512556 123.709091 
L 254.672242 121.745455 
L 255.630357 121.745455 
L 256.109414 127.636364 
L 257.227215 127.636364 
L 257.386901 129.6 
L 259.462816 129.6 
L 259.622502 131.563636 
L 260.101559 131.563636 
L 260.261245 133.527273 
L 261.698417 133.527273 
L 261.858103 131.563636 
L 262.656532 131.563636 
L 262.816218 129.6 
L 264.093705 129.6 
L 264.25339 127.636364 
L 264.413076 127.636364 
L 264.572762 129.6 
L 265.690563 129.6 
L 265.850248 131.563636 
L 267.127735 131.563636 
L 267.287421 133.527273 
L 267.606792 133.527273 
L 267.766478 135.490909 
L 268.564907 135.490909 
L 268.724593 137.454545 
L 271.598937 137.454545 
L 271.758623 135.490909 
L 271.918309 135.490909 
L 272.077995 133.527273 
L 272.716738 133.527273 
L 273.03611 129.6 
L 273.515167 129.6 
L 273.674853 127.636364 
L 273.834539 127.636364 
L 273.994224 125.672727 
L 274.313596 125.672727 
L 274.473282 123.709091 
L 274.632968 123.709091 
L 274.792653 125.672727 
L 276.868569 125.672727 
L 277.028255 127.636364 
L 277.18794 127.636364 
L 277.347626 129.6 
L 277.666998 129.6 
L 277.986369 125.672727 
L 278.465427 125.672727 
L 278.625113 127.636364 
L 278.784798 127.636364 
L 278.944484 125.672727 
L 279.263856 129.6 
L 280.221971 129.6 
L 280.381656 131.563636 
L 280.541342 131.563636 
L 280.701028 133.527273 
L 281.180085 133.527273 
L 281.339771 131.563636 
L 282.297886 131.563636 
L 282.457572 129.6 
L 282.776944 129.6 
L 282.936629 131.563636 
L 284.533487 131.563636 
L 284.693173 129.6 
L 285.172231 129.6 
L 285.491602 125.672727 
L 285.810974 125.672727 
L 285.97066 123.709091 
L 287.567518 123.709091 
L 288.046575 117.818182 
L 288.845004 117.818182 
L 289.00469 119.781818 
L 289.164376 119.781818 
L 289.324061 117.818182 
L 289.803119 117.818182 
L 289.962805 119.781818 
L 290.282176 119.781818 
L 290.441862 121.745455 
L 291.399977 121.745455 
L 291.559663 119.781818 
L 291.879034 123.709091 
L 292.03872 123.709091 
L 292.198406 121.745455 
L 292.517778 121.745455 
L 292.677463 119.781818 
L 292.996835 119.781818 
L 293.156521 121.745455 
L 294.593693 121.745455 
L 294.593693 121.745455 
" clip-path="url(#p524e495621)" style="fill: none; stroke: #e377c2; stroke-width: 1.5; stroke-linecap: square"/>
   </g>
   <g id="line2d_23">
    <path d="M 104.727273 78.545455 
L 302.258612 78.545455 
L 302.258612 78.545455 
" clip-path="url(#p524e495621)" style="fill: none; stroke: #7f7f7f; stroke-width: 1.5; stroke-linecap: square"/>
   </g>
   <g id="line2d_24">
    <path d="M 104.727273 267.054545 
L 104.886959 265.090909 
L 105.845073 265.090909 
L 106.324131 259.2 
L 106.803188 259.2 
L 106.962874 261.163636 
L 107.12256 261.163636 
L 107.282246 259.2 
L 107.441931 259.2 
L 107.601617 257.236364 
L 107.761303 259.2 
L 107.920989 259.2 
L 108.24036 263.127273 
L 108.400046 263.127273 
L 108.719418 259.2 
L 109.038789 259.2 
L 109.517847 253.309091 
L 109.677533 253.309091 
L 109.837218 255.272727 
L 109.996904 253.309091 
L 111.274391 253.309091 
L 111.434076 251.345455 
L 112.392191 251.345455 
L 113.030935 243.490909 
L 113.829364 243.490909 
L 113.989049 241.527273 
L 114.148735 241.527273 
L 114.627793 235.636364 
L 114.787478 235.636364 
L 114.947164 233.672727 
L 115.10685 235.636364 
L 115.266536 233.672727 
L 115.585907 233.672727 
L 115.745593 231.709091 
L 115.905279 231.709091 
L 116.544022 223.854545 
L 116.863394 223.854545 
L 117.342451 217.963636 
L 117.502137 217.963636 
L 117.661823 219.927273 
L 117.821509 219.927273 
L 117.981194 217.963636 
L 118.460252 217.963636 
L 118.779623 214.036364 
L 119.098995 214.036364 
L 120.536167 196.363636 
L 120.855539 196.363636 
L 121.813654 184.581818 
L 122.133025 184.581818 
L 122.452397 180.654545 
L 122.612083 180.654545 
L 122.931454 176.727273 
L 123.410512 176.727273 
L 123.570198 174.763636 
L 123.889569 174.763636 
L 124.528312 166.909091 
L 124.847684 166.909091 
L 125.486427 159.054545 
L 125.646113 159.054545 
L 125.805799 157.090909 
L 126.12517 157.090909 
L 126.284856 155.127273 
L 126.444542 155.127273 
L 126.604228 153.163636 
L 126.763914 153.163636 
L 127.242971 147.272727 
L 127.402657 147.272727 
L 127.562343 145.309091 
L 128.0414 145.309091 
L 128.201086 147.272727 
L 128.360772 147.272727 
L 128.999515 139.418182 
L 129.95763 139.418182 
L 130.277001 135.490909 
L 130.756059 135.490909 
L 130.915744 133.527273 
L 131.394802 139.418182 
L 131.554488 137.454545 
L 131.873859 137.454545 
L 132.352917 131.563636 
L 132.672288 131.563636 
L 132.99166 127.636364 
L 133.790089 127.636364 
L 133.949775 125.672727 
L 134.109461 125.672727 
L 134.269146 123.709091 
L 134.90789 123.709091 
L 135.067575 125.672727 
L 135.546633 119.781818 
L 137.94192 119.781818 
L 138.101606 121.745455 
L 138.740349 121.745455 
L 138.900035 119.781818 
L 139.538778 119.781818 
L 139.698464 117.818182 
L 139.858149 117.818182 
L 140.177521 113.890909 
L 140.656578 113.890909 
L 140.816264 111.927273 
L 141.295322 111.927273 
L 141.455008 113.890909 
L 142.89218 113.890909 
L 143.051866 115.854545 
L 143.211551 113.890909 
L 143.530923 113.890909 
L 143.690609 115.854545 
L 146.564953 115.854545 
L 146.724639 117.818182 
L 146.884325 117.818182 
L 147.044011 115.854545 
L 147.203696 117.818182 
L 149.279612 117.818182 
L 149.598983 113.890909 
L 149.918355 113.890909 
L 150.078041 115.854545 
L 150.87647 115.854545 
L 151.036156 113.890909 
L 152.633014 113.890909 
L 152.7927 115.854545 
L 153.271757 115.854545 
L 153.431443 117.818182 
L 153.750814 117.818182 
L 154.070186 113.890909 
L 156.625159 113.890909 
L 156.784845 115.854545 
L 159.978561 115.854545 
L 160.138247 113.890909 
L 162.214162 113.890909 
L 162.373848 115.854545 
L 162.852905 115.854545 
L 163.331963 109.963636 
L 163.491648 111.927273 
L 163.81102 111.927273 
L 163.970706 113.890909 
L 164.449763 113.890909 
L 164.609449 111.927273 
L 166.84505 111.927273 
L 167.004736 109.963636 
L 168.441908 109.963636 
L 168.601594 108 
L 173.232482 108 
L 173.392168 106.036364 
L 173.551854 106.036364 
L 173.71154 104.072727 
L 174.350283 104.072727 
L 174.509969 102.109091 
L 174.82934 102.109091 
L 174.989026 100.145455 
L 175.468084 100.145455 
L 175.627769 98.181818 
L 178.023056 98.181818 
L 178.182742 100.145455 
L 178.502114 100.145455 
L 178.6618 98.181818 
L 178.981171 98.181818 
L 179.140857 96.218182 
L 181.855516 96.218182 
L 182.015202 94.254545 
L 183.133002 94.254545 
L 183.452374 98.181818 
L 183.771745 98.181818 
L 183.931431 100.145455 
L 184.410489 100.145455 
L 184.570174 102.109091 
L 184.72986 100.145455 
L 185.208918 100.145455 
L 185.368603 98.181818 
L 187.125147 98.181818 
L 187.284833 100.145455 
L 187.923576 100.145455 
L 188.083262 102.109091 
L 191.276978 102.109091 
L 191.436664 104.072727 
L 192.075407 104.072727 
L 192.235093 106.036364 
L 193.672265 106.036364 
L 193.831951 108 
L 194.151323 108 
L 194.311008 106.036364 
L 195.269123 106.036364 
L 195.428809 104.072727 
L 195.748181 104.072727 
L 195.907866 102.109091 
L 196.706295 102.109091 
L 196.865981 104.072727 
L 197.983782 104.072727 
L 198.143468 106.036364 
L 198.303154 106.036364 
L 198.462839 108 
L 200.059697 108 
L 200.219383 109.963636 
L 201.816241 109.963636 
L 201.975927 108 
L 203.413099 108 
L 203.572785 109.963636 
L 204.211528 109.963636 
L 204.371214 111.927273 
L 205.968072 111.927273 
L 206.127758 113.890909 
L 209.960217 113.890909 
L 210.119903 111.927273 
L 212.834562 111.927273 
L 212.994247 113.890909 
L 214.271734 113.890909 
L 214.43142 115.854545 
L 215.070163 115.854545 
L 215.389534 111.927273 
L 215.708906 111.927273 
L 215.868592 109.963636 
L 216.187963 109.963636 
L 216.347649 111.927273 
L 216.507335 109.963636 
L 216.826707 109.963636 
L 216.986393 111.927273 
L 218.263879 111.927273 
L 218.423565 113.890909 
L 219.062308 113.890909 
L 219.221994 111.927273 
L 219.860737 111.927273 
L 220.020423 109.963636 
L 220.49948 109.963636 
L 220.659166 108 
L 221.138223 108 
L 221.297909 109.963636 
L 222.096338 109.963636 
L 222.575396 115.854545 
L 223.214139 115.854545 
L 223.373825 113.890909 
L 224.012568 113.890909 
L 224.172254 111.927273 
L 224.970683 111.927273 
L 225.130368 113.890909 
L 225.609426 113.890909 
L 225.769112 111.927273 
L 227.685341 111.927273 
L 227.845027 113.890909 
L 228.004713 113.890909 
L 228.324085 117.818182 
L 228.643456 117.818182 
L 228.803142 115.854545 
L 229.920943 115.854545 
L 230.080628 113.890909 
L 230.240314 113.890909 
L 230.4 111.927273 
L 231.996858 111.927273 
L 232.156544 109.963636 
L 232.31623 111.927273 
L 234.232459 111.927273 
L 234.392145 113.890909 
L 235.35026 113.890909 
L 235.509946 111.927273 
L 236.148689 111.927273 
L 236.308375 109.963636 
L 237.905233 109.963636 
L 238.064919 108 
L 239.661777 108 
L 239.821462 109.963636 
L 244.771722 109.963636 
L 244.931408 108 
L 245.25078 108 
L 245.410466 109.963636 
L 246.208895 109.963636 
L 246.36858 108 
L 248.125124 108 
L 248.28481 106.036364 
L 248.763867 106.036364 
L 248.923553 104.072727 
L 249.083239 104.072727 
L 249.242925 106.036364 
L 250.20104 106.036364 
L 250.360725 104.072727 
L 251.31884 104.072727 
L 251.478526 106.036364 
L 252.756012 106.036364 
L 253.075384 109.963636 
L 253.23507 108 
L 253.873813 108 
L 254.033499 109.963636 
L 254.193185 109.963636 
L 254.512556 106.036364 
L 254.672242 108 
L 256.907843 108 
L 257.067529 106.036364 
L 257.227215 108 
L 259.622502 108 
L 259.782188 106.036364 
L 259.941874 106.036364 
L 260.261245 102.109091 
L 261.379046 102.109091 
L 261.698417 106.036364 
L 264.093705 106.036364 
L 264.25339 104.072727 
L 265.371191 104.072727 
L 265.530877 106.036364 
L 266.16962 106.036364 
L 266.329306 104.072727 
L 271.598937 104.072727 
L 271.758623 102.109091 
L 272.23768 102.109091 
L 272.397366 104.072727 
L 272.557052 104.072727 
L 272.876424 108 
L 274.792653 108 
L 274.952339 109.963636 
L 276.868569 109.963636 
L 277.028255 111.927273 
L 277.18794 111.927273 
L 277.347626 109.963636 
L 277.507312 109.963636 
L 277.666998 111.927273 
L 281.0204 111.927273 
L 281.180085 109.963636 
L 283.256001 109.963636 
L 283.415687 108 
L 284.693173 108 
L 285.012545 104.072727 
L 285.651288 104.072727 
L 285.810974 106.036364 
L 286.130345 102.109091 
L 286.449717 102.109091 
L 286.609403 100.145455 
L 287.727203 100.145455 
L 287.886889 102.109091 
L 289.00469 102.109091 
L 289.164376 100.145455 
L 290.920919 100.145455 
L 291.080605 102.109091 
L 293.316207 102.109091 
L 293.635578 98.181818 
L 293.795264 100.145455 
L 296.030865 100.145455 
L 296.190551 102.109091 
L 297.308352 102.109091 
L 297.468037 100.145455 
L 297.627723 100.145455 
L 297.787409 102.109091 
L 298.90521 102.109091 
L 299.064895 104.072727 
L 300.182696 104.072727 
L 300.342382 106.036364 
L 300.661753 106.036364 
L 300.821439 108 
L 301.140811 108 
L 301.300497 109.963636 
L 301.460183 109.963636 
L 301.619868 111.927273 
L 304.174841 111.927273 
L 304.334527 109.963636 
L 304.494213 109.963636 
L 304.813584 106.036364 
L 304.97327 108 
L 306.729814 108 
L 306.8895 106.036364 
L 309.444473 106.036364 
L 309.604158 104.072727 
L 310.562273 104.072727 
L 310.881645 108 
L 312.638189 108 
L 312.797875 109.963636 
L 317.588449 109.963636 
L 317.748134 108 
L 319.664364 108 
L 319.82405 106.036364 
L 320.143422 106.036364 
L 320.303107 108 
L 322.85808 108 
L 323.017766 106.036364 
L 323.816195 106.036364 
L 323.975881 108 
L 325.572739 108 
L 325.732425 106.036364 
L 327.968026 106.036364 
L 328.127712 104.072727 
L 329.564884 104.072727 
L 329.72457 102.109091 
L 330.84237 102.109091 
L 331.002056 100.145455 
L 332.119857 100.145455 
L 332.279543 98.181818 
L 332.598914 98.181818 
L 332.7586 96.218182 
L 332.918286 96.218182 
L 333.077972 98.181818 
L 333.237657 96.218182 
L 333.397343 96.218182 
L 333.557029 94.254545 
L 335.473259 94.254545 
L 335.632944 96.218182 
L 336.431373 96.218182 
L 336.591059 98.181818 
L 336.750745 98.181818 
L 336.910431 96.218182 
L 340.74289 96.218182 
L 340.902576 94.254545 
L 342.499434 94.254545 
L 342.818806 90.327273 
L 343.936606 90.327273 
L 344.096292 92.290909 
L 344.575349 92.290909 
L 344.735035 90.327273 
L 344.894721 90.327273 
L 345.054407 92.290909 
L 347.449694 92.290909 
L 347.60938 94.254545 
L 352.080582 94.254545 
L 352.240268 92.290909 
L 355.753356 92.290909 
L 355.913041 90.327273 
L 356.072727 90.327273 
L 356.072727 90.327273 
" clip-path="url(#p524e495621)" style="fill: none; stroke: #bcbd22; stroke-width: 1.5; stroke-linecap: square"/>
   </g>
   <g id="patch_3">
    <path d="M 92.16 276.48 
L 92.16 69.12 
" style="fill: none; stroke: #000000; stroke-width: 0.8; stroke-linejoin: miter; stroke-linecap: square"/>
   </g>
   <g id="patch_4">
    <path d="M 368.64 276.48 
L 368.64 69.12 
" style="fill: none; stroke: #000000; stroke-width: 0.8; stroke-linejoin: miter; stroke-linecap: square"/>
   </g>
   <g id="patch_5">
    <path d="M 92.16 276.48 
L 368.64 276.48 
" style="fill: none; stroke: #000000; stroke-width: 0.8; stroke-linejoin: miter; stroke-linecap: square"/>
   </g>
   <g id="patch_6">
    <path d="M 92.16 69.12 
L 368.64 69.12 
" style="fill: none; stroke: #000000; stroke-width: 0.8; stroke-linejoin: miter; stroke-linecap: square"/>
   </g>
   <g id="text_16">
    <!-- fixed_woosterprobe_2afc_og -->
    <g transform="translate(145.171875 63.12) scale(0.12 -0.12)">
     <defs>
      <path id="DejaVuSans-66" d="M 2375 4863 
L 2375 4384 
L 1825 4384 
Q 1516 4384 1395 4259 
Q 1275 4134 1275 3809 
L 1275 3500 
L 2222 3500 
L 2222 3053 
L 1275 3053 
L 1275 0 
L 697 0 
L 697 3053 
L 147 3053 
L 147 3500 
L 697 3500 
L 697 3744 
Q 697 4328 969 4595 
Q 1241 4863 1831 4863 
L 2375 4863 
z
" transform="scale(0.015625)"/>
      <path id="DejaVuSans-69" d="M 603 3500 
L 1178 3500 
L 1178 0 
L 603 0 
L 603 3500 
z
M 603 4863 
L 1178 4863 
L 1178 4134 
L 603 4134 
L 603 4863 
z
" transform="scale(0.015625)"/>
      <path id="DejaVuSans-78" d="M 3513 3500 
L 2247 1797 
L 3578 0 
L 2900 0 
L 1881 1375 
L 863 0 
L 184 0 
L 1544 1831 
L 300 3500 
L 978 3500 
L 1906 2253 
L 2834 3500 
L 3513 3500 
z
" transform="scale(0.015625)"/>
      <path id="DejaVuSans-65" d="M 3597 1894 
L 3597 1613 
L 953 1613 
Q 991 1019 1311 708 
Q 1631 397 2203 397 
Q 2534 397 2845 478 
Q 3156 559 3463 722 
L 3463 178 
Q 3153 47 2828 -22 
Q 2503 -91 2169 -91 
Q 1331 -91 842 396 
Q 353 884 353 1716 
Q 353 2575 817 3079 
Q 1281 3584 2069 3584 
Q 2775 3584 3186 3129 
Q 3597 2675 3597 1894 
z
M 3022 2063 
Q 3016 2534 2758 2815 
Q 2500 3097 2075 3097 
Q 1594 3097 1305 2825 
Q 1016 2553 972 2059 
L 3022 2063 
z
" transform="scale(0.015625)"/>
      <path id="DejaVuSans-64" d="M 2906 2969 
L 2906 4863 
L 3481 4863 
L 3481 0 
L 2906 0 
L 2906 525 
Q 2725 213 2448 61 
Q 2172 -91 1784 -91 
Q 1150 -91 751 415 
Q 353 922 353 1747 
Q 353 2572 751 3078 
Q 1150 3584 1784 3584 
Q 2172 3584 2448 3432 
Q 2725 3281 2906 2969 
z
M 947 1747 
Q 947 1113 1208 752 
Q 1469 391 1925 391 
Q 2381 391 2643 752 
Q 2906 1113 2906 1747 
Q 2906 2381 2643 2742 
Q 2381 3103 1925 3103 
Q 1469 3103 1208 2742 
Q 947 2381 947 1747 
z
" transform="scale(0.015625)"/>
      <path id="DejaVuSans-5f" d="M 3263 -1063 
L 3263 -1509 
L -63 -1509 
L -63 -1063 
L 3263 -1063 
z
" transform="scale(0.015625)"/>
      <path id="DejaVuSans-77" d="M 269 3500 
L 844 3500 
L 1563 769 
L 2278 3500 
L 2956 3500 
L 3675 769 
L 4391 3500 
L 4966 3500 
L 4050 0 
L 3372 0 
L 2619 2869 
L 1863 0 
L 1184 0 
L 269 3500 
z
" transform="scale(0.015625)"/>
      <path id="DejaVuSans-6f" d="M 1959 3097 
Q 1497 3097 1228 2736 
Q 959 2375 959 1747 
Q 959 1119 1226 758 
Q 1494 397 1959 397 
Q 2419 397 2687 759 
Q 2956 1122 2956 1747 
Q 2956 2369 2687 2733 
Q 2419 3097 1959 3097 
z
M 1959 3584 
Q 2709 3584 3137 3096 
Q 3566 2609 3566 1747 
Q 3566 888 3137 398 
Q 2709 -91 1959 -91 
Q 1206 -91 779 398 
Q 353 888 353 1747 
Q 353 2609 779 3096 
Q 1206 3584 1959 3584 
z
" transform="scale(0.015625)"/>
      <path id="DejaVuSans-73" d="M 2834 3397 
L 2834 2853 
Q 2591 2978 2328 3040 
Q 2066 3103 1784 3103 
Q 1356 3103 1142 2972 
Q 928 2841 928 2578 
Q 928 2378 1081 2264 
Q 1234 2150 1697 2047 
L 1894 2003 
Q 2506 1872 2764 1633 
Q 3022 1394 3022 966 
Q 3022 478 2636 193 
Q 2250 -91 1575 -91 
Q 1294 -91 989 -36 
Q 684 19 347 128 
L 347 722 
Q 666 556 975 473 
Q 1284 391 1588 391 
Q 1994 391 2212 530 
Q 2431 669 2431 922 
Q 2431 1156 2273 1281 
Q 2116 1406 1581 1522 
L 1381 1569 
Q 847 1681 609 1914 
Q 372 2147 372 2553 
Q 372 3047 722 3315 
Q 1072 3584 1716 3584 
Q 2034 3584 2315 3537 
Q 2597 3491 2834 3397 
z
" transform="scale(0.015625)"/>
      <path id="DejaVuSans-74" d="M 1172 4494 
L 1172 3500 
L 2356 3500 
L 2356 3053 
L 1172 3053 
L 1172 1153 
Q 1172 725 1289 603 
Q 1406 481 1766 481 
L 2356 481 
L 2356 0 
L 1766 0 
Q 1100 0 847 248 
Q 594 497 594 1153 
L 594 3053 
L 172 3053 
L 172 3500 
L 594 3500 
L 594 4494 
L 1172 4494 
z
" transform="scale(0.015625)"/>
      <path id="DejaVuSans-72" d="M 2631 2963 
Q 2534 3019 2420 3045 
Q 2306 3072 2169 3072 
Q 1681 3072 1420 2755 
Q 1159 2438 1159 1844 
L 1159 0 
L 581 0 
L 581 3500 
L 1159 3500 
L 1159 2956 
Q 1341 3275 1631 3429 
Q 1922 3584 2338 3584 
Q 2397 3584 2469 3576 
Q 2541 3569 2628 3553 
L 2631 2963 
z
" transform="scale(0.015625)"/>
      <path id="DejaVuSans-70" d="M 1159 525 
L 1159 -1331 
L 581 -1331 
L 581 3500 
L 1159 3500 
L 1159 2969 
Q 1341 3281 1617 3432 
Q 1894 3584 2278 3584 
Q 2916 3584 3314 3078 
Q 3713 2572 3713 1747 
Q 3713 922 3314 415 
Q 2916 -91 2278 -91 
Q 1894 -91 1617 61 
Q 1341 213 1159 525 
z
M 3116 1747 
Q 3116 2381 2855 2742 
Q 2594 3103 2138 3103 
Q 1681 3103 1420 2742 
Q 1159 2381 1159 1747 
Q 1159 1113 1420 752 
Q 1681 391 2138 391 
Q 2594 391 2855 752 
Q 3116 1113 3116 1747 
z
" transform="scale(0.015625)"/>
      <path id="DejaVuSans-62" d="M 3116 1747 
Q 3116 2381 2855 2742 
Q 2594 3103 2138 3103 
Q 1681 3103 1420 2742 
Q 1159 2381 1159 1747 
Q 1159 1113 1420 752 
Q 1681 391 2138 391 
Q 2594 391 2855 752 
Q 3116 1113 3116 1747 
z
M 1159 2969 
Q 1341 3281 1617 3432 
Q 1894 3584 2278 3584 
Q 2916 3584 3314 3078 
Q 3713 2572 3713 1747 
Q 3713 922 3314 415 
Q 2916 -91 2278 -91 
Q 1894 -91 1617 61 
Q 1341 213 1159 525 
L 1159 0 
L 581 0 
L 581 4863 
L 1159 4863 
L 1159 2969 
z
" transform="scale(0.015625)"/>
      <path id="DejaVuSans-61" d="M 2194 1759 
Q 1497 1759 1228 1600 
Q 959 1441 959 1056 
Q 959 750 1161 570 
Q 1363 391 1709 391 
Q 2188 391 2477 730 
Q 2766 1069 2766 1631 
L 2766 1759 
L 2194 1759 
z
M 3341 1997 
L 3341 0 
L 2766 0 
L 2766 531 
Q 2569 213 2275 61 
Q 1981 -91 1556 -91 
Q 1019 -91 701 211 
Q 384 513 384 1019 
Q 384 1609 779 1909 
Q 1175 2209 1959 2209 
L 2766 2209 
L 2766 2266 
Q 2766 2663 2505 2880 
Q 2244 3097 1772 3097 
Q 1472 3097 1187 3025 
Q 903 2953 641 2809 
L 641 3341 
Q 956 3463 1253 3523 
Q 1550 3584 1831 3584 
Q 2591 3584 2966 3190 
Q 3341 2797 3341 1997 
z
" transform="scale(0.015625)"/>
      <path id="DejaVuSans-63" d="M 3122 3366 
L 3122 2828 
Q 2878 2963 2633 3030 
Q 2388 3097 2138 3097 
Q 1578 3097 1268 2742 
Q 959 2388 959 1747 
Q 959 1106 1268 751 
Q 1578 397 2138 397 
Q 2388 397 2633 464 
Q 2878 531 3122 666 
L 3122 134 
Q 2881 22 2623 -34 
Q 2366 -91 2075 -91 
Q 1284 -91 818 406 
Q 353 903 353 1747 
Q 353 2603 823 3093 
Q 1294 3584 2113 3584 
Q 2378 3584 2631 3529 
Q 2884 3475 3122 3366 
z
" transform="scale(0.015625)"/>
      <path id="DejaVuSans-67" d="M 2906 1791 
Q 2906 2416 2648 2759 
Q 2391 3103 1925 3103 
Q 1463 3103 1205 2759 
Q 947 2416 947 1791 
Q 947 1169 1205 825 
Q 1463 481 1925 481 
Q 2391 481 2648 825 
Q 2906 1169 2906 1791 
z
M 3481 434 
Q 3481 -459 3084 -895 
Q 2688 -1331 1869 -1331 
Q 1566 -1331 1297 -1286 
Q 1028 -1241 775 -1147 
L 775 -588 
Q 1028 -725 1275 -790 
Q 1522 -856 1778 -856 
Q 2344 -856 2625 -561 
Q 2906 -266 2906 331 
L 2906 616 
Q 2728 306 2450 153 
Q 2172 0 1784 0 
Q 1141 0 747 490 
Q 353 981 353 1791 
Q 353 2603 747 3093 
Q 1141 3584 1784 3584 
Q 2172 3584 2450 3431 
Q 2728 3278 2906 2969 
L 2906 3500 
L 3481 3500 
L 3481 434 
z
" transform="scale(0.015625)"/>
     </defs>
     <use xlink:href="#DejaVuSans-66"/>
     <use xlink:href="#DejaVuSans-69" x="35.205078"/>
     <use xlink:href="#DejaVuSans-78" x="62.988281"/>
     <use xlink:href="#DejaVuSans-65" x="119.042969"/>
     <use xlink:href="#DejaVuSans-64" x="180.566406"/>
     <use xlink:href="#DejaVuSans-5f" x="244.042969"/>
     <use xlink:href="#DejaVuSans-77" x="294.042969"/>
     <use xlink:href="#DejaVuSans-6f" x="375.830078"/>
     <use xlink:href="#DejaVuSans-6f" x="437.011719"/>
     <use xlink:href="#DejaVuSans-73" x="498.193359"/>
     <use xlink:href="#DejaVuSans-74" x="550.292969"/>
     <use xlink:href="#DejaVuSans-65" x="589.501953"/>
     <use xlink:href="#DejaVuSans-72" x="651.025391"/>
     <use xlink:href="#DejaVuSans-70" x="692.138672"/>
     <use xlink:href="#DejaVuSans-72" x="755.615234"/>
     <use xlink:href="#DejaVuSans-6f" x="794.478516"/>
     <use xlink:href="#DejaVuSans-62" x="855.660156"/>
     <use xlink:href="#DejaVuSans-65" x="919.136719"/>
     <use xlink:href="#DejaVuSans-5f" x="980.660156"/>
     <use xlink:href="#DejaVuSans-32" x="1030.660156"/>
     <use xlink:href="#DejaVuSans-61" x="1094.283203"/>
     <use xlink:href="#DejaVuSans-66" x="1155.5625"/>
     <use xlink:href="#DejaVuSans-63" x="1190.767578"/>
     <use xlink:href="#DejaVuSans-5f" x="1245.748047"/>
     <use xlink:href="#DejaVuSans-6f" x="1295.748047"/>
     <use xlink:href="#DejaVuSans-67" x="1356.929688"/>
    </g>
   </g>
   <g id="legend_1">
    <g id="patch_7">
     <path d="M 164.72125 271.48 
L 361.64 271.48 
Q 363.64 271.48 363.64 269.48 
L 363.64 135.87375 
Q 363.64 133.87375 361.64 133.87375 
L 164.72125 133.87375 
Q 162.72125 133.87375 162.72125 135.87375 
L 162.72125 269.48 
Q 162.72125 271.48 164.72125 271.48 
z
" style="fill: #ffffff; opacity: 0.8; stroke: #cccccc; stroke-linejoin: miter"/>
    </g>
    <g id="line2d_25">
     <path d="M 166.72125 141.972187 
L 176.72125 141.972187 
L 186.72125 141.972187 
" style="fill: none; stroke: #1f77b4; stroke-width: 1.5; stroke-linecap: square"/>
    </g>
    <g id="text_17">
     <!-- low_gauss_shape_to_color -->
     <g transform="translate(194.72125 145.472187) scale(0.1 -0.1)">
      <defs>
       <path id="DejaVuSans-6c" d="M 603 4863 
L 1178 4863 
L 1178 0 
L 603 0 
L 603 4863 
z
" transform="scale(0.015625)"/>
       <path id="DejaVuSans-75" d="M 544 1381 
L 544 3500 
L 1119 3500 
L 1119 1403 
Q 1119 906 1312 657 
Q 1506 409 1894 409 
Q 2359 409 2629 706 
Q 2900 1003 2900 1516 
L 2900 3500 
L 3475 3500 
L 3475 0 
L 2900 0 
L 2900 538 
Q 2691 219 2414 64 
Q 2138 -91 1772 -91 
Q 1169 -91 856 284 
Q 544 659 544 1381 
z
M 1991 3584 
L 1991 3584 
z
" transform="scale(0.015625)"/>
       <path id="DejaVuSans-68" d="M 3513 2113 
L 3513 0 
L 2938 0 
L 2938 2094 
Q 2938 2591 2744 2837 
Q 2550 3084 2163 3084 
Q 1697 3084 1428 2787 
Q 1159 2491 1159 1978 
L 1159 0 
L 581 0 
L 581 4863 
L 1159 4863 
L 1159 2956 
Q 1366 3272 1645 3428 
Q 1925 3584 2291 3584 
Q 2894 3584 3203 3211 
Q 3513 2838 3513 2113 
z
" transform="scale(0.015625)"/>
      </defs>
      <use xlink:href="#DejaVuSans-6c"/>
      <use xlink:href="#DejaVuSans-6f" x="27.783203"/>
      <use xlink:href="#DejaVuSans-77" x="88.964844"/>
      <use xlink:href="#DejaVuSans-5f" x="170.751953"/>
      <use xlink:href="#DejaVuSans-67" x="220.751953"/>
      <use xlink:href="#DejaVuSans-61" x="284.228516"/>
      <use xlink:href="#DejaVuSans-75" x="345.507812"/>
      <use xlink:href="#DejaVuSans-73" x="408.886719"/>
      <use xlink:href="#DejaVuSans-73" x="460.986328"/>
      <use xlink:href="#DejaVuSans-5f" x="513.085938"/>
      <use xlink:href="#DejaVuSans-73" x="563.085938"/>
      <use xlink:href="#DejaVuSans-68" x="615.185547"/>
      <use xlink:href="#DejaVuSans-61" x="678.564453"/>
      <use xlink:href="#DejaVuSans-70" x="739.84375"/>
      <use xlink:href="#DejaVuSans-65" x="803.320312"/>
      <use xlink:href="#DejaVuSans-5f" x="864.84375"/>
      <use xlink:href="#DejaVuSans-74" x="914.84375"/>
      <use xlink:href="#DejaVuSans-6f" x="954.052734"/>
      <use xlink:href="#DejaVuSans-5f" x="1015.234375"/>
      <use xlink:href="#DejaVuSans-63" x="1065.234375"/>
      <use xlink:href="#DejaVuSans-6f" x="1120.214844"/>
      <use xlink:href="#DejaVuSans-6c" x="1181.396484"/>
      <use xlink:href="#DejaVuSans-6f" x="1209.179688"/>
      <use xlink:href="#DejaVuSans-72" x="1270.361328"/>
     </g>
    </g>
    <g id="line2d_26">
     <path d="M 166.72125 156.928437 
L 176.72125 156.928437 
L 186.72125 156.928437 
" style="fill: none; stroke: #ff7f0e; stroke-width: 1.5; stroke-linecap: square"/>
    </g>
    <g id="text_18">
     <!-- focal_low_gauss_shape_to_color -->
     <g transform="translate(194.72125 160.428437) scale(0.1 -0.1)">
      <use xlink:href="#DejaVuSans-66"/>
      <use xlink:href="#DejaVuSans-6f" x="35.205078"/>
      <use xlink:href="#DejaVuSans-63" x="96.386719"/>
      <use xlink:href="#DejaVuSans-61" x="151.367188"/>
      <use xlink:href="#DejaVuSans-6c" x="212.646484"/>
      <use xlink:href="#DejaVuSans-5f" x="240.429688"/>
      <use xlink:href="#DejaVuSans-6c" x="290.429688"/>
      <use xlink:href="#DejaVuSans-6f" x="318.212891"/>
      <use xlink:href="#DejaVuSans-77" x="379.394531"/>
      <use xlink:href="#DejaVuSans-5f" x="461.181641"/>
      <use xlink:href="#DejaVuSans-67" x="511.181641"/>
      <use xlink:href="#DejaVuSans-61" x="574.658203"/>
      <use xlink:href="#DejaVuSans-75" x="635.9375"/>
      <use xlink:href="#DejaVuSans-73" x="699.316406"/>
      <use xlink:href="#DejaVuSans-73" x="751.416016"/>
      <use xlink:href="#DejaVuSans-5f" x="803.515625"/>
      <use xlink:href="#DejaVuSans-73" x="853.515625"/>
      <use xlink:href="#DejaVuSans-68" x="905.615234"/>
      <use xlink:href="#DejaVuSans-61" x="968.994141"/>
      <use xlink:href="#DejaVuSans-70" x="1030.273438"/>
      <use xlink:href="#DejaVuSans-65" x="1093.75"/>
      <use xlink:href="#DejaVuSans-5f" x="1155.273438"/>
      <use xlink:href="#DejaVuSans-74" x="1205.273438"/>
      <use xlink:href="#DejaVuSans-6f" x="1244.482422"/>
      <use xlink:href="#DejaVuSans-5f" x="1305.664062"/>
      <use xlink:href="#DejaVuSans-63" x="1355.664062"/>
      <use xlink:href="#DejaVuSans-6f" x="1410.644531"/>
      <use xlink:href="#DejaVuSans-6c" x="1471.826172"/>
      <use xlink:href="#DejaVuSans-6f" x="1499.609375"/>
      <use xlink:href="#DejaVuSans-72" x="1560.791016"/>
     </g>
    </g>
    <g id="line2d_27">
     <path d="M 166.72125 171.884687 
L 176.72125 171.884687 
L 186.72125 171.884687 
" style="fill: none; stroke: #2ca02c; stroke-width: 1.5; stroke-linecap: square"/>
    </g>
    <g id="text_19">
     <!-- high_gauss_shape_to_color -->
     <g transform="translate(194.72125 175.384687) scale(0.1 -0.1)">
      <use xlink:href="#DejaVuSans-68"/>
      <use xlink:href="#DejaVuSans-69" x="63.378906"/>
      <use xlink:href="#DejaVuSans-67" x="91.162109"/>
      <use xlink:href="#DejaVuSans-68" x="154.638672"/>
      <use xlink:href="#DejaVuSans-5f" x="218.017578"/>
      <use xlink:href="#DejaVuSans-67" x="268.017578"/>
      <use xlink:href="#DejaVuSans-61" x="331.494141"/>
      <use xlink:href="#DejaVuSans-75" x="392.773438"/>
      <use xlink:href="#DejaVuSans-73" x="456.152344"/>
      <use xlink:href="#DejaVuSans-73" x="508.251953"/>
      <use xlink:href="#DejaVuSans-5f" x="560.351562"/>
      <use xlink:href="#DejaVuSans-73" x="610.351562"/>
      <use xlink:href="#DejaVuSans-68" x="662.451172"/>
      <use xlink:href="#DejaVuSans-61" x="725.830078"/>
      <use xlink:href="#DejaVuSans-70" x="787.109375"/>
      <use xlink:href="#DejaVuSans-65" x="850.585938"/>
      <use xlink:href="#DejaVuSans-5f" x="912.109375"/>
      <use xlink:href="#DejaVuSans-74" x="962.109375"/>
      <use xlink:href="#DejaVuSans-6f" x="1001.318359"/>
      <use xlink:href="#DejaVuSans-5f" x="1062.5"/>
      <use xlink:href="#DejaVuSans-63" x="1112.5"/>
      <use xlink:href="#DejaVuSans-6f" x="1167.480469"/>
      <use xlink:href="#DejaVuSans-6c" x="1228.662109"/>
      <use xlink:href="#DejaVuSans-6f" x="1256.445312"/>
      <use xlink:href="#DejaVuSans-72" x="1317.626953"/>
     </g>
    </g>
    <g id="line2d_28">
     <path d="M 166.72125 186.840937 
L 176.72125 186.840937 
L 186.72125 186.840937 
" style="fill: none; stroke: #d62728; stroke-width: 1.5; stroke-linecap: square"/>
    </g>
    <g id="text_20">
     <!-- focal_high_gauss_shape_to_color -->
     <g transform="translate(194.72125 190.340937) scale(0.1 -0.1)">
      <use xlink:href="#DejaVuSans-66"/>
      <use xlink:href="#DejaVuSans-6f" x="35.205078"/>
      <use xlink:href="#DejaVuSans-63" x="96.386719"/>
      <use xlink:href="#DejaVuSans-61" x="151.367188"/>
      <use xlink:href="#DejaVuSans-6c" x="212.646484"/>
      <use xlink:href="#DejaVuSans-5f" x="240.429688"/>
      <use xlink:href="#DejaVuSans-68" x="290.429688"/>
      <use xlink:href="#DejaVuSans-69" x="353.808594"/>
      <use xlink:href="#DejaVuSans-67" x="381.591797"/>
      <use xlink:href="#DejaVuSans-68" x="445.068359"/>
      <use xlink:href="#DejaVuSans-5f" x="508.447266"/>
      <use xlink:href="#DejaVuSans-67" x="558.447266"/>
      <use xlink:href="#DejaVuSans-61" x="621.923828"/>
      <use xlink:href="#DejaVuSans-75" x="683.203125"/>
      <use xlink:href="#DejaVuSans-73" x="746.582031"/>
      <use xlink:href="#DejaVuSans-73" x="798.681641"/>
      <use xlink:href="#DejaVuSans-5f" x="850.78125"/>
      <use xlink:href="#DejaVuSans-73" x="900.78125"/>
      <use xlink:href="#DejaVuSans-68" x="952.880859"/>
      <use xlink:href="#DejaVuSans-61" x="1016.259766"/>
      <use xlink:href="#DejaVuSans-70" x="1077.539062"/>
      <use xlink:href="#DejaVuSans-65" x="1141.015625"/>
      <use xlink:href="#DejaVuSans-5f" x="1202.539062"/>
      <use xlink:href="#DejaVuSans-74" x="1252.539062"/>
      <use xlink:href="#DejaVuSans-6f" x="1291.748047"/>
      <use xlink:href="#DejaVuSans-5f" x="1352.929688"/>
      <use xlink:href="#DejaVuSans-63" x="1402.929688"/>
      <use xlink:href="#DejaVuSans-6f" x="1457.910156"/>
      <use xlink:href="#DejaVuSans-6c" x="1519.091797"/>
      <use xlink:href="#DejaVuSans-6f" x="1546.875"/>
      <use xlink:href="#DejaVuSans-72" x="1608.056641"/>
     </g>
    </g>
    <g id="line2d_29">
     <path d="M 166.72125 201.797188 
L 176.72125 201.797188 
L 186.72125 201.797188 
" style="fill: none; stroke: #9467bd; stroke-width: 1.5; stroke-linecap: square"/>
    </g>
    <g id="text_21">
     <!-- low_gauss_color_to_shape -->
     <g transform="translate(194.72125 205.297188) scale(0.1 -0.1)">
      <use xlink:href="#DejaVuSans-6c"/>
      <use xlink:href="#DejaVuSans-6f" x="27.783203"/>
      <use xlink:href="#DejaVuSans-77" x="88.964844"/>
      <use xlink:href="#DejaVuSans-5f" x="170.751953"/>
      <use xlink:href="#DejaVuSans-67" x="220.751953"/>
      <use xlink:href="#DejaVuSans-61" x="284.228516"/>
      <use xlink:href="#DejaVuSans-75" x="345.507812"/>
      <use xlink:href="#DejaVuSans-73" x="408.886719"/>
      <use xlink:href="#DejaVuSans-73" x="460.986328"/>
      <use xlink:href="#DejaVuSans-5f" x="513.085938"/>
      <use xlink:href="#DejaVuSans-63" x="563.085938"/>
      <use xlink:href="#DejaVuSans-6f" x="618.066406"/>
      <use xlink:href="#DejaVuSans-6c" x="679.248047"/>
      <use xlink:href="#DejaVuSans-6f" x="707.03125"/>
      <use xlink:href="#DejaVuSans-72" x="768.212891"/>
      <use xlink:href="#DejaVuSans-5f" x="809.326172"/>
      <use xlink:href="#DejaVuSans-74" x="859.326172"/>
      <use xlink:href="#DejaVuSans-6f" x="898.535156"/>
      <use xlink:href="#DejaVuSans-5f" x="959.716797"/>
      <use xlink:href="#DejaVuSans-73" x="1009.716797"/>
      <use xlink:href="#DejaVuSans-68" x="1061.816406"/>
      <use xlink:href="#DejaVuSans-61" x="1125.195312"/>
      <use xlink:href="#DejaVuSans-70" x="1186.474609"/>
      <use xlink:href="#DejaVuSans-65" x="1249.951172"/>
     </g>
    </g>
    <g id="line2d_30">
     <path d="M 166.72125 216.753437 
L 176.72125 216.753437 
L 186.72125 216.753437 
" style="fill: none; stroke: #8c564b; stroke-width: 1.5; stroke-linecap: square"/>
    </g>
    <g id="text_22">
     <!-- focal_low_gauss_color_to_shape -->
     <g transform="translate(194.72125 220.253437) scale(0.1 -0.1)">
      <use xlink:href="#DejaVuSans-66"/>
      <use xlink:href="#DejaVuSans-6f" x="35.205078"/>
      <use xlink:href="#DejaVuSans-63" x="96.386719"/>
      <use xlink:href="#DejaVuSans-61" x="151.367188"/>
      <use xlink:href="#DejaVuSans-6c" x="212.646484"/>
      <use xlink:href="#DejaVuSans-5f" x="240.429688"/>
      <use xlink:href="#DejaVuSans-6c" x="290.429688"/>
      <use xlink:href="#DejaVuSans-6f" x="318.212891"/>
      <use xlink:href="#DejaVuSans-77" x="379.394531"/>
      <use xlink:href="#DejaVuSans-5f" x="461.181641"/>
      <use xlink:href="#DejaVuSans-67" x="511.181641"/>
      <use xlink:href="#DejaVuSans-61" x="574.658203"/>
      <use xlink:href="#DejaVuSans-75" x="635.9375"/>
      <use xlink:href="#DejaVuSans-73" x="699.316406"/>
      <use xlink:href="#DejaVuSans-73" x="751.416016"/>
      <use xlink:href="#DejaVuSans-5f" x="803.515625"/>
      <use xlink:href="#DejaVuSans-63" x="853.515625"/>
      <use xlink:href="#DejaVuSans-6f" x="908.496094"/>
      <use xlink:href="#DejaVuSans-6c" x="969.677734"/>
      <use xlink:href="#DejaVuSans-6f" x="997.460938"/>
      <use xlink:href="#DejaVuSans-72" x="1058.642578"/>
      <use xlink:href="#DejaVuSans-5f" x="1099.755859"/>
      <use xlink:href="#DejaVuSans-74" x="1149.755859"/>
      <use xlink:href="#DejaVuSans-6f" x="1188.964844"/>
      <use xlink:href="#DejaVuSans-5f" x="1250.146484"/>
      <use xlink:href="#DejaVuSans-73" x="1300.146484"/>
      <use xlink:href="#DejaVuSans-68" x="1352.246094"/>
      <use xlink:href="#DejaVuSans-61" x="1415.625"/>
      <use xlink:href="#DejaVuSans-70" x="1476.904297"/>
      <use xlink:href="#DejaVuSans-65" x="1540.380859"/>
     </g>
    </g>
    <g id="line2d_31">
     <path d="M 166.72125 231.709687 
L 176.72125 231.709687 
L 186.72125 231.709687 
" style="fill: none; stroke: #e377c2; stroke-width: 1.5; stroke-linecap: square"/>
    </g>
    <g id="text_23">
     <!-- high_gauss_color_to_shape -->
     <g transform="translate(194.72125 235.209687) scale(0.1 -0.1)">
      <use xlink:href="#DejaVuSans-68"/>
      <use xlink:href="#DejaVuSans-69" x="63.378906"/>
      <use xlink:href="#DejaVuSans-67" x="91.162109"/>
      <use xlink:href="#DejaVuSans-68" x="154.638672"/>
      <use xlink:href="#DejaVuSans-5f" x="218.017578"/>
      <use xlink:href="#DejaVuSans-67" x="268.017578"/>
      <use xlink:href="#DejaVuSans-61" x="331.494141"/>
      <use xlink:href="#DejaVuSans-75" x="392.773438"/>
      <use xlink:href="#DejaVuSans-73" x="456.152344"/>
      <use xlink:href="#DejaVuSans-73" x="508.251953"/>
      <use xlink:href="#DejaVuSans-5f" x="560.351562"/>
      <use xlink:href="#DejaVuSans-63" x="610.351562"/>
      <use xlink:href="#DejaVuSans-6f" x="665.332031"/>
      <use xlink:href="#DejaVuSans-6c" x="726.513672"/>
      <use xlink:href="#DejaVuSans-6f" x="754.296875"/>
      <use xlink:href="#DejaVuSans-72" x="815.478516"/>
      <use xlink:href="#DejaVuSans-5f" x="856.591797"/>
      <use xlink:href="#DejaVuSans-74" x="906.591797"/>
      <use xlink:href="#DejaVuSans-6f" x="945.800781"/>
      <use xlink:href="#DejaVuSans-5f" x="1006.982422"/>
      <use xlink:href="#DejaVuSans-73" x="1056.982422"/>
      <use xlink:href="#DejaVuSans-68" x="1109.082031"/>
      <use xlink:href="#DejaVuSans-61" x="1172.460938"/>
      <use xlink:href="#DejaVuSans-70" x="1233.740234"/>
      <use xlink:href="#DejaVuSans-65" x="1297.216797"/>
     </g>
    </g>
    <g id="line2d_32">
     <path d="M 166.72125 246.665937 
L 176.72125 246.665937 
L 186.72125 246.665937 
" style="fill: none; stroke: #7f7f7f; stroke-width: 1.5; stroke-linecap: square"/>
    </g>
    <g id="text_24">
     <!-- focal_high_gauss_color_to_shape -->
     <g transform="translate(194.72125 250.165937) scale(0.1 -0.1)">
      <use xlink:href="#DejaVuSans-66"/>
      <use xlink:href="#DejaVuSans-6f" x="35.205078"/>
      <use xlink:href="#DejaVuSans-63" x="96.386719"/>
      <use xlink:href="#DejaVuSans-61" x="151.367188"/>
      <use xlink:href="#DejaVuSans-6c" x="212.646484"/>
      <use xlink:href="#DejaVuSans-5f" x="240.429688"/>
      <use xlink:href="#DejaVuSans-68" x="290.429688"/>
      <use xlink:href="#DejaVuSans-69" x="353.808594"/>
      <use xlink:href="#DejaVuSans-67" x="381.591797"/>
      <use xlink:href="#DejaVuSans-68" x="445.068359"/>
      <use xlink:href="#DejaVuSans-5f" x="508.447266"/>
      <use xlink:href="#DejaVuSans-67" x="558.447266"/>
      <use xlink:href="#DejaVuSans-61" x="621.923828"/>
      <use xlink:href="#DejaVuSans-75" x="683.203125"/>
      <use xlink:href="#DejaVuSans-73" x="746.582031"/>
      <use xlink:href="#DejaVuSans-73" x="798.681641"/>
      <use xlink:href="#DejaVuSans-5f" x="850.78125"/>
      <use xlink:href="#DejaVuSans-63" x="900.78125"/>
      <use xlink:href="#DejaVuSans-6f" x="955.761719"/>
      <use xlink:href="#DejaVuSans-6c" x="1016.943359"/>
      <use xlink:href="#DejaVuSans-6f" x="1044.726562"/>
      <use xlink:href="#DejaVuSans-72" x="1105.908203"/>
      <use xlink:href="#DejaVuSans-5f" x="1147.021484"/>
      <use xlink:href="#DejaVuSans-74" x="1197.021484"/>
      <use xlink:href="#DejaVuSans-6f" x="1236.230469"/>
      <use xlink:href="#DejaVuSans-5f" x="1297.412109"/>
      <use xlink:href="#DejaVuSans-73" x="1347.412109"/>
      <use xlink:href="#DejaVuSans-68" x="1399.511719"/>
      <use xlink:href="#DejaVuSans-61" x="1462.890625"/>
      <use xlink:href="#DejaVuSans-70" x="1524.169922"/>
      <use xlink:href="#DejaVuSans-65" x="1587.646484"/>
     </g>
    </g>
    <g id="line2d_33">
     <path d="M 166.72125 261.622187 
L 176.72125 261.622187 
L 186.72125 261.622187 
" style="fill: none; stroke: #bcbd22; stroke-width: 1.5; stroke-linecap: square"/>
    </g>
    <g id="text_25">
     <!-- achromatic_shape_to_shape -->
     <g transform="translate(194.72125 265.122187) scale(0.1 -0.1)">
      <defs>
       <path id="DejaVuSans-6d" d="M 3328 2828 
Q 3544 3216 3844 3400 
Q 4144 3584 4550 3584 
Q 5097 3584 5394 3201 
Q 5691 2819 5691 2113 
L 5691 0 
L 5113 0 
L 5113 2094 
Q 5113 2597 4934 2840 
Q 4756 3084 4391 3084 
Q 3944 3084 3684 2787 
Q 3425 2491 3425 1978 
L 3425 0 
L 2847 0 
L 2847 2094 
Q 2847 2600 2669 2842 
Q 2491 3084 2119 3084 
Q 1678 3084 1418 2786 
Q 1159 2488 1159 1978 
L 1159 0 
L 581 0 
L 581 3500 
L 1159 3500 
L 1159 2956 
Q 1356 3278 1631 3431 
Q 1906 3584 2284 3584 
Q 2666 3584 2933 3390 
Q 3200 3197 3328 2828 
z
" transform="scale(0.015625)"/>
      </defs>
      <use xlink:href="#DejaVuSans-61"/>
      <use xlink:href="#DejaVuSans-63" x="61.279297"/>
      <use xlink:href="#DejaVuSans-68" x="116.259766"/>
      <use xlink:href="#DejaVuSans-72" x="179.638672"/>
      <use xlink:href="#DejaVuSans-6f" x="218.501953"/>
      <use xlink:href="#DejaVuSans-6d" x="279.683594"/>
      <use xlink:href="#DejaVuSans-61" x="377.095703"/>
      <use xlink:href="#DejaVuSans-74" x="438.375"/>
      <use xlink:href="#DejaVuSans-69" x="477.583984"/>
      <use xlink:href="#DejaVuSans-63" x="505.367188"/>
      <use xlink:href="#DejaVuSans-5f" x="560.347656"/>
      <use xlink:href="#DejaVuSans-73" x="610.347656"/>
      <use xlink:href="#DejaVuSans-68" x="662.447266"/>
      <use xlink:href="#DejaVuSans-61" x="725.826172"/>
      <use xlink:href="#DejaVuSans-70" x="787.105469"/>
      <use xlink:href="#DejaVuSans-65" x="850.582031"/>
      <use xlink:href="#DejaVuSans-5f" x="912.105469"/>
      <use xlink:href="#DejaVuSans-74" x="962.105469"/>
      <use xlink:href="#DejaVuSans-6f" x="1001.314453"/>
      <use xlink:href="#DejaVuSans-5f" x="1062.496094"/>
      <use xlink:href="#DejaVuSans-73" x="1112.496094"/>
      <use xlink:href="#DejaVuSans-68" x="1164.595703"/>
      <use xlink:href="#DejaVuSans-61" x="1227.974609"/>
      <use xlink:href="#DejaVuSans-70" x="1289.253906"/>
      <use xlink:href="#DejaVuSans-65" x="1352.730469"/>
     </g>
    </g>
   </g>
  </g>
 </g>
 <defs>
  <clipPath id="p524e495621">
   <rect x="92.16" y="69.12" width="276.48" height="207.36"/>
  </clipPath>
 </defs>
</svg>
