<?xml version="1.0" encoding="utf-8" standalone="no"?>
<!DOCTYPE svg PUBLIC "-//W3C//DTD SVG 1.1//EN"
  "http://www.w3.org/Graphics/SVG/1.1/DTD/svg11.dtd">
<svg xmlns:xlink="http://www.w3.org/1999/xlink" width="460.8pt" height="345.6pt" viewBox="0 0 460.8 345.6" xmlns="http://www.w3.org/2000/svg" version="1.1">
 <metadata>
  <rdf:RDF xmlns:dc="http://purl.org/dc/elements/1.1/" xmlns:cc="http://creativecommons.org/ns#" xmlns:rdf="http://www.w3.org/1999/02/22-rdf-syntax-ns#">
   <cc:Work>
    <dc:type rdf:resource="http://purl.org/dc/dcmitype/StillImage"/>
    <dc:date>2023-07-31T16:50:05.444590</dc:date>
    <dc:format>image/svg+xml</dc:format>
    <dc:creator>
     <cc:Agent>
      <dc:title>Matplotlib v3.7.2, https://matplotlib.org/</dc:title>
     </cc:Agent>
    </dc:creator>
   </cc:Work>
  </rdf:RDF>
 </metadata>
 <defs>
  <style type="text/css">*{stroke-linejoin: round; stroke-linecap: butt}</style>
 </defs>
 <g id="figure_1">
  <g id="patch_1">
   <path d="M 0 345.6 
L 460.8 345.6 
L 460.8 0 
L 0 0 
z
" style="fill: #ffffff"/>
  </g>
  <g id="axes_1">
   <g id="patch_2">
    <path d="M 92.16 276.48 
L 368.64 276.48 
L 368.64 69.12 
L 92.16 69.12 
z
" style="fill: #ffffff"/>
   </g>
   <g id="matplotlib.axis_1">
    <g id="xtick_1">
     <g id="line2d_1">
      <defs>
       <path id="mc0e4f6a9c3" d="M 0 0 
L 0 3.5 
" style="stroke: #000000; stroke-width: 0.8"/>
      </defs>
      <g>
       <use xlink:href="#mc0e4f6a9c3" x="104.727273" y="276.48" style="stroke: #000000; stroke-width: 0.8"/>
      </g>
     </g>
     <g id="text_1">
      <!-- 0 -->
      <g transform="translate(101.546023 291.078437) scale(0.1 -0.1)">
       <defs>
        <path id="DejaVuSans-30" d="M 2034 4250 
Q 1547 4250 1301 3770 
Q 1056 3291 1056 2328 
Q 1056 1369 1301 889 
Q 1547 409 2034 409 
Q 2525 409 2770 889 
Q 3016 1369 3016 2328 
Q 3016 3291 2770 3770 
Q 2525 4250 2034 4250 
z
M 2034 4750 
Q 2819 4750 3233 4129 
Q 3647 3509 3647 2328 
Q 3647 1150 3233 529 
Q 2819 -91 2034 -91 
Q 1250 -91 836 529 
Q 422 1150 422 2328 
Q 422 3509 836 4129 
Q 1250 4750 2034 4750 
z
" transform="scale(0.015625)"/>
       </defs>
       <use xlink:href="#DejaVuSans-30"/>
      </g>
     </g>
    </g>
    <g id="xtick_2">
     <g id="line2d_2">
      <g>
       <use xlink:href="#mc0e4f6a9c3" x="136.664433" y="276.48" style="stroke: #000000; stroke-width: 0.8"/>
      </g>
     </g>
     <g id="text_2">
      <!-- 200 -->
      <g transform="translate(127.120683 291.078437) scale(0.1 -0.1)">
       <defs>
        <path id="DejaVuSans-32" d="M 1228 531 
L 3431 531 
L 3431 0 
L 469 0 
L 469 531 
Q 828 903 1448 1529 
Q 2069 2156 2228 2338 
Q 2531 2678 2651 2914 
Q 2772 3150 2772 3378 
Q 2772 3750 2511 3984 
Q 2250 4219 1831 4219 
Q 1534 4219 1204 4116 
Q 875 4013 500 3803 
L 500 4441 
Q 881 4594 1212 4672 
Q 1544 4750 1819 4750 
Q 2544 4750 2975 4387 
Q 3406 4025 3406 3419 
Q 3406 3131 3298 2873 
Q 3191 2616 2906 2266 
Q 2828 2175 2409 1742 
Q 1991 1309 1228 531 
z
" transform="scale(0.015625)"/>
       </defs>
       <use xlink:href="#DejaVuSans-32"/>
       <use xlink:href="#DejaVuSans-30" x="63.623047"/>
       <use xlink:href="#DejaVuSans-30" x="127.246094"/>
      </g>
     </g>
    </g>
    <g id="xtick_3">
     <g id="line2d_3">
      <g>
       <use xlink:href="#mc0e4f6a9c3" x="168.601594" y="276.48" style="stroke: #000000; stroke-width: 0.8"/>
      </g>
     </g>
     <g id="text_3">
      <!-- 400 -->
      <g transform="translate(159.057844 291.078437) scale(0.1 -0.1)">
       <defs>
        <path id="DejaVuSans-34" d="M 2419 4116 
L 825 1625 
L 2419 1625 
L 2419 4116 
z
M 2253 4666 
L 3047 4666 
L 3047 1625 
L 3713 1625 
L 3713 1100 
L 3047 1100 
L 3047 0 
L 2419 0 
L 2419 1100 
L 313 1100 
L 313 1709 
L 2253 4666 
z
" transform="scale(0.015625)"/>
       </defs>
       <use xlink:href="#DejaVuSans-34"/>
       <use xlink:href="#DejaVuSans-30" x="63.623047"/>
       <use xlink:href="#DejaVuSans-30" x="127.246094"/>
      </g>
     </g>
    </g>
    <g id="xtick_4">
     <g id="line2d_4">
      <g>
       <use xlink:href="#mc0e4f6a9c3" x="200.538755" y="276.48" style="stroke: #000000; stroke-width: 0.8"/>
      </g>
     </g>
     <g id="text_4">
      <!-- 600 -->
      <g transform="translate(190.995005 291.078437) scale(0.1 -0.1)">
       <defs>
        <path id="DejaVuSans-36" d="M 2113 2584 
Q 1688 2584 1439 2293 
Q 1191 2003 1191 1497 
Q 1191 994 1439 701 
Q 1688 409 2113 409 
Q 2538 409 2786 701 
Q 3034 994 3034 1497 
Q 3034 2003 2786 2293 
Q 2538 2584 2113 2584 
z
M 3366 4563 
L 3366 3988 
Q 3128 4100 2886 4159 
Q 2644 4219 2406 4219 
Q 1781 4219 1451 3797 
Q 1122 3375 1075 2522 
Q 1259 2794 1537 2939 
Q 1816 3084 2150 3084 
Q 2853 3084 3261 2657 
Q 3669 2231 3669 1497 
Q 3669 778 3244 343 
Q 2819 -91 2113 -91 
Q 1303 -91 875 529 
Q 447 1150 447 2328 
Q 447 3434 972 4092 
Q 1497 4750 2381 4750 
Q 2619 4750 2861 4703 
Q 3103 4656 3366 4563 
z
" transform="scale(0.015625)"/>
       </defs>
       <use xlink:href="#DejaVuSans-36"/>
       <use xlink:href="#DejaVuSans-30" x="63.623047"/>
       <use xlink:href="#DejaVuSans-30" x="127.246094"/>
      </g>
     </g>
    </g>
    <g id="xtick_5">
     <g id="line2d_5">
      <g>
       <use xlink:href="#mc0e4f6a9c3" x="232.475915" y="276.48" style="stroke: #000000; stroke-width: 0.8"/>
      </g>
     </g>
     <g id="text_5">
      <!-- 800 -->
      <g transform="translate(222.932165 291.078437) scale(0.1 -0.1)">
       <defs>
        <path id="DejaVuSans-38" d="M 2034 2216 
Q 1584 2216 1326 1975 
Q 1069 1734 1069 1313 
Q 1069 891 1326 650 
Q 1584 409 2034 409 
Q 2484 409 2743 651 
Q 3003 894 3003 1313 
Q 3003 1734 2745 1975 
Q 2488 2216 2034 2216 
z
M 1403 2484 
Q 997 2584 770 2862 
Q 544 3141 544 3541 
Q 544 4100 942 4425 
Q 1341 4750 2034 4750 
Q 2731 4750 3128 4425 
Q 3525 4100 3525 3541 
Q 3525 3141 3298 2862 
Q 3072 2584 2669 2484 
Q 3125 2378 3379 2068 
Q 3634 1759 3634 1313 
Q 3634 634 3220 271 
Q 2806 -91 2034 -91 
Q 1263 -91 848 271 
Q 434 634 434 1313 
Q 434 1759 690 2068 
Q 947 2378 1403 2484 
z
M 1172 3481 
Q 1172 3119 1398 2916 
Q 1625 2713 2034 2713 
Q 2441 2713 2670 2916 
Q 2900 3119 2900 3481 
Q 2900 3844 2670 4047 
Q 2441 4250 2034 4250 
Q 1625 4250 1398 4047 
Q 1172 3844 1172 3481 
z
" transform="scale(0.015625)"/>
       </defs>
       <use xlink:href="#DejaVuSans-38"/>
       <use xlink:href="#DejaVuSans-30" x="63.623047"/>
       <use xlink:href="#DejaVuSans-30" x="127.246094"/>
      </g>
     </g>
    </g>
    <g id="xtick_6">
     <g id="line2d_6">
      <g>
       <use xlink:href="#mc0e4f6a9c3" x="264.413076" y="276.48" style="stroke: #000000; stroke-width: 0.8"/>
      </g>
     </g>
     <g id="text_6">
      <!-- 1000 -->
      <g transform="translate(251.688076 291.078437) scale(0.1 -0.1)">
       <defs>
        <path id="DejaVuSans-31" d="M 794 531 
L 1825 531 
L 1825 4091 
L 703 3866 
L 703 4441 
L 1819 4666 
L 2450 4666 
L 2450 531 
L 3481 531 
L 3481 0 
L 794 0 
L 794 531 
z
" transform="scale(0.015625)"/>
       </defs>
       <use xlink:href="#DejaVuSans-31"/>
       <use xlink:href="#DejaVuSans-30" x="63.623047"/>
       <use xlink:href="#DejaVuSans-30" x="127.246094"/>
       <use xlink:href="#DejaVuSans-30" x="190.869141"/>
      </g>
     </g>
    </g>
    <g id="xtick_7">
     <g id="line2d_7">
      <g>
       <use xlink:href="#mc0e4f6a9c3" x="296.350237" y="276.48" style="stroke: #000000; stroke-width: 0.8"/>
      </g>
     </g>
     <g id="text_7">
      <!-- 1200 -->
      <g transform="translate(283.625237 291.078437) scale(0.1 -0.1)">
       <use xlink:href="#DejaVuSans-31"/>
       <use xlink:href="#DejaVuSans-32" x="63.623047"/>
       <use xlink:href="#DejaVuSans-30" x="127.246094"/>
       <use xlink:href="#DejaVuSans-30" x="190.869141"/>
      </g>
     </g>
    </g>
    <g id="xtick_8">
     <g id="line2d_8">
      <g>
       <use xlink:href="#mc0e4f6a9c3" x="328.287397" y="276.48" style="stroke: #000000; stroke-width: 0.8"/>
      </g>
     </g>
     <g id="text_8">
      <!-- 1400 -->
      <g transform="translate(315.562397 291.078437) scale(0.1 -0.1)">
       <use xlink:href="#DejaVuSans-31"/>
       <use xlink:href="#DejaVuSans-34" x="63.623047"/>
       <use xlink:href="#DejaVuSans-30" x="127.246094"/>
       <use xlink:href="#DejaVuSans-30" x="190.869141"/>
      </g>
     </g>
    </g>
    <g id="xtick_9">
     <g id="line2d_9">
      <g>
       <use xlink:href="#mc0e4f6a9c3" x="360.224558" y="276.48" style="stroke: #000000; stroke-width: 0.8"/>
      </g>
     </g>
     <g id="text_9">
      <!-- 1600 -->
      <g transform="translate(347.499558 291.078437) scale(0.1 -0.1)">
       <use xlink:href="#DejaVuSans-31"/>
       <use xlink:href="#DejaVuSans-36" x="63.623047"/>
       <use xlink:href="#DejaVuSans-30" x="127.246094"/>
       <use xlink:href="#DejaVuSans-30" x="190.869141"/>
      </g>
     </g>
    </g>
   </g>
   <g id="matplotlib.axis_2">
    <g id="ytick_1">
     <g id="line2d_10">
      <defs>
       <path id="mb703956da7" d="M 0 0 
L -3.5 0 
" style="stroke: #000000; stroke-width: 0.8"/>
      </defs>
      <g>
       <use xlink:href="#mb703956da7" x="92.16" y="263.358289" style="stroke: #000000; stroke-width: 0.8"/>
      </g>
     </g>
     <g id="text_10">
      <!-- 0.5 -->
      <g transform="translate(69.256875 267.157508) scale(0.1 -0.1)">
       <defs>
        <path id="DejaVuSans-2e" d="M 684 794 
L 1344 794 
L 1344 0 
L 684 0 
L 684 794 
z
" transform="scale(0.015625)"/>
        <path id="DejaVuSans-35" d="M 691 4666 
L 3169 4666 
L 3169 4134 
L 1269 4134 
L 1269 2991 
Q 1406 3038 1543 3061 
Q 1681 3084 1819 3084 
Q 2600 3084 3056 2656 
Q 3513 2228 3513 1497 
Q 3513 744 3044 326 
Q 2575 -91 1722 -91 
Q 1428 -91 1123 -41 
Q 819 9 494 109 
L 494 744 
Q 775 591 1075 516 
Q 1375 441 1709 441 
Q 2250 441 2565 725 
Q 2881 1009 2881 1497 
Q 2881 1984 2565 2268 
Q 2250 2553 1709 2553 
Q 1456 2553 1204 2497 
Q 953 2441 691 2322 
L 691 4666 
z
" transform="scale(0.015625)"/>
       </defs>
       <use xlink:href="#DejaVuSans-30"/>
       <use xlink:href="#DejaVuSans-2e" x="63.623047"/>
       <use xlink:href="#DejaVuSans-35" x="95.410156"/>
      </g>
     </g>
    </g>
    <g id="ytick_2">
     <g id="line2d_11">
      <g>
       <use xlink:href="#mb703956da7" x="92.16" y="226.395722" style="stroke: #000000; stroke-width: 0.8"/>
      </g>
     </g>
     <g id="text_11">
      <!-- 0.6 -->
      <g transform="translate(69.256875 230.194941) scale(0.1 -0.1)">
       <use xlink:href="#DejaVuSans-30"/>
       <use xlink:href="#DejaVuSans-2e" x="63.623047"/>
       <use xlink:href="#DejaVuSans-36" x="95.410156"/>
      </g>
     </g>
    </g>
    <g id="ytick_3">
     <g id="line2d_12">
      <g>
       <use xlink:href="#mb703956da7" x="92.16" y="189.433155" style="stroke: #000000; stroke-width: 0.8"/>
      </g>
     </g>
     <g id="text_12">
      <!-- 0.7 -->
      <g transform="translate(69.256875 193.232374) scale(0.1 -0.1)">
       <defs>
        <path id="DejaVuSans-37" d="M 525 4666 
L 3525 4666 
L 3525 4397 
L 1831 0 
L 1172 0 
L 2766 4134 
L 525 4134 
L 525 4666 
z
" transform="scale(0.015625)"/>
       </defs>
       <use xlink:href="#DejaVuSans-30"/>
       <use xlink:href="#DejaVuSans-2e" x="63.623047"/>
       <use xlink:href="#DejaVuSans-37" x="95.410156"/>
      </g>
     </g>
    </g>
    <g id="ytick_4">
     <g id="line2d_13">
      <g>
       <use xlink:href="#mb703956da7" x="92.16" y="152.470588" style="stroke: #000000; stroke-width: 0.8"/>
      </g>
     </g>
     <g id="text_13">
      <!-- 0.8 -->
      <g transform="translate(69.256875 156.269807) scale(0.1 -0.1)">
       <use xlink:href="#DejaVuSans-30"/>
       <use xlink:href="#DejaVuSans-2e" x="63.623047"/>
       <use xlink:href="#DejaVuSans-38" x="95.410156"/>
      </g>
     </g>
    </g>
    <g id="ytick_5">
     <g id="line2d_14">
      <g>
       <use xlink:href="#mb703956da7" x="92.16" y="115.508021" style="stroke: #000000; stroke-width: 0.8"/>
      </g>
     </g>
     <g id="text_14">
      <!-- 0.9 -->
      <g transform="translate(69.256875 119.30724) scale(0.1 -0.1)">
       <defs>
        <path id="DejaVuSans-39" d="M 703 97 
L 703 672 
Q 941 559 1184 500 
Q 1428 441 1663 441 
Q 2288 441 2617 861 
Q 2947 1281 2994 2138 
Q 2813 1869 2534 1725 
Q 2256 1581 1919 1581 
Q 1219 1581 811 2004 
Q 403 2428 403 3163 
Q 403 3881 828 4315 
Q 1253 4750 1959 4750 
Q 2769 4750 3195 4129 
Q 3622 3509 3622 2328 
Q 3622 1225 3098 567 
Q 2575 -91 1691 -91 
Q 1453 -91 1209 -44 
Q 966 3 703 97 
z
M 1959 2075 
Q 2384 2075 2632 2365 
Q 2881 2656 2881 3163 
Q 2881 3666 2632 3958 
Q 2384 4250 1959 4250 
Q 1534 4250 1286 3958 
Q 1038 3666 1038 3163 
Q 1038 2656 1286 2365 
Q 1534 2075 1959 2075 
z
" transform="scale(0.015625)"/>
       </defs>
       <use xlink:href="#DejaVuSans-30"/>
       <use xlink:href="#DejaVuSans-2e" x="63.623047"/>
       <use xlink:href="#DejaVuSans-39" x="95.410156"/>
      </g>
     </g>
    </g>
    <g id="ytick_6">
     <g id="line2d_15">
      <g>
       <use xlink:href="#mb703956da7" x="92.16" y="78.545455" style="stroke: #000000; stroke-width: 0.8"/>
      </g>
     </g>
     <g id="text_15">
      <!-- 1.0 -->
      <g transform="translate(69.256875 82.344673) scale(0.1 -0.1)">
       <use xlink:href="#DejaVuSans-31"/>
       <use xlink:href="#DejaVuSans-2e" x="63.623047"/>
       <use xlink:href="#DejaVuSans-30" x="95.410156"/>
      </g>
     </g>
    </g>
   </g>
   <g id="line2d_16">
    <path d="M 104.727273 126.596791 
L 105.366016 126.596791 
L 105.525702 124.748663 
L 105.685388 124.748663 
L 105.845073 126.596791 
L 106.962874 126.596791 
L 107.282246 122.900535 
L 108.24036 122.900535 
L 108.400046 121.052406 
L 108.879104 121.052406 
L 109.038789 122.900535 
L 109.517847 122.900535 
L 109.677533 121.052406 
L 110.316276 121.052406 
L 110.475962 122.900535 
L 111.114705 122.900535 
L 111.274391 124.748663 
L 115.905279 124.748663 
L 116.224651 121.052406 
L 118.14088 121.052406 
L 118.300566 119.204278 
L 118.460252 119.204278 
L 118.619938 117.35615 
L 118.939309 117.35615 
L 119.098995 119.204278 
L 119.737738 119.204278 
L 119.897424 117.35615 
L 120.05711 117.35615 
L 120.216796 115.508021 
L 121.17491 115.508021 
L 121.334596 113.659893 
L 121.494282 115.508021 
L 121.653968 113.659893 
L 122.771769 113.659893 
L 122.931454 111.811765 
L 123.09114 111.811765 
L 123.250826 109.963636 
L 125.167056 109.963636 
L 125.486427 106.26738 
L 127.402657 106.26738 
L 127.562343 108.115508 
L 131.714174 108.115508 
L 131.873859 106.26738 
L 132.033545 108.115508 
L 132.512603 108.115508 
L 132.672288 109.963636 
L 132.99166 109.963636 
L 133.151346 108.115508 
L 133.470717 108.115508 
L 133.630403 109.963636 
L 133.790089 109.963636 
L 133.949775 108.115508 
L 134.269146 108.115508 
L 134.428832 106.26738 
L 134.748204 106.26738 
L 134.90789 108.115508 
L 135.866004 108.115508 
L 136.02569 106.26738 
L 137.622548 106.26738 
L 137.782234 104.419251 
L 139.219406 104.419251 
L 139.379092 106.26738 
L 139.538778 104.419251 
L 140.816264 104.419251 
L 140.97595 102.571123 
L 142.253437 102.571123 
L 142.413122 100.722995 
L 143.051866 100.722995 
L 143.211551 98.874866 
L 144.648724 98.874866 
L 144.808409 100.722995 
L 144.968095 100.722995 
L 145.127781 98.874866 
L 145.766524 98.874866 
L 145.92621 100.722995 
L 148.96024 100.722995 
L 149.119926 102.571123 
L 149.598983 102.571123 
L 149.758669 104.419251 
L 150.078041 104.419251 
L 150.237727 106.26738 
L 150.87647 106.26738 
L 151.036156 104.419251 
L 151.355527 104.419251 
L 151.515213 106.26738 
L 153.271757 106.26738 
L 153.431443 104.419251 
L 154.549243 104.419251 
L 154.708929 106.26738 
L 159.339817 106.26738 
L 159.499503 104.419251 
L 160.138247 104.419251 
L 160.297932 102.571123 
L 163.81102 102.571123 
L 163.970706 100.722995 
L 164.449763 100.722995 
L 164.609449 98.874866 
L 165.248192 98.874866 
L 165.407878 100.722995 
L 165.567564 98.874866 
L 166.046621 98.874866 
L 166.206307 97.026738 
L 166.685364 97.026738 
L 166.84505 95.17861 
L 170.358138 95.17861 
L 170.517824 97.026738 
L 171.156567 97.026738 
L 171.316253 95.17861 
L 171.79531 95.17861 
L 171.954996 97.026738 
L 172.274368 97.026738 
L 172.434053 98.874866 
L 175.148712 98.874866 
L 175.308398 100.722995 
L 176.585884 100.722995 
L 176.74557 98.874866 
L 177.703685 98.874866 
L 177.863371 97.026738 
L 180.737715 97.026738 
L 180.897401 98.874866 
L 181.057087 97.026738 
L 181.536144 97.026738 
L 181.69583 95.17861 
L 182.015202 95.17861 
L 182.174887 93.330481 
L 183.292688 93.330481 
L 183.452374 91.482353 
L 184.570174 91.482353 
L 184.72986 93.330481 
L 186.007347 93.330481 
L 186.167032 95.17861 
L 186.486404 95.17861 
L 186.64609 93.330481 
L 187.923576 93.330481 
L 188.083262 95.17861 
L 188.402634 95.17861 
L 188.56232 97.026738 
L 188.881691 97.026738 
L 189.041377 98.874866 
L 190.159178 98.874866 
L 190.318863 100.722995 
L 190.957607 100.722995 
L 191.276978 104.419251 
L 193.831951 104.419251 
L 193.991637 106.26738 
L 197.185353 106.26738 
L 197.345039 104.419251 
L 197.504725 104.419251 
L 197.66441 106.26738 
L 202.295299 106.26738 
L 202.454984 104.419251 
L 203.732471 104.419251 
L 203.892157 102.571123 
L 204.211528 102.571123 
L 204.371214 100.722995 
L 204.5309 102.571123 
L 207.085873 102.571123 
L 207.245559 100.722995 
L 208.203673 100.722995 
L 208.363359 102.571123 
L 209.161788 102.571123 
L 209.321474 104.419251 
L 212.674876 104.419251 
L 212.834562 102.571123 
L 216.507335 102.571123 
L 216.667021 100.722995 
L 217.944507 100.722995 
L 218.104193 98.874866 
L 219.860737 98.874866 
L 220.020423 97.026738 
L 220.339794 97.026738 
L 220.49948 95.17861 
L 220.818852 95.17861 
L 220.978538 93.330481 
L 222.096338 93.330481 
L 222.256024 91.482353 
L 222.894767 91.482353 
L 223.214139 87.786096 
L 225.769112 87.786096 
L 225.928798 85.937968 
L 229.441885 85.937968 
L 229.601571 84.08984 
L 230.719372 84.08984 
L 230.879057 85.937968 
L 233.913088 85.937968 
L 234.072773 87.786096 
L 236.308375 87.786096 
L 236.468061 85.937968 
L 236.627746 85.937968 
L 236.787432 87.786096 
L 239.342405 87.786096 
L 239.502091 89.634225 
L 240.140834 89.634225 
L 240.30052 87.786096 
L 241.098949 87.786096 
L 241.258635 85.937968 
L 241.737692 85.937968 
L 241.897378 87.786096 
L 242.536121 87.786096 
L 242.695807 89.634225 
L 245.25078 89.634225 
L 245.410466 91.482353 
L 265.371191 91.482353 
L 265.530877 93.330481 
L 265.850248 93.330481 
L 266.009934 91.482353 
L 266.968049 91.482353 
L 267.127735 93.330481 
L 267.287421 93.330481 
L 267.606792 97.026738 
L 268.564907 97.026738 
L 268.724593 95.17861 
L 271.279566 95.17861 
L 271.439251 93.330481 
L 273.674853 93.330481 
L 273.834539 91.482353 
L 274.473282 91.482353 
L 274.632968 89.634225 
L 277.18794 89.634225 
L 277.347626 87.786096 
L 277.826684 87.786096 
L 277.986369 89.634225 
L 279.10417 89.634225 
L 279.263856 91.482353 
L 280.860714 91.482353 
L 281.0204 93.330481 
L 281.499457 93.330481 
L 281.659143 95.17861 
L 282.1382 95.17861 
L 282.457572 98.874866 
L 282.936629 98.874866 
L 283.096315 100.722995 
L 283.575373 100.722995 
L 283.735058 102.571123 
L 285.331916 102.571123 
L 285.491602 104.419251 
L 286.609403 104.419251 
L 286.769089 106.26738 
L 294.593693 106.26738 
L 294.753379 104.419251 
L 296.98898 104.419251 
L 297.308352 108.115508 
L 297.468037 106.26738 
L 297.627723 108.115508 
L 298.106781 108.115508 
L 298.106781 108.115508 
" clip-path="url(#p386771392e)" style="fill: none; stroke: #1f77b4; stroke-width: 1.5; stroke-linecap: square"/>
   </g>
   <g id="line2d_17">
    <path d="M 104.727273 78.545455 
L 302.418297 78.545455 
L 302.418297 78.545455 
" clip-path="url(#p386771392e)" style="fill: none; stroke: #ff7f0e; stroke-width: 1.5; stroke-linecap: square"/>
   </g>
   <g id="line2d_18">
    <path d="M 104.727273 126.596791 
L 105.20633 126.596791 
L 105.366016 124.748663 
L 105.525702 126.596791 
L 108.24036 126.596791 
L 108.400046 128.44492 
L 109.038789 128.44492 
L 109.198475 126.596791 
L 109.837218 126.596791 
L 110.15659 122.900535 
L 110.955019 122.900535 
L 111.274391 119.204278 
L 111.434076 119.204278 
L 111.593762 121.052406 
L 112.232505 121.052406 
L 112.392191 119.204278 
L 112.551877 119.204278 
L 112.711563 117.35615 
L 112.871249 119.204278 
L 113.030935 119.204278 
L 113.19062 117.35615 
L 113.509992 117.35615 
L 113.669678 119.204278 
L 113.829364 117.35615 
L 114.947164 117.35615 
L 115.10685 115.508021 
L 116.703708 115.508021 
L 116.863394 113.659893 
L 118.939309 113.659893 
L 119.098995 115.508021 
L 119.418367 115.508021 
L 119.737738 119.204278 
L 119.897424 119.204278 
L 120.05711 121.052406 
L 121.494282 121.052406 
L 121.653968 122.900535 
L 122.133025 122.900535 
L 122.292711 124.748663 
L 122.771769 124.748663 
L 122.931454 126.596791 
L 125.486427 126.596791 
L 125.646113 128.44492 
L 126.284856 128.44492 
L 126.444542 126.596791 
L 127.242971 126.596791 
L 127.402657 128.44492 
L 127.562343 128.44492 
L 127.722028 126.596791 
L 128.201086 126.596791 
L 128.360772 124.748663 
L 128.680143 124.748663 
L 128.839829 122.900535 
L 128.999515 122.900535 
L 129.159201 121.052406 
L 130.117315 121.052406 
L 130.436687 117.35615 
L 130.596373 117.35615 
L 130.756059 115.508021 
L 131.235116 115.508021 
L 131.554488 111.811765 
L 131.873859 111.811765 
L 132.033545 113.659893 
L 132.193231 113.659893 
L 132.352917 111.811765 
L 132.672288 111.811765 
L 132.831974 113.659893 
L 133.151346 113.659893 
L 133.311032 115.508021 
L 133.630403 115.508021 
L 133.949775 119.204278 
L 135.546633 119.204278 
L 135.706319 121.052406 
L 136.02569 121.052406 
L 136.185376 119.204278 
L 137.622548 119.204278 
L 137.782234 121.052406 
L 138.740349 121.052406 
L 138.900035 122.900535 
L 140.177521 122.900535 
L 140.337207 121.052406 
L 142.253437 121.052406 
L 142.413122 122.900535 
L 142.572808 122.900535 
L 142.732494 121.052406 
L 145.447153 121.052406 
L 145.606838 119.204278 
L 145.766524 119.204278 
L 145.92621 121.052406 
L 149.439298 121.052406 
L 149.598983 122.900535 
L 149.758669 122.900535 
L 149.918355 124.748663 
L 150.078041 124.748663 
L 150.237727 126.596791 
L 150.87647 126.596791 
L 151.036156 124.748663 
L 151.355527 124.748663 
L 151.674899 121.052406 
L 151.834585 121.052406 
L 151.994271 119.204278 
L 152.7927 119.204278 
L 152.952385 121.052406 
L 153.271757 121.052406 
L 153.431443 122.900535 
L 153.591129 121.052406 
L 154.070186 121.052406 
L 154.229872 119.204278 
L 154.708929 119.204278 
L 154.868615 117.35615 
L 156.465473 117.35615 
L 156.625159 115.508021 
L 156.784845 115.508021 
L 156.94453 117.35615 
L 159.180132 117.35615 
L 159.339817 115.508021 
L 160.297932 115.508021 
L 160.457618 117.35615 
L 163.81102 117.35615 
L 163.970706 115.508021 
L 164.609449 115.508021 
L 164.769135 113.659893 
L 165.088506 113.659893 
L 165.248192 111.811765 
L 165.567564 111.811765 
L 165.886935 108.115508 
L 167.483793 108.115508 
L 167.643479 106.26738 
L 169.240337 106.26738 
L 169.400023 104.419251 
L 170.038766 104.419251 
L 170.198452 106.26738 
L 170.67751 106.26738 
L 170.837195 104.419251 
L 174.190597 104.419251 
L 174.350283 102.571123 
L 175.308398 102.571123 
L 175.468084 100.722995 
L 176.585884 100.722995 
L 176.74557 98.874866 
L 177.064942 98.874866 
L 177.224627 100.722995 
L 177.703685 100.722995 
L 177.863371 98.874866 
L 178.821486 98.874866 
L 178.981171 100.722995 
L 179.939286 100.722995 
L 180.098972 102.571123 
L 181.376458 102.571123 
L 181.536144 100.722995 
L 181.69583 100.722995 
L 181.855516 98.874866 
L 182.015202 98.874866 
L 182.174887 97.026738 
L 185.208918 97.026738 
L 185.368603 95.17861 
L 189.041377 95.17861 
L 189.201063 97.026738 
L 189.360749 97.026738 
L 189.520434 95.17861 
L 190.318863 95.17861 
L 190.478549 97.026738 
L 190.957607 97.026738 
L 191.117292 98.874866 
L 192.235093 98.874866 
L 192.394779 97.026738 
L 193.831951 97.026738 
L 193.991637 98.874866 
L 196.706295 98.874866 
L 196.865981 100.722995 
L 200.538755 100.722995 
L 200.698441 102.571123 
L 201.49687 102.571123 
L 201.656555 100.722995 
L 201.975927 100.722995 
L 202.135613 98.874866 
L 202.774356 98.874866 
L 202.934042 100.722995 
L 203.413099 100.722995 
L 203.572785 102.571123 
L 207.245559 102.571123 
L 207.405244 104.419251 
L 209.002102 104.419251 
L 209.161788 102.571123 
L 209.640846 102.571123 
L 209.800531 104.419251 
L 210.758646 104.419251 
L 210.918332 102.571123 
L 211.876447 102.571123 
L 212.036133 100.722995 
L 214.591105 100.722995 
L 214.750791 102.571123 
L 216.667021 102.571123 
L 216.826707 100.722995 
L 220.659166 100.722995 
L 220.818852 98.874866 
L 220.978538 98.874866 
L 221.138223 97.026738 
L 221.457595 97.026738 
L 221.617281 98.874866 
L 222.256024 98.874866 
L 222.41571 97.026738 
L 222.894767 97.026738 
L 223.054453 95.17861 
L 225.44974 95.17861 
L 225.609426 97.026738 
L 225.769112 97.026738 
L 225.928798 95.17861 
L 227.046598 95.17861 
L 227.206284 97.026738 
L 227.685341 97.026738 
L 227.845027 98.874866 
L 228.643456 98.874866 
L 228.803142 97.026738 
L 231.677486 97.026738 
L 231.837172 98.874866 
L 232.475915 98.874866 
L 232.635601 97.026738 
L 234.711517 97.026738 
L 234.871202 95.17861 
L 235.35026 95.17861 
L 235.509946 93.330481 
L 236.627746 93.330481 
L 236.787432 95.17861 
L 239.182719 95.17861 
L 239.342405 93.330481 
L 239.981148 93.330481 
L 240.140834 95.17861 
L 241.098949 95.17861 
L 241.41832 98.874866 
L 241.578006 98.874866 
L 241.737692 97.026738 
L 244.771722 97.026738 
L 245.091094 100.722995 
L 246.528266 100.722995 
L 246.687952 98.874866 
L 247.007324 98.874866 
L 247.167009 100.722995 
L 250.041354 100.722995 
L 250.20104 102.571123 
L 251.797898 102.571123 
L 251.957583 104.419251 
L 252.276955 104.419251 
L 252.436641 106.26738 
L 253.394756 106.26738 
L 253.554441 104.419251 
L 254.352871 104.419251 
L 254.512556 106.26738 
L 257.386901 106.26738 
L 257.546587 104.419251 
L 258.983759 104.419251 
L 259.143445 102.571123 
L 259.622502 102.571123 
L 259.782188 100.722995 
L 260.101559 100.722995 
L 260.261245 102.571123 
L 263.614647 102.571123 
L 263.774333 100.722995 
L 266.968049 100.722995 
L 267.127735 102.571123 
L 268.564907 102.571123 
L 268.724593 100.722995 
L 270.640822 100.722995 
L 270.800508 102.571123 
L 271.918309 102.571123 
L 272.077995 100.722995 
L 273.03611 100.722995 
L 273.355481 97.026738 
L 274.632968 97.026738 
L 274.792653 98.874866 
L 274.952339 98.874866 
L 275.112025 100.722995 
L 276.708883 100.722995 
L 277.028255 97.026738 
L 277.18794 97.026738 
L 277.347626 98.874866 
L 277.666998 98.874866 
L 277.826684 100.722995 
L 277.986369 100.722995 
L 278.146055 102.571123 
L 278.944484 102.571123 
L 279.10417 100.722995 
L 281.978514 100.722995 
L 282.1382 98.874866 
L 283.575373 98.874866 
L 283.735058 100.722995 
L 283.894744 98.874866 
L 284.05443 100.722995 
L 284.214116 100.722995 
L 284.373802 98.874866 
L 284.533487 100.722995 
L 286.290031 100.722995 
L 286.449717 98.874866 
L 286.609403 98.874866 
L 286.769089 100.722995 
L 286.928774 100.722995 
L 287.08846 102.571123 
L 290.920919 102.571123 
L 291.080605 104.419251 
L 292.03872 104.419251 
L 292.198406 102.571123 
L 294.593693 102.571123 
L 294.753379 104.419251 
L 296.669608 104.419251 
L 296.669608 104.419251 
" clip-path="url(#p386771392e)" style="fill: none; stroke: #2ca02c; stroke-width: 1.5; stroke-linecap: square"/>
   </g>
   <g id="line2d_19">
    <path d="M 104.727273 78.545455 
L 292.517778 78.545455 
L 292.517778 78.545455 
" clip-path="url(#p386771392e)" style="fill: none; stroke: #d62728; stroke-width: 1.5; stroke-linecap: square"/>
   </g>
   <g id="line2d_20">
    <path d="M 104.727273 115.508021 
L 104.886959 115.508021 
L 105.046644 113.659893 
L 107.282246 113.659893 
L 107.441931 111.811765 
L 110.15659 111.811765 
L 110.316276 113.659893 
L 110.635647 113.659893 
L 110.795333 115.508021 
L 110.955019 113.659893 
L 112.551877 113.659893 
L 112.711563 115.508021 
L 113.509992 115.508021 
L 113.669678 117.35615 
L 114.148735 117.35615 
L 114.308421 115.508021 
L 114.468107 115.508021 
L 114.627793 113.659893 
L 115.426222 113.659893 
L 115.745593 109.963636 
L 117.821509 109.963636 
L 117.981194 108.115508 
L 118.460252 108.115508 
L 118.619938 109.963636 
L 119.418367 109.963636 
L 119.578052 108.115508 
L 120.536167 108.115508 
L 120.855539 104.419251 
L 121.813654 104.419251 
L 121.973339 102.571123 
L 122.292711 102.571123 
L 122.452397 104.419251 
L 122.931454 104.419251 
L 123.09114 106.26738 
L 123.410512 106.26738 
L 123.570198 104.419251 
L 124.049255 104.419251 
L 124.208941 106.26738 
L 124.368627 106.26738 
L 124.528312 108.115508 
L 125.646113 108.115508 
L 125.965485 104.419251 
L 126.284856 104.419251 
L 126.444542 106.26738 
L 126.763914 106.26738 
L 126.923599 104.419251 
L 127.083285 104.419251 
L 127.242971 102.571123 
L 128.839829 102.571123 
L 129.159201 106.26738 
L 130.277001 106.26738 
L 130.436687 108.115508 
L 130.596373 106.26738 
L 132.033545 106.26738 
L 132.193231 108.115508 
L 133.949775 108.115508 
L 134.109461 106.26738 
L 136.345062 106.26738 
L 136.504748 104.419251 
L 137.143491 104.419251 
L 137.303177 106.26738 
L 139.858149 106.26738 
L 140.017835 108.115508 
L 142.093751 108.115508 
L 142.253437 106.26738 
L 142.413122 108.115508 
L 142.572808 108.115508 
L 142.732494 106.26738 
L 143.051866 106.26738 
L 143.211551 108.115508 
L 144.489038 108.115508 
L 144.648724 106.26738 
L 145.447153 106.26738 
L 145.606838 104.419251 
L 146.884325 104.419251 
L 147.044011 106.26738 
L 150.078041 106.26738 
L 150.237727 108.115508 
L 150.397412 108.115508 
L 150.557098 106.26738 
L 151.195842 106.26738 
L 151.355527 108.115508 
L 151.674899 108.115508 
L 151.834585 109.963636 
L 154.070186 109.963636 
L 154.229872 111.811765 
L 154.389558 109.963636 
L 154.549243 111.811765 
L 154.868615 111.811765 
L 155.028301 109.963636 
L 155.667044 109.963636 
L 155.82673 111.811765 
L 155.986416 111.811765 
L 156.146101 109.963636 
L 156.305787 109.963636 
L 156.465473 108.115508 
L 158.222017 108.115508 
L 158.381703 106.26738 
L 158.86076 106.26738 
L 159.020446 108.115508 
L 159.818875 108.115508 
L 159.978561 109.963636 
L 160.457618 109.963636 
L 160.617304 111.811765 
L 160.77699 111.811765 
L 161.096361 108.115508 
L 161.256047 108.115508 
L 161.415733 109.963636 
L 161.89479 109.963636 
L 162.054476 111.811765 
L 162.214162 111.811765 
L 162.373848 109.963636 
L 162.533534 109.963636 
L 162.693219 111.811765 
L 163.012591 111.811765 
L 163.172277 113.659893 
L 163.970706 113.659893 
L 164.130392 111.811765 
L 164.290077 111.811765 
L 164.449763 113.659893 
L 165.886935 113.659893 
L 166.046621 115.508021 
L 167.962851 115.508021 
L 168.122537 117.35615 
L 168.601594 117.35615 
L 168.76128 119.204278 
L 169.080651 119.204278 
L 169.240337 117.35615 
L 170.198452 117.35615 
L 170.358138 119.204278 
L 171.635624 119.204278 
L 171.79531 121.052406 
L 171.954996 119.204278 
L 172.114682 119.204278 
L 172.274368 121.052406 
L 172.753425 121.052406 
L 172.913111 122.900535 
L 174.669655 122.900535 
L 174.82934 124.748663 
L 174.989026 124.748663 
L 175.148712 122.900535 
L 178.821486 122.900535 
L 178.981171 121.052406 
L 179.140857 121.052406 
L 179.300543 122.900535 
L 180.418344 122.900535 
L 180.578029 124.748663 
L 181.536144 124.748663 
L 181.69583 126.596791 
L 182.015202 126.596791 
L 182.174887 124.748663 
L 183.133002 124.748663 
L 183.292688 122.900535 
L 183.452374 124.748663 
L 183.61206 124.748663 
L 183.771745 122.900535 
L 184.72986 122.900535 
L 184.889546 124.748663 
L 185.368603 124.748663 
L 185.528289 126.596791 
L 186.007347 126.596791 
L 186.167032 124.748663 
L 186.326718 124.748663 
L 186.486404 122.900535 
L 187.604205 122.900535 
L 187.76389 121.052406 
L 187.923576 122.900535 
L 190.797921 122.900535 
L 190.957607 121.052406 
L 191.756036 121.052406 
L 191.915721 119.204278 
L 192.075407 121.052406 
L 192.394779 121.052406 
L 192.554465 119.204278 
L 192.71415 119.204278 
L 192.873836 121.052406 
L 193.193208 121.052406 
L 193.352894 119.204278 
L 193.512579 121.052406 
L 193.831951 121.052406 
L 193.991637 119.204278 
L 194.470694 119.204278 
L 194.63038 117.35615 
L 194.949752 117.35615 
L 195.109437 115.508021 
L 196.227238 115.508021 
L 196.386924 113.659893 
L 197.824096 113.659893 
L 197.983782 111.811765 
L 198.303154 111.811765 
L 198.622525 115.508021 
L 199.101583 115.508021 
L 199.261268 117.35615 
L 199.900012 117.35615 
L 200.059697 115.508021 
L 200.538755 115.508021 
L 200.698441 113.659893 
L 201.177498 113.659893 
L 201.656555 119.204278 
L 201.975927 119.204278 
L 202.135613 121.052406 
L 202.295299 119.204278 
L 203.572785 119.204278 
L 203.732471 117.35615 
L 204.371214 117.35615 
L 204.5309 119.204278 
L 204.690586 119.204278 
L 204.850271 117.35615 
L 206.127758 117.35615 
L 206.287444 115.508021 
L 206.606815 115.508021 
L 206.766501 113.659893 
L 206.926187 115.508021 
L 211.078018 115.508021 
L 211.237704 113.659893 
L 212.355504 113.659893 
L 212.51519 111.811765 
L 213.473305 111.811765 
L 213.632991 109.963636 
L 213.952362 109.963636 
L 214.112048 111.811765 
L 214.271734 111.811765 
L 214.43142 113.659893 
L 215.229849 113.659893 
L 215.389534 111.811765 
L 216.667021 111.811765 
L 216.826707 109.963636 
L 217.305764 109.963636 
L 217.46545 108.115508 
L 217.625136 108.115508 
L 217.784822 109.963636 
L 219.701051 109.963636 
L 219.860737 108.115508 
L 222.41571 108.115508 
L 222.575396 109.963636 
L 222.735081 109.963636 
L 222.894767 111.811765 
L 223.852882 111.811765 
L 224.012568 109.963636 
L 224.172254 111.811765 
L 224.651311 111.811765 
L 224.810997 109.963636 
L 225.290054 109.963636 
L 225.44974 108.115508 
L 230.240314 108.115508 
L 230.559686 104.419251 
L 231.038743 104.419251 
L 231.198429 102.571123 
L 233.114659 102.571123 
L 233.593716 97.026738 
L 233.913088 97.026738 
L 234.072773 95.17861 
L 236.308375 95.17861 
L 236.468061 93.330481 
L 238.703662 93.330481 
L 238.863348 91.482353 
L 239.502091 91.482353 
L 239.661777 93.330481 
L 243.813607 93.330481 
L 243.973293 95.17861 
L 244.452351 95.17861 
L 244.612037 97.026738 
L 245.410466 97.026738 
L 245.570151 98.874866 
L 245.889523 98.874866 
L 246.049209 97.026738 
L 246.208895 97.026738 
L 246.36858 95.17861 
L 246.528266 97.026738 
L 247.326695 97.026738 
L 247.486381 98.874866 
L 249.562296 98.874866 
L 249.721982 97.026738 
L 249.881668 97.026738 
L 250.041354 98.874866 
L 250.360725 98.874866 
L 250.520411 100.722995 
L 251.159154 100.722995 
L 251.31884 102.571123 
L 253.554441 102.571123 
L 253.714127 104.419251 
L 254.352871 104.419251 
L 254.512556 102.571123 
L 254.672242 102.571123 
L 254.831928 100.722995 
L 255.949729 100.722995 
L 256.109414 98.874866 
L 256.2691 100.722995 
L 262.177475 100.722995 
L 262.337161 102.571123 
L 264.572762 102.571123 
L 264.732448 104.419251 
L 265.371191 104.419251 
L 265.530877 106.26738 
L 265.850248 106.26738 
L 266.009934 108.115508 
L 266.329306 108.115508 
L 266.488992 109.963636 
L 266.808363 109.963636 
L 266.968049 111.811765 
L 267.926164 111.811765 
L 268.08585 109.963636 
L 268.245535 109.963636 
L 268.405221 111.811765 
L 271.439251 111.811765 
L 271.598937 109.963636 
L 271.758623 111.811765 
L 272.23768 111.811765 
L 272.397366 113.659893 
L 273.515167 113.659893 
L 273.674853 115.508021 
L 275.750768 115.508021 
L 275.910454 113.659893 
L 276.07014 115.508021 
L 276.389511 115.508021 
L 276.549197 113.659893 
L 277.347626 113.659893 
L 277.507312 111.811765 
L 278.305741 111.811765 
L 278.465427 109.963636 
L 278.944484 109.963636 
L 279.10417 111.811765 
L 279.263856 111.811765 
L 279.423542 109.963636 
L 279.902599 109.963636 
L 280.062285 111.811765 
L 281.818829 111.811765 
L 281.978514 109.963636 
L 282.297886 109.963636 
L 282.457572 108.115508 
L 282.776944 108.115508 
L 283.096315 111.811765 
L 283.256001 109.963636 
L 284.05443 109.963636 
L 284.214116 111.811765 
L 285.491602 111.811765 
L 285.651288 109.963636 
L 286.130345 109.963636 
L 286.290031 111.811765 
L 287.248146 111.811765 
L 287.567518 115.508021 
L 288.046575 115.508021 
L 288.206261 113.659893 
L 290.282176 113.659893 
L 290.441862 115.508021 
L 291.240291 115.508021 
L 291.399977 117.35615 
L 294.114636 117.35615 
L 294.274321 115.508021 
L 294.434007 117.35615 
L 296.509923 117.35615 
L 296.669608 115.508021 
L 296.829294 117.35615 
L 297.308352 117.35615 
L 297.468037 115.508021 
L 297.787409 115.508021 
L 297.947095 113.659893 
L 298.106781 115.508021 
L 298.266466 115.508021 
L 298.426152 113.659893 
L 298.585838 113.659893 
L 298.745524 115.508021 
L 298.90521 113.659893 
L 300.182696 113.659893 
L 300.342382 111.811765 
L 300.981125 111.811765 
L 300.981125 111.811765 
" clip-path="url(#p386771392e)" style="fill: none; stroke: #9467bd; stroke-width: 1.5; stroke-linecap: square"/>
   </g>
   <g id="line2d_21">
    <path d="M 104.727273 78.545455 
L 292.837149 78.545455 
L 292.837149 78.545455 
" clip-path="url(#p386771392e)" style="fill: none; stroke: #8c564b; stroke-width: 1.5; stroke-linecap: square"/>
   </g>
   <g id="line2d_22">
    <path d="M 104.727273 130.293048 
L 104.886959 128.44492 
L 105.20633 132.141176 
L 108.400046 132.141176 
L 108.559732 130.293048 
L 109.517847 130.293048 
L 109.837218 126.596791 
L 110.15659 126.596791 
L 110.475962 122.900535 
L 111.593762 122.900535 
L 111.753448 124.748663 
L 113.030935 124.748663 
L 113.19062 126.596791 
L 113.350306 124.748663 
L 113.669678 124.748663 
L 113.829364 122.900535 
L 113.989049 122.900535 
L 114.148735 121.052406 
L 114.468107 121.052406 
L 114.627793 122.900535 
L 114.787478 121.052406 
L 115.745593 121.052406 
L 115.905279 119.204278 
L 116.544022 119.204278 
L 116.703708 117.35615 
L 116.863394 117.35615 
L 117.02308 115.508021 
L 119.418367 115.508021 
L 119.578052 117.35615 
L 120.376481 117.35615 
L 120.695853 121.052406 
L 121.015225 121.052406 
L 121.17491 122.900535 
L 121.494282 122.900535 
L 121.653968 124.748663 
L 123.729883 124.748663 
L 123.889569 126.596791 
L 124.368627 126.596791 
L 124.528312 124.748663 
L 124.687998 124.748663 
L 124.847684 122.900535 
L 125.486427 122.900535 
L 125.646113 121.052406 
L 126.604228 121.052406 
L 126.763914 119.204278 
L 127.242971 119.204278 
L 127.402657 117.35615 
L 127.562343 117.35615 
L 127.722028 115.508021 
L 128.0414 115.508021 
L 128.201086 113.659893 
L 128.360772 115.508021 
L 129.638258 115.508021 
L 129.797944 117.35615 
L 131.714174 117.35615 
L 131.873859 115.508021 
L 132.033545 115.508021 
L 132.193231 117.35615 
L 135.067575 117.35615 
L 135.227261 119.204278 
L 136.504748 119.204278 
L 136.664433 117.35615 
L 136.824119 117.35615 
L 137.143491 113.659893 
L 137.303177 113.659893 
L 137.462862 115.508021 
L 140.017835 115.508021 
L 140.177521 117.35615 
L 141.614693 117.35615 
L 141.774379 119.204278 
L 142.413122 119.204278 
L 142.572808 121.052406 
L 143.211551 121.052406 
L 143.371237 122.900535 
L 143.690609 119.204278 
L 144.169666 119.204278 
L 144.329352 121.052406 
L 144.968095 121.052406 
L 145.127781 119.204278 
L 145.447153 119.204278 
L 145.606838 121.052406 
L 145.766524 121.052406 
L 146.085896 124.748663 
L 146.405267 124.748663 
L 146.564953 122.900535 
L 146.724639 122.900535 
L 146.884325 124.748663 
L 147.044011 124.748663 
L 147.203696 126.596791 
L 147.84244 126.596791 
L 148.161811 130.293048 
L 148.800554 130.293048 
L 148.96024 132.141176 
L 149.598983 132.141176 
L 149.918355 135.837433 
L 150.397412 135.837433 
L 150.557098 137.685561 
L 150.716784 137.685561 
L 150.87647 139.53369 
L 151.355527 139.53369 
L 151.515213 137.685561 
L 151.834585 137.685561 
L 151.994271 139.53369 
L 152.313642 139.53369 
L 152.633014 135.837433 
L 152.952385 135.837433 
L 153.112071 133.989305 
L 153.271757 133.989305 
L 153.431443 135.837433 
L 153.591129 133.989305 
L 153.9105 133.989305 
L 154.229872 137.685561 
L 154.389558 137.685561 
L 154.549243 139.53369 
L 155.667044 139.53369 
L 155.82673 137.685561 
L 156.625159 137.685561 
L 156.784845 139.53369 
L 157.902645 139.53369 
L 158.222017 143.229947 
L 158.541388 143.229947 
L 158.701074 145.078075 
L 158.86076 145.078075 
L 159.020446 146.926203 
L 159.339817 146.926203 
L 159.659189 150.62246 
L 160.138247 150.62246 
L 160.297932 148.774332 
L 160.77699 148.774332 
L 160.936676 150.62246 
L 161.256047 150.62246 
L 161.415733 152.470588 
L 161.735105 152.470588 
L 161.89479 150.62246 
L 162.852905 150.62246 
L 163.012591 148.774332 
L 163.491648 148.774332 
L 163.651334 146.926203 
L 163.970706 146.926203 
L 164.130392 145.078075 
L 164.769135 145.078075 
L 164.928821 143.229947 
L 165.407878 143.229947 
L 165.567564 145.078075 
L 165.886935 145.078075 
L 166.046621 146.926203 
L 167.004736 146.926203 
L 167.164422 145.078075 
L 168.441908 145.078075 
L 168.601594 146.926203 
L 169.080651 146.926203 
L 169.240337 148.774332 
L 169.400023 146.926203 
L 170.038766 146.926203 
L 170.198452 148.774332 
L 171.954996 148.774332 
L 172.114682 146.926203 
L 173.392168 146.926203 
L 173.551854 148.774332 
L 173.71154 146.926203 
L 174.350283 146.926203 
L 174.509969 145.078075 
L 174.82934 145.078075 
L 174.989026 146.926203 
L 175.148712 146.926203 
L 175.308398 145.078075 
L 175.787455 145.078075 
L 175.947141 146.926203 
L 176.106827 146.926203 
L 176.266513 145.078075 
L 176.426198 145.078075 
L 176.585884 146.926203 
L 176.905256 146.926203 
L 177.064942 148.774332 
L 177.384313 148.774332 
L 177.543999 146.926203 
L 177.703685 146.926203 
L 178.023056 143.229947 
L 178.6618 143.229947 
L 178.821486 141.381818 
L 178.981171 141.381818 
L 179.140857 139.53369 
L 179.7796 139.53369 
L 180.098972 135.837433 
L 180.737715 135.837433 
L 180.897401 133.989305 
L 181.536144 133.989305 
L 181.69583 132.141176 
L 182.334573 132.141176 
L 182.494259 130.293048 
L 182.653945 130.293048 
L 182.813631 128.44492 
L 183.452374 128.44492 
L 183.61206 130.293048 
L 183.771745 130.293048 
L 183.931431 128.44492 
L 184.72986 128.44492 
L 184.889546 130.293048 
L 185.208918 130.293048 
L 185.368603 128.44492 
L 185.847661 128.44492 
L 186.167032 124.748663 
L 186.326718 124.748663 
L 186.486404 122.900535 
L 188.56232 122.900535 
L 188.722005 121.052406 
L 189.041377 121.052406 
L 189.201063 122.900535 
L 189.839806 122.900535 
L 190.159178 119.204278 
L 190.318863 121.052406 
L 190.478549 121.052406 
L 190.638235 119.204278 
L 190.797921 119.204278 
L 190.957607 117.35615 
L 191.117292 119.204278 
L 191.436664 119.204278 
L 191.59635 117.35615 
L 192.075407 117.35615 
L 192.235093 119.204278 
L 192.554465 119.204278 
L 192.71415 121.052406 
L 192.873836 119.204278 
L 193.033522 121.052406 
L 193.512579 121.052406 
L 193.672265 119.204278 
L 193.831951 121.052406 
L 194.63038 121.052406 
L 194.790066 122.900535 
L 194.949752 122.900535 
L 195.109437 121.052406 
L 195.748181 121.052406 
L 196.067552 124.748663 
L 197.185353 124.748663 
L 197.345039 126.596791 
L 197.504725 124.748663 
L 197.824096 124.748663 
L 197.983782 122.900535 
L 199.101583 122.900535 
L 199.261268 124.748663 
L 199.58064 124.748663 
L 199.740326 126.596791 
L 200.379069 126.596791 
L 200.538755 124.748663 
L 201.337184 124.748663 
L 201.656555 128.44492 
L 201.975927 128.44492 
L 202.135613 126.596791 
L 202.61467 126.596791 
L 202.774356 128.44492 
L 203.093728 128.44492 
L 203.253413 130.293048 
L 204.051842 130.293048 
L 204.211528 132.141176 
L 204.5309 132.141176 
L 204.690586 133.989305 
L 205.329329 133.989305 
L 205.489015 132.141176 
L 205.6487 132.141176 
L 205.808386 133.989305 
L 206.766501 133.989305 
L 206.926187 132.141176 
L 207.724616 132.141176 
L 207.884302 130.293048 
L 208.203673 130.293048 
L 208.363359 132.141176 
L 208.523045 130.293048 
L 208.682731 130.293048 
L 208.842417 132.141176 
L 209.002102 130.293048 
L 209.800531 130.293048 
L 210.119903 133.989305 
L 210.439275 133.989305 
L 210.59896 135.837433 
L 213.473305 135.837433 
L 213.632991 137.685561 
L 213.792676 135.837433 
L 214.112048 135.837433 
L 214.271734 137.685561 
L 214.750791 137.685561 
L 215.070163 141.381818 
L 215.389534 141.381818 
L 215.54922 139.53369 
L 216.507335 139.53369 
L 216.667021 141.381818 
L 216.826707 139.53369 
L 216.986393 139.53369 
L 217.146078 141.381818 
L 218.742936 141.381818 
L 219.062308 145.078075 
L 219.221994 145.078075 
L 219.541365 148.774332 
L 220.659166 148.774332 
L 220.818852 150.62246 
L 220.978538 150.62246 
L 221.138223 148.774332 
L 222.096338 148.774332 
L 222.256024 146.926203 
L 222.894767 146.926203 
L 223.054453 145.078075 
L 223.214139 145.078075 
L 223.373825 143.229947 
L 223.693196 143.229947 
L 224.012568 146.926203 
L 224.172254 145.078075 
L 224.491625 145.078075 
L 224.651311 143.229947 
L 224.810997 143.229947 
L 224.970683 141.381818 
L 225.130368 143.229947 
L 225.290054 141.381818 
L 225.44974 143.229947 
L 225.609426 143.229947 
L 225.769112 141.381818 
L 226.088483 141.381818 
L 226.248169 143.229947 
L 226.407855 143.229947 
L 226.567541 145.078075 
L 226.727227 143.229947 
L 227.046598 143.229947 
L 227.206284 145.078075 
L 227.36597 145.078075 
L 227.525656 146.926203 
L 227.685341 146.926203 
L 228.004713 143.229947 
L 228.164399 143.229947 
L 228.324085 145.078075 
L 228.643456 145.078075 
L 228.803142 146.926203 
L 229.122514 146.926203 
L 229.282199 145.078075 
L 231.038743 145.078075 
L 231.198429 143.229947 
L 231.517801 143.229947 
L 231.677486 141.381818 
L 232.795287 141.381818 
L 232.954973 143.229947 
L 233.114659 141.381818 
L 233.274344 141.381818 
L 233.593716 137.685561 
L 234.551831 137.685561 
L 234.711517 135.837433 
L 234.871202 135.837433 
L 235.030888 137.685561 
L 235.190574 135.837433 
L 236.468061 135.837433 
L 236.627746 133.989305 
L 237.585861 133.989305 
L 237.745547 132.141176 
L 237.905233 133.989305 
L 238.863348 133.989305 
L 239.023033 135.837433 
L 239.182719 135.837433 
L 239.342405 137.685561 
L 240.140834 137.685561 
L 240.30052 135.837433 
L 240.619891 135.837433 
L 240.779577 133.989305 
L 241.737692 133.989305 
L 242.057064 130.293048 
L 242.376435 130.293048 
L 242.536121 128.44492 
L 242.695807 130.293048 
L 245.410466 130.293048 
L 245.570151 128.44492 
L 246.049209 128.44492 
L 246.208895 126.596791 
L 246.687952 126.596791 
L 246.847638 124.748663 
L 247.486381 124.748663 
L 247.646067 126.596791 
L 247.965438 126.596791 
L 248.125124 128.44492 
L 248.444496 128.44492 
L 248.604182 126.596791 
L 248.923553 126.596791 
L 249.083239 124.748663 
L 249.242925 124.748663 
L 249.402611 126.596791 
L 249.721982 126.596791 
L 250.041354 130.293048 
L 250.680097 130.293048 
L 250.999469 126.596791 
L 251.159154 126.596791 
L 251.478526 122.900535 
L 252.596327 122.900535 
L 252.756012 121.052406 
L 255.630357 121.052406 
L 255.949729 117.35615 
L 256.907843 117.35615 
L 257.067529 115.508021 
L 257.227215 115.508021 
L 257.386901 113.659893 
L 258.345016 113.659893 
L 258.504701 111.811765 
L 258.983759 111.811765 
L 259.143445 109.963636 
L 259.30313 109.963636 
L 259.462816 108.115508 
L 259.622502 109.963636 
L 260.101559 109.963636 
L 260.261245 108.115508 
L 260.420931 109.963636 
L 260.580617 109.963636 
L 260.740303 108.115508 
L 261.379046 108.115508 
L 261.538732 109.963636 
L 264.732448 109.963636 
L 264.892134 108.115508 
L 265.051819 108.115508 
L 265.211505 109.963636 
L 265.371191 109.963636 
L 265.530877 111.811765 
L 266.16962 111.811765 
L 266.329306 113.659893 
L 266.808363 113.659893 
L 266.968049 111.811765 
L 267.447106 111.811765 
L 267.606792 113.659893 
L 267.926164 113.659893 
L 268.08585 111.811765 
L 268.724593 111.811765 
L 268.884279 113.659893 
L 269.682708 113.659893 
L 269.842393 111.811765 
L 271.11988 111.811765 
L 271.279566 109.963636 
L 271.918309 109.963636 
L 272.397366 115.508021 
L 272.716738 115.508021 
L 273.195795 121.052406 
L 274.473282 121.052406 
L 274.632968 119.204278 
L 275.591082 119.204278 
L 275.750768 121.052406 
L 277.826684 121.052406 
L 277.986369 122.900535 
L 278.784798 122.900535 
L 278.944484 121.052406 
L 279.423542 121.052406 
L 279.583227 119.204278 
L 279.742913 121.052406 
L 279.902599 121.052406 
L 280.062285 119.204278 
L 281.180085 119.204278 
L 281.339771 117.35615 
L 281.659143 117.35615 
L 281.818829 115.508021 
L 284.373802 115.508021 
L 284.852859 121.052406 
L 285.172231 121.052406 
L 285.651288 126.596791 
L 286.609403 126.596791 
L 286.769089 128.44492 
L 288.685318 128.44492 
L 288.845004 130.293048 
L 291.240291 130.293048 
L 291.399977 132.141176 
L 291.559663 130.293048 
L 292.03872 130.293048 
L 292.198406 132.141176 
L 292.358092 130.293048 
L 292.517778 132.141176 
L 293.316207 132.141176 
L 293.475892 130.293048 
L 294.593693 130.293048 
L 294.593693 130.293048 
" clip-path="url(#p386771392e)" style="fill: none; stroke: #e377c2; stroke-width: 1.5; stroke-linecap: square"/>
   </g>
   <g id="line2d_23">
    <path d="M 104.727273 78.545455 
L 302.258612 78.545455 
L 302.258612 78.545455 
" clip-path="url(#p386771392e)" style="fill: none; stroke: #7f7f7f; stroke-width: 1.5; stroke-linecap: square"/>
   </g>
   <g id="line2d_24">
    <path d="M 104.727273 263.358289 
L 105.046644 267.054545 
L 105.366016 267.054545 
L 105.525702 265.206417 
L 106.164445 265.206417 
L 106.324131 263.358289 
L 106.483817 265.206417 
L 106.803188 265.206417 
L 106.962874 267.054545 
L 107.12256 267.054545 
L 107.282246 265.206417 
L 107.441931 267.054545 
L 107.920989 267.054545 
L 108.559732 259.662032 
L 108.719418 259.662032 
L 108.879104 257.813904 
L 109.198475 257.813904 
L 109.517847 254.117647 
L 109.996904 254.117647 
L 110.15659 255.965775 
L 110.316276 255.965775 
L 110.795333 250.42139 
L 110.955019 252.269519 
L 111.274391 252.269519 
L 111.434076 250.42139 
L 111.753448 254.117647 
L 111.913134 252.269519 
L 112.07282 254.117647 
L 112.392191 254.117647 
L 112.551877 252.269519 
L 112.711563 254.117647 
L 113.19062 254.117647 
L 113.350306 252.269519 
L 114.308421 252.269519 
L 114.468107 254.117647 
L 114.787478 250.42139 
L 114.947164 250.42139 
L 115.10685 248.573262 
L 115.585907 248.573262 
L 116.703708 235.636364 
L 116.863394 235.636364 
L 117.342451 230.091979 
L 117.502137 230.091979 
L 117.661823 228.24385 
L 117.821509 228.24385 
L 118.939309 215.306952 
L 119.098995 215.306952 
L 119.418367 211.610695 
L 119.737738 211.610695 
L 119.897424 209.762567 
L 120.05711 209.762567 
L 120.376481 206.06631 
L 121.015225 206.06631 
L 121.334596 202.370053 
L 121.494282 202.370053 
L 121.813654 198.673797 
L 122.133025 198.673797 
L 122.931454 189.433155 
L 123.09114 189.433155 
L 123.570198 183.88877 
L 123.729883 185.736898 
L 123.889569 183.88877 
L 124.049255 183.88877 
L 124.528312 178.344385 
L 124.687998 178.344385 
L 125.00737 174.648128 
L 125.167056 174.648128 
L 125.965485 165.407487 
L 126.12517 165.407487 
L 126.444542 161.71123 
L 126.604228 163.559358 
L 126.923599 159.863102 
L 127.242971 159.863102 
L 127.402657 161.71123 
L 128.0414 161.71123 
L 128.201086 159.863102 
L 128.360772 159.863102 
L 128.680143 156.166845 
L 128.839829 156.166845 
L 128.999515 154.318717 
L 129.95763 154.318717 
L 130.117315 152.470588 
L 130.596373 152.470588 
L 130.756059 150.62246 
L 130.915744 150.62246 
L 131.07543 148.774332 
L 131.714174 148.774332 
L 132.193231 143.229947 
L 132.512603 143.229947 
L 132.672288 141.381818 
L 132.831974 141.381818 
L 133.470717 133.989305 
L 134.428832 133.989305 
L 134.748204 137.685561 
L 135.067575 137.685561 
L 135.227261 135.837433 
L 135.386947 137.685561 
L 135.866004 137.685561 
L 136.02569 135.837433 
L 136.504748 135.837433 
L 136.664433 137.685561 
L 136.983805 133.989305 
L 138.261291 133.989305 
L 138.420977 132.141176 
L 138.740349 132.141176 
L 138.900035 130.293048 
L 139.219406 130.293048 
L 139.379092 128.44492 
L 140.496893 128.44492 
L 140.656578 130.293048 
L 141.455008 130.293048 
L 141.614693 128.44492 
L 141.934065 128.44492 
L 142.093751 126.596791 
L 142.572808 126.596791 
L 142.732494 128.44492 
L 142.89218 126.596791 
L 143.371237 126.596791 
L 143.690609 122.900535 
L 143.850295 122.900535 
L 144.00998 121.052406 
L 144.489038 121.052406 
L 144.968095 115.508021 
L 146.245582 115.508021 
L 146.405267 113.659893 
L 147.044011 113.659893 
L 147.203696 111.811765 
L 147.363382 111.811765 
L 147.523068 109.963636 
L 149.918355 109.963636 
L 150.078041 111.811765 
L 150.87647 111.811765 
L 151.036156 109.963636 
L 151.515213 109.963636 
L 151.674899 108.115508 
L 151.994271 108.115508 
L 152.153956 109.963636 
L 153.9105 109.963636 
L 154.070186 108.115508 
L 154.868615 108.115508 
L 155.028301 106.26738 
L 155.187987 108.115508 
L 155.347672 108.115508 
L 155.507358 109.963636 
L 155.667044 108.115508 
L 155.82673 109.963636 
L 156.465473 109.963636 
L 156.625159 111.811765 
L 156.94453 111.811765 
L 157.104216 109.963636 
L 157.583274 109.963636 
L 157.742959 111.811765 
L 158.381703 111.811765 
L 158.541388 109.963636 
L 159.180132 109.963636 
L 159.339817 108.115508 
L 159.499503 109.963636 
L 160.138247 109.963636 
L 160.297932 111.811765 
L 160.617304 111.811765 
L 160.77699 113.659893 
L 161.415733 113.659893 
L 161.575419 111.811765 
L 162.693219 111.811765 
L 162.852905 109.963636 
L 163.491648 109.963636 
L 163.651334 111.811765 
L 163.970706 111.811765 
L 164.290077 115.508021 
L 166.046621 115.508021 
L 166.206307 113.659893 
L 166.365993 113.659893 
L 166.685364 109.963636 
L 167.164422 109.963636 
L 167.324108 108.115508 
L 168.441908 108.115508 
L 168.601594 106.26738 
L 172.434053 106.26738 
L 172.593739 104.419251 
L 174.509969 104.419251 
L 174.669655 102.571123 
L 180.737715 102.571123 
L 180.897401 104.419251 
L 181.855516 104.419251 
L 182.015202 102.571123 
L 183.61206 102.571123 
L 183.771745 104.419251 
L 183.931431 104.419251 
L 184.091117 102.571123 
L 186.965461 102.571123 
L 187.125147 100.722995 
L 187.284833 100.722995 
L 187.444519 98.874866 
L 187.604205 98.874866 
L 187.76389 97.026738 
L 187.923576 97.026738 
L 188.083262 98.874866 
L 188.402634 98.874866 
L 188.56232 97.026738 
L 188.881691 97.026738 
L 189.041377 98.874866 
L 189.360749 98.874866 
L 189.520434 100.722995 
L 189.999492 100.722995 
L 190.318863 104.419251 
L 191.276978 104.419251 
L 191.436664 102.571123 
L 192.554465 102.571123 
L 192.71415 100.722995 
L 194.470694 100.722995 
L 194.63038 102.571123 
L 195.428809 102.571123 
L 195.588495 100.722995 
L 195.907866 100.722995 
L 196.227238 97.026738 
L 200.379069 97.026738 
L 200.698441 100.722995 
L 201.337184 100.722995 
L 201.49687 102.571123 
L 201.975927 102.571123 
L 202.135613 104.419251 
L 204.850271 104.419251 
L 205.009957 106.26738 
L 212.51519 106.26738 
L 212.674876 108.115508 
L 212.834562 106.26738 
L 213.473305 106.26738 
L 213.632991 108.115508 
L 215.54922 108.115508 
L 215.708906 106.26738 
L 219.860737 106.26738 
L 220.020423 104.419251 
L 220.180109 104.419251 
L 220.49948 108.115508 
L 220.659166 108.115508 
L 220.818852 109.963636 
L 220.978538 108.115508 
L 221.138223 109.963636 
L 221.297909 109.963636 
L 221.617281 106.26738 
L 221.936652 106.26738 
L 222.256024 102.571123 
L 223.693196 102.571123 
L 223.852882 104.419251 
L 224.012568 104.419251 
L 224.172254 102.571123 
L 225.609426 102.571123 
L 225.769112 104.419251 
L 226.407855 104.419251 
L 226.567541 102.571123 
L 227.36597 102.571123 
L 227.525656 104.419251 
L 229.441885 104.419251 
L 229.601571 106.26738 
L 232.31623 106.26738 
L 232.635601 102.571123 
L 233.274344 102.571123 
L 233.43403 100.722995 
L 233.593716 100.722995 
L 233.753402 102.571123 
L 233.913088 102.571123 
L 234.072773 100.722995 
L 235.829317 100.722995 
L 235.989003 102.571123 
L 236.787432 102.571123 
L 236.947118 100.722995 
L 237.745547 100.722995 
L 237.905233 102.571123 
L 239.502091 102.571123 
L 239.661777 104.419251 
L 240.140834 104.419251 
L 240.30052 106.26738 
L 244.452351 106.26738 
L 244.612037 104.419251 
L 245.410466 104.419251 
L 245.570151 102.571123 
L 245.729837 102.571123 
L 245.889523 104.419251 
L 246.847638 104.419251 
L 247.007324 106.26738 
L 247.167009 106.26738 
L 247.326695 108.115508 
L 247.486381 108.115508 
L 247.646067 109.963636 
L 251.478526 109.963636 
L 251.638212 111.811765 
L 252.117269 111.811765 
L 252.436641 108.115508 
L 252.596327 108.115508 
L 252.756012 106.26738 
L 254.352871 106.26738 
L 254.512556 108.115508 
L 255.630357 108.115508 
L 255.790043 106.26738 
L 257.546587 106.26738 
L 257.706272 104.419251 
L 258.824073 104.419251 
L 258.983759 106.26738 
L 259.30313 106.26738 
L 259.462816 104.419251 
L 259.782188 104.419251 
L 259.941874 106.26738 
L 261.379046 106.26738 
L 261.538732 104.419251 
L 265.530877 104.419251 
L 265.690563 102.571123 
L 266.329306 102.571123 
L 266.488992 104.419251 
L 266.648677 104.419251 
L 266.808363 106.26738 
L 267.766478 106.26738 
L 267.926164 104.419251 
L 269.682708 104.419251 
L 269.842393 102.571123 
L 271.439251 102.571123 
L 271.598937 100.722995 
L 272.077995 100.722995 
L 272.23768 98.874866 
L 273.994224 98.874866 
L 274.15391 100.722995 
L 275.112025 100.722995 
L 275.271711 102.571123 
L 276.549197 102.571123 
L 276.708883 104.419251 
L 277.347626 104.419251 
L 277.666998 108.115508 
L 277.826684 106.26738 
L 278.784798 106.26738 
L 278.944484 104.419251 
L 279.10417 104.419251 
L 279.263856 102.571123 
L 279.423542 102.571123 
L 279.583227 100.722995 
L 283.415687 100.722995 
L 283.575373 98.874866 
L 284.852859 98.874866 
L 285.012545 97.026738 
L 285.651288 97.026738 
L 285.810974 98.874866 
L 286.290031 98.874866 
L 286.449717 97.026738 
L 288.365947 97.026738 
L 288.525632 98.874866 
L 288.685318 98.874866 
L 288.845004 100.722995 
L 290.761234 100.722995 
L 290.920919 98.874866 
L 291.719349 98.874866 
L 291.879034 97.026738 
L 294.913065 97.026738 
L 295.07275 98.874866 
L 295.232436 98.874866 
L 295.392122 100.722995 
L 298.266466 100.722995 
L 298.426152 98.874866 
L 298.585838 100.722995 
L 298.745524 98.874866 
L 301.619868 98.874866 
L 301.779554 100.722995 
L 305.931385 100.722995 
L 306.091071 98.874866 
L 307.049186 98.874866 
L 307.208871 97.026738 
L 307.687929 97.026738 
L 307.847615 98.874866 
L 308.486358 98.874866 
L 308.646044 97.026738 
L 309.284787 97.026738 
L 309.604158 93.330481 
L 310.881645 93.330481 
L 311.041331 95.17861 
L 311.680074 95.17861 
L 311.83976 97.026738 
L 312.638189 97.026738 
L 312.797875 98.874866 
L 313.596304 98.874866 
L 313.755989 100.722995 
L 315.991591 100.722995 
L 316.151276 102.571123 
L 316.630334 102.571123 
L 316.79002 104.419251 
L 317.588449 104.419251 
L 317.748134 102.571123 
L 318.546563 102.571123 
L 318.706249 104.419251 
L 320.303107 104.419251 
L 320.462793 102.571123 
L 320.622479 102.571123 
L 320.782165 100.722995 
L 321.420908 100.722995 
L 321.580594 102.571123 
L 322.698394 102.571123 
L 322.85808 104.419251 
L 323.496823 104.419251 
L 323.656509 106.26738 
L 326.051796 106.26738 
L 326.211482 108.115508 
L 326.850225 108.115508 
L 327.009911 106.26738 
L 327.169597 106.26738 
L 327.329283 104.419251 
L 328.766455 104.419251 
L 328.926141 106.26738 
L 330.363313 106.26738 
L 330.522999 104.419251 
L 332.598914 104.419251 
L 332.7586 106.26738 
L 333.557029 106.26738 
L 333.716715 104.419251 
L 337.229802 104.419251 
L 337.389488 106.26738 
L 338.347603 106.26738 
L 338.507289 108.115508 
L 339.62509 108.115508 
L 339.784775 106.26738 
L 339.944461 108.115508 
L 340.583204 108.115508 
L 340.74289 109.963636 
L 342.020377 109.963636 
L 342.180062 111.811765 
L 342.818806 111.811765 
L 342.978491 109.963636 
L 343.138177 109.963636 
L 343.297863 111.811765 
L 343.617235 111.811765 
L 343.77692 109.963636 
L 344.575349 109.963636 
L 344.735035 108.115508 
L 345.533464 108.115508 
L 345.69315 106.26738 
L 347.769065 106.26738 
L 347.928751 108.115508 
L 348.088437 106.26738 
L 348.567495 106.26738 
L 348.72718 104.419251 
L 350.483724 104.419251 
L 350.64341 102.571123 
L 351.601525 102.571123 
L 351.761211 104.419251 
L 353.358069 104.419251 
L 353.517754 102.571123 
L 354.316183 102.571123 
L 354.475869 104.419251 
L 354.635555 104.419251 
L 354.795241 102.571123 
L 355.433984 102.571123 
L 355.59367 100.722995 
L 356.072727 100.722995 
L 356.072727 100.722995 
" clip-path="url(#p386771392e)" style="fill: none; stroke: #bcbd22; stroke-width: 1.5; stroke-linecap: square"/>
   </g>
   <g id="patch_3">
    <path d="M 92.16 276.48 
L 92.16 69.12 
" style="fill: none; stroke: #000000; stroke-width: 0.8; stroke-linejoin: miter; stroke-linecap: square"/>
   </g>
   <g id="patch_4">
    <path d="M 368.64 276.48 
L 368.64 69.12 
" style="fill: none; stroke: #000000; stroke-width: 0.8; stroke-linejoin: miter; stroke-linecap: square"/>
   </g>
   <g id="patch_5">
    <path d="M 92.16 276.48 
L 368.64 276.48 
" style="fill: none; stroke: #000000; stroke-width: 0.8; stroke-linejoin: miter; stroke-linecap: square"/>
   </g>
   <g id="patch_6">
    <path d="M 92.16 69.12 
L 368.64 69.12 
" style="fill: none; stroke: #000000; stroke-width: 0.8; stroke-linejoin: miter; stroke-linecap: square"/>
   </g>
   <g id="text_16">
    <!-- fixed_woosterprobe_2afc_og -->
    <g transform="translate(145.171875 63.12) scale(0.12 -0.12)">
     <defs>
      <path id="DejaVuSans-66" d="M 2375 4863 
L 2375 4384 
L 1825 4384 
Q 1516 4384 1395 4259 
Q 1275 4134 1275 3809 
L 1275 3500 
L 2222 3500 
L 2222 3053 
L 1275 3053 
L 1275 0 
L 697 0 
L 697 3053 
L 147 3053 
L 147 3500 
L 697 3500 
L 697 3744 
Q 697 4328 969 4595 
Q 1241 4863 1831 4863 
L 2375 4863 
z
" transform="scale(0.015625)"/>
      <path id="DejaVuSans-69" d="M 603 3500 
L 1178 3500 
L 1178 0 
L 603 0 
L 603 3500 
z
M 603 4863 
L 1178 4863 
L 1178 4134 
L 603 4134 
L 603 4863 
z
" transform="scale(0.015625)"/>
      <path id="DejaVuSans-78" d="M 3513 3500 
L 2247 1797 
L 3578 0 
L 2900 0 
L 1881 1375 
L 863 0 
L 184 0 
L 1544 1831 
L 300 3500 
L 978 3500 
L 1906 2253 
L 2834 3500 
L 3513 3500 
z
" transform="scale(0.015625)"/>
      <path id="DejaVuSans-65" d="M 3597 1894 
L 3597 1613 
L 953 1613 
Q 991 1019 1311 708 
Q 1631 397 2203 397 
Q 2534 397 2845 478 
Q 3156 559 3463 722 
L 3463 178 
Q 3153 47 2828 -22 
Q 2503 -91 2169 -91 
Q 1331 -91 842 396 
Q 353 884 353 1716 
Q 353 2575 817 3079 
Q 1281 3584 2069 3584 
Q 2775 3584 3186 3129 
Q 3597 2675 3597 1894 
z
M 3022 2063 
Q 3016 2534 2758 2815 
Q 2500 3097 2075 3097 
Q 1594 3097 1305 2825 
Q 1016 2553 972 2059 
L 3022 2063 
z
" transform="scale(0.015625)"/>
      <path id="DejaVuSans-64" d="M 2906 2969 
L 2906 4863 
L 3481 4863 
L 3481 0 
L 2906 0 
L 2906 525 
Q 2725 213 2448 61 
Q 2172 -91 1784 -91 
Q 1150 -91 751 415 
Q 353 922 353 1747 
Q 353 2572 751 3078 
Q 1150 3584 1784 3584 
Q 2172 3584 2448 3432 
Q 2725 3281 2906 2969 
z
M 947 1747 
Q 947 1113 1208 752 
Q 1469 391 1925 391 
Q 2381 391 2643 752 
Q 2906 1113 2906 1747 
Q 2906 2381 2643 2742 
Q 2381 3103 1925 3103 
Q 1469 3103 1208 2742 
Q 947 2381 947 1747 
z
" transform="scale(0.015625)"/>
      <path id="DejaVuSans-5f" d="M 3263 -1063 
L 3263 -1509 
L -63 -1509 
L -63 -1063 
L 3263 -1063 
z
" transform="scale(0.015625)"/>
      <path id="DejaVuSans-77" d="M 269 3500 
L 844 3500 
L 1563 769 
L 2278 3500 
L 2956 3500 
L 3675 769 
L 4391 3500 
L 4966 3500 
L 4050 0 
L 3372 0 
L 2619 2869 
L 1863 0 
L 1184 0 
L 269 3500 
z
" transform="scale(0.015625)"/>
      <path id="DejaVuSans-6f" d="M 1959 3097 
Q 1497 3097 1228 2736 
Q 959 2375 959 1747 
Q 959 1119 1226 758 
Q 1494 397 1959 397 
Q 2419 397 2687 759 
Q 2956 1122 2956 1747 
Q 2956 2369 2687 2733 
Q 2419 3097 1959 3097 
z
M 1959 3584 
Q 2709 3584 3137 3096 
Q 3566 2609 3566 1747 
Q 3566 888 3137 398 
Q 2709 -91 1959 -91 
Q 1206 -91 779 398 
Q 353 888 353 1747 
Q 353 2609 779 3096 
Q 1206 3584 1959 3584 
z
" transform="scale(0.015625)"/>
      <path id="DejaVuSans-73" d="M 2834 3397 
L 2834 2853 
Q 2591 2978 2328 3040 
Q 2066 3103 1784 3103 
Q 1356 3103 1142 2972 
Q 928 2841 928 2578 
Q 928 2378 1081 2264 
Q 1234 2150 1697 2047 
L 1894 2003 
Q 2506 1872 2764 1633 
Q 3022 1394 3022 966 
Q 3022 478 2636 193 
Q 2250 -91 1575 -91 
Q 1294 -91 989 -36 
Q 684 19 347 128 
L 347 722 
Q 666 556 975 473 
Q 1284 391 1588 391 
Q 1994 391 2212 530 
Q 2431 669 2431 922 
Q 2431 1156 2273 1281 
Q 2116 1406 1581 1522 
L 1381 1569 
Q 847 1681 609 1914 
Q 372 2147 372 2553 
Q 372 3047 722 3315 
Q 1072 3584 1716 3584 
Q 2034 3584 2315 3537 
Q 2597 3491 2834 3397 
z
" transform="scale(0.015625)"/>
      <path id="DejaVuSans-74" d="M 1172 4494 
L 1172 3500 
L 2356 3500 
L 2356 3053 
L 1172 3053 
L 1172 1153 
Q 1172 725 1289 603 
Q 1406 481 1766 481 
L 2356 481 
L 2356 0 
L 1766 0 
Q 1100 0 847 248 
Q 594 497 594 1153 
L 594 3053 
L 172 3053 
L 172 3500 
L 594 3500 
L 594 4494 
L 1172 4494 
z
" transform="scale(0.015625)"/>
      <path id="DejaVuSans-72" d="M 2631 2963 
Q 2534 3019 2420 3045 
Q 2306 3072 2169 3072 
Q 1681 3072 1420 2755 
Q 1159 2438 1159 1844 
L 1159 0 
L 581 0 
L 581 3500 
L 1159 3500 
L 1159 2956 
Q 1341 3275 1631 3429 
Q 1922 3584 2338 3584 
Q 2397 3584 2469 3576 
Q 2541 3569 2628 3553 
L 2631 2963 
z
" transform="scale(0.015625)"/>
      <path id="DejaVuSans-70" d="M 1159 525 
L 1159 -1331 
L 581 -1331 
L 581 3500 
L 1159 3500 
L 1159 2969 
Q 1341 3281 1617 3432 
Q 1894 3584 2278 3584 
Q 2916 3584 3314 3078 
Q 3713 2572 3713 1747 
Q 3713 922 3314 415 
Q 2916 -91 2278 -91 
Q 1894 -91 1617 61 
Q 1341 213 1159 525 
z
M 3116 1747 
Q 3116 2381 2855 2742 
Q 2594 3103 2138 3103 
Q 1681 3103 1420 2742 
Q 1159 2381 1159 1747 
Q 1159 1113 1420 752 
Q 1681 391 2138 391 
Q 2594 391 2855 752 
Q 3116 1113 3116 1747 
z
" transform="scale(0.015625)"/>
      <path id="DejaVuSans-62" d="M 3116 1747 
Q 3116 2381 2855 2742 
Q 2594 3103 2138 3103 
Q 1681 3103 1420 2742 
Q 1159 2381 1159 1747 
Q 1159 1113 1420 752 
Q 1681 391 2138 391 
Q 2594 391 2855 752 
Q 3116 1113 3116 1747 
z
M 1159 2969 
Q 1341 3281 1617 3432 
Q 1894 3584 2278 3584 
Q 2916 3584 3314 3078 
Q 3713 2572 3713 1747 
Q 3713 922 3314 415 
Q 2916 -91 2278 -91 
Q 1894 -91 1617 61 
Q 1341 213 1159 525 
L 1159 0 
L 581 0 
L 581 4863 
L 1159 4863 
L 1159 2969 
z
" transform="scale(0.015625)"/>
      <path id="DejaVuSans-61" d="M 2194 1759 
Q 1497 1759 1228 1600 
Q 959 1441 959 1056 
Q 959 750 1161 570 
Q 1363 391 1709 391 
Q 2188 391 2477 730 
Q 2766 1069 2766 1631 
L 2766 1759 
L 2194 1759 
z
M 3341 1997 
L 3341 0 
L 2766 0 
L 2766 531 
Q 2569 213 2275 61 
Q 1981 -91 1556 -91 
Q 1019 -91 701 211 
Q 384 513 384 1019 
Q 384 1609 779 1909 
Q 1175 2209 1959 2209 
L 2766 2209 
L 2766 2266 
Q 2766 2663 2505 2880 
Q 2244 3097 1772 3097 
Q 1472 3097 1187 3025 
Q 903 2953 641 2809 
L 641 3341 
Q 956 3463 1253 3523 
Q 1550 3584 1831 3584 
Q 2591 3584 2966 3190 
Q 3341 2797 3341 1997 
z
" transform="scale(0.015625)"/>
      <path id="DejaVuSans-63" d="M 3122 3366 
L 3122 2828 
Q 2878 2963 2633 3030 
Q 2388 3097 2138 3097 
Q 1578 3097 1268 2742 
Q 959 2388 959 1747 
Q 959 1106 1268 751 
Q 1578 397 2138 397 
Q 2388 397 2633 464 
Q 2878 531 3122 666 
L 3122 134 
Q 2881 22 2623 -34 
Q 2366 -91 2075 -91 
Q 1284 -91 818 406 
Q 353 903 353 1747 
Q 353 2603 823 3093 
Q 1294 3584 2113 3584 
Q 2378 3584 2631 3529 
Q 2884 3475 3122 3366 
z
" transform="scale(0.015625)"/>
      <path id="DejaVuSans-67" d="M 2906 1791 
Q 2906 2416 2648 2759 
Q 2391 3103 1925 3103 
Q 1463 3103 1205 2759 
Q 947 2416 947 1791 
Q 947 1169 1205 825 
Q 1463 481 1925 481 
Q 2391 481 2648 825 
Q 2906 1169 2906 1791 
z
M 3481 434 
Q 3481 -459 3084 -895 
Q 2688 -1331 1869 -1331 
Q 1566 -1331 1297 -1286 
Q 1028 -1241 775 -1147 
L 775 -588 
Q 1028 -725 1275 -790 
Q 1522 -856 1778 -856 
Q 2344 -856 2625 -561 
Q 2906 -266 2906 331 
L 2906 616 
Q 2728 306 2450 153 
Q 2172 0 1784 0 
Q 1141 0 747 490 
Q 353 981 353 1791 
Q 353 2603 747 3093 
Q 1141 3584 1784 3584 
Q 2172 3584 2450 3431 
Q 2728 3278 2906 2969 
L 2906 3500 
L 3481 3500 
L 3481 434 
z
" transform="scale(0.015625)"/>
     </defs>
     <use xlink:href="#DejaVuSans-66"/>
     <use xlink:href="#DejaVuSans-69" x="35.205078"/>
     <use xlink:href="#DejaVuSans-78" x="62.988281"/>
     <use xlink:href="#DejaVuSans-65" x="119.042969"/>
     <use xlink:href="#DejaVuSans-64" x="180.566406"/>
     <use xlink:href="#DejaVuSans-5f" x="244.042969"/>
     <use xlink:href="#DejaVuSans-77" x="294.042969"/>
     <use xlink:href="#DejaVuSans-6f" x="375.830078"/>
     <use xlink:href="#DejaVuSans-6f" x="437.011719"/>
     <use xlink:href="#DejaVuSans-73" x="498.193359"/>
     <use xlink:href="#DejaVuSans-74" x="550.292969"/>
     <use xlink:href="#DejaVuSans-65" x="589.501953"/>
     <use xlink:href="#DejaVuSans-72" x="651.025391"/>
     <use xlink:href="#DejaVuSans-70" x="692.138672"/>
     <use xlink:href="#DejaVuSans-72" x="755.615234"/>
     <use xlink:href="#DejaVuSans-6f" x="794.478516"/>
     <use xlink:href="#DejaVuSans-62" x="855.660156"/>
     <use xlink:href="#DejaVuSans-65" x="919.136719"/>
     <use xlink:href="#DejaVuSans-5f" x="980.660156"/>
     <use xlink:href="#DejaVuSans-32" x="1030.660156"/>
     <use xlink:href="#DejaVuSans-61" x="1094.283203"/>
     <use xlink:href="#DejaVuSans-66" x="1155.5625"/>
     <use xlink:href="#DejaVuSans-63" x="1190.767578"/>
     <use xlink:href="#DejaVuSans-5f" x="1245.748047"/>
     <use xlink:href="#DejaVuSans-6f" x="1295.748047"/>
     <use xlink:href="#DejaVuSans-67" x="1356.929688"/>
    </g>
   </g>
   <g id="legend_1">
    <g id="patch_7">
     <path d="M 164.72125 271.48 
L 361.64 271.48 
Q 363.64 271.48 363.64 269.48 
L 363.64 135.87375 
Q 363.64 133.87375 361.64 133.87375 
L 164.72125 133.87375 
Q 162.72125 133.87375 162.72125 135.87375 
L 162.72125 269.48 
Q 162.72125 271.48 164.72125 271.48 
z
" style="fill: #ffffff; opacity: 0.8; stroke: #cccccc; stroke-linejoin: miter"/>
    </g>
    <g id="line2d_25">
     <path d="M 166.72125 141.972187 
L 176.72125 141.972187 
L 186.72125 141.972187 
" style="fill: none; stroke: #1f77b4; stroke-width: 1.5; stroke-linecap: square"/>
    </g>
    <g id="text_17">
     <!-- low_gauss_shape_to_color -->
     <g transform="translate(194.72125 145.472187) scale(0.1 -0.1)">
      <defs>
       <path id="DejaVuSans-6c" d="M 603 4863 
L 1178 4863 
L 1178 0 
L 603 0 
L 603 4863 
z
" transform="scale(0.015625)"/>
       <path id="DejaVuSans-75" d="M 544 1381 
L 544 3500 
L 1119 3500 
L 1119 1403 
Q 1119 906 1312 657 
Q 1506 409 1894 409 
Q 2359 409 2629 706 
Q 2900 1003 2900 1516 
L 2900 3500 
L 3475 3500 
L 3475 0 
L 2900 0 
L 2900 538 
Q 2691 219 2414 64 
Q 2138 -91 1772 -91 
Q 1169 -91 856 284 
Q 544 659 544 1381 
z
M 1991 3584 
L 1991 3584 
z
" transform="scale(0.015625)"/>
       <path id="DejaVuSans-68" d="M 3513 2113 
L 3513 0 
L 2938 0 
L 2938 2094 
Q 2938 2591 2744 2837 
Q 2550 3084 2163 3084 
Q 1697 3084 1428 2787 
Q 1159 2491 1159 1978 
L 1159 0 
L 581 0 
L 581 4863 
L 1159 4863 
L 1159 2956 
Q 1366 3272 1645 3428 
Q 1925 3584 2291 3584 
Q 2894 3584 3203 3211 
Q 3513 2838 3513 2113 
z
" transform="scale(0.015625)"/>
      </defs>
      <use xlink:href="#DejaVuSans-6c"/>
      <use xlink:href="#DejaVuSans-6f" x="27.783203"/>
      <use xlink:href="#DejaVuSans-77" x="88.964844"/>
      <use xlink:href="#DejaVuSans-5f" x="170.751953"/>
      <use xlink:href="#DejaVuSans-67" x="220.751953"/>
      <use xlink:href="#DejaVuSans-61" x="284.228516"/>
      <use xlink:href="#DejaVuSans-75" x="345.507812"/>
      <use xlink:href="#DejaVuSans-73" x="408.886719"/>
      <use xlink:href="#DejaVuSans-73" x="460.986328"/>
      <use xlink:href="#DejaVuSans-5f" x="513.085938"/>
      <use xlink:href="#DejaVuSans-73" x="563.085938"/>
      <use xlink:href="#DejaVuSans-68" x="615.185547"/>
      <use xlink:href="#DejaVuSans-61" x="678.564453"/>
      <use xlink:href="#DejaVuSans-70" x="739.84375"/>
      <use xlink:href="#DejaVuSans-65" x="803.320312"/>
      <use xlink:href="#DejaVuSans-5f" x="864.84375"/>
      <use xlink:href="#DejaVuSans-74" x="914.84375"/>
      <use xlink:href="#DejaVuSans-6f" x="954.052734"/>
      <use xlink:href="#DejaVuSans-5f" x="1015.234375"/>
      <use xlink:href="#DejaVuSans-63" x="1065.234375"/>
      <use xlink:href="#DejaVuSans-6f" x="1120.214844"/>
      <use xlink:href="#DejaVuSans-6c" x="1181.396484"/>
      <use xlink:href="#DejaVuSans-6f" x="1209.179688"/>
      <use xlink:href="#DejaVuSans-72" x="1270.361328"/>
     </g>
    </g>
    <g id="line2d_26">
     <path d="M 166.72125 156.928437 
L 176.72125 156.928437 
L 186.72125 156.928437 
" style="fill: none; stroke: #ff7f0e; stroke-width: 1.5; stroke-linecap: square"/>
    </g>
    <g id="text_18">
     <!-- focal_low_gauss_shape_to_color -->
     <g transform="translate(194.72125 160.428437) scale(0.1 -0.1)">
      <use xlink:href="#DejaVuSans-66"/>
      <use xlink:href="#DejaVuSans-6f" x="35.205078"/>
      <use xlink:href="#DejaVuSans-63" x="96.386719"/>
      <use xlink:href="#DejaVuSans-61" x="151.367188"/>
      <use xlink:href="#DejaVuSans-6c" x="212.646484"/>
      <use xlink:href="#DejaVuSans-5f" x="240.429688"/>
      <use xlink:href="#DejaVuSans-6c" x="290.429688"/>
      <use xlink:href="#DejaVuSans-6f" x="318.212891"/>
      <use xlink:href="#DejaVuSans-77" x="379.394531"/>
      <use xlink:href="#DejaVuSans-5f" x="461.181641"/>
      <use xlink:href="#DejaVuSans-67" x="511.181641"/>
      <use xlink:href="#DejaVuSans-61" x="574.658203"/>
      <use xlink:href="#DejaVuSans-75" x="635.9375"/>
      <use xlink:href="#DejaVuSans-73" x="699.316406"/>
      <use xlink:href="#DejaVuSans-73" x="751.416016"/>
      <use xlink:href="#DejaVuSans-5f" x="803.515625"/>
      <use xlink:href="#DejaVuSans-73" x="853.515625"/>
      <use xlink:href="#DejaVuSans-68" x="905.615234"/>
      <use xlink:href="#DejaVuSans-61" x="968.994141"/>
      <use xlink:href="#DejaVuSans-70" x="1030.273438"/>
      <use xlink:href="#DejaVuSans-65" x="1093.75"/>
      <use xlink:href="#DejaVuSans-5f" x="1155.273438"/>
      <use xlink:href="#DejaVuSans-74" x="1205.273438"/>
      <use xlink:href="#DejaVuSans-6f" x="1244.482422"/>
      <use xlink:href="#DejaVuSans-5f" x="1305.664062"/>
      <use xlink:href="#DejaVuSans-63" x="1355.664062"/>
      <use xlink:href="#DejaVuSans-6f" x="1410.644531"/>
      <use xlink:href="#DejaVuSans-6c" x="1471.826172"/>
      <use xlink:href="#DejaVuSans-6f" x="1499.609375"/>
      <use xlink:href="#DejaVuSans-72" x="1560.791016"/>
     </g>
    </g>
    <g id="line2d_27">
     <path d="M 166.72125 171.884687 
L 176.72125 171.884687 
L 186.72125 171.884687 
" style="fill: none; stroke: #2ca02c; stroke-width: 1.5; stroke-linecap: square"/>
    </g>
    <g id="text_19">
     <!-- high_gauss_shape_to_color -->
     <g transform="translate(194.72125 175.384687) scale(0.1 -0.1)">
      <use xlink:href="#DejaVuSans-68"/>
      <use xlink:href="#DejaVuSans-69" x="63.378906"/>
      <use xlink:href="#DejaVuSans-67" x="91.162109"/>
      <use xlink:href="#DejaVuSans-68" x="154.638672"/>
      <use xlink:href="#DejaVuSans-5f" x="218.017578"/>
      <use xlink:href="#DejaVuSans-67" x="268.017578"/>
      <use xlink:href="#DejaVuSans-61" x="331.494141"/>
      <use xlink:href="#DejaVuSans-75" x="392.773438"/>
      <use xlink:href="#DejaVuSans-73" x="456.152344"/>
      <use xlink:href="#DejaVuSans-73" x="508.251953"/>
      <use xlink:href="#DejaVuSans-5f" x="560.351562"/>
      <use xlink:href="#DejaVuSans-73" x="610.351562"/>
      <use xlink:href="#DejaVuSans-68" x="662.451172"/>
      <use xlink:href="#DejaVuSans-61" x="725.830078"/>
      <use xlink:href="#DejaVuSans-70" x="787.109375"/>
      <use xlink:href="#DejaVuSans-65" x="850.585938"/>
      <use xlink:href="#DejaVuSans-5f" x="912.109375"/>
      <use xlink:href="#DejaVuSans-74" x="962.109375"/>
      <use xlink:href="#DejaVuSans-6f" x="1001.318359"/>
      <use xlink:href="#DejaVuSans-5f" x="1062.5"/>
      <use xlink:href="#DejaVuSans-63" x="1112.5"/>
      <use xlink:href="#DejaVuSans-6f" x="1167.480469"/>
      <use xlink:href="#DejaVuSans-6c" x="1228.662109"/>
      <use xlink:href="#DejaVuSans-6f" x="1256.445312"/>
      <use xlink:href="#DejaVuSans-72" x="1317.626953"/>
     </g>
    </g>
    <g id="line2d_28">
     <path d="M 166.72125 186.840937 
L 176.72125 186.840937 
L 186.72125 186.840937 
" style="fill: none; stroke: #d62728; stroke-width: 1.5; stroke-linecap: square"/>
    </g>
    <g id="text_20">
     <!-- focal_high_gauss_shape_to_color -->
     <g transform="translate(194.72125 190.340937) scale(0.1 -0.1)">
      <use xlink:href="#DejaVuSans-66"/>
      <use xlink:href="#DejaVuSans-6f" x="35.205078"/>
      <use xlink:href="#DejaVuSans-63" x="96.386719"/>
      <use xlink:href="#DejaVuSans-61" x="151.367188"/>
      <use xlink:href="#DejaVuSans-6c" x="212.646484"/>
      <use xlink:href="#DejaVuSans-5f" x="240.429688"/>
      <use xlink:href="#DejaVuSans-68" x="290.429688"/>
      <use xlink:href="#DejaVuSans-69" x="353.808594"/>
      <use xlink:href="#DejaVuSans-67" x="381.591797"/>
      <use xlink:href="#DejaVuSans-68" x="445.068359"/>
      <use xlink:href="#DejaVuSans-5f" x="508.447266"/>
      <use xlink:href="#DejaVuSans-67" x="558.447266"/>
      <use xlink:href="#DejaVuSans-61" x="621.923828"/>
      <use xlink:href="#DejaVuSans-75" x="683.203125"/>
      <use xlink:href="#DejaVuSans-73" x="746.582031"/>
      <use xlink:href="#DejaVuSans-73" x="798.681641"/>
      <use xlink:href="#DejaVuSans-5f" x="850.78125"/>
      <use xlink:href="#DejaVuSans-73" x="900.78125"/>
      <use xlink:href="#DejaVuSans-68" x="952.880859"/>
      <use xlink:href="#DejaVuSans-61" x="1016.259766"/>
      <use xlink:href="#DejaVuSans-70" x="1077.539062"/>
      <use xlink:href="#DejaVuSans-65" x="1141.015625"/>
      <use xlink:href="#DejaVuSans-5f" x="1202.539062"/>
      <use xlink:href="#DejaVuSans-74" x="1252.539062"/>
      <use xlink:href="#DejaVuSans-6f" x="1291.748047"/>
      <use xlink:href="#DejaVuSans-5f" x="1352.929688"/>
      <use xlink:href="#DejaVuSans-63" x="1402.929688"/>
      <use xlink:href="#DejaVuSans-6f" x="1457.910156"/>
      <use xlink:href="#DejaVuSans-6c" x="1519.091797"/>
      <use xlink:href="#DejaVuSans-6f" x="1546.875"/>
      <use xlink:href="#DejaVuSans-72" x="1608.056641"/>
     </g>
    </g>
    <g id="line2d_29">
     <path d="M 166.72125 201.797188 
L 176.72125 201.797188 
L 186.72125 201.797188 
" style="fill: none; stroke: #9467bd; stroke-width: 1.5; stroke-linecap: square"/>
    </g>
    <g id="text_21">
     <!-- low_gauss_color_to_shape -->
     <g transform="translate(194.72125 205.297188) scale(0.1 -0.1)">
      <use xlink:href="#DejaVuSans-6c"/>
      <use xlink:href="#DejaVuSans-6f" x="27.783203"/>
      <use xlink:href="#DejaVuSans-77" x="88.964844"/>
      <use xlink:href="#DejaVuSans-5f" x="170.751953"/>
      <use xlink:href="#DejaVuSans-67" x="220.751953"/>
      <use xlink:href="#DejaVuSans-61" x="284.228516"/>
      <use xlink:href="#DejaVuSans-75" x="345.507812"/>
      <use xlink:href="#DejaVuSans-73" x="408.886719"/>
      <use xlink:href="#DejaVuSans-73" x="460.986328"/>
      <use xlink:href="#DejaVuSans-5f" x="513.085938"/>
      <use xlink:href="#DejaVuSans-63" x="563.085938"/>
      <use xlink:href="#DejaVuSans-6f" x="618.066406"/>
      <use xlink:href="#DejaVuSans-6c" x="679.248047"/>
      <use xlink:href="#DejaVuSans-6f" x="707.03125"/>
      <use xlink:href="#DejaVuSans-72" x="768.212891"/>
      <use xlink:href="#DejaVuSans-5f" x="809.326172"/>
      <use xlink:href="#DejaVuSans-74" x="859.326172"/>
      <use xlink:href="#DejaVuSans-6f" x="898.535156"/>
      <use xlink:href="#DejaVuSans-5f" x="959.716797"/>
      <use xlink:href="#DejaVuSans-73" x="1009.716797"/>
      <use xlink:href="#DejaVuSans-68" x="1061.816406"/>
      <use xlink:href="#DejaVuSans-61" x="1125.195312"/>
      <use xlink:href="#DejaVuSans-70" x="1186.474609"/>
      <use xlink:href="#DejaVuSans-65" x="1249.951172"/>
     </g>
    </g>
    <g id="line2d_30">
     <path d="M 166.72125 216.753437 
L 176.72125 216.753437 
L 186.72125 216.753437 
" style="fill: none; stroke: #8c564b; stroke-width: 1.5; stroke-linecap: square"/>
    </g>
    <g id="text_22">
     <!-- focal_low_gauss_color_to_shape -->
     <g transform="translate(194.72125 220.253437) scale(0.1 -0.1)">
      <use xlink:href="#DejaVuSans-66"/>
      <use xlink:href="#DejaVuSans-6f" x="35.205078"/>
      <use xlink:href="#DejaVuSans-63" x="96.386719"/>
      <use xlink:href="#DejaVuSans-61" x="151.367188"/>
      <use xlink:href="#DejaVuSans-6c" x="212.646484"/>
      <use xlink:href="#DejaVuSans-5f" x="240.429688"/>
      <use xlink:href="#DejaVuSans-6c" x="290.429688"/>
      <use xlink:href="#DejaVuSans-6f" x="318.212891"/>
      <use xlink:href="#DejaVuSans-77" x="379.394531"/>
      <use xlink:href="#DejaVuSans-5f" x="461.181641"/>
      <use xlink:href="#DejaVuSans-67" x="511.181641"/>
      <use xlink:href="#DejaVuSans-61" x="574.658203"/>
      <use xlink:href="#DejaVuSans-75" x="635.9375"/>
      <use xlink:href="#DejaVuSans-73" x="699.316406"/>
      <use xlink:href="#DejaVuSans-73" x="751.416016"/>
      <use xlink:href="#DejaVuSans-5f" x="803.515625"/>
      <use xlink:href="#DejaVuSans-63" x="853.515625"/>
      <use xlink:href="#DejaVuSans-6f" x="908.496094"/>
      <use xlink:href="#DejaVuSans-6c" x="969.677734"/>
      <use xlink:href="#DejaVuSans-6f" x="997.460938"/>
      <use xlink:href="#DejaVuSans-72" x="1058.642578"/>
      <use xlink:href="#DejaVuSans-5f" x="1099.755859"/>
      <use xlink:href="#DejaVuSans-74" x="1149.755859"/>
      <use xlink:href="#DejaVuSans-6f" x="1188.964844"/>
      <use xlink:href="#DejaVuSans-5f" x="1250.146484"/>
      <use xlink:href="#DejaVuSans-73" x="1300.146484"/>
      <use xlink:href="#DejaVuSans-68" x="1352.246094"/>
      <use xlink:href="#DejaVuSans-61" x="1415.625"/>
      <use xlink:href="#DejaVuSans-70" x="1476.904297"/>
      <use xlink:href="#DejaVuSans-65" x="1540.380859"/>
     </g>
    </g>
    <g id="line2d_31">
     <path d="M 166.72125 231.709687 
L 176.72125 231.709687 
L 186.72125 231.709687 
" style="fill: none; stroke: #e377c2; stroke-width: 1.5; stroke-linecap: square"/>
    </g>
    <g id="text_23">
     <!-- high_gauss_color_to_shape -->
     <g transform="translate(194.72125 235.209687) scale(0.1 -0.1)">
      <use xlink:href="#DejaVuSans-68"/>
      <use xlink:href="#DejaVuSans-69" x="63.378906"/>
      <use xlink:href="#DejaVuSans-67" x="91.162109"/>
      <use xlink:href="#DejaVuSans-68" x="154.638672"/>
      <use xlink:href="#DejaVuSans-5f" x="218.017578"/>
      <use xlink:href="#DejaVuSans-67" x="268.017578"/>
      <use xlink:href="#DejaVuSans-61" x="331.494141"/>
      <use xlink:href="#DejaVuSans-75" x="392.773438"/>
      <use xlink:href="#DejaVuSans-73" x="456.152344"/>
      <use xlink:href="#DejaVuSans-73" x="508.251953"/>
      <use xlink:href="#DejaVuSans-5f" x="560.351562"/>
      <use xlink:href="#DejaVuSans-63" x="610.351562"/>
      <use xlink:href="#DejaVuSans-6f" x="665.332031"/>
      <use xlink:href="#DejaVuSans-6c" x="726.513672"/>
      <use xlink:href="#DejaVuSans-6f" x="754.296875"/>
      <use xlink:href="#DejaVuSans-72" x="815.478516"/>
      <use xlink:href="#DejaVuSans-5f" x="856.591797"/>
      <use xlink:href="#DejaVuSans-74" x="906.591797"/>
      <use xlink:href="#DejaVuSans-6f" x="945.800781"/>
      <use xlink:href="#DejaVuSans-5f" x="1006.982422"/>
      <use xlink:href="#DejaVuSans-73" x="1056.982422"/>
      <use xlink:href="#DejaVuSans-68" x="1109.082031"/>
      <use xlink:href="#DejaVuSans-61" x="1172.460938"/>
      <use xlink:href="#DejaVuSans-70" x="1233.740234"/>
      <use xlink:href="#DejaVuSans-65" x="1297.216797"/>
     </g>
    </g>
    <g id="line2d_32">
     <path d="M 166.72125 246.665937 
L 176.72125 246.665937 
L 186.72125 246.665937 
" style="fill: none; stroke: #7f7f7f; stroke-width: 1.5; stroke-linecap: square"/>
    </g>
    <g id="text_24">
     <!-- focal_high_gauss_color_to_shape -->
     <g transform="translate(194.72125 250.165937) scale(0.1 -0.1)">
      <use xlink:href="#DejaVuSans-66"/>
      <use xlink:href="#DejaVuSans-6f" x="35.205078"/>
      <use xlink:href="#DejaVuSans-63" x="96.386719"/>
      <use xlink:href="#DejaVuSans-61" x="151.367188"/>
      <use xlink:href="#DejaVuSans-6c" x="212.646484"/>
      <use xlink:href="#DejaVuSans-5f" x="240.429688"/>
      <use xlink:href="#DejaVuSans-68" x="290.429688"/>
      <use xlink:href="#DejaVuSans-69" x="353.808594"/>
      <use xlink:href="#DejaVuSans-67" x="381.591797"/>
      <use xlink:href="#DejaVuSans-68" x="445.068359"/>
      <use xlink:href="#DejaVuSans-5f" x="508.447266"/>
      <use xlink:href="#DejaVuSans-67" x="558.447266"/>
      <use xlink:href="#DejaVuSans-61" x="621.923828"/>
      <use xlink:href="#DejaVuSans-75" x="683.203125"/>
      <use xlink:href="#DejaVuSans-73" x="746.582031"/>
      <use xlink:href="#DejaVuSans-73" x="798.681641"/>
      <use xlink:href="#DejaVuSans-5f" x="850.78125"/>
      <use xlink:href="#DejaVuSans-63" x="900.78125"/>
      <use xlink:href="#DejaVuSans-6f" x="955.761719"/>
      <use xlink:href="#DejaVuSans-6c" x="1016.943359"/>
      <use xlink:href="#DejaVuSans-6f" x="1044.726562"/>
      <use xlink:href="#DejaVuSans-72" x="1105.908203"/>
      <use xlink:href="#DejaVuSans-5f" x="1147.021484"/>
      <use xlink:href="#DejaVuSans-74" x="1197.021484"/>
      <use xlink:href="#DejaVuSans-6f" x="1236.230469"/>
      <use xlink:href="#DejaVuSans-5f" x="1297.412109"/>
      <use xlink:href="#DejaVuSans-73" x="1347.412109"/>
      <use xlink:href="#DejaVuSans-68" x="1399.511719"/>
      <use xlink:href="#DejaVuSans-61" x="1462.890625"/>
      <use xlink:href="#DejaVuSans-70" x="1524.169922"/>
      <use xlink:href="#DejaVuSans-65" x="1587.646484"/>
     </g>
    </g>
    <g id="line2d_33">
     <path d="M 166.72125 261.622187 
L 176.72125 261.622187 
L 186.72125 261.622187 
" style="fill: none; stroke: #bcbd22; stroke-width: 1.5; stroke-linecap: square"/>
    </g>
    <g id="text_25">
     <!-- achromatic_shape_to_shape -->
     <g transform="translate(194.72125 265.122187) scale(0.1 -0.1)">
      <defs>
       <path id="DejaVuSans-6d" d="M 3328 2828 
Q 3544 3216 3844 3400 
Q 4144 3584 4550 3584 
Q 5097 3584 5394 3201 
Q 5691 2819 5691 2113 
L 5691 0 
L 5113 0 
L 5113 2094 
Q 5113 2597 4934 2840 
Q 4756 3084 4391 3084 
Q 3944 3084 3684 2787 
Q 3425 2491 3425 1978 
L 3425 0 
L 2847 0 
L 2847 2094 
Q 2847 2600 2669 2842 
Q 2491 3084 2119 3084 
Q 1678 3084 1418 2786 
Q 1159 2488 1159 1978 
L 1159 0 
L 581 0 
L 581 3500 
L 1159 3500 
L 1159 2956 
Q 1356 3278 1631 3431 
Q 1906 3584 2284 3584 
Q 2666 3584 2933 3390 
Q 3200 3197 3328 2828 
z
" transform="scale(0.015625)"/>
      </defs>
      <use xlink:href="#DejaVuSans-61"/>
      <use xlink:href="#DejaVuSans-63" x="61.279297"/>
      <use xlink:href="#DejaVuSans-68" x="116.259766"/>
      <use xlink:href="#DejaVuSans-72" x="179.638672"/>
      <use xlink:href="#DejaVuSans-6f" x="218.501953"/>
      <use xlink:href="#DejaVuSans-6d" x="279.683594"/>
      <use xlink:href="#DejaVuSans-61" x="377.095703"/>
      <use xlink:href="#DejaVuSans-74" x="438.375"/>
      <use xlink:href="#DejaVuSans-69" x="477.583984"/>
      <use xlink:href="#DejaVuSans-63" x="505.367188"/>
      <use xlink:href="#DejaVuSans-5f" x="560.347656"/>
      <use xlink:href="#DejaVuSans-73" x="610.347656"/>
      <use xlink:href="#DejaVuSans-68" x="662.447266"/>
      <use xlink:href="#DejaVuSans-61" x="725.826172"/>
      <use xlink:href="#DejaVuSans-70" x="787.105469"/>
      <use xlink:href="#DejaVuSans-65" x="850.582031"/>
      <use xlink:href="#DejaVuSans-5f" x="912.105469"/>
      <use xlink:href="#DejaVuSans-74" x="962.105469"/>
      <use xlink:href="#DejaVuSans-6f" x="1001.314453"/>
      <use xlink:href="#DejaVuSans-5f" x="1062.496094"/>
      <use xlink:href="#DejaVuSans-73" x="1112.496094"/>
      <use xlink:href="#DejaVuSans-68" x="1164.595703"/>
      <use xlink:href="#DejaVuSans-61" x="1227.974609"/>
      <use xlink:href="#DejaVuSans-70" x="1289.253906"/>
      <use xlink:href="#DejaVuSans-65" x="1352.730469"/>
     </g>
    </g>
   </g>
  </g>
 </g>
 <defs>
  <clipPath id="p386771392e">
   <rect x="92.16" y="69.12" width="276.48" height="207.36"/>
  </clipPath>
 </defs>
</svg>
