<?xml version="1.0" encoding="utf-8" standalone="no"?>
<!DOCTYPE svg PUBLIC "-//W3C//DTD SVG 1.1//EN"
  "http://www.w3.org/Graphics/SVG/1.1/DTD/svg11.dtd">
<svg xmlns:xlink="http://www.w3.org/1999/xlink" width="460.8pt" height="345.6pt" viewBox="0 0 460.8 345.6" xmlns="http://www.w3.org/2000/svg" version="1.1">
 <metadata>
  <rdf:RDF xmlns:dc="http://purl.org/dc/elements/1.1/" xmlns:cc="http://creativecommons.org/ns#" xmlns:rdf="http://www.w3.org/1999/02/22-rdf-syntax-ns#">
   <cc:Work>
    <dc:type rdf:resource="http://purl.org/dc/dcmitype/StillImage"/>
    <dc:date>2023-08-08T12:06:25.960029</dc:date>
    <dc:format>image/svg+xml</dc:format>
    <dc:creator>
     <cc:Agent>
      <dc:title>Matplotlib v3.7.1, https://matplotlib.org/</dc:title>
     </cc:Agent>
    </dc:creator>
   </cc:Work>
  </rdf:RDF>
 </metadata>
 <defs>
  <style type="text/css">*{stroke-linejoin: round; stroke-linecap: butt}</style>
 </defs>
 <g id="figure_1">
  <g id="patch_1">
   <path d="M 0 345.6 
L 460.8 345.6 
L 460.8 0 
L 0 0 
z
" style="fill: #ffffff"/>
  </g>
  <g id="axes_1">
   <g id="patch_2">
    <path d="M 92.16 276.48 
L 368.64 276.48 
L 368.64 69.12 
L 92.16 69.12 
z
" style="fill: #ffffff"/>
   </g>
   <g id="matplotlib.axis_1">
    <g id="xtick_1">
     <g id="line2d_1">
      <defs>
       <path id="m787617af92" d="M 0 0 
L 0 3.5 
" style="stroke: #000000; stroke-width: 0.8"/>
      </defs>
      <g>
       <use xlink:href="#m787617af92" x="104.727273" y="276.48" style="stroke: #000000; stroke-width: 0.8"/>
      </g>
     </g>
     <g id="text_1">
      <!-- 0 -->
      <g transform="translate(101.546023 291.078437) scale(0.1 -0.1)">
       <defs>
        <path id="DejaVuSans-30" d="M 2034 4250 
Q 1547 4250 1301 3770 
Q 1056 3291 1056 2328 
Q 1056 1369 1301 889 
Q 1547 409 2034 409 
Q 2525 409 2770 889 
Q 3016 1369 3016 2328 
Q 3016 3291 2770 3770 
Q 2525 4250 2034 4250 
z
M 2034 4750 
Q 2819 4750 3233 4129 
Q 3647 3509 3647 2328 
Q 3647 1150 3233 529 
Q 2819 -91 2034 -91 
Q 1250 -91 836 529 
Q 422 1150 422 2328 
Q 422 3509 836 4129 
Q 1250 4750 2034 4750 
z
" transform="scale(0.015625)"/>
       </defs>
       <use xlink:href="#DejaVuSans-30"/>
      </g>
     </g>
    </g>
    <g id="xtick_2">
     <g id="line2d_2">
      <g>
       <use xlink:href="#m787617af92" x="136.664433" y="276.48" style="stroke: #000000; stroke-width: 0.8"/>
      </g>
     </g>
     <g id="text_2">
      <!-- 200 -->
      <g transform="translate(127.120683 291.078437) scale(0.1 -0.1)">
       <defs>
        <path id="DejaVuSans-32" d="M 1228 531 
L 3431 531 
L 3431 0 
L 469 0 
L 469 531 
Q 828 903 1448 1529 
Q 2069 2156 2228 2338 
Q 2531 2678 2651 2914 
Q 2772 3150 2772 3378 
Q 2772 3750 2511 3984 
Q 2250 4219 1831 4219 
Q 1534 4219 1204 4116 
Q 875 4013 500 3803 
L 500 4441 
Q 881 4594 1212 4672 
Q 1544 4750 1819 4750 
Q 2544 4750 2975 4387 
Q 3406 4025 3406 3419 
Q 3406 3131 3298 2873 
Q 3191 2616 2906 2266 
Q 2828 2175 2409 1742 
Q 1991 1309 1228 531 
z
" transform="scale(0.015625)"/>
       </defs>
       <use xlink:href="#DejaVuSans-32"/>
       <use xlink:href="#DejaVuSans-30" x="63.623047"/>
       <use xlink:href="#DejaVuSans-30" x="127.246094"/>
      </g>
     </g>
    </g>
    <g id="xtick_3">
     <g id="line2d_3">
      <g>
       <use xlink:href="#m787617af92" x="168.601594" y="276.48" style="stroke: #000000; stroke-width: 0.8"/>
      </g>
     </g>
     <g id="text_3">
      <!-- 400 -->
      <g transform="translate(159.057844 291.078437) scale(0.1 -0.1)">
       <defs>
        <path id="DejaVuSans-34" d="M 2419 4116 
L 825 1625 
L 2419 1625 
L 2419 4116 
z
M 2253 4666 
L 3047 4666 
L 3047 1625 
L 3713 1625 
L 3713 1100 
L 3047 1100 
L 3047 0 
L 2419 0 
L 2419 1100 
L 313 1100 
L 313 1709 
L 2253 4666 
z
" transform="scale(0.015625)"/>
       </defs>
       <use xlink:href="#DejaVuSans-34"/>
       <use xlink:href="#DejaVuSans-30" x="63.623047"/>
       <use xlink:href="#DejaVuSans-30" x="127.246094"/>
      </g>
     </g>
    </g>
    <g id="xtick_4">
     <g id="line2d_4">
      <g>
       <use xlink:href="#m787617af92" x="200.538755" y="276.48" style="stroke: #000000; stroke-width: 0.8"/>
      </g>
     </g>
     <g id="text_4">
      <!-- 600 -->
      <g transform="translate(190.995005 291.078437) scale(0.1 -0.1)">
       <defs>
        <path id="DejaVuSans-36" d="M 2113 2584 
Q 1688 2584 1439 2293 
Q 1191 2003 1191 1497 
Q 1191 994 1439 701 
Q 1688 409 2113 409 
Q 2538 409 2786 701 
Q 3034 994 3034 1497 
Q 3034 2003 2786 2293 
Q 2538 2584 2113 2584 
z
M 3366 4563 
L 3366 3988 
Q 3128 4100 2886 4159 
Q 2644 4219 2406 4219 
Q 1781 4219 1451 3797 
Q 1122 3375 1075 2522 
Q 1259 2794 1537 2939 
Q 1816 3084 2150 3084 
Q 2853 3084 3261 2657 
Q 3669 2231 3669 1497 
Q 3669 778 3244 343 
Q 2819 -91 2113 -91 
Q 1303 -91 875 529 
Q 447 1150 447 2328 
Q 447 3434 972 4092 
Q 1497 4750 2381 4750 
Q 2619 4750 2861 4703 
Q 3103 4656 3366 4563 
z
" transform="scale(0.015625)"/>
       </defs>
       <use xlink:href="#DejaVuSans-36"/>
       <use xlink:href="#DejaVuSans-30" x="63.623047"/>
       <use xlink:href="#DejaVuSans-30" x="127.246094"/>
      </g>
     </g>
    </g>
    <g id="xtick_5">
     <g id="line2d_5">
      <g>
       <use xlink:href="#m787617af92" x="232.475915" y="276.48" style="stroke: #000000; stroke-width: 0.8"/>
      </g>
     </g>
     <g id="text_5">
      <!-- 800 -->
      <g transform="translate(222.932165 291.078437) scale(0.1 -0.1)">
       <defs>
        <path id="DejaVuSans-38" d="M 2034 2216 
Q 1584 2216 1326 1975 
Q 1069 1734 1069 1313 
Q 1069 891 1326 650 
Q 1584 409 2034 409 
Q 2484 409 2743 651 
Q 3003 894 3003 1313 
Q 3003 1734 2745 1975 
Q 2488 2216 2034 2216 
z
M 1403 2484 
Q 997 2584 770 2862 
Q 544 3141 544 3541 
Q 544 4100 942 4425 
Q 1341 4750 2034 4750 
Q 2731 4750 3128 4425 
Q 3525 4100 3525 3541 
Q 3525 3141 3298 2862 
Q 3072 2584 2669 2484 
Q 3125 2378 3379 2068 
Q 3634 1759 3634 1313 
Q 3634 634 3220 271 
Q 2806 -91 2034 -91 
Q 1263 -91 848 271 
Q 434 634 434 1313 
Q 434 1759 690 2068 
Q 947 2378 1403 2484 
z
M 1172 3481 
Q 1172 3119 1398 2916 
Q 1625 2713 2034 2713 
Q 2441 2713 2670 2916 
Q 2900 3119 2900 3481 
Q 2900 3844 2670 4047 
Q 2441 4250 2034 4250 
Q 1625 4250 1398 4047 
Q 1172 3844 1172 3481 
z
" transform="scale(0.015625)"/>
       </defs>
       <use xlink:href="#DejaVuSans-38"/>
       <use xlink:href="#DejaVuSans-30" x="63.623047"/>
       <use xlink:href="#DejaVuSans-30" x="127.246094"/>
      </g>
     </g>
    </g>
    <g id="xtick_6">
     <g id="line2d_6">
      <g>
       <use xlink:href="#m787617af92" x="264.413076" y="276.48" style="stroke: #000000; stroke-width: 0.8"/>
      </g>
     </g>
     <g id="text_6">
      <!-- 1000 -->
      <g transform="translate(251.688076 291.078437) scale(0.1 -0.1)">
       <defs>
        <path id="DejaVuSans-31" d="M 794 531 
L 1825 531 
L 1825 4091 
L 703 3866 
L 703 4441 
L 1819 4666 
L 2450 4666 
L 2450 531 
L 3481 531 
L 3481 0 
L 794 0 
L 794 531 
z
" transform="scale(0.015625)"/>
       </defs>
       <use xlink:href="#DejaVuSans-31"/>
       <use xlink:href="#DejaVuSans-30" x="63.623047"/>
       <use xlink:href="#DejaVuSans-30" x="127.246094"/>
       <use xlink:href="#DejaVuSans-30" x="190.869141"/>
      </g>
     </g>
    </g>
    <g id="xtick_7">
     <g id="line2d_7">
      <g>
       <use xlink:href="#m787617af92" x="296.350237" y="276.48" style="stroke: #000000; stroke-width: 0.8"/>
      </g>
     </g>
     <g id="text_7">
      <!-- 1200 -->
      <g transform="translate(283.625237 291.078437) scale(0.1 -0.1)">
       <use xlink:href="#DejaVuSans-31"/>
       <use xlink:href="#DejaVuSans-32" x="63.623047"/>
       <use xlink:href="#DejaVuSans-30" x="127.246094"/>
       <use xlink:href="#DejaVuSans-30" x="190.869141"/>
      </g>
     </g>
    </g>
    <g id="xtick_8">
     <g id="line2d_8">
      <g>
       <use xlink:href="#m787617af92" x="328.287397" y="276.48" style="stroke: #000000; stroke-width: 0.8"/>
      </g>
     </g>
     <g id="text_8">
      <!-- 1400 -->
      <g transform="translate(315.562397 291.078437) scale(0.1 -0.1)">
       <use xlink:href="#DejaVuSans-31"/>
       <use xlink:href="#DejaVuSans-34" x="63.623047"/>
       <use xlink:href="#DejaVuSans-30" x="127.246094"/>
       <use xlink:href="#DejaVuSans-30" x="190.869141"/>
      </g>
     </g>
    </g>
    <g id="xtick_9">
     <g id="line2d_9">
      <g>
       <use xlink:href="#m787617af92" x="360.224558" y="276.48" style="stroke: #000000; stroke-width: 0.8"/>
      </g>
     </g>
     <g id="text_9">
      <!-- 1600 -->
      <g transform="translate(347.499558 291.078437) scale(0.1 -0.1)">
       <use xlink:href="#DejaVuSans-31"/>
       <use xlink:href="#DejaVuSans-36" x="63.623047"/>
       <use xlink:href="#DejaVuSans-30" x="127.246094"/>
       <use xlink:href="#DejaVuSans-30" x="190.869141"/>
      </g>
     </g>
    </g>
   </g>
   <g id="matplotlib.axis_2">
    <g id="ytick_1">
     <g id="line2d_10">
      <defs>
       <path id="mdcbfa4fc14" d="M 0 0 
L -3.5 0 
" style="stroke: #000000; stroke-width: 0.8"/>
      </defs>
      <g>
       <use xlink:href="#mdcbfa4fc14" x="92.16" y="259.804196" style="stroke: #000000; stroke-width: 0.8"/>
      </g>
     </g>
     <g id="text_10">
      <!-- 0.5 -->
      <g transform="translate(69.256875 263.603415) scale(0.1 -0.1)">
       <defs>
        <path id="DejaVuSans-2e" d="M 684 794 
L 1344 794 
L 1344 0 
L 684 0 
L 684 794 
z
" transform="scale(0.015625)"/>
        <path id="DejaVuSans-35" d="M 691 4666 
L 3169 4666 
L 3169 4134 
L 1269 4134 
L 1269 2991 
Q 1406 3038 1543 3061 
Q 1681 3084 1819 3084 
Q 2600 3084 3056 2656 
Q 3513 2228 3513 1497 
Q 3513 744 3044 326 
Q 2575 -91 1722 -91 
Q 1428 -91 1123 -41 
Q 819 9 494 109 
L 494 744 
Q 775 591 1075 516 
Q 1375 441 1709 441 
Q 2250 441 2565 725 
Q 2881 1009 2881 1497 
Q 2881 1984 2565 2268 
Q 2250 2553 1709 2553 
Q 1456 2553 1204 2497 
Q 953 2441 691 2322 
L 691 4666 
z
" transform="scale(0.015625)"/>
       </defs>
       <use xlink:href="#DejaVuSans-30"/>
       <use xlink:href="#DejaVuSans-2e" x="63.623047"/>
       <use xlink:href="#DejaVuSans-35" x="95.410156"/>
      </g>
     </g>
    </g>
    <g id="ytick_2">
     <g id="line2d_11">
      <g>
       <use xlink:href="#mdcbfa4fc14" x="92.16" y="223.552448" style="stroke: #000000; stroke-width: 0.8"/>
      </g>
     </g>
     <g id="text_11">
      <!-- 0.6 -->
      <g transform="translate(69.256875 227.351666) scale(0.1 -0.1)">
       <use xlink:href="#DejaVuSans-30"/>
       <use xlink:href="#DejaVuSans-2e" x="63.623047"/>
       <use xlink:href="#DejaVuSans-36" x="95.410156"/>
      </g>
     </g>
    </g>
    <g id="ytick_3">
     <g id="line2d_12">
      <g>
       <use xlink:href="#mdcbfa4fc14" x="92.16" y="187.300699" style="stroke: #000000; stroke-width: 0.8"/>
      </g>
     </g>
     <g id="text_12">
      <!-- 0.7 -->
      <g transform="translate(69.256875 191.099918) scale(0.1 -0.1)">
       <defs>
        <path id="DejaVuSans-37" d="M 525 4666 
L 3525 4666 
L 3525 4397 
L 1831 0 
L 1172 0 
L 2766 4134 
L 525 4134 
L 525 4666 
z
" transform="scale(0.015625)"/>
       </defs>
       <use xlink:href="#DejaVuSans-30"/>
       <use xlink:href="#DejaVuSans-2e" x="63.623047"/>
       <use xlink:href="#DejaVuSans-37" x="95.410156"/>
      </g>
     </g>
    </g>
    <g id="ytick_4">
     <g id="line2d_13">
      <g>
       <use xlink:href="#mdcbfa4fc14" x="92.16" y="151.048951" style="stroke: #000000; stroke-width: 0.8"/>
      </g>
     </g>
     <g id="text_13">
      <!-- 0.8 -->
      <g transform="translate(69.256875 154.84817) scale(0.1 -0.1)">
       <use xlink:href="#DejaVuSans-30"/>
       <use xlink:href="#DejaVuSans-2e" x="63.623047"/>
       <use xlink:href="#DejaVuSans-38" x="95.410156"/>
      </g>
     </g>
    </g>
    <g id="ytick_5">
     <g id="line2d_14">
      <g>
       <use xlink:href="#mdcbfa4fc14" x="92.16" y="114.797203" style="stroke: #000000; stroke-width: 0.8"/>
      </g>
     </g>
     <g id="text_14">
      <!-- 0.9 -->
      <g transform="translate(69.256875 118.596422) scale(0.1 -0.1)">
       <defs>
        <path id="DejaVuSans-39" d="M 703 97 
L 703 672 
Q 941 559 1184 500 
Q 1428 441 1663 441 
Q 2288 441 2617 861 
Q 2947 1281 2994 2138 
Q 2813 1869 2534 1725 
Q 2256 1581 1919 1581 
Q 1219 1581 811 2004 
Q 403 2428 403 3163 
Q 403 3881 828 4315 
Q 1253 4750 1959 4750 
Q 2769 4750 3195 4129 
Q 3622 3509 3622 2328 
Q 3622 1225 3098 567 
Q 2575 -91 1691 -91 
Q 1453 -91 1209 -44 
Q 966 3 703 97 
z
M 1959 2075 
Q 2384 2075 2632 2365 
Q 2881 2656 2881 3163 
Q 2881 3666 2632 3958 
Q 2384 4250 1959 4250 
Q 1534 4250 1286 3958 
Q 1038 3666 1038 3163 
Q 1038 2656 1286 2365 
Q 1534 2075 1959 2075 
z
" transform="scale(0.015625)"/>
       </defs>
       <use xlink:href="#DejaVuSans-30"/>
       <use xlink:href="#DejaVuSans-2e" x="63.623047"/>
       <use xlink:href="#DejaVuSans-39" x="95.410156"/>
      </g>
     </g>
    </g>
    <g id="ytick_6">
     <g id="line2d_15">
      <g>
       <use xlink:href="#mdcbfa4fc14" x="92.16" y="78.545455" style="stroke: #000000; stroke-width: 0.8"/>
      </g>
     </g>
     <g id="text_15">
      <!-- 1.0 -->
      <g transform="translate(69.256875 82.344673) scale(0.1 -0.1)">
       <use xlink:href="#DejaVuSans-31"/>
       <use xlink:href="#DejaVuSans-2e" x="63.623047"/>
       <use xlink:href="#DejaVuSans-30" x="95.410156"/>
      </g>
     </g>
    </g>
   </g>
   <g id="line2d_16">
    <path d="M 104.727273 118.422378 
L 105.685388 118.422378 
L 105.845073 116.60979 
L 106.164445 116.60979 
L 106.324131 114.797203 
L 106.643502 114.797203 
L 106.803188 116.60979 
L 107.601617 116.60979 
L 107.761303 118.422378 
L 108.24036 118.422378 
L 108.400046 116.60979 
L 108.559732 116.60979 
L 108.719418 114.797203 
L 109.038789 114.797203 
L 109.198475 116.60979 
L 109.677533 116.60979 
L 109.837218 114.797203 
L 111.593762 114.797203 
L 111.753448 116.60979 
L 111.913134 116.60979 
L 112.07282 114.797203 
L 112.392191 114.797203 
L 112.551877 116.60979 
L 112.871249 116.60979 
L 113.030935 114.797203 
L 113.19062 116.60979 
L 113.350306 116.60979 
L 113.509992 118.422378 
L 113.669678 116.60979 
L 113.829364 118.422378 
L 113.989049 118.422378 
L 114.148735 120.234965 
L 114.468107 120.234965 
L 114.627793 122.047552 
L 116.544022 122.047552 
L 116.703708 120.234965 
L 120.376481 120.234965 
L 120.536167 118.422378 
L 120.855539 118.422378 
L 121.015225 116.60979 
L 121.653968 116.60979 
L 121.813654 118.422378 
L 123.09114 118.422378 
L 123.250826 116.60979 
L 124.687998 116.60979 
L 124.847684 114.797203 
L 125.00737 114.797203 
L 125.167056 116.60979 
L 125.326741 116.60979 
L 125.486427 118.422378 
L 127.722028 118.422378 
L 127.881714 116.60979 
L 128.360772 116.60979 
L 128.520457 114.797203 
L 128.680143 114.797203 
L 128.839829 116.60979 
L 129.318886 116.60979 
L 129.478572 114.797203 
L 130.915744 114.797203 
L 131.07543 116.60979 
L 131.554488 116.60979 
L 131.714174 114.797203 
L 132.033545 114.797203 
L 132.193231 116.60979 
L 132.352917 116.60979 
L 132.512603 118.422378 
L 132.672288 118.422378 
L 132.831974 116.60979 
L 132.99166 116.60979 
L 133.151346 114.797203 
L 133.311032 116.60979 
L 134.269146 116.60979 
L 134.428832 118.422378 
L 135.067575 118.422378 
L 135.227261 116.60979 
L 135.546633 116.60979 
L 135.706319 114.797203 
L 138.580663 114.797203 
L 138.740349 112.984615 
L 139.538778 112.984615 
L 139.698464 111.172028 
L 140.97595 111.172028 
L 141.135636 109.359441 
L 142.093751 109.359441 
L 142.253437 111.172028 
L 142.572808 111.172028 
L 142.732494 112.984615 
L 143.530923 112.984615 
L 143.690609 111.172028 
L 144.329352 111.172028 
L 144.489038 109.359441 
L 144.968095 109.359441 
L 145.127781 107.546853 
L 145.287467 107.546853 
L 145.447153 105.734266 
L 145.606838 105.734266 
L 145.766524 103.921678 
L 145.92621 103.921678 
L 146.085896 102.109091 
L 146.405267 102.109091 
L 146.564953 100.296503 
L 150.078041 100.296503 
L 150.237727 98.483916 
L 153.112071 98.483916 
L 153.271757 100.296503 
L 153.591129 100.296503 
L 153.750814 98.483916 
L 155.347672 98.483916 
L 155.507358 100.296503 
L 156.94453 100.296503 
L 157.104216 98.483916 
L 157.263902 98.483916 
L 157.423588 96.671329 
L 158.86076 96.671329 
L 159.020446 98.483916 
L 160.617304 98.483916 
L 160.77699 96.671329 
L 162.852905 96.671329 
L 163.012591 94.858741 
L 163.970706 94.858741 
L 164.130392 93.046154 
L 164.290077 93.046154 
L 164.449763 91.233566 
L 165.088506 91.233566 
L 165.248192 89.420979 
L 165.407878 89.420979 
L 165.567564 91.233566 
L 166.046621 91.233566 
L 166.206307 93.046154 
L 166.365993 91.233566 
L 166.525679 91.233566 
L 166.685364 93.046154 
L 174.030911 93.046154 
L 174.190597 91.233566 
L 174.509969 91.233566 
L 174.669655 89.420979 
L 177.543999 89.420979 
L 177.703685 91.233566 
L 185.049232 91.233566 
L 185.208918 89.420979 
L 185.528289 89.420979 
L 185.687975 91.233566 
L 186.486404 91.233566 
L 186.64609 93.046154 
L 187.284833 93.046154 
L 187.444519 91.233566 
L 190.159178 91.233566 
L 190.318863 93.046154 
L 190.797921 93.046154 
L 190.957607 91.233566 
L 197.345039 91.233566 
L 197.504725 89.420979 
L 197.983782 89.420979 
L 198.143468 87.608392 
L 198.462839 87.608392 
L 198.622525 85.795804 
L 198.941897 85.795804 
L 199.101583 87.608392 
L 205.6487 87.608392 
L 205.808386 89.420979 
L 209.48116 89.420979 
L 209.640846 87.608392 
L 209.800531 89.420979 
L 209.960217 89.420979 
L 210.119903 91.233566 
L 213.792676 91.233566 
L 213.952362 93.046154 
L 214.750791 93.046154 
L 214.910477 94.858741 
L 215.229849 94.858741 
L 215.389534 96.671329 
L 217.46545 96.671329 
L 217.625136 94.858741 
L 218.423565 94.858741 
L 218.583251 93.046154 
L 219.38168 93.046154 
L 219.541365 94.858741 
L 221.138223 94.858741 
L 221.297909 96.671329 
L 222.096338 96.671329 
L 222.256024 94.858741 
L 224.331939 94.858741 
L 224.491625 96.671329 
L 225.130368 96.671329 
L 225.290054 98.483916 
L 226.407855 98.483916 
L 226.567541 100.296503 
L 228.324085 100.296503 
L 228.48377 102.109091 
L 230.879057 102.109091 
L 231.038743 100.296503 
L 231.517801 100.296503 
L 231.677486 102.109091 
L 233.274344 102.109091 
L 233.43403 103.921678 
L 235.35026 103.921678 
L 235.509946 105.734266 
L 237.585861 105.734266 
L 237.745547 103.921678 
L 238.38429 103.921678 
L 238.543976 105.734266 
L 239.182719 105.734266 
L 239.342405 107.546853 
L 239.502091 107.546853 
L 239.661777 109.359441 
L 241.578006 109.359441 
L 241.737692 107.546853 
L 241.897378 107.546853 
L 242.057064 105.734266 
L 243.174864 105.734266 
L 243.33455 107.546853 
L 245.091094 107.546853 
L 245.25078 109.359441 
L 245.729837 109.359441 
L 245.889523 107.546853 
L 246.687952 107.546853 
L 246.847638 105.734266 
L 247.167009 105.734266 
L 247.326695 103.921678 
L 251.31884 103.921678 
L 251.478526 102.109091 
L 252.596327 102.109091 
L 252.756012 103.921678 
L 253.075384 103.921678 
L 253.23507 102.109091 
L 256.2691 102.109091 
L 256.428786 100.296503 
L 257.067529 100.296503 
L 257.227215 98.483916 
L 258.345016 98.483916 
L 258.504701 96.671329 
L 260.261245 96.671329 
L 260.420931 94.858741 
L 263.295275 94.858741 
L 263.454961 96.671329 
L 263.614647 94.858741 
L 264.892134 94.858741 
L 265.051819 96.671329 
L 265.211505 96.671329 
L 265.371191 94.858741 
L 267.287421 94.858741 
L 267.447106 93.046154 
L 270.321451 93.046154 
L 270.481137 91.233566 
L 271.11988 91.233566 
L 271.279566 89.420979 
L 271.439251 89.420979 
L 271.598937 87.608392 
L 275.112025 87.608392 
L 275.271711 85.795804 
L 277.028255 85.795804 
L 277.18794 83.983217 
L 280.381656 83.983217 
L 280.541342 85.795804 
L 284.05443 85.795804 
L 284.214116 87.608392 
L 284.533487 87.608392 
L 284.693173 85.795804 
L 295.232436 85.795804 
L 295.392122 83.983217 
L 296.829294 83.983217 
L 296.98898 82.170629 
L 298.106781 82.170629 
L 298.106781 82.170629 
" clip-path="url(#p03ec77640f)" style="fill: none; stroke: #1f77b4; stroke-width: 1.5; stroke-linecap: square"/>
   </g>
   <g id="line2d_17">
    <path d="M 104.727273 78.545455 
L 302.418297 78.545455 
L 302.418297 78.545455 
" clip-path="url(#p03ec77640f)" style="fill: none; stroke: #ff7f0e; stroke-width: 1.5; stroke-linecap: square"/>
   </g>
   <g id="line2d_18">
    <path d="M 104.727273 140.173427 
L 104.886959 141.986014 
L 105.20633 141.986014 
L 105.366016 140.173427 
L 106.164445 140.173427 
L 106.324131 138.360839 
L 106.643502 138.360839 
L 106.803188 140.173427 
L 106.962874 138.360839 
L 107.12256 138.360839 
L 107.282246 140.173427 
L 107.601617 140.173427 
L 107.920989 143.798601 
L 108.400046 143.798601 
L 108.559732 141.986014 
L 108.719418 143.798601 
L 110.316276 143.798601 
L 110.635647 147.423776 
L 111.434076 147.423776 
L 111.593762 145.611189 
L 111.753448 145.611189 
L 111.913134 143.798601 
L 112.07282 145.611189 
L 112.871249 145.611189 
L 113.030935 147.423776 
L 113.19062 147.423776 
L 113.350306 145.611189 
L 113.989049 145.611189 
L 114.148735 147.423776 
L 114.308421 147.423776 
L 114.468107 145.611189 
L 115.426222 145.611189 
L 115.585907 147.423776 
L 115.905279 147.423776 
L 116.064965 145.611189 
L 116.224651 145.611189 
L 116.384336 147.423776 
L 116.544022 145.611189 
L 116.863394 145.611189 
L 117.02308 143.798601 
L 117.342451 143.798601 
L 117.502137 141.986014 
L 117.821509 141.986014 
L 117.981194 143.798601 
L 118.14088 143.798601 
L 118.300566 141.986014 
L 118.460252 141.986014 
L 118.619938 140.173427 
L 118.779623 140.173427 
L 118.939309 138.360839 
L 119.737738 138.360839 
L 119.897424 136.548252 
L 120.216796 136.548252 
L 120.376481 134.735664 
L 121.015225 134.735664 
L 121.17491 132.923077 
L 122.452397 132.923077 
L 122.612083 131.11049 
L 122.771769 131.11049 
L 122.931454 129.297902 
L 123.09114 129.297902 
L 123.250826 127.485315 
L 123.889569 127.485315 
L 124.049255 125.672727 
L 124.208941 127.485315 
L 124.368627 127.485315 
L 124.528312 125.672727 
L 124.847684 125.672727 
L 125.00737 123.86014 
L 125.326741 123.86014 
L 125.486427 122.047552 
L 125.805799 122.047552 
L 125.965485 123.86014 
L 126.444542 123.86014 
L 126.604228 125.672727 
L 126.923599 125.672727 
L 127.083285 123.86014 
L 127.402657 123.86014 
L 127.562343 125.672727 
L 128.0414 125.672727 
L 128.201086 123.86014 
L 129.478572 123.86014 
L 129.638258 122.047552 
L 129.797944 122.047552 
L 129.95763 120.234965 
L 130.117315 122.047552 
L 131.873859 122.047552 
L 132.033545 123.86014 
L 134.428832 123.86014 
L 134.588518 122.047552 
L 135.067575 122.047552 
L 135.227261 120.234965 
L 136.345062 120.234965 
L 136.504748 122.047552 
L 136.664433 122.047552 
L 136.824119 120.234965 
L 137.782234 120.234965 
L 137.94192 122.047552 
L 138.580663 122.047552 
L 138.740349 120.234965 
L 139.05972 120.234965 
L 139.219406 118.422378 
L 139.538778 118.422378 
L 139.858149 114.797203 
L 140.017835 114.797203 
L 140.177521 116.60979 
L 140.496893 116.60979 
L 140.656578 114.797203 
L 142.253437 114.797203 
L 142.572808 111.172028 
L 142.89218 111.172028 
L 143.051866 112.984615 
L 143.850295 112.984615 
L 144.00998 111.172028 
L 144.329352 114.797203 
L 144.808409 114.797203 
L 144.968095 112.984615 
L 145.92621 112.984615 
L 146.085896 111.172028 
L 147.363382 111.172028 
L 147.523068 109.359441 
L 148.002125 109.359441 
L 148.161811 111.172028 
L 148.321497 109.359441 
L 148.481183 111.172028 
L 149.758669 111.172028 
L 149.918355 109.359441 
L 150.716784 109.359441 
L 150.87647 111.172028 
L 151.195842 111.172028 
L 151.355527 112.984615 
L 153.431443 112.984615 
L 153.591129 111.172028 
L 155.986416 111.172028 
L 156.146101 109.359441 
L 156.305787 111.172028 
L 157.742959 111.172028 
L 157.902645 109.359441 
L 158.381703 109.359441 
L 158.541388 107.546853 
L 159.339817 107.546853 
L 159.499503 105.734266 
L 160.617304 105.734266 
L 160.77699 107.546853 
L 161.89479 107.546853 
L 162.054476 105.734266 
L 163.331963 105.734266 
L 163.491648 107.546853 
L 163.81102 107.546853 
L 163.970706 105.734266 
L 164.769135 105.734266 
L 164.928821 103.921678 
L 167.324108 103.921678 
L 167.483793 105.734266 
L 167.962851 105.734266 
L 168.122537 103.921678 
L 168.282222 105.734266 
L 168.441908 103.921678 
L 169.080651 103.921678 
L 169.240337 105.734266 
L 169.719395 105.734266 
L 169.879081 103.921678 
L 170.038766 105.734266 
L 171.156567 105.734266 
L 171.316253 107.546853 
L 171.954996 107.546853 
L 172.114682 105.734266 
L 173.71154 105.734266 
L 174.030911 109.359441 
L 174.82934 109.359441 
L 174.989026 107.546853 
L 175.947141 107.546853 
L 176.266513 103.921678 
L 176.426198 105.734266 
L 177.863371 105.734266 
L 178.023056 107.546853 
L 179.939286 107.546853 
L 180.098972 105.734266 
L 180.258658 105.734266 
L 180.418344 103.921678 
L 182.653945 103.921678 
L 182.813631 102.109091 
L 182.973316 102.109091 
L 183.133002 103.921678 
L 183.292688 102.109091 
L 185.368603 102.109091 
L 185.528289 103.921678 
L 187.604205 103.921678 
L 187.76389 105.734266 
L 188.083262 105.734266 
L 188.242948 103.921678 
L 190.159178 103.921678 
L 190.318863 105.734266 
L 190.957607 105.734266 
L 191.117292 107.546853 
L 192.554465 107.546853 
L 192.71415 105.734266 
L 195.269123 105.734266 
L 195.428809 103.921678 
L 197.824096 103.921678 
L 197.983782 105.734266 
L 198.941897 105.734266 
L 199.101583 107.546853 
L 199.261268 107.546853 
L 199.420954 105.734266 
L 200.059697 105.734266 
L 200.219383 103.921678 
L 201.017812 103.921678 
L 201.177498 102.109091 
L 201.816241 102.109091 
L 201.975927 100.296503 
L 202.135613 102.109091 
L 202.934042 102.109091 
L 203.093728 103.921678 
L 203.253413 102.109091 
L 203.413099 102.109091 
L 203.572785 103.921678 
L 205.6487 103.921678 
L 205.968072 100.296503 
L 206.926187 100.296503 
L 207.085873 102.109091 
L 208.203673 102.109091 
L 208.363359 100.296503 
L 209.800531 100.296503 
L 209.960217 98.483916 
L 210.439275 98.483916 
L 210.59896 100.296503 
L 211.557075 100.296503 
L 211.716761 102.109091 
L 212.674876 102.109091 
L 212.834562 103.921678 
L 213.153933 103.921678 
L 213.313619 105.734266 
L 214.910477 105.734266 
L 215.070163 103.921678 
L 215.229849 105.734266 
L 216.347649 105.734266 
L 216.507335 107.546853 
L 217.305764 107.546853 
L 217.46545 105.734266 
L 219.541365 105.734266 
L 219.701051 103.921678 
L 221.138223 103.921678 
L 221.297909 105.734266 
L 222.096338 105.734266 
L 222.256024 103.921678 
L 222.894767 103.921678 
L 223.054453 102.109091 
L 228.48377 102.109091 
L 228.643456 103.921678 
L 229.601571 103.921678 
L 229.761257 105.734266 
L 229.920943 103.921678 
L 230.879057 103.921678 
L 231.038743 102.109091 
L 233.913088 102.109091 
L 234.072773 100.296503 
L 234.871202 100.296503 
L 235.030888 98.483916 
L 235.35026 98.483916 
L 235.509946 96.671329 
L 238.863348 96.671329 
L 239.023033 94.858741 
L 242.376435 94.858741 
L 242.536121 93.046154 
L 243.494236 93.046154 
L 243.653922 91.233566 
L 244.612037 91.233566 
L 244.771722 89.420979 
L 245.091094 89.420979 
L 245.25078 87.608392 
L 247.007324 87.608392 
L 247.167009 85.795804 
L 248.28481 85.795804 
L 248.444496 83.983217 
L 252.436641 83.983217 
L 252.596327 85.795804 
L 253.075384 85.795804 
L 253.23507 83.983217 
L 254.193185 83.983217 
L 254.352871 85.795804 
L 260.420931 85.795804 
L 260.580617 83.983217 
L 261.538732 83.983217 
L 261.698417 82.170629 
L 268.405221 82.170629 
L 268.564907 83.983217 
L 270.321451 83.983217 
L 270.481137 85.795804 
L 275.591082 85.795804 
L 275.750768 87.608392 
L 279.902599 87.608392 
L 280.062285 89.420979 
L 281.659143 89.420979 
L 281.818829 91.233566 
L 284.373802 91.233566 
L 284.533487 89.420979 
L 285.97066 89.420979 
L 286.130345 91.233566 
L 286.290031 89.420979 
L 291.240291 89.420979 
L 291.399977 91.233566 
L 293.156521 91.233566 
L 293.316207 93.046154 
L 296.669608 93.046154 
L 296.669608 93.046154 
" clip-path="url(#p03ec77640f)" style="fill: none; stroke: #2ca02c; stroke-width: 1.5; stroke-linecap: square"/>
   </g>
   <g id="line2d_19">
    <path d="M 104.727273 78.545455 
L 292.517778 78.545455 
L 292.517778 78.545455 
" clip-path="url(#p03ec77640f)" style="fill: none; stroke: #d62728; stroke-width: 1.5; stroke-linecap: square"/>
   </g>
   <g id="line2d_20">
    <path d="M 104.727273 107.546853 
L 104.886959 107.546853 
L 105.046644 105.734266 
L 105.20633 105.734266 
L 105.366016 107.546853 
L 107.601617 107.546853 
L 107.761303 105.734266 
L 108.719418 105.734266 
L 108.879104 103.921678 
L 109.198475 103.921678 
L 109.358161 105.734266 
L 111.114705 105.734266 
L 111.434076 109.359441 
L 111.593762 107.546853 
L 111.753448 109.359441 
L 113.509992 109.359441 
L 113.669678 107.546853 
L 114.148735 107.546853 
L 114.308421 109.359441 
L 115.426222 109.359441 
L 115.585907 107.546853 
L 116.224651 107.546853 
L 116.384336 109.359441 
L 117.02308 109.359441 
L 117.182765 111.172028 
L 117.821509 111.172028 
L 117.981194 112.984615 
L 119.897424 112.984615 
L 120.05711 114.797203 
L 120.216796 114.797203 
L 120.376481 116.60979 
L 121.653968 116.60979 
L 121.813654 118.422378 
L 123.09114 118.422378 
L 123.250826 116.60979 
L 123.410512 118.422378 
L 124.049255 118.422378 
L 124.208941 120.234965 
L 124.528312 120.234965 
L 124.687998 122.047552 
L 125.00737 122.047552 
L 125.167056 123.86014 
L 125.805799 123.86014 
L 125.965485 122.047552 
L 126.284856 122.047552 
L 126.444542 120.234965 
L 127.083285 120.234965 
L 127.242971 122.047552 
L 127.722028 122.047552 
L 127.881714 120.234965 
L 128.201086 120.234965 
L 128.360772 122.047552 
L 129.797944 122.047552 
L 129.95763 120.234965 
L 130.117315 120.234965 
L 130.277001 122.047552 
L 132.512603 122.047552 
L 132.672288 120.234965 
L 132.99166 120.234965 
L 133.151346 122.047552 
L 133.630403 122.047552 
L 133.790089 120.234965 
L 134.428832 120.234965 
L 134.588518 122.047552 
L 136.185376 122.047552 
L 136.345062 123.86014 
L 136.504748 122.047552 
L 137.143491 122.047552 
L 137.303177 120.234965 
L 139.698464 120.234965 
L 139.858149 122.047552 
L 140.017835 122.047552 
L 140.337207 125.672727 
L 141.135636 125.672727 
L 141.295322 123.86014 
L 141.455008 125.672727 
L 143.051866 125.672727 
L 143.371237 122.047552 
L 143.530923 122.047552 
L 143.690609 120.234965 
L 146.085896 120.234965 
L 146.245582 118.422378 
L 146.884325 118.422378 
L 147.044011 116.60979 
L 147.84244 116.60979 
L 148.002125 118.422378 
L 148.161811 118.422378 
L 148.321497 116.60979 
L 148.96024 116.60979 
L 149.119926 114.797203 
L 149.758669 114.797203 
L 149.918355 112.984615 
L 150.078041 112.984615 
L 150.237727 111.172028 
L 151.674899 111.172028 
L 151.834585 112.984615 
L 151.994271 111.172028 
L 152.153956 111.172028 
L 152.313642 109.359441 
L 153.591129 109.359441 
L 153.750814 107.546853 
L 154.708929 107.546853 
L 154.868615 109.359441 
L 155.187987 109.359441 
L 155.347672 107.546853 
L 155.986416 107.546853 
L 156.146101 105.734266 
L 156.465473 105.734266 
L 156.625159 103.921678 
L 156.94453 103.921678 
L 157.104216 102.109091 
L 158.062331 102.109091 
L 158.222017 103.921678 
L 159.020446 103.921678 
L 159.180132 102.109091 
L 160.138247 102.109091 
L 160.297932 100.296503 
L 160.457618 102.109091 
L 161.415733 102.109091 
L 161.735105 105.734266 
L 162.054476 105.734266 
L 162.214162 103.921678 
L 163.331963 103.921678 
L 163.491648 105.734266 
L 164.928821 105.734266 
L 165.088506 103.921678 
L 166.365993 103.921678 
L 166.525679 102.109091 
L 168.122537 102.109091 
L 168.282222 100.296503 
L 168.76128 100.296503 
L 168.920966 102.109091 
L 171.635624 102.109091 
L 171.79531 100.296503 
L 171.954996 100.296503 
L 172.274368 96.671329 
L 173.232482 96.671329 
L 173.392168 94.858741 
L 177.703685 94.858741 
L 177.863371 96.671329 
L 179.460229 96.671329 
L 179.619915 98.483916 
L 179.7796 98.483916 
L 179.939286 96.671329 
L 180.578029 96.671329 
L 180.737715 98.483916 
L 182.334573 98.483916 
L 182.494259 100.296503 
L 183.61206 100.296503 
L 183.771745 98.483916 
L 184.410489 98.483916 
L 184.570174 100.296503 
L 185.208918 100.296503 
L 185.368603 102.109091 
L 186.167032 102.109091 
L 186.326718 103.921678 
L 186.64609 103.921678 
L 186.805776 102.109091 
L 188.56232 102.109091 
L 188.722005 103.921678 
L 189.999492 103.921678 
L 190.159178 102.109091 
L 190.638235 102.109091 
L 190.797921 103.921678 
L 191.59635 103.921678 
L 191.756036 105.734266 
L 191.915721 105.734266 
L 192.075407 107.546853 
L 192.235093 107.546853 
L 192.394779 105.734266 
L 193.512579 105.734266 
L 193.672265 103.921678 
L 194.949752 103.921678 
L 195.109437 105.734266 
L 195.269123 105.734266 
L 195.428809 103.921678 
L 198.462839 103.921678 
L 198.622525 105.734266 
L 200.538755 105.734266 
L 200.698441 107.546853 
L 200.858126 105.734266 
L 206.926187 105.734266 
L 207.085873 107.546853 
L 208.043988 107.546853 
L 208.203673 109.359441 
L 209.640846 109.359441 
L 209.800531 107.546853 
L 211.397389 107.546853 
L 211.557075 105.734266 
L 212.51519 105.734266 
L 212.674876 103.921678 
L 214.271734 103.921678 
L 214.43142 102.109091 
L 215.229849 102.109091 
L 215.389534 103.921678 
L 216.347649 103.921678 
L 216.507335 102.109091 
L 216.986393 102.109091 
L 217.146078 103.921678 
L 217.305764 102.109091 
L 217.46545 102.109091 
L 217.784822 105.734266 
L 218.104193 105.734266 
L 218.263879 103.921678 
L 219.221994 103.921678 
L 219.38168 105.734266 
L 219.541365 105.734266 
L 219.701051 107.546853 
L 220.49948 107.546853 
L 220.659166 105.734266 
L 222.575396 105.734266 
L 222.735081 103.921678 
L 223.53351 103.921678 
L 223.693196 102.109091 
L 223.852882 102.109091 
L 224.012568 100.296503 
L 225.290054 100.296503 
L 225.44974 98.483916 
L 226.886912 98.483916 
L 227.046598 96.671329 
L 228.803142 96.671329 
L 228.962828 98.483916 
L 230.080628 98.483916 
L 230.240314 100.296503 
L 230.4 100.296503 
L 230.559686 98.483916 
L 230.719372 100.296503 
L 232.475915 100.296503 
L 232.635601 98.483916 
L 237.26649 98.483916 
L 237.426175 100.296503 
L 239.182719 100.296503 
L 239.342405 102.109091 
L 239.981148 102.109091 
L 240.140834 100.296503 
L 240.30052 100.296503 
L 240.460206 102.109091 
L 241.897378 102.109091 
L 242.057064 103.921678 
L 247.167009 103.921678 
L 247.326695 102.109091 
L 248.125124 102.109091 
L 248.28481 103.921678 
L 248.923553 103.921678 
L 249.083239 102.109091 
L 249.242925 103.921678 
L 249.402611 103.921678 
L 249.721982 100.296503 
L 249.881668 102.109091 
L 251.159154 102.109091 
L 251.31884 100.296503 
L 251.478526 100.296503 
L 251.638212 98.483916 
L 251.797898 98.483916 
L 251.957583 100.296503 
L 252.117269 100.296503 
L 252.276955 102.109091 
L 252.596327 102.109091 
L 252.756012 103.921678 
L 255.790043 103.921678 
L 255.949729 105.734266 
L 262.496846 105.734266 
L 262.656532 103.921678 
L 269.20365 103.921678 
L 269.363336 102.109091 
L 269.682708 102.109091 
L 269.842393 103.921678 
L 270.800508 103.921678 
L 270.960194 102.109091 
L 271.11988 102.109091 
L 271.279566 100.296503 
L 271.439251 102.109091 
L 271.918309 102.109091 
L 272.077995 103.921678 
L 272.23768 103.921678 
L 272.397366 102.109091 
L 272.557052 103.921678 
L 273.355481 103.921678 
L 273.515167 105.734266 
L 273.834539 105.734266 
L 273.994224 103.921678 
L 278.305741 103.921678 
L 278.465427 105.734266 
L 280.062285 105.734266 
L 280.221971 103.921678 
L 280.381656 103.921678 
L 280.701028 107.546853 
L 281.0204 107.546853 
L 281.180085 105.734266 
L 281.659143 105.734266 
L 281.818829 103.921678 
L 283.735058 103.921678 
L 283.894744 102.109091 
L 284.05443 102.109091 
L 284.214116 100.296503 
L 284.533487 100.296503 
L 284.693173 98.483916 
L 287.727203 98.483916 
L 287.886889 96.671329 
L 289.643433 96.671329 
L 289.962805 100.296503 
L 291.879034 100.296503 
L 292.03872 102.109091 
L 292.677463 102.109091 
L 292.837149 100.296503 
L 293.95495 100.296503 
L 294.114636 98.483916 
L 296.829294 98.483916 
L 296.98898 100.296503 
L 297.787409 100.296503 
L 297.947095 102.109091 
L 298.266466 102.109091 
L 298.426152 103.921678 
L 298.90521 103.921678 
L 299.064895 105.734266 
L 300.502068 105.734266 
L 300.661753 107.546853 
L 300.981125 107.546853 
L 300.981125 107.546853 
" clip-path="url(#p03ec77640f)" style="fill: none; stroke: #9467bd; stroke-width: 1.5; stroke-linecap: square"/>
   </g>
   <g id="line2d_21">
    <path d="M 104.727273 78.545455 
L 292.837149 78.545455 
L 292.837149 78.545455 
" clip-path="url(#p03ec77640f)" style="fill: none; stroke: #8c564b; stroke-width: 1.5; stroke-linecap: square"/>
   </g>
   <g id="line2d_22">
    <path d="M 104.727273 129.297902 
L 104.886959 129.297902 
L 105.046644 127.485315 
L 105.366016 127.485315 
L 105.525702 129.297902 
L 105.685388 129.297902 
L 106.004759 132.923077 
L 106.324131 132.923077 
L 106.483817 131.11049 
L 108.080675 131.11049 
L 108.24036 132.923077 
L 108.719418 132.923077 
L 108.879104 131.11049 
L 110.15659 131.11049 
L 110.316276 132.923077 
L 112.07282 132.923077 
L 112.232505 131.11049 
L 113.030935 131.11049 
L 113.19062 132.923077 
L 113.350306 131.11049 
L 114.627793 131.11049 
L 114.787478 129.297902 
L 114.947164 129.297902 
L 115.10685 127.485315 
L 115.426222 127.485315 
L 115.585907 125.672727 
L 115.905279 125.672727 
L 116.064965 127.485315 
L 117.182765 127.485315 
L 117.342451 129.297902 
L 117.502137 127.485315 
L 117.981194 127.485315 
L 118.14088 125.672727 
L 118.300566 125.672727 
L 118.460252 127.485315 
L 118.619938 125.672727 
L 119.418367 125.672727 
L 119.578052 123.86014 
L 119.737738 123.86014 
L 119.897424 125.672727 
L 120.216796 125.672727 
L 120.376481 123.86014 
L 120.855539 123.86014 
L 121.015225 125.672727 
L 121.17491 123.86014 
L 121.813654 123.86014 
L 121.973339 122.047552 
L 122.612083 122.047552 
L 122.771769 123.86014 
L 122.931454 122.047552 
L 123.250826 122.047552 
L 123.410512 120.234965 
L 123.570198 122.047552 
L 125.805799 122.047552 
L 125.965485 120.234965 
L 126.284856 120.234965 
L 126.444542 118.422378 
L 126.763914 118.422378 
L 126.923599 120.234965 
L 127.402657 120.234965 
L 127.562343 122.047552 
L 128.0414 122.047552 
L 128.201086 120.234965 
L 128.680143 120.234965 
L 128.839829 122.047552 
L 129.159201 122.047552 
L 129.318886 120.234965 
L 131.07543 120.234965 
L 131.235116 122.047552 
L 131.394802 122.047552 
L 131.554488 120.234965 
L 132.512603 120.234965 
L 132.672288 118.422378 
L 132.831974 118.422378 
L 132.99166 120.234965 
L 133.311032 120.234965 
L 133.630403 123.86014 
L 134.90789 123.86014 
L 135.067575 122.047552 
L 135.227261 122.047552 
L 135.386947 123.86014 
L 135.706319 123.86014 
L 135.866004 125.672727 
L 136.345062 125.672727 
L 136.504748 123.86014 
L 136.824119 123.86014 
L 136.983805 125.672727 
L 137.303177 125.672727 
L 137.462862 123.86014 
L 137.782234 123.86014 
L 137.94192 122.047552 
L 138.101606 123.86014 
L 138.420977 123.86014 
L 138.580663 125.672727 
L 140.017835 125.672727 
L 140.177521 123.86014 
L 141.455008 123.86014 
L 141.614693 125.672727 
L 141.774379 125.672727 
L 141.934065 123.86014 
L 142.093751 123.86014 
L 142.253437 122.047552 
L 142.413122 122.047552 
L 142.572808 123.86014 
L 142.89218 123.86014 
L 143.051866 125.672727 
L 144.648724 125.672727 
L 144.968095 129.297902 
L 145.127781 127.485315 
L 146.724639 127.485315 
L 146.884325 129.297902 
L 147.84244 129.297902 
L 148.002125 127.485315 
L 149.598983 127.485315 
L 149.758669 129.297902 
L 151.195842 129.297902 
L 151.515213 132.923077 
L 151.674899 132.923077 
L 151.834585 131.11049 
L 152.473328 131.11049 
L 152.633014 132.923077 
L 152.7927 132.923077 
L 152.952385 131.11049 
L 154.549243 131.11049 
L 154.708929 129.297902 
L 155.347672 129.297902 
L 155.507358 127.485315 
L 155.667044 127.485315 
L 155.82673 129.297902 
L 155.986416 127.485315 
L 156.625159 127.485315 
L 156.784845 129.297902 
L 157.902645 129.297902 
L 158.062331 131.11049 
L 158.541388 131.11049 
L 158.701074 129.297902 
L 159.339817 129.297902 
L 159.499503 127.485315 
L 160.457618 127.485315 
L 160.617304 129.297902 
L 160.77699 127.485315 
L 160.936676 129.297902 
L 162.373848 129.297902 
L 162.693219 132.923077 
L 163.012591 132.923077 
L 163.172277 131.11049 
L 163.81102 131.11049 
L 163.970706 132.923077 
L 164.609449 132.923077 
L 164.769135 134.735664 
L 164.928821 132.923077 
L 165.248192 132.923077 
L 165.567564 129.297902 
L 167.164422 129.297902 
L 167.324108 127.485315 
L 167.483793 129.297902 
L 167.643479 129.297902 
L 167.803165 127.485315 
L 168.76128 127.485315 
L 168.920966 125.672727 
L 169.559709 125.672727 
L 169.719395 123.86014 
L 169.879081 125.672727 
L 170.358138 125.672727 
L 170.517824 123.86014 
L 172.753425 123.86014 
L 172.913111 125.672727 
L 173.392168 125.672727 
L 173.551854 123.86014 
L 173.871226 123.86014 
L 174.030911 125.672727 
L 174.82934 125.672727 
L 174.989026 123.86014 
L 176.106827 123.86014 
L 176.266513 125.672727 
L 176.585884 125.672727 
L 176.905256 122.047552 
L 178.182742 122.047552 
L 178.342428 123.86014 
L 178.502114 123.86014 
L 178.6618 125.672727 
L 178.821486 123.86014 
L 179.300543 123.86014 
L 179.460229 125.672727 
L 179.939286 125.672727 
L 180.258658 129.297902 
L 180.418344 129.297902 
L 180.578029 131.11049 
L 181.057087 131.11049 
L 181.216773 129.297902 
L 181.376458 129.297902 
L 181.536144 131.11049 
L 181.69583 129.297902 
L 181.855516 129.297902 
L 182.015202 131.11049 
L 182.174887 131.11049 
L 182.334573 129.297902 
L 183.133002 129.297902 
L 183.452374 125.672727 
L 184.091117 125.672727 
L 184.250803 127.485315 
L 184.410489 127.485315 
L 184.570174 125.672727 
L 185.049232 125.672727 
L 185.368603 129.297902 
L 186.64609 129.297902 
L 186.805776 131.11049 
L 187.604205 131.11049 
L 187.76389 129.297902 
L 189.041377 129.297902 
L 189.201063 131.11049 
L 189.839806 131.11049 
L 189.999492 129.297902 
L 190.638235 129.297902 
L 190.797921 127.485315 
L 192.235093 127.485315 
L 192.394779 129.297902 
L 192.554465 127.485315 
L 192.71415 127.485315 
L 192.873836 125.672727 
L 193.193208 125.672727 
L 193.352894 127.485315 
L 193.831951 127.485315 
L 193.991637 129.297902 
L 194.311008 129.297902 
L 194.470694 127.485315 
L 195.109437 127.485315 
L 195.269123 129.297902 
L 195.428809 129.297902 
L 195.588495 131.11049 
L 195.748181 131.11049 
L 195.907866 129.297902 
L 196.386924 129.297902 
L 196.54661 131.11049 
L 196.706295 129.297902 
L 199.261268 129.297902 
L 199.420954 127.485315 
L 201.017812 127.485315 
L 201.177498 129.297902 
L 202.61467 129.297902 
L 202.774356 131.11049 
L 202.934042 131.11049 
L 203.093728 132.923077 
L 203.572785 132.923077 
L 203.732471 134.735664 
L 204.690586 134.735664 
L 204.850271 132.923077 
L 205.808386 132.923077 
L 205.968072 131.11049 
L 206.766501 131.11049 
L 206.926187 132.923077 
L 207.56493 132.923077 
L 207.724616 134.735664 
L 208.043988 134.735664 
L 208.203673 132.923077 
L 209.800531 132.923077 
L 209.960217 134.735664 
L 210.119903 134.735664 
L 210.279589 132.923077 
L 210.439275 132.923077 
L 210.59896 131.11049 
L 211.237704 131.11049 
L 211.397389 129.297902 
L 211.716761 132.923077 
L 211.876447 132.923077 
L 212.036133 131.11049 
L 212.355504 131.11049 
L 212.51519 129.297902 
L 213.313619 129.297902 
L 213.473305 127.485315 
L 213.792676 127.485315 
L 213.952362 125.672727 
L 216.028278 125.672727 
L 216.187963 123.86014 
L 216.986393 123.86014 
L 217.146078 122.047552 
L 217.46545 122.047552 
L 217.625136 123.86014 
L 218.263879 123.86014 
L 218.423565 125.672727 
L 218.583251 125.672727 
L 218.742936 123.86014 
L 220.49948 123.86014 
L 220.659166 122.047552 
L 221.936652 122.047552 
L 222.096338 123.86014 
L 224.172254 123.86014 
L 224.331939 122.047552 
L 224.491625 122.047552 
L 224.651311 123.86014 
L 225.130368 123.86014 
L 225.290054 122.047552 
L 225.44974 122.047552 
L 225.609426 123.86014 
L 225.769112 123.86014 
L 225.928798 122.047552 
L 226.407855 122.047552 
L 226.567541 120.234965 
L 227.046598 120.234965 
L 227.206284 118.422378 
L 227.36597 118.422378 
L 227.525656 116.60979 
L 229.761257 116.60979 
L 230.080628 120.234965 
L 232.954973 120.234965 
L 233.114659 118.422378 
L 233.593716 118.422378 
L 233.913088 114.797203 
L 234.551831 114.797203 
L 234.711517 112.984615 
L 234.871202 112.984615 
L 235.030888 111.172028 
L 235.509946 111.172028 
L 235.669632 109.359441 
L 236.308375 109.359441 
L 236.468061 111.172028 
L 236.627746 111.172028 
L 236.787432 112.984615 
L 237.26649 112.984615 
L 237.426175 114.797203 
L 238.064919 114.797203 
L 238.224604 116.60979 
L 238.38429 114.797203 
L 238.703662 114.797203 
L 238.863348 112.984615 
L 241.098949 112.984615 
L 241.41832 116.60979 
L 241.737692 116.60979 
L 241.897378 114.797203 
L 242.376435 114.797203 
L 242.536121 116.60979 
L 243.33455 116.60979 
L 243.653922 112.984615 
L 243.973293 112.984615 
L 244.132979 111.172028 
L 244.292665 111.172028 
L 244.452351 112.984615 
L 244.612037 112.984615 
L 244.931408 116.60979 
L 245.091094 116.60979 
L 245.25078 118.422378 
L 246.208895 118.422378 
L 246.36858 120.234965 
L 247.486381 120.234965 
L 247.646067 122.047552 
L 249.083239 122.047552 
L 249.242925 120.234965 
L 249.402611 120.234965 
L 249.562296 118.422378 
L 250.20104 118.422378 
L 250.360725 116.60979 
L 250.520411 118.422378 
L 252.915698 118.422378 
L 253.075384 116.60979 
L 253.873813 116.60979 
L 254.033499 114.797203 
L 256.109414 114.797203 
L 256.428786 118.422378 
L 257.865958 118.422378 
L 258.18533 122.047552 
L 259.143445 122.047552 
L 259.30313 123.86014 
L 260.261245 123.86014 
L 260.420931 122.047552 
L 261.059674 122.047552 
L 261.379046 125.672727 
L 261.858103 125.672727 
L 262.017789 123.86014 
L 263.774333 123.86014 
L 263.934019 125.672727 
L 264.892134 125.672727 
L 265.051819 127.485315 
L 266.329306 127.485315 
L 266.488992 129.297902 
L 267.606792 129.297902 
L 267.766478 131.11049 
L 268.245535 131.11049 
L 268.405221 129.297902 
L 268.564907 129.297902 
L 268.724593 127.485315 
L 269.20365 127.485315 
L 269.363336 125.672727 
L 270.002079 125.672727 
L 270.161765 123.86014 
L 270.800508 123.86014 
L 271.11988 127.485315 
L 271.439251 127.485315 
L 271.598937 125.672727 
L 272.876424 125.672727 
L 273.03611 127.485315 
L 273.355481 123.86014 
L 274.313596 123.86014 
L 274.473282 122.047552 
L 275.750768 122.047552 
L 275.910454 123.86014 
L 276.229826 123.86014 
L 276.389511 122.047552 
L 276.549197 122.047552 
L 276.708883 120.234965 
L 277.028255 120.234965 
L 277.18794 118.422378 
L 277.347626 120.234965 
L 277.826684 120.234965 
L 277.986369 122.047552 
L 278.146055 122.047552 
L 278.305741 120.234965 
L 279.423542 120.234965 
L 279.583227 118.422378 
L 279.742913 120.234965 
L 280.221971 120.234965 
L 280.381656 122.047552 
L 280.701028 122.047552 
L 280.860714 123.86014 
L 281.659143 123.86014 
L 281.818829 125.672727 
L 282.297886 125.672727 
L 282.457572 123.86014 
L 284.533487 123.86014 
L 284.693173 125.672727 
L 286.449717 125.672727 
L 286.769089 129.297902 
L 288.046575 129.297902 
L 288.525632 123.86014 
L 289.324061 123.86014 
L 289.483747 122.047552 
L 289.962805 122.047552 
L 290.12249 120.234965 
L 292.517778 120.234965 
L 292.677463 122.047552 
L 292.996835 122.047552 
L 293.316207 118.422378 
L 294.593693 118.422378 
L 294.593693 118.422378 
" clip-path="url(#p03ec77640f)" style="fill: none; stroke: #e377c2; stroke-width: 1.5; stroke-linecap: square"/>
   </g>
   <g id="line2d_23">
    <path d="M 104.727273 78.545455 
L 302.258612 78.545455 
L 302.258612 78.545455 
" clip-path="url(#p03ec77640f)" style="fill: none; stroke: #7f7f7f; stroke-width: 1.5; stroke-linecap: square"/>
   </g>
   <g id="line2d_24">
    <path d="M 104.727273 263.429371 
L 105.046644 267.054545 
L 105.525702 267.054545 
L 105.685388 265.241958 
L 105.845073 265.241958 
L 106.004759 267.054545 
L 106.164445 265.241958 
L 106.803188 265.241958 
L 106.962874 267.054545 
L 107.12256 267.054545 
L 107.282246 265.241958 
L 108.400046 265.241958 
L 108.559732 263.429371 
L 108.719418 263.429371 
L 108.879104 261.616783 
L 109.038789 261.616783 
L 109.198475 259.804196 
L 109.358161 259.804196 
L 109.677533 263.429371 
L 109.837218 261.616783 
L 109.996904 261.616783 
L 110.15659 259.804196 
L 110.316276 261.616783 
L 110.475962 261.616783 
L 110.635647 259.804196 
L 110.955019 259.804196 
L 111.114705 257.991608 
L 111.274391 257.991608 
L 111.434076 256.179021 
L 111.593762 256.179021 
L 111.913134 252.553846 
L 112.551877 252.553846 
L 112.711563 254.366434 
L 113.030935 250.741259 
L 113.19062 252.553846 
L 113.350306 250.741259 
L 114.148735 250.741259 
L 114.308421 248.928671 
L 114.468107 248.928671 
L 114.627793 247.116084 
L 114.947164 247.116084 
L 115.10685 245.303497 
L 115.266536 245.303497 
L 115.426222 243.490909 
L 115.585907 243.490909 
L 116.544022 232.615385 
L 116.703708 232.615385 
L 116.863394 234.427972 
L 117.661823 225.365035 
L 117.821509 225.365035 
L 118.460252 218.114685 
L 118.619938 218.114685 
L 118.939309 214.48951 
L 119.098995 214.48951 
L 119.578052 209.051748 
L 119.897424 209.051748 
L 120.536167 201.801399 
L 120.855539 201.801399 
L 121.494282 194.551049 
L 121.813654 194.551049 
L 121.973339 192.738462 
L 122.133025 192.738462 
L 122.292711 190.925874 
L 122.612083 190.925874 
L 123.570198 180.05035 
L 123.729883 181.862937 
L 124.368627 174.612587 
L 124.847684 174.612587 
L 125.486427 167.362238 
L 125.965485 167.362238 
L 126.444542 161.924476 
L 126.763914 161.924476 
L 127.242971 156.486713 
L 128.0414 156.486713 
L 128.201086 154.674126 
L 128.360772 156.486713 
L 128.680143 152.861538 
L 129.478572 152.861538 
L 129.797944 149.236364 
L 129.95763 149.236364 
L 130.117315 147.423776 
L 130.277001 147.423776 
L 130.596373 143.798601 
L 131.235116 143.798601 
L 131.714174 138.360839 
L 132.193231 138.360839 
L 132.352917 136.548252 
L 132.512603 136.548252 
L 132.672288 134.735664 
L 132.831974 134.735664 
L 132.99166 132.923077 
L 133.311032 132.923077 
L 133.470717 131.11049 
L 134.109461 131.11049 
L 134.269146 129.297902 
L 134.588518 129.297902 
L 134.748204 131.11049 
L 135.227261 131.11049 
L 135.386947 129.297902 
L 135.706319 129.297902 
L 135.866004 127.485315 
L 136.02569 129.297902 
L 136.345062 129.297902 
L 136.664433 132.923077 
L 136.983805 129.297902 
L 137.782234 129.297902 
L 137.94192 127.485315 
L 138.261291 131.11049 
L 138.740349 131.11049 
L 138.900035 129.297902 
L 139.698464 129.297902 
L 139.858149 131.11049 
L 140.017835 129.297902 
L 141.455008 129.297902 
L 141.614693 127.485315 
L 141.774379 127.485315 
L 141.934065 125.672727 
L 142.093751 125.672727 
L 142.253437 123.86014 
L 142.732494 123.86014 
L 142.89218 122.047552 
L 144.489038 122.047552 
L 144.648724 120.234965 
L 144.968095 120.234965 
L 145.127781 118.422378 
L 145.287467 120.234965 
L 145.766524 120.234965 
L 145.92621 122.047552 
L 146.245582 122.047552 
L 146.405267 120.234965 
L 148.640869 120.234965 
L 148.800554 118.422378 
L 150.397412 118.422378 
L 150.557098 116.60979 
L 151.515213 116.60979 
L 151.674899 114.797203 
L 153.591129 114.797203 
L 153.750814 112.984615 
L 153.9105 112.984615 
L 154.070186 111.172028 
L 154.389558 111.172028 
L 154.549243 109.359441 
L 155.507358 109.359441 
L 155.667044 107.546853 
L 156.305787 107.546853 
L 156.465473 105.734266 
L 157.423588 105.734266 
L 157.742959 102.109091 
L 158.86076 102.109091 
L 159.020446 103.921678 
L 160.138247 103.921678 
L 160.297932 102.109091 
L 160.617304 102.109091 
L 160.77699 103.921678 
L 162.693219 103.921678 
L 162.852905 102.109091 
L 164.449763 102.109091 
L 164.609449 103.921678 
L 165.72725 103.921678 
L 165.886935 105.734266 
L 166.525679 105.734266 
L 166.685364 103.921678 
L 167.803165 103.921678 
L 167.962851 102.109091 
L 168.282222 102.109091 
L 168.601594 98.483916 
L 169.879081 98.483916 
L 170.198452 94.858741 
L 170.837195 94.858741 
L 170.996881 96.671329 
L 171.635624 96.671329 
L 171.79531 94.858741 
L 173.232482 94.858741 
L 173.392168 93.046154 
L 175.148712 93.046154 
L 175.308398 94.858741 
L 177.064942 94.858741 
L 177.224627 93.046154 
L 177.703685 93.046154 
L 177.863371 91.233566 
L 178.023056 93.046154 
L 178.981171 93.046154 
L 179.140857 91.233566 
L 179.300543 93.046154 
L 179.619915 93.046154 
L 179.7796 94.858741 
L 181.69583 94.858741 
L 181.855516 96.671329 
L 184.570174 96.671329 
L 184.72986 98.483916 
L 186.167032 98.483916 
L 186.326718 100.296503 
L 186.64609 100.296503 
L 186.805776 102.109091 
L 188.242948 102.109091 
L 188.402634 103.921678 
L 189.201063 103.921678 
L 189.360749 105.734266 
L 189.839806 105.734266 
L 189.999492 107.546853 
L 190.797921 107.546853 
L 190.957607 105.734266 
L 192.554465 105.734266 
L 192.71415 103.921678 
L 196.386924 103.921678 
L 196.54661 102.109091 
L 197.66441 102.109091 
L 197.824096 100.296503 
L 202.295299 100.296503 
L 202.454984 102.109091 
L 202.61467 102.109091 
L 202.774356 103.921678 
L 202.934042 102.109091 
L 206.287444 102.109091 
L 206.447129 103.921678 
L 209.800531 103.921678 
L 209.960217 102.109091 
L 210.59896 102.109091 
L 210.758646 103.921678 
L 211.078018 103.921678 
L 211.237704 102.109091 
L 211.557075 102.109091 
L 211.716761 100.296503 
L 213.632991 100.296503 
L 213.792676 98.483916 
L 215.229849 98.483916 
L 215.389534 100.296503 
L 216.028278 100.296503 
L 216.187963 102.109091 
L 216.507335 102.109091 
L 216.667021 100.296503 
L 216.826707 102.109091 
L 218.104193 102.109091 
L 218.263879 100.296503 
L 218.583251 100.296503 
L 218.742936 98.483916 
L 220.180109 98.483916 
L 220.339794 96.671329 
L 221.138223 96.671329 
L 221.297909 94.858741 
L 221.457595 94.858741 
L 221.776967 98.483916 
L 225.130368 98.483916 
L 225.290054 100.296503 
L 226.407855 100.296503 
L 226.567541 102.109091 
L 228.164399 102.109091 
L 228.324085 103.921678 
L 228.803142 103.921678 
L 228.962828 105.734266 
L 231.677486 105.734266 
L 231.837172 107.546853 
L 234.232459 107.546853 
L 234.392145 105.734266 
L 234.551831 105.734266 
L 234.711517 103.921678 
L 236.787432 103.921678 
L 236.947118 105.734266 
L 238.224604 105.734266 
L 238.38429 103.921678 
L 239.023033 103.921678 
L 239.182719 102.109091 
L 240.779577 102.109091 
L 240.939263 103.921678 
L 242.057064 103.921678 
L 242.216749 105.734266 
L 242.536121 105.734266 
L 242.695807 103.921678 
L 245.729837 103.921678 
L 245.889523 105.734266 
L 247.167009 105.734266 
L 247.326695 103.921678 
L 247.965438 103.921678 
L 248.125124 102.109091 
L 248.604182 102.109091 
L 248.763867 100.296503 
L 250.360725 100.296503 
L 250.520411 102.109091 
L 250.839783 102.109091 
L 250.999469 103.921678 
L 251.638212 103.921678 
L 251.797898 105.734266 
L 252.276955 105.734266 
L 252.436641 107.546853 
L 252.915698 107.546853 
L 253.075384 109.359441 
L 253.394756 109.359441 
L 253.873813 103.921678 
L 254.033499 103.921678 
L 254.193185 105.734266 
L 257.067529 105.734266 
L 257.227215 103.921678 
L 257.706272 103.921678 
L 257.865958 105.734266 
L 258.345016 105.734266 
L 258.504701 103.921678 
L 258.983759 103.921678 
L 259.143445 105.734266 
L 260.101559 105.734266 
L 260.261245 103.921678 
L 260.740303 103.921678 
L 260.899988 102.109091 
L 261.858103 102.109091 
L 262.017789 103.921678 
L 263.614647 103.921678 
L 263.774333 102.109091 
L 271.598937 102.109091 
L 271.758623 103.921678 
L 272.716738 103.921678 
L 272.876424 102.109091 
L 276.389511 102.109091 
L 276.549197 103.921678 
L 277.666998 103.921678 
L 277.826684 102.109091 
L 282.297886 102.109091 
L 282.457572 100.296503 
L 282.776944 100.296503 
L 282.936629 98.483916 
L 283.575373 98.483916 
L 283.735058 96.671329 
L 284.214116 96.671329 
L 284.373802 94.858741 
L 284.852859 94.858741 
L 285.012545 93.046154 
L 285.97066 93.046154 
L 286.130345 91.233566 
L 287.08846 91.233566 
L 287.248146 93.046154 
L 289.164376 93.046154 
L 289.483747 96.671329 
L 289.643433 96.671329 
L 289.803119 94.858741 
L 290.920919 94.858741 
L 291.080605 93.046154 
L 291.719349 93.046154 
L 291.879034 94.858741 
L 293.795264 94.858741 
L 293.95495 93.046154 
L 295.392122 93.046154 
L 295.551808 94.858741 
L 295.711494 94.858741 
L 295.871179 96.671329 
L 298.745524 96.671329 
L 298.90521 98.483916 
L 299.703639 98.483916 
L 299.863324 100.296503 
L 300.182696 100.296503 
L 300.502068 103.921678 
L 300.661753 103.921678 
L 300.821439 102.109091 
L 303.376412 102.109091 
L 303.536098 103.921678 
L 305.931385 103.921678 
L 306.091071 102.109091 
L 306.250757 102.109091 
L 306.410442 103.921678 
L 306.570128 103.921678 
L 306.729814 105.734266 
L 308.326672 105.734266 
L 308.486358 103.921678 
L 311.83976 103.921678 
L 311.999446 105.734266 
L 313.755989 105.734266 
L 313.915675 107.546853 
L 315.193162 107.546853 
L 315.512533 111.172028 
L 315.831905 111.172028 
L 315.991591 112.984615 
L 319.025621 112.984615 
L 319.185307 111.172028 
L 319.983736 111.172028 
L 320.143422 112.984615 
L 321.101536 112.984615 
L 321.420908 109.359441 
L 323.656509 109.359441 
L 323.816195 107.546853 
L 327.329283 107.546853 
L 327.488968 105.734266 
L 327.648654 105.734266 
L 327.80834 103.921678 
L 329.72457 103.921678 
L 329.884256 105.734266 
L 330.682685 105.734266 
L 330.84237 103.921678 
L 331.640799 103.921678 
L 331.800485 102.109091 
L 332.119857 102.109091 
L 332.439228 98.483916 
L 333.557029 98.483916 
L 333.716715 100.296503 
L 335.313573 100.296503 
L 335.632944 96.671329 
L 338.187917 96.671329 
L 338.347603 94.858741 
L 339.62509 94.858741 
L 339.784775 96.671329 
L 340.104147 96.671329 
L 340.423519 100.296503 
L 340.74289 100.296503 
L 340.902576 102.109091 
L 341.860691 102.109091 
L 342.020377 103.921678 
L 343.77692 103.921678 
L 343.936606 102.109091 
L 345.69315 102.109091 
L 345.852836 100.296503 
L 346.810951 100.296503 
L 346.970636 102.109091 
L 347.130322 102.109091 
L 347.449694 98.483916 
L 347.769065 98.483916 
L 347.928751 96.671329 
L 350.64341 96.671329 
L 350.803096 98.483916 
L 351.920896 98.483916 
L 352.080582 96.671329 
L 356.072727 96.671329 
L 356.072727 96.671329 
" clip-path="url(#p03ec77640f)" style="fill: none; stroke: #bcbd22; stroke-width: 1.5; stroke-linecap: square"/>
   </g>
   <g id="patch_3">
    <path d="M 92.16 276.48 
L 92.16 69.12 
" style="fill: none; stroke: #000000; stroke-width: 0.8; stroke-linejoin: miter; stroke-linecap: square"/>
   </g>
   <g id="patch_4">
    <path d="M 368.64 276.48 
L 368.64 69.12 
" style="fill: none; stroke: #000000; stroke-width: 0.8; stroke-linejoin: miter; stroke-linecap: square"/>
   </g>
   <g id="patch_5">
    <path d="M 92.16 276.48 
L 368.64 276.48 
" style="fill: none; stroke: #000000; stroke-width: 0.8; stroke-linejoin: miter; stroke-linecap: square"/>
   </g>
   <g id="patch_6">
    <path d="M 92.16 69.12 
L 368.64 69.12 
" style="fill: none; stroke: #000000; stroke-width: 0.8; stroke-linejoin: miter; stroke-linecap: square"/>
   </g>
   <g id="text_16">
    <!-- fixed_woosterprobe_2afc_og -->
    <g transform="translate(145.171875 63.12) scale(0.12 -0.12)">
     <defs>
      <path id="DejaVuSans-66" d="M 2375 4863 
L 2375 4384 
L 1825 4384 
Q 1516 4384 1395 4259 
Q 1275 4134 1275 3809 
L 1275 3500 
L 2222 3500 
L 2222 3053 
L 1275 3053 
L 1275 0 
L 697 0 
L 697 3053 
L 147 3053 
L 147 3500 
L 697 3500 
L 697 3744 
Q 697 4328 969 4595 
Q 1241 4863 1831 4863 
L 2375 4863 
z
" transform="scale(0.015625)"/>
      <path id="DejaVuSans-69" d="M 603 3500 
L 1178 3500 
L 1178 0 
L 603 0 
L 603 3500 
z
M 603 4863 
L 1178 4863 
L 1178 4134 
L 603 4134 
L 603 4863 
z
" transform="scale(0.015625)"/>
      <path id="DejaVuSans-78" d="M 3513 3500 
L 2247 1797 
L 3578 0 
L 2900 0 
L 1881 1375 
L 863 0 
L 184 0 
L 1544 1831 
L 300 3500 
L 978 3500 
L 1906 2253 
L 2834 3500 
L 3513 3500 
z
" transform="scale(0.015625)"/>
      <path id="DejaVuSans-65" d="M 3597 1894 
L 3597 1613 
L 953 1613 
Q 991 1019 1311 708 
Q 1631 397 2203 397 
Q 2534 397 2845 478 
Q 3156 559 3463 722 
L 3463 178 
Q 3153 47 2828 -22 
Q 2503 -91 2169 -91 
Q 1331 -91 842 396 
Q 353 884 353 1716 
Q 353 2575 817 3079 
Q 1281 3584 2069 3584 
Q 2775 3584 3186 3129 
Q 3597 2675 3597 1894 
z
M 3022 2063 
Q 3016 2534 2758 2815 
Q 2500 3097 2075 3097 
Q 1594 3097 1305 2825 
Q 1016 2553 972 2059 
L 3022 2063 
z
" transform="scale(0.015625)"/>
      <path id="DejaVuSans-64" d="M 2906 2969 
L 2906 4863 
L 3481 4863 
L 3481 0 
L 2906 0 
L 2906 525 
Q 2725 213 2448 61 
Q 2172 -91 1784 -91 
Q 1150 -91 751 415 
Q 353 922 353 1747 
Q 353 2572 751 3078 
Q 1150 3584 1784 3584 
Q 2172 3584 2448 3432 
Q 2725 3281 2906 2969 
z
M 947 1747 
Q 947 1113 1208 752 
Q 1469 391 1925 391 
Q 2381 391 2643 752 
Q 2906 1113 2906 1747 
Q 2906 2381 2643 2742 
Q 2381 3103 1925 3103 
Q 1469 3103 1208 2742 
Q 947 2381 947 1747 
z
" transform="scale(0.015625)"/>
      <path id="DejaVuSans-5f" d="M 3263 -1063 
L 3263 -1509 
L -63 -1509 
L -63 -1063 
L 3263 -1063 
z
" transform="scale(0.015625)"/>
      <path id="DejaVuSans-77" d="M 269 3500 
L 844 3500 
L 1563 769 
L 2278 3500 
L 2956 3500 
L 3675 769 
L 4391 3500 
L 4966 3500 
L 4050 0 
L 3372 0 
L 2619 2869 
L 1863 0 
L 1184 0 
L 269 3500 
z
" transform="scale(0.015625)"/>
      <path id="DejaVuSans-6f" d="M 1959 3097 
Q 1497 3097 1228 2736 
Q 959 2375 959 1747 
Q 959 1119 1226 758 
Q 1494 397 1959 397 
Q 2419 397 2687 759 
Q 2956 1122 2956 1747 
Q 2956 2369 2687 2733 
Q 2419 3097 1959 3097 
z
M 1959 3584 
Q 2709 3584 3137 3096 
Q 3566 2609 3566 1747 
Q 3566 888 3137 398 
Q 2709 -91 1959 -91 
Q 1206 -91 779 398 
Q 353 888 353 1747 
Q 353 2609 779 3096 
Q 1206 3584 1959 3584 
z
" transform="scale(0.015625)"/>
      <path id="DejaVuSans-73" d="M 2834 3397 
L 2834 2853 
Q 2591 2978 2328 3040 
Q 2066 3103 1784 3103 
Q 1356 3103 1142 2972 
Q 928 2841 928 2578 
Q 928 2378 1081 2264 
Q 1234 2150 1697 2047 
L 1894 2003 
Q 2506 1872 2764 1633 
Q 3022 1394 3022 966 
Q 3022 478 2636 193 
Q 2250 -91 1575 -91 
Q 1294 -91 989 -36 
Q 684 19 347 128 
L 347 722 
Q 666 556 975 473 
Q 1284 391 1588 391 
Q 1994 391 2212 530 
Q 2431 669 2431 922 
Q 2431 1156 2273 1281 
Q 2116 1406 1581 1522 
L 1381 1569 
Q 847 1681 609 1914 
Q 372 2147 372 2553 
Q 372 3047 722 3315 
Q 1072 3584 1716 3584 
Q 2034 3584 2315 3537 
Q 2597 3491 2834 3397 
z
" transform="scale(0.015625)"/>
      <path id="DejaVuSans-74" d="M 1172 4494 
L 1172 3500 
L 2356 3500 
L 2356 3053 
L 1172 3053 
L 1172 1153 
Q 1172 725 1289 603 
Q 1406 481 1766 481 
L 2356 481 
L 2356 0 
L 1766 0 
Q 1100 0 847 248 
Q 594 497 594 1153 
L 594 3053 
L 172 3053 
L 172 3500 
L 594 3500 
L 594 4494 
L 1172 4494 
z
" transform="scale(0.015625)"/>
      <path id="DejaVuSans-72" d="M 2631 2963 
Q 2534 3019 2420 3045 
Q 2306 3072 2169 3072 
Q 1681 3072 1420 2755 
Q 1159 2438 1159 1844 
L 1159 0 
L 581 0 
L 581 3500 
L 1159 3500 
L 1159 2956 
Q 1341 3275 1631 3429 
Q 1922 3584 2338 3584 
Q 2397 3584 2469 3576 
Q 2541 3569 2628 3553 
L 2631 2963 
z
" transform="scale(0.015625)"/>
      <path id="DejaVuSans-70" d="M 1159 525 
L 1159 -1331 
L 581 -1331 
L 581 3500 
L 1159 3500 
L 1159 2969 
Q 1341 3281 1617 3432 
Q 1894 3584 2278 3584 
Q 2916 3584 3314 3078 
Q 3713 2572 3713 1747 
Q 3713 922 3314 415 
Q 2916 -91 2278 -91 
Q 1894 -91 1617 61 
Q 1341 213 1159 525 
z
M 3116 1747 
Q 3116 2381 2855 2742 
Q 2594 3103 2138 3103 
Q 1681 3103 1420 2742 
Q 1159 2381 1159 1747 
Q 1159 1113 1420 752 
Q 1681 391 2138 391 
Q 2594 391 2855 752 
Q 3116 1113 3116 1747 
z
" transform="scale(0.015625)"/>
      <path id="DejaVuSans-62" d="M 3116 1747 
Q 3116 2381 2855 2742 
Q 2594 3103 2138 3103 
Q 1681 3103 1420 2742 
Q 1159 2381 1159 1747 
Q 1159 1113 1420 752 
Q 1681 391 2138 391 
Q 2594 391 2855 752 
Q 3116 1113 3116 1747 
z
M 1159 2969 
Q 1341 3281 1617 3432 
Q 1894 3584 2278 3584 
Q 2916 3584 3314 3078 
Q 3713 2572 3713 1747 
Q 3713 922 3314 415 
Q 2916 -91 2278 -91 
Q 1894 -91 1617 61 
Q 1341 213 1159 525 
L 1159 0 
L 581 0 
L 581 4863 
L 1159 4863 
L 1159 2969 
z
" transform="scale(0.015625)"/>
      <path id="DejaVuSans-61" d="M 2194 1759 
Q 1497 1759 1228 1600 
Q 959 1441 959 1056 
Q 959 750 1161 570 
Q 1363 391 1709 391 
Q 2188 391 2477 730 
Q 2766 1069 2766 1631 
L 2766 1759 
L 2194 1759 
z
M 3341 1997 
L 3341 0 
L 2766 0 
L 2766 531 
Q 2569 213 2275 61 
Q 1981 -91 1556 -91 
Q 1019 -91 701 211 
Q 384 513 384 1019 
Q 384 1609 779 1909 
Q 1175 2209 1959 2209 
L 2766 2209 
L 2766 2266 
Q 2766 2663 2505 2880 
Q 2244 3097 1772 3097 
Q 1472 3097 1187 3025 
Q 903 2953 641 2809 
L 641 3341 
Q 956 3463 1253 3523 
Q 1550 3584 1831 3584 
Q 2591 3584 2966 3190 
Q 3341 2797 3341 1997 
z
" transform="scale(0.015625)"/>
      <path id="DejaVuSans-63" d="M 3122 3366 
L 3122 2828 
Q 2878 2963 2633 3030 
Q 2388 3097 2138 3097 
Q 1578 3097 1268 2742 
Q 959 2388 959 1747 
Q 959 1106 1268 751 
Q 1578 397 2138 397 
Q 2388 397 2633 464 
Q 2878 531 3122 666 
L 3122 134 
Q 2881 22 2623 -34 
Q 2366 -91 2075 -91 
Q 1284 -91 818 406 
Q 353 903 353 1747 
Q 353 2603 823 3093 
Q 1294 3584 2113 3584 
Q 2378 3584 2631 3529 
Q 2884 3475 3122 3366 
z
" transform="scale(0.015625)"/>
      <path id="DejaVuSans-67" d="M 2906 1791 
Q 2906 2416 2648 2759 
Q 2391 3103 1925 3103 
Q 1463 3103 1205 2759 
Q 947 2416 947 1791 
Q 947 1169 1205 825 
Q 1463 481 1925 481 
Q 2391 481 2648 825 
Q 2906 1169 2906 1791 
z
M 3481 434 
Q 3481 -459 3084 -895 
Q 2688 -1331 1869 -1331 
Q 1566 -1331 1297 -1286 
Q 1028 -1241 775 -1147 
L 775 -588 
Q 1028 -725 1275 -790 
Q 1522 -856 1778 -856 
Q 2344 -856 2625 -561 
Q 2906 -266 2906 331 
L 2906 616 
Q 2728 306 2450 153 
Q 2172 0 1784 0 
Q 1141 0 747 490 
Q 353 981 353 1791 
Q 353 2603 747 3093 
Q 1141 3584 1784 3584 
Q 2172 3584 2450 3431 
Q 2728 3278 2906 2969 
L 2906 3500 
L 3481 3500 
L 3481 434 
z
" transform="scale(0.015625)"/>
     </defs>
     <use xlink:href="#DejaVuSans-66"/>
     <use xlink:href="#DejaVuSans-69" x="35.205078"/>
     <use xlink:href="#DejaVuSans-78" x="62.988281"/>
     <use xlink:href="#DejaVuSans-65" x="119.042969"/>
     <use xlink:href="#DejaVuSans-64" x="180.566406"/>
     <use xlink:href="#DejaVuSans-5f" x="244.042969"/>
     <use xlink:href="#DejaVuSans-77" x="294.042969"/>
     <use xlink:href="#DejaVuSans-6f" x="375.830078"/>
     <use xlink:href="#DejaVuSans-6f" x="437.011719"/>
     <use xlink:href="#DejaVuSans-73" x="498.193359"/>
     <use xlink:href="#DejaVuSans-74" x="550.292969"/>
     <use xlink:href="#DejaVuSans-65" x="589.501953"/>
     <use xlink:href="#DejaVuSans-72" x="651.025391"/>
     <use xlink:href="#DejaVuSans-70" x="692.138672"/>
     <use xlink:href="#DejaVuSans-72" x="755.615234"/>
     <use xlink:href="#DejaVuSans-6f" x="794.478516"/>
     <use xlink:href="#DejaVuSans-62" x="855.660156"/>
     <use xlink:href="#DejaVuSans-65" x="919.136719"/>
     <use xlink:href="#DejaVuSans-5f" x="980.660156"/>
     <use xlink:href="#DejaVuSans-32" x="1030.660156"/>
     <use xlink:href="#DejaVuSans-61" x="1094.283203"/>
     <use xlink:href="#DejaVuSans-66" x="1155.5625"/>
     <use xlink:href="#DejaVuSans-63" x="1190.767578"/>
     <use xlink:href="#DejaVuSans-5f" x="1245.748047"/>
     <use xlink:href="#DejaVuSans-6f" x="1295.748047"/>
     <use xlink:href="#DejaVuSans-67" x="1356.929688"/>
    </g>
   </g>
   <g id="legend_1">
    <g id="patch_7">
     <path d="M 146.311875 271.48 
L 361.64 271.48 
Q 363.64 271.48 363.64 269.48 
L 363.64 165.78625 
Q 363.64 163.78625 361.64 163.78625 
L 146.311875 163.78625 
Q 144.311875 163.78625 144.311875 165.78625 
L 144.311875 269.48 
Q 144.311875 271.48 146.311875 271.48 
z
" style="fill: #ffffff; opacity: 0.8; stroke: #cccccc; stroke-linejoin: miter"/>
    </g>
    <g id="line2d_25">
     <path d="M 148.311875 171.884687 
L 158.311875 171.884687 
L 168.311875 171.884687 
" style="fill: none; stroke: #1f77b4; stroke-width: 1.5; stroke-linecap: square"/>
    </g>
    <g id="text_17">
     <!-- low_guass_colored_shape_to_color -->
     <g transform="translate(176.311875 175.384687) scale(0.1 -0.1)">
      <defs>
       <path id="DejaVuSans-6c" d="M 603 4863 
L 1178 4863 
L 1178 0 
L 603 0 
L 603 4863 
z
" transform="scale(0.015625)"/>
       <path id="DejaVuSans-75" d="M 544 1381 
L 544 3500 
L 1119 3500 
L 1119 1403 
Q 1119 906 1312 657 
Q 1506 409 1894 409 
Q 2359 409 2629 706 
Q 2900 1003 2900 1516 
L 2900 3500 
L 3475 3500 
L 3475 0 
L 2900 0 
L 2900 538 
Q 2691 219 2414 64 
Q 2138 -91 1772 -91 
Q 1169 -91 856 284 
Q 544 659 544 1381 
z
M 1991 3584 
L 1991 3584 
z
" transform="scale(0.015625)"/>
       <path id="DejaVuSans-68" d="M 3513 2113 
L 3513 0 
L 2938 0 
L 2938 2094 
Q 2938 2591 2744 2837 
Q 2550 3084 2163 3084 
Q 1697 3084 1428 2787 
Q 1159 2491 1159 1978 
L 1159 0 
L 581 0 
L 581 4863 
L 1159 4863 
L 1159 2956 
Q 1366 3272 1645 3428 
Q 1925 3584 2291 3584 
Q 2894 3584 3203 3211 
Q 3513 2838 3513 2113 
z
" transform="scale(0.015625)"/>
      </defs>
      <use xlink:href="#DejaVuSans-6c"/>
      <use xlink:href="#DejaVuSans-6f" x="27.783203"/>
      <use xlink:href="#DejaVuSans-77" x="88.964844"/>
      <use xlink:href="#DejaVuSans-5f" x="170.751953"/>
      <use xlink:href="#DejaVuSans-67" x="220.751953"/>
      <use xlink:href="#DejaVuSans-75" x="284.228516"/>
      <use xlink:href="#DejaVuSans-61" x="347.607422"/>
      <use xlink:href="#DejaVuSans-73" x="408.886719"/>
      <use xlink:href="#DejaVuSans-73" x="460.986328"/>
      <use xlink:href="#DejaVuSans-5f" x="513.085938"/>
      <use xlink:href="#DejaVuSans-63" x="563.085938"/>
      <use xlink:href="#DejaVuSans-6f" x="618.066406"/>
      <use xlink:href="#DejaVuSans-6c" x="679.248047"/>
      <use xlink:href="#DejaVuSans-6f" x="707.03125"/>
      <use xlink:href="#DejaVuSans-72" x="768.212891"/>
      <use xlink:href="#DejaVuSans-65" x="807.076172"/>
      <use xlink:href="#DejaVuSans-64" x="868.599609"/>
      <use xlink:href="#DejaVuSans-5f" x="932.076172"/>
      <use xlink:href="#DejaVuSans-73" x="982.076172"/>
      <use xlink:href="#DejaVuSans-68" x="1034.175781"/>
      <use xlink:href="#DejaVuSans-61" x="1097.554688"/>
      <use xlink:href="#DejaVuSans-70" x="1158.833984"/>
      <use xlink:href="#DejaVuSans-65" x="1222.310547"/>
      <use xlink:href="#DejaVuSans-5f" x="1283.833984"/>
      <use xlink:href="#DejaVuSans-74" x="1333.833984"/>
      <use xlink:href="#DejaVuSans-6f" x="1373.042969"/>
      <use xlink:href="#DejaVuSans-5f" x="1434.224609"/>
      <use xlink:href="#DejaVuSans-63" x="1484.224609"/>
      <use xlink:href="#DejaVuSans-6f" x="1539.205078"/>
      <use xlink:href="#DejaVuSans-6c" x="1600.386719"/>
      <use xlink:href="#DejaVuSans-6f" x="1628.169922"/>
      <use xlink:href="#DejaVuSans-72" x="1689.351562"/>
     </g>
    </g>
    <g id="line2d_26">
     <path d="M 148.311875 186.840937 
L 158.311875 186.840937 
L 168.311875 186.840937 
" style="fill: none; stroke: #ff7f0e; stroke-width: 1.5; stroke-linecap: square"/>
    </g>
    <g id="text_18">
     <!-- high_guass_colored_shape_to_color -->
     <g transform="translate(176.311875 190.340937) scale(0.1 -0.1)">
      <use xlink:href="#DejaVuSans-68"/>
      <use xlink:href="#DejaVuSans-69" x="63.378906"/>
      <use xlink:href="#DejaVuSans-67" x="91.162109"/>
      <use xlink:href="#DejaVuSans-68" x="154.638672"/>
      <use xlink:href="#DejaVuSans-5f" x="218.017578"/>
      <use xlink:href="#DejaVuSans-67" x="268.017578"/>
      <use xlink:href="#DejaVuSans-75" x="331.494141"/>
      <use xlink:href="#DejaVuSans-61" x="394.873047"/>
      <use xlink:href="#DejaVuSans-73" x="456.152344"/>
      <use xlink:href="#DejaVuSans-73" x="508.251953"/>
      <use xlink:href="#DejaVuSans-5f" x="560.351562"/>
      <use xlink:href="#DejaVuSans-63" x="610.351562"/>
      <use xlink:href="#DejaVuSans-6f" x="665.332031"/>
      <use xlink:href="#DejaVuSans-6c" x="726.513672"/>
      <use xlink:href="#DejaVuSans-6f" x="754.296875"/>
      <use xlink:href="#DejaVuSans-72" x="815.478516"/>
      <use xlink:href="#DejaVuSans-65" x="854.341797"/>
      <use xlink:href="#DejaVuSans-64" x="915.865234"/>
      <use xlink:href="#DejaVuSans-5f" x="979.341797"/>
      <use xlink:href="#DejaVuSans-73" x="1029.341797"/>
      <use xlink:href="#DejaVuSans-68" x="1081.441406"/>
      <use xlink:href="#DejaVuSans-61" x="1144.820312"/>
      <use xlink:href="#DejaVuSans-70" x="1206.099609"/>
      <use xlink:href="#DejaVuSans-65" x="1269.576172"/>
      <use xlink:href="#DejaVuSans-5f" x="1331.099609"/>
      <use xlink:href="#DejaVuSans-74" x="1381.099609"/>
      <use xlink:href="#DejaVuSans-6f" x="1420.308594"/>
      <use xlink:href="#DejaVuSans-5f" x="1481.490234"/>
      <use xlink:href="#DejaVuSans-63" x="1531.490234"/>
      <use xlink:href="#DejaVuSans-6f" x="1586.470703"/>
      <use xlink:href="#DejaVuSans-6c" x="1647.652344"/>
      <use xlink:href="#DejaVuSans-6f" x="1675.435547"/>
      <use xlink:href="#DejaVuSans-72" x="1736.617188"/>
     </g>
    </g>
    <g id="line2d_27">
     <path d="M 148.311875 201.797187 
L 158.311875 201.797187 
L 168.311875 201.797187 
" style="fill: none; stroke: #2ca02c; stroke-width: 1.5; stroke-linecap: square"/>
    </g>
    <g id="text_19">
     <!-- low_guass_colored_shape_to_shape -->
     <g transform="translate(176.311875 205.297187) scale(0.1 -0.1)">
      <use xlink:href="#DejaVuSans-6c"/>
      <use xlink:href="#DejaVuSans-6f" x="27.783203"/>
      <use xlink:href="#DejaVuSans-77" x="88.964844"/>
      <use xlink:href="#DejaVuSans-5f" x="170.751953"/>
      <use xlink:href="#DejaVuSans-67" x="220.751953"/>
      <use xlink:href="#DejaVuSans-75" x="284.228516"/>
      <use xlink:href="#DejaVuSans-61" x="347.607422"/>
      <use xlink:href="#DejaVuSans-73" x="408.886719"/>
      <use xlink:href="#DejaVuSans-73" x="460.986328"/>
      <use xlink:href="#DejaVuSans-5f" x="513.085938"/>
      <use xlink:href="#DejaVuSans-63" x="563.085938"/>
      <use xlink:href="#DejaVuSans-6f" x="618.066406"/>
      <use xlink:href="#DejaVuSans-6c" x="679.248047"/>
      <use xlink:href="#DejaVuSans-6f" x="707.03125"/>
      <use xlink:href="#DejaVuSans-72" x="768.212891"/>
      <use xlink:href="#DejaVuSans-65" x="807.076172"/>
      <use xlink:href="#DejaVuSans-64" x="868.599609"/>
      <use xlink:href="#DejaVuSans-5f" x="932.076172"/>
      <use xlink:href="#DejaVuSans-73" x="982.076172"/>
      <use xlink:href="#DejaVuSans-68" x="1034.175781"/>
      <use xlink:href="#DejaVuSans-61" x="1097.554688"/>
      <use xlink:href="#DejaVuSans-70" x="1158.833984"/>
      <use xlink:href="#DejaVuSans-65" x="1222.310547"/>
      <use xlink:href="#DejaVuSans-5f" x="1283.833984"/>
      <use xlink:href="#DejaVuSans-74" x="1333.833984"/>
      <use xlink:href="#DejaVuSans-6f" x="1373.042969"/>
      <use xlink:href="#DejaVuSans-5f" x="1434.224609"/>
      <use xlink:href="#DejaVuSans-73" x="1484.224609"/>
      <use xlink:href="#DejaVuSans-68" x="1536.324219"/>
      <use xlink:href="#DejaVuSans-61" x="1599.703125"/>
      <use xlink:href="#DejaVuSans-70" x="1660.982422"/>
      <use xlink:href="#DejaVuSans-65" x="1724.458984"/>
     </g>
    </g>
    <g id="line2d_28">
     <path d="M 148.311875 216.753437 
L 158.311875 216.753437 
L 168.311875 216.753437 
" style="fill: none; stroke: #d62728; stroke-width: 1.5; stroke-linecap: square"/>
    </g>
    <g id="text_20">
     <!-- high_guass_colored_shape_to_shape -->
     <g transform="translate(176.311875 220.253437) scale(0.1 -0.1)">
      <use xlink:href="#DejaVuSans-68"/>
      <use xlink:href="#DejaVuSans-69" x="63.378906"/>
      <use xlink:href="#DejaVuSans-67" x="91.162109"/>
      <use xlink:href="#DejaVuSans-68" x="154.638672"/>
      <use xlink:href="#DejaVuSans-5f" x="218.017578"/>
      <use xlink:href="#DejaVuSans-67" x="268.017578"/>
      <use xlink:href="#DejaVuSans-75" x="331.494141"/>
      <use xlink:href="#DejaVuSans-61" x="394.873047"/>
      <use xlink:href="#DejaVuSans-73" x="456.152344"/>
      <use xlink:href="#DejaVuSans-73" x="508.251953"/>
      <use xlink:href="#DejaVuSans-5f" x="560.351562"/>
      <use xlink:href="#DejaVuSans-63" x="610.351562"/>
      <use xlink:href="#DejaVuSans-6f" x="665.332031"/>
      <use xlink:href="#DejaVuSans-6c" x="726.513672"/>
      <use xlink:href="#DejaVuSans-6f" x="754.296875"/>
      <use xlink:href="#DejaVuSans-72" x="815.478516"/>
      <use xlink:href="#DejaVuSans-65" x="854.341797"/>
      <use xlink:href="#DejaVuSans-64" x="915.865234"/>
      <use xlink:href="#DejaVuSans-5f" x="979.341797"/>
      <use xlink:href="#DejaVuSans-73" x="1029.341797"/>
      <use xlink:href="#DejaVuSans-68" x="1081.441406"/>
      <use xlink:href="#DejaVuSans-61" x="1144.820312"/>
      <use xlink:href="#DejaVuSans-70" x="1206.099609"/>
      <use xlink:href="#DejaVuSans-65" x="1269.576172"/>
      <use xlink:href="#DejaVuSans-5f" x="1331.099609"/>
      <use xlink:href="#DejaVuSans-74" x="1381.099609"/>
      <use xlink:href="#DejaVuSans-6f" x="1420.308594"/>
      <use xlink:href="#DejaVuSans-5f" x="1481.490234"/>
      <use xlink:href="#DejaVuSans-73" x="1531.490234"/>
      <use xlink:href="#DejaVuSans-68" x="1583.589844"/>
      <use xlink:href="#DejaVuSans-61" x="1646.96875"/>
      <use xlink:href="#DejaVuSans-70" x="1708.248047"/>
      <use xlink:href="#DejaVuSans-65" x="1771.724609"/>
     </g>
    </g>
    <g id="line2d_29">
     <path d="M 148.311875 231.709687 
L 158.311875 231.709687 
L 168.311875 231.709687 
" style="fill: none; stroke: #9467bd; stroke-width: 1.5; stroke-linecap: square"/>
    </g>
    <g id="text_21">
     <!-- achromatic_shape_to_shape -->
     <g transform="translate(176.311875 235.209687) scale(0.1 -0.1)">
      <defs>
       <path id="DejaVuSans-6d" d="M 3328 2828 
Q 3544 3216 3844 3400 
Q 4144 3584 4550 3584 
Q 5097 3584 5394 3201 
Q 5691 2819 5691 2113 
L 5691 0 
L 5113 0 
L 5113 2094 
Q 5113 2597 4934 2840 
Q 4756 3084 4391 3084 
Q 3944 3084 3684 2787 
Q 3425 2491 3425 1978 
L 3425 0 
L 2847 0 
L 2847 2094 
Q 2847 2600 2669 2842 
Q 2491 3084 2119 3084 
Q 1678 3084 1418 2786 
Q 1159 2488 1159 1978 
L 1159 0 
L 581 0 
L 581 3500 
L 1159 3500 
L 1159 2956 
Q 1356 3278 1631 3431 
Q 1906 3584 2284 3584 
Q 2666 3584 2933 3390 
Q 3200 3197 3328 2828 
z
" transform="scale(0.015625)"/>
      </defs>
      <use xlink:href="#DejaVuSans-61"/>
      <use xlink:href="#DejaVuSans-63" x="61.279297"/>
      <use xlink:href="#DejaVuSans-68" x="116.259766"/>
      <use xlink:href="#DejaVuSans-72" x="179.638672"/>
      <use xlink:href="#DejaVuSans-6f" x="218.501953"/>
      <use xlink:href="#DejaVuSans-6d" x="279.683594"/>
      <use xlink:href="#DejaVuSans-61" x="377.095703"/>
      <use xlink:href="#DejaVuSans-74" x="438.375"/>
      <use xlink:href="#DejaVuSans-69" x="477.583984"/>
      <use xlink:href="#DejaVuSans-63" x="505.367188"/>
      <use xlink:href="#DejaVuSans-5f" x="560.347656"/>
      <use xlink:href="#DejaVuSans-73" x="610.347656"/>
      <use xlink:href="#DejaVuSans-68" x="662.447266"/>
      <use xlink:href="#DejaVuSans-61" x="725.826172"/>
      <use xlink:href="#DejaVuSans-70" x="787.105469"/>
      <use xlink:href="#DejaVuSans-65" x="850.582031"/>
      <use xlink:href="#DejaVuSans-5f" x="912.105469"/>
      <use xlink:href="#DejaVuSans-74" x="962.105469"/>
      <use xlink:href="#DejaVuSans-6f" x="1001.314453"/>
      <use xlink:href="#DejaVuSans-5f" x="1062.496094"/>
      <use xlink:href="#DejaVuSans-73" x="1112.496094"/>
      <use xlink:href="#DejaVuSans-68" x="1164.595703"/>
      <use xlink:href="#DejaVuSans-61" x="1227.974609"/>
      <use xlink:href="#DejaVuSans-70" x="1289.253906"/>
      <use xlink:href="#DejaVuSans-65" x="1352.730469"/>
     </g>
    </g>
    <g id="line2d_30">
     <path d="M 148.311875 246.665937 
L 158.311875 246.665937 
L 168.311875 246.665937 
" style="fill: none; stroke: #8c564b; stroke-width: 1.5; stroke-linecap: square"/>
    </g>
    <g id="text_22">
     <!-- color_to_color_low -->
     <g transform="translate(176.311875 250.165937) scale(0.1 -0.1)">
      <use xlink:href="#DejaVuSans-63"/>
      <use xlink:href="#DejaVuSans-6f" x="54.980469"/>
      <use xlink:href="#DejaVuSans-6c" x="116.162109"/>
      <use xlink:href="#DejaVuSans-6f" x="143.945312"/>
      <use xlink:href="#DejaVuSans-72" x="205.126953"/>
      <use xlink:href="#DejaVuSans-5f" x="246.240234"/>
      <use xlink:href="#DejaVuSans-74" x="296.240234"/>
      <use xlink:href="#DejaVuSans-6f" x="335.449219"/>
      <use xlink:href="#DejaVuSans-5f" x="396.630859"/>
      <use xlink:href="#DejaVuSans-63" x="446.630859"/>
      <use xlink:href="#DejaVuSans-6f" x="501.611328"/>
      <use xlink:href="#DejaVuSans-6c" x="562.792969"/>
      <use xlink:href="#DejaVuSans-6f" x="590.576172"/>
      <use xlink:href="#DejaVuSans-72" x="651.757812"/>
      <use xlink:href="#DejaVuSans-5f" x="692.871094"/>
      <use xlink:href="#DejaVuSans-6c" x="742.871094"/>
      <use xlink:href="#DejaVuSans-6f" x="770.654297"/>
      <use xlink:href="#DejaVuSans-77" x="831.835938"/>
     </g>
    </g>
    <g id="line2d_31">
     <path d="M 148.311875 261.622187 
L 158.311875 261.622187 
L 168.311875 261.622187 
" style="fill: none; stroke: #e377c2; stroke-width: 1.5; stroke-linecap: square"/>
    </g>
    <g id="text_23">
     <!-- color_to_color_high -->
     <g transform="translate(176.311875 265.122187) scale(0.1 -0.1)">
      <use xlink:href="#DejaVuSans-63"/>
      <use xlink:href="#DejaVuSans-6f" x="54.980469"/>
      <use xlink:href="#DejaVuSans-6c" x="116.162109"/>
      <use xlink:href="#DejaVuSans-6f" x="143.945312"/>
      <use xlink:href="#DejaVuSans-72" x="205.126953"/>
      <use xlink:href="#DejaVuSans-5f" x="246.240234"/>
      <use xlink:href="#DejaVuSans-74" x="296.240234"/>
      <use xlink:href="#DejaVuSans-6f" x="335.449219"/>
      <use xlink:href="#DejaVuSans-5f" x="396.630859"/>
      <use xlink:href="#DejaVuSans-63" x="446.630859"/>
      <use xlink:href="#DejaVuSans-6f" x="501.611328"/>
      <use xlink:href="#DejaVuSans-6c" x="562.792969"/>
      <use xlink:href="#DejaVuSans-6f" x="590.576172"/>
      <use xlink:href="#DejaVuSans-72" x="651.757812"/>
      <use xlink:href="#DejaVuSans-5f" x="692.871094"/>
      <use xlink:href="#DejaVuSans-68" x="742.871094"/>
      <use xlink:href="#DejaVuSans-69" x="806.25"/>
      <use xlink:href="#DejaVuSans-67" x="834.033203"/>
      <use xlink:href="#DejaVuSans-68" x="897.509766"/>
     </g>
    </g>
   </g>
  </g>
 </g>
 <defs>
  <clipPath id="p03ec77640f">
   <rect x="92.16" y="69.12" width="276.48" height="207.36"/>
  </clipPath>
 </defs>
</svg>
