<?xml version="1.0" encoding="utf-8" standalone="no"?>
<!DOCTYPE svg PUBLIC "-//W3C//DTD SVG 1.1//EN"
  "http://www.w3.org/Graphics/SVG/1.1/DTD/svg11.dtd">
<svg xmlns:xlink="http://www.w3.org/1999/xlink" width="460.8pt" height="345.6pt" viewBox="0 0 460.8 345.6" xmlns="http://www.w3.org/2000/svg" version="1.1">
 <metadata>
  <rdf:RDF xmlns:dc="http://purl.org/dc/elements/1.1/" xmlns:cc="http://creativecommons.org/ns#" xmlns:rdf="http://www.w3.org/1999/02/22-rdf-syntax-ns#">
   <cc:Work>
    <dc:type rdf:resource="http://purl.org/dc/dcmitype/StillImage"/>
    <dc:date>2023-09-28T11:48:23.337025</dc:date>
    <dc:format>image/svg+xml</dc:format>
    <dc:creator>
     <cc:Agent>
      <dc:title>Matplotlib v3.7.1, https://matplotlib.org/</dc:title>
     </cc:Agent>
    </dc:creator>
   </cc:Work>
  </rdf:RDF>
 </metadata>
 <defs>
  <style type="text/css">*{stroke-linejoin: round; stroke-linecap: butt}</style>
 </defs>
 <g id="figure_1">
  <g id="patch_1">
   <path d="M 0 345.6 
L 460.8 345.6 
L 460.8 0 
L 0 0 
z
" style="fill: #ffffff"/>
  </g>
  <g id="axes_1">
   <g id="patch_2">
    <path d="M 92.16 276.48 
L 368.64 276.48 
L 368.64 69.12 
L 92.16 69.12 
z
" style="fill: #ffffff"/>
   </g>
   <g id="matplotlib.axis_1">
    <g id="xtick_1">
     <g id="line2d_1">
      <defs>
       <path id="m5545b8ad70" d="M 0 0 
L 0 3.5 
" style="stroke: #000000; stroke-width: 0.8"/>
      </defs>
      <g>
       <use xlink:href="#m5545b8ad70" x="104.727273" y="276.48" style="stroke: #000000; stroke-width: 0.8"/>
      </g>
     </g>
     <g id="text_1">
      <!-- 0 -->
      <g transform="translate(101.546023 291.078437) scale(0.1 -0.1)">
       <defs>
        <path id="DejaVuSans-30" d="M 2034 4250 
Q 1547 4250 1301 3770 
Q 1056 3291 1056 2328 
Q 1056 1369 1301 889 
Q 1547 409 2034 409 
Q 2525 409 2770 889 
Q 3016 1369 3016 2328 
Q 3016 3291 2770 3770 
Q 2525 4250 2034 4250 
z
M 2034 4750 
Q 2819 4750 3233 4129 
Q 3647 3509 3647 2328 
Q 3647 1150 3233 529 
Q 2819 -91 2034 -91 
Q 1250 -91 836 529 
Q 422 1150 422 2328 
Q 422 3509 836 4129 
Q 1250 4750 2034 4750 
z
" transform="scale(0.015625)"/>
       </defs>
       <use xlink:href="#DejaVuSans-30"/>
      </g>
     </g>
    </g>
    <g id="xtick_2">
     <g id="line2d_2">
      <g>
       <use xlink:href="#m5545b8ad70" x="136.664433" y="276.48" style="stroke: #000000; stroke-width: 0.8"/>
      </g>
     </g>
     <g id="text_2">
      <!-- 200 -->
      <g transform="translate(127.120683 291.078437) scale(0.1 -0.1)">
       <defs>
        <path id="DejaVuSans-32" d="M 1228 531 
L 3431 531 
L 3431 0 
L 469 0 
L 469 531 
Q 828 903 1448 1529 
Q 2069 2156 2228 2338 
Q 2531 2678 2651 2914 
Q 2772 3150 2772 3378 
Q 2772 3750 2511 3984 
Q 2250 4219 1831 4219 
Q 1534 4219 1204 4116 
Q 875 4013 500 3803 
L 500 4441 
Q 881 4594 1212 4672 
Q 1544 4750 1819 4750 
Q 2544 4750 2975 4387 
Q 3406 4025 3406 3419 
Q 3406 3131 3298 2873 
Q 3191 2616 2906 2266 
Q 2828 2175 2409 1742 
Q 1991 1309 1228 531 
z
" transform="scale(0.015625)"/>
       </defs>
       <use xlink:href="#DejaVuSans-32"/>
       <use xlink:href="#DejaVuSans-30" x="63.623047"/>
       <use xlink:href="#DejaVuSans-30" x="127.246094"/>
      </g>
     </g>
    </g>
    <g id="xtick_3">
     <g id="line2d_3">
      <g>
       <use xlink:href="#m5545b8ad70" x="168.601594" y="276.48" style="stroke: #000000; stroke-width: 0.8"/>
      </g>
     </g>
     <g id="text_3">
      <!-- 400 -->
      <g transform="translate(159.057844 291.078437) scale(0.1 -0.1)">
       <defs>
        <path id="DejaVuSans-34" d="M 2419 4116 
L 825 1625 
L 2419 1625 
L 2419 4116 
z
M 2253 4666 
L 3047 4666 
L 3047 1625 
L 3713 1625 
L 3713 1100 
L 3047 1100 
L 3047 0 
L 2419 0 
L 2419 1100 
L 313 1100 
L 313 1709 
L 2253 4666 
z
" transform="scale(0.015625)"/>
       </defs>
       <use xlink:href="#DejaVuSans-34"/>
       <use xlink:href="#DejaVuSans-30" x="63.623047"/>
       <use xlink:href="#DejaVuSans-30" x="127.246094"/>
      </g>
     </g>
    </g>
    <g id="xtick_4">
     <g id="line2d_4">
      <g>
       <use xlink:href="#m5545b8ad70" x="200.538755" y="276.48" style="stroke: #000000; stroke-width: 0.8"/>
      </g>
     </g>
     <g id="text_4">
      <!-- 600 -->
      <g transform="translate(190.995005 291.078437) scale(0.1 -0.1)">
       <defs>
        <path id="DejaVuSans-36" d="M 2113 2584 
Q 1688 2584 1439 2293 
Q 1191 2003 1191 1497 
Q 1191 994 1439 701 
Q 1688 409 2113 409 
Q 2538 409 2786 701 
Q 3034 994 3034 1497 
Q 3034 2003 2786 2293 
Q 2538 2584 2113 2584 
z
M 3366 4563 
L 3366 3988 
Q 3128 4100 2886 4159 
Q 2644 4219 2406 4219 
Q 1781 4219 1451 3797 
Q 1122 3375 1075 2522 
Q 1259 2794 1537 2939 
Q 1816 3084 2150 3084 
Q 2853 3084 3261 2657 
Q 3669 2231 3669 1497 
Q 3669 778 3244 343 
Q 2819 -91 2113 -91 
Q 1303 -91 875 529 
Q 447 1150 447 2328 
Q 447 3434 972 4092 
Q 1497 4750 2381 4750 
Q 2619 4750 2861 4703 
Q 3103 4656 3366 4563 
z
" transform="scale(0.015625)"/>
       </defs>
       <use xlink:href="#DejaVuSans-36"/>
       <use xlink:href="#DejaVuSans-30" x="63.623047"/>
       <use xlink:href="#DejaVuSans-30" x="127.246094"/>
      </g>
     </g>
    </g>
    <g id="xtick_5">
     <g id="line2d_5">
      <g>
       <use xlink:href="#m5545b8ad70" x="232.475915" y="276.48" style="stroke: #000000; stroke-width: 0.8"/>
      </g>
     </g>
     <g id="text_5">
      <!-- 800 -->
      <g transform="translate(222.932165 291.078437) scale(0.1 -0.1)">
       <defs>
        <path id="DejaVuSans-38" d="M 2034 2216 
Q 1584 2216 1326 1975 
Q 1069 1734 1069 1313 
Q 1069 891 1326 650 
Q 1584 409 2034 409 
Q 2484 409 2743 651 
Q 3003 894 3003 1313 
Q 3003 1734 2745 1975 
Q 2488 2216 2034 2216 
z
M 1403 2484 
Q 997 2584 770 2862 
Q 544 3141 544 3541 
Q 544 4100 942 4425 
Q 1341 4750 2034 4750 
Q 2731 4750 3128 4425 
Q 3525 4100 3525 3541 
Q 3525 3141 3298 2862 
Q 3072 2584 2669 2484 
Q 3125 2378 3379 2068 
Q 3634 1759 3634 1313 
Q 3634 634 3220 271 
Q 2806 -91 2034 -91 
Q 1263 -91 848 271 
Q 434 634 434 1313 
Q 434 1759 690 2068 
Q 947 2378 1403 2484 
z
M 1172 3481 
Q 1172 3119 1398 2916 
Q 1625 2713 2034 2713 
Q 2441 2713 2670 2916 
Q 2900 3119 2900 3481 
Q 2900 3844 2670 4047 
Q 2441 4250 2034 4250 
Q 1625 4250 1398 4047 
Q 1172 3844 1172 3481 
z
" transform="scale(0.015625)"/>
       </defs>
       <use xlink:href="#DejaVuSans-38"/>
       <use xlink:href="#DejaVuSans-30" x="63.623047"/>
       <use xlink:href="#DejaVuSans-30" x="127.246094"/>
      </g>
     </g>
    </g>
    <g id="xtick_6">
     <g id="line2d_6">
      <g>
       <use xlink:href="#m5545b8ad70" x="264.413076" y="276.48" style="stroke: #000000; stroke-width: 0.8"/>
      </g>
     </g>
     <g id="text_6">
      <!-- 1000 -->
      <g transform="translate(251.688076 291.078437) scale(0.1 -0.1)">
       <defs>
        <path id="DejaVuSans-31" d="M 794 531 
L 1825 531 
L 1825 4091 
L 703 3866 
L 703 4441 
L 1819 4666 
L 2450 4666 
L 2450 531 
L 3481 531 
L 3481 0 
L 794 0 
L 794 531 
z
" transform="scale(0.015625)"/>
       </defs>
       <use xlink:href="#DejaVuSans-31"/>
       <use xlink:href="#DejaVuSans-30" x="63.623047"/>
       <use xlink:href="#DejaVuSans-30" x="127.246094"/>
       <use xlink:href="#DejaVuSans-30" x="190.869141"/>
      </g>
     </g>
    </g>
    <g id="xtick_7">
     <g id="line2d_7">
      <g>
       <use xlink:href="#m5545b8ad70" x="296.350237" y="276.48" style="stroke: #000000; stroke-width: 0.8"/>
      </g>
     </g>
     <g id="text_7">
      <!-- 1200 -->
      <g transform="translate(283.625237 291.078437) scale(0.1 -0.1)">
       <use xlink:href="#DejaVuSans-31"/>
       <use xlink:href="#DejaVuSans-32" x="63.623047"/>
       <use xlink:href="#DejaVuSans-30" x="127.246094"/>
       <use xlink:href="#DejaVuSans-30" x="190.869141"/>
      </g>
     </g>
    </g>
    <g id="xtick_8">
     <g id="line2d_8">
      <g>
       <use xlink:href="#m5545b8ad70" x="328.287397" y="276.48" style="stroke: #000000; stroke-width: 0.8"/>
      </g>
     </g>
     <g id="text_8">
      <!-- 1400 -->
      <g transform="translate(315.562397 291.078437) scale(0.1 -0.1)">
       <use xlink:href="#DejaVuSans-31"/>
       <use xlink:href="#DejaVuSans-34" x="63.623047"/>
       <use xlink:href="#DejaVuSans-30" x="127.246094"/>
       <use xlink:href="#DejaVuSans-30" x="190.869141"/>
      </g>
     </g>
    </g>
    <g id="xtick_9">
     <g id="line2d_9">
      <g>
       <use xlink:href="#m5545b8ad70" x="360.224558" y="276.48" style="stroke: #000000; stroke-width: 0.8"/>
      </g>
     </g>
     <g id="text_9">
      <!-- 1600 -->
      <g transform="translate(347.499558 291.078437) scale(0.1 -0.1)">
       <use xlink:href="#DejaVuSans-31"/>
       <use xlink:href="#DejaVuSans-36" x="63.623047"/>
       <use xlink:href="#DejaVuSans-30" x="127.246094"/>
       <use xlink:href="#DejaVuSans-30" x="190.869141"/>
      </g>
     </g>
    </g>
   </g>
   <g id="matplotlib.axis_2">
    <g id="ytick_1">
     <g id="line2d_10">
      <defs>
       <path id="me58663daa1" d="M 0 0 
L -3.5 0 
" style="stroke: #000000; stroke-width: 0.8"/>
      </defs>
      <g>
       <use xlink:href="#me58663daa1" x="92.16" y="274.399055" style="stroke: #000000; stroke-width: 0.8"/>
      </g>
     </g>
     <g id="text_10">
      <!-- 0.60 -->
      <g transform="translate(62.894375 278.198274) scale(0.1 -0.1)">
       <defs>
        <path id="DejaVuSans-2e" d="M 684 794 
L 1344 794 
L 1344 0 
L 684 0 
L 684 794 
z
" transform="scale(0.015625)"/>
       </defs>
       <use xlink:href="#DejaVuSans-30"/>
       <use xlink:href="#DejaVuSans-2e" x="63.623047"/>
       <use xlink:href="#DejaVuSans-36" x="95.410156"/>
       <use xlink:href="#DejaVuSans-30" x="159.033203"/>
      </g>
     </g>
    </g>
    <g id="ytick_2">
     <g id="line2d_11">
      <g>
       <use xlink:href="#me58663daa1" x="92.16" y="249.917355" style="stroke: #000000; stroke-width: 0.8"/>
      </g>
     </g>
     <g id="text_11">
      <!-- 0.65 -->
      <g transform="translate(62.894375 253.716574) scale(0.1 -0.1)">
       <defs>
        <path id="DejaVuSans-35" d="M 691 4666 
L 3169 4666 
L 3169 4134 
L 1269 4134 
L 1269 2991 
Q 1406 3038 1543 3061 
Q 1681 3084 1819 3084 
Q 2600 3084 3056 2656 
Q 3513 2228 3513 1497 
Q 3513 744 3044 326 
Q 2575 -91 1722 -91 
Q 1428 -91 1123 -41 
Q 819 9 494 109 
L 494 744 
Q 775 591 1075 516 
Q 1375 441 1709 441 
Q 2250 441 2565 725 
Q 2881 1009 2881 1497 
Q 2881 1984 2565 2268 
Q 2250 2553 1709 2553 
Q 1456 2553 1204 2497 
Q 953 2441 691 2322 
L 691 4666 
z
" transform="scale(0.015625)"/>
       </defs>
       <use xlink:href="#DejaVuSans-30"/>
       <use xlink:href="#DejaVuSans-2e" x="63.623047"/>
       <use xlink:href="#DejaVuSans-36" x="95.410156"/>
       <use xlink:href="#DejaVuSans-35" x="159.033203"/>
      </g>
     </g>
    </g>
    <g id="ytick_3">
     <g id="line2d_12">
      <g>
       <use xlink:href="#me58663daa1" x="92.16" y="225.435655" style="stroke: #000000; stroke-width: 0.8"/>
      </g>
     </g>
     <g id="text_12">
      <!-- 0.70 -->
      <g transform="translate(62.894375 229.234874) scale(0.1 -0.1)">
       <defs>
        <path id="DejaVuSans-37" d="M 525 4666 
L 3525 4666 
L 3525 4397 
L 1831 0 
L 1172 0 
L 2766 4134 
L 525 4134 
L 525 4666 
z
" transform="scale(0.015625)"/>
       </defs>
       <use xlink:href="#DejaVuSans-30"/>
       <use xlink:href="#DejaVuSans-2e" x="63.623047"/>
       <use xlink:href="#DejaVuSans-37" x="95.410156"/>
       <use xlink:href="#DejaVuSans-30" x="159.033203"/>
      </g>
     </g>
    </g>
    <g id="ytick_4">
     <g id="line2d_13">
      <g>
       <use xlink:href="#me58663daa1" x="92.16" y="200.953955" style="stroke: #000000; stroke-width: 0.8"/>
      </g>
     </g>
     <g id="text_13">
      <!-- 0.75 -->
      <g transform="translate(62.894375 204.753174) scale(0.1 -0.1)">
       <use xlink:href="#DejaVuSans-30"/>
       <use xlink:href="#DejaVuSans-2e" x="63.623047"/>
       <use xlink:href="#DejaVuSans-37" x="95.410156"/>
       <use xlink:href="#DejaVuSans-35" x="159.033203"/>
      </g>
     </g>
    </g>
    <g id="ytick_5">
     <g id="line2d_14">
      <g>
       <use xlink:href="#me58663daa1" x="92.16" y="176.472255" style="stroke: #000000; stroke-width: 0.8"/>
      </g>
     </g>
     <g id="text_14">
      <!-- 0.80 -->
      <g transform="translate(62.894375 180.271474) scale(0.1 -0.1)">
       <use xlink:href="#DejaVuSans-30"/>
       <use xlink:href="#DejaVuSans-2e" x="63.623047"/>
       <use xlink:href="#DejaVuSans-38" x="95.410156"/>
       <use xlink:href="#DejaVuSans-30" x="159.033203"/>
      </g>
     </g>
    </g>
    <g id="ytick_6">
     <g id="line2d_15">
      <g>
       <use xlink:href="#me58663daa1" x="92.16" y="151.990555" style="stroke: #000000; stroke-width: 0.8"/>
      </g>
     </g>
     <g id="text_15">
      <!-- 0.85 -->
      <g transform="translate(62.894375 155.789774) scale(0.1 -0.1)">
       <use xlink:href="#DejaVuSans-30"/>
       <use xlink:href="#DejaVuSans-2e" x="63.623047"/>
       <use xlink:href="#DejaVuSans-38" x="95.410156"/>
       <use xlink:href="#DejaVuSans-35" x="159.033203"/>
      </g>
     </g>
    </g>
    <g id="ytick_7">
     <g id="line2d_16">
      <g>
       <use xlink:href="#me58663daa1" x="92.16" y="127.508855" style="stroke: #000000; stroke-width: 0.8"/>
      </g>
     </g>
     <g id="text_16">
      <!-- 0.90 -->
      <g transform="translate(62.894375 131.308074) scale(0.1 -0.1)">
       <defs>
        <path id="DejaVuSans-39" d="M 703 97 
L 703 672 
Q 941 559 1184 500 
Q 1428 441 1663 441 
Q 2288 441 2617 861 
Q 2947 1281 2994 2138 
Q 2813 1869 2534 1725 
Q 2256 1581 1919 1581 
Q 1219 1581 811 2004 
Q 403 2428 403 3163 
Q 403 3881 828 4315 
Q 1253 4750 1959 4750 
Q 2769 4750 3195 4129 
Q 3622 3509 3622 2328 
Q 3622 1225 3098 567 
Q 2575 -91 1691 -91 
Q 1453 -91 1209 -44 
Q 966 3 703 97 
z
M 1959 2075 
Q 2384 2075 2632 2365 
Q 2881 2656 2881 3163 
Q 2881 3666 2632 3958 
Q 2384 4250 1959 4250 
Q 1534 4250 1286 3958 
Q 1038 3666 1038 3163 
Q 1038 2656 1286 2365 
Q 1534 2075 1959 2075 
z
" transform="scale(0.015625)"/>
       </defs>
       <use xlink:href="#DejaVuSans-30"/>
       <use xlink:href="#DejaVuSans-2e" x="63.623047"/>
       <use xlink:href="#DejaVuSans-39" x="95.410156"/>
       <use xlink:href="#DejaVuSans-30" x="159.033203"/>
      </g>
     </g>
    </g>
    <g id="ytick_8">
     <g id="line2d_17">
      <g>
       <use xlink:href="#me58663daa1" x="92.16" y="103.027155" style="stroke: #000000; stroke-width: 0.8"/>
      </g>
     </g>
     <g id="text_17">
      <!-- 0.95 -->
      <g transform="translate(62.894375 106.826373) scale(0.1 -0.1)">
       <use xlink:href="#DejaVuSans-30"/>
       <use xlink:href="#DejaVuSans-2e" x="63.623047"/>
       <use xlink:href="#DejaVuSans-39" x="95.410156"/>
       <use xlink:href="#DejaVuSans-35" x="159.033203"/>
      </g>
     </g>
    </g>
    <g id="ytick_9">
     <g id="line2d_18">
      <g>
       <use xlink:href="#me58663daa1" x="92.16" y="78.545455" style="stroke: #000000; stroke-width: 0.8"/>
      </g>
     </g>
     <g id="text_18">
      <!-- 1.00 -->
      <g transform="translate(62.894375 82.344673) scale(0.1 -0.1)">
       <use xlink:href="#DejaVuSans-31"/>
       <use xlink:href="#DejaVuSans-2e" x="63.623047"/>
       <use xlink:href="#DejaVuSans-30" x="95.410156"/>
       <use xlink:href="#DejaVuSans-30" x="159.033203"/>
      </g>
     </g>
    </g>
   </g>
   <g id="line2d_19">
    <path d="M 104.727273 156.886895 
L 105.046644 156.886895 
L 105.20633 159.335065 
L 105.366016 159.335065 
L 105.525702 161.783235 
L 105.685388 159.335065 
L 106.803188 159.335065 
L 106.962874 156.886895 
L 107.282246 156.886895 
L 107.441931 154.438725 
L 108.559732 154.438725 
L 108.719418 151.990555 
L 109.038789 151.990555 
L 109.198475 149.542385 
L 109.677533 149.542385 
L 109.837218 151.990555 
L 110.316276 151.990555 
L 110.475962 154.438725 
L 110.795333 154.438725 
L 110.955019 156.886895 
L 111.114705 154.438725 
L 111.274391 156.886895 
L 111.434076 156.886895 
L 111.593762 154.438725 
L 111.753448 154.438725 
L 111.913134 151.990555 
L 112.551877 151.990555 
L 112.711563 149.542385 
L 113.669678 149.542385 
L 113.829364 147.094215 
L 114.947164 147.094215 
L 115.10685 149.542385 
L 115.585907 149.542385 
L 115.745593 147.094215 
L 115.905279 147.094215 
L 116.064965 144.646045 
L 118.939309 144.646045 
L 119.258681 139.749705 
L 119.578052 139.749705 
L 119.737738 142.197875 
L 120.216796 142.197875 
L 120.376481 139.749705 
L 121.015225 139.749705 
L 121.17491 137.301535 
L 122.133025 137.301535 
L 122.452397 132.405195 
L 123.250826 132.405195 
L 123.410512 134.853365 
L 125.326741 134.853365 
L 125.486427 132.405195 
L 125.646113 132.405195 
L 125.805799 129.957025 
L 126.923599 129.957025 
L 127.083285 132.405195 
L 127.562343 132.405195 
L 127.881714 127.508855 
L 128.0414 129.957025 
L 128.680143 129.957025 
L 128.839829 127.508855 
L 128.999515 127.508855 
L 129.159201 129.957025 
L 129.478572 129.957025 
L 129.638258 127.508855 
L 129.797944 129.957025 
L 129.95763 127.508855 
L 130.277001 127.508855 
L 130.436687 125.060685 
L 132.193231 125.060685 
L 132.352917 122.612515 
L 132.512603 125.060685 
L 132.672288 125.060685 
L 132.831974 122.612515 
L 133.151346 122.612515 
L 133.311032 125.060685 
L 133.470717 125.060685 
L 133.630403 127.508855 
L 133.949775 127.508855 
L 134.109461 125.060685 
L 134.269146 127.508855 
L 134.428832 127.508855 
L 134.588518 125.060685 
L 135.546633 125.060685 
L 135.706319 127.508855 
L 135.866004 125.060685 
L 136.983805 125.060685 
L 137.143491 122.612515 
L 137.303177 125.060685 
L 137.462862 122.612515 
L 137.622548 122.612515 
L 137.782234 125.060685 
L 140.97595 125.060685 
L 141.135636 127.508855 
L 141.614693 127.508855 
L 141.774379 125.060685 
L 142.253437 125.060685 
L 142.413122 122.612515 
L 142.732494 122.612515 
L 142.89218 120.164345 
L 143.051866 120.164345 
L 143.211551 117.716175 
L 145.447153 117.716175 
L 145.606838 115.268005 
L 146.884325 115.268005 
L 147.044011 112.819835 
L 147.203696 112.819835 
L 147.363382 115.268005 
L 150.078041 115.268005 
L 150.237727 117.716175 
L 151.515213 117.716175 
L 151.674899 115.268005 
L 155.187987 115.268005 
L 155.347672 112.819835 
L 157.263902 112.819835 
L 157.423588 115.268005 
L 158.86076 115.268005 
L 159.020446 112.819835 
L 159.818875 112.819835 
L 159.978561 110.371665 
L 160.138247 112.819835 
L 160.936676 112.819835 
L 161.096361 110.371665 
L 161.575419 110.371665 
L 161.735105 107.923495 
L 164.290077 107.923495 
L 164.449763 105.475325 
L 165.407878 105.475325 
L 165.567564 103.027155 
L 166.046621 103.027155 
L 166.206307 100.578985 
L 166.365993 100.578985 
L 166.525679 103.027155 
L 167.483793 103.027155 
L 167.643479 100.578985 
L 167.803165 100.578985 
L 167.962851 103.027155 
L 169.080651 103.027155 
L 169.240337 100.578985 
L 169.559709 100.578985 
L 169.719395 98.130815 
L 172.434053 98.130815 
L 172.593739 100.578985 
L 172.913111 100.578985 
L 173.072797 98.130815 
L 175.947141 98.130815 
L 176.106827 100.578985 
L 179.140857 100.578985 
L 179.300543 98.130815 
L 182.015202 98.130815 
L 182.174887 95.682645 
L 183.61206 95.682645 
L 183.771745 98.130815 
L 185.528289 98.130815 
L 185.687975 100.578985 
L 186.326718 100.578985 
L 186.64609 105.475325 
L 186.965461 105.475325 
L 187.125147 107.923495 
L 189.201063 107.923495 
L 189.360749 105.475325 
L 190.478549 105.475325 
L 190.638235 107.923495 
L 191.915721 107.923495 
L 192.075407 105.475325 
L 192.235093 105.475325 
L 192.394779 107.923495 
L 197.025667 107.923495 
L 197.185353 105.475325 
L 198.303154 105.475325 
L 198.462839 103.027155 
L 199.101583 103.027155 
L 199.261268 105.475325 
L 199.420954 105.475325 
L 199.58064 107.923495 
L 199.740326 107.923495 
L 199.900012 105.475325 
L 201.656555 105.475325 
L 201.816241 107.923495 
L 201.975927 107.923495 
L 202.135613 110.371665 
L 204.371214 110.371665 
L 204.5309 107.923495 
L 207.56493 107.923495 
L 207.724616 110.371665 
L 207.884302 110.371665 
L 208.043988 107.923495 
L 211.557075 107.923495 
L 211.716761 110.371665 
L 212.834562 110.371665 
L 212.994247 112.819835 
L 215.54922 112.819835 
L 215.708906 110.371665 
L 217.46545 110.371665 
L 217.625136 107.923495 
L 218.263879 107.923495 
L 218.583251 103.027155 
L 218.742936 103.027155 
L 218.902622 105.475325 
L 219.062308 103.027155 
L 219.221994 105.475325 
L 221.138223 105.475325 
L 221.297909 107.923495 
L 222.41571 107.923495 
L 222.575396 105.475325 
L 224.172254 105.475325 
L 224.331939 103.027155 
L 225.290054 103.027155 
L 225.44974 105.475325 
L 226.886912 105.475325 
L 227.046598 107.923495 
L 228.004713 107.923495 
L 228.164399 110.371665 
L 230.240314 110.371665 
L 230.4 112.819835 
L 231.038743 112.819835 
L 231.198429 110.371665 
L 231.358115 110.371665 
L 231.517801 107.923495 
L 233.593716 107.923495 
L 233.753402 105.475325 
L 233.913088 105.475325 
L 234.072773 103.027155 
L 234.232459 103.027155 
L 234.551831 107.923495 
L 239.502091 107.923495 
L 239.661777 105.475325 
L 243.494236 105.475325 
L 243.653922 103.027155 
L 244.771722 103.027155 
L 244.931408 100.578985 
L 250.680097 100.578985 
L 250.839783 98.130815 
L 250.999469 98.130815 
L 251.159154 95.682645 
L 253.075384 95.682645 
L 253.23507 93.234475 
L 257.227215 93.234475 
L 257.386901 90.786305 
L 258.664387 90.786305 
L 258.824073 93.234475 
L 258.983759 90.786305 
L 259.941874 90.786305 
L 260.101559 88.338135 
L 261.059674 88.338135 
L 261.21936 90.786305 
L 261.858103 90.786305 
L 262.017789 93.234475 
L 262.177475 93.234475 
L 262.337161 90.786305 
L 266.329306 90.786305 
L 266.488992 88.338135 
L 271.439251 88.338135 
L 271.598937 90.786305 
L 278.625113 90.786305 
L 278.784798 93.234475 
L 285.810974 93.234475 
L 285.97066 95.682645 
L 290.601548 95.682645 
L 290.761234 93.234475 
L 293.795264 93.234475 
L 293.95495 90.786305 
L 298.106781 90.786305 
L 298.106781 90.786305 
" clip-path="url(#p05792f362f)" style="fill: none; stroke: #1f77b4; stroke-width: 1.5; stroke-linecap: square"/>
   </g>
   <g id="line2d_20">
    <path d="M 104.727273 78.545455 
L 302.418297 78.545455 
L 302.418297 78.545455 
" clip-path="url(#p05792f362f)" style="fill: none; stroke: #ff7f0e; stroke-width: 1.5; stroke-linecap: square"/>
   </g>
   <g id="line2d_21">
    <path d="M 104.727273 176.472255 
L 104.886959 178.920425 
L 105.046644 178.920425 
L 105.20633 176.472255 
L 105.525702 181.368595 
L 105.685388 181.368595 
L 105.845073 178.920425 
L 106.004759 178.920425 
L 106.164445 176.472255 
L 107.920989 176.472255 
L 108.080675 174.024085 
L 109.038789 174.024085 
L 109.198475 176.472255 
L 109.996904 176.472255 
L 110.15659 174.024085 
L 111.274391 174.024085 
L 111.434076 176.472255 
L 111.753448 171.575915 
L 111.913134 174.024085 
L 112.232505 174.024085 
L 112.392191 176.472255 
L 113.19062 176.472255 
L 113.350306 178.920425 
L 113.829364 178.920425 
L 113.989049 176.472255 
L 114.148735 178.920425 
L 114.308421 176.472255 
L 114.468107 178.920425 
L 114.787478 178.920425 
L 114.947164 176.472255 
L 115.10685 176.472255 
L 115.266536 178.920425 
L 115.426222 178.920425 
L 115.585907 176.472255 
L 117.182765 176.472255 
L 117.342451 178.920425 
L 117.502137 178.920425 
L 117.981194 171.575915 
L 118.300566 171.575915 
L 118.779623 164.231405 
L 119.418367 164.231405 
L 119.737738 159.335065 
L 120.216796 159.335065 
L 120.376481 156.886895 
L 121.015225 156.886895 
L 121.17491 154.438725 
L 121.653968 154.438725 
L 121.973339 149.542385 
L 122.771769 149.542385 
L 123.09114 144.646045 
L 123.410512 144.646045 
L 123.889569 137.301535 
L 126.444542 137.301535 
L 126.604228 134.853365 
L 127.083285 134.853365 
L 127.242971 132.405195 
L 127.402657 132.405195 
L 127.562343 129.957025 
L 127.881714 129.957025 
L 128.201086 134.853365 
L 128.680143 134.853365 
L 128.839829 137.301535 
L 129.638258 137.301535 
L 129.95763 132.405195 
L 131.235116 132.405195 
L 131.394802 129.957025 
L 133.311032 129.957025 
L 133.470717 127.508855 
L 135.067575 127.508855 
L 135.227261 129.957025 
L 135.386947 127.508855 
L 135.546633 127.508855 
L 135.706319 125.060685 
L 136.664433 125.060685 
L 136.824119 122.612515 
L 137.143491 122.612515 
L 137.462862 117.716175 
L 139.219406 117.716175 
L 139.379092 120.164345 
L 143.211551 120.164345 
L 143.371237 117.716175 
L 143.690609 117.716175 
L 143.850295 115.268005 
L 144.169666 115.268005 
L 144.329352 112.819835 
L 144.489038 112.819835 
L 144.968095 120.164345 
L 145.127781 120.164345 
L 145.287467 117.716175 
L 145.92621 117.716175 
L 146.085896 115.268005 
L 146.245582 115.268005 
L 146.405267 112.819835 
L 147.044011 112.819835 
L 147.203696 110.371665 
L 149.119926 110.371665 
L 149.279612 107.923495 
L 151.834585 107.923495 
L 151.994271 110.371665 
L 153.750814 110.371665 
L 153.9105 112.819835 
L 154.549243 112.819835 
L 154.708929 110.371665 
L 155.347672 110.371665 
L 155.507358 112.819835 
L 157.104216 112.819835 
L 157.263902 115.268005 
L 157.583274 115.268005 
L 157.742959 117.716175 
L 157.902645 115.268005 
L 159.818875 115.268005 
L 160.138247 110.371665 
L 160.617304 110.371665 
L 160.77699 107.923495 
L 163.012591 107.923495 
L 163.172277 110.371665 
L 167.004736 110.371665 
L 167.164422 107.923495 
L 168.122537 107.923495 
L 168.282222 105.475325 
L 171.156567 105.475325 
L 171.316253 103.027155 
L 172.913111 103.027155 
L 173.072797 100.578985 
L 175.148712 100.578985 
L 175.308398 103.027155 
L 176.426198 103.027155 
L 176.905256 95.682645 
L 177.863371 95.682645 
L 178.023056 98.130815 
L 179.7796 98.130815 
L 179.939286 100.578985 
L 181.69583 100.578985 
L 181.855516 103.027155 
L 182.813631 103.027155 
L 182.973316 105.475325 
L 183.771745 105.475325 
L 183.931431 103.027155 
L 185.687975 103.027155 
L 185.847661 100.578985 
L 186.64609 100.578985 
L 186.805776 103.027155 
L 186.965461 103.027155 
L 187.284833 107.923495 
L 187.444519 105.475325 
L 188.242948 105.475325 
L 188.402634 107.923495 
L 189.041377 107.923495 
L 189.201063 105.475325 
L 189.520434 105.475325 
L 189.68012 103.027155 
L 189.839806 105.475325 
L 190.318863 105.475325 
L 190.478549 107.923495 
L 194.949752 107.923495 
L 195.109437 105.475325 
L 199.900012 105.475325 
L 200.059697 107.923495 
L 202.774356 107.923495 
L 202.934042 110.371665 
L 203.093728 110.371665 
L 203.253413 112.819835 
L 204.211528 112.819835 
L 204.371214 115.268005 
L 209.800531 115.268005 
L 209.960217 112.819835 
L 210.758646 112.819835 
L 210.918332 115.268005 
L 211.716761 115.268005 
L 211.876447 112.819835 
L 213.632991 112.819835 
L 213.792676 110.371665 
L 214.750791 110.371665 
L 214.910477 107.923495 
L 215.070163 107.923495 
L 215.229849 110.371665 
L 218.583251 110.371665 
L 218.742936 107.923495 
L 218.902622 107.923495 
L 219.221994 103.027155 
L 220.180109 103.027155 
L 220.339794 100.578985 
L 221.457595 100.578985 
L 221.617281 103.027155 
L 221.776967 100.578985 
L 222.256024 100.578985 
L 222.41571 98.130815 
L 225.769112 98.130815 
L 225.928798 100.578985 
L 228.004713 100.578985 
L 228.164399 103.027155 
L 229.282199 103.027155 
L 229.441885 105.475325 
L 231.837172 105.475325 
L 231.996858 103.027155 
L 232.954973 103.027155 
L 233.114659 105.475325 
L 233.274344 105.475325 
L 233.43403 107.923495 
L 233.593716 107.923495 
L 233.753402 110.371665 
L 234.232459 110.371665 
L 234.392145 112.819835 
L 234.711517 112.819835 
L 234.871202 110.371665 
L 235.669632 110.371665 
L 235.829317 112.819835 
L 236.148689 112.819835 
L 236.308375 110.371665 
L 239.023033 110.371665 
L 239.182719 107.923495 
L 241.737692 107.923495 
L 241.897378 110.371665 
L 242.695807 110.371665 
L 242.855493 107.923495 
L 247.007324 107.923495 
L 247.167009 105.475325 
L 253.394756 105.475325 
L 253.554441 103.027155 
L 253.714127 103.027155 
L 253.873813 105.475325 
L 257.706272 105.475325 
L 257.865958 103.027155 
L 258.18533 103.027155 
L 258.345016 105.475325 
L 259.941874 105.475325 
L 260.101559 103.027155 
L 261.21936 103.027155 
L 261.379046 100.578985 
L 262.177475 100.578985 
L 262.337161 103.027155 
L 263.774333 103.027155 
L 263.934019 105.475325 
L 264.892134 105.475325 
L 265.051819 103.027155 
L 265.211505 103.027155 
L 265.371191 100.578985 
L 265.530877 100.578985 
L 265.690563 98.130815 
L 266.16962 98.130815 
L 266.329306 95.682645 
L 266.968049 95.682645 
L 267.127735 93.234475 
L 267.287421 93.234475 
L 267.447106 95.682645 
L 267.606792 95.682645 
L 267.766478 93.234475 
L 274.632968 93.234475 
L 274.792653 95.682645 
L 275.271711 95.682645 
L 275.431397 98.130815 
L 277.986369 98.130815 
L 278.146055 100.578985 
L 279.742913 100.578985 
L 279.902599 103.027155 
L 280.062285 103.027155 
L 280.221971 105.475325 
L 281.499457 105.475325 
L 281.659143 107.923495 
L 281.818829 107.923495 
L 281.978514 110.371665 
L 283.575373 110.371665 
L 283.735058 112.819835 
L 285.651288 112.819835 
L 285.810974 110.371665 
L 286.290031 110.371665 
L 286.449717 112.819835 
L 286.928774 112.819835 
L 287.08846 115.268005 
L 287.886889 115.268005 
L 288.046575 117.716175 
L 290.12249 117.716175 
L 290.282176 115.268005 
L 294.114636 115.268005 
L 294.274321 112.819835 
L 294.434007 115.268005 
L 295.711494 115.268005 
L 295.871179 112.819835 
L 296.669608 112.819835 
L 296.669608 112.819835 
" clip-path="url(#p05792f362f)" style="fill: none; stroke: #2ca02c; stroke-width: 1.5; stroke-linecap: square"/>
   </g>
   <g id="line2d_22">
    <path d="M 104.727273 78.545455 
L 292.517778 78.545455 
L 292.517778 78.545455 
" clip-path="url(#p05792f362f)" style="fill: none; stroke: #d62728; stroke-width: 1.5; stroke-linecap: square"/>
   </g>
   <g id="line2d_23">
    <path d="M 104.727273 117.716175 
L 105.845073 117.716175 
L 106.004759 115.268005 
L 106.324131 115.268005 
L 106.483817 117.716175 
L 109.358161 117.716175 
L 109.517847 115.268005 
L 109.837218 115.268005 
L 109.996904 117.716175 
L 110.475962 117.716175 
L 110.635647 115.268005 
L 111.114705 115.268005 
L 111.274391 112.819835 
L 111.434076 112.819835 
L 111.593762 115.268005 
L 113.350306 115.268005 
L 113.509992 117.716175 
L 114.308421 117.716175 
L 114.468107 115.268005 
L 115.266536 115.268005 
L 115.426222 117.716175 
L 115.585907 117.716175 
L 115.745593 120.164345 
L 116.544022 120.164345 
L 116.863394 115.268005 
L 119.418367 115.268005 
L 119.897424 122.612515 
L 121.653968 122.612515 
L 121.813654 125.060685 
L 122.292711 125.060685 
L 122.452397 122.612515 
L 124.368627 122.612515 
L 124.528312 125.060685 
L 124.847684 120.164345 
L 125.167056 120.164345 
L 125.326741 122.612515 
L 126.12517 122.612515 
L 126.284856 125.060685 
L 128.0414 125.060685 
L 128.201086 127.508855 
L 128.520457 127.508855 
L 128.839829 132.405195 
L 130.117315 132.405195 
L 130.277001 129.957025 
L 130.436687 129.957025 
L 130.596373 132.405195 
L 130.756059 132.405195 
L 130.915744 129.957025 
L 131.873859 129.957025 
L 132.033545 127.508855 
L 134.588518 127.508855 
L 134.748204 129.957025 
L 135.386947 129.957025 
L 135.546633 127.508855 
L 136.02569 127.508855 
L 136.185376 129.957025 
L 138.261291 129.957025 
L 138.420977 127.508855 
L 141.295322 127.508855 
L 141.614693 132.405195 
L 141.774379 132.405195 
L 141.934065 129.957025 
L 143.371237 129.957025 
L 143.530923 127.508855 
L 144.648724 127.508855 
L 144.808409 129.957025 
L 145.287467 129.957025 
L 145.447153 127.508855 
L 146.405267 127.508855 
L 146.564953 129.957025 
L 147.044011 129.957025 
L 147.203696 132.405195 
L 147.363382 129.957025 
L 147.523068 129.957025 
L 147.682754 127.508855 
L 147.84244 129.957025 
L 148.002125 129.957025 
L 148.161811 132.405195 
L 150.87647 132.405195 
L 151.036156 129.957025 
L 151.195842 129.957025 
L 151.355527 132.405195 
L 151.834585 125.060685 
L 152.7927 125.060685 
L 152.952385 127.508855 
L 153.591129 127.508855 
L 153.750814 125.060685 
L 154.868615 125.060685 
L 155.187987 129.957025 
L 156.146101 129.957025 
L 156.305787 132.405195 
L 156.465473 129.957025 
L 157.902645 129.957025 
L 158.062331 132.405195 
L 158.222017 129.957025 
L 158.381703 132.405195 
L 158.86076 132.405195 
L 159.020446 129.957025 
L 159.978561 129.957025 
L 160.138247 127.508855 
L 160.457618 127.508855 
L 160.77699 122.612515 
L 161.415733 122.612515 
L 161.735105 127.508855 
L 162.373848 127.508855 
L 162.533534 125.060685 
L 166.525679 125.060685 
L 166.685364 122.612515 
L 166.84505 125.060685 
L 167.324108 125.060685 
L 167.483793 127.508855 
L 167.962851 127.508855 
L 168.122537 125.060685 
L 170.837195 125.060685 
L 170.996881 127.508855 
L 172.913111 127.508855 
L 173.072797 129.957025 
L 173.232482 129.957025 
L 173.392168 127.508855 
L 176.585884 127.508855 
L 176.74557 125.060685 
L 178.342428 125.060685 
L 178.502114 122.612515 
L 178.981171 122.612515 
L 179.140857 120.164345 
L 179.619915 120.164345 
L 179.7796 117.716175 
L 179.939286 117.716175 
L 180.098972 115.268005 
L 180.578029 115.268005 
L 180.737715 117.716175 
L 182.973316 117.716175 
L 183.133002 120.164345 
L 183.292688 117.716175 
L 184.570174 117.716175 
L 184.72986 120.164345 
L 184.889546 117.716175 
L 185.208918 117.716175 
L 185.368603 120.164345 
L 185.847661 120.164345 
L 186.007347 122.612515 
L 186.805776 122.612515 
L 187.125147 117.716175 
L 187.284833 117.716175 
L 187.444519 120.164345 
L 187.76389 120.164345 
L 187.923576 122.612515 
L 188.083262 122.612515 
L 188.242948 120.164345 
L 190.159178 120.164345 
L 190.318863 117.716175 
L 190.638235 117.716175 
L 190.797921 120.164345 
L 191.915721 120.164345 
L 192.075407 122.612515 
L 193.352894 122.612515 
L 193.512579 120.164345 
L 193.831951 120.164345 
L 193.991637 122.612515 
L 195.428809 122.612515 
L 195.588495 125.060685 
L 196.386924 125.060685 
L 196.54661 127.508855 
L 197.504725 127.508855 
L 197.66441 129.957025 
L 198.622525 129.957025 
L 198.782211 127.508855 
L 199.261268 127.508855 
L 199.420954 125.060685 
L 200.379069 125.060685 
L 200.538755 127.508855 
L 201.816241 127.508855 
L 201.975927 129.957025 
L 202.774356 129.957025 
L 202.934042 127.508855 
L 203.413099 127.508855 
L 203.572785 129.957025 
L 204.850271 129.957025 
L 205.009957 127.508855 
L 205.329329 127.508855 
L 205.489015 125.060685 
L 205.968072 125.060685 
L 206.127758 127.508855 
L 206.926187 127.508855 
L 207.245559 132.405195 
L 210.119903 132.405195 
L 210.279589 134.853365 
L 212.51519 134.853365 
L 212.674876 132.405195 
L 214.910477 132.405195 
L 215.070163 129.957025 
L 216.507335 129.957025 
L 216.667021 127.508855 
L 217.146078 127.508855 
L 217.305764 125.060685 
L 217.784822 125.060685 
L 217.944507 122.612515 
L 219.221994 122.612515 
L 219.38168 120.164345 
L 219.701051 120.164345 
L 219.860737 117.716175 
L 220.818852 117.716175 
L 220.978538 120.164345 
L 221.138223 117.716175 
L 221.776967 117.716175 
L 221.936652 115.268005 
L 222.41571 115.268005 
L 222.575396 117.716175 
L 222.735081 115.268005 
L 223.852882 115.268005 
L 224.012568 112.819835 
L 225.44974 112.819835 
L 225.609426 110.371665 
L 225.769112 110.371665 
L 225.928798 107.923495 
L 226.088483 110.371665 
L 226.567541 110.371665 
L 226.727227 112.819835 
L 227.36597 112.819835 
L 227.525656 110.371665 
L 228.004713 110.371665 
L 228.164399 112.819835 
L 228.324085 112.819835 
L 228.48377 110.371665 
L 228.643456 112.819835 
L 229.441885 112.819835 
L 229.601571 110.371665 
L 232.31623 110.371665 
L 232.475915 107.923495 
L 233.593716 107.923495 
L 233.753402 110.371665 
L 233.913088 107.923495 
L 235.35026 107.923495 
L 235.509946 105.475325 
L 235.829317 105.475325 
L 235.989003 107.923495 
L 237.585861 107.923495 
L 237.745547 110.371665 
L 237.905233 110.371665 
L 238.064919 107.923495 
L 238.38429 107.923495 
L 238.543976 110.371665 
L 238.863348 110.371665 
L 239.182719 105.475325 
L 242.057064 105.475325 
L 242.216749 103.027155 
L 243.33455 103.027155 
L 243.494236 105.475325 
L 245.729837 105.475325 
L 245.889523 107.923495 
L 246.687952 107.923495 
L 246.847638 110.371665 
L 251.638212 110.371665 
L 251.797898 112.819835 
L 252.756012 112.819835 
L 252.915698 110.371665 
L 254.352871 110.371665 
L 254.512556 107.923495 
L 257.067529 107.923495 
L 257.227215 110.371665 
L 257.865958 110.371665 
L 258.025644 107.923495 
L 258.504701 107.923495 
L 258.664387 105.475325 
L 259.782188 105.475325 
L 259.941874 107.923495 
L 260.101559 105.475325 
L 260.420931 105.475325 
L 260.580617 103.027155 
L 262.656532 103.027155 
L 262.816218 105.475325 
L 265.530877 105.475325 
L 265.690563 103.027155 
L 267.127735 103.027155 
L 267.287421 105.475325 
L 267.447106 105.475325 
L 267.606792 107.923495 
L 267.766478 107.923495 
L 267.926164 105.475325 
L 269.523022 105.475325 
L 269.682708 103.027155 
L 269.842393 105.475325 
L 270.321451 105.475325 
L 270.481137 103.027155 
L 270.640822 105.475325 
L 270.800508 105.475325 
L 270.960194 107.923495 
L 273.674853 107.923495 
L 273.834539 110.371665 
L 275.271711 110.371665 
L 275.431397 107.923495 
L 277.666998 107.923495 
L 277.826684 105.475325 
L 278.146055 105.475325 
L 278.305741 107.923495 
L 278.465427 107.923495 
L 278.625113 110.371665 
L 278.784798 107.923495 
L 282.457572 107.923495 
L 282.617258 110.371665 
L 282.776944 110.371665 
L 282.936629 112.819835 
L 283.256001 112.819835 
L 283.415687 115.268005 
L 283.575373 115.268005 
L 283.735058 112.819835 
L 284.533487 112.819835 
L 284.693173 115.268005 
L 285.651288 115.268005 
L 285.810974 117.716175 
L 286.928774 117.716175 
L 287.08846 120.164345 
L 287.407832 120.164345 
L 287.567518 122.612515 
L 287.727203 122.612515 
L 287.886889 125.060685 
L 289.00469 125.060685 
L 289.164376 122.612515 
L 292.03872 122.612515 
L 292.198406 125.060685 
L 294.593693 125.060685 
L 294.753379 122.612515 
L 296.509923 122.612515 
L 296.669608 125.060685 
L 299.064895 125.060685 
L 299.224581 122.612515 
L 299.703639 122.612515 
L 299.863324 125.060685 
L 300.502068 125.060685 
L 300.661753 127.508855 
L 300.981125 127.508855 
L 300.981125 127.508855 
" clip-path="url(#p05792f362f)" style="fill: none; stroke: #9467bd; stroke-width: 1.5; stroke-linecap: square"/>
   </g>
   <g id="line2d_24">
    <path d="M 104.727273 78.545455 
L 292.837149 78.545455 
L 292.837149 78.545455 
" clip-path="url(#p05792f362f)" style="fill: none; stroke: #8c564b; stroke-width: 1.5; stroke-linecap: square"/>
   </g>
   <g id="line2d_25">
    <path d="M 104.727273 166.679575 
L 106.643502 166.679575 
L 106.803188 169.127745 
L 106.962874 166.679575 
L 107.761303 166.679575 
L 107.920989 164.231405 
L 108.080675 164.231405 
L 108.24036 166.679575 
L 108.400046 166.679575 
L 108.559732 169.127745 
L 109.358161 169.127745 
L 109.517847 171.575915 
L 109.677533 171.575915 
L 109.837218 174.024085 
L 109.996904 174.024085 
L 110.15659 171.575915 
L 110.475962 171.575915 
L 110.635647 169.127745 
L 110.955019 169.127745 
L 111.114705 166.679575 
L 111.274391 169.127745 
L 111.434076 169.127745 
L 111.593762 171.575915 
L 111.753448 171.575915 
L 112.07282 166.679575 
L 112.232505 169.127745 
L 113.829364 169.127745 
L 113.989049 166.679575 
L 114.148735 166.679575 
L 114.308421 164.231405 
L 114.468107 166.679575 
L 115.426222 166.679575 
L 115.585907 164.231405 
L 115.745593 166.679575 
L 116.224651 166.679575 
L 116.384336 164.231405 
L 116.703708 169.127745 
L 118.14088 169.127745 
L 118.300566 171.575915 
L 118.779623 171.575915 
L 118.939309 169.127745 
L 119.897424 169.127745 
L 120.05711 166.679575 
L 120.536167 166.679575 
L 120.855539 161.783235 
L 121.334596 161.783235 
L 121.494282 159.335065 
L 122.292711 159.335065 
L 122.452397 161.783235 
L 122.612083 159.335065 
L 124.208941 159.335065 
L 124.368627 161.783235 
L 125.00737 161.783235 
L 125.167056 159.335065 
L 125.326741 159.335065 
L 125.486427 161.783235 
L 125.805799 161.783235 
L 125.965485 159.335065 
L 127.402657 159.335065 
L 127.562343 156.886895 
L 127.722028 156.886895 
L 127.881714 159.335065 
L 128.520457 159.335065 
L 128.680143 156.886895 
L 128.839829 159.335065 
L 129.318886 159.335065 
L 129.478572 156.886895 
L 129.638258 156.886895 
L 129.95763 161.783235 
L 130.277001 161.783235 
L 130.436687 159.335065 
L 131.235116 159.335065 
L 131.394802 156.886895 
L 131.554488 159.335065 
L 132.512603 159.335065 
L 132.672288 156.886895 
L 132.831974 156.886895 
L 132.99166 159.335065 
L 133.151346 156.886895 
L 133.790089 156.886895 
L 133.949775 159.335065 
L 134.90789 159.335065 
L 135.067575 161.783235 
L 135.386947 161.783235 
L 135.546633 159.335065 
L 137.143491 159.335065 
L 137.303177 161.783235 
L 137.782234 161.783235 
L 137.94192 159.335065 
L 138.580663 159.335065 
L 138.740349 156.886895 
L 139.219406 156.886895 
L 139.538778 161.783235 
L 140.017835 161.783235 
L 140.496893 154.438725 
L 140.656578 154.438725 
L 140.816264 151.990555 
L 141.295322 151.990555 
L 141.455008 149.542385 
L 141.614693 149.542385 
L 141.774379 147.094215 
L 142.89218 147.094215 
L 143.051866 149.542385 
L 144.169666 149.542385 
L 144.329352 151.990555 
L 144.648724 151.990555 
L 144.808409 149.542385 
L 145.447153 149.542385 
L 145.606838 151.990555 
L 145.766524 151.990555 
L 145.92621 154.438725 
L 146.085896 154.438725 
L 146.245582 156.886895 
L 146.405267 154.438725 
L 146.724639 159.335065 
L 147.523068 159.335065 
L 147.682754 156.886895 
L 147.84244 159.335065 
L 148.321497 159.335065 
L 148.640869 154.438725 
L 149.439298 154.438725 
L 149.598983 156.886895 
L 149.918355 156.886895 
L 150.078041 159.335065 
L 150.237727 156.886895 
L 152.952385 156.886895 
L 153.271757 161.783235 
L 154.229872 161.783235 
L 154.389558 159.335065 
L 156.146101 159.335065 
L 156.305787 156.886895 
L 156.94453 156.886895 
L 157.104216 159.335065 
L 157.263902 159.335065 
L 157.423588 156.886895 
L 157.902645 156.886895 
L 158.222017 161.783235 
L 158.381703 161.783235 
L 158.541388 164.231405 
L 159.020446 164.231405 
L 159.180132 161.783235 
L 159.339817 161.783235 
L 159.499503 164.231405 
L 159.659189 164.231405 
L 159.818875 161.783235 
L 160.457618 161.783235 
L 160.617304 164.231405 
L 160.77699 161.783235 
L 160.936676 164.231405 
L 161.415733 164.231405 
L 161.89479 156.886895 
L 163.331963 156.886895 
L 163.491648 154.438725 
L 165.248192 154.438725 
L 165.407878 156.886895 
L 165.567564 154.438725 
L 165.72725 154.438725 
L 165.886935 151.990555 
L 166.046621 151.990555 
L 166.206307 154.438725 
L 166.365993 154.438725 
L 166.525679 151.990555 
L 167.004736 151.990555 
L 167.164422 154.438725 
L 169.080651 154.438725 
L 169.240337 151.990555 
L 170.198452 151.990555 
L 170.358138 154.438725 
L 170.837195 154.438725 
L 170.996881 156.886895 
L 171.156567 156.886895 
L 171.475939 151.990555 
L 174.82934 151.990555 
L 175.148712 147.094215 
L 175.308398 147.094215 
L 175.468084 144.646045 
L 175.947141 144.646045 
L 176.266513 139.749705 
L 176.426198 139.749705 
L 176.585884 142.197875 
L 176.74557 142.197875 
L 176.905256 144.646045 
L 177.384313 144.646045 
L 177.543999 142.197875 
L 177.703685 142.197875 
L 177.863371 139.749705 
L 178.023056 139.749705 
L 178.182742 137.301535 
L 178.342428 137.301535 
L 178.6618 132.405195 
L 179.619915 132.405195 
L 179.7796 129.957025 
L 179.939286 132.405195 
L 180.737715 132.405195 
L 180.897401 134.853365 
L 181.057087 134.853365 
L 181.216773 137.301535 
L 181.376458 137.301535 
L 181.536144 134.853365 
L 181.855516 134.853365 
L 182.015202 132.405195 
L 182.494259 132.405195 
L 182.653945 134.853365 
L 182.973316 134.853365 
L 183.292688 139.749705 
L 183.771745 139.749705 
L 184.091117 144.646045 
L 184.889546 144.646045 
L 185.208918 139.749705 
L 186.326718 139.749705 
L 186.486404 142.197875 
L 186.64609 142.197875 
L 186.805776 144.646045 
L 187.444519 144.646045 
L 187.604205 147.094215 
L 188.56232 147.094215 
L 188.722005 149.542385 
L 188.881691 149.542385 
L 189.041377 147.094215 
L 189.201063 147.094215 
L 189.360749 149.542385 
L 189.520434 149.542385 
L 189.68012 151.990555 
L 189.999492 151.990555 
L 190.159178 149.542385 
L 190.318863 149.542385 
L 190.478549 147.094215 
L 191.117292 147.094215 
L 191.276978 149.542385 
L 191.436664 147.094215 
L 192.394779 147.094215 
L 192.554465 144.646045 
L 192.71415 144.646045 
L 192.873836 142.197875 
L 193.831951 142.197875 
L 193.991637 144.646045 
L 196.067552 144.646045 
L 196.227238 147.094215 
L 196.706295 147.094215 
L 196.865981 144.646045 
L 197.983782 144.646045 
L 198.143468 142.197875 
L 198.941897 142.197875 
L 199.101583 139.749705 
L 199.420954 139.749705 
L 199.740326 144.646045 
L 200.219383 144.646045 
L 200.379069 147.094215 
L 201.017812 147.094215 
L 201.177498 149.542385 
L 202.135613 149.542385 
L 202.295299 147.094215 
L 202.774356 147.094215 
L 202.934042 144.646045 
L 203.093728 144.646045 
L 203.413099 149.542385 
L 208.363359 149.542385 
L 208.523045 147.094215 
L 208.682731 147.094215 
L 208.842417 144.646045 
L 211.078018 144.646045 
L 211.237704 147.094215 
L 211.716761 147.094215 
L 211.876447 144.646045 
L 212.036133 144.646045 
L 212.195818 147.094215 
L 212.674876 147.094215 
L 212.834562 144.646045 
L 212.994247 144.646045 
L 213.153933 142.197875 
L 214.43142 142.197875 
L 214.591105 139.749705 
L 214.910477 139.749705 
L 215.070163 137.301535 
L 215.229849 137.301535 
L 215.389534 139.749705 
L 215.708906 139.749705 
L 216.028278 134.853365 
L 216.826707 134.853365 
L 216.986393 137.301535 
L 217.784822 137.301535 
L 218.104193 142.197875 
L 218.263879 142.197875 
L 218.423565 139.749705 
L 218.583251 139.749705 
L 218.742936 137.301535 
L 219.38168 137.301535 
L 219.541365 134.853365 
L 220.020423 134.853365 
L 220.180109 137.301535 
L 221.138223 137.301535 
L 221.297909 134.853365 
L 221.457595 137.301535 
L 221.617281 134.853365 
L 221.776967 134.853365 
L 221.936652 132.405195 
L 223.054453 132.405195 
L 223.214139 129.957025 
L 223.53351 129.957025 
L 223.693196 132.405195 
L 225.769112 132.405195 
L 225.928798 129.957025 
L 227.845027 129.957025 
L 228.004713 132.405195 
L 228.164399 129.957025 
L 228.48377 129.957025 
L 228.643456 132.405195 
L 228.962828 132.405195 
L 229.122514 134.853365 
L 229.282199 132.405195 
L 230.719372 132.405195 
L 230.879057 129.957025 
L 231.358115 129.957025 
L 231.677486 125.060685 
L 232.156544 125.060685 
L 232.31623 122.612515 
L 232.954973 122.612515 
L 233.114659 120.164345 
L 233.274344 122.612515 
L 234.392145 122.612515 
L 234.551831 125.060685 
L 235.030888 125.060685 
L 235.35026 120.164345 
L 238.38429 120.164345 
L 238.543976 122.612515 
L 242.536121 122.612515 
L 242.695807 125.060685 
L 243.015178 125.060685 
L 243.174864 122.612515 
L 243.973293 122.612515 
L 244.132979 120.164345 
L 245.25078 120.164345 
L 245.410466 122.612515 
L 247.007324 122.612515 
L 247.326695 117.716175 
L 248.125124 117.716175 
L 248.28481 120.164345 
L 248.763867 120.164345 
L 248.923553 117.716175 
L 249.881668 117.716175 
L 250.041354 115.268005 
L 250.680097 115.268005 
L 250.839783 117.716175 
L 250.999469 117.716175 
L 251.159154 120.164345 
L 251.957583 120.164345 
L 252.117269 117.716175 
L 252.276955 117.716175 
L 252.436641 120.164345 
L 252.596327 117.716175 
L 252.756012 120.164345 
L 253.23507 120.164345 
L 253.394756 117.716175 
L 254.352871 117.716175 
L 254.512556 120.164345 
L 255.470671 120.164345 
L 255.630357 117.716175 
L 256.428786 117.716175 
L 256.588472 120.164345 
L 258.504701 120.164345 
L 258.664387 117.716175 
L 258.983759 122.612515 
L 259.143445 122.612515 
L 259.30313 125.060685 
L 259.782188 125.060685 
L 259.941874 122.612515 
L 260.420931 122.612515 
L 260.580617 120.164345 
L 261.698417 120.164345 
L 261.858103 122.612515 
L 263.614647 122.612515 
L 263.774333 125.060685 
L 265.051819 125.060685 
L 265.211505 122.612515 
L 265.530877 122.612515 
L 265.690563 125.060685 
L 266.329306 125.060685 
L 266.488992 122.612515 
L 267.926164 122.612515 
L 268.08585 125.060685 
L 268.724593 125.060685 
L 268.884279 127.508855 
L 269.363336 127.508855 
L 269.523022 129.957025 
L 270.321451 129.957025 
L 270.481137 127.508855 
L 273.03611 127.508855 
L 273.195795 129.957025 
L 274.473282 129.957025 
L 274.632968 127.508855 
L 276.868569 127.508855 
L 277.028255 129.957025 
L 277.18794 129.957025 
L 277.347626 127.508855 
L 277.507312 127.508855 
L 277.826684 132.405195 
L 278.146055 132.405195 
L 278.305741 134.853365 
L 278.625113 134.853365 
L 278.944484 139.749705 
L 279.263856 139.749705 
L 279.423542 142.197875 
L 279.742913 142.197875 
L 280.062285 147.094215 
L 280.221971 144.646045 
L 280.541342 144.646045 
L 280.701028 147.094215 
L 281.659143 147.094215 
L 281.818829 144.646045 
L 282.617258 144.646045 
L 282.776944 142.197875 
L 282.936629 142.197875 
L 283.096315 139.749705 
L 284.214116 139.749705 
L 284.373802 137.301535 
L 284.533487 139.749705 
L 284.693173 137.301535 
L 286.290031 137.301535 
L 286.449717 134.853365 
L 288.046575 134.853365 
L 288.206261 137.301535 
L 288.365947 137.301535 
L 288.525632 134.853365 
L 288.685318 134.853365 
L 288.845004 137.301535 
L 289.483747 137.301535 
L 289.643433 139.749705 
L 290.601548 139.749705 
L 290.920919 134.853365 
L 291.080605 134.853365 
L 291.240291 132.405195 
L 291.879034 132.405195 
L 292.03872 134.853365 
L 292.837149 134.853365 
L 292.996835 132.405195 
L 293.635578 132.405195 
L 293.795264 129.957025 
L 293.95495 132.405195 
L 294.593693 132.405195 
L 294.593693 132.405195 
" clip-path="url(#p05792f362f)" style="fill: none; stroke: #e377c2; stroke-width: 1.5; stroke-linecap: square"/>
   </g>
   <g id="line2d_26">
    <path d="M 104.727273 78.545455 
L 302.258612 78.545455 
L 302.258612 78.545455 
" clip-path="url(#p05792f362f)" style="fill: none; stroke: #7f7f7f; stroke-width: 1.5; stroke-linecap: square"/>
   </g>
   <g id="line2d_27">
    <path d="M 104.727273 264.606375 
L 104.886959 264.606375 
L 105.046644 267.054545 
L 105.525702 267.054545 
L 105.685388 264.606375 
L 105.845073 264.606375 
L 106.004759 262.158205 
L 106.483817 262.158205 
L 106.643502 259.710035 
L 106.803188 259.710035 
L 106.962874 257.261865 
L 107.12256 257.261865 
L 107.282246 259.710035 
L 108.080675 259.710035 
L 108.24036 257.261865 
L 108.719418 257.261865 
L 108.879104 254.813695 
L 109.198475 254.813695 
L 109.358161 252.365525 
L 109.837218 252.365525 
L 109.996904 249.917355 
L 110.316276 249.917355 
L 110.475962 252.365525 
L 110.635647 252.365525 
L 110.795333 249.917355 
L 110.955019 252.365525 
L 111.114705 252.365525 
L 111.274391 254.813695 
L 111.753448 254.813695 
L 111.913134 252.365525 
L 112.07282 254.813695 
L 112.711563 254.813695 
L 113.030935 249.917355 
L 113.350306 249.917355 
L 113.509992 247.469185 
L 113.829364 247.469185 
L 113.989049 245.021015 
L 114.308421 245.021015 
L 114.468107 247.469185 
L 114.947164 247.469185 
L 115.266536 242.572845 
L 115.426222 245.021015 
L 115.585907 245.021015 
L 115.745593 242.572845 
L 115.905279 242.572845 
L 116.224651 237.676505 
L 116.384336 237.676505 
L 116.703708 232.780165 
L 116.863394 232.780165 
L 117.182765 227.883825 
L 117.502137 227.883825 
L 117.661823 225.435655 
L 117.821509 225.435655 
L 117.981194 222.987485 
L 118.14088 222.987485 
L 118.300566 220.539315 
L 118.619938 220.539315 
L 119.098995 213.194805 
L 119.418367 213.194805 
L 119.578052 210.746635 
L 119.737738 210.746635 
L 120.376481 200.953955 
L 121.015225 200.953955 
L 121.17491 198.505785 
L 121.334596 198.505785 
L 121.653968 193.609445 
L 121.813654 193.609445 
L 121.973339 191.161275 
L 122.292711 191.161275 
L 122.452397 188.713105 
L 122.612083 188.713105 
L 122.771769 186.264935 
L 123.09114 186.264935 
L 123.250826 183.816765 
L 123.410512 183.816765 
L 123.570198 181.368595 
L 123.729883 181.368595 
L 123.889569 178.920425 
L 124.208941 178.920425 
L 124.528312 174.024085 
L 124.687998 174.024085 
L 125.00737 169.127745 
L 125.167056 171.575915 
L 125.486427 166.679575 
L 125.646113 166.679575 
L 125.965485 161.783235 
L 126.12517 161.783235 
L 126.444542 156.886895 
L 126.604228 156.886895 
L 126.763914 159.335065 
L 127.402657 159.335065 
L 127.562343 156.886895 
L 127.722028 156.886895 
L 127.881714 159.335065 
L 128.0414 156.886895 
L 128.360772 156.886895 
L 128.680143 151.990555 
L 129.478572 151.990555 
L 129.638258 149.542385 
L 129.797944 149.542385 
L 129.95763 147.094215 
L 130.596373 147.094215 
L 130.756059 144.646045 
L 131.07543 144.646045 
L 131.235116 147.094215 
L 131.394802 147.094215 
L 131.554488 144.646045 
L 132.033545 144.646045 
L 132.193231 142.197875 
L 132.512603 142.197875 
L 132.672288 139.749705 
L 132.831974 142.197875 
L 133.151346 142.197875 
L 133.311032 139.749705 
L 134.428832 139.749705 
L 134.588518 137.301535 
L 135.386947 137.301535 
L 135.546633 134.853365 
L 135.706319 134.853365 
L 135.866004 132.405195 
L 136.504748 132.405195 
L 136.983805 125.060685 
L 138.420977 125.060685 
L 138.740349 129.957025 
L 139.05972 129.957025 
L 139.219406 127.508855 
L 141.614693 127.508855 
L 141.774379 129.957025 
L 142.253437 129.957025 
L 142.413122 127.508855 
L 142.732494 127.508855 
L 142.89218 125.060685 
L 143.051866 125.060685 
L 143.211551 122.612515 
L 143.371237 122.612515 
L 143.530923 120.164345 
L 143.850295 120.164345 
L 144.00998 117.716175 
L 144.808409 117.716175 
L 144.968095 120.164345 
L 146.245582 120.164345 
L 146.405267 117.716175 
L 147.203696 117.716175 
L 147.523068 112.819835 
L 147.84244 112.819835 
L 148.002125 115.268005 
L 149.598983 115.268005 
L 149.758669 117.716175 
L 153.112071 117.716175 
L 153.271757 115.268005 
L 153.431443 115.268005 
L 153.591129 117.716175 
L 154.389558 117.716175 
L 154.549243 115.268005 
L 154.708929 117.716175 
L 154.868615 117.716175 
L 155.028301 120.164345 
L 155.507358 120.164345 
L 155.667044 122.612515 
L 155.82673 122.612515 
L 155.986416 120.164345 
L 156.625159 120.164345 
L 156.784845 122.612515 
L 156.94453 122.612515 
L 157.104216 120.164345 
L 158.541388 120.164345 
L 158.701074 117.716175 
L 159.659189 117.716175 
L 159.818875 115.268005 
L 161.89479 115.268005 
L 162.054476 117.716175 
L 163.012591 117.716175 
L 163.172277 115.268005 
L 163.331963 115.268005 
L 163.491648 117.716175 
L 164.130392 117.716175 
L 164.290077 120.164345 
L 165.886935 120.164345 
L 166.046621 122.612515 
L 166.525679 122.612515 
L 166.685364 125.060685 
L 166.84505 122.612515 
L 170.038766 122.612515 
L 170.198452 125.060685 
L 170.358138 125.060685 
L 170.67751 120.164345 
L 172.434053 120.164345 
L 172.593739 122.612515 
L 172.753425 122.612515 
L 172.913111 125.060685 
L 173.551854 125.060685 
L 173.71154 122.612515 
L 174.190597 122.612515 
L 174.509969 127.508855 
L 175.787455 127.508855 
L 175.947141 129.957025 
L 176.74557 129.957025 
L 176.905256 127.508855 
L 180.098972 127.508855 
L 180.258658 129.957025 
L 181.216773 129.957025 
L 181.376458 127.508855 
L 181.536144 127.508855 
L 181.69583 125.060685 
L 185.368603 125.060685 
L 185.528289 122.612515 
L 185.687975 122.612515 
L 185.847661 125.060685 
L 186.167032 125.060685 
L 186.326718 127.508855 
L 186.486404 127.508855 
L 186.64609 125.060685 
L 186.805776 125.060685 
L 186.965461 122.612515 
L 187.444519 122.612515 
L 187.604205 120.164345 
L 188.56232 120.164345 
L 188.722005 117.716175 
L 188.881691 117.716175 
L 189.041377 120.164345 
L 193.672265 120.164345 
L 193.831951 122.612515 
L 195.269123 122.612515 
L 195.428809 120.164345 
L 196.067552 120.164345 
L 196.227238 117.716175 
L 196.54661 117.716175 
L 196.706295 115.268005 
L 196.865981 115.268005 
L 197.025667 117.716175 
L 197.345039 117.716175 
L 197.504725 120.164345 
L 197.824096 120.164345 
L 197.983782 117.716175 
L 198.462839 117.716175 
L 198.622525 115.268005 
L 200.219383 115.268005 
L 200.379069 117.716175 
L 201.49687 117.716175 
L 201.656555 120.164345 
L 201.975927 120.164345 
L 202.135613 117.716175 
L 203.093728 117.716175 
L 203.253413 120.164345 
L 204.371214 120.164345 
L 204.5309 117.716175 
L 204.690586 117.716175 
L 204.850271 115.268005 
L 205.009957 115.268005 
L 205.329329 120.164345 
L 206.127758 120.164345 
L 206.447129 115.268005 
L 207.724616 115.268005 
L 207.884302 112.819835 
L 208.203673 112.819835 
L 208.363359 115.268005 
L 210.279589 115.268005 
L 210.439275 117.716175 
L 211.716761 117.716175 
L 211.876447 115.268005 
L 212.036133 115.268005 
L 212.195818 112.819835 
L 215.708906 112.819835 
L 216.028278 117.716175 
L 216.347649 117.716175 
L 216.507335 120.164345 
L 217.625136 120.164345 
L 217.784822 117.716175 
L 218.104193 117.716175 
L 218.263879 115.268005 
L 220.818852 115.268005 
L 220.978538 112.819835 
L 221.297909 117.716175 
L 223.214139 117.716175 
L 223.373825 120.164345 
L 225.609426 120.164345 
L 225.928798 115.268005 
L 228.803142 115.268005 
L 228.962828 112.819835 
L 229.282199 112.819835 
L 229.441885 110.371665 
L 232.156544 110.371665 
L 232.31623 107.923495 
L 233.43403 107.923495 
L 233.593716 105.475325 
L 236.947118 105.475325 
L 237.26649 100.578985 
L 238.224604 100.578985 
L 238.38429 103.027155 
L 240.140834 103.027155 
L 240.30052 100.578985 
L 240.619891 100.578985 
L 240.779577 103.027155 
L 242.216749 103.027155 
L 242.376435 100.578985 
L 244.452351 100.578985 
L 244.612037 103.027155 
L 247.646067 103.027155 
L 247.965438 98.130815 
L 248.28481 98.130815 
L 248.444496 95.682645 
L 248.604182 95.682645 
L 248.763867 98.130815 
L 250.041354 98.130815 
L 250.20104 100.578985 
L 252.915698 100.578985 
L 253.23507 95.682645 
L 255.1513 95.682645 
L 255.310985 93.234475 
L 255.630357 93.234475 
L 255.790043 95.682645 
L 257.227215 95.682645 
L 257.386901 98.130815 
L 257.546587 98.130815 
L 257.706272 100.578985 
L 261.379046 100.578985 
L 261.538732 103.027155 
L 263.295275 103.027155 
L 263.454961 105.475325 
L 266.009934 105.475325 
L 266.16962 107.923495 
L 266.488992 107.923495 
L 266.648677 110.371665 
L 266.808363 110.371665 
L 266.968049 112.819835 
L 267.127735 110.371665 
L 269.20365 110.371665 
L 269.363336 112.819835 
L 269.682708 112.819835 
L 269.842393 115.268005 
L 270.161765 115.268005 
L 270.321451 112.819835 
L 272.557052 112.819835 
L 272.716738 110.371665 
L 275.431397 110.371665 
L 275.591082 112.819835 
L 276.389511 112.819835 
L 276.549197 110.371665 
L 277.507312 110.371665 
L 277.666998 112.819835 
L 280.541342 112.819835 
L 280.701028 110.371665 
L 281.0204 110.371665 
L 281.180085 112.819835 
L 281.978514 112.819835 
L 282.1382 110.371665 
L 283.096315 110.371665 
L 283.256001 112.819835 
L 283.575373 112.819835 
L 283.735058 115.268005 
L 287.08846 115.268005 
L 287.248146 117.716175 
L 287.567518 117.716175 
L 287.727203 115.268005 
L 288.525632 115.268005 
L 288.685318 117.716175 
L 289.164376 117.716175 
L 289.324061 115.268005 
L 289.483747 115.268005 
L 289.643433 112.819835 
L 289.803119 115.268005 
L 291.719349 115.268005 
L 291.879034 117.716175 
L 292.837149 117.716175 
L 292.996835 120.164345 
L 293.316207 120.164345 
L 293.475892 117.716175 
L 295.232436 117.716175 
L 295.392122 115.268005 
L 296.030865 115.268005 
L 296.190551 117.716175 
L 296.669608 117.716175 
L 296.829294 120.164345 
L 297.947095 120.164345 
L 298.106781 117.716175 
L 298.426152 117.716175 
L 298.585838 115.268005 
L 298.745524 115.268005 
L 298.90521 112.819835 
L 300.02301 112.819835 
L 300.182696 115.268005 
L 301.140811 115.268005 
L 301.300497 112.819835 
L 301.779554 112.819835 
L 301.93924 115.268005 
L 305.132956 115.268005 
L 305.292642 117.716175 
L 306.729814 117.716175 
L 306.8895 120.164345 
L 307.368557 120.164345 
L 307.528243 117.716175 
L 307.687929 120.164345 
L 309.444473 120.164345 
L 309.604158 117.716175 
L 311.041331 117.716175 
L 311.201017 120.164345 
L 312.159131 120.164345 
L 312.318817 122.612515 
L 312.95756 122.612515 
L 313.117246 120.164345 
L 314.235047 120.164345 
L 314.394733 122.612515 
L 315.033476 122.612515 
L 315.193162 120.164345 
L 315.512533 120.164345 
L 315.672219 117.716175 
L 317.428763 117.716175 
L 317.748134 122.612515 
L 319.025621 122.612515 
L 319.185307 120.164345 
L 320.462793 120.164345 
L 320.622479 117.716175 
L 321.580594 117.716175 
L 321.74028 115.268005 
L 322.538709 115.268005 
L 322.698394 117.716175 
L 323.656509 117.716175 
L 323.816195 115.268005 
L 324.77431 115.268005 
L 324.933996 112.819835 
L 325.89211 112.819835 
L 326.051796 115.268005 
L 327.968026 115.268005 
L 328.127712 112.819835 
L 328.287397 115.268005 
L 328.606769 115.268005 
L 328.766455 112.819835 
L 333.557029 112.819835 
L 333.876401 107.923495 
L 334.195772 107.923495 
L 334.355458 110.371665 
L 335.473259 110.371665 
L 335.632944 112.819835 
L 337.070117 112.819835 
L 337.229802 110.371665 
L 338.666975 110.371665 
L 338.826661 107.923495 
L 340.902576 107.923495 
L 341.062262 110.371665 
L 342.978491 110.371665 
L 343.138177 107.923495 
L 344.096292 107.923495 
L 344.255978 105.475325 
L 344.894721 105.475325 
L 345.054407 107.923495 
L 348.407809 107.923495 
L 348.567495 110.371665 
L 349.365924 110.371665 
L 349.685295 105.475325 
L 352.240268 105.475325 
L 352.399954 107.923495 
L 356.072727 107.923495 
L 356.072727 107.923495 
" clip-path="url(#p05792f362f)" style="fill: none; stroke: #bcbd22; stroke-width: 1.5; stroke-linecap: square"/>
   </g>
   <g id="patch_3">
    <path d="M 92.16 276.48 
L 92.16 69.12 
" style="fill: none; stroke: #000000; stroke-width: 0.8; stroke-linejoin: miter; stroke-linecap: square"/>
   </g>
   <g id="patch_4">
    <path d="M 368.64 276.48 
L 368.64 69.12 
" style="fill: none; stroke: #000000; stroke-width: 0.8; stroke-linejoin: miter; stroke-linecap: square"/>
   </g>
   <g id="patch_5">
    <path d="M 92.16 276.48 
L 368.64 276.48 
" style="fill: none; stroke: #000000; stroke-width: 0.8; stroke-linejoin: miter; stroke-linecap: square"/>
   </g>
   <g id="patch_6">
    <path d="M 92.16 69.12 
L 368.64 69.12 
" style="fill: none; stroke: #000000; stroke-width: 0.8; stroke-linejoin: miter; stroke-linecap: square"/>
   </g>
   <g id="text_19">
    <!-- fixed_woosterprobe_2afc_og -->
    <g transform="translate(145.171875 63.12) scale(0.12 -0.12)">
     <defs>
      <path id="DejaVuSans-66" d="M 2375 4863 
L 2375 4384 
L 1825 4384 
Q 1516 4384 1395 4259 
Q 1275 4134 1275 3809 
L 1275 3500 
L 2222 3500 
L 2222 3053 
L 1275 3053 
L 1275 0 
L 697 0 
L 697 3053 
L 147 3053 
L 147 3500 
L 697 3500 
L 697 3744 
Q 697 4328 969 4595 
Q 1241 4863 1831 4863 
L 2375 4863 
z
" transform="scale(0.015625)"/>
      <path id="DejaVuSans-69" d="M 603 3500 
L 1178 3500 
L 1178 0 
L 603 0 
L 603 3500 
z
M 603 4863 
L 1178 4863 
L 1178 4134 
L 603 4134 
L 603 4863 
z
" transform="scale(0.015625)"/>
      <path id="DejaVuSans-78" d="M 3513 3500 
L 2247 1797 
L 3578 0 
L 2900 0 
L 1881 1375 
L 863 0 
L 184 0 
L 1544 1831 
L 300 3500 
L 978 3500 
L 1906 2253 
L 2834 3500 
L 3513 3500 
z
" transform="scale(0.015625)"/>
      <path id="DejaVuSans-65" d="M 3597 1894 
L 3597 1613 
L 953 1613 
Q 991 1019 1311 708 
Q 1631 397 2203 397 
Q 2534 397 2845 478 
Q 3156 559 3463 722 
L 3463 178 
Q 3153 47 2828 -22 
Q 2503 -91 2169 -91 
Q 1331 -91 842 396 
Q 353 884 353 1716 
Q 353 2575 817 3079 
Q 1281 3584 2069 3584 
Q 2775 3584 3186 3129 
Q 3597 2675 3597 1894 
z
M 3022 2063 
Q 3016 2534 2758 2815 
Q 2500 3097 2075 3097 
Q 1594 3097 1305 2825 
Q 1016 2553 972 2059 
L 3022 2063 
z
" transform="scale(0.015625)"/>
      <path id="DejaVuSans-64" d="M 2906 2969 
L 2906 4863 
L 3481 4863 
L 3481 0 
L 2906 0 
L 2906 525 
Q 2725 213 2448 61 
Q 2172 -91 1784 -91 
Q 1150 -91 751 415 
Q 353 922 353 1747 
Q 353 2572 751 3078 
Q 1150 3584 1784 3584 
Q 2172 3584 2448 3432 
Q 2725 3281 2906 2969 
z
M 947 1747 
Q 947 1113 1208 752 
Q 1469 391 1925 391 
Q 2381 391 2643 752 
Q 2906 1113 2906 1747 
Q 2906 2381 2643 2742 
Q 2381 3103 1925 3103 
Q 1469 3103 1208 2742 
Q 947 2381 947 1747 
z
" transform="scale(0.015625)"/>
      <path id="DejaVuSans-5f" d="M 3263 -1063 
L 3263 -1509 
L -63 -1509 
L -63 -1063 
L 3263 -1063 
z
" transform="scale(0.015625)"/>
      <path id="DejaVuSans-77" d="M 269 3500 
L 844 3500 
L 1563 769 
L 2278 3500 
L 2956 3500 
L 3675 769 
L 4391 3500 
L 4966 3500 
L 4050 0 
L 3372 0 
L 2619 2869 
L 1863 0 
L 1184 0 
L 269 3500 
z
" transform="scale(0.015625)"/>
      <path id="DejaVuSans-6f" d="M 1959 3097 
Q 1497 3097 1228 2736 
Q 959 2375 959 1747 
Q 959 1119 1226 758 
Q 1494 397 1959 397 
Q 2419 397 2687 759 
Q 2956 1122 2956 1747 
Q 2956 2369 2687 2733 
Q 2419 3097 1959 3097 
z
M 1959 3584 
Q 2709 3584 3137 3096 
Q 3566 2609 3566 1747 
Q 3566 888 3137 398 
Q 2709 -91 1959 -91 
Q 1206 -91 779 398 
Q 353 888 353 1747 
Q 353 2609 779 3096 
Q 1206 3584 1959 3584 
z
" transform="scale(0.015625)"/>
      <path id="DejaVuSans-73" d="M 2834 3397 
L 2834 2853 
Q 2591 2978 2328 3040 
Q 2066 3103 1784 3103 
Q 1356 3103 1142 2972 
Q 928 2841 928 2578 
Q 928 2378 1081 2264 
Q 1234 2150 1697 2047 
L 1894 2003 
Q 2506 1872 2764 1633 
Q 3022 1394 3022 966 
Q 3022 478 2636 193 
Q 2250 -91 1575 -91 
Q 1294 -91 989 -36 
Q 684 19 347 128 
L 347 722 
Q 666 556 975 473 
Q 1284 391 1588 391 
Q 1994 391 2212 530 
Q 2431 669 2431 922 
Q 2431 1156 2273 1281 
Q 2116 1406 1581 1522 
L 1381 1569 
Q 847 1681 609 1914 
Q 372 2147 372 2553 
Q 372 3047 722 3315 
Q 1072 3584 1716 3584 
Q 2034 3584 2315 3537 
Q 2597 3491 2834 3397 
z
" transform="scale(0.015625)"/>
      <path id="DejaVuSans-74" d="M 1172 4494 
L 1172 3500 
L 2356 3500 
L 2356 3053 
L 1172 3053 
L 1172 1153 
Q 1172 725 1289 603 
Q 1406 481 1766 481 
L 2356 481 
L 2356 0 
L 1766 0 
Q 1100 0 847 248 
Q 594 497 594 1153 
L 594 3053 
L 172 3053 
L 172 3500 
L 594 3500 
L 594 4494 
L 1172 4494 
z
" transform="scale(0.015625)"/>
      <path id="DejaVuSans-72" d="M 2631 2963 
Q 2534 3019 2420 3045 
Q 2306 3072 2169 3072 
Q 1681 3072 1420 2755 
Q 1159 2438 1159 1844 
L 1159 0 
L 581 0 
L 581 3500 
L 1159 3500 
L 1159 2956 
Q 1341 3275 1631 3429 
Q 1922 3584 2338 3584 
Q 2397 3584 2469 3576 
Q 2541 3569 2628 3553 
L 2631 2963 
z
" transform="scale(0.015625)"/>
      <path id="DejaVuSans-70" d="M 1159 525 
L 1159 -1331 
L 581 -1331 
L 581 3500 
L 1159 3500 
L 1159 2969 
Q 1341 3281 1617 3432 
Q 1894 3584 2278 3584 
Q 2916 3584 3314 3078 
Q 3713 2572 3713 1747 
Q 3713 922 3314 415 
Q 2916 -91 2278 -91 
Q 1894 -91 1617 61 
Q 1341 213 1159 525 
z
M 3116 1747 
Q 3116 2381 2855 2742 
Q 2594 3103 2138 3103 
Q 1681 3103 1420 2742 
Q 1159 2381 1159 1747 
Q 1159 1113 1420 752 
Q 1681 391 2138 391 
Q 2594 391 2855 752 
Q 3116 1113 3116 1747 
z
" transform="scale(0.015625)"/>
      <path id="DejaVuSans-62" d="M 3116 1747 
Q 3116 2381 2855 2742 
Q 2594 3103 2138 3103 
Q 1681 3103 1420 2742 
Q 1159 2381 1159 1747 
Q 1159 1113 1420 752 
Q 1681 391 2138 391 
Q 2594 391 2855 752 
Q 3116 1113 3116 1747 
z
M 1159 2969 
Q 1341 3281 1617 3432 
Q 1894 3584 2278 3584 
Q 2916 3584 3314 3078 
Q 3713 2572 3713 1747 
Q 3713 922 3314 415 
Q 2916 -91 2278 -91 
Q 1894 -91 1617 61 
Q 1341 213 1159 525 
L 1159 0 
L 581 0 
L 581 4863 
L 1159 4863 
L 1159 2969 
z
" transform="scale(0.015625)"/>
      <path id="DejaVuSans-61" d="M 2194 1759 
Q 1497 1759 1228 1600 
Q 959 1441 959 1056 
Q 959 750 1161 570 
Q 1363 391 1709 391 
Q 2188 391 2477 730 
Q 2766 1069 2766 1631 
L 2766 1759 
L 2194 1759 
z
M 3341 1997 
L 3341 0 
L 2766 0 
L 2766 531 
Q 2569 213 2275 61 
Q 1981 -91 1556 -91 
Q 1019 -91 701 211 
Q 384 513 384 1019 
Q 384 1609 779 1909 
Q 1175 2209 1959 2209 
L 2766 2209 
L 2766 2266 
Q 2766 2663 2505 2880 
Q 2244 3097 1772 3097 
Q 1472 3097 1187 3025 
Q 903 2953 641 2809 
L 641 3341 
Q 956 3463 1253 3523 
Q 1550 3584 1831 3584 
Q 2591 3584 2966 3190 
Q 3341 2797 3341 1997 
z
" transform="scale(0.015625)"/>
      <path id="DejaVuSans-63" d="M 3122 3366 
L 3122 2828 
Q 2878 2963 2633 3030 
Q 2388 3097 2138 3097 
Q 1578 3097 1268 2742 
Q 959 2388 959 1747 
Q 959 1106 1268 751 
Q 1578 397 2138 397 
Q 2388 397 2633 464 
Q 2878 531 3122 666 
L 3122 134 
Q 2881 22 2623 -34 
Q 2366 -91 2075 -91 
Q 1284 -91 818 406 
Q 353 903 353 1747 
Q 353 2603 823 3093 
Q 1294 3584 2113 3584 
Q 2378 3584 2631 3529 
Q 2884 3475 3122 3366 
z
" transform="scale(0.015625)"/>
      <path id="DejaVuSans-67" d="M 2906 1791 
Q 2906 2416 2648 2759 
Q 2391 3103 1925 3103 
Q 1463 3103 1205 2759 
Q 947 2416 947 1791 
Q 947 1169 1205 825 
Q 1463 481 1925 481 
Q 2391 481 2648 825 
Q 2906 1169 2906 1791 
z
M 3481 434 
Q 3481 -459 3084 -895 
Q 2688 -1331 1869 -1331 
Q 1566 -1331 1297 -1286 
Q 1028 -1241 775 -1147 
L 775 -588 
Q 1028 -725 1275 -790 
Q 1522 -856 1778 -856 
Q 2344 -856 2625 -561 
Q 2906 -266 2906 331 
L 2906 616 
Q 2728 306 2450 153 
Q 2172 0 1784 0 
Q 1141 0 747 490 
Q 353 981 353 1791 
Q 353 2603 747 3093 
Q 1141 3584 1784 3584 
Q 2172 3584 2450 3431 
Q 2728 3278 2906 2969 
L 2906 3500 
L 3481 3500 
L 3481 434 
z
" transform="scale(0.015625)"/>
     </defs>
     <use xlink:href="#DejaVuSans-66"/>
     <use xlink:href="#DejaVuSans-69" x="35.205078"/>
     <use xlink:href="#DejaVuSans-78" x="62.988281"/>
     <use xlink:href="#DejaVuSans-65" x="119.042969"/>
     <use xlink:href="#DejaVuSans-64" x="180.566406"/>
     <use xlink:href="#DejaVuSans-5f" x="244.042969"/>
     <use xlink:href="#DejaVuSans-77" x="294.042969"/>
     <use xlink:href="#DejaVuSans-6f" x="375.830078"/>
     <use xlink:href="#DejaVuSans-6f" x="437.011719"/>
     <use xlink:href="#DejaVuSans-73" x="498.193359"/>
     <use xlink:href="#DejaVuSans-74" x="550.292969"/>
     <use xlink:href="#DejaVuSans-65" x="589.501953"/>
     <use xlink:href="#DejaVuSans-72" x="651.025391"/>
     <use xlink:href="#DejaVuSans-70" x="692.138672"/>
     <use xlink:href="#DejaVuSans-72" x="755.615234"/>
     <use xlink:href="#DejaVuSans-6f" x="794.478516"/>
     <use xlink:href="#DejaVuSans-62" x="855.660156"/>
     <use xlink:href="#DejaVuSans-65" x="919.136719"/>
     <use xlink:href="#DejaVuSans-5f" x="980.660156"/>
     <use xlink:href="#DejaVuSans-32" x="1030.660156"/>
     <use xlink:href="#DejaVuSans-61" x="1094.283203"/>
     <use xlink:href="#DejaVuSans-66" x="1155.5625"/>
     <use xlink:href="#DejaVuSans-63" x="1190.767578"/>
     <use xlink:href="#DejaVuSans-5f" x="1245.748047"/>
     <use xlink:href="#DejaVuSans-6f" x="1295.748047"/>
     <use xlink:href="#DejaVuSans-67" x="1356.929688"/>
    </g>
   </g>
   <g id="legend_1">
    <g id="patch_7">
     <path d="M 164.72125 271.48 
L 361.64 271.48 
Q 363.64 271.48 363.64 269.48 
L 363.64 135.87375 
Q 363.64 133.87375 361.64 133.87375 
L 164.72125 133.87375 
Q 162.72125 133.87375 162.72125 135.87375 
L 162.72125 269.48 
Q 162.72125 271.48 164.72125 271.48 
z
" style="fill: #ffffff; opacity: 0.8; stroke: #cccccc; stroke-linejoin: miter"/>
    </g>
    <g id="line2d_28">
     <path d="M 166.72125 141.972187 
L 176.72125 141.972187 
L 186.72125 141.972187 
" style="fill: none; stroke: #1f77b4; stroke-width: 1.5; stroke-linecap: square"/>
    </g>
    <g id="text_20">
     <!-- low_gauss_shape_to_color -->
     <g transform="translate(194.72125 145.472187) scale(0.1 -0.1)">
      <defs>
       <path id="DejaVuSans-6c" d="M 603 4863 
L 1178 4863 
L 1178 0 
L 603 0 
L 603 4863 
z
" transform="scale(0.015625)"/>
       <path id="DejaVuSans-75" d="M 544 1381 
L 544 3500 
L 1119 3500 
L 1119 1403 
Q 1119 906 1312 657 
Q 1506 409 1894 409 
Q 2359 409 2629 706 
Q 2900 1003 2900 1516 
L 2900 3500 
L 3475 3500 
L 3475 0 
L 2900 0 
L 2900 538 
Q 2691 219 2414 64 
Q 2138 -91 1772 -91 
Q 1169 -91 856 284 
Q 544 659 544 1381 
z
M 1991 3584 
L 1991 3584 
z
" transform="scale(0.015625)"/>
       <path id="DejaVuSans-68" d="M 3513 2113 
L 3513 0 
L 2938 0 
L 2938 2094 
Q 2938 2591 2744 2837 
Q 2550 3084 2163 3084 
Q 1697 3084 1428 2787 
Q 1159 2491 1159 1978 
L 1159 0 
L 581 0 
L 581 4863 
L 1159 4863 
L 1159 2956 
Q 1366 3272 1645 3428 
Q 1925 3584 2291 3584 
Q 2894 3584 3203 3211 
Q 3513 2838 3513 2113 
z
" transform="scale(0.015625)"/>
      </defs>
      <use xlink:href="#DejaVuSans-6c"/>
      <use xlink:href="#DejaVuSans-6f" x="27.783203"/>
      <use xlink:href="#DejaVuSans-77" x="88.964844"/>
      <use xlink:href="#DejaVuSans-5f" x="170.751953"/>
      <use xlink:href="#DejaVuSans-67" x="220.751953"/>
      <use xlink:href="#DejaVuSans-61" x="284.228516"/>
      <use xlink:href="#DejaVuSans-75" x="345.507812"/>
      <use xlink:href="#DejaVuSans-73" x="408.886719"/>
      <use xlink:href="#DejaVuSans-73" x="460.986328"/>
      <use xlink:href="#DejaVuSans-5f" x="513.085938"/>
      <use xlink:href="#DejaVuSans-73" x="563.085938"/>
      <use xlink:href="#DejaVuSans-68" x="615.185547"/>
      <use xlink:href="#DejaVuSans-61" x="678.564453"/>
      <use xlink:href="#DejaVuSans-70" x="739.84375"/>
      <use xlink:href="#DejaVuSans-65" x="803.320312"/>
      <use xlink:href="#DejaVuSans-5f" x="864.84375"/>
      <use xlink:href="#DejaVuSans-74" x="914.84375"/>
      <use xlink:href="#DejaVuSans-6f" x="954.052734"/>
      <use xlink:href="#DejaVuSans-5f" x="1015.234375"/>
      <use xlink:href="#DejaVuSans-63" x="1065.234375"/>
      <use xlink:href="#DejaVuSans-6f" x="1120.214844"/>
      <use xlink:href="#DejaVuSans-6c" x="1181.396484"/>
      <use xlink:href="#DejaVuSans-6f" x="1209.179688"/>
      <use xlink:href="#DejaVuSans-72" x="1270.361328"/>
     </g>
    </g>
    <g id="line2d_29">
     <path d="M 166.72125 156.928437 
L 176.72125 156.928437 
L 186.72125 156.928437 
" style="fill: none; stroke: #ff7f0e; stroke-width: 1.5; stroke-linecap: square"/>
    </g>
    <g id="text_21">
     <!-- focal_low_gauss_shape_to_color -->
     <g transform="translate(194.72125 160.428437) scale(0.1 -0.1)">
      <use xlink:href="#DejaVuSans-66"/>
      <use xlink:href="#DejaVuSans-6f" x="35.205078"/>
      <use xlink:href="#DejaVuSans-63" x="96.386719"/>
      <use xlink:href="#DejaVuSans-61" x="151.367188"/>
      <use xlink:href="#DejaVuSans-6c" x="212.646484"/>
      <use xlink:href="#DejaVuSans-5f" x="240.429688"/>
      <use xlink:href="#DejaVuSans-6c" x="290.429688"/>
      <use xlink:href="#DejaVuSans-6f" x="318.212891"/>
      <use xlink:href="#DejaVuSans-77" x="379.394531"/>
      <use xlink:href="#DejaVuSans-5f" x="461.181641"/>
      <use xlink:href="#DejaVuSans-67" x="511.181641"/>
      <use xlink:href="#DejaVuSans-61" x="574.658203"/>
      <use xlink:href="#DejaVuSans-75" x="635.9375"/>
      <use xlink:href="#DejaVuSans-73" x="699.316406"/>
      <use xlink:href="#DejaVuSans-73" x="751.416016"/>
      <use xlink:href="#DejaVuSans-5f" x="803.515625"/>
      <use xlink:href="#DejaVuSans-73" x="853.515625"/>
      <use xlink:href="#DejaVuSans-68" x="905.615234"/>
      <use xlink:href="#DejaVuSans-61" x="968.994141"/>
      <use xlink:href="#DejaVuSans-70" x="1030.273438"/>
      <use xlink:href="#DejaVuSans-65" x="1093.75"/>
      <use xlink:href="#DejaVuSans-5f" x="1155.273438"/>
      <use xlink:href="#DejaVuSans-74" x="1205.273438"/>
      <use xlink:href="#DejaVuSans-6f" x="1244.482422"/>
      <use xlink:href="#DejaVuSans-5f" x="1305.664062"/>
      <use xlink:href="#DejaVuSans-63" x="1355.664062"/>
      <use xlink:href="#DejaVuSans-6f" x="1410.644531"/>
      <use xlink:href="#DejaVuSans-6c" x="1471.826172"/>
      <use xlink:href="#DejaVuSans-6f" x="1499.609375"/>
      <use xlink:href="#DejaVuSans-72" x="1560.791016"/>
     </g>
    </g>
    <g id="line2d_30">
     <path d="M 166.72125 171.884687 
L 176.72125 171.884687 
L 186.72125 171.884687 
" style="fill: none; stroke: #2ca02c; stroke-width: 1.5; stroke-linecap: square"/>
    </g>
    <g id="text_22">
     <!-- high_gauss_shape_to_color -->
     <g transform="translate(194.72125 175.384687) scale(0.1 -0.1)">
      <use xlink:href="#DejaVuSans-68"/>
      <use xlink:href="#DejaVuSans-69" x="63.378906"/>
      <use xlink:href="#DejaVuSans-67" x="91.162109"/>
      <use xlink:href="#DejaVuSans-68" x="154.638672"/>
      <use xlink:href="#DejaVuSans-5f" x="218.017578"/>
      <use xlink:href="#DejaVuSans-67" x="268.017578"/>
      <use xlink:href="#DejaVuSans-61" x="331.494141"/>
      <use xlink:href="#DejaVuSans-75" x="392.773438"/>
      <use xlink:href="#DejaVuSans-73" x="456.152344"/>
      <use xlink:href="#DejaVuSans-73" x="508.251953"/>
      <use xlink:href="#DejaVuSans-5f" x="560.351562"/>
      <use xlink:href="#DejaVuSans-73" x="610.351562"/>
      <use xlink:href="#DejaVuSans-68" x="662.451172"/>
      <use xlink:href="#DejaVuSans-61" x="725.830078"/>
      <use xlink:href="#DejaVuSans-70" x="787.109375"/>
      <use xlink:href="#DejaVuSans-65" x="850.585938"/>
      <use xlink:href="#DejaVuSans-5f" x="912.109375"/>
      <use xlink:href="#DejaVuSans-74" x="962.109375"/>
      <use xlink:href="#DejaVuSans-6f" x="1001.318359"/>
      <use xlink:href="#DejaVuSans-5f" x="1062.5"/>
      <use xlink:href="#DejaVuSans-63" x="1112.5"/>
      <use xlink:href="#DejaVuSans-6f" x="1167.480469"/>
      <use xlink:href="#DejaVuSans-6c" x="1228.662109"/>
      <use xlink:href="#DejaVuSans-6f" x="1256.445312"/>
      <use xlink:href="#DejaVuSans-72" x="1317.626953"/>
     </g>
    </g>
    <g id="line2d_31">
     <path d="M 166.72125 186.840937 
L 176.72125 186.840937 
L 186.72125 186.840937 
" style="fill: none; stroke: #d62728; stroke-width: 1.5; stroke-linecap: square"/>
    </g>
    <g id="text_23">
     <!-- focal_high_gauss_shape_to_color -->
     <g transform="translate(194.72125 190.340937) scale(0.1 -0.1)">
      <use xlink:href="#DejaVuSans-66"/>
      <use xlink:href="#DejaVuSans-6f" x="35.205078"/>
      <use xlink:href="#DejaVuSans-63" x="96.386719"/>
      <use xlink:href="#DejaVuSans-61" x="151.367188"/>
      <use xlink:href="#DejaVuSans-6c" x="212.646484"/>
      <use xlink:href="#DejaVuSans-5f" x="240.429688"/>
      <use xlink:href="#DejaVuSans-68" x="290.429688"/>
      <use xlink:href="#DejaVuSans-69" x="353.808594"/>
      <use xlink:href="#DejaVuSans-67" x="381.591797"/>
      <use xlink:href="#DejaVuSans-68" x="445.068359"/>
      <use xlink:href="#DejaVuSans-5f" x="508.447266"/>
      <use xlink:href="#DejaVuSans-67" x="558.447266"/>
      <use xlink:href="#DejaVuSans-61" x="621.923828"/>
      <use xlink:href="#DejaVuSans-75" x="683.203125"/>
      <use xlink:href="#DejaVuSans-73" x="746.582031"/>
      <use xlink:href="#DejaVuSans-73" x="798.681641"/>
      <use xlink:href="#DejaVuSans-5f" x="850.78125"/>
      <use xlink:href="#DejaVuSans-73" x="900.78125"/>
      <use xlink:href="#DejaVuSans-68" x="952.880859"/>
      <use xlink:href="#DejaVuSans-61" x="1016.259766"/>
      <use xlink:href="#DejaVuSans-70" x="1077.539062"/>
      <use xlink:href="#DejaVuSans-65" x="1141.015625"/>
      <use xlink:href="#DejaVuSans-5f" x="1202.539062"/>
      <use xlink:href="#DejaVuSans-74" x="1252.539062"/>
      <use xlink:href="#DejaVuSans-6f" x="1291.748047"/>
      <use xlink:href="#DejaVuSans-5f" x="1352.929688"/>
      <use xlink:href="#DejaVuSans-63" x="1402.929688"/>
      <use xlink:href="#DejaVuSans-6f" x="1457.910156"/>
      <use xlink:href="#DejaVuSans-6c" x="1519.091797"/>
      <use xlink:href="#DejaVuSans-6f" x="1546.875"/>
      <use xlink:href="#DejaVuSans-72" x="1608.056641"/>
     </g>
    </g>
    <g id="line2d_32">
     <path d="M 166.72125 201.797188 
L 176.72125 201.797188 
L 186.72125 201.797188 
" style="fill: none; stroke: #9467bd; stroke-width: 1.5; stroke-linecap: square"/>
    </g>
    <g id="text_24">
     <!-- low_gauss_color_to_shape -->
     <g transform="translate(194.72125 205.297188) scale(0.1 -0.1)">
      <use xlink:href="#DejaVuSans-6c"/>
      <use xlink:href="#DejaVuSans-6f" x="27.783203"/>
      <use xlink:href="#DejaVuSans-77" x="88.964844"/>
      <use xlink:href="#DejaVuSans-5f" x="170.751953"/>
      <use xlink:href="#DejaVuSans-67" x="220.751953"/>
      <use xlink:href="#DejaVuSans-61" x="284.228516"/>
      <use xlink:href="#DejaVuSans-75" x="345.507812"/>
      <use xlink:href="#DejaVuSans-73" x="408.886719"/>
      <use xlink:href="#DejaVuSans-73" x="460.986328"/>
      <use xlink:href="#DejaVuSans-5f" x="513.085938"/>
      <use xlink:href="#DejaVuSans-63" x="563.085938"/>
      <use xlink:href="#DejaVuSans-6f" x="618.066406"/>
      <use xlink:href="#DejaVuSans-6c" x="679.248047"/>
      <use xlink:href="#DejaVuSans-6f" x="707.03125"/>
      <use xlink:href="#DejaVuSans-72" x="768.212891"/>
      <use xlink:href="#DejaVuSans-5f" x="809.326172"/>
      <use xlink:href="#DejaVuSans-74" x="859.326172"/>
      <use xlink:href="#DejaVuSans-6f" x="898.535156"/>
      <use xlink:href="#DejaVuSans-5f" x="959.716797"/>
      <use xlink:href="#DejaVuSans-73" x="1009.716797"/>
      <use xlink:href="#DejaVuSans-68" x="1061.816406"/>
      <use xlink:href="#DejaVuSans-61" x="1125.195312"/>
      <use xlink:href="#DejaVuSans-70" x="1186.474609"/>
      <use xlink:href="#DejaVuSans-65" x="1249.951172"/>
     </g>
    </g>
    <g id="line2d_33">
     <path d="M 166.72125 216.753437 
L 176.72125 216.753437 
L 186.72125 216.753437 
" style="fill: none; stroke: #8c564b; stroke-width: 1.5; stroke-linecap: square"/>
    </g>
    <g id="text_25">
     <!-- focal_low_gauss_color_to_shape -->
     <g transform="translate(194.72125 220.253437) scale(0.1 -0.1)">
      <use xlink:href="#DejaVuSans-66"/>
      <use xlink:href="#DejaVuSans-6f" x="35.205078"/>
      <use xlink:href="#DejaVuSans-63" x="96.386719"/>
      <use xlink:href="#DejaVuSans-61" x="151.367188"/>
      <use xlink:href="#DejaVuSans-6c" x="212.646484"/>
      <use xlink:href="#DejaVuSans-5f" x="240.429688"/>
      <use xlink:href="#DejaVuSans-6c" x="290.429688"/>
      <use xlink:href="#DejaVuSans-6f" x="318.212891"/>
      <use xlink:href="#DejaVuSans-77" x="379.394531"/>
      <use xlink:href="#DejaVuSans-5f" x="461.181641"/>
      <use xlink:href="#DejaVuSans-67" x="511.181641"/>
      <use xlink:href="#DejaVuSans-61" x="574.658203"/>
      <use xlink:href="#DejaVuSans-75" x="635.9375"/>
      <use xlink:href="#DejaVuSans-73" x="699.316406"/>
      <use xlink:href="#DejaVuSans-73" x="751.416016"/>
      <use xlink:href="#DejaVuSans-5f" x="803.515625"/>
      <use xlink:href="#DejaVuSans-63" x="853.515625"/>
      <use xlink:href="#DejaVuSans-6f" x="908.496094"/>
      <use xlink:href="#DejaVuSans-6c" x="969.677734"/>
      <use xlink:href="#DejaVuSans-6f" x="997.460938"/>
      <use xlink:href="#DejaVuSans-72" x="1058.642578"/>
      <use xlink:href="#DejaVuSans-5f" x="1099.755859"/>
      <use xlink:href="#DejaVuSans-74" x="1149.755859"/>
      <use xlink:href="#DejaVuSans-6f" x="1188.964844"/>
      <use xlink:href="#DejaVuSans-5f" x="1250.146484"/>
      <use xlink:href="#DejaVuSans-73" x="1300.146484"/>
      <use xlink:href="#DejaVuSans-68" x="1352.246094"/>
      <use xlink:href="#DejaVuSans-61" x="1415.625"/>
      <use xlink:href="#DejaVuSans-70" x="1476.904297"/>
      <use xlink:href="#DejaVuSans-65" x="1540.380859"/>
     </g>
    </g>
    <g id="line2d_34">
     <path d="M 166.72125 231.709687 
L 176.72125 231.709687 
L 186.72125 231.709687 
" style="fill: none; stroke: #e377c2; stroke-width: 1.5; stroke-linecap: square"/>
    </g>
    <g id="text_26">
     <!-- high_gauss_color_to_shape -->
     <g transform="translate(194.72125 235.209687) scale(0.1 -0.1)">
      <use xlink:href="#DejaVuSans-68"/>
      <use xlink:href="#DejaVuSans-69" x="63.378906"/>
      <use xlink:href="#DejaVuSans-67" x="91.162109"/>
      <use xlink:href="#DejaVuSans-68" x="154.638672"/>
      <use xlink:href="#DejaVuSans-5f" x="218.017578"/>
      <use xlink:href="#DejaVuSans-67" x="268.017578"/>
      <use xlink:href="#DejaVuSans-61" x="331.494141"/>
      <use xlink:href="#DejaVuSans-75" x="392.773438"/>
      <use xlink:href="#DejaVuSans-73" x="456.152344"/>
      <use xlink:href="#DejaVuSans-73" x="508.251953"/>
      <use xlink:href="#DejaVuSans-5f" x="560.351562"/>
      <use xlink:href="#DejaVuSans-63" x="610.351562"/>
      <use xlink:href="#DejaVuSans-6f" x="665.332031"/>
      <use xlink:href="#DejaVuSans-6c" x="726.513672"/>
      <use xlink:href="#DejaVuSans-6f" x="754.296875"/>
      <use xlink:href="#DejaVuSans-72" x="815.478516"/>
      <use xlink:href="#DejaVuSans-5f" x="856.591797"/>
      <use xlink:href="#DejaVuSans-74" x="906.591797"/>
      <use xlink:href="#DejaVuSans-6f" x="945.800781"/>
      <use xlink:href="#DejaVuSans-5f" x="1006.982422"/>
      <use xlink:href="#DejaVuSans-73" x="1056.982422"/>
      <use xlink:href="#DejaVuSans-68" x="1109.082031"/>
      <use xlink:href="#DejaVuSans-61" x="1172.460938"/>
      <use xlink:href="#DejaVuSans-70" x="1233.740234"/>
      <use xlink:href="#DejaVuSans-65" x="1297.216797"/>
     </g>
    </g>
    <g id="line2d_35">
     <path d="M 166.72125 246.665937 
L 176.72125 246.665937 
L 186.72125 246.665937 
" style="fill: none; stroke: #7f7f7f; stroke-width: 1.5; stroke-linecap: square"/>
    </g>
    <g id="text_27">
     <!-- focal_high_gauss_color_to_shape -->
     <g transform="translate(194.72125 250.165937) scale(0.1 -0.1)">
      <use xlink:href="#DejaVuSans-66"/>
      <use xlink:href="#DejaVuSans-6f" x="35.205078"/>
      <use xlink:href="#DejaVuSans-63" x="96.386719"/>
      <use xlink:href="#DejaVuSans-61" x="151.367188"/>
      <use xlink:href="#DejaVuSans-6c" x="212.646484"/>
      <use xlink:href="#DejaVuSans-5f" x="240.429688"/>
      <use xlink:href="#DejaVuSans-68" x="290.429688"/>
      <use xlink:href="#DejaVuSans-69" x="353.808594"/>
      <use xlink:href="#DejaVuSans-67" x="381.591797"/>
      <use xlink:href="#DejaVuSans-68" x="445.068359"/>
      <use xlink:href="#DejaVuSans-5f" x="508.447266"/>
      <use xlink:href="#DejaVuSans-67" x="558.447266"/>
      <use xlink:href="#DejaVuSans-61" x="621.923828"/>
      <use xlink:href="#DejaVuSans-75" x="683.203125"/>
      <use xlink:href="#DejaVuSans-73" x="746.582031"/>
      <use xlink:href="#DejaVuSans-73" x="798.681641"/>
      <use xlink:href="#DejaVuSans-5f" x="850.78125"/>
      <use xlink:href="#DejaVuSans-63" x="900.78125"/>
      <use xlink:href="#DejaVuSans-6f" x="955.761719"/>
      <use xlink:href="#DejaVuSans-6c" x="1016.943359"/>
      <use xlink:href="#DejaVuSans-6f" x="1044.726562"/>
      <use xlink:href="#DejaVuSans-72" x="1105.908203"/>
      <use xlink:href="#DejaVuSans-5f" x="1147.021484"/>
      <use xlink:href="#DejaVuSans-74" x="1197.021484"/>
      <use xlink:href="#DejaVuSans-6f" x="1236.230469"/>
      <use xlink:href="#DejaVuSans-5f" x="1297.412109"/>
      <use xlink:href="#DejaVuSans-73" x="1347.412109"/>
      <use xlink:href="#DejaVuSans-68" x="1399.511719"/>
      <use xlink:href="#DejaVuSans-61" x="1462.890625"/>
      <use xlink:href="#DejaVuSans-70" x="1524.169922"/>
      <use xlink:href="#DejaVuSans-65" x="1587.646484"/>
     </g>
    </g>
    <g id="line2d_36">
     <path d="M 166.72125 261.622187 
L 176.72125 261.622187 
L 186.72125 261.622187 
" style="fill: none; stroke: #bcbd22; stroke-width: 1.5; stroke-linecap: square"/>
    </g>
    <g id="text_28">
     <!-- achromatic_shape_to_shape -->
     <g transform="translate(194.72125 265.122187) scale(0.1 -0.1)">
      <defs>
       <path id="DejaVuSans-6d" d="M 3328 2828 
Q 3544 3216 3844 3400 
Q 4144 3584 4550 3584 
Q 5097 3584 5394 3201 
Q 5691 2819 5691 2113 
L 5691 0 
L 5113 0 
L 5113 2094 
Q 5113 2597 4934 2840 
Q 4756 3084 4391 3084 
Q 3944 3084 3684 2787 
Q 3425 2491 3425 1978 
L 3425 0 
L 2847 0 
L 2847 2094 
Q 2847 2600 2669 2842 
Q 2491 3084 2119 3084 
Q 1678 3084 1418 2786 
Q 1159 2488 1159 1978 
L 1159 0 
L 581 0 
L 581 3500 
L 1159 3500 
L 1159 2956 
Q 1356 3278 1631 3431 
Q 1906 3584 2284 3584 
Q 2666 3584 2933 3390 
Q 3200 3197 3328 2828 
z
" transform="scale(0.015625)"/>
      </defs>
      <use xlink:href="#DejaVuSans-61"/>
      <use xlink:href="#DejaVuSans-63" x="61.279297"/>
      <use xlink:href="#DejaVuSans-68" x="116.259766"/>
      <use xlink:href="#DejaVuSans-72" x="179.638672"/>
      <use xlink:href="#DejaVuSans-6f" x="218.501953"/>
      <use xlink:href="#DejaVuSans-6d" x="279.683594"/>
      <use xlink:href="#DejaVuSans-61" x="377.095703"/>
      <use xlink:href="#DejaVuSans-74" x="438.375"/>
      <use xlink:href="#DejaVuSans-69" x="477.583984"/>
      <use xlink:href="#DejaVuSans-63" x="505.367188"/>
      <use xlink:href="#DejaVuSans-5f" x="560.347656"/>
      <use xlink:href="#DejaVuSans-73" x="610.347656"/>
      <use xlink:href="#DejaVuSans-68" x="662.447266"/>
      <use xlink:href="#DejaVuSans-61" x="725.826172"/>
      <use xlink:href="#DejaVuSans-70" x="787.105469"/>
      <use xlink:href="#DejaVuSans-65" x="850.582031"/>
      <use xlink:href="#DejaVuSans-5f" x="912.105469"/>
      <use xlink:href="#DejaVuSans-74" x="962.105469"/>
      <use xlink:href="#DejaVuSans-6f" x="1001.314453"/>
      <use xlink:href="#DejaVuSans-5f" x="1062.496094"/>
      <use xlink:href="#DejaVuSans-73" x="1112.496094"/>
      <use xlink:href="#DejaVuSans-68" x="1164.595703"/>
      <use xlink:href="#DejaVuSans-61" x="1227.974609"/>
      <use xlink:href="#DejaVuSans-70" x="1289.253906"/>
      <use xlink:href="#DejaVuSans-65" x="1352.730469"/>
     </g>
    </g>
   </g>
  </g>
  <g id="text_29">
   <!-- free_behavior -->
   <g transform="translate(189.23625 16.030125) scale(0.12 -0.12)">
    <defs>
     <path id="DejaVuSans-76" d="M 191 3500 
L 800 3500 
L 1894 563 
L 2988 3500 
L 3597 3500 
L 2284 0 
L 1503 0 
L 191 3500 
z
" transform="scale(0.015625)"/>
    </defs>
    <use xlink:href="#DejaVuSans-66"/>
    <use xlink:href="#DejaVuSans-72" x="35.205078"/>
    <use xlink:href="#DejaVuSans-65" x="74.068359"/>
    <use xlink:href="#DejaVuSans-65" x="135.591797"/>
    <use xlink:href="#DejaVuSans-5f" x="197.115234"/>
    <use xlink:href="#DejaVuSans-62" x="247.115234"/>
    <use xlink:href="#DejaVuSans-65" x="310.591797"/>
    <use xlink:href="#DejaVuSans-68" x="372.115234"/>
    <use xlink:href="#DejaVuSans-61" x="435.494141"/>
    <use xlink:href="#DejaVuSans-76" x="496.773438"/>
    <use xlink:href="#DejaVuSans-69" x="555.953125"/>
    <use xlink:href="#DejaVuSans-6f" x="583.736328"/>
    <use xlink:href="#DejaVuSans-72" x="644.917969"/>
   </g>
  </g>
 </g>
 <defs>
  <clipPath id="p05792f362f">
   <rect x="92.16" y="69.12" width="276.48" height="207.36"/>
  </clipPath>
 </defs>
</svg>
